%TF.GenerationSoftware,KiCad,Pcbnew,7.0.5-0*%
%TF.CreationDate,2023-09-10T21:21:50+09:30*%
%TF.ProjectId,Rolio,526f6c69-6f2e-46b6-9963-61645f706362,rev?*%
%TF.SameCoordinates,Original*%
%TF.FileFunction,Drillmap*%
%TF.FilePolarity,Positive*%
%FSLAX45Y45*%
G04 Gerber Fmt 4.5, Leading zero omitted, Abs format (unit mm)*
G04 Created by KiCad (PCBNEW 7.0.5-0) date 2023-09-10 21:21:50*
%MOMM*%
%LPD*%
G01*
G04 APERTURE LIST*
%ADD10C,0.150000*%
%ADD11C,0.200000*%
%ADD12C,0.040000*%
%ADD13C,0.080000*%
%ADD14C,0.090000*%
%ADD15C,0.100000*%
G04 APERTURE END LIST*
D10*
X16590011Y-11248599D02*
X18339407Y-11620445D01*
X19431000Y-9225412D02*
X19431000Y-3880988D01*
X14698941Y-11228323D02*
G75*
G03*
X14751915Y-11232538I52979J330843D01*
G01*
X18736737Y-11362416D02*
X19045931Y-9907769D01*
X17578500Y-7016379D02*
X18848500Y-7016379D01*
X19305412Y-9486890D02*
G75*
G03*
X19431000Y-9225412I-209392J261470D01*
G01*
X9320664Y-3249080D02*
X5534741Y-3846637D01*
X14550986Y-3533613D02*
X12748276Y-3249080D01*
X16437196Y-11232538D02*
X14751915Y-11232538D01*
X10880318Y-10616785D02*
X14698941Y-11228323D01*
X16590011Y-11248599D02*
G75*
G03*
X16437196Y-11232538I-152811J-718921D01*
G01*
X19305412Y-9486891D02*
G75*
G03*
X19045931Y-9907769I459468J-573699D01*
G01*
X10880318Y-10616786D02*
G75*
G03*
X10764092Y-10607538I-116218J-725614D01*
G01*
X9291175Y-10592011D02*
X5486165Y-9391401D01*
X9291175Y-10592010D02*
G75*
G03*
X9391979Y-10607538I100805J319450D01*
G01*
X10764092Y-10607538D02*
X9391979Y-10607538D01*
X14665016Y-3542601D02*
X19096256Y-3545988D01*
X18339407Y-11620445D02*
G75*
G03*
X18736737Y-11362416I69653J327675D01*
G01*
X5251966Y-9071927D02*
G75*
G03*
X5486165Y-9391401I334994J-3D01*
G01*
X12748276Y-3249079D02*
G75*
G03*
X12664866Y-3242538I-83406J-528431D01*
G01*
X14550986Y-3533614D02*
G75*
G03*
X14665016Y-3542601I114594J726054D01*
G01*
X17578500Y-7016379D02*
X17578500Y-3825379D01*
X9404074Y-3242537D02*
G75*
G03*
X9320664Y-3249080I-4J-534903D01*
G01*
X5251970Y-9071927D02*
X5251970Y-4177541D01*
X18848500Y-3825379D02*
X18848500Y-7016379D01*
X19431002Y-3880988D02*
G75*
G03*
X19096256Y-3545988I-335002J-2D01*
G01*
X17578500Y-3825379D02*
X18848500Y-3825379D01*
X9404074Y-3242538D02*
X12664866Y-3242538D01*
X5534742Y-3846638D02*
G75*
G03*
X5251970Y-4177541I52222J-330897D01*
G01*
D11*
D12*
X5822000Y-5745800D02*
X5862000Y-5785800D01*
X5862000Y-5745800D02*
X5822000Y-5785800D01*
X5923600Y-7549200D02*
X5963600Y-7589200D01*
X5963600Y-7549200D02*
X5923600Y-7589200D01*
X6025200Y-4348800D02*
X6065200Y-4388800D01*
X6065200Y-4348800D02*
X6025200Y-4388800D01*
X6025200Y-6126800D02*
X6065200Y-6166800D01*
X6065200Y-6126800D02*
X6025200Y-6166800D01*
X6025200Y-7930200D02*
X6065200Y-7970200D01*
X6065200Y-7930200D02*
X6025200Y-7970200D01*
X6304600Y-4044000D02*
X6344600Y-4084000D01*
X6344600Y-4044000D02*
X6304600Y-4084000D01*
X6304600Y-7625400D02*
X6344600Y-7665400D01*
X6344600Y-7625400D02*
X6304600Y-7665400D01*
X6330000Y-5822000D02*
X6370000Y-5862000D01*
X6370000Y-5822000D02*
X6330000Y-5862000D01*
X7625400Y-9911400D02*
X7665400Y-9951400D01*
X7665400Y-9911400D02*
X7625400Y-9951400D01*
X7752400Y-5441000D02*
X7792400Y-5481000D01*
X7792400Y-5441000D02*
X7752400Y-5481000D01*
X7752400Y-9149400D02*
X7792400Y-9189400D01*
X7792400Y-9149400D02*
X7752400Y-9189400D01*
X7752400Y-9327200D02*
X7792400Y-9367200D01*
X7792400Y-9327200D02*
X7752400Y-9367200D01*
X7803200Y-7244400D02*
X7843200Y-7284400D01*
X7843200Y-7244400D02*
X7803200Y-7284400D01*
X7904800Y-5822000D02*
X7944800Y-5862000D01*
X7944800Y-5822000D02*
X7904800Y-5862000D01*
X7930200Y-4018600D02*
X7970200Y-4058600D01*
X7970200Y-4018600D02*
X7930200Y-4058600D01*
X7930200Y-7625400D02*
X7970200Y-7665400D01*
X7970200Y-7625400D02*
X7930200Y-7665400D01*
X8158800Y-5542600D02*
X8198800Y-5582600D01*
X8198800Y-5542600D02*
X8158800Y-5582600D01*
X8184200Y-9886000D02*
X8224200Y-9926000D01*
X8224200Y-9886000D02*
X8184200Y-9926000D01*
X8209600Y-3739200D02*
X8249600Y-3779200D01*
X8249600Y-3739200D02*
X8209600Y-3779200D01*
X8235000Y-7346000D02*
X8275000Y-7386000D01*
X8275000Y-7346000D02*
X8235000Y-7386000D01*
X8539800Y-9124000D02*
X8579800Y-9164000D01*
X8579800Y-9124000D02*
X8539800Y-9164000D01*
X8743000Y-10216200D02*
X8783000Y-10256200D01*
X8783000Y-10216200D02*
X8743000Y-10256200D01*
X8920800Y-3739200D02*
X8960800Y-3779200D01*
X8960800Y-3739200D02*
X8920800Y-3779200D01*
X8920800Y-5542600D02*
X8960800Y-5582600D01*
X8960800Y-5542600D02*
X8920800Y-5582600D01*
X8920800Y-7346000D02*
X8960800Y-7386000D01*
X8960800Y-7346000D02*
X8920800Y-7386000D01*
X9174800Y-8641400D02*
X9214800Y-8681400D01*
X9214800Y-8641400D02*
X9174800Y-8681400D01*
X9657400Y-5136200D02*
X9697400Y-5176200D01*
X9697400Y-5136200D02*
X9657400Y-5176200D01*
X9657400Y-6939600D02*
X9697400Y-6979600D01*
X9697400Y-6939600D02*
X9657400Y-6979600D01*
X9657400Y-8743000D02*
X9697400Y-8783000D01*
X9697400Y-8743000D02*
X9657400Y-8783000D01*
X9784400Y-9124000D02*
X9824400Y-9164000D01*
X9824400Y-9124000D02*
X9784400Y-9164000D01*
X9809800Y-5542600D02*
X9849800Y-5582600D01*
X9849800Y-5542600D02*
X9809800Y-5582600D01*
X9809800Y-7320600D02*
X9849800Y-7360600D01*
X9849800Y-7320600D02*
X9809800Y-7360600D01*
X9835200Y-3739200D02*
X9875200Y-3779200D01*
X9875200Y-3739200D02*
X9835200Y-3779200D01*
X10038400Y-8844600D02*
X10078400Y-8884600D01*
X10078400Y-8844600D02*
X10038400Y-8884600D01*
X10063800Y-5237800D02*
X10103800Y-5277800D01*
X10103800Y-5237800D02*
X10063800Y-5277800D01*
X10063800Y-7041200D02*
X10103800Y-7081200D01*
X10103800Y-7041200D02*
X10063800Y-7081200D01*
X10114600Y-3459800D02*
X10154600Y-3499800D01*
X10154600Y-3459800D02*
X10114600Y-3499800D01*
X10622600Y-8133400D02*
X10662600Y-8173400D01*
X10662600Y-8133400D02*
X10622600Y-8173400D01*
X10825800Y-7549200D02*
X10865800Y-7589200D01*
X10865800Y-7549200D02*
X10825800Y-7589200D01*
X10825800Y-9403400D02*
X10865800Y-9443400D01*
X10865800Y-9403400D02*
X10825800Y-9443400D01*
X10927400Y-6076000D02*
X10967400Y-6116000D01*
X10967400Y-6076000D02*
X10927400Y-6116000D01*
X11435400Y-5136200D02*
X11475400Y-5176200D01*
X11475400Y-5136200D02*
X11435400Y-5176200D01*
X11537000Y-8743000D02*
X11577000Y-8783000D01*
X11577000Y-8743000D02*
X11537000Y-8783000D01*
X11664000Y-6914200D02*
X11704000Y-6954200D01*
X11704000Y-6914200D02*
X11664000Y-6954200D01*
X11689400Y-7320600D02*
X11729400Y-7360600D01*
X11729400Y-7320600D02*
X11689400Y-7360600D01*
X11714800Y-3739200D02*
X11754800Y-3779200D01*
X11754800Y-3739200D02*
X11714800Y-3779200D01*
X11714800Y-9124000D02*
X11754800Y-9164000D01*
X11754800Y-9124000D02*
X11714800Y-9164000D01*
X11740200Y-5542600D02*
X11780200Y-5582600D01*
X11780200Y-5542600D02*
X11740200Y-5582600D01*
X11968800Y-7015800D02*
X12008800Y-7055800D01*
X12008800Y-7015800D02*
X11968800Y-7055800D01*
X11994200Y-3459800D02*
X12034200Y-3499800D01*
X12034200Y-3459800D02*
X11994200Y-3499800D01*
X12019600Y-5237800D02*
X12059600Y-5277800D01*
X12059600Y-5237800D02*
X12019600Y-5277800D01*
X12045000Y-8844600D02*
X12085000Y-8884600D01*
X12085000Y-8844600D02*
X12045000Y-8884600D01*
X12603800Y-6761800D02*
X12643800Y-6801800D01*
X12643800Y-6761800D02*
X12603800Y-6801800D01*
X12807000Y-3866200D02*
X12847000Y-3906200D01*
X12847000Y-3866200D02*
X12807000Y-3906200D01*
X12807000Y-8158800D02*
X12847000Y-8198800D01*
X12847000Y-8158800D02*
X12807000Y-8198800D01*
X13391200Y-5441000D02*
X13431200Y-5481000D01*
X13431200Y-5441000D02*
X13391200Y-5481000D01*
X13442000Y-7244400D02*
X13482000Y-7284400D01*
X13482000Y-7244400D02*
X13442000Y-7284400D01*
X13492800Y-9047800D02*
X13532800Y-9087800D01*
X13532800Y-9047800D02*
X13492800Y-9087800D01*
X13594400Y-4044000D02*
X13634400Y-4084000D01*
X13634400Y-4044000D02*
X13594400Y-4084000D01*
X13619800Y-5872800D02*
X13659800Y-5912800D01*
X13659800Y-5872800D02*
X13619800Y-5912800D01*
X13619800Y-7650800D02*
X13659800Y-7690800D01*
X13659800Y-7650800D02*
X13619800Y-7690800D01*
X13619800Y-9479600D02*
X13659800Y-9519600D01*
X13659800Y-9479600D02*
X13619800Y-9519600D01*
X13899200Y-5542600D02*
X13939200Y-5582600D01*
X13939200Y-5542600D02*
X13899200Y-5582600D01*
X13924600Y-3713800D02*
X13964600Y-3753800D01*
X13964600Y-3713800D02*
X13924600Y-3753800D01*
X13924600Y-7346000D02*
X13964600Y-7386000D01*
X13964600Y-7346000D02*
X13924600Y-7386000D01*
X13924600Y-9149400D02*
X13964600Y-9189400D01*
X13964600Y-9149400D02*
X13924600Y-9189400D01*
X14534200Y-10749600D02*
X14574200Y-10789600D01*
X14574200Y-10749600D02*
X14534200Y-10789600D01*
X14534200Y-10978200D02*
X14574200Y-11018200D01*
X14574200Y-10978200D02*
X14534200Y-11018200D01*
X14635800Y-7727000D02*
X14675800Y-7767000D01*
X14675800Y-7727000D02*
X14635800Y-7767000D01*
X14686600Y-6507800D02*
X14726600Y-6547800D01*
X14726600Y-6507800D02*
X14686600Y-6547800D01*
X14712000Y-4552000D02*
X14752000Y-4592000D01*
X14752000Y-4552000D02*
X14712000Y-4592000D01*
X15270800Y-5771200D02*
X15310800Y-5811200D01*
X15310800Y-5771200D02*
X15270800Y-5811200D01*
X15321600Y-7549200D02*
X15361600Y-7589200D01*
X15361600Y-7549200D02*
X15321600Y-7589200D01*
X15347000Y-3713800D02*
X15387000Y-3753800D01*
X15387000Y-3713800D02*
X15347000Y-3753800D01*
X15347000Y-9327200D02*
X15387000Y-9367200D01*
X15387000Y-9327200D02*
X15347000Y-9367200D01*
X15397800Y-4044000D02*
X15437800Y-4084000D01*
X15437800Y-4044000D02*
X15397800Y-4084000D01*
X15448600Y-6177600D02*
X15488600Y-6217600D01*
X15488600Y-6177600D02*
X15448600Y-6217600D01*
X15474000Y-7981000D02*
X15514000Y-8021000D01*
X15514000Y-7981000D02*
X15474000Y-8021000D01*
X15474000Y-9759000D02*
X15514000Y-9799000D01*
X15514000Y-9759000D02*
X15474000Y-9799000D01*
X15499400Y-4399600D02*
X15539400Y-4439600D01*
X15539400Y-4399600D02*
X15499400Y-4439600D01*
X15778800Y-5872800D02*
X15818800Y-5912800D01*
X15818800Y-5872800D02*
X15778800Y-5912800D01*
X15804200Y-7650800D02*
X15844200Y-7690800D01*
X15844200Y-7650800D02*
X15804200Y-7690800D01*
X15804200Y-9454200D02*
X15844200Y-9494200D01*
X15844200Y-9454200D02*
X15804200Y-9494200D01*
X16312200Y-7854000D02*
X16352200Y-7894000D01*
X16352200Y-7854000D02*
X16312200Y-7894000D01*
X16439200Y-8768400D02*
X16479200Y-8808400D01*
X16479200Y-8768400D02*
X16439200Y-8808400D01*
X16515400Y-11003600D02*
X16555400Y-11043600D01*
X16555400Y-11003600D02*
X16515400Y-11043600D01*
X16591600Y-7041200D02*
X16631600Y-7081200D01*
X16631600Y-7041200D02*
X16591600Y-7081200D01*
X16693200Y-6939600D02*
X16733200Y-6979600D01*
X16733200Y-6939600D02*
X16693200Y-6979600D01*
X16744000Y-7600000D02*
X16784000Y-7640000D01*
X16784000Y-7600000D02*
X16744000Y-7640000D01*
X16845600Y-7498400D02*
X16885600Y-7538400D01*
X16885600Y-7498400D02*
X16845600Y-7538400D01*
X16947200Y-7396800D02*
X16987200Y-7436800D01*
X16987200Y-7396800D02*
X16947200Y-7436800D01*
X16998000Y-8387400D02*
X17038000Y-8427400D01*
X17038000Y-8387400D02*
X16998000Y-8427400D01*
X16998000Y-8539800D02*
X17038000Y-8579800D01*
X17038000Y-8539800D02*
X16998000Y-8579800D01*
X17023400Y-6888800D02*
X17063400Y-6928800D01*
X17063400Y-6888800D02*
X17023400Y-6928800D01*
X17023400Y-7015800D02*
X17063400Y-7055800D01*
X17063400Y-7015800D02*
X17023400Y-7055800D01*
X17048800Y-7295200D02*
X17088800Y-7335200D01*
X17088800Y-7295200D02*
X17048800Y-7335200D01*
X17099600Y-3993200D02*
X17139600Y-4033200D01*
X17139600Y-3993200D02*
X17099600Y-4033200D01*
X17099600Y-4298000D02*
X17139600Y-4338000D01*
X17139600Y-4298000D02*
X17099600Y-4338000D01*
X17099600Y-4653600D02*
X17139600Y-4693600D01*
X17139600Y-4653600D02*
X17099600Y-4693600D01*
X17099600Y-5009200D02*
X17139600Y-5049200D01*
X17139600Y-5009200D02*
X17099600Y-5049200D01*
X17226600Y-3815400D02*
X17266600Y-3855400D01*
X17266600Y-3815400D02*
X17226600Y-3855400D01*
X17226600Y-7142800D02*
X17266600Y-7182800D01*
X17266600Y-7142800D02*
X17226600Y-7182800D01*
X17480600Y-9505000D02*
X17520600Y-9545000D01*
X17520600Y-9505000D02*
X17480600Y-9545000D01*
X17582200Y-9708200D02*
X17622200Y-9748200D01*
X17622200Y-9708200D02*
X17582200Y-9748200D01*
X17607600Y-8438200D02*
X17647600Y-8478200D01*
X17647600Y-8438200D02*
X17607600Y-8478200D01*
X17633000Y-9987600D02*
X17673000Y-10027600D01*
X17673000Y-9987600D02*
X17633000Y-10027600D01*
X18191800Y-7727000D02*
X18231800Y-7767000D01*
X18231800Y-7727000D02*
X18191800Y-7767000D01*
X18319828Y-8285800D02*
X18359828Y-8325800D01*
X18359828Y-8285800D02*
X18319828Y-8325800D01*
X18319828Y-8616000D02*
X18359828Y-8656000D01*
X18359828Y-8616000D02*
X18319828Y-8656000D01*
X18319828Y-9003045D02*
X18359828Y-9043045D01*
X18359828Y-9003045D02*
X18319828Y-9043045D01*
X19055400Y-8362000D02*
X19095400Y-8402000D01*
X19095400Y-8362000D02*
X19055400Y-8402000D01*
X19182400Y-4094800D02*
X19222400Y-4134800D01*
X19222400Y-4094800D02*
X19182400Y-4134800D01*
X19182400Y-4552000D02*
X19222400Y-4592000D01*
X19222400Y-4552000D02*
X19182400Y-4592000D01*
X19233200Y-9047800D02*
X19273200Y-9087800D01*
X19273200Y-9047800D02*
X19233200Y-9087800D01*
X19233200Y-9200200D02*
X19273200Y-9240200D01*
X19273200Y-9200200D02*
X19233200Y-9240200D01*
D13*
X16662820Y-4673600D02*
G75*
G03*
X16662820Y-4673600I-40000J0D01*
G01*
X16662820Y-4873600D02*
G75*
G03*
X16662820Y-4873600I-40000J0D01*
G01*
X17487240Y-3936000D02*
G75*
G03*
X17487240Y-3936000I-40000J0D01*
G01*
X17487240Y-4190000D02*
G75*
G03*
X17487240Y-4190000I-40000J0D01*
G01*
X17487240Y-4444000D02*
G75*
G03*
X17487240Y-4444000I-40000J0D01*
G01*
X17487240Y-4698000D02*
G75*
G03*
X17487240Y-4698000I-40000J0D01*
G01*
X17487240Y-4952000D02*
G75*
G03*
X17487240Y-4952000I-40000J0D01*
G01*
X17487240Y-5206000D02*
G75*
G03*
X17487240Y-5206000I-40000J0D01*
G01*
X17487240Y-5460000D02*
G75*
G03*
X17487240Y-5460000I-40000J0D01*
G01*
X17487240Y-5714000D02*
G75*
G03*
X17487240Y-5714000I-40000J0D01*
G01*
X17487240Y-5968000D02*
G75*
G03*
X17487240Y-5968000I-40000J0D01*
G01*
X17487240Y-6222000D02*
G75*
G03*
X17487240Y-6222000I-40000J0D01*
G01*
X17487240Y-6476000D02*
G75*
G03*
X17487240Y-6476000I-40000J0D01*
G01*
X17487240Y-6730000D02*
G75*
G03*
X17487240Y-6730000I-40000J0D01*
G01*
X19011240Y-3936000D02*
G75*
G03*
X19011240Y-3936000I-40000J0D01*
G01*
X19011240Y-4190000D02*
G75*
G03*
X19011240Y-4190000I-40000J0D01*
G01*
X19011240Y-4444000D02*
G75*
G03*
X19011240Y-4444000I-40000J0D01*
G01*
X19011240Y-4698000D02*
G75*
G03*
X19011240Y-4698000I-40000J0D01*
G01*
X19011240Y-4952000D02*
G75*
G03*
X19011240Y-4952000I-40000J0D01*
G01*
X19011240Y-5206000D02*
G75*
G03*
X19011240Y-5206000I-40000J0D01*
G01*
X19011240Y-5460000D02*
G75*
G03*
X19011240Y-5460000I-40000J0D01*
G01*
X19011240Y-5714000D02*
G75*
G03*
X19011240Y-5714000I-40000J0D01*
G01*
X19011240Y-5968000D02*
G75*
G03*
X19011240Y-5968000I-40000J0D01*
G01*
X19011240Y-6222000D02*
G75*
G03*
X19011240Y-6222000I-40000J0D01*
G01*
X19011240Y-6476000D02*
G75*
G03*
X19011240Y-6476000I-40000J0D01*
G01*
X19011240Y-6730000D02*
G75*
G03*
X19011240Y-6730000I-40000J0D01*
G01*
D14*
X18719740Y-9112000D02*
X18719740Y-9202000D01*
X18674740Y-9157000D02*
X18764740Y-9157000D01*
X18782240Y-8111000D02*
X18782240Y-8201000D01*
X18737240Y-8156000D02*
X18827240Y-8156000D01*
X18782240Y-8365000D02*
X18782240Y-8455000D01*
X18737240Y-8410000D02*
X18827240Y-8410000D01*
X18782240Y-8619000D02*
X18782240Y-8709000D01*
X18737240Y-8664000D02*
X18827240Y-8664000D01*
X18782240Y-8873000D02*
X18782240Y-8963000D01*
X18737240Y-8918000D02*
X18827240Y-8918000D01*
X18904740Y-9112000D02*
X18904740Y-9202000D01*
X18859740Y-9157000D02*
X18949740Y-9157000D01*
D15*
X17736596Y-7282356D02*
X17736596Y-7211644D01*
X17665884Y-7211644D01*
X17665884Y-7282356D01*
X17736596Y-7282356D01*
X17990596Y-7282356D02*
X17990596Y-7211644D01*
X17919884Y-7211644D01*
X17919884Y-7282356D01*
X17990596Y-7282356D01*
X18244596Y-7282356D02*
X18244596Y-7211644D01*
X18173884Y-7211644D01*
X18173884Y-7282356D01*
X18244596Y-7282356D01*
X18498596Y-7282356D02*
X18498596Y-7211644D01*
X18427884Y-7211644D01*
X18427884Y-7282356D01*
X18498596Y-7282356D01*
X18752596Y-7282356D02*
X18752596Y-7211644D01*
X18681884Y-7211644D01*
X18681884Y-7282356D01*
X18752596Y-7282356D01*
D11*
X5505243Y-11946750D02*
X5505243Y-11746750D01*
X5505243Y-11746750D02*
X5552862Y-11746750D01*
X5552862Y-11746750D02*
X5581433Y-11756274D01*
X5581433Y-11756274D02*
X5600481Y-11775322D01*
X5600481Y-11775322D02*
X5610004Y-11794369D01*
X5610004Y-11794369D02*
X5619528Y-11832464D01*
X5619528Y-11832464D02*
X5619528Y-11861036D01*
X5619528Y-11861036D02*
X5610004Y-11899131D01*
X5610004Y-11899131D02*
X5600481Y-11918179D01*
X5600481Y-11918179D02*
X5581433Y-11937226D01*
X5581433Y-11937226D02*
X5552862Y-11946750D01*
X5552862Y-11946750D02*
X5505243Y-11946750D01*
X5705243Y-11946750D02*
X5705243Y-11813417D01*
X5705243Y-11851512D02*
X5714766Y-11832464D01*
X5714766Y-11832464D02*
X5724290Y-11822941D01*
X5724290Y-11822941D02*
X5743338Y-11813417D01*
X5743338Y-11813417D02*
X5762385Y-11813417D01*
X5829052Y-11946750D02*
X5829052Y-11813417D01*
X5829052Y-11746750D02*
X5819528Y-11756274D01*
X5819528Y-11756274D02*
X5829052Y-11765798D01*
X5829052Y-11765798D02*
X5838576Y-11756274D01*
X5838576Y-11756274D02*
X5829052Y-11746750D01*
X5829052Y-11746750D02*
X5829052Y-11765798D01*
X5952862Y-11946750D02*
X5933814Y-11937226D01*
X5933814Y-11937226D02*
X5924290Y-11918179D01*
X5924290Y-11918179D02*
X5924290Y-11746750D01*
X6057623Y-11946750D02*
X6038576Y-11937226D01*
X6038576Y-11937226D02*
X6029052Y-11918179D01*
X6029052Y-11918179D02*
X6029052Y-11746750D01*
X6286195Y-11946750D02*
X6286195Y-11746750D01*
X6286195Y-11746750D02*
X6352862Y-11889607D01*
X6352862Y-11889607D02*
X6419528Y-11746750D01*
X6419528Y-11746750D02*
X6419528Y-11946750D01*
X6600481Y-11946750D02*
X6600481Y-11841988D01*
X6600481Y-11841988D02*
X6590957Y-11822941D01*
X6590957Y-11822941D02*
X6571909Y-11813417D01*
X6571909Y-11813417D02*
X6533814Y-11813417D01*
X6533814Y-11813417D02*
X6514766Y-11822941D01*
X6600481Y-11937226D02*
X6581433Y-11946750D01*
X6581433Y-11946750D02*
X6533814Y-11946750D01*
X6533814Y-11946750D02*
X6514766Y-11937226D01*
X6514766Y-11937226D02*
X6505243Y-11918179D01*
X6505243Y-11918179D02*
X6505243Y-11899131D01*
X6505243Y-11899131D02*
X6514766Y-11880083D01*
X6514766Y-11880083D02*
X6533814Y-11870560D01*
X6533814Y-11870560D02*
X6581433Y-11870560D01*
X6581433Y-11870560D02*
X6600481Y-11861036D01*
X6695719Y-11813417D02*
X6695719Y-12013417D01*
X6695719Y-11822941D02*
X6714766Y-11813417D01*
X6714766Y-11813417D02*
X6752862Y-11813417D01*
X6752862Y-11813417D02*
X6771909Y-11822941D01*
X6771909Y-11822941D02*
X6781433Y-11832464D01*
X6781433Y-11832464D02*
X6790957Y-11851512D01*
X6790957Y-11851512D02*
X6790957Y-11908655D01*
X6790957Y-11908655D02*
X6781433Y-11927702D01*
X6781433Y-11927702D02*
X6771909Y-11937226D01*
X6771909Y-11937226D02*
X6752862Y-11946750D01*
X6752862Y-11946750D02*
X6714766Y-11946750D01*
X6714766Y-11946750D02*
X6695719Y-11937226D01*
X6876671Y-11927702D02*
X6886195Y-11937226D01*
X6886195Y-11937226D02*
X6876671Y-11946750D01*
X6876671Y-11946750D02*
X6867147Y-11937226D01*
X6867147Y-11937226D02*
X6876671Y-11927702D01*
X6876671Y-11927702D02*
X6876671Y-11946750D01*
X6876671Y-11822941D02*
X6886195Y-11832464D01*
X6886195Y-11832464D02*
X6876671Y-11841988D01*
X6876671Y-11841988D02*
X6867147Y-11832464D01*
X6867147Y-11832464D02*
X6876671Y-11822941D01*
X6876671Y-11822941D02*
X6876671Y-11841988D01*
D12*
X5204466Y-12255266D02*
X5244466Y-12295266D01*
X5244466Y-12255266D02*
X5204466Y-12295266D01*
D11*
X5543338Y-12166750D02*
X5562386Y-12166750D01*
X5562386Y-12166750D02*
X5581433Y-12176274D01*
X5581433Y-12176274D02*
X5590957Y-12185798D01*
X5590957Y-12185798D02*
X5600481Y-12204845D01*
X5600481Y-12204845D02*
X5610004Y-12242941D01*
X5610004Y-12242941D02*
X5610004Y-12290560D01*
X5610004Y-12290560D02*
X5600481Y-12328655D01*
X5600481Y-12328655D02*
X5590957Y-12347702D01*
X5590957Y-12347702D02*
X5581433Y-12357226D01*
X5581433Y-12357226D02*
X5562386Y-12366750D01*
X5562386Y-12366750D02*
X5543338Y-12366750D01*
X5543338Y-12366750D02*
X5524290Y-12357226D01*
X5524290Y-12357226D02*
X5514766Y-12347702D01*
X5514766Y-12347702D02*
X5505243Y-12328655D01*
X5505243Y-12328655D02*
X5495719Y-12290560D01*
X5495719Y-12290560D02*
X5495719Y-12242941D01*
X5495719Y-12242941D02*
X5505243Y-12204845D01*
X5505243Y-12204845D02*
X5514766Y-12185798D01*
X5514766Y-12185798D02*
X5524290Y-12176274D01*
X5524290Y-12176274D02*
X5543338Y-12166750D01*
X5695719Y-12347702D02*
X5705243Y-12357226D01*
X5705243Y-12357226D02*
X5695719Y-12366750D01*
X5695719Y-12366750D02*
X5686195Y-12357226D01*
X5686195Y-12357226D02*
X5695719Y-12347702D01*
X5695719Y-12347702D02*
X5695719Y-12366750D01*
X5876671Y-12233417D02*
X5876671Y-12366750D01*
X5829052Y-12157226D02*
X5781433Y-12300083D01*
X5781433Y-12300083D02*
X5905243Y-12300083D01*
X6019528Y-12166750D02*
X6038576Y-12166750D01*
X6038576Y-12166750D02*
X6057624Y-12176274D01*
X6057624Y-12176274D02*
X6067147Y-12185798D01*
X6067147Y-12185798D02*
X6076671Y-12204845D01*
X6076671Y-12204845D02*
X6086195Y-12242941D01*
X6086195Y-12242941D02*
X6086195Y-12290560D01*
X6086195Y-12290560D02*
X6076671Y-12328655D01*
X6076671Y-12328655D02*
X6067147Y-12347702D01*
X6067147Y-12347702D02*
X6057624Y-12357226D01*
X6057624Y-12357226D02*
X6038576Y-12366750D01*
X6038576Y-12366750D02*
X6019528Y-12366750D01*
X6019528Y-12366750D02*
X6000481Y-12357226D01*
X6000481Y-12357226D02*
X5990957Y-12347702D01*
X5990957Y-12347702D02*
X5981433Y-12328655D01*
X5981433Y-12328655D02*
X5971909Y-12290560D01*
X5971909Y-12290560D02*
X5971909Y-12242941D01*
X5971909Y-12242941D02*
X5981433Y-12204845D01*
X5981433Y-12204845D02*
X5990957Y-12185798D01*
X5990957Y-12185798D02*
X6000481Y-12176274D01*
X6000481Y-12176274D02*
X6019528Y-12166750D01*
X6210004Y-12166750D02*
X6229052Y-12166750D01*
X6229052Y-12166750D02*
X6248100Y-12176274D01*
X6248100Y-12176274D02*
X6257624Y-12185798D01*
X6257624Y-12185798D02*
X6267147Y-12204845D01*
X6267147Y-12204845D02*
X6276671Y-12242941D01*
X6276671Y-12242941D02*
X6276671Y-12290560D01*
X6276671Y-12290560D02*
X6267147Y-12328655D01*
X6267147Y-12328655D02*
X6257624Y-12347702D01*
X6257624Y-12347702D02*
X6248100Y-12357226D01*
X6248100Y-12357226D02*
X6229052Y-12366750D01*
X6229052Y-12366750D02*
X6210004Y-12366750D01*
X6210004Y-12366750D02*
X6190957Y-12357226D01*
X6190957Y-12357226D02*
X6181433Y-12347702D01*
X6181433Y-12347702D02*
X6171909Y-12328655D01*
X6171909Y-12328655D02*
X6162385Y-12290560D01*
X6162385Y-12290560D02*
X6162385Y-12242941D01*
X6162385Y-12242941D02*
X6171909Y-12204845D01*
X6171909Y-12204845D02*
X6181433Y-12185798D01*
X6181433Y-12185798D02*
X6190957Y-12176274D01*
X6190957Y-12176274D02*
X6210004Y-12166750D01*
X6362385Y-12366750D02*
X6362385Y-12233417D01*
X6362385Y-12252464D02*
X6371909Y-12242941D01*
X6371909Y-12242941D02*
X6390957Y-12233417D01*
X6390957Y-12233417D02*
X6419528Y-12233417D01*
X6419528Y-12233417D02*
X6438576Y-12242941D01*
X6438576Y-12242941D02*
X6448100Y-12261988D01*
X6448100Y-12261988D02*
X6448100Y-12366750D01*
X6448100Y-12261988D02*
X6457624Y-12242941D01*
X6457624Y-12242941D02*
X6476671Y-12233417D01*
X6476671Y-12233417D02*
X6505243Y-12233417D01*
X6505243Y-12233417D02*
X6524290Y-12242941D01*
X6524290Y-12242941D02*
X6533814Y-12261988D01*
X6533814Y-12261988D02*
X6533814Y-12366750D01*
X6629052Y-12366750D02*
X6629052Y-12233417D01*
X6629052Y-12252464D02*
X6638576Y-12242941D01*
X6638576Y-12242941D02*
X6657624Y-12233417D01*
X6657624Y-12233417D02*
X6686195Y-12233417D01*
X6686195Y-12233417D02*
X6705243Y-12242941D01*
X6705243Y-12242941D02*
X6714766Y-12261988D01*
X6714766Y-12261988D02*
X6714766Y-12366750D01*
X6714766Y-12261988D02*
X6724290Y-12242941D01*
X6724290Y-12242941D02*
X6743338Y-12233417D01*
X6743338Y-12233417D02*
X6771909Y-12233417D01*
X6771909Y-12233417D02*
X6790957Y-12242941D01*
X6790957Y-12242941D02*
X6800481Y-12261988D01*
X6800481Y-12261988D02*
X6800481Y-12366750D01*
X7190957Y-12157226D02*
X7019528Y-12414369D01*
X7448100Y-12166750D02*
X7467148Y-12166750D01*
X7467148Y-12166750D02*
X7486195Y-12176274D01*
X7486195Y-12176274D02*
X7495719Y-12185798D01*
X7495719Y-12185798D02*
X7505243Y-12204845D01*
X7505243Y-12204845D02*
X7514767Y-12242941D01*
X7514767Y-12242941D02*
X7514767Y-12290560D01*
X7514767Y-12290560D02*
X7505243Y-12328655D01*
X7505243Y-12328655D02*
X7495719Y-12347702D01*
X7495719Y-12347702D02*
X7486195Y-12357226D01*
X7486195Y-12357226D02*
X7467148Y-12366750D01*
X7467148Y-12366750D02*
X7448100Y-12366750D01*
X7448100Y-12366750D02*
X7429052Y-12357226D01*
X7429052Y-12357226D02*
X7419528Y-12347702D01*
X7419528Y-12347702D02*
X7410005Y-12328655D01*
X7410005Y-12328655D02*
X7400481Y-12290560D01*
X7400481Y-12290560D02*
X7400481Y-12242941D01*
X7400481Y-12242941D02*
X7410005Y-12204845D01*
X7410005Y-12204845D02*
X7419528Y-12185798D01*
X7419528Y-12185798D02*
X7429052Y-12176274D01*
X7429052Y-12176274D02*
X7448100Y-12166750D01*
X7600481Y-12347702D02*
X7610005Y-12357226D01*
X7610005Y-12357226D02*
X7600481Y-12366750D01*
X7600481Y-12366750D02*
X7590957Y-12357226D01*
X7590957Y-12357226D02*
X7600481Y-12347702D01*
X7600481Y-12347702D02*
X7600481Y-12366750D01*
X7733814Y-12166750D02*
X7752862Y-12166750D01*
X7752862Y-12166750D02*
X7771909Y-12176274D01*
X7771909Y-12176274D02*
X7781433Y-12185798D01*
X7781433Y-12185798D02*
X7790957Y-12204845D01*
X7790957Y-12204845D02*
X7800481Y-12242941D01*
X7800481Y-12242941D02*
X7800481Y-12290560D01*
X7800481Y-12290560D02*
X7790957Y-12328655D01*
X7790957Y-12328655D02*
X7781433Y-12347702D01*
X7781433Y-12347702D02*
X7771909Y-12357226D01*
X7771909Y-12357226D02*
X7752862Y-12366750D01*
X7752862Y-12366750D02*
X7733814Y-12366750D01*
X7733814Y-12366750D02*
X7714767Y-12357226D01*
X7714767Y-12357226D02*
X7705243Y-12347702D01*
X7705243Y-12347702D02*
X7695719Y-12328655D01*
X7695719Y-12328655D02*
X7686195Y-12290560D01*
X7686195Y-12290560D02*
X7686195Y-12242941D01*
X7686195Y-12242941D02*
X7695719Y-12204845D01*
X7695719Y-12204845D02*
X7705243Y-12185798D01*
X7705243Y-12185798D02*
X7714767Y-12176274D01*
X7714767Y-12176274D02*
X7733814Y-12166750D01*
X7990957Y-12366750D02*
X7876671Y-12366750D01*
X7933814Y-12366750D02*
X7933814Y-12166750D01*
X7933814Y-12166750D02*
X7914767Y-12195322D01*
X7914767Y-12195322D02*
X7895719Y-12214369D01*
X7895719Y-12214369D02*
X7876671Y-12223893D01*
X8171909Y-12166750D02*
X8076671Y-12166750D01*
X8076671Y-12166750D02*
X8067148Y-12261988D01*
X8067148Y-12261988D02*
X8076671Y-12252464D01*
X8076671Y-12252464D02*
X8095719Y-12242941D01*
X8095719Y-12242941D02*
X8143338Y-12242941D01*
X8143338Y-12242941D02*
X8162386Y-12252464D01*
X8162386Y-12252464D02*
X8171909Y-12261988D01*
X8171909Y-12261988D02*
X8181433Y-12281036D01*
X8181433Y-12281036D02*
X8181433Y-12328655D01*
X8181433Y-12328655D02*
X8171909Y-12347702D01*
X8171909Y-12347702D02*
X8162386Y-12357226D01*
X8162386Y-12357226D02*
X8143338Y-12366750D01*
X8143338Y-12366750D02*
X8095719Y-12366750D01*
X8095719Y-12366750D02*
X8076671Y-12357226D01*
X8076671Y-12357226D02*
X8067148Y-12347702D01*
X8248100Y-12166750D02*
X8381433Y-12166750D01*
X8381433Y-12166750D02*
X8295719Y-12366750D01*
X8448100Y-12166750D02*
X8448100Y-12204845D01*
X8524291Y-12166750D02*
X8524291Y-12204845D01*
X8819529Y-12442941D02*
X8810005Y-12433417D01*
X8810005Y-12433417D02*
X8790957Y-12404845D01*
X8790957Y-12404845D02*
X8781433Y-12385798D01*
X8781433Y-12385798D02*
X8771910Y-12357226D01*
X8771910Y-12357226D02*
X8762386Y-12309607D01*
X8762386Y-12309607D02*
X8762386Y-12271512D01*
X8762386Y-12271512D02*
X8771910Y-12223893D01*
X8771910Y-12223893D02*
X8781433Y-12195322D01*
X8781433Y-12195322D02*
X8790957Y-12176274D01*
X8790957Y-12176274D02*
X8810005Y-12147702D01*
X8810005Y-12147702D02*
X8819529Y-12138179D01*
X9000481Y-12366750D02*
X8886195Y-12366750D01*
X8943338Y-12366750D02*
X8943338Y-12166750D01*
X8943338Y-12166750D02*
X8924291Y-12195322D01*
X8924291Y-12195322D02*
X8905243Y-12214369D01*
X8905243Y-12214369D02*
X8886195Y-12223893D01*
X9190957Y-12366750D02*
X9076672Y-12366750D01*
X9133814Y-12366750D02*
X9133814Y-12166750D01*
X9133814Y-12166750D02*
X9114767Y-12195322D01*
X9114767Y-12195322D02*
X9095719Y-12214369D01*
X9095719Y-12214369D02*
X9076672Y-12223893D01*
X9371910Y-12166750D02*
X9276672Y-12166750D01*
X9276672Y-12166750D02*
X9267148Y-12261988D01*
X9267148Y-12261988D02*
X9276672Y-12252464D01*
X9276672Y-12252464D02*
X9295719Y-12242941D01*
X9295719Y-12242941D02*
X9343338Y-12242941D01*
X9343338Y-12242941D02*
X9362386Y-12252464D01*
X9362386Y-12252464D02*
X9371910Y-12261988D01*
X9371910Y-12261988D02*
X9381433Y-12281036D01*
X9381433Y-12281036D02*
X9381433Y-12328655D01*
X9381433Y-12328655D02*
X9371910Y-12347702D01*
X9371910Y-12347702D02*
X9362386Y-12357226D01*
X9362386Y-12357226D02*
X9343338Y-12366750D01*
X9343338Y-12366750D02*
X9295719Y-12366750D01*
X9295719Y-12366750D02*
X9276672Y-12357226D01*
X9276672Y-12357226D02*
X9267148Y-12347702D01*
X9619529Y-12366750D02*
X9619529Y-12166750D01*
X9705243Y-12366750D02*
X9705243Y-12261988D01*
X9705243Y-12261988D02*
X9695719Y-12242941D01*
X9695719Y-12242941D02*
X9676672Y-12233417D01*
X9676672Y-12233417D02*
X9648100Y-12233417D01*
X9648100Y-12233417D02*
X9629053Y-12242941D01*
X9629053Y-12242941D02*
X9619529Y-12252464D01*
X9829053Y-12366750D02*
X9810005Y-12357226D01*
X9810005Y-12357226D02*
X9800481Y-12347702D01*
X9800481Y-12347702D02*
X9790957Y-12328655D01*
X9790957Y-12328655D02*
X9790957Y-12271512D01*
X9790957Y-12271512D02*
X9800481Y-12252464D01*
X9800481Y-12252464D02*
X9810005Y-12242941D01*
X9810005Y-12242941D02*
X9829053Y-12233417D01*
X9829053Y-12233417D02*
X9857624Y-12233417D01*
X9857624Y-12233417D02*
X9876672Y-12242941D01*
X9876672Y-12242941D02*
X9886195Y-12252464D01*
X9886195Y-12252464D02*
X9895719Y-12271512D01*
X9895719Y-12271512D02*
X9895719Y-12328655D01*
X9895719Y-12328655D02*
X9886195Y-12347702D01*
X9886195Y-12347702D02*
X9876672Y-12357226D01*
X9876672Y-12357226D02*
X9857624Y-12366750D01*
X9857624Y-12366750D02*
X9829053Y-12366750D01*
X10010005Y-12366750D02*
X9990957Y-12357226D01*
X9990957Y-12357226D02*
X9981434Y-12338179D01*
X9981434Y-12338179D02*
X9981434Y-12166750D01*
X10162386Y-12357226D02*
X10143338Y-12366750D01*
X10143338Y-12366750D02*
X10105243Y-12366750D01*
X10105243Y-12366750D02*
X10086195Y-12357226D01*
X10086195Y-12357226D02*
X10076672Y-12338179D01*
X10076672Y-12338179D02*
X10076672Y-12261988D01*
X10076672Y-12261988D02*
X10086195Y-12242941D01*
X10086195Y-12242941D02*
X10105243Y-12233417D01*
X10105243Y-12233417D02*
X10143338Y-12233417D01*
X10143338Y-12233417D02*
X10162386Y-12242941D01*
X10162386Y-12242941D02*
X10171910Y-12261988D01*
X10171910Y-12261988D02*
X10171910Y-12281036D01*
X10171910Y-12281036D02*
X10076672Y-12300083D01*
X10248100Y-12357226D02*
X10267148Y-12366750D01*
X10267148Y-12366750D02*
X10305243Y-12366750D01*
X10305243Y-12366750D02*
X10324291Y-12357226D01*
X10324291Y-12357226D02*
X10333815Y-12338179D01*
X10333815Y-12338179D02*
X10333815Y-12328655D01*
X10333815Y-12328655D02*
X10324291Y-12309607D01*
X10324291Y-12309607D02*
X10305243Y-12300083D01*
X10305243Y-12300083D02*
X10276672Y-12300083D01*
X10276672Y-12300083D02*
X10257624Y-12290560D01*
X10257624Y-12290560D02*
X10248100Y-12271512D01*
X10248100Y-12271512D02*
X10248100Y-12261988D01*
X10248100Y-12261988D02*
X10257624Y-12242941D01*
X10257624Y-12242941D02*
X10276672Y-12233417D01*
X10276672Y-12233417D02*
X10305243Y-12233417D01*
X10305243Y-12233417D02*
X10324291Y-12242941D01*
X10400481Y-12442941D02*
X10410005Y-12433417D01*
X10410005Y-12433417D02*
X10429053Y-12404845D01*
X10429053Y-12404845D02*
X10438576Y-12385798D01*
X10438576Y-12385798D02*
X10448100Y-12357226D01*
X10448100Y-12357226D02*
X10457624Y-12309607D01*
X10457624Y-12309607D02*
X10457624Y-12271512D01*
X10457624Y-12271512D02*
X10448100Y-12223893D01*
X10448100Y-12223893D02*
X10438576Y-12195322D01*
X10438576Y-12195322D02*
X10429053Y-12176274D01*
X10429053Y-12176274D02*
X10410005Y-12147702D01*
X10410005Y-12147702D02*
X10400481Y-12138179D01*
D13*
X5244466Y-12539266D02*
G75*
G03*
X5244466Y-12539266I-40000J0D01*
G01*
D11*
X5543338Y-12430750D02*
X5562386Y-12430750D01*
X5562386Y-12430750D02*
X5581433Y-12440274D01*
X5581433Y-12440274D02*
X5590957Y-12449798D01*
X5590957Y-12449798D02*
X5600481Y-12468845D01*
X5600481Y-12468845D02*
X5610004Y-12506941D01*
X5610004Y-12506941D02*
X5610004Y-12554560D01*
X5610004Y-12554560D02*
X5600481Y-12592655D01*
X5600481Y-12592655D02*
X5590957Y-12611702D01*
X5590957Y-12611702D02*
X5581433Y-12621226D01*
X5581433Y-12621226D02*
X5562386Y-12630750D01*
X5562386Y-12630750D02*
X5543338Y-12630750D01*
X5543338Y-12630750D02*
X5524290Y-12621226D01*
X5524290Y-12621226D02*
X5514766Y-12611702D01*
X5514766Y-12611702D02*
X5505243Y-12592655D01*
X5505243Y-12592655D02*
X5495719Y-12554560D01*
X5495719Y-12554560D02*
X5495719Y-12506941D01*
X5495719Y-12506941D02*
X5505243Y-12468845D01*
X5505243Y-12468845D02*
X5514766Y-12449798D01*
X5514766Y-12449798D02*
X5524290Y-12440274D01*
X5524290Y-12440274D02*
X5543338Y-12430750D01*
X5695719Y-12611702D02*
X5705243Y-12621226D01*
X5705243Y-12621226D02*
X5695719Y-12630750D01*
X5695719Y-12630750D02*
X5686195Y-12621226D01*
X5686195Y-12621226D02*
X5695719Y-12611702D01*
X5695719Y-12611702D02*
X5695719Y-12630750D01*
X5819528Y-12516464D02*
X5800481Y-12506941D01*
X5800481Y-12506941D02*
X5790957Y-12497417D01*
X5790957Y-12497417D02*
X5781433Y-12478369D01*
X5781433Y-12478369D02*
X5781433Y-12468845D01*
X5781433Y-12468845D02*
X5790957Y-12449798D01*
X5790957Y-12449798D02*
X5800481Y-12440274D01*
X5800481Y-12440274D02*
X5819528Y-12430750D01*
X5819528Y-12430750D02*
X5857624Y-12430750D01*
X5857624Y-12430750D02*
X5876671Y-12440274D01*
X5876671Y-12440274D02*
X5886195Y-12449798D01*
X5886195Y-12449798D02*
X5895719Y-12468845D01*
X5895719Y-12468845D02*
X5895719Y-12478369D01*
X5895719Y-12478369D02*
X5886195Y-12497417D01*
X5886195Y-12497417D02*
X5876671Y-12506941D01*
X5876671Y-12506941D02*
X5857624Y-12516464D01*
X5857624Y-12516464D02*
X5819528Y-12516464D01*
X5819528Y-12516464D02*
X5800481Y-12525988D01*
X5800481Y-12525988D02*
X5790957Y-12535512D01*
X5790957Y-12535512D02*
X5781433Y-12554560D01*
X5781433Y-12554560D02*
X5781433Y-12592655D01*
X5781433Y-12592655D02*
X5790957Y-12611702D01*
X5790957Y-12611702D02*
X5800481Y-12621226D01*
X5800481Y-12621226D02*
X5819528Y-12630750D01*
X5819528Y-12630750D02*
X5857624Y-12630750D01*
X5857624Y-12630750D02*
X5876671Y-12621226D01*
X5876671Y-12621226D02*
X5886195Y-12611702D01*
X5886195Y-12611702D02*
X5895719Y-12592655D01*
X5895719Y-12592655D02*
X5895719Y-12554560D01*
X5895719Y-12554560D02*
X5886195Y-12535512D01*
X5886195Y-12535512D02*
X5876671Y-12525988D01*
X5876671Y-12525988D02*
X5857624Y-12516464D01*
X6019528Y-12430750D02*
X6038576Y-12430750D01*
X6038576Y-12430750D02*
X6057624Y-12440274D01*
X6057624Y-12440274D02*
X6067147Y-12449798D01*
X6067147Y-12449798D02*
X6076671Y-12468845D01*
X6076671Y-12468845D02*
X6086195Y-12506941D01*
X6086195Y-12506941D02*
X6086195Y-12554560D01*
X6086195Y-12554560D02*
X6076671Y-12592655D01*
X6076671Y-12592655D02*
X6067147Y-12611702D01*
X6067147Y-12611702D02*
X6057624Y-12621226D01*
X6057624Y-12621226D02*
X6038576Y-12630750D01*
X6038576Y-12630750D02*
X6019528Y-12630750D01*
X6019528Y-12630750D02*
X6000481Y-12621226D01*
X6000481Y-12621226D02*
X5990957Y-12611702D01*
X5990957Y-12611702D02*
X5981433Y-12592655D01*
X5981433Y-12592655D02*
X5971909Y-12554560D01*
X5971909Y-12554560D02*
X5971909Y-12506941D01*
X5971909Y-12506941D02*
X5981433Y-12468845D01*
X5981433Y-12468845D02*
X5990957Y-12449798D01*
X5990957Y-12449798D02*
X6000481Y-12440274D01*
X6000481Y-12440274D02*
X6019528Y-12430750D01*
X6210004Y-12430750D02*
X6229052Y-12430750D01*
X6229052Y-12430750D02*
X6248100Y-12440274D01*
X6248100Y-12440274D02*
X6257624Y-12449798D01*
X6257624Y-12449798D02*
X6267147Y-12468845D01*
X6267147Y-12468845D02*
X6276671Y-12506941D01*
X6276671Y-12506941D02*
X6276671Y-12554560D01*
X6276671Y-12554560D02*
X6267147Y-12592655D01*
X6267147Y-12592655D02*
X6257624Y-12611702D01*
X6257624Y-12611702D02*
X6248100Y-12621226D01*
X6248100Y-12621226D02*
X6229052Y-12630750D01*
X6229052Y-12630750D02*
X6210004Y-12630750D01*
X6210004Y-12630750D02*
X6190957Y-12621226D01*
X6190957Y-12621226D02*
X6181433Y-12611702D01*
X6181433Y-12611702D02*
X6171909Y-12592655D01*
X6171909Y-12592655D02*
X6162385Y-12554560D01*
X6162385Y-12554560D02*
X6162385Y-12506941D01*
X6162385Y-12506941D02*
X6171909Y-12468845D01*
X6171909Y-12468845D02*
X6181433Y-12449798D01*
X6181433Y-12449798D02*
X6190957Y-12440274D01*
X6190957Y-12440274D02*
X6210004Y-12430750D01*
X6362385Y-12630750D02*
X6362385Y-12497417D01*
X6362385Y-12516464D02*
X6371909Y-12506941D01*
X6371909Y-12506941D02*
X6390957Y-12497417D01*
X6390957Y-12497417D02*
X6419528Y-12497417D01*
X6419528Y-12497417D02*
X6438576Y-12506941D01*
X6438576Y-12506941D02*
X6448100Y-12525988D01*
X6448100Y-12525988D02*
X6448100Y-12630750D01*
X6448100Y-12525988D02*
X6457624Y-12506941D01*
X6457624Y-12506941D02*
X6476671Y-12497417D01*
X6476671Y-12497417D02*
X6505243Y-12497417D01*
X6505243Y-12497417D02*
X6524290Y-12506941D01*
X6524290Y-12506941D02*
X6533814Y-12525988D01*
X6533814Y-12525988D02*
X6533814Y-12630750D01*
X6629052Y-12630750D02*
X6629052Y-12497417D01*
X6629052Y-12516464D02*
X6638576Y-12506941D01*
X6638576Y-12506941D02*
X6657624Y-12497417D01*
X6657624Y-12497417D02*
X6686195Y-12497417D01*
X6686195Y-12497417D02*
X6705243Y-12506941D01*
X6705243Y-12506941D02*
X6714766Y-12525988D01*
X6714766Y-12525988D02*
X6714766Y-12630750D01*
X6714766Y-12525988D02*
X6724290Y-12506941D01*
X6724290Y-12506941D02*
X6743338Y-12497417D01*
X6743338Y-12497417D02*
X6771909Y-12497417D01*
X6771909Y-12497417D02*
X6790957Y-12506941D01*
X6790957Y-12506941D02*
X6800481Y-12525988D01*
X6800481Y-12525988D02*
X6800481Y-12630750D01*
X7190957Y-12421226D02*
X7019528Y-12678369D01*
X7448100Y-12430750D02*
X7467148Y-12430750D01*
X7467148Y-12430750D02*
X7486195Y-12440274D01*
X7486195Y-12440274D02*
X7495719Y-12449798D01*
X7495719Y-12449798D02*
X7505243Y-12468845D01*
X7505243Y-12468845D02*
X7514767Y-12506941D01*
X7514767Y-12506941D02*
X7514767Y-12554560D01*
X7514767Y-12554560D02*
X7505243Y-12592655D01*
X7505243Y-12592655D02*
X7495719Y-12611702D01*
X7495719Y-12611702D02*
X7486195Y-12621226D01*
X7486195Y-12621226D02*
X7467148Y-12630750D01*
X7467148Y-12630750D02*
X7448100Y-12630750D01*
X7448100Y-12630750D02*
X7429052Y-12621226D01*
X7429052Y-12621226D02*
X7419528Y-12611702D01*
X7419528Y-12611702D02*
X7410005Y-12592655D01*
X7410005Y-12592655D02*
X7400481Y-12554560D01*
X7400481Y-12554560D02*
X7400481Y-12506941D01*
X7400481Y-12506941D02*
X7410005Y-12468845D01*
X7410005Y-12468845D02*
X7419528Y-12449798D01*
X7419528Y-12449798D02*
X7429052Y-12440274D01*
X7429052Y-12440274D02*
X7448100Y-12430750D01*
X7600481Y-12611702D02*
X7610005Y-12621226D01*
X7610005Y-12621226D02*
X7600481Y-12630750D01*
X7600481Y-12630750D02*
X7590957Y-12621226D01*
X7590957Y-12621226D02*
X7600481Y-12611702D01*
X7600481Y-12611702D02*
X7600481Y-12630750D01*
X7733814Y-12430750D02*
X7752862Y-12430750D01*
X7752862Y-12430750D02*
X7771909Y-12440274D01*
X7771909Y-12440274D02*
X7781433Y-12449798D01*
X7781433Y-12449798D02*
X7790957Y-12468845D01*
X7790957Y-12468845D02*
X7800481Y-12506941D01*
X7800481Y-12506941D02*
X7800481Y-12554560D01*
X7800481Y-12554560D02*
X7790957Y-12592655D01*
X7790957Y-12592655D02*
X7781433Y-12611702D01*
X7781433Y-12611702D02*
X7771909Y-12621226D01*
X7771909Y-12621226D02*
X7752862Y-12630750D01*
X7752862Y-12630750D02*
X7733814Y-12630750D01*
X7733814Y-12630750D02*
X7714767Y-12621226D01*
X7714767Y-12621226D02*
X7705243Y-12611702D01*
X7705243Y-12611702D02*
X7695719Y-12592655D01*
X7695719Y-12592655D02*
X7686195Y-12554560D01*
X7686195Y-12554560D02*
X7686195Y-12506941D01*
X7686195Y-12506941D02*
X7695719Y-12468845D01*
X7695719Y-12468845D02*
X7705243Y-12449798D01*
X7705243Y-12449798D02*
X7714767Y-12440274D01*
X7714767Y-12440274D02*
X7733814Y-12430750D01*
X7867148Y-12430750D02*
X7990957Y-12430750D01*
X7990957Y-12430750D02*
X7924290Y-12506941D01*
X7924290Y-12506941D02*
X7952862Y-12506941D01*
X7952862Y-12506941D02*
X7971909Y-12516464D01*
X7971909Y-12516464D02*
X7981433Y-12525988D01*
X7981433Y-12525988D02*
X7990957Y-12545036D01*
X7990957Y-12545036D02*
X7990957Y-12592655D01*
X7990957Y-12592655D02*
X7981433Y-12611702D01*
X7981433Y-12611702D02*
X7971909Y-12621226D01*
X7971909Y-12621226D02*
X7952862Y-12630750D01*
X7952862Y-12630750D02*
X7895719Y-12630750D01*
X7895719Y-12630750D02*
X7876671Y-12621226D01*
X7876671Y-12621226D02*
X7867148Y-12611702D01*
X8181433Y-12630750D02*
X8067148Y-12630750D01*
X8124290Y-12630750D02*
X8124290Y-12430750D01*
X8124290Y-12430750D02*
X8105243Y-12459322D01*
X8105243Y-12459322D02*
X8086195Y-12478369D01*
X8086195Y-12478369D02*
X8067148Y-12487893D01*
X8362386Y-12430750D02*
X8267148Y-12430750D01*
X8267148Y-12430750D02*
X8257624Y-12525988D01*
X8257624Y-12525988D02*
X8267148Y-12516464D01*
X8267148Y-12516464D02*
X8286195Y-12506941D01*
X8286195Y-12506941D02*
X8333814Y-12506941D01*
X8333814Y-12506941D02*
X8352862Y-12516464D01*
X8352862Y-12516464D02*
X8362386Y-12525988D01*
X8362386Y-12525988D02*
X8371909Y-12545036D01*
X8371909Y-12545036D02*
X8371909Y-12592655D01*
X8371909Y-12592655D02*
X8362386Y-12611702D01*
X8362386Y-12611702D02*
X8352862Y-12621226D01*
X8352862Y-12621226D02*
X8333814Y-12630750D01*
X8333814Y-12630750D02*
X8286195Y-12630750D01*
X8286195Y-12630750D02*
X8267148Y-12621226D01*
X8267148Y-12621226D02*
X8257624Y-12611702D01*
X8448100Y-12430750D02*
X8448100Y-12468845D01*
X8524291Y-12430750D02*
X8524291Y-12468845D01*
X8819529Y-12706941D02*
X8810005Y-12697417D01*
X8810005Y-12697417D02*
X8790957Y-12668845D01*
X8790957Y-12668845D02*
X8781433Y-12649798D01*
X8781433Y-12649798D02*
X8771910Y-12621226D01*
X8771910Y-12621226D02*
X8762386Y-12573607D01*
X8762386Y-12573607D02*
X8762386Y-12535512D01*
X8762386Y-12535512D02*
X8771910Y-12487893D01*
X8771910Y-12487893D02*
X8781433Y-12459322D01*
X8781433Y-12459322D02*
X8790957Y-12440274D01*
X8790957Y-12440274D02*
X8810005Y-12411702D01*
X8810005Y-12411702D02*
X8819529Y-12402179D01*
X8886195Y-12449798D02*
X8895719Y-12440274D01*
X8895719Y-12440274D02*
X8914767Y-12430750D01*
X8914767Y-12430750D02*
X8962386Y-12430750D01*
X8962386Y-12430750D02*
X8981433Y-12440274D01*
X8981433Y-12440274D02*
X8990957Y-12449798D01*
X8990957Y-12449798D02*
X9000481Y-12468845D01*
X9000481Y-12468845D02*
X9000481Y-12487893D01*
X9000481Y-12487893D02*
X8990957Y-12516464D01*
X8990957Y-12516464D02*
X8876672Y-12630750D01*
X8876672Y-12630750D02*
X9000481Y-12630750D01*
X9171910Y-12430750D02*
X9133814Y-12430750D01*
X9133814Y-12430750D02*
X9114767Y-12440274D01*
X9114767Y-12440274D02*
X9105243Y-12449798D01*
X9105243Y-12449798D02*
X9086195Y-12478369D01*
X9086195Y-12478369D02*
X9076672Y-12516464D01*
X9076672Y-12516464D02*
X9076672Y-12592655D01*
X9076672Y-12592655D02*
X9086195Y-12611702D01*
X9086195Y-12611702D02*
X9095719Y-12621226D01*
X9095719Y-12621226D02*
X9114767Y-12630750D01*
X9114767Y-12630750D02*
X9152862Y-12630750D01*
X9152862Y-12630750D02*
X9171910Y-12621226D01*
X9171910Y-12621226D02*
X9181433Y-12611702D01*
X9181433Y-12611702D02*
X9190957Y-12592655D01*
X9190957Y-12592655D02*
X9190957Y-12545036D01*
X9190957Y-12545036D02*
X9181433Y-12525988D01*
X9181433Y-12525988D02*
X9171910Y-12516464D01*
X9171910Y-12516464D02*
X9152862Y-12506941D01*
X9152862Y-12506941D02*
X9114767Y-12506941D01*
X9114767Y-12506941D02*
X9095719Y-12516464D01*
X9095719Y-12516464D02*
X9086195Y-12525988D01*
X9086195Y-12525988D02*
X9076672Y-12545036D01*
X9429053Y-12630750D02*
X9429053Y-12430750D01*
X9514767Y-12630750D02*
X9514767Y-12525988D01*
X9514767Y-12525988D02*
X9505243Y-12506941D01*
X9505243Y-12506941D02*
X9486195Y-12497417D01*
X9486195Y-12497417D02*
X9457624Y-12497417D01*
X9457624Y-12497417D02*
X9438576Y-12506941D01*
X9438576Y-12506941D02*
X9429053Y-12516464D01*
X9638576Y-12630750D02*
X9619529Y-12621226D01*
X9619529Y-12621226D02*
X9610005Y-12611702D01*
X9610005Y-12611702D02*
X9600481Y-12592655D01*
X9600481Y-12592655D02*
X9600481Y-12535512D01*
X9600481Y-12535512D02*
X9610005Y-12516464D01*
X9610005Y-12516464D02*
X9619529Y-12506941D01*
X9619529Y-12506941D02*
X9638576Y-12497417D01*
X9638576Y-12497417D02*
X9667148Y-12497417D01*
X9667148Y-12497417D02*
X9686195Y-12506941D01*
X9686195Y-12506941D02*
X9695719Y-12516464D01*
X9695719Y-12516464D02*
X9705243Y-12535512D01*
X9705243Y-12535512D02*
X9705243Y-12592655D01*
X9705243Y-12592655D02*
X9695719Y-12611702D01*
X9695719Y-12611702D02*
X9686195Y-12621226D01*
X9686195Y-12621226D02*
X9667148Y-12630750D01*
X9667148Y-12630750D02*
X9638576Y-12630750D01*
X9819529Y-12630750D02*
X9800481Y-12621226D01*
X9800481Y-12621226D02*
X9790957Y-12602179D01*
X9790957Y-12602179D02*
X9790957Y-12430750D01*
X9971910Y-12621226D02*
X9952862Y-12630750D01*
X9952862Y-12630750D02*
X9914767Y-12630750D01*
X9914767Y-12630750D02*
X9895719Y-12621226D01*
X9895719Y-12621226D02*
X9886195Y-12602179D01*
X9886195Y-12602179D02*
X9886195Y-12525988D01*
X9886195Y-12525988D02*
X9895719Y-12506941D01*
X9895719Y-12506941D02*
X9914767Y-12497417D01*
X9914767Y-12497417D02*
X9952862Y-12497417D01*
X9952862Y-12497417D02*
X9971910Y-12506941D01*
X9971910Y-12506941D02*
X9981434Y-12525988D01*
X9981434Y-12525988D02*
X9981434Y-12545036D01*
X9981434Y-12545036D02*
X9886195Y-12564083D01*
X10057624Y-12621226D02*
X10076672Y-12630750D01*
X10076672Y-12630750D02*
X10114767Y-12630750D01*
X10114767Y-12630750D02*
X10133815Y-12621226D01*
X10133815Y-12621226D02*
X10143338Y-12602179D01*
X10143338Y-12602179D02*
X10143338Y-12592655D01*
X10143338Y-12592655D02*
X10133815Y-12573607D01*
X10133815Y-12573607D02*
X10114767Y-12564083D01*
X10114767Y-12564083D02*
X10086195Y-12564083D01*
X10086195Y-12564083D02*
X10067148Y-12554560D01*
X10067148Y-12554560D02*
X10057624Y-12535512D01*
X10057624Y-12535512D02*
X10057624Y-12525988D01*
X10057624Y-12525988D02*
X10067148Y-12506941D01*
X10067148Y-12506941D02*
X10086195Y-12497417D01*
X10086195Y-12497417D02*
X10114767Y-12497417D01*
X10114767Y-12497417D02*
X10133815Y-12506941D01*
X10210005Y-12706941D02*
X10219529Y-12697417D01*
X10219529Y-12697417D02*
X10238576Y-12668845D01*
X10238576Y-12668845D02*
X10248100Y-12649798D01*
X10248100Y-12649798D02*
X10257624Y-12621226D01*
X10257624Y-12621226D02*
X10267148Y-12573607D01*
X10267148Y-12573607D02*
X10267148Y-12535512D01*
X10267148Y-12535512D02*
X10257624Y-12487893D01*
X10257624Y-12487893D02*
X10248100Y-12459322D01*
X10248100Y-12459322D02*
X10238576Y-12440274D01*
X10238576Y-12440274D02*
X10219529Y-12411702D01*
X10219529Y-12411702D02*
X10210005Y-12402179D01*
D14*
X5199466Y-12758266D02*
X5199466Y-12848266D01*
X5154466Y-12803266D02*
X5244466Y-12803266D01*
D11*
X5543338Y-12694750D02*
X5562386Y-12694750D01*
X5562386Y-12694750D02*
X5581433Y-12704274D01*
X5581433Y-12704274D02*
X5590957Y-12713798D01*
X5590957Y-12713798D02*
X5600481Y-12732845D01*
X5600481Y-12732845D02*
X5610004Y-12770941D01*
X5610004Y-12770941D02*
X5610004Y-12818560D01*
X5610004Y-12818560D02*
X5600481Y-12856655D01*
X5600481Y-12856655D02*
X5590957Y-12875702D01*
X5590957Y-12875702D02*
X5581433Y-12885226D01*
X5581433Y-12885226D02*
X5562386Y-12894750D01*
X5562386Y-12894750D02*
X5543338Y-12894750D01*
X5543338Y-12894750D02*
X5524290Y-12885226D01*
X5524290Y-12885226D02*
X5514766Y-12875702D01*
X5514766Y-12875702D02*
X5505243Y-12856655D01*
X5505243Y-12856655D02*
X5495719Y-12818560D01*
X5495719Y-12818560D02*
X5495719Y-12770941D01*
X5495719Y-12770941D02*
X5505243Y-12732845D01*
X5505243Y-12732845D02*
X5514766Y-12713798D01*
X5514766Y-12713798D02*
X5524290Y-12704274D01*
X5524290Y-12704274D02*
X5543338Y-12694750D01*
X5695719Y-12875702D02*
X5705243Y-12885226D01*
X5705243Y-12885226D02*
X5695719Y-12894750D01*
X5695719Y-12894750D02*
X5686195Y-12885226D01*
X5686195Y-12885226D02*
X5695719Y-12875702D01*
X5695719Y-12875702D02*
X5695719Y-12894750D01*
X5800481Y-12894750D02*
X5838576Y-12894750D01*
X5838576Y-12894750D02*
X5857624Y-12885226D01*
X5857624Y-12885226D02*
X5867147Y-12875702D01*
X5867147Y-12875702D02*
X5886195Y-12847131D01*
X5886195Y-12847131D02*
X5895719Y-12809036D01*
X5895719Y-12809036D02*
X5895719Y-12732845D01*
X5895719Y-12732845D02*
X5886195Y-12713798D01*
X5886195Y-12713798D02*
X5876671Y-12704274D01*
X5876671Y-12704274D02*
X5857624Y-12694750D01*
X5857624Y-12694750D02*
X5819528Y-12694750D01*
X5819528Y-12694750D02*
X5800481Y-12704274D01*
X5800481Y-12704274D02*
X5790957Y-12713798D01*
X5790957Y-12713798D02*
X5781433Y-12732845D01*
X5781433Y-12732845D02*
X5781433Y-12780464D01*
X5781433Y-12780464D02*
X5790957Y-12799512D01*
X5790957Y-12799512D02*
X5800481Y-12809036D01*
X5800481Y-12809036D02*
X5819528Y-12818560D01*
X5819528Y-12818560D02*
X5857624Y-12818560D01*
X5857624Y-12818560D02*
X5876671Y-12809036D01*
X5876671Y-12809036D02*
X5886195Y-12799512D01*
X5886195Y-12799512D02*
X5895719Y-12780464D01*
X6019528Y-12694750D02*
X6038576Y-12694750D01*
X6038576Y-12694750D02*
X6057624Y-12704274D01*
X6057624Y-12704274D02*
X6067147Y-12713798D01*
X6067147Y-12713798D02*
X6076671Y-12732845D01*
X6076671Y-12732845D02*
X6086195Y-12770941D01*
X6086195Y-12770941D02*
X6086195Y-12818560D01*
X6086195Y-12818560D02*
X6076671Y-12856655D01*
X6076671Y-12856655D02*
X6067147Y-12875702D01*
X6067147Y-12875702D02*
X6057624Y-12885226D01*
X6057624Y-12885226D02*
X6038576Y-12894750D01*
X6038576Y-12894750D02*
X6019528Y-12894750D01*
X6019528Y-12894750D02*
X6000481Y-12885226D01*
X6000481Y-12885226D02*
X5990957Y-12875702D01*
X5990957Y-12875702D02*
X5981433Y-12856655D01*
X5981433Y-12856655D02*
X5971909Y-12818560D01*
X5971909Y-12818560D02*
X5971909Y-12770941D01*
X5971909Y-12770941D02*
X5981433Y-12732845D01*
X5981433Y-12732845D02*
X5990957Y-12713798D01*
X5990957Y-12713798D02*
X6000481Y-12704274D01*
X6000481Y-12704274D02*
X6019528Y-12694750D01*
X6210004Y-12694750D02*
X6229052Y-12694750D01*
X6229052Y-12694750D02*
X6248100Y-12704274D01*
X6248100Y-12704274D02*
X6257624Y-12713798D01*
X6257624Y-12713798D02*
X6267147Y-12732845D01*
X6267147Y-12732845D02*
X6276671Y-12770941D01*
X6276671Y-12770941D02*
X6276671Y-12818560D01*
X6276671Y-12818560D02*
X6267147Y-12856655D01*
X6267147Y-12856655D02*
X6257624Y-12875702D01*
X6257624Y-12875702D02*
X6248100Y-12885226D01*
X6248100Y-12885226D02*
X6229052Y-12894750D01*
X6229052Y-12894750D02*
X6210004Y-12894750D01*
X6210004Y-12894750D02*
X6190957Y-12885226D01*
X6190957Y-12885226D02*
X6181433Y-12875702D01*
X6181433Y-12875702D02*
X6171909Y-12856655D01*
X6171909Y-12856655D02*
X6162385Y-12818560D01*
X6162385Y-12818560D02*
X6162385Y-12770941D01*
X6162385Y-12770941D02*
X6171909Y-12732845D01*
X6171909Y-12732845D02*
X6181433Y-12713798D01*
X6181433Y-12713798D02*
X6190957Y-12704274D01*
X6190957Y-12704274D02*
X6210004Y-12694750D01*
X6362385Y-12894750D02*
X6362385Y-12761417D01*
X6362385Y-12780464D02*
X6371909Y-12770941D01*
X6371909Y-12770941D02*
X6390957Y-12761417D01*
X6390957Y-12761417D02*
X6419528Y-12761417D01*
X6419528Y-12761417D02*
X6438576Y-12770941D01*
X6438576Y-12770941D02*
X6448100Y-12789988D01*
X6448100Y-12789988D02*
X6448100Y-12894750D01*
X6448100Y-12789988D02*
X6457624Y-12770941D01*
X6457624Y-12770941D02*
X6476671Y-12761417D01*
X6476671Y-12761417D02*
X6505243Y-12761417D01*
X6505243Y-12761417D02*
X6524290Y-12770941D01*
X6524290Y-12770941D02*
X6533814Y-12789988D01*
X6533814Y-12789988D02*
X6533814Y-12894750D01*
X6629052Y-12894750D02*
X6629052Y-12761417D01*
X6629052Y-12780464D02*
X6638576Y-12770941D01*
X6638576Y-12770941D02*
X6657624Y-12761417D01*
X6657624Y-12761417D02*
X6686195Y-12761417D01*
X6686195Y-12761417D02*
X6705243Y-12770941D01*
X6705243Y-12770941D02*
X6714766Y-12789988D01*
X6714766Y-12789988D02*
X6714766Y-12894750D01*
X6714766Y-12789988D02*
X6724290Y-12770941D01*
X6724290Y-12770941D02*
X6743338Y-12761417D01*
X6743338Y-12761417D02*
X6771909Y-12761417D01*
X6771909Y-12761417D02*
X6790957Y-12770941D01*
X6790957Y-12770941D02*
X6800481Y-12789988D01*
X6800481Y-12789988D02*
X6800481Y-12894750D01*
X7190957Y-12685226D02*
X7019528Y-12942369D01*
X7448100Y-12694750D02*
X7467148Y-12694750D01*
X7467148Y-12694750D02*
X7486195Y-12704274D01*
X7486195Y-12704274D02*
X7495719Y-12713798D01*
X7495719Y-12713798D02*
X7505243Y-12732845D01*
X7505243Y-12732845D02*
X7514767Y-12770941D01*
X7514767Y-12770941D02*
X7514767Y-12818560D01*
X7514767Y-12818560D02*
X7505243Y-12856655D01*
X7505243Y-12856655D02*
X7495719Y-12875702D01*
X7495719Y-12875702D02*
X7486195Y-12885226D01*
X7486195Y-12885226D02*
X7467148Y-12894750D01*
X7467148Y-12894750D02*
X7448100Y-12894750D01*
X7448100Y-12894750D02*
X7429052Y-12885226D01*
X7429052Y-12885226D02*
X7419528Y-12875702D01*
X7419528Y-12875702D02*
X7410005Y-12856655D01*
X7410005Y-12856655D02*
X7400481Y-12818560D01*
X7400481Y-12818560D02*
X7400481Y-12770941D01*
X7400481Y-12770941D02*
X7410005Y-12732845D01*
X7410005Y-12732845D02*
X7419528Y-12713798D01*
X7419528Y-12713798D02*
X7429052Y-12704274D01*
X7429052Y-12704274D02*
X7448100Y-12694750D01*
X7600481Y-12875702D02*
X7610005Y-12885226D01*
X7610005Y-12885226D02*
X7600481Y-12894750D01*
X7600481Y-12894750D02*
X7590957Y-12885226D01*
X7590957Y-12885226D02*
X7600481Y-12875702D01*
X7600481Y-12875702D02*
X7600481Y-12894750D01*
X7733814Y-12694750D02*
X7752862Y-12694750D01*
X7752862Y-12694750D02*
X7771909Y-12704274D01*
X7771909Y-12704274D02*
X7781433Y-12713798D01*
X7781433Y-12713798D02*
X7790957Y-12732845D01*
X7790957Y-12732845D02*
X7800481Y-12770941D01*
X7800481Y-12770941D02*
X7800481Y-12818560D01*
X7800481Y-12818560D02*
X7790957Y-12856655D01*
X7790957Y-12856655D02*
X7781433Y-12875702D01*
X7781433Y-12875702D02*
X7771909Y-12885226D01*
X7771909Y-12885226D02*
X7752862Y-12894750D01*
X7752862Y-12894750D02*
X7733814Y-12894750D01*
X7733814Y-12894750D02*
X7714767Y-12885226D01*
X7714767Y-12885226D02*
X7705243Y-12875702D01*
X7705243Y-12875702D02*
X7695719Y-12856655D01*
X7695719Y-12856655D02*
X7686195Y-12818560D01*
X7686195Y-12818560D02*
X7686195Y-12770941D01*
X7686195Y-12770941D02*
X7695719Y-12732845D01*
X7695719Y-12732845D02*
X7705243Y-12713798D01*
X7705243Y-12713798D02*
X7714767Y-12704274D01*
X7714767Y-12704274D02*
X7733814Y-12694750D01*
X7867148Y-12694750D02*
X7990957Y-12694750D01*
X7990957Y-12694750D02*
X7924290Y-12770941D01*
X7924290Y-12770941D02*
X7952862Y-12770941D01*
X7952862Y-12770941D02*
X7971909Y-12780464D01*
X7971909Y-12780464D02*
X7981433Y-12789988D01*
X7981433Y-12789988D02*
X7990957Y-12809036D01*
X7990957Y-12809036D02*
X7990957Y-12856655D01*
X7990957Y-12856655D02*
X7981433Y-12875702D01*
X7981433Y-12875702D02*
X7971909Y-12885226D01*
X7971909Y-12885226D02*
X7952862Y-12894750D01*
X7952862Y-12894750D02*
X7895719Y-12894750D01*
X7895719Y-12894750D02*
X7876671Y-12885226D01*
X7876671Y-12885226D02*
X7867148Y-12875702D01*
X8171909Y-12694750D02*
X8076671Y-12694750D01*
X8076671Y-12694750D02*
X8067148Y-12789988D01*
X8067148Y-12789988D02*
X8076671Y-12780464D01*
X8076671Y-12780464D02*
X8095719Y-12770941D01*
X8095719Y-12770941D02*
X8143338Y-12770941D01*
X8143338Y-12770941D02*
X8162386Y-12780464D01*
X8162386Y-12780464D02*
X8171909Y-12789988D01*
X8171909Y-12789988D02*
X8181433Y-12809036D01*
X8181433Y-12809036D02*
X8181433Y-12856655D01*
X8181433Y-12856655D02*
X8171909Y-12875702D01*
X8171909Y-12875702D02*
X8162386Y-12885226D01*
X8162386Y-12885226D02*
X8143338Y-12894750D01*
X8143338Y-12894750D02*
X8095719Y-12894750D01*
X8095719Y-12894750D02*
X8076671Y-12885226D01*
X8076671Y-12885226D02*
X8067148Y-12875702D01*
X8352862Y-12761417D02*
X8352862Y-12894750D01*
X8305243Y-12685226D02*
X8257624Y-12828083D01*
X8257624Y-12828083D02*
X8381433Y-12828083D01*
X8448100Y-12694750D02*
X8448100Y-12732845D01*
X8524291Y-12694750D02*
X8524291Y-12732845D01*
X8819529Y-12970941D02*
X8810005Y-12961417D01*
X8810005Y-12961417D02*
X8790957Y-12932845D01*
X8790957Y-12932845D02*
X8781433Y-12913798D01*
X8781433Y-12913798D02*
X8771910Y-12885226D01*
X8771910Y-12885226D02*
X8762386Y-12837607D01*
X8762386Y-12837607D02*
X8762386Y-12799512D01*
X8762386Y-12799512D02*
X8771910Y-12751893D01*
X8771910Y-12751893D02*
X8781433Y-12723322D01*
X8781433Y-12723322D02*
X8790957Y-12704274D01*
X8790957Y-12704274D02*
X8810005Y-12675702D01*
X8810005Y-12675702D02*
X8819529Y-12666179D01*
X8981433Y-12694750D02*
X8943338Y-12694750D01*
X8943338Y-12694750D02*
X8924291Y-12704274D01*
X8924291Y-12704274D02*
X8914767Y-12713798D01*
X8914767Y-12713798D02*
X8895719Y-12742369D01*
X8895719Y-12742369D02*
X8886195Y-12780464D01*
X8886195Y-12780464D02*
X8886195Y-12856655D01*
X8886195Y-12856655D02*
X8895719Y-12875702D01*
X8895719Y-12875702D02*
X8905243Y-12885226D01*
X8905243Y-12885226D02*
X8924291Y-12894750D01*
X8924291Y-12894750D02*
X8962386Y-12894750D01*
X8962386Y-12894750D02*
X8981433Y-12885226D01*
X8981433Y-12885226D02*
X8990957Y-12875702D01*
X8990957Y-12875702D02*
X9000481Y-12856655D01*
X9000481Y-12856655D02*
X9000481Y-12809036D01*
X9000481Y-12809036D02*
X8990957Y-12789988D01*
X8990957Y-12789988D02*
X8981433Y-12780464D01*
X8981433Y-12780464D02*
X8962386Y-12770941D01*
X8962386Y-12770941D02*
X8924291Y-12770941D01*
X8924291Y-12770941D02*
X8905243Y-12780464D01*
X8905243Y-12780464D02*
X8895719Y-12789988D01*
X8895719Y-12789988D02*
X8886195Y-12809036D01*
X9238576Y-12894750D02*
X9238576Y-12694750D01*
X9324291Y-12894750D02*
X9324291Y-12789988D01*
X9324291Y-12789988D02*
X9314767Y-12770941D01*
X9314767Y-12770941D02*
X9295719Y-12761417D01*
X9295719Y-12761417D02*
X9267148Y-12761417D01*
X9267148Y-12761417D02*
X9248100Y-12770941D01*
X9248100Y-12770941D02*
X9238576Y-12780464D01*
X9448100Y-12894750D02*
X9429053Y-12885226D01*
X9429053Y-12885226D02*
X9419529Y-12875702D01*
X9419529Y-12875702D02*
X9410005Y-12856655D01*
X9410005Y-12856655D02*
X9410005Y-12799512D01*
X9410005Y-12799512D02*
X9419529Y-12780464D01*
X9419529Y-12780464D02*
X9429053Y-12770941D01*
X9429053Y-12770941D02*
X9448100Y-12761417D01*
X9448100Y-12761417D02*
X9476672Y-12761417D01*
X9476672Y-12761417D02*
X9495719Y-12770941D01*
X9495719Y-12770941D02*
X9505243Y-12780464D01*
X9505243Y-12780464D02*
X9514767Y-12799512D01*
X9514767Y-12799512D02*
X9514767Y-12856655D01*
X9514767Y-12856655D02*
X9505243Y-12875702D01*
X9505243Y-12875702D02*
X9495719Y-12885226D01*
X9495719Y-12885226D02*
X9476672Y-12894750D01*
X9476672Y-12894750D02*
X9448100Y-12894750D01*
X9629053Y-12894750D02*
X9610005Y-12885226D01*
X9610005Y-12885226D02*
X9600481Y-12866179D01*
X9600481Y-12866179D02*
X9600481Y-12694750D01*
X9781434Y-12885226D02*
X9762386Y-12894750D01*
X9762386Y-12894750D02*
X9724291Y-12894750D01*
X9724291Y-12894750D02*
X9705243Y-12885226D01*
X9705243Y-12885226D02*
X9695719Y-12866179D01*
X9695719Y-12866179D02*
X9695719Y-12789988D01*
X9695719Y-12789988D02*
X9705243Y-12770941D01*
X9705243Y-12770941D02*
X9724291Y-12761417D01*
X9724291Y-12761417D02*
X9762386Y-12761417D01*
X9762386Y-12761417D02*
X9781434Y-12770941D01*
X9781434Y-12770941D02*
X9790957Y-12789988D01*
X9790957Y-12789988D02*
X9790957Y-12809036D01*
X9790957Y-12809036D02*
X9695719Y-12828083D01*
X9867148Y-12885226D02*
X9886195Y-12894750D01*
X9886195Y-12894750D02*
X9924291Y-12894750D01*
X9924291Y-12894750D02*
X9943338Y-12885226D01*
X9943338Y-12885226D02*
X9952862Y-12866179D01*
X9952862Y-12866179D02*
X9952862Y-12856655D01*
X9952862Y-12856655D02*
X9943338Y-12837607D01*
X9943338Y-12837607D02*
X9924291Y-12828083D01*
X9924291Y-12828083D02*
X9895719Y-12828083D01*
X9895719Y-12828083D02*
X9876672Y-12818560D01*
X9876672Y-12818560D02*
X9867148Y-12799512D01*
X9867148Y-12799512D02*
X9867148Y-12789988D01*
X9867148Y-12789988D02*
X9876672Y-12770941D01*
X9876672Y-12770941D02*
X9895719Y-12761417D01*
X9895719Y-12761417D02*
X9924291Y-12761417D01*
X9924291Y-12761417D02*
X9943338Y-12770941D01*
X10019529Y-12970941D02*
X10029053Y-12961417D01*
X10029053Y-12961417D02*
X10048100Y-12932845D01*
X10048100Y-12932845D02*
X10057624Y-12913798D01*
X10057624Y-12913798D02*
X10067148Y-12885226D01*
X10067148Y-12885226D02*
X10076672Y-12837607D01*
X10076672Y-12837607D02*
X10076672Y-12799512D01*
X10076672Y-12799512D02*
X10067148Y-12751893D01*
X10067148Y-12751893D02*
X10057624Y-12723322D01*
X10057624Y-12723322D02*
X10048100Y-12704274D01*
X10048100Y-12704274D02*
X10029053Y-12675702D01*
X10029053Y-12675702D02*
X10019529Y-12666179D01*
D15*
X5229822Y-13102622D02*
X5229822Y-13031911D01*
X5159110Y-13031911D01*
X5159110Y-13102622D01*
X5229822Y-13102622D01*
D11*
X5610004Y-13158750D02*
X5495719Y-13158750D01*
X5552862Y-13158750D02*
X5552862Y-12958750D01*
X5552862Y-12958750D02*
X5533814Y-12987322D01*
X5533814Y-12987322D02*
X5514766Y-13006369D01*
X5514766Y-13006369D02*
X5495719Y-13015893D01*
X5695719Y-13139702D02*
X5705243Y-13149226D01*
X5705243Y-13149226D02*
X5695719Y-13158750D01*
X5695719Y-13158750D02*
X5686195Y-13149226D01*
X5686195Y-13149226D02*
X5695719Y-13139702D01*
X5695719Y-13139702D02*
X5695719Y-13158750D01*
X5829052Y-12958750D02*
X5848100Y-12958750D01*
X5848100Y-12958750D02*
X5867147Y-12968274D01*
X5867147Y-12968274D02*
X5876671Y-12977798D01*
X5876671Y-12977798D02*
X5886195Y-12996845D01*
X5886195Y-12996845D02*
X5895719Y-13034941D01*
X5895719Y-13034941D02*
X5895719Y-13082560D01*
X5895719Y-13082560D02*
X5886195Y-13120655D01*
X5886195Y-13120655D02*
X5876671Y-13139702D01*
X5876671Y-13139702D02*
X5867147Y-13149226D01*
X5867147Y-13149226D02*
X5848100Y-13158750D01*
X5848100Y-13158750D02*
X5829052Y-13158750D01*
X5829052Y-13158750D02*
X5810004Y-13149226D01*
X5810004Y-13149226D02*
X5800481Y-13139702D01*
X5800481Y-13139702D02*
X5790957Y-13120655D01*
X5790957Y-13120655D02*
X5781433Y-13082560D01*
X5781433Y-13082560D02*
X5781433Y-13034941D01*
X5781433Y-13034941D02*
X5790957Y-12996845D01*
X5790957Y-12996845D02*
X5800481Y-12977798D01*
X5800481Y-12977798D02*
X5810004Y-12968274D01*
X5810004Y-12968274D02*
X5829052Y-12958750D01*
X6019528Y-12958750D02*
X6038576Y-12958750D01*
X6038576Y-12958750D02*
X6057624Y-12968274D01*
X6057624Y-12968274D02*
X6067147Y-12977798D01*
X6067147Y-12977798D02*
X6076671Y-12996845D01*
X6076671Y-12996845D02*
X6086195Y-13034941D01*
X6086195Y-13034941D02*
X6086195Y-13082560D01*
X6086195Y-13082560D02*
X6076671Y-13120655D01*
X6076671Y-13120655D02*
X6067147Y-13139702D01*
X6067147Y-13139702D02*
X6057624Y-13149226D01*
X6057624Y-13149226D02*
X6038576Y-13158750D01*
X6038576Y-13158750D02*
X6019528Y-13158750D01*
X6019528Y-13158750D02*
X6000481Y-13149226D01*
X6000481Y-13149226D02*
X5990957Y-13139702D01*
X5990957Y-13139702D02*
X5981433Y-13120655D01*
X5981433Y-13120655D02*
X5971909Y-13082560D01*
X5971909Y-13082560D02*
X5971909Y-13034941D01*
X5971909Y-13034941D02*
X5981433Y-12996845D01*
X5981433Y-12996845D02*
X5990957Y-12977798D01*
X5990957Y-12977798D02*
X6000481Y-12968274D01*
X6000481Y-12968274D02*
X6019528Y-12958750D01*
X6210004Y-12958750D02*
X6229052Y-12958750D01*
X6229052Y-12958750D02*
X6248100Y-12968274D01*
X6248100Y-12968274D02*
X6257624Y-12977798D01*
X6257624Y-12977798D02*
X6267147Y-12996845D01*
X6267147Y-12996845D02*
X6276671Y-13034941D01*
X6276671Y-13034941D02*
X6276671Y-13082560D01*
X6276671Y-13082560D02*
X6267147Y-13120655D01*
X6267147Y-13120655D02*
X6257624Y-13139702D01*
X6257624Y-13139702D02*
X6248100Y-13149226D01*
X6248100Y-13149226D02*
X6229052Y-13158750D01*
X6229052Y-13158750D02*
X6210004Y-13158750D01*
X6210004Y-13158750D02*
X6190957Y-13149226D01*
X6190957Y-13149226D02*
X6181433Y-13139702D01*
X6181433Y-13139702D02*
X6171909Y-13120655D01*
X6171909Y-13120655D02*
X6162385Y-13082560D01*
X6162385Y-13082560D02*
X6162385Y-13034941D01*
X6162385Y-13034941D02*
X6171909Y-12996845D01*
X6171909Y-12996845D02*
X6181433Y-12977798D01*
X6181433Y-12977798D02*
X6190957Y-12968274D01*
X6190957Y-12968274D02*
X6210004Y-12958750D01*
X6362385Y-13158750D02*
X6362385Y-13025417D01*
X6362385Y-13044464D02*
X6371909Y-13034941D01*
X6371909Y-13034941D02*
X6390957Y-13025417D01*
X6390957Y-13025417D02*
X6419528Y-13025417D01*
X6419528Y-13025417D02*
X6438576Y-13034941D01*
X6438576Y-13034941D02*
X6448100Y-13053988D01*
X6448100Y-13053988D02*
X6448100Y-13158750D01*
X6448100Y-13053988D02*
X6457624Y-13034941D01*
X6457624Y-13034941D02*
X6476671Y-13025417D01*
X6476671Y-13025417D02*
X6505243Y-13025417D01*
X6505243Y-13025417D02*
X6524290Y-13034941D01*
X6524290Y-13034941D02*
X6533814Y-13053988D01*
X6533814Y-13053988D02*
X6533814Y-13158750D01*
X6629052Y-13158750D02*
X6629052Y-13025417D01*
X6629052Y-13044464D02*
X6638576Y-13034941D01*
X6638576Y-13034941D02*
X6657624Y-13025417D01*
X6657624Y-13025417D02*
X6686195Y-13025417D01*
X6686195Y-13025417D02*
X6705243Y-13034941D01*
X6705243Y-13034941D02*
X6714766Y-13053988D01*
X6714766Y-13053988D02*
X6714766Y-13158750D01*
X6714766Y-13053988D02*
X6724290Y-13034941D01*
X6724290Y-13034941D02*
X6743338Y-13025417D01*
X6743338Y-13025417D02*
X6771909Y-13025417D01*
X6771909Y-13025417D02*
X6790957Y-13034941D01*
X6790957Y-13034941D02*
X6800481Y-13053988D01*
X6800481Y-13053988D02*
X6800481Y-13158750D01*
X7190957Y-12949226D02*
X7019528Y-13206369D01*
X7448100Y-12958750D02*
X7467148Y-12958750D01*
X7467148Y-12958750D02*
X7486195Y-12968274D01*
X7486195Y-12968274D02*
X7495719Y-12977798D01*
X7495719Y-12977798D02*
X7505243Y-12996845D01*
X7505243Y-12996845D02*
X7514767Y-13034941D01*
X7514767Y-13034941D02*
X7514767Y-13082560D01*
X7514767Y-13082560D02*
X7505243Y-13120655D01*
X7505243Y-13120655D02*
X7495719Y-13139702D01*
X7495719Y-13139702D02*
X7486195Y-13149226D01*
X7486195Y-13149226D02*
X7467148Y-13158750D01*
X7467148Y-13158750D02*
X7448100Y-13158750D01*
X7448100Y-13158750D02*
X7429052Y-13149226D01*
X7429052Y-13149226D02*
X7419528Y-13139702D01*
X7419528Y-13139702D02*
X7410005Y-13120655D01*
X7410005Y-13120655D02*
X7400481Y-13082560D01*
X7400481Y-13082560D02*
X7400481Y-13034941D01*
X7400481Y-13034941D02*
X7410005Y-12996845D01*
X7410005Y-12996845D02*
X7419528Y-12977798D01*
X7419528Y-12977798D02*
X7429052Y-12968274D01*
X7429052Y-12968274D02*
X7448100Y-12958750D01*
X7600481Y-13139702D02*
X7610005Y-13149226D01*
X7610005Y-13149226D02*
X7600481Y-13158750D01*
X7600481Y-13158750D02*
X7590957Y-13149226D01*
X7590957Y-13149226D02*
X7600481Y-13139702D01*
X7600481Y-13139702D02*
X7600481Y-13158750D01*
X7733814Y-12958750D02*
X7752862Y-12958750D01*
X7752862Y-12958750D02*
X7771909Y-12968274D01*
X7771909Y-12968274D02*
X7781433Y-12977798D01*
X7781433Y-12977798D02*
X7790957Y-12996845D01*
X7790957Y-12996845D02*
X7800481Y-13034941D01*
X7800481Y-13034941D02*
X7800481Y-13082560D01*
X7800481Y-13082560D02*
X7790957Y-13120655D01*
X7790957Y-13120655D02*
X7781433Y-13139702D01*
X7781433Y-13139702D02*
X7771909Y-13149226D01*
X7771909Y-13149226D02*
X7752862Y-13158750D01*
X7752862Y-13158750D02*
X7733814Y-13158750D01*
X7733814Y-13158750D02*
X7714767Y-13149226D01*
X7714767Y-13149226D02*
X7705243Y-13139702D01*
X7705243Y-13139702D02*
X7695719Y-13120655D01*
X7695719Y-13120655D02*
X7686195Y-13082560D01*
X7686195Y-13082560D02*
X7686195Y-13034941D01*
X7686195Y-13034941D02*
X7695719Y-12996845D01*
X7695719Y-12996845D02*
X7705243Y-12977798D01*
X7705243Y-12977798D02*
X7714767Y-12968274D01*
X7714767Y-12968274D02*
X7733814Y-12958750D01*
X7867148Y-12958750D02*
X7990957Y-12958750D01*
X7990957Y-12958750D02*
X7924290Y-13034941D01*
X7924290Y-13034941D02*
X7952862Y-13034941D01*
X7952862Y-13034941D02*
X7971909Y-13044464D01*
X7971909Y-13044464D02*
X7981433Y-13053988D01*
X7981433Y-13053988D02*
X7990957Y-13073036D01*
X7990957Y-13073036D02*
X7990957Y-13120655D01*
X7990957Y-13120655D02*
X7981433Y-13139702D01*
X7981433Y-13139702D02*
X7971909Y-13149226D01*
X7971909Y-13149226D02*
X7952862Y-13158750D01*
X7952862Y-13158750D02*
X7895719Y-13158750D01*
X7895719Y-13158750D02*
X7876671Y-13149226D01*
X7876671Y-13149226D02*
X7867148Y-13139702D01*
X8086195Y-13158750D02*
X8124290Y-13158750D01*
X8124290Y-13158750D02*
X8143338Y-13149226D01*
X8143338Y-13149226D02*
X8152862Y-13139702D01*
X8152862Y-13139702D02*
X8171909Y-13111131D01*
X8171909Y-13111131D02*
X8181433Y-13073036D01*
X8181433Y-13073036D02*
X8181433Y-12996845D01*
X8181433Y-12996845D02*
X8171909Y-12977798D01*
X8171909Y-12977798D02*
X8162386Y-12968274D01*
X8162386Y-12968274D02*
X8143338Y-12958750D01*
X8143338Y-12958750D02*
X8105243Y-12958750D01*
X8105243Y-12958750D02*
X8086195Y-12968274D01*
X8086195Y-12968274D02*
X8076671Y-12977798D01*
X8076671Y-12977798D02*
X8067148Y-12996845D01*
X8067148Y-12996845D02*
X8067148Y-13044464D01*
X8067148Y-13044464D02*
X8076671Y-13063512D01*
X8076671Y-13063512D02*
X8086195Y-13073036D01*
X8086195Y-13073036D02*
X8105243Y-13082560D01*
X8105243Y-13082560D02*
X8143338Y-13082560D01*
X8143338Y-13082560D02*
X8162386Y-13073036D01*
X8162386Y-13073036D02*
X8171909Y-13063512D01*
X8171909Y-13063512D02*
X8181433Y-13044464D01*
X8352862Y-13025417D02*
X8352862Y-13158750D01*
X8305243Y-12949226D02*
X8257624Y-13092083D01*
X8257624Y-13092083D02*
X8381433Y-13092083D01*
X8448100Y-12958750D02*
X8448100Y-12996845D01*
X8524291Y-12958750D02*
X8524291Y-12996845D01*
X8819529Y-13234941D02*
X8810005Y-13225417D01*
X8810005Y-13225417D02*
X8790957Y-13196845D01*
X8790957Y-13196845D02*
X8781433Y-13177798D01*
X8781433Y-13177798D02*
X8771910Y-13149226D01*
X8771910Y-13149226D02*
X8762386Y-13101607D01*
X8762386Y-13101607D02*
X8762386Y-13063512D01*
X8762386Y-13063512D02*
X8771910Y-13015893D01*
X8771910Y-13015893D02*
X8781433Y-12987322D01*
X8781433Y-12987322D02*
X8790957Y-12968274D01*
X8790957Y-12968274D02*
X8810005Y-12939702D01*
X8810005Y-12939702D02*
X8819529Y-12930179D01*
X8990957Y-12958750D02*
X8895719Y-12958750D01*
X8895719Y-12958750D02*
X8886195Y-13053988D01*
X8886195Y-13053988D02*
X8895719Y-13044464D01*
X8895719Y-13044464D02*
X8914767Y-13034941D01*
X8914767Y-13034941D02*
X8962386Y-13034941D01*
X8962386Y-13034941D02*
X8981433Y-13044464D01*
X8981433Y-13044464D02*
X8990957Y-13053988D01*
X8990957Y-13053988D02*
X9000481Y-13073036D01*
X9000481Y-13073036D02*
X9000481Y-13120655D01*
X9000481Y-13120655D02*
X8990957Y-13139702D01*
X8990957Y-13139702D02*
X8981433Y-13149226D01*
X8981433Y-13149226D02*
X8962386Y-13158750D01*
X8962386Y-13158750D02*
X8914767Y-13158750D01*
X8914767Y-13158750D02*
X8895719Y-13149226D01*
X8895719Y-13149226D02*
X8886195Y-13139702D01*
X9238576Y-13158750D02*
X9238576Y-12958750D01*
X9324291Y-13158750D02*
X9324291Y-13053988D01*
X9324291Y-13053988D02*
X9314767Y-13034941D01*
X9314767Y-13034941D02*
X9295719Y-13025417D01*
X9295719Y-13025417D02*
X9267148Y-13025417D01*
X9267148Y-13025417D02*
X9248100Y-13034941D01*
X9248100Y-13034941D02*
X9238576Y-13044464D01*
X9448100Y-13158750D02*
X9429053Y-13149226D01*
X9429053Y-13149226D02*
X9419529Y-13139702D01*
X9419529Y-13139702D02*
X9410005Y-13120655D01*
X9410005Y-13120655D02*
X9410005Y-13063512D01*
X9410005Y-13063512D02*
X9419529Y-13044464D01*
X9419529Y-13044464D02*
X9429053Y-13034941D01*
X9429053Y-13034941D02*
X9448100Y-13025417D01*
X9448100Y-13025417D02*
X9476672Y-13025417D01*
X9476672Y-13025417D02*
X9495719Y-13034941D01*
X9495719Y-13034941D02*
X9505243Y-13044464D01*
X9505243Y-13044464D02*
X9514767Y-13063512D01*
X9514767Y-13063512D02*
X9514767Y-13120655D01*
X9514767Y-13120655D02*
X9505243Y-13139702D01*
X9505243Y-13139702D02*
X9495719Y-13149226D01*
X9495719Y-13149226D02*
X9476672Y-13158750D01*
X9476672Y-13158750D02*
X9448100Y-13158750D01*
X9629053Y-13158750D02*
X9610005Y-13149226D01*
X9610005Y-13149226D02*
X9600481Y-13130179D01*
X9600481Y-13130179D02*
X9600481Y-12958750D01*
X9781434Y-13149226D02*
X9762386Y-13158750D01*
X9762386Y-13158750D02*
X9724291Y-13158750D01*
X9724291Y-13158750D02*
X9705243Y-13149226D01*
X9705243Y-13149226D02*
X9695719Y-13130179D01*
X9695719Y-13130179D02*
X9695719Y-13053988D01*
X9695719Y-13053988D02*
X9705243Y-13034941D01*
X9705243Y-13034941D02*
X9724291Y-13025417D01*
X9724291Y-13025417D02*
X9762386Y-13025417D01*
X9762386Y-13025417D02*
X9781434Y-13034941D01*
X9781434Y-13034941D02*
X9790957Y-13053988D01*
X9790957Y-13053988D02*
X9790957Y-13073036D01*
X9790957Y-13073036D02*
X9695719Y-13092083D01*
X9867148Y-13149226D02*
X9886195Y-13158750D01*
X9886195Y-13158750D02*
X9924291Y-13158750D01*
X9924291Y-13158750D02*
X9943338Y-13149226D01*
X9943338Y-13149226D02*
X9952862Y-13130179D01*
X9952862Y-13130179D02*
X9952862Y-13120655D01*
X9952862Y-13120655D02*
X9943338Y-13101607D01*
X9943338Y-13101607D02*
X9924291Y-13092083D01*
X9924291Y-13092083D02*
X9895719Y-13092083D01*
X9895719Y-13092083D02*
X9876672Y-13082560D01*
X9876672Y-13082560D02*
X9867148Y-13063512D01*
X9867148Y-13063512D02*
X9867148Y-13053988D01*
X9867148Y-13053988D02*
X9876672Y-13034941D01*
X9876672Y-13034941D02*
X9895719Y-13025417D01*
X9895719Y-13025417D02*
X9924291Y-13025417D01*
X9924291Y-13025417D02*
X9943338Y-13034941D01*
X10019529Y-13234941D02*
X10029053Y-13225417D01*
X10029053Y-13225417D02*
X10048100Y-13196845D01*
X10048100Y-13196845D02*
X10057624Y-13177798D01*
X10057624Y-13177798D02*
X10067148Y-13149226D01*
X10067148Y-13149226D02*
X10076672Y-13101607D01*
X10076672Y-13101607D02*
X10076672Y-13063512D01*
X10076672Y-13063512D02*
X10067148Y-13015893D01*
X10067148Y-13015893D02*
X10057624Y-12987322D01*
X10057624Y-12987322D02*
X10048100Y-12968274D01*
X10048100Y-12968274D02*
X10029053Y-12939702D01*
X10029053Y-12939702D02*
X10019529Y-12930179D01*
M02*
