M48
; DRILL file {KiCad 7.0.5-0} date 2023 September 10, Sunday 21:21:49
; FORMAT={-:-/ absolute / metric / decimal}
; #@! TF.CreationDate,2023-09-10T21:21:49+09:30
; #@! TF.GenerationSoftware,Kicad,Pcbnew,7.0.5-0
; #@! TF.FileFunction,NonPlated,1,2,NPTH
FMAT,2
METRIC
; #@! TA.AperFunction,NonPlated,NPTH,ComponentDrill
T1C0.900
; #@! TA.AperFunction,NonPlated,NPTH,ComponentDrill
T2C0.991
; #@! TA.AperFunction,NonPlated,NPTH,ComponentDrill
T3C1.500
; #@! TA.AperFunction,NonPlated,NPTH,ComponentDrill
T4C1.702
; #@! TA.AperFunction,NonPlated,NPTH,ComponentDrill
T5C3.000
; #@! TA.AperFunction,NonPlated,NPTH,ComponentDrill
T6C3.429
; #@! TA.AperFunction,NonPlated,NPTH,ComponentDrill
T7C4.300
%
G90
G05
T1
X166.939Y-38.3
X166.939Y-41.3
T2
X67.958Y-44.52
X67.958Y-62.52
X67.958Y-80.52
X86.958Y-41.52
X86.958Y-59.52
X86.958Y-77.52
X105.958Y-38.52
X105.958Y-56.52
X105.958Y-74.52
X105.958Y-92.52
X124.958Y-38.52
X124.958Y-56.52
X124.958Y-74.52
X124.958Y-92.52
X143.958Y-41.52
X143.958Y-59.52
X143.958Y-77.52
X143.958Y-95.52
X162.691Y-44.77
X162.691Y-62.815
X162.691Y-80.77
X162.691Y-98.77
X184.389Y-102.566
T3
X187.822Y-79.07
T4
X57.238Y-48.72
X57.238Y-66.72
X57.238Y-84.72
X68.238Y-48.72
X68.238Y-66.72
X68.238Y-84.72
X76.238Y-45.72
X76.238Y-63.72
X76.238Y-81.72
X87.238Y-45.72
X87.238Y-63.72
X87.238Y-81.72
X95.238Y-42.72
X95.238Y-60.72
X95.238Y-78.72
X95.238Y-96.72
X106.238Y-42.72
X106.238Y-60.72
X106.238Y-78.72
X106.238Y-96.72
X114.238Y-42.72
X114.238Y-60.72
X114.238Y-78.72
X114.238Y-96.72
X125.238Y-42.72
X125.238Y-60.72
X125.238Y-78.72
X125.238Y-96.72
X133.238Y-45.72
X133.238Y-63.72
X133.238Y-81.72
X133.238Y-99.72
X144.238Y-45.72
X144.238Y-63.72
X144.238Y-81.72
X144.238Y-99.72
X151.971Y-48.97
X151.971Y-67.015
X151.971Y-84.97
X151.971Y-102.97
X162.971Y-48.97
X162.971Y-67.015
X162.971Y-84.97
X162.971Y-102.97
X173.03Y-104.445
X183.789Y-106.732
T5
X57.738Y-52.47
X57.738Y-70.47
X57.738Y-88.47
X62.738Y-54.67
X62.738Y-72.67
X62.738Y-90.67
X76.738Y-49.47
X76.738Y-67.47
X76.738Y-85.47
X81.738Y-51.67
X81.738Y-69.67
X81.738Y-87.67
X95.738Y-46.47
X95.738Y-64.47
X95.738Y-82.47
X95.738Y-100.47
X100.738Y-48.67
X100.738Y-66.67
X100.738Y-84.67
X100.738Y-102.67
X114.738Y-46.47
X114.738Y-64.47
X114.738Y-82.47
X114.738Y-100.47
X119.738Y-48.67
X119.738Y-66.67
X119.738Y-84.67
X119.738Y-102.67
X133.738Y-49.47
X133.738Y-67.47
X133.738Y-85.47
X133.738Y-103.47
X138.738Y-51.67
X138.738Y-69.67
X138.738Y-87.67
X138.738Y-105.67
X152.471Y-52.72
X152.471Y-70.765
X152.471Y-88.72
X152.471Y-106.72
X157.471Y-54.92
X157.471Y-72.965
X157.471Y-90.92
X157.471Y-108.92
X172.739Y-108.217
X177.172Y-111.409
T6
X62.738Y-48.72
X62.738Y-66.72
X62.738Y-84.72
X81.738Y-45.72
X81.738Y-63.72
X81.738Y-81.72
X100.738Y-42.72
X100.738Y-60.72
X100.738Y-78.72
X100.738Y-96.72
X119.738Y-42.72
X119.738Y-60.72
X119.738Y-78.72
X119.738Y-96.72
X138.738Y-45.72
X138.738Y-63.72
X138.738Y-81.72
X138.738Y-99.72
X157.471Y-48.97
X157.471Y-67.015
X157.471Y-84.97
X157.471Y-102.97
X178.41Y-105.589
T7
X71.518Y-57.788
X72.768Y-93.98
X110.61Y-69.716
X166.808Y-93.97
X167.456Y-58.032
T0
M30
