G04 #@! TF.GenerationSoftware,KiCad,Pcbnew,7.0.5-0*
G04 #@! TF.CreationDate,2023-09-10T21:21:40+09:30*
G04 #@! TF.ProjectId,Rolio,526f6c69-6f2e-46b6-9963-61645f706362,rev?*
G04 #@! TF.SameCoordinates,Original*
G04 #@! TF.FileFunction,Soldermask,Bot*
G04 #@! TF.FilePolarity,Negative*
%FSLAX46Y46*%
G04 Gerber Fmt 4.6, Leading zero omitted, Abs format (unit mm)*
G04 Created by KiCad (PCBNEW 7.0.5-0) date 2023-09-10 21:21:40*
%MOMM*%
%LPD*%
G01*
G04 APERTURE LIST*
G04 Aperture macros list*
%AMRoundRect*
0 Rectangle with rounded corners*
0 $1 Rounding radius*
0 $2 $3 $4 $5 $6 $7 $8 $9 X,Y pos of 4 corners*
0 Add a 4 corners polygon primitive as box body*
4,1,4,$2,$3,$4,$5,$6,$7,$8,$9,$2,$3,0*
0 Add four circle primitives for the rounded corners*
1,1,$1+$1,$2,$3*
1,1,$1+$1,$4,$5*
1,1,$1+$1,$6,$7*
1,1,$1+$1,$8,$9*
0 Add four rect primitives between the rounded corners*
20,1,$1+$1,$2,$3,$4,$5,0*
20,1,$1+$1,$4,$5,$6,$7,0*
20,1,$1+$1,$6,$7,$8,$9,0*
20,1,$1+$1,$8,$9,$2,$3,0*%
%AMRotRect*
0 Rectangle, with rotation*
0 The origin of the aperture is its center*
0 $1 length*
0 $2 width*
0 $3 Rotation angle, in degrees counterclockwise*
0 Add horizontal line*
21,1,$1,$2,0,0,$3*%
G04 Aperture macros list end*
%ADD10C,1.701800*%
%ADD11C,3.000000*%
%ADD12C,3.429000*%
%ADD13C,0.990600*%
%ADD14R,2.600000X2.600000*%
%ADD15C,4.300000*%
%ADD16R,1.700000X1.700000*%
%ADD17O,1.700000X1.700000*%
%ADD18C,1.500000*%
%ADD19C,1.600000*%
%ADD20R,1.600000X1.600000*%
%ADD21O,1.600000X1.600000*%
%ADD22RotRect,2.600000X2.600000X348.000000*%
%ADD23R,1.350000X1.350000*%
%ADD24O,1.350000X1.350000*%
%ADD25RoundRect,0.250000X0.262500X0.450000X-0.262500X0.450000X-0.262500X-0.450000X0.262500X-0.450000X0*%
%ADD26RoundRect,0.225000X-0.375000X0.225000X-0.375000X-0.225000X0.375000X-0.225000X0.375000X0.225000X0*%
%ADD27RoundRect,0.250000X-0.337500X-0.475000X0.337500X-0.475000X0.337500X0.475000X-0.337500X0.475000X0*%
%ADD28RoundRect,0.250000X0.450000X-0.262500X0.450000X0.262500X-0.450000X0.262500X-0.450000X-0.262500X0*%
%ADD29R,0.800000X1.000000*%
%ADD30C,0.900000*%
%ADD31R,1.500000X0.700000*%
%ADD32R,1.000000X1.250000*%
%ADD33RoundRect,0.225000X-0.225000X-0.375000X0.225000X-0.375000X0.225000X0.375000X-0.225000X0.375000X0*%
%ADD34RoundRect,0.150000X0.150000X-0.587500X0.150000X0.587500X-0.150000X0.587500X-0.150000X-0.587500X0*%
G04 APERTURE END LIST*
D10*
X76238000Y-45720000D03*
D11*
X76738000Y-49470000D03*
D12*
X81738000Y-45720000D03*
D11*
X81738000Y-51670000D03*
D13*
X86958000Y-41520000D03*
D10*
X87238000Y-45720000D03*
D14*
X85013000Y-51670000D03*
X73463000Y-49470000D03*
D10*
X114238000Y-96720000D03*
D11*
X114738000Y-100470000D03*
D12*
X119738000Y-96720000D03*
D11*
X119738000Y-102670000D03*
D13*
X124958000Y-92520000D03*
D10*
X125238000Y-96720000D03*
D14*
X123013000Y-102670000D03*
X111463000Y-100470000D03*
D15*
X167456000Y-58032000D03*
D10*
X95238000Y-96720000D03*
D11*
X95738000Y-100470000D03*
D12*
X100738000Y-96720000D03*
D11*
X100738000Y-102670000D03*
D13*
X105958000Y-92520000D03*
D10*
X106238000Y-96720000D03*
D14*
X104013000Y-102670000D03*
X92463000Y-100470000D03*
D10*
X95238000Y-60720000D03*
D11*
X95738000Y-64470000D03*
D12*
X100738000Y-60720000D03*
D11*
X100738000Y-66670000D03*
D13*
X105958000Y-56520000D03*
D10*
X106238000Y-60720000D03*
D14*
X104013000Y-66670000D03*
X92463000Y-64470000D03*
D10*
X76238000Y-63720000D03*
D11*
X76738000Y-67470000D03*
D12*
X81738000Y-63720000D03*
D11*
X81738000Y-69670000D03*
D13*
X86958000Y-59520000D03*
D10*
X87238000Y-63720000D03*
D14*
X85013000Y-69670000D03*
X73463000Y-67470000D03*
D16*
X187172400Y-72470000D03*
D17*
X184632400Y-72470000D03*
X182092400Y-72470000D03*
X179552400Y-72470000D03*
X177012400Y-72470000D03*
D15*
X166808000Y-93970000D03*
D10*
X151970900Y-48970000D03*
D11*
X152470900Y-52720000D03*
D12*
X157470900Y-48970000D03*
D11*
X157470900Y-54920000D03*
D13*
X162690900Y-44770000D03*
D10*
X162970900Y-48970000D03*
D14*
X160745900Y-54920000D03*
X149195900Y-52720000D03*
D18*
X187822400Y-79070000D03*
D19*
X187822400Y-89180000D03*
X187822400Y-86640000D03*
X187822400Y-84100000D03*
X187822400Y-81560000D03*
X189047400Y-91570000D03*
X187197400Y-91570000D03*
D15*
X71518000Y-57788000D03*
D10*
X57238000Y-84720000D03*
D11*
X57738000Y-88470000D03*
D12*
X62738000Y-84720000D03*
D11*
X62738000Y-90670000D03*
D13*
X67958000Y-80520000D03*
D10*
X68238000Y-84720000D03*
D14*
X66013000Y-90670000D03*
X54463000Y-88470000D03*
D10*
X114238000Y-60720000D03*
D11*
X114738000Y-64470000D03*
D12*
X119738000Y-60720000D03*
D11*
X119738000Y-66670000D03*
D13*
X124958000Y-56520000D03*
D10*
X125238000Y-60720000D03*
D14*
X123013000Y-66670000D03*
X111463000Y-64470000D03*
D10*
X133238000Y-81720000D03*
D11*
X133738000Y-85470000D03*
D12*
X138738000Y-81720000D03*
D11*
X138738000Y-87670000D03*
D13*
X143958000Y-77520000D03*
D10*
X144238000Y-81720000D03*
D14*
X142013000Y-87670000D03*
X130463000Y-85470000D03*
D10*
X114238000Y-78720000D03*
D11*
X114738000Y-82470000D03*
D12*
X119738000Y-78720000D03*
D11*
X119738000Y-84670000D03*
D13*
X124958000Y-74520000D03*
D10*
X125238000Y-78720000D03*
D14*
X123013000Y-84670000D03*
X111463000Y-82470000D03*
D10*
X133238000Y-45720000D03*
D11*
X133738000Y-49470000D03*
D12*
X138738000Y-45720000D03*
D11*
X138738000Y-51670000D03*
D13*
X143958000Y-41520000D03*
D10*
X144238000Y-45720000D03*
D14*
X142013000Y-51670000D03*
X130463000Y-49470000D03*
D20*
X174472400Y-39360000D03*
D21*
X174472400Y-41900000D03*
X174472400Y-44440000D03*
X174472400Y-46980000D03*
X174472400Y-49520000D03*
X174472400Y-52060000D03*
X174472400Y-54600000D03*
X174472400Y-57140000D03*
X174472400Y-59680000D03*
X174472400Y-62220000D03*
X174472400Y-64760000D03*
X174472400Y-67300000D03*
X189712400Y-67300000D03*
X189712400Y-64760000D03*
X189712400Y-62220000D03*
X189712400Y-59680000D03*
X189712400Y-57140000D03*
X189712400Y-54600000D03*
X189712400Y-52060000D03*
X189712400Y-49520000D03*
X189712400Y-46980000D03*
X189712400Y-44440000D03*
X189712400Y-41900000D03*
X189712400Y-39360000D03*
D15*
X110610000Y-69716000D03*
D10*
X57238000Y-66720000D03*
D11*
X57738000Y-70470000D03*
D12*
X62738000Y-66720000D03*
D11*
X62738000Y-72670000D03*
D13*
X67958000Y-62520000D03*
D10*
X68238000Y-66720000D03*
D14*
X66013000Y-72670000D03*
X54463000Y-70470000D03*
D10*
X57238000Y-48720000D03*
D11*
X57738000Y-52470000D03*
D12*
X62738000Y-48720000D03*
D11*
X62738000Y-54670000D03*
D13*
X67958000Y-44520000D03*
D10*
X68238000Y-48720000D03*
D14*
X66013000Y-54670000D03*
X54463000Y-52470000D03*
D10*
X151970900Y-84970000D03*
D11*
X152470900Y-88720000D03*
D12*
X157470900Y-84970000D03*
D11*
X157470900Y-90920000D03*
D13*
X162690900Y-80770000D03*
D10*
X162970900Y-84970000D03*
D14*
X160745900Y-90920000D03*
X149195900Y-88720000D03*
D10*
X114238000Y-42720000D03*
D11*
X114738000Y-46470000D03*
D12*
X119738000Y-42720000D03*
D11*
X119738000Y-48670000D03*
D13*
X124958000Y-38520000D03*
D10*
X125238000Y-42720000D03*
D14*
X123013000Y-48670000D03*
X111463000Y-46470000D03*
D10*
X173029752Y-104445251D03*
D11*
X172739157Y-108217260D03*
D12*
X178409564Y-105588765D03*
D11*
X177172489Y-111408743D03*
D13*
X184388724Y-102565844D03*
D10*
X183789376Y-106732279D03*
D22*
X180375923Y-112089654D03*
X169535724Y-107536349D03*
D10*
X151970900Y-67015000D03*
D11*
X152470900Y-70765000D03*
D12*
X157470900Y-67015000D03*
D11*
X157470900Y-72965000D03*
D13*
X162690900Y-62815000D03*
D10*
X162970900Y-67015000D03*
D14*
X160745900Y-72965000D03*
X149195900Y-70765000D03*
D10*
X95238000Y-78720000D03*
D11*
X95738000Y-82470000D03*
D12*
X100738000Y-78720000D03*
D11*
X100738000Y-84670000D03*
D13*
X105958000Y-74520000D03*
D10*
X106238000Y-78720000D03*
D14*
X104013000Y-84670000D03*
X92463000Y-82470000D03*
D23*
X166228203Y-46736000D03*
D24*
X166228203Y-48736000D03*
D10*
X133238000Y-63720000D03*
D11*
X133738000Y-67470000D03*
D12*
X138738000Y-63720000D03*
D11*
X138738000Y-69670000D03*
D13*
X143958000Y-59520000D03*
D10*
X144238000Y-63720000D03*
D14*
X142013000Y-69670000D03*
X130463000Y-67470000D03*
D10*
X95238000Y-42720000D03*
D11*
X95738000Y-46470000D03*
D12*
X100738000Y-42720000D03*
D11*
X100738000Y-48670000D03*
D13*
X105958000Y-38520000D03*
D10*
X106238000Y-42720000D03*
D14*
X104013000Y-48670000D03*
X92463000Y-46470000D03*
D15*
X72768000Y-93980000D03*
D10*
X133238000Y-99720000D03*
D11*
X133738000Y-103470000D03*
D12*
X138738000Y-99720000D03*
D11*
X138738000Y-105670000D03*
D13*
X143958000Y-95520000D03*
D10*
X144238000Y-99720000D03*
D14*
X142013000Y-105670000D03*
X130463000Y-103470000D03*
D10*
X76238000Y-81720000D03*
D11*
X76738000Y-85470000D03*
D12*
X81738000Y-81720000D03*
D11*
X81738000Y-87670000D03*
D13*
X86958000Y-77520000D03*
D10*
X87238000Y-81720000D03*
D14*
X85013000Y-87670000D03*
X73463000Y-85470000D03*
D10*
X151970900Y-102970000D03*
D11*
X152470900Y-106720000D03*
D12*
X157470900Y-102970000D03*
D11*
X157470900Y-108920000D03*
D13*
X162690900Y-98770000D03*
D10*
X162970900Y-102970000D03*
D14*
X160745900Y-108920000D03*
X149195900Y-106720000D03*
D25*
X62605190Y-42170000D03*
X60780190Y-42170000D03*
D26*
X75946000Y-75438000D03*
X75946000Y-78738000D03*
D27*
X178308000Y-86529000D03*
X180383000Y-86529000D03*
D26*
X94996000Y-54610000D03*
X94996000Y-57910000D03*
X151638000Y-78740000D03*
X151638000Y-82040000D03*
D25*
X100076000Y-54170000D03*
X98251000Y-54170000D03*
D26*
X151638000Y-42926000D03*
X151638000Y-46226000D03*
D25*
X138580500Y-57404000D03*
X136755500Y-57404000D03*
D26*
X56676400Y-60352500D03*
X56676400Y-63652500D03*
D27*
X178308000Y-83058000D03*
X180383000Y-83058000D03*
D26*
X132842000Y-75438000D03*
X132842000Y-78738000D03*
D28*
X86614000Y-99210500D03*
X86614000Y-97385500D03*
D25*
X179578000Y-99060000D03*
X177753000Y-99060000D03*
D26*
X114808000Y-73026000D03*
X114808000Y-76326000D03*
D25*
X100076000Y-72170000D03*
X98251000Y-72170000D03*
X81909190Y-75170000D03*
X80084190Y-75170000D03*
X62605190Y-60170000D03*
X60780190Y-60170000D03*
D26*
X113792000Y-36450000D03*
X113792000Y-39750000D03*
D25*
X119634000Y-90102000D03*
X117809000Y-90102000D03*
D28*
X84328000Y-99210500D03*
X84328000Y-97385500D03*
D26*
X132842000Y-93476000D03*
X132842000Y-96776000D03*
X113792000Y-90424000D03*
X113792000Y-93724000D03*
X76708000Y-57532000D03*
X76708000Y-60832000D03*
X151638000Y-60960000D03*
X151638000Y-64260000D03*
D29*
X168039000Y-36150000D03*
X165829000Y-36150000D03*
D30*
X166939000Y-38300000D03*
X166939000Y-41300000D03*
D29*
X168039000Y-43450000D03*
X165829000Y-43450000D03*
D31*
X165179000Y-37550000D03*
X165179000Y-40550000D03*
X165179000Y-42050000D03*
D25*
X62605190Y-78170000D03*
X60780190Y-78170000D03*
D26*
X173646946Y-98261944D03*
X173646946Y-101561944D03*
D25*
X100838000Y-36322000D03*
X99013000Y-36322000D03*
D26*
X94742000Y-90424000D03*
X94742000Y-93724000D03*
X94996000Y-36576000D03*
X94996000Y-39876000D03*
D25*
X138580500Y-39370000D03*
X136755500Y-39370000D03*
D32*
X169694000Y-44893000D03*
X169694000Y-52643000D03*
D26*
X132842000Y-39624000D03*
X132842000Y-42924000D03*
X132842000Y-57404000D03*
X132842000Y-60704000D03*
D25*
X119634000Y-54102000D03*
X117809000Y-54102000D03*
D26*
X56676400Y-78352500D03*
X56676400Y-81652500D03*
D25*
X157376500Y-78520000D03*
X155551500Y-78520000D03*
X157376500Y-96520000D03*
X155551500Y-96520000D03*
D26*
X75946000Y-39624000D03*
X75946000Y-42924000D03*
D25*
X81909190Y-39170000D03*
X80084190Y-39170000D03*
D26*
X56676400Y-42352500D03*
X56676400Y-45652500D03*
X113792000Y-54610000D03*
X113792000Y-57910000D03*
D25*
X99956000Y-90170000D03*
X98131000Y-90170000D03*
D33*
X177673000Y-90170000D03*
X180973000Y-90170000D03*
D34*
X86548000Y-95093000D03*
X84648000Y-95093000D03*
X85598000Y-93218000D03*
D25*
X138580500Y-93654000D03*
X136755500Y-93654000D03*
D26*
X151638000Y-96774000D03*
X151638000Y-100074000D03*
D25*
X119634000Y-36322000D03*
X117809000Y-36322000D03*
D26*
X94742000Y-72390000D03*
X94742000Y-75690000D03*
D25*
X119126000Y-72036000D03*
X117301000Y-72036000D03*
X138580500Y-75404000D03*
X136755500Y-75404000D03*
X157273000Y-60565000D03*
X155448000Y-60565000D03*
X157226000Y-42672000D03*
X155401000Y-42672000D03*
X81041190Y-57170000D03*
X79216190Y-57170000D03*
M02*
