M48
; DRILL file {KiCad 7.0.5-0} date 2023 August 04, Friday 20:22:24
; FORMAT={-:-/ absolute / metric / decimal}
; #@! TF.CreationDate,2023-08-04T20:22:24+09:30
; #@! TF.GenerationSoftware,Kicad,Pcbnew,7.0.5-0
; #@! TF.FileFunction,Plated,1,2,PTH
FMAT,2
METRIC
; #@! TA.AperFunction,Plated,PTH,ViaDrill
T1C0.400
; #@! TA.AperFunction,Plated,PTH,ComponentDrill
T2C0.800
; #@! TA.AperFunction,Plated,PTH,ComponentDrill
T3C0.900
; #@! TA.AperFunction,Plated,PTH,ComponentDrill
T4C1.000
%
G90
G05
T1
X50.273Y-74.13
X51.035Y-46.444
X51.035Y-77.178
X51.289Y-75.146
X52.813Y-79.972
X54.494Y-97.282
X55.099Y-38.062
X60.179Y-106.134
X62.465Y-76.162
X62.465Y-83.782
X65.767Y-100.546
X68.561Y-94.45
X69.069Y-70.828
X69.069Y-74.13
X70.34Y-74.638
X71.609Y-74.384
X71.766Y-98.974
X71.766Y-101.768
X71.864Y-46.698
X71.864Y-48.984
X73.388Y-61.938
X73.388Y-77.178
X73.388Y-85.814
X73.388Y-87.338
X73.544Y-69.85
X74.56Y-68.834
X74.814Y-62.484
X74.814Y-64.008
X75.165Y-60.668
X75.83Y-58.42
X75.83Y-68.326
X75.927Y-110.706
X76.181Y-66.256
X76.435Y-74.638
X76.846Y-41.656
X76.846Y-44.958
X76.846Y-59.182
X79.483Y-42.634
X79.894Y-81.702
X80.91Y-84.496
X81.164Y-36.744
X86.849Y-88.1
X87.768Y-59.858
X87.768Y-62.906
X87.768Y-77.178
X87.768Y-80.432
X87.768Y-95.672
X87.768Y-98.72
X91.675Y-37.046
X93.707Y-112.23
X94.469Y-53.302
X94.469Y-89.37
X94.724Y-71.336
X94.724Y-107.658
X95.739Y-55.588
X98.279Y-41.872
X98.279Y-77.686
X98.279Y-96.228
X103.359Y-56.35
X106.818Y-56.556
X106.818Y-59.35
X106.818Y-73.622
X106.818Y-77.384
X106.818Y-92.624
X106.818Y-95.672
X109.201Y-55.842
X110.98Y-41.872
X111.233Y-59.906
X113.265Y-50.254
X113.519Y-68.542
X113.519Y-86.576
X113.519Y-104.356
X117.075Y-93.18
X117.329Y-74.892
X125.868Y-53.508
X125.868Y-56.302
X125.868Y-71.542
X125.868Y-74.336
X125.868Y-89.576
X125.868Y-92.37
X130.694Y-105.664
X130.791Y-61.684
X131.046Y-52.54
X132.061Y-34.506
X132.57Y-86.576
X132.57Y-104.356
X136.125Y-39.078
X136.38Y-92.926
X136.633Y-74.892
X140.951Y-53.556
X144.664Y-53.508
X144.664Y-56.302
X144.664Y-71.542
X144.664Y-74.336
X151.365Y-53.556
X151.365Y-89.37
X151.619Y-71.336
X155.175Y-42.126
X155.175Y-77.94
X160.001Y-56.096
X163.714Y-56.556
X163.714Y-59.096
X163.714Y-74.59
X163.714Y-77.13
X164.984Y-90.932
X170.415Y-71.59
X170.415Y-89.624
X173.971Y-41.872
X174.225Y-77.94
X174.48Y-59.906
T2
X53.347Y-40.17
X53.347Y-42.71
X53.347Y-45.25
X53.347Y-47.79
X53.347Y-50.33
X53.347Y-52.87
X53.347Y-55.41
X53.347Y-57.95
X53.347Y-60.49
X53.347Y-63.03
X53.347Y-65.57
X53.347Y-68.11
X68.587Y-40.17
X68.587Y-42.71
X68.587Y-45.25
X68.587Y-47.79
X68.587Y-50.33
X68.587Y-52.87
X68.587Y-55.41
X68.587Y-57.95
X68.587Y-60.49
X68.587Y-63.03
X68.587Y-65.57
X68.587Y-68.11
X71.782Y-42.926
X73.782Y-42.926
T3
X53.972Y-77.63
X55.197Y-80.02
X55.197Y-82.56
X55.197Y-85.1
X55.197Y-87.64
X55.822Y-77.63
T4
X55.887Y-73.28
X58.427Y-73.28
X60.967Y-73.28
X63.508Y-73.28
X66.047Y-73.28
T0
M30
