%TF.GenerationSoftware,KiCad,Pcbnew,7.0.5-0*%
%TF.CreationDate,2023-08-04T20:21:57+09:30*%
%TF.ProjectId,Rolio,436f726e-6552-46f6-9c69-6f2e6b696361,rev?*%
%TF.SameCoordinates,Original*%
%TF.FileFunction,Paste,Bot*%
%TF.FilePolarity,Positive*%
%FSLAX46Y46*%
G04 Gerber Fmt 4.6, Leading zero omitted, Abs format (unit mm)*
G04 Created by KiCad (PCBNEW 7.0.5-0) date 2023-08-04 20:21:57*
%MOMM*%
%LPD*%
G01*
G04 APERTURE LIST*
G04 Aperture macros list*
%AMRoundRect*
0 Rectangle with rounded corners*
0 $1 Rounding radius*
0 $2 $3 $4 $5 $6 $7 $8 $9 X,Y pos of 4 corners*
0 Add a 4 corners polygon primitive as box body*
4,1,4,$2,$3,$4,$5,$6,$7,$8,$9,$2,$3,0*
0 Add four circle primitives for the rounded corners*
1,1,$1+$1,$2,$3*
1,1,$1+$1,$4,$5*
1,1,$1+$1,$6,$7*
1,1,$1+$1,$8,$9*
0 Add four rect primitives between the rounded corners*
20,1,$1+$1,$2,$3,$4,$5,0*
20,1,$1+$1,$4,$5,$6,$7,0*
20,1,$1+$1,$6,$7,$8,$9,0*
20,1,$1+$1,$8,$9,$2,$3,0*%
%AMRotRect*
0 Rectangle, with rotation*
0 The origin of the aperture is its center*
0 $1 length*
0 $2 width*
0 $3 Rotation angle, in degrees counterclockwise*
0 Add horizontal line*
21,1,$1,$2,0,0,$3*%
G04 Aperture macros list end*
%ADD10R,2.600000X2.600000*%
%ADD11RotRect,2.600000X2.600000X12.000000*%
%ADD12RoundRect,0.225000X-0.375000X0.225000X-0.375000X-0.225000X0.375000X-0.225000X0.375000X0.225000X0*%
%ADD13RoundRect,0.225000X-0.413585X0.142116X-0.320025X-0.298050X0.413585X-0.142116X0.320025X0.298050X0*%
%ADD14R,1.250000X1.000000*%
%ADD15RoundRect,0.225000X-0.225000X-0.375000X0.225000X-0.375000X0.225000X0.375000X-0.225000X0.375000X0*%
G04 APERTURE END LIST*
D10*
X163095000Y-52480000D03*
X151545000Y-50280000D03*
X125095000Y-103480000D03*
X113545000Y-101280000D03*
X144095000Y-103480000D03*
X132545000Y-101280000D03*
X144095000Y-67480000D03*
X132545000Y-65280000D03*
X163095000Y-70480000D03*
X151545000Y-68280000D03*
X87375000Y-55730000D03*
X75825000Y-53530000D03*
X182095000Y-88480000D03*
X170545000Y-86280000D03*
X125095000Y-67480000D03*
X113545000Y-65280000D03*
X106095000Y-88480000D03*
X94545000Y-86280000D03*
X125095000Y-85480000D03*
X113545000Y-83280000D03*
X106095000Y-52480000D03*
X94545000Y-50280000D03*
X182095000Y-70480000D03*
X170545000Y-68280000D03*
X182095000Y-52480000D03*
X170545000Y-50280000D03*
X87375000Y-91730000D03*
X75825000Y-89530000D03*
X125095000Y-49230000D03*
X113545000Y-47030000D03*
D11*
X67600888Y-111543542D03*
X55845877Y-111792998D03*
D10*
X87375000Y-73775000D03*
X75825000Y-71575000D03*
X144095000Y-85480000D03*
X132545000Y-83280000D03*
X106095000Y-70480000D03*
X94545000Y-68280000D03*
X144095000Y-49480000D03*
X132545000Y-47280000D03*
X106095000Y-106730000D03*
X94545000Y-104530000D03*
X163095000Y-88480000D03*
X151545000Y-86280000D03*
X87375000Y-109730000D03*
X75825000Y-107530000D03*
D12*
X150920000Y-76162500D03*
X150920000Y-79462500D03*
X131920000Y-55162500D03*
X131920000Y-58462500D03*
X75200000Y-79412500D03*
X75200000Y-82712500D03*
X75200000Y-46990000D03*
X75200000Y-50290000D03*
X169920000Y-61162500D03*
X169920000Y-64462500D03*
X93920000Y-76162500D03*
X93920000Y-79462500D03*
X112920000Y-73162500D03*
X112920000Y-76462500D03*
X112920000Y-36912500D03*
X112920000Y-40212500D03*
X93920000Y-94412500D03*
X93920000Y-97712500D03*
X112920000Y-90842500D03*
X112920000Y-94142500D03*
X150920000Y-58162500D03*
X150920000Y-61462500D03*
X79386000Y-60834000D03*
X79386000Y-64134000D03*
D13*
X56534446Y-100710056D03*
X57220554Y-103937944D03*
D12*
X131920000Y-91162500D03*
X131920000Y-94462500D03*
X131920000Y-37162500D03*
X131920000Y-40462500D03*
D14*
X90475000Y-40130000D03*
X82725000Y-40130000D03*
D12*
X93920000Y-40162500D03*
X93920000Y-43462500D03*
X99041500Y-58002000D03*
X99041500Y-61302000D03*
X169920000Y-76162500D03*
X169920000Y-79462500D03*
X150920000Y-40162500D03*
X150920000Y-43462500D03*
X169920000Y-40162500D03*
X169920000Y-43462500D03*
X112920000Y-55162500D03*
X112920000Y-58462500D03*
D15*
X56908000Y-95418000D03*
X60208000Y-95418000D03*
D12*
X75200000Y-100412500D03*
X75200000Y-103712500D03*
X131920000Y-76662500D03*
X131920000Y-79962500D03*
M02*
