%TF.GenerationSoftware,KiCad,Pcbnew,7.0.5-0*%
%TF.CreationDate,2023-08-04T20:21:57+09:30*%
%TF.ProjectId,Rolio,436f726e-6552-46f6-9c69-6f2e6b696361,rev?*%
%TF.SameCoordinates,Original*%
%TF.FileFunction,Legend,Top*%
%TF.FilePolarity,Positive*%
%FSLAX46Y46*%
G04 Gerber Fmt 4.6, Leading zero omitted, Abs format (unit mm)*
G04 Created by KiCad (PCBNEW 7.0.5-0) date 2023-08-04 20:21:57*
%MOMM*%
%LPD*%
G01*
G04 APERTURE LIST*
G04 Aperture macros list*
%AMRoundRect*
0 Rectangle with rounded corners*
0 $1 Rounding radius*
0 $2 $3 $4 $5 $6 $7 $8 $9 X,Y pos of 4 corners*
0 Add a 4 corners polygon primitive as box body*
4,1,4,$2,$3,$4,$5,$6,$7,$8,$9,$2,$3,0*
0 Add four circle primitives for the rounded corners*
1,1,$1+$1,$2,$3*
1,1,$1+$1,$4,$5*
1,1,$1+$1,$6,$7*
1,1,$1+$1,$8,$9*
0 Add four rect primitives between the rounded corners*
20,1,$1+$1,$2,$3,$4,$5,0*
20,1,$1+$1,$4,$5,$6,$7,0*
20,1,$1+$1,$6,$7,$8,$9,0*
20,1,$1+$1,$8,$9,$2,$3,0*%
G04 Aperture macros list end*
%ADD10C,0.150000*%
%ADD11C,0.120000*%
%ADD12C,0.200000*%
%ADD13C,0.100000*%
%ADD14C,1.701800*%
%ADD15C,3.000000*%
%ADD16C,3.429000*%
%ADD17C,0.990600*%
%ADD18RoundRect,0.250000X-0.262500X-0.450000X0.262500X-0.450000X0.262500X0.450000X-0.262500X0.450000X0*%
%ADD19C,4.300000*%
%ADD20RoundRect,0.243750X-0.243750X-0.456250X0.243750X-0.456250X0.243750X0.456250X-0.243750X0.456250X0*%
%ADD21R,1.700000X1.700000*%
%ADD22O,1.700000X1.700000*%
%ADD23RoundRect,0.250000X0.163203X0.494743X-0.350324X0.385590X-0.163203X-0.494743X0.350324X-0.385590X0*%
%ADD24C,1.500000*%
%ADD25C,1.600000*%
%ADD26R,1.000000X0.800000*%
%ADD27C,0.900000*%
%ADD28R,0.700000X1.500000*%
%ADD29RoundRect,0.250000X0.262500X0.450000X-0.262500X0.450000X-0.262500X-0.450000X0.262500X-0.450000X0*%
%ADD30R,1.600000X1.600000*%
%ADD31O,1.600000X1.600000*%
%ADD32RoundRect,0.150000X-0.587500X-0.150000X0.587500X-0.150000X0.587500X0.150000X-0.587500X0.150000X0*%
%ADD33R,1.350000X1.350000*%
%ADD34O,1.350000X1.350000*%
%ADD35RoundRect,0.243750X-0.143564X-0.496958X0.333283X-0.395601X0.143564X0.496958X-0.333283X0.395601X0*%
G04 APERTURE END LIST*
D10*
X72028366Y-45091220D02*
X72028366Y-44329316D01*
X73638366Y-45091220D02*
X73638366Y-44329316D01*
X74019319Y-44710268D02*
X73257414Y-44710268D01*
X177263333Y-38468819D02*
X176930000Y-37992628D01*
X176691905Y-38468819D02*
X176691905Y-37468819D01*
X176691905Y-37468819D02*
X177072857Y-37468819D01*
X177072857Y-37468819D02*
X177168095Y-37516438D01*
X177168095Y-37516438D02*
X177215714Y-37564057D01*
X177215714Y-37564057D02*
X177263333Y-37659295D01*
X177263333Y-37659295D02*
X177263333Y-37802152D01*
X177263333Y-37802152D02*
X177215714Y-37897390D01*
X177215714Y-37897390D02*
X177168095Y-37945009D01*
X177168095Y-37945009D02*
X177072857Y-37992628D01*
X177072857Y-37992628D02*
X176691905Y-37992628D01*
X177834762Y-37897390D02*
X177739524Y-37849771D01*
X177739524Y-37849771D02*
X177691905Y-37802152D01*
X177691905Y-37802152D02*
X177644286Y-37706914D01*
X177644286Y-37706914D02*
X177644286Y-37659295D01*
X177644286Y-37659295D02*
X177691905Y-37564057D01*
X177691905Y-37564057D02*
X177739524Y-37516438D01*
X177739524Y-37516438D02*
X177834762Y-37468819D01*
X177834762Y-37468819D02*
X178025238Y-37468819D01*
X178025238Y-37468819D02*
X178120476Y-37516438D01*
X178120476Y-37516438D02*
X178168095Y-37564057D01*
X178168095Y-37564057D02*
X178215714Y-37659295D01*
X178215714Y-37659295D02*
X178215714Y-37706914D01*
X178215714Y-37706914D02*
X178168095Y-37802152D01*
X178168095Y-37802152D02*
X178120476Y-37849771D01*
X178120476Y-37849771D02*
X178025238Y-37897390D01*
X178025238Y-37897390D02*
X177834762Y-37897390D01*
X177834762Y-37897390D02*
X177739524Y-37945009D01*
X177739524Y-37945009D02*
X177691905Y-37992628D01*
X177691905Y-37992628D02*
X177644286Y-38087866D01*
X177644286Y-38087866D02*
X177644286Y-38278342D01*
X177644286Y-38278342D02*
X177691905Y-38373580D01*
X177691905Y-38373580D02*
X177739524Y-38421200D01*
X177739524Y-38421200D02*
X177834762Y-38468819D01*
X177834762Y-38468819D02*
X178025238Y-38468819D01*
X178025238Y-38468819D02*
X178120476Y-38421200D01*
X178120476Y-38421200D02*
X178168095Y-38373580D01*
X178168095Y-38373580D02*
X178215714Y-38278342D01*
X178215714Y-38278342D02*
X178215714Y-38087866D01*
X178215714Y-38087866D02*
X178168095Y-37992628D01*
X178168095Y-37992628D02*
X178120476Y-37945009D01*
X178120476Y-37945009D02*
X178025238Y-37897390D01*
X152333595Y-90826819D02*
X152333595Y-89826819D01*
X152333595Y-90303009D02*
X152905023Y-90303009D01*
X152905023Y-90826819D02*
X152905023Y-89826819D01*
X153333595Y-89922057D02*
X153381214Y-89874438D01*
X153381214Y-89874438D02*
X153476452Y-89826819D01*
X153476452Y-89826819D02*
X153714547Y-89826819D01*
X153714547Y-89826819D02*
X153809785Y-89874438D01*
X153809785Y-89874438D02*
X153857404Y-89922057D01*
X153857404Y-89922057D02*
X153905023Y-90017295D01*
X153905023Y-90017295D02*
X153905023Y-90112533D01*
X153905023Y-90112533D02*
X153857404Y-90255390D01*
X153857404Y-90255390D02*
X153285976Y-90826819D01*
X153285976Y-90826819D02*
X153905023Y-90826819D01*
X120720952Y-37329819D02*
X120244762Y-37329819D01*
X120244762Y-37329819D02*
X120244762Y-36329819D01*
X121054286Y-36806009D02*
X121387619Y-36806009D01*
X121530476Y-37329819D02*
X121054286Y-37329819D01*
X121054286Y-37329819D02*
X121054286Y-36329819D01*
X121054286Y-36329819D02*
X121530476Y-36329819D01*
X121959048Y-37329819D02*
X121959048Y-36329819D01*
X121959048Y-36329819D02*
X122197143Y-36329819D01*
X122197143Y-36329819D02*
X122340000Y-36377438D01*
X122340000Y-36377438D02*
X122435238Y-36472676D01*
X122435238Y-36472676D02*
X122482857Y-36567914D01*
X122482857Y-36567914D02*
X122530476Y-36758390D01*
X122530476Y-36758390D02*
X122530476Y-36901247D01*
X122530476Y-36901247D02*
X122482857Y-37091723D01*
X122482857Y-37091723D02*
X122435238Y-37186961D01*
X122435238Y-37186961D02*
X122340000Y-37282200D01*
X122340000Y-37282200D02*
X122197143Y-37329819D01*
X122197143Y-37329819D02*
X121959048Y-37329819D01*
X122863810Y-36329819D02*
X123482857Y-36329819D01*
X123482857Y-36329819D02*
X123149524Y-36710771D01*
X123149524Y-36710771D02*
X123292381Y-36710771D01*
X123292381Y-36710771D02*
X123387619Y-36758390D01*
X123387619Y-36758390D02*
X123435238Y-36806009D01*
X123435238Y-36806009D02*
X123482857Y-36901247D01*
X123482857Y-36901247D02*
X123482857Y-37139342D01*
X123482857Y-37139342D02*
X123435238Y-37234580D01*
X123435238Y-37234580D02*
X123387619Y-37282200D01*
X123387619Y-37282200D02*
X123292381Y-37329819D01*
X123292381Y-37329819D02*
X123006667Y-37329819D01*
X123006667Y-37329819D02*
X122911429Y-37282200D01*
X122911429Y-37282200D02*
X122863810Y-37234580D01*
X136057142Y-51784819D02*
X135723809Y-51308628D01*
X135485714Y-51784819D02*
X135485714Y-50784819D01*
X135485714Y-50784819D02*
X135866666Y-50784819D01*
X135866666Y-50784819D02*
X135961904Y-50832438D01*
X135961904Y-50832438D02*
X136009523Y-50880057D01*
X136009523Y-50880057D02*
X136057142Y-50975295D01*
X136057142Y-50975295D02*
X136057142Y-51118152D01*
X136057142Y-51118152D02*
X136009523Y-51213390D01*
X136009523Y-51213390D02*
X135961904Y-51261009D01*
X135961904Y-51261009D02*
X135866666Y-51308628D01*
X135866666Y-51308628D02*
X135485714Y-51308628D01*
X137009523Y-51784819D02*
X136438095Y-51784819D01*
X136723809Y-51784819D02*
X136723809Y-50784819D01*
X136723809Y-50784819D02*
X136628571Y-50927676D01*
X136628571Y-50927676D02*
X136533333Y-51022914D01*
X136533333Y-51022914D02*
X136438095Y-51070533D01*
X137390476Y-50880057D02*
X137438095Y-50832438D01*
X137438095Y-50832438D02*
X137533333Y-50784819D01*
X137533333Y-50784819D02*
X137771428Y-50784819D01*
X137771428Y-50784819D02*
X137866666Y-50832438D01*
X137866666Y-50832438D02*
X137914285Y-50880057D01*
X137914285Y-50880057D02*
X137961904Y-50975295D01*
X137961904Y-50975295D02*
X137961904Y-51070533D01*
X137961904Y-51070533D02*
X137914285Y-51213390D01*
X137914285Y-51213390D02*
X137342857Y-51784819D01*
X137342857Y-51784819D02*
X137961904Y-51784819D01*
X120244761Y-73579819D02*
X119768571Y-73579819D01*
X119768571Y-73579819D02*
X119768571Y-72579819D01*
X120578095Y-73056009D02*
X120911428Y-73056009D01*
X121054285Y-73579819D02*
X120578095Y-73579819D01*
X120578095Y-73579819D02*
X120578095Y-72579819D01*
X120578095Y-72579819D02*
X121054285Y-72579819D01*
X121482857Y-73579819D02*
X121482857Y-72579819D01*
X121482857Y-72579819D02*
X121720952Y-72579819D01*
X121720952Y-72579819D02*
X121863809Y-72627438D01*
X121863809Y-72627438D02*
X121959047Y-72722676D01*
X121959047Y-72722676D02*
X122006666Y-72817914D01*
X122006666Y-72817914D02*
X122054285Y-73008390D01*
X122054285Y-73008390D02*
X122054285Y-73151247D01*
X122054285Y-73151247D02*
X122006666Y-73341723D01*
X122006666Y-73341723D02*
X121959047Y-73436961D01*
X121959047Y-73436961D02*
X121863809Y-73532200D01*
X121863809Y-73532200D02*
X121720952Y-73579819D01*
X121720952Y-73579819D02*
X121482857Y-73579819D01*
X123006666Y-73579819D02*
X122435238Y-73579819D01*
X122720952Y-73579819D02*
X122720952Y-72579819D01*
X122720952Y-72579819D02*
X122625714Y-72722676D01*
X122625714Y-72722676D02*
X122530476Y-72817914D01*
X122530476Y-72817914D02*
X122435238Y-72865533D01*
X123911428Y-72579819D02*
X123435238Y-72579819D01*
X123435238Y-72579819D02*
X123387619Y-73056009D01*
X123387619Y-73056009D02*
X123435238Y-73008390D01*
X123435238Y-73008390D02*
X123530476Y-72960771D01*
X123530476Y-72960771D02*
X123768571Y-72960771D01*
X123768571Y-72960771D02*
X123863809Y-73008390D01*
X123863809Y-73008390D02*
X123911428Y-73056009D01*
X123911428Y-73056009D02*
X123959047Y-73151247D01*
X123959047Y-73151247D02*
X123959047Y-73389342D01*
X123959047Y-73389342D02*
X123911428Y-73484580D01*
X123911428Y-73484580D02*
X123863809Y-73532200D01*
X123863809Y-73532200D02*
X123768571Y-73579819D01*
X123768571Y-73579819D02*
X123530476Y-73579819D01*
X123530476Y-73579819D02*
X123435238Y-73532200D01*
X123435238Y-73532200D02*
X123387619Y-73484580D01*
X98057142Y-54784819D02*
X97723809Y-54308628D01*
X97485714Y-54784819D02*
X97485714Y-53784819D01*
X97485714Y-53784819D02*
X97866666Y-53784819D01*
X97866666Y-53784819D02*
X97961904Y-53832438D01*
X97961904Y-53832438D02*
X98009523Y-53880057D01*
X98009523Y-53880057D02*
X98057142Y-53975295D01*
X98057142Y-53975295D02*
X98057142Y-54118152D01*
X98057142Y-54118152D02*
X98009523Y-54213390D01*
X98009523Y-54213390D02*
X97961904Y-54261009D01*
X97961904Y-54261009D02*
X97866666Y-54308628D01*
X97866666Y-54308628D02*
X97485714Y-54308628D01*
X99009523Y-54784819D02*
X98438095Y-54784819D01*
X98723809Y-54784819D02*
X98723809Y-53784819D01*
X98723809Y-53784819D02*
X98628571Y-53927676D01*
X98628571Y-53927676D02*
X98533333Y-54022914D01*
X98533333Y-54022914D02*
X98438095Y-54070533D01*
X99628571Y-53784819D02*
X99723809Y-53784819D01*
X99723809Y-53784819D02*
X99819047Y-53832438D01*
X99819047Y-53832438D02*
X99866666Y-53880057D01*
X99866666Y-53880057D02*
X99914285Y-53975295D01*
X99914285Y-53975295D02*
X99961904Y-54165771D01*
X99961904Y-54165771D02*
X99961904Y-54403866D01*
X99961904Y-54403866D02*
X99914285Y-54594342D01*
X99914285Y-54594342D02*
X99866666Y-54689580D01*
X99866666Y-54689580D02*
X99819047Y-54737200D01*
X99819047Y-54737200D02*
X99723809Y-54784819D01*
X99723809Y-54784819D02*
X99628571Y-54784819D01*
X99628571Y-54784819D02*
X99533333Y-54737200D01*
X99533333Y-54737200D02*
X99485714Y-54689580D01*
X99485714Y-54689580D02*
X99438095Y-54594342D01*
X99438095Y-54594342D02*
X99390476Y-54403866D01*
X99390476Y-54403866D02*
X99390476Y-54165771D01*
X99390476Y-54165771D02*
X99438095Y-53975295D01*
X99438095Y-53975295D02*
X99485714Y-53880057D01*
X99485714Y-53880057D02*
X99533333Y-53832438D01*
X99533333Y-53832438D02*
X99628571Y-53784819D01*
X57258215Y-76524819D02*
X57258215Y-75524819D01*
X57258215Y-75524819D02*
X57829643Y-76524819D01*
X57829643Y-76524819D02*
X57829643Y-75524819D01*
X58305834Y-76524819D02*
X58305834Y-75858152D01*
X58305834Y-75524819D02*
X58258215Y-75572438D01*
X58258215Y-75572438D02*
X58305834Y-75620057D01*
X58305834Y-75620057D02*
X58353453Y-75572438D01*
X58353453Y-75572438D02*
X58305834Y-75524819D01*
X58305834Y-75524819D02*
X58305834Y-75620057D01*
X59210595Y-76477200D02*
X59115357Y-76524819D01*
X59115357Y-76524819D02*
X58924881Y-76524819D01*
X58924881Y-76524819D02*
X58829643Y-76477200D01*
X58829643Y-76477200D02*
X58782024Y-76429580D01*
X58782024Y-76429580D02*
X58734405Y-76334342D01*
X58734405Y-76334342D02*
X58734405Y-76048628D01*
X58734405Y-76048628D02*
X58782024Y-75953390D01*
X58782024Y-75953390D02*
X58829643Y-75905771D01*
X58829643Y-75905771D02*
X58924881Y-75858152D01*
X58924881Y-75858152D02*
X59115357Y-75858152D01*
X59115357Y-75858152D02*
X59210595Y-75905771D01*
X60020119Y-76477200D02*
X59924881Y-76524819D01*
X59924881Y-76524819D02*
X59734405Y-76524819D01*
X59734405Y-76524819D02*
X59639167Y-76477200D01*
X59639167Y-76477200D02*
X59591548Y-76381961D01*
X59591548Y-76381961D02*
X59591548Y-76001009D01*
X59591548Y-76001009D02*
X59639167Y-75905771D01*
X59639167Y-75905771D02*
X59734405Y-75858152D01*
X59734405Y-75858152D02*
X59924881Y-75858152D01*
X59924881Y-75858152D02*
X60020119Y-75905771D01*
X60020119Y-75905771D02*
X60067738Y-76001009D01*
X60067738Y-76001009D02*
X60067738Y-76096247D01*
X60067738Y-76096247D02*
X59591548Y-76191485D01*
X60496310Y-76429580D02*
X60543929Y-76477200D01*
X60543929Y-76477200D02*
X60496310Y-76524819D01*
X60496310Y-76524819D02*
X60448691Y-76477200D01*
X60448691Y-76477200D02*
X60496310Y-76429580D01*
X60496310Y-76429580D02*
X60496310Y-76524819D01*
X60496310Y-76143866D02*
X60448691Y-75572438D01*
X60448691Y-75572438D02*
X60496310Y-75524819D01*
X60496310Y-75524819D02*
X60543929Y-75572438D01*
X60543929Y-75572438D02*
X60496310Y-76143866D01*
X60496310Y-76143866D02*
X60496310Y-75524819D01*
X60829643Y-75524819D02*
X61162976Y-76524819D01*
X61162976Y-76524819D02*
X61496309Y-75524819D01*
X61829643Y-76524819D02*
X61829643Y-75858152D01*
X61829643Y-75524819D02*
X61782024Y-75572438D01*
X61782024Y-75572438D02*
X61829643Y-75620057D01*
X61829643Y-75620057D02*
X61877262Y-75572438D01*
X61877262Y-75572438D02*
X61829643Y-75524819D01*
X61829643Y-75524819D02*
X61829643Y-75620057D01*
X62686785Y-76477200D02*
X62591547Y-76524819D01*
X62591547Y-76524819D02*
X62401071Y-76524819D01*
X62401071Y-76524819D02*
X62305833Y-76477200D01*
X62305833Y-76477200D02*
X62258214Y-76381961D01*
X62258214Y-76381961D02*
X62258214Y-76001009D01*
X62258214Y-76001009D02*
X62305833Y-75905771D01*
X62305833Y-75905771D02*
X62401071Y-75858152D01*
X62401071Y-75858152D02*
X62591547Y-75858152D01*
X62591547Y-75858152D02*
X62686785Y-75905771D01*
X62686785Y-75905771D02*
X62734404Y-76001009D01*
X62734404Y-76001009D02*
X62734404Y-76096247D01*
X62734404Y-76096247D02*
X62258214Y-76191485D01*
X63067738Y-75858152D02*
X63258214Y-76524819D01*
X63258214Y-76524819D02*
X63448690Y-76048628D01*
X63448690Y-76048628D02*
X63639166Y-76524819D01*
X63639166Y-76524819D02*
X63829642Y-75858152D01*
X64734404Y-76524819D02*
X64162976Y-76524819D01*
X64448690Y-76524819D02*
X64448690Y-75524819D01*
X64448690Y-75524819D02*
X64353452Y-75667676D01*
X64353452Y-75667676D02*
X64258214Y-75762914D01*
X64258214Y-75762914D02*
X64162976Y-75810533D01*
X139720952Y-37579819D02*
X139244762Y-37579819D01*
X139244762Y-37579819D02*
X139244762Y-36579819D01*
X140054286Y-37056009D02*
X140387619Y-37056009D01*
X140530476Y-37579819D02*
X140054286Y-37579819D01*
X140054286Y-37579819D02*
X140054286Y-36579819D01*
X140054286Y-36579819D02*
X140530476Y-36579819D01*
X140959048Y-37579819D02*
X140959048Y-36579819D01*
X140959048Y-36579819D02*
X141197143Y-36579819D01*
X141197143Y-36579819D02*
X141340000Y-36627438D01*
X141340000Y-36627438D02*
X141435238Y-36722676D01*
X141435238Y-36722676D02*
X141482857Y-36817914D01*
X141482857Y-36817914D02*
X141530476Y-37008390D01*
X141530476Y-37008390D02*
X141530476Y-37151247D01*
X141530476Y-37151247D02*
X141482857Y-37341723D01*
X141482857Y-37341723D02*
X141435238Y-37436961D01*
X141435238Y-37436961D02*
X141340000Y-37532200D01*
X141340000Y-37532200D02*
X141197143Y-37579819D01*
X141197143Y-37579819D02*
X140959048Y-37579819D01*
X142387619Y-36913152D02*
X142387619Y-37579819D01*
X142149524Y-36532200D02*
X141911429Y-37246485D01*
X141911429Y-37246485D02*
X142530476Y-37246485D01*
X83000952Y-43829819D02*
X82524762Y-43829819D01*
X82524762Y-43829819D02*
X82524762Y-42829819D01*
X83334286Y-43306009D02*
X83667619Y-43306009D01*
X83810476Y-43829819D02*
X83334286Y-43829819D01*
X83334286Y-43829819D02*
X83334286Y-42829819D01*
X83334286Y-42829819D02*
X83810476Y-42829819D01*
X84239048Y-43829819D02*
X84239048Y-42829819D01*
X84239048Y-42829819D02*
X84477143Y-42829819D01*
X84477143Y-42829819D02*
X84620000Y-42877438D01*
X84620000Y-42877438D02*
X84715238Y-42972676D01*
X84715238Y-42972676D02*
X84762857Y-43067914D01*
X84762857Y-43067914D02*
X84810476Y-43258390D01*
X84810476Y-43258390D02*
X84810476Y-43401247D01*
X84810476Y-43401247D02*
X84762857Y-43591723D01*
X84762857Y-43591723D02*
X84715238Y-43686961D01*
X84715238Y-43686961D02*
X84620000Y-43782200D01*
X84620000Y-43782200D02*
X84477143Y-43829819D01*
X84477143Y-43829819D02*
X84239048Y-43829819D01*
X85762857Y-43829819D02*
X85191429Y-43829819D01*
X85477143Y-43829819D02*
X85477143Y-42829819D01*
X85477143Y-42829819D02*
X85381905Y-42972676D01*
X85381905Y-42972676D02*
X85286667Y-43067914D01*
X85286667Y-43067914D02*
X85191429Y-43115533D01*
X84650833Y-42580819D02*
X84317500Y-42104628D01*
X84079405Y-42580819D02*
X84079405Y-41580819D01*
X84079405Y-41580819D02*
X84460357Y-41580819D01*
X84460357Y-41580819D02*
X84555595Y-41628438D01*
X84555595Y-41628438D02*
X84603214Y-41676057D01*
X84603214Y-41676057D02*
X84650833Y-41771295D01*
X84650833Y-41771295D02*
X84650833Y-41914152D01*
X84650833Y-41914152D02*
X84603214Y-42009390D01*
X84603214Y-42009390D02*
X84555595Y-42057009D01*
X84555595Y-42057009D02*
X84460357Y-42104628D01*
X84460357Y-42104628D02*
X84079405Y-42104628D01*
X85031786Y-41676057D02*
X85079405Y-41628438D01*
X85079405Y-41628438D02*
X85174643Y-41580819D01*
X85174643Y-41580819D02*
X85412738Y-41580819D01*
X85412738Y-41580819D02*
X85507976Y-41628438D01*
X85507976Y-41628438D02*
X85555595Y-41676057D01*
X85555595Y-41676057D02*
X85603214Y-41771295D01*
X85603214Y-41771295D02*
X85603214Y-41866533D01*
X85603214Y-41866533D02*
X85555595Y-42009390D01*
X85555595Y-42009390D02*
X84984167Y-42580819D01*
X84984167Y-42580819D02*
X85603214Y-42580819D01*
X63103752Y-98028537D02*
X62678698Y-97632057D01*
X62544811Y-98147344D02*
X62336899Y-97169196D01*
X62336899Y-97169196D02*
X62709527Y-97089992D01*
X62709527Y-97089992D02*
X62812584Y-97116769D01*
X62812584Y-97116769D02*
X62869063Y-97153447D01*
X62869063Y-97153447D02*
X62935443Y-97236703D01*
X62935443Y-97236703D02*
X62965145Y-97376439D01*
X62965145Y-97376439D02*
X62938367Y-97479496D01*
X62938367Y-97479496D02*
X62901689Y-97535975D01*
X62901689Y-97535975D02*
X62818433Y-97602355D01*
X62818433Y-97602355D02*
X62445805Y-97681559D01*
X63288270Y-97064342D02*
X63324947Y-97007863D01*
X63324947Y-97007863D02*
X63408204Y-96941483D01*
X63408204Y-96941483D02*
X63641096Y-96891981D01*
X63641096Y-96891981D02*
X63744154Y-96918758D01*
X63744154Y-96918758D02*
X63800633Y-96955436D01*
X63800633Y-96955436D02*
X63867012Y-97038692D01*
X63867012Y-97038692D02*
X63886813Y-97131849D01*
X63886813Y-97131849D02*
X63869936Y-97281485D01*
X63869936Y-97281485D02*
X63429802Y-97959233D01*
X63429802Y-97959233D02*
X64035322Y-97830526D01*
X64966891Y-97632515D02*
X64407949Y-97751322D01*
X64687420Y-97691918D02*
X64479508Y-96713771D01*
X64479508Y-96713771D02*
X64416053Y-96873307D01*
X64416053Y-96873307D02*
X64342697Y-96986265D01*
X64342697Y-96986265D02*
X64259441Y-97052645D01*
X59822499Y-84284819D02*
X59489166Y-83808628D01*
X59251071Y-84284819D02*
X59251071Y-83284819D01*
X59251071Y-83284819D02*
X59632023Y-83284819D01*
X59632023Y-83284819D02*
X59727261Y-83332438D01*
X59727261Y-83332438D02*
X59774880Y-83380057D01*
X59774880Y-83380057D02*
X59822499Y-83475295D01*
X59822499Y-83475295D02*
X59822499Y-83618152D01*
X59822499Y-83618152D02*
X59774880Y-83713390D01*
X59774880Y-83713390D02*
X59727261Y-83761009D01*
X59727261Y-83761009D02*
X59632023Y-83808628D01*
X59632023Y-83808628D02*
X59251071Y-83808628D01*
X60251071Y-83761009D02*
X60584404Y-83761009D01*
X60727261Y-84284819D02*
X60251071Y-84284819D01*
X60251071Y-84284819D02*
X60251071Y-83284819D01*
X60251071Y-83284819D02*
X60727261Y-83284819D01*
X60917738Y-84380057D02*
X61679642Y-84380057D01*
X62441547Y-84284819D02*
X61870119Y-84284819D01*
X62155833Y-84284819D02*
X62155833Y-83284819D01*
X62155833Y-83284819D02*
X62060595Y-83427676D01*
X62060595Y-83427676D02*
X61965357Y-83522914D01*
X61965357Y-83522914D02*
X61870119Y-83570533D01*
X82524761Y-79829819D02*
X82048571Y-79829819D01*
X82048571Y-79829819D02*
X82048571Y-78829819D01*
X82858095Y-79306009D02*
X83191428Y-79306009D01*
X83334285Y-79829819D02*
X82858095Y-79829819D01*
X82858095Y-79829819D02*
X82858095Y-78829819D01*
X82858095Y-78829819D02*
X83334285Y-78829819D01*
X83762857Y-79829819D02*
X83762857Y-78829819D01*
X83762857Y-78829819D02*
X84000952Y-78829819D01*
X84000952Y-78829819D02*
X84143809Y-78877438D01*
X84143809Y-78877438D02*
X84239047Y-78972676D01*
X84239047Y-78972676D02*
X84286666Y-79067914D01*
X84286666Y-79067914D02*
X84334285Y-79258390D01*
X84334285Y-79258390D02*
X84334285Y-79401247D01*
X84334285Y-79401247D02*
X84286666Y-79591723D01*
X84286666Y-79591723D02*
X84239047Y-79686961D01*
X84239047Y-79686961D02*
X84143809Y-79782200D01*
X84143809Y-79782200D02*
X84000952Y-79829819D01*
X84000952Y-79829819D02*
X83762857Y-79829819D01*
X85286666Y-79829819D02*
X84715238Y-79829819D01*
X85000952Y-79829819D02*
X85000952Y-78829819D01*
X85000952Y-78829819D02*
X84905714Y-78972676D01*
X84905714Y-78972676D02*
X84810476Y-79067914D01*
X84810476Y-79067914D02*
X84715238Y-79115533D01*
X85620000Y-78829819D02*
X86239047Y-78829819D01*
X86239047Y-78829819D02*
X85905714Y-79210771D01*
X85905714Y-79210771D02*
X86048571Y-79210771D01*
X86048571Y-79210771D02*
X86143809Y-79258390D01*
X86143809Y-79258390D02*
X86191428Y-79306009D01*
X86191428Y-79306009D02*
X86239047Y-79401247D01*
X86239047Y-79401247D02*
X86239047Y-79639342D01*
X86239047Y-79639342D02*
X86191428Y-79734580D01*
X86191428Y-79734580D02*
X86143809Y-79782200D01*
X86143809Y-79782200D02*
X86048571Y-79829819D01*
X86048571Y-79829819D02*
X85762857Y-79829819D01*
X85762857Y-79829819D02*
X85667619Y-79782200D01*
X85667619Y-79782200D02*
X85620000Y-79734580D01*
X136057142Y-69784819D02*
X135723809Y-69308628D01*
X135485714Y-69784819D02*
X135485714Y-68784819D01*
X135485714Y-68784819D02*
X135866666Y-68784819D01*
X135866666Y-68784819D02*
X135961904Y-68832438D01*
X135961904Y-68832438D02*
X136009523Y-68880057D01*
X136009523Y-68880057D02*
X136057142Y-68975295D01*
X136057142Y-68975295D02*
X136057142Y-69118152D01*
X136057142Y-69118152D02*
X136009523Y-69213390D01*
X136009523Y-69213390D02*
X135961904Y-69261009D01*
X135961904Y-69261009D02*
X135866666Y-69308628D01*
X135866666Y-69308628D02*
X135485714Y-69308628D01*
X137009523Y-69784819D02*
X136438095Y-69784819D01*
X136723809Y-69784819D02*
X136723809Y-68784819D01*
X136723809Y-68784819D02*
X136628571Y-68927676D01*
X136628571Y-68927676D02*
X136533333Y-69022914D01*
X136533333Y-69022914D02*
X136438095Y-69070533D01*
X137580952Y-69213390D02*
X137485714Y-69165771D01*
X137485714Y-69165771D02*
X137438095Y-69118152D01*
X137438095Y-69118152D02*
X137390476Y-69022914D01*
X137390476Y-69022914D02*
X137390476Y-68975295D01*
X137390476Y-68975295D02*
X137438095Y-68880057D01*
X137438095Y-68880057D02*
X137485714Y-68832438D01*
X137485714Y-68832438D02*
X137580952Y-68784819D01*
X137580952Y-68784819D02*
X137771428Y-68784819D01*
X137771428Y-68784819D02*
X137866666Y-68832438D01*
X137866666Y-68832438D02*
X137914285Y-68880057D01*
X137914285Y-68880057D02*
X137961904Y-68975295D01*
X137961904Y-68975295D02*
X137961904Y-69022914D01*
X137961904Y-69022914D02*
X137914285Y-69118152D01*
X137914285Y-69118152D02*
X137866666Y-69165771D01*
X137866666Y-69165771D02*
X137771428Y-69213390D01*
X137771428Y-69213390D02*
X137580952Y-69213390D01*
X137580952Y-69213390D02*
X137485714Y-69261009D01*
X137485714Y-69261009D02*
X137438095Y-69308628D01*
X137438095Y-69308628D02*
X137390476Y-69403866D01*
X137390476Y-69403866D02*
X137390476Y-69594342D01*
X137390476Y-69594342D02*
X137438095Y-69689580D01*
X137438095Y-69689580D02*
X137485714Y-69737200D01*
X137485714Y-69737200D02*
X137580952Y-69784819D01*
X137580952Y-69784819D02*
X137771428Y-69784819D01*
X137771428Y-69784819D02*
X137866666Y-69737200D01*
X137866666Y-69737200D02*
X137914285Y-69689580D01*
X137914285Y-69689580D02*
X137961904Y-69594342D01*
X137961904Y-69594342D02*
X137961904Y-69403866D01*
X137961904Y-69403866D02*
X137914285Y-69308628D01*
X137914285Y-69308628D02*
X137866666Y-69261009D01*
X137866666Y-69261009D02*
X137771428Y-69213390D01*
X155057142Y-72784819D02*
X154723809Y-72308628D01*
X154485714Y-72784819D02*
X154485714Y-71784819D01*
X154485714Y-71784819D02*
X154866666Y-71784819D01*
X154866666Y-71784819D02*
X154961904Y-71832438D01*
X154961904Y-71832438D02*
X155009523Y-71880057D01*
X155009523Y-71880057D02*
X155057142Y-71975295D01*
X155057142Y-71975295D02*
X155057142Y-72118152D01*
X155057142Y-72118152D02*
X155009523Y-72213390D01*
X155009523Y-72213390D02*
X154961904Y-72261009D01*
X154961904Y-72261009D02*
X154866666Y-72308628D01*
X154866666Y-72308628D02*
X154485714Y-72308628D01*
X156009523Y-72784819D02*
X155438095Y-72784819D01*
X155723809Y-72784819D02*
X155723809Y-71784819D01*
X155723809Y-71784819D02*
X155628571Y-71927676D01*
X155628571Y-71927676D02*
X155533333Y-72022914D01*
X155533333Y-72022914D02*
X155438095Y-72070533D01*
X156485714Y-72784819D02*
X156676190Y-72784819D01*
X156676190Y-72784819D02*
X156771428Y-72737200D01*
X156771428Y-72737200D02*
X156819047Y-72689580D01*
X156819047Y-72689580D02*
X156914285Y-72546723D01*
X156914285Y-72546723D02*
X156961904Y-72356247D01*
X156961904Y-72356247D02*
X156961904Y-71975295D01*
X156961904Y-71975295D02*
X156914285Y-71880057D01*
X156914285Y-71880057D02*
X156866666Y-71832438D01*
X156866666Y-71832438D02*
X156771428Y-71784819D01*
X156771428Y-71784819D02*
X156580952Y-71784819D01*
X156580952Y-71784819D02*
X156485714Y-71832438D01*
X156485714Y-71832438D02*
X156438095Y-71880057D01*
X156438095Y-71880057D02*
X156390476Y-71975295D01*
X156390476Y-71975295D02*
X156390476Y-72213390D01*
X156390476Y-72213390D02*
X156438095Y-72308628D01*
X156438095Y-72308628D02*
X156485714Y-72356247D01*
X156485714Y-72356247D02*
X156580952Y-72403866D01*
X156580952Y-72403866D02*
X156771428Y-72403866D01*
X156771428Y-72403866D02*
X156866666Y-72356247D01*
X156866666Y-72356247D02*
X156914285Y-72308628D01*
X156914285Y-72308628D02*
X156961904Y-72213390D01*
X175106642Y-54784819D02*
X174773309Y-54308628D01*
X174535214Y-54784819D02*
X174535214Y-53784819D01*
X174535214Y-53784819D02*
X174916166Y-53784819D01*
X174916166Y-53784819D02*
X175011404Y-53832438D01*
X175011404Y-53832438D02*
X175059023Y-53880057D01*
X175059023Y-53880057D02*
X175106642Y-53975295D01*
X175106642Y-53975295D02*
X175106642Y-54118152D01*
X175106642Y-54118152D02*
X175059023Y-54213390D01*
X175059023Y-54213390D02*
X175011404Y-54261009D01*
X175011404Y-54261009D02*
X174916166Y-54308628D01*
X174916166Y-54308628D02*
X174535214Y-54308628D01*
X176059023Y-54784819D02*
X175487595Y-54784819D01*
X175773309Y-54784819D02*
X175773309Y-53784819D01*
X175773309Y-53784819D02*
X175678071Y-53927676D01*
X175678071Y-53927676D02*
X175582833Y-54022914D01*
X175582833Y-54022914D02*
X175487595Y-54070533D01*
X176916166Y-54118152D02*
X176916166Y-54784819D01*
X176678071Y-53737200D02*
X176439976Y-54451485D01*
X176439976Y-54451485D02*
X177059023Y-54451485D01*
X117057142Y-87784819D02*
X116723809Y-87308628D01*
X116485714Y-87784819D02*
X116485714Y-86784819D01*
X116485714Y-86784819D02*
X116866666Y-86784819D01*
X116866666Y-86784819D02*
X116961904Y-86832438D01*
X116961904Y-86832438D02*
X117009523Y-86880057D01*
X117009523Y-86880057D02*
X117057142Y-86975295D01*
X117057142Y-86975295D02*
X117057142Y-87118152D01*
X117057142Y-87118152D02*
X117009523Y-87213390D01*
X117009523Y-87213390D02*
X116961904Y-87261009D01*
X116961904Y-87261009D02*
X116866666Y-87308628D01*
X116866666Y-87308628D02*
X116485714Y-87308628D01*
X117438095Y-86880057D02*
X117485714Y-86832438D01*
X117485714Y-86832438D02*
X117580952Y-86784819D01*
X117580952Y-86784819D02*
X117819047Y-86784819D01*
X117819047Y-86784819D02*
X117914285Y-86832438D01*
X117914285Y-86832438D02*
X117961904Y-86880057D01*
X117961904Y-86880057D02*
X118009523Y-86975295D01*
X118009523Y-86975295D02*
X118009523Y-87070533D01*
X118009523Y-87070533D02*
X117961904Y-87213390D01*
X117961904Y-87213390D02*
X117390476Y-87784819D01*
X117390476Y-87784819D02*
X118009523Y-87784819D01*
X118866666Y-87118152D02*
X118866666Y-87784819D01*
X118628571Y-86737200D02*
X118390476Y-87451485D01*
X118390476Y-87451485D02*
X119009523Y-87451485D01*
X84650833Y-37500819D02*
X84317500Y-37024628D01*
X84079405Y-37500819D02*
X84079405Y-36500819D01*
X84079405Y-36500819D02*
X84460357Y-36500819D01*
X84460357Y-36500819D02*
X84555595Y-36548438D01*
X84555595Y-36548438D02*
X84603214Y-36596057D01*
X84603214Y-36596057D02*
X84650833Y-36691295D01*
X84650833Y-36691295D02*
X84650833Y-36834152D01*
X84650833Y-36834152D02*
X84603214Y-36929390D01*
X84603214Y-36929390D02*
X84555595Y-36977009D01*
X84555595Y-36977009D02*
X84460357Y-37024628D01*
X84460357Y-37024628D02*
X84079405Y-37024628D01*
X85603214Y-37500819D02*
X85031786Y-37500819D01*
X85317500Y-37500819D02*
X85317500Y-36500819D01*
X85317500Y-36500819D02*
X85222262Y-36643676D01*
X85222262Y-36643676D02*
X85127024Y-36738914D01*
X85127024Y-36738914D02*
X85031786Y-36786533D01*
X139244761Y-91479819D02*
X138768571Y-91479819D01*
X138768571Y-91479819D02*
X138768571Y-90479819D01*
X139578095Y-90956009D02*
X139911428Y-90956009D01*
X140054285Y-91479819D02*
X139578095Y-91479819D01*
X139578095Y-91479819D02*
X139578095Y-90479819D01*
X139578095Y-90479819D02*
X140054285Y-90479819D01*
X140482857Y-91479819D02*
X140482857Y-90479819D01*
X140482857Y-90479819D02*
X140720952Y-90479819D01*
X140720952Y-90479819D02*
X140863809Y-90527438D01*
X140863809Y-90527438D02*
X140959047Y-90622676D01*
X140959047Y-90622676D02*
X141006666Y-90717914D01*
X141006666Y-90717914D02*
X141054285Y-90908390D01*
X141054285Y-90908390D02*
X141054285Y-91051247D01*
X141054285Y-91051247D02*
X141006666Y-91241723D01*
X141006666Y-91241723D02*
X140959047Y-91336961D01*
X140959047Y-91336961D02*
X140863809Y-91432200D01*
X140863809Y-91432200D02*
X140720952Y-91479819D01*
X140720952Y-91479819D02*
X140482857Y-91479819D01*
X141435238Y-90575057D02*
X141482857Y-90527438D01*
X141482857Y-90527438D02*
X141578095Y-90479819D01*
X141578095Y-90479819D02*
X141816190Y-90479819D01*
X141816190Y-90479819D02*
X141911428Y-90527438D01*
X141911428Y-90527438D02*
X141959047Y-90575057D01*
X141959047Y-90575057D02*
X142006666Y-90670295D01*
X142006666Y-90670295D02*
X142006666Y-90765533D01*
X142006666Y-90765533D02*
X141959047Y-90908390D01*
X141959047Y-90908390D02*
X141387619Y-91479819D01*
X141387619Y-91479819D02*
X142006666Y-91479819D01*
X142340000Y-90479819D02*
X142959047Y-90479819D01*
X142959047Y-90479819D02*
X142625714Y-90860771D01*
X142625714Y-90860771D02*
X142768571Y-90860771D01*
X142768571Y-90860771D02*
X142863809Y-90908390D01*
X142863809Y-90908390D02*
X142911428Y-90956009D01*
X142911428Y-90956009D02*
X142959047Y-91051247D01*
X142959047Y-91051247D02*
X142959047Y-91289342D01*
X142959047Y-91289342D02*
X142911428Y-91384580D01*
X142911428Y-91384580D02*
X142863809Y-91432200D01*
X142863809Y-91432200D02*
X142768571Y-91479819D01*
X142768571Y-91479819D02*
X142482857Y-91479819D01*
X142482857Y-91479819D02*
X142387619Y-91432200D01*
X142387619Y-91432200D02*
X142340000Y-91384580D01*
X139244761Y-55579819D02*
X138768571Y-55579819D01*
X138768571Y-55579819D02*
X138768571Y-54579819D01*
X139578095Y-55056009D02*
X139911428Y-55056009D01*
X140054285Y-55579819D02*
X139578095Y-55579819D01*
X139578095Y-55579819D02*
X139578095Y-54579819D01*
X139578095Y-54579819D02*
X140054285Y-54579819D01*
X140482857Y-55579819D02*
X140482857Y-54579819D01*
X140482857Y-54579819D02*
X140720952Y-54579819D01*
X140720952Y-54579819D02*
X140863809Y-54627438D01*
X140863809Y-54627438D02*
X140959047Y-54722676D01*
X140959047Y-54722676D02*
X141006666Y-54817914D01*
X141006666Y-54817914D02*
X141054285Y-55008390D01*
X141054285Y-55008390D02*
X141054285Y-55151247D01*
X141054285Y-55151247D02*
X141006666Y-55341723D01*
X141006666Y-55341723D02*
X140959047Y-55436961D01*
X140959047Y-55436961D02*
X140863809Y-55532200D01*
X140863809Y-55532200D02*
X140720952Y-55579819D01*
X140720952Y-55579819D02*
X140482857Y-55579819D01*
X142006666Y-55579819D02*
X141435238Y-55579819D01*
X141720952Y-55579819D02*
X141720952Y-54579819D01*
X141720952Y-54579819D02*
X141625714Y-54722676D01*
X141625714Y-54722676D02*
X141530476Y-54817914D01*
X141530476Y-54817914D02*
X141435238Y-54865533D01*
X142625714Y-54579819D02*
X142720952Y-54579819D01*
X142720952Y-54579819D02*
X142816190Y-54627438D01*
X142816190Y-54627438D02*
X142863809Y-54675057D01*
X142863809Y-54675057D02*
X142911428Y-54770295D01*
X142911428Y-54770295D02*
X142959047Y-54960771D01*
X142959047Y-54960771D02*
X142959047Y-55198866D01*
X142959047Y-55198866D02*
X142911428Y-55389342D01*
X142911428Y-55389342D02*
X142863809Y-55484580D01*
X142863809Y-55484580D02*
X142816190Y-55532200D01*
X142816190Y-55532200D02*
X142720952Y-55579819D01*
X142720952Y-55579819D02*
X142625714Y-55579819D01*
X142625714Y-55579819D02*
X142530476Y-55532200D01*
X142530476Y-55532200D02*
X142482857Y-55484580D01*
X142482857Y-55484580D02*
X142435238Y-55389342D01*
X142435238Y-55389342D02*
X142387619Y-55198866D01*
X142387619Y-55198866D02*
X142387619Y-54960771D01*
X142387619Y-54960771D02*
X142435238Y-54770295D01*
X142435238Y-54770295D02*
X142482857Y-54675057D01*
X142482857Y-54675057D02*
X142530476Y-54627438D01*
X142530476Y-54627438D02*
X142625714Y-54579819D01*
X79420167Y-36945200D02*
X79563024Y-36992819D01*
X79563024Y-36992819D02*
X79801119Y-36992819D01*
X79801119Y-36992819D02*
X79896357Y-36945200D01*
X79896357Y-36945200D02*
X79943976Y-36897580D01*
X79943976Y-36897580D02*
X79991595Y-36802342D01*
X79991595Y-36802342D02*
X79991595Y-36707104D01*
X79991595Y-36707104D02*
X79943976Y-36611866D01*
X79943976Y-36611866D02*
X79896357Y-36564247D01*
X79896357Y-36564247D02*
X79801119Y-36516628D01*
X79801119Y-36516628D02*
X79610643Y-36469009D01*
X79610643Y-36469009D02*
X79515405Y-36421390D01*
X79515405Y-36421390D02*
X79467786Y-36373771D01*
X79467786Y-36373771D02*
X79420167Y-36278533D01*
X79420167Y-36278533D02*
X79420167Y-36183295D01*
X79420167Y-36183295D02*
X79467786Y-36088057D01*
X79467786Y-36088057D02*
X79515405Y-36040438D01*
X79515405Y-36040438D02*
X79610643Y-35992819D01*
X79610643Y-35992819D02*
X79848738Y-35992819D01*
X79848738Y-35992819D02*
X79991595Y-36040438D01*
X80324929Y-35992819D02*
X80563024Y-36992819D01*
X80563024Y-36992819D02*
X80753500Y-36278533D01*
X80753500Y-36278533D02*
X80943976Y-36992819D01*
X80943976Y-36992819D02*
X81182072Y-35992819D01*
X81991595Y-36326152D02*
X81991595Y-36992819D01*
X81753500Y-35945200D02*
X81515405Y-36659485D01*
X81515405Y-36659485D02*
X82134452Y-36659485D01*
X174057142Y-72784819D02*
X173723809Y-72308628D01*
X173485714Y-72784819D02*
X173485714Y-71784819D01*
X173485714Y-71784819D02*
X173866666Y-71784819D01*
X173866666Y-71784819D02*
X173961904Y-71832438D01*
X173961904Y-71832438D02*
X174009523Y-71880057D01*
X174009523Y-71880057D02*
X174057142Y-71975295D01*
X174057142Y-71975295D02*
X174057142Y-72118152D01*
X174057142Y-72118152D02*
X174009523Y-72213390D01*
X174009523Y-72213390D02*
X173961904Y-72261009D01*
X173961904Y-72261009D02*
X173866666Y-72308628D01*
X173866666Y-72308628D02*
X173485714Y-72308628D01*
X174438095Y-71880057D02*
X174485714Y-71832438D01*
X174485714Y-71832438D02*
X174580952Y-71784819D01*
X174580952Y-71784819D02*
X174819047Y-71784819D01*
X174819047Y-71784819D02*
X174914285Y-71832438D01*
X174914285Y-71832438D02*
X174961904Y-71880057D01*
X174961904Y-71880057D02*
X175009523Y-71975295D01*
X175009523Y-71975295D02*
X175009523Y-72070533D01*
X175009523Y-72070533D02*
X174961904Y-72213390D01*
X174961904Y-72213390D02*
X174390476Y-72784819D01*
X174390476Y-72784819D02*
X175009523Y-72784819D01*
X175628571Y-71784819D02*
X175723809Y-71784819D01*
X175723809Y-71784819D02*
X175819047Y-71832438D01*
X175819047Y-71832438D02*
X175866666Y-71880057D01*
X175866666Y-71880057D02*
X175914285Y-71975295D01*
X175914285Y-71975295D02*
X175961904Y-72165771D01*
X175961904Y-72165771D02*
X175961904Y-72403866D01*
X175961904Y-72403866D02*
X175914285Y-72594342D01*
X175914285Y-72594342D02*
X175866666Y-72689580D01*
X175866666Y-72689580D02*
X175819047Y-72737200D01*
X175819047Y-72737200D02*
X175723809Y-72784819D01*
X175723809Y-72784819D02*
X175628571Y-72784819D01*
X175628571Y-72784819D02*
X175533333Y-72737200D01*
X175533333Y-72737200D02*
X175485714Y-72689580D01*
X175485714Y-72689580D02*
X175438095Y-72594342D01*
X175438095Y-72594342D02*
X175390476Y-72403866D01*
X175390476Y-72403866D02*
X175390476Y-72165771D01*
X175390476Y-72165771D02*
X175438095Y-71975295D01*
X175438095Y-71975295D02*
X175485714Y-71880057D01*
X175485714Y-71880057D02*
X175533333Y-71832438D01*
X175533333Y-71832438D02*
X175628571Y-71784819D01*
X158244761Y-76579819D02*
X157768571Y-76579819D01*
X157768571Y-76579819D02*
X157768571Y-75579819D01*
X158578095Y-76056009D02*
X158911428Y-76056009D01*
X159054285Y-76579819D02*
X158578095Y-76579819D01*
X158578095Y-76579819D02*
X158578095Y-75579819D01*
X158578095Y-75579819D02*
X159054285Y-75579819D01*
X159482857Y-76579819D02*
X159482857Y-75579819D01*
X159482857Y-75579819D02*
X159720952Y-75579819D01*
X159720952Y-75579819D02*
X159863809Y-75627438D01*
X159863809Y-75627438D02*
X159959047Y-75722676D01*
X159959047Y-75722676D02*
X160006666Y-75817914D01*
X160006666Y-75817914D02*
X160054285Y-76008390D01*
X160054285Y-76008390D02*
X160054285Y-76151247D01*
X160054285Y-76151247D02*
X160006666Y-76341723D01*
X160006666Y-76341723D02*
X159959047Y-76436961D01*
X159959047Y-76436961D02*
X159863809Y-76532200D01*
X159863809Y-76532200D02*
X159720952Y-76579819D01*
X159720952Y-76579819D02*
X159482857Y-76579819D01*
X161006666Y-76579819D02*
X160435238Y-76579819D01*
X160720952Y-76579819D02*
X160720952Y-75579819D01*
X160720952Y-75579819D02*
X160625714Y-75722676D01*
X160625714Y-75722676D02*
X160530476Y-75817914D01*
X160530476Y-75817914D02*
X160435238Y-75865533D01*
X161340000Y-75579819D02*
X162006666Y-75579819D01*
X162006666Y-75579819D02*
X161578095Y-76579819D01*
X156689333Y-38468819D02*
X156356000Y-37992628D01*
X156117905Y-38468819D02*
X156117905Y-37468819D01*
X156117905Y-37468819D02*
X156498857Y-37468819D01*
X156498857Y-37468819D02*
X156594095Y-37516438D01*
X156594095Y-37516438D02*
X156641714Y-37564057D01*
X156641714Y-37564057D02*
X156689333Y-37659295D01*
X156689333Y-37659295D02*
X156689333Y-37802152D01*
X156689333Y-37802152D02*
X156641714Y-37897390D01*
X156641714Y-37897390D02*
X156594095Y-37945009D01*
X156594095Y-37945009D02*
X156498857Y-37992628D01*
X156498857Y-37992628D02*
X156117905Y-37992628D01*
X157546476Y-37468819D02*
X157356000Y-37468819D01*
X157356000Y-37468819D02*
X157260762Y-37516438D01*
X157260762Y-37516438D02*
X157213143Y-37564057D01*
X157213143Y-37564057D02*
X157117905Y-37706914D01*
X157117905Y-37706914D02*
X157070286Y-37897390D01*
X157070286Y-37897390D02*
X157070286Y-38278342D01*
X157070286Y-38278342D02*
X157117905Y-38373580D01*
X157117905Y-38373580D02*
X157165524Y-38421200D01*
X157165524Y-38421200D02*
X157260762Y-38468819D01*
X157260762Y-38468819D02*
X157451238Y-38468819D01*
X157451238Y-38468819D02*
X157546476Y-38421200D01*
X157546476Y-38421200D02*
X157594095Y-38373580D01*
X157594095Y-38373580D02*
X157641714Y-38278342D01*
X157641714Y-38278342D02*
X157641714Y-38040247D01*
X157641714Y-38040247D02*
X157594095Y-37945009D01*
X157594095Y-37945009D02*
X157546476Y-37897390D01*
X157546476Y-37897390D02*
X157451238Y-37849771D01*
X157451238Y-37849771D02*
X157260762Y-37849771D01*
X157260762Y-37849771D02*
X157165524Y-37897390D01*
X157165524Y-37897390D02*
X157117905Y-37945009D01*
X157117905Y-37945009D02*
X157070286Y-38040247D01*
X73798095Y-90064819D02*
X73798095Y-89064819D01*
X73798095Y-89541009D02*
X74369523Y-89541009D01*
X74369523Y-90064819D02*
X74369523Y-89064819D01*
X75274285Y-89398152D02*
X75274285Y-90064819D01*
X75036190Y-89017200D02*
X74798095Y-89731485D01*
X74798095Y-89731485D02*
X75417142Y-89731485D01*
X82524761Y-97829819D02*
X82048571Y-97829819D01*
X82048571Y-97829819D02*
X82048571Y-96829819D01*
X82858095Y-97306009D02*
X83191428Y-97306009D01*
X83334285Y-97829819D02*
X82858095Y-97829819D01*
X82858095Y-97829819D02*
X82858095Y-96829819D01*
X82858095Y-96829819D02*
X83334285Y-96829819D01*
X83762857Y-97829819D02*
X83762857Y-96829819D01*
X83762857Y-96829819D02*
X84000952Y-96829819D01*
X84000952Y-96829819D02*
X84143809Y-96877438D01*
X84143809Y-96877438D02*
X84239047Y-96972676D01*
X84239047Y-96972676D02*
X84286666Y-97067914D01*
X84286666Y-97067914D02*
X84334285Y-97258390D01*
X84334285Y-97258390D02*
X84334285Y-97401247D01*
X84334285Y-97401247D02*
X84286666Y-97591723D01*
X84286666Y-97591723D02*
X84239047Y-97686961D01*
X84239047Y-97686961D02*
X84143809Y-97782200D01*
X84143809Y-97782200D02*
X84000952Y-97829819D01*
X84000952Y-97829819D02*
X83762857Y-97829819D01*
X84715238Y-96925057D02*
X84762857Y-96877438D01*
X84762857Y-96877438D02*
X84858095Y-96829819D01*
X84858095Y-96829819D02*
X85096190Y-96829819D01*
X85096190Y-96829819D02*
X85191428Y-96877438D01*
X85191428Y-96877438D02*
X85239047Y-96925057D01*
X85239047Y-96925057D02*
X85286666Y-97020295D01*
X85286666Y-97020295D02*
X85286666Y-97115533D01*
X85286666Y-97115533D02*
X85239047Y-97258390D01*
X85239047Y-97258390D02*
X84667619Y-97829819D01*
X84667619Y-97829819D02*
X85286666Y-97829819D01*
X85905714Y-96829819D02*
X86000952Y-96829819D01*
X86000952Y-96829819D02*
X86096190Y-96877438D01*
X86096190Y-96877438D02*
X86143809Y-96925057D01*
X86143809Y-96925057D02*
X86191428Y-97020295D01*
X86191428Y-97020295D02*
X86239047Y-97210771D01*
X86239047Y-97210771D02*
X86239047Y-97448866D01*
X86239047Y-97448866D02*
X86191428Y-97639342D01*
X86191428Y-97639342D02*
X86143809Y-97734580D01*
X86143809Y-97734580D02*
X86096190Y-97782200D01*
X86096190Y-97782200D02*
X86000952Y-97829819D01*
X86000952Y-97829819D02*
X85905714Y-97829819D01*
X85905714Y-97829819D02*
X85810476Y-97782200D01*
X85810476Y-97782200D02*
X85762857Y-97734580D01*
X85762857Y-97734580D02*
X85715238Y-97639342D01*
X85715238Y-97639342D02*
X85667619Y-97448866D01*
X85667619Y-97448866D02*
X85667619Y-97210771D01*
X85667619Y-97210771D02*
X85715238Y-97020295D01*
X85715238Y-97020295D02*
X85762857Y-96925057D01*
X85762857Y-96925057D02*
X85810476Y-96877438D01*
X85810476Y-96877438D02*
X85905714Y-96829819D01*
X101317333Y-38468819D02*
X100984000Y-37992628D01*
X100745905Y-38468819D02*
X100745905Y-37468819D01*
X100745905Y-37468819D02*
X101126857Y-37468819D01*
X101126857Y-37468819D02*
X101222095Y-37516438D01*
X101222095Y-37516438D02*
X101269714Y-37564057D01*
X101269714Y-37564057D02*
X101317333Y-37659295D01*
X101317333Y-37659295D02*
X101317333Y-37802152D01*
X101317333Y-37802152D02*
X101269714Y-37897390D01*
X101269714Y-37897390D02*
X101222095Y-37945009D01*
X101222095Y-37945009D02*
X101126857Y-37992628D01*
X101126857Y-37992628D02*
X100745905Y-37992628D01*
X102174476Y-37802152D02*
X102174476Y-38468819D01*
X101936381Y-37421200D02*
X101698286Y-38135485D01*
X101698286Y-38135485D02*
X102317333Y-38135485D01*
X177244761Y-76579819D02*
X176768571Y-76579819D01*
X176768571Y-76579819D02*
X176768571Y-75579819D01*
X177578095Y-76056009D02*
X177911428Y-76056009D01*
X178054285Y-76579819D02*
X177578095Y-76579819D01*
X177578095Y-76579819D02*
X177578095Y-75579819D01*
X177578095Y-75579819D02*
X178054285Y-75579819D01*
X178482857Y-76579819D02*
X178482857Y-75579819D01*
X178482857Y-75579819D02*
X178720952Y-75579819D01*
X178720952Y-75579819D02*
X178863809Y-75627438D01*
X178863809Y-75627438D02*
X178959047Y-75722676D01*
X178959047Y-75722676D02*
X179006666Y-75817914D01*
X179006666Y-75817914D02*
X179054285Y-76008390D01*
X179054285Y-76008390D02*
X179054285Y-76151247D01*
X179054285Y-76151247D02*
X179006666Y-76341723D01*
X179006666Y-76341723D02*
X178959047Y-76436961D01*
X178959047Y-76436961D02*
X178863809Y-76532200D01*
X178863809Y-76532200D02*
X178720952Y-76579819D01*
X178720952Y-76579819D02*
X178482857Y-76579819D01*
X180006666Y-76579819D02*
X179435238Y-76579819D01*
X179720952Y-76579819D02*
X179720952Y-75579819D01*
X179720952Y-75579819D02*
X179625714Y-75722676D01*
X179625714Y-75722676D02*
X179530476Y-75817914D01*
X179530476Y-75817914D02*
X179435238Y-75865533D01*
X180578095Y-76008390D02*
X180482857Y-75960771D01*
X180482857Y-75960771D02*
X180435238Y-75913152D01*
X180435238Y-75913152D02*
X180387619Y-75817914D01*
X180387619Y-75817914D02*
X180387619Y-75770295D01*
X180387619Y-75770295D02*
X180435238Y-75675057D01*
X180435238Y-75675057D02*
X180482857Y-75627438D01*
X180482857Y-75627438D02*
X180578095Y-75579819D01*
X180578095Y-75579819D02*
X180768571Y-75579819D01*
X180768571Y-75579819D02*
X180863809Y-75627438D01*
X180863809Y-75627438D02*
X180911428Y-75675057D01*
X180911428Y-75675057D02*
X180959047Y-75770295D01*
X180959047Y-75770295D02*
X180959047Y-75817914D01*
X180959047Y-75817914D02*
X180911428Y-75913152D01*
X180911428Y-75913152D02*
X180863809Y-75960771D01*
X180863809Y-75960771D02*
X180768571Y-76008390D01*
X180768571Y-76008390D02*
X180578095Y-76008390D01*
X180578095Y-76008390D02*
X180482857Y-76056009D01*
X180482857Y-76056009D02*
X180435238Y-76103628D01*
X180435238Y-76103628D02*
X180387619Y-76198866D01*
X180387619Y-76198866D02*
X180387619Y-76389342D01*
X180387619Y-76389342D02*
X180435238Y-76484580D01*
X180435238Y-76484580D02*
X180482857Y-76532200D01*
X180482857Y-76532200D02*
X180578095Y-76579819D01*
X180578095Y-76579819D02*
X180768571Y-76579819D01*
X180768571Y-76579819D02*
X180863809Y-76532200D01*
X180863809Y-76532200D02*
X180911428Y-76484580D01*
X180911428Y-76484580D02*
X180959047Y-76389342D01*
X180959047Y-76389342D02*
X180959047Y-76198866D01*
X180959047Y-76198866D02*
X180911428Y-76103628D01*
X180911428Y-76103628D02*
X180863809Y-76056009D01*
X180863809Y-76056009D02*
X180768571Y-76008390D01*
X92340095Y-53996819D02*
X92340095Y-52996819D01*
X92340095Y-53473009D02*
X92911523Y-53473009D01*
X92911523Y-53996819D02*
X92911523Y-52996819D01*
X93292476Y-52996819D02*
X93911523Y-52996819D01*
X93911523Y-52996819D02*
X93578190Y-53377771D01*
X93578190Y-53377771D02*
X93721047Y-53377771D01*
X93721047Y-53377771D02*
X93816285Y-53425390D01*
X93816285Y-53425390D02*
X93863904Y-53473009D01*
X93863904Y-53473009D02*
X93911523Y-53568247D01*
X93911523Y-53568247D02*
X93911523Y-53806342D01*
X93911523Y-53806342D02*
X93863904Y-53901580D01*
X93863904Y-53901580D02*
X93816285Y-53949200D01*
X93816285Y-53949200D02*
X93721047Y-53996819D01*
X93721047Y-53996819D02*
X93435333Y-53996819D01*
X93435333Y-53996819D02*
X93340095Y-53949200D01*
X93340095Y-53949200D02*
X93292476Y-53901580D01*
X101720952Y-58579819D02*
X101244762Y-58579819D01*
X101244762Y-58579819D02*
X101244762Y-57579819D01*
X102054286Y-58056009D02*
X102387619Y-58056009D01*
X102530476Y-58579819D02*
X102054286Y-58579819D01*
X102054286Y-58579819D02*
X102054286Y-57579819D01*
X102054286Y-57579819D02*
X102530476Y-57579819D01*
X102959048Y-58579819D02*
X102959048Y-57579819D01*
X102959048Y-57579819D02*
X103197143Y-57579819D01*
X103197143Y-57579819D02*
X103340000Y-57627438D01*
X103340000Y-57627438D02*
X103435238Y-57722676D01*
X103435238Y-57722676D02*
X103482857Y-57817914D01*
X103482857Y-57817914D02*
X103530476Y-58008390D01*
X103530476Y-58008390D02*
X103530476Y-58151247D01*
X103530476Y-58151247D02*
X103482857Y-58341723D01*
X103482857Y-58341723D02*
X103435238Y-58436961D01*
X103435238Y-58436961D02*
X103340000Y-58532200D01*
X103340000Y-58532200D02*
X103197143Y-58579819D01*
X103197143Y-58579819D02*
X102959048Y-58579819D01*
X104101905Y-58008390D02*
X104006667Y-57960771D01*
X104006667Y-57960771D02*
X103959048Y-57913152D01*
X103959048Y-57913152D02*
X103911429Y-57817914D01*
X103911429Y-57817914D02*
X103911429Y-57770295D01*
X103911429Y-57770295D02*
X103959048Y-57675057D01*
X103959048Y-57675057D02*
X104006667Y-57627438D01*
X104006667Y-57627438D02*
X104101905Y-57579819D01*
X104101905Y-57579819D02*
X104292381Y-57579819D01*
X104292381Y-57579819D02*
X104387619Y-57627438D01*
X104387619Y-57627438D02*
X104435238Y-57675057D01*
X104435238Y-57675057D02*
X104482857Y-57770295D01*
X104482857Y-57770295D02*
X104482857Y-57817914D01*
X104482857Y-57817914D02*
X104435238Y-57913152D01*
X104435238Y-57913152D02*
X104387619Y-57960771D01*
X104387619Y-57960771D02*
X104292381Y-58008390D01*
X104292381Y-58008390D02*
X104101905Y-58008390D01*
X104101905Y-58008390D02*
X104006667Y-58056009D01*
X104006667Y-58056009D02*
X103959048Y-58103628D01*
X103959048Y-58103628D02*
X103911429Y-58198866D01*
X103911429Y-58198866D02*
X103911429Y-58389342D01*
X103911429Y-58389342D02*
X103959048Y-58484580D01*
X103959048Y-58484580D02*
X104006667Y-58532200D01*
X104006667Y-58532200D02*
X104101905Y-58579819D01*
X104101905Y-58579819D02*
X104292381Y-58579819D01*
X104292381Y-58579819D02*
X104387619Y-58532200D01*
X104387619Y-58532200D02*
X104435238Y-58484580D01*
X104435238Y-58484580D02*
X104482857Y-58389342D01*
X104482857Y-58389342D02*
X104482857Y-58198866D01*
X104482857Y-58198866D02*
X104435238Y-58103628D01*
X104435238Y-58103628D02*
X104387619Y-58056009D01*
X104387619Y-58056009D02*
X104292381Y-58008390D01*
X158720952Y-40579819D02*
X158244762Y-40579819D01*
X158244762Y-40579819D02*
X158244762Y-39579819D01*
X159054286Y-40056009D02*
X159387619Y-40056009D01*
X159530476Y-40579819D02*
X159054286Y-40579819D01*
X159054286Y-40579819D02*
X159054286Y-39579819D01*
X159054286Y-39579819D02*
X159530476Y-39579819D01*
X159959048Y-40579819D02*
X159959048Y-39579819D01*
X159959048Y-39579819D02*
X160197143Y-39579819D01*
X160197143Y-39579819D02*
X160340000Y-39627438D01*
X160340000Y-39627438D02*
X160435238Y-39722676D01*
X160435238Y-39722676D02*
X160482857Y-39817914D01*
X160482857Y-39817914D02*
X160530476Y-40008390D01*
X160530476Y-40008390D02*
X160530476Y-40151247D01*
X160530476Y-40151247D02*
X160482857Y-40341723D01*
X160482857Y-40341723D02*
X160435238Y-40436961D01*
X160435238Y-40436961D02*
X160340000Y-40532200D01*
X160340000Y-40532200D02*
X160197143Y-40579819D01*
X160197143Y-40579819D02*
X159959048Y-40579819D01*
X161435238Y-39579819D02*
X160959048Y-39579819D01*
X160959048Y-39579819D02*
X160911429Y-40056009D01*
X160911429Y-40056009D02*
X160959048Y-40008390D01*
X160959048Y-40008390D02*
X161054286Y-39960771D01*
X161054286Y-39960771D02*
X161292381Y-39960771D01*
X161292381Y-39960771D02*
X161387619Y-40008390D01*
X161387619Y-40008390D02*
X161435238Y-40056009D01*
X161435238Y-40056009D02*
X161482857Y-40151247D01*
X161482857Y-40151247D02*
X161482857Y-40389342D01*
X161482857Y-40389342D02*
X161435238Y-40484580D01*
X161435238Y-40484580D02*
X161387619Y-40532200D01*
X161387619Y-40532200D02*
X161292381Y-40579819D01*
X161292381Y-40579819D02*
X161054286Y-40579819D01*
X161054286Y-40579819D02*
X160959048Y-40532200D01*
X160959048Y-40532200D02*
X160911429Y-40484580D01*
X117057142Y-51784819D02*
X116723809Y-51308628D01*
X116485714Y-51784819D02*
X116485714Y-50784819D01*
X116485714Y-50784819D02*
X116866666Y-50784819D01*
X116866666Y-50784819D02*
X116961904Y-50832438D01*
X116961904Y-50832438D02*
X117009523Y-50880057D01*
X117009523Y-50880057D02*
X117057142Y-50975295D01*
X117057142Y-50975295D02*
X117057142Y-51118152D01*
X117057142Y-51118152D02*
X117009523Y-51213390D01*
X117009523Y-51213390D02*
X116961904Y-51261009D01*
X116961904Y-51261009D02*
X116866666Y-51308628D01*
X116866666Y-51308628D02*
X116485714Y-51308628D01*
X118009523Y-51784819D02*
X117438095Y-51784819D01*
X117723809Y-51784819D02*
X117723809Y-50784819D01*
X117723809Y-50784819D02*
X117628571Y-50927676D01*
X117628571Y-50927676D02*
X117533333Y-51022914D01*
X117533333Y-51022914D02*
X117438095Y-51070533D01*
X118961904Y-51784819D02*
X118390476Y-51784819D01*
X118676190Y-51784819D02*
X118676190Y-50784819D01*
X118676190Y-50784819D02*
X118580952Y-50927676D01*
X118580952Y-50927676D02*
X118485714Y-51022914D01*
X118485714Y-51022914D02*
X118390476Y-51070533D01*
X168540095Y-50440819D02*
X168540095Y-49440819D01*
X168540095Y-49917009D02*
X169111523Y-49917009D01*
X169111523Y-50440819D02*
X169111523Y-49440819D01*
X170111523Y-50440819D02*
X169540095Y-50440819D01*
X169825809Y-50440819D02*
X169825809Y-49440819D01*
X169825809Y-49440819D02*
X169730571Y-49583676D01*
X169730571Y-49583676D02*
X169635333Y-49678914D01*
X169635333Y-49678914D02*
X169540095Y-49726533D01*
X56634167Y-38294819D02*
X56634167Y-37294819D01*
X56634167Y-37294819D02*
X57205595Y-38294819D01*
X57205595Y-38294819D02*
X57205595Y-37294819D01*
X57681786Y-38294819D02*
X57681786Y-37294819D01*
X58729404Y-38199580D02*
X58681785Y-38247200D01*
X58681785Y-38247200D02*
X58538928Y-38294819D01*
X58538928Y-38294819D02*
X58443690Y-38294819D01*
X58443690Y-38294819D02*
X58300833Y-38247200D01*
X58300833Y-38247200D02*
X58205595Y-38151961D01*
X58205595Y-38151961D02*
X58157976Y-38056723D01*
X58157976Y-38056723D02*
X58110357Y-37866247D01*
X58110357Y-37866247D02*
X58110357Y-37723390D01*
X58110357Y-37723390D02*
X58157976Y-37532914D01*
X58157976Y-37532914D02*
X58205595Y-37437676D01*
X58205595Y-37437676D02*
X58300833Y-37342438D01*
X58300833Y-37342438D02*
X58443690Y-37294819D01*
X58443690Y-37294819D02*
X58538928Y-37294819D01*
X58538928Y-37294819D02*
X58681785Y-37342438D01*
X58681785Y-37342438D02*
X58729404Y-37390057D01*
X59157976Y-37771009D02*
X59491309Y-37771009D01*
X59634166Y-38294819D02*
X59157976Y-38294819D01*
X59157976Y-38294819D02*
X59157976Y-37294819D01*
X59157976Y-37294819D02*
X59634166Y-37294819D01*
X59824643Y-38390057D02*
X60586547Y-38390057D01*
X60824643Y-38294819D02*
X60824643Y-37294819D01*
X60824643Y-37294819D02*
X61396071Y-38294819D01*
X61396071Y-38294819D02*
X61396071Y-37294819D01*
X61824643Y-38009104D02*
X62300833Y-38009104D01*
X61729405Y-38294819D02*
X62062738Y-37294819D01*
X62062738Y-37294819D02*
X62396071Y-38294819D01*
X62729405Y-38294819D02*
X62729405Y-37294819D01*
X62729405Y-37294819D02*
X63300833Y-38294819D01*
X63300833Y-38294819D02*
X63300833Y-37294819D01*
X63967500Y-37294819D02*
X64157976Y-37294819D01*
X64157976Y-37294819D02*
X64253214Y-37342438D01*
X64253214Y-37342438D02*
X64348452Y-37437676D01*
X64348452Y-37437676D02*
X64396071Y-37628152D01*
X64396071Y-37628152D02*
X64396071Y-37961485D01*
X64396071Y-37961485D02*
X64348452Y-38151961D01*
X64348452Y-38151961D02*
X64253214Y-38247200D01*
X64253214Y-38247200D02*
X64157976Y-38294819D01*
X64157976Y-38294819D02*
X63967500Y-38294819D01*
X63967500Y-38294819D02*
X63872262Y-38247200D01*
X63872262Y-38247200D02*
X63777024Y-38151961D01*
X63777024Y-38151961D02*
X63729405Y-37961485D01*
X63729405Y-37961485D02*
X63729405Y-37628152D01*
X63729405Y-37628152D02*
X63777024Y-37437676D01*
X63777024Y-37437676D02*
X63872262Y-37342438D01*
X63872262Y-37342438D02*
X63967500Y-37294819D01*
X65348452Y-38294819D02*
X64777024Y-38294819D01*
X65062738Y-38294819D02*
X65062738Y-37294819D01*
X65062738Y-37294819D02*
X64967500Y-37437676D01*
X64967500Y-37437676D02*
X64872262Y-37532914D01*
X64872262Y-37532914D02*
X64777024Y-37580533D01*
X101244761Y-94829819D02*
X100768571Y-94829819D01*
X100768571Y-94829819D02*
X100768571Y-93829819D01*
X101578095Y-94306009D02*
X101911428Y-94306009D01*
X102054285Y-94829819D02*
X101578095Y-94829819D01*
X101578095Y-94829819D02*
X101578095Y-93829819D01*
X101578095Y-93829819D02*
X102054285Y-93829819D01*
X102482857Y-94829819D02*
X102482857Y-93829819D01*
X102482857Y-93829819D02*
X102720952Y-93829819D01*
X102720952Y-93829819D02*
X102863809Y-93877438D01*
X102863809Y-93877438D02*
X102959047Y-93972676D01*
X102959047Y-93972676D02*
X103006666Y-94067914D01*
X103006666Y-94067914D02*
X103054285Y-94258390D01*
X103054285Y-94258390D02*
X103054285Y-94401247D01*
X103054285Y-94401247D02*
X103006666Y-94591723D01*
X103006666Y-94591723D02*
X102959047Y-94686961D01*
X102959047Y-94686961D02*
X102863809Y-94782200D01*
X102863809Y-94782200D02*
X102720952Y-94829819D01*
X102720952Y-94829819D02*
X102482857Y-94829819D01*
X103435238Y-93925057D02*
X103482857Y-93877438D01*
X103482857Y-93877438D02*
X103578095Y-93829819D01*
X103578095Y-93829819D02*
X103816190Y-93829819D01*
X103816190Y-93829819D02*
X103911428Y-93877438D01*
X103911428Y-93877438D02*
X103959047Y-93925057D01*
X103959047Y-93925057D02*
X104006666Y-94020295D01*
X104006666Y-94020295D02*
X104006666Y-94115533D01*
X104006666Y-94115533D02*
X103959047Y-94258390D01*
X103959047Y-94258390D02*
X103387619Y-94829819D01*
X103387619Y-94829819D02*
X104006666Y-94829819D01*
X104959047Y-94829819D02*
X104387619Y-94829819D01*
X104673333Y-94829819D02*
X104673333Y-93829819D01*
X104673333Y-93829819D02*
X104578095Y-93972676D01*
X104578095Y-93972676D02*
X104482857Y-94067914D01*
X104482857Y-94067914D02*
X104387619Y-94115533D01*
X79337142Y-76034819D02*
X79003809Y-75558628D01*
X78765714Y-76034819D02*
X78765714Y-75034819D01*
X78765714Y-75034819D02*
X79146666Y-75034819D01*
X79146666Y-75034819D02*
X79241904Y-75082438D01*
X79241904Y-75082438D02*
X79289523Y-75130057D01*
X79289523Y-75130057D02*
X79337142Y-75225295D01*
X79337142Y-75225295D02*
X79337142Y-75368152D01*
X79337142Y-75368152D02*
X79289523Y-75463390D01*
X79289523Y-75463390D02*
X79241904Y-75511009D01*
X79241904Y-75511009D02*
X79146666Y-75558628D01*
X79146666Y-75558628D02*
X78765714Y-75558628D01*
X80289523Y-76034819D02*
X79718095Y-76034819D01*
X80003809Y-76034819D02*
X80003809Y-75034819D01*
X80003809Y-75034819D02*
X79908571Y-75177676D01*
X79908571Y-75177676D02*
X79813333Y-75272914D01*
X79813333Y-75272914D02*
X79718095Y-75320533D01*
X81194285Y-75034819D02*
X80718095Y-75034819D01*
X80718095Y-75034819D02*
X80670476Y-75511009D01*
X80670476Y-75511009D02*
X80718095Y-75463390D01*
X80718095Y-75463390D02*
X80813333Y-75415771D01*
X80813333Y-75415771D02*
X81051428Y-75415771D01*
X81051428Y-75415771D02*
X81146666Y-75463390D01*
X81146666Y-75463390D02*
X81194285Y-75511009D01*
X81194285Y-75511009D02*
X81241904Y-75606247D01*
X81241904Y-75606247D02*
X81241904Y-75844342D01*
X81241904Y-75844342D02*
X81194285Y-75939580D01*
X81194285Y-75939580D02*
X81146666Y-75987200D01*
X81146666Y-75987200D02*
X81051428Y-76034819D01*
X81051428Y-76034819D02*
X80813333Y-76034819D01*
X80813333Y-76034819D02*
X80718095Y-75987200D01*
X80718095Y-75987200D02*
X80670476Y-75939580D01*
X81126642Y-94524819D02*
X80793309Y-94048628D01*
X80555214Y-94524819D02*
X80555214Y-93524819D01*
X80555214Y-93524819D02*
X80936166Y-93524819D01*
X80936166Y-93524819D02*
X81031404Y-93572438D01*
X81031404Y-93572438D02*
X81079023Y-93620057D01*
X81079023Y-93620057D02*
X81126642Y-93715295D01*
X81126642Y-93715295D02*
X81126642Y-93858152D01*
X81126642Y-93858152D02*
X81079023Y-93953390D01*
X81079023Y-93953390D02*
X81031404Y-94001009D01*
X81031404Y-94001009D02*
X80936166Y-94048628D01*
X80936166Y-94048628D02*
X80555214Y-94048628D01*
X81507595Y-93620057D02*
X81555214Y-93572438D01*
X81555214Y-93572438D02*
X81650452Y-93524819D01*
X81650452Y-93524819D02*
X81888547Y-93524819D01*
X81888547Y-93524819D02*
X81983785Y-93572438D01*
X81983785Y-93572438D02*
X82031404Y-93620057D01*
X82031404Y-93620057D02*
X82079023Y-93715295D01*
X82079023Y-93715295D02*
X82079023Y-93810533D01*
X82079023Y-93810533D02*
X82031404Y-93953390D01*
X82031404Y-93953390D02*
X81459976Y-94524819D01*
X81459976Y-94524819D02*
X82079023Y-94524819D01*
X82459976Y-93620057D02*
X82507595Y-93572438D01*
X82507595Y-93572438D02*
X82602833Y-93524819D01*
X82602833Y-93524819D02*
X82840928Y-93524819D01*
X82840928Y-93524819D02*
X82936166Y-93572438D01*
X82936166Y-93572438D02*
X82983785Y-93620057D01*
X82983785Y-93620057D02*
X83031404Y-93715295D01*
X83031404Y-93715295D02*
X83031404Y-93810533D01*
X83031404Y-93810533D02*
X82983785Y-93953390D01*
X82983785Y-93953390D02*
X82412357Y-94524819D01*
X82412357Y-94524819D02*
X83031404Y-94524819D01*
X166341333Y-38468819D02*
X166008000Y-37992628D01*
X165769905Y-38468819D02*
X165769905Y-37468819D01*
X165769905Y-37468819D02*
X166150857Y-37468819D01*
X166150857Y-37468819D02*
X166246095Y-37516438D01*
X166246095Y-37516438D02*
X166293714Y-37564057D01*
X166293714Y-37564057D02*
X166341333Y-37659295D01*
X166341333Y-37659295D02*
X166341333Y-37802152D01*
X166341333Y-37802152D02*
X166293714Y-37897390D01*
X166293714Y-37897390D02*
X166246095Y-37945009D01*
X166246095Y-37945009D02*
X166150857Y-37992628D01*
X166150857Y-37992628D02*
X165769905Y-37992628D01*
X166674667Y-37468819D02*
X167341333Y-37468819D01*
X167341333Y-37468819D02*
X166912762Y-38468819D01*
X136177142Y-87784819D02*
X135843809Y-87308628D01*
X135605714Y-87784819D02*
X135605714Y-86784819D01*
X135605714Y-86784819D02*
X135986666Y-86784819D01*
X135986666Y-86784819D02*
X136081904Y-86832438D01*
X136081904Y-86832438D02*
X136129523Y-86880057D01*
X136129523Y-86880057D02*
X136177142Y-86975295D01*
X136177142Y-86975295D02*
X136177142Y-87118152D01*
X136177142Y-87118152D02*
X136129523Y-87213390D01*
X136129523Y-87213390D02*
X136081904Y-87261009D01*
X136081904Y-87261009D02*
X135986666Y-87308628D01*
X135986666Y-87308628D02*
X135605714Y-87308628D01*
X136558095Y-86880057D02*
X136605714Y-86832438D01*
X136605714Y-86832438D02*
X136700952Y-86784819D01*
X136700952Y-86784819D02*
X136939047Y-86784819D01*
X136939047Y-86784819D02*
X137034285Y-86832438D01*
X137034285Y-86832438D02*
X137081904Y-86880057D01*
X137081904Y-86880057D02*
X137129523Y-86975295D01*
X137129523Y-86975295D02*
X137129523Y-87070533D01*
X137129523Y-87070533D02*
X137081904Y-87213390D01*
X137081904Y-87213390D02*
X136510476Y-87784819D01*
X136510476Y-87784819D02*
X137129523Y-87784819D01*
X138034285Y-86784819D02*
X137558095Y-86784819D01*
X137558095Y-86784819D02*
X137510476Y-87261009D01*
X137510476Y-87261009D02*
X137558095Y-87213390D01*
X137558095Y-87213390D02*
X137653333Y-87165771D01*
X137653333Y-87165771D02*
X137891428Y-87165771D01*
X137891428Y-87165771D02*
X137986666Y-87213390D01*
X137986666Y-87213390D02*
X138034285Y-87261009D01*
X138034285Y-87261009D02*
X138081904Y-87356247D01*
X138081904Y-87356247D02*
X138081904Y-87594342D01*
X138081904Y-87594342D02*
X138034285Y-87689580D01*
X138034285Y-87689580D02*
X137986666Y-87737200D01*
X137986666Y-87737200D02*
X137891428Y-87784819D01*
X137891428Y-87784819D02*
X137653333Y-87784819D01*
X137653333Y-87784819D02*
X137558095Y-87737200D01*
X137558095Y-87737200D02*
X137510476Y-87689580D01*
X130200095Y-65680819D02*
X130200095Y-64680819D01*
X130200095Y-65157009D02*
X130771523Y-65157009D01*
X130771523Y-65680819D02*
X130771523Y-64680819D01*
X131723904Y-64680819D02*
X131247714Y-64680819D01*
X131247714Y-64680819D02*
X131200095Y-65157009D01*
X131200095Y-65157009D02*
X131247714Y-65109390D01*
X131247714Y-65109390D02*
X131342952Y-65061771D01*
X131342952Y-65061771D02*
X131581047Y-65061771D01*
X131581047Y-65061771D02*
X131676285Y-65109390D01*
X131676285Y-65109390D02*
X131723904Y-65157009D01*
X131723904Y-65157009D02*
X131771523Y-65252247D01*
X131771523Y-65252247D02*
X131771523Y-65490342D01*
X131771523Y-65490342D02*
X131723904Y-65585580D01*
X131723904Y-65585580D02*
X131676285Y-65633200D01*
X131676285Y-65633200D02*
X131581047Y-65680819D01*
X131581047Y-65680819D02*
X131342952Y-65680819D01*
X131342952Y-65680819D02*
X131247714Y-65633200D01*
X131247714Y-65633200D02*
X131200095Y-65585580D01*
X158244761Y-58579819D02*
X157768571Y-58579819D01*
X157768571Y-58579819D02*
X157768571Y-57579819D01*
X158578095Y-58056009D02*
X158911428Y-58056009D01*
X159054285Y-58579819D02*
X158578095Y-58579819D01*
X158578095Y-58579819D02*
X158578095Y-57579819D01*
X158578095Y-57579819D02*
X159054285Y-57579819D01*
X159482857Y-58579819D02*
X159482857Y-57579819D01*
X159482857Y-57579819D02*
X159720952Y-57579819D01*
X159720952Y-57579819D02*
X159863809Y-57627438D01*
X159863809Y-57627438D02*
X159959047Y-57722676D01*
X159959047Y-57722676D02*
X160006666Y-57817914D01*
X160006666Y-57817914D02*
X160054285Y-58008390D01*
X160054285Y-58008390D02*
X160054285Y-58151247D01*
X160054285Y-58151247D02*
X160006666Y-58341723D01*
X160006666Y-58341723D02*
X159959047Y-58436961D01*
X159959047Y-58436961D02*
X159863809Y-58532200D01*
X159863809Y-58532200D02*
X159720952Y-58579819D01*
X159720952Y-58579819D02*
X159482857Y-58579819D01*
X161006666Y-58579819D02*
X160435238Y-58579819D01*
X160720952Y-58579819D02*
X160720952Y-57579819D01*
X160720952Y-57579819D02*
X160625714Y-57722676D01*
X160625714Y-57722676D02*
X160530476Y-57817914D01*
X160530476Y-57817914D02*
X160435238Y-57865533D01*
X161959047Y-58579819D02*
X161387619Y-58579819D01*
X161673333Y-58579819D02*
X161673333Y-57579819D01*
X161673333Y-57579819D02*
X161578095Y-57722676D01*
X161578095Y-57722676D02*
X161482857Y-57817914D01*
X161482857Y-57817914D02*
X161387619Y-57865533D01*
X89783261Y-38818057D02*
X89688023Y-38770438D01*
X89688023Y-38770438D02*
X89592785Y-38675200D01*
X89592785Y-38675200D02*
X89449928Y-38532342D01*
X89449928Y-38532342D02*
X89354690Y-38484723D01*
X89354690Y-38484723D02*
X89259452Y-38484723D01*
X89307071Y-38722819D02*
X89211833Y-38675200D01*
X89211833Y-38675200D02*
X89116595Y-38579961D01*
X89116595Y-38579961D02*
X89068976Y-38389485D01*
X89068976Y-38389485D02*
X89068976Y-38056152D01*
X89068976Y-38056152D02*
X89116595Y-37865676D01*
X89116595Y-37865676D02*
X89211833Y-37770438D01*
X89211833Y-37770438D02*
X89307071Y-37722819D01*
X89307071Y-37722819D02*
X89497547Y-37722819D01*
X89497547Y-37722819D02*
X89592785Y-37770438D01*
X89592785Y-37770438D02*
X89688023Y-37865676D01*
X89688023Y-37865676D02*
X89735642Y-38056152D01*
X89735642Y-38056152D02*
X89735642Y-38389485D01*
X89735642Y-38389485D02*
X89688023Y-38579961D01*
X89688023Y-38579961D02*
X89592785Y-38675200D01*
X89592785Y-38675200D02*
X89497547Y-38722819D01*
X89497547Y-38722819D02*
X89307071Y-38722819D01*
X90688023Y-38722819D02*
X90116595Y-38722819D01*
X90402309Y-38722819D02*
X90402309Y-37722819D01*
X90402309Y-37722819D02*
X90307071Y-37865676D01*
X90307071Y-37865676D02*
X90211833Y-37960914D01*
X90211833Y-37960914D02*
X90116595Y-38008533D01*
X98057142Y-91034819D02*
X97723809Y-90558628D01*
X97485714Y-91034819D02*
X97485714Y-90034819D01*
X97485714Y-90034819D02*
X97866666Y-90034819D01*
X97866666Y-90034819D02*
X97961904Y-90082438D01*
X97961904Y-90082438D02*
X98009523Y-90130057D01*
X98009523Y-90130057D02*
X98057142Y-90225295D01*
X98057142Y-90225295D02*
X98057142Y-90368152D01*
X98057142Y-90368152D02*
X98009523Y-90463390D01*
X98009523Y-90463390D02*
X97961904Y-90511009D01*
X97961904Y-90511009D02*
X97866666Y-90558628D01*
X97866666Y-90558628D02*
X97485714Y-90558628D01*
X98438095Y-90130057D02*
X98485714Y-90082438D01*
X98485714Y-90082438D02*
X98580952Y-90034819D01*
X98580952Y-90034819D02*
X98819047Y-90034819D01*
X98819047Y-90034819D02*
X98914285Y-90082438D01*
X98914285Y-90082438D02*
X98961904Y-90130057D01*
X98961904Y-90130057D02*
X99009523Y-90225295D01*
X99009523Y-90225295D02*
X99009523Y-90320533D01*
X99009523Y-90320533D02*
X98961904Y-90463390D01*
X98961904Y-90463390D02*
X98390476Y-91034819D01*
X98390476Y-91034819D02*
X99009523Y-91034819D01*
X99342857Y-90034819D02*
X99961904Y-90034819D01*
X99961904Y-90034819D02*
X99628571Y-90415771D01*
X99628571Y-90415771D02*
X99771428Y-90415771D01*
X99771428Y-90415771D02*
X99866666Y-90463390D01*
X99866666Y-90463390D02*
X99914285Y-90511009D01*
X99914285Y-90511009D02*
X99961904Y-90606247D01*
X99961904Y-90606247D02*
X99961904Y-90844342D01*
X99961904Y-90844342D02*
X99914285Y-90939580D01*
X99914285Y-90939580D02*
X99866666Y-90987200D01*
X99866666Y-90987200D02*
X99771428Y-91034819D01*
X99771428Y-91034819D02*
X99485714Y-91034819D01*
X99485714Y-91034819D02*
X99390476Y-90987200D01*
X99390476Y-90987200D02*
X99342857Y-90939580D01*
X83000952Y-61874819D02*
X82524762Y-61874819D01*
X82524762Y-61874819D02*
X82524762Y-60874819D01*
X83334286Y-61351009D02*
X83667619Y-61351009D01*
X83810476Y-61874819D02*
X83334286Y-61874819D01*
X83334286Y-61874819D02*
X83334286Y-60874819D01*
X83334286Y-60874819D02*
X83810476Y-60874819D01*
X84239048Y-61874819D02*
X84239048Y-60874819D01*
X84239048Y-60874819D02*
X84477143Y-60874819D01*
X84477143Y-60874819D02*
X84620000Y-60922438D01*
X84620000Y-60922438D02*
X84715238Y-61017676D01*
X84715238Y-61017676D02*
X84762857Y-61112914D01*
X84762857Y-61112914D02*
X84810476Y-61303390D01*
X84810476Y-61303390D02*
X84810476Y-61446247D01*
X84810476Y-61446247D02*
X84762857Y-61636723D01*
X84762857Y-61636723D02*
X84715238Y-61731961D01*
X84715238Y-61731961D02*
X84620000Y-61827200D01*
X84620000Y-61827200D02*
X84477143Y-61874819D01*
X84477143Y-61874819D02*
X84239048Y-61874819D01*
X85143810Y-60874819D02*
X85810476Y-60874819D01*
X85810476Y-60874819D02*
X85381905Y-61874819D01*
X109093333Y-38548819D02*
X108760000Y-38072628D01*
X108521905Y-38548819D02*
X108521905Y-37548819D01*
X108521905Y-37548819D02*
X108902857Y-37548819D01*
X108902857Y-37548819D02*
X108998095Y-37596438D01*
X108998095Y-37596438D02*
X109045714Y-37644057D01*
X109045714Y-37644057D02*
X109093333Y-37739295D01*
X109093333Y-37739295D02*
X109093333Y-37882152D01*
X109093333Y-37882152D02*
X109045714Y-37977390D01*
X109045714Y-37977390D02*
X108998095Y-38025009D01*
X108998095Y-38025009D02*
X108902857Y-38072628D01*
X108902857Y-38072628D02*
X108521905Y-38072628D01*
X109998095Y-37548819D02*
X109521905Y-37548819D01*
X109521905Y-37548819D02*
X109474286Y-38025009D01*
X109474286Y-38025009D02*
X109521905Y-37977390D01*
X109521905Y-37977390D02*
X109617143Y-37929771D01*
X109617143Y-37929771D02*
X109855238Y-37929771D01*
X109855238Y-37929771D02*
X109950476Y-37977390D01*
X109950476Y-37977390D02*
X109998095Y-38025009D01*
X109998095Y-38025009D02*
X110045714Y-38120247D01*
X110045714Y-38120247D02*
X110045714Y-38358342D01*
X110045714Y-38358342D02*
X109998095Y-38453580D01*
X109998095Y-38453580D02*
X109950476Y-38501200D01*
X109950476Y-38501200D02*
X109855238Y-38548819D01*
X109855238Y-38548819D02*
X109617143Y-38548819D01*
X109617143Y-38548819D02*
X109521905Y-38501200D01*
X109521905Y-38501200D02*
X109474286Y-38453580D01*
X117057142Y-69784819D02*
X116723809Y-69308628D01*
X116485714Y-69784819D02*
X116485714Y-68784819D01*
X116485714Y-68784819D02*
X116866666Y-68784819D01*
X116866666Y-68784819D02*
X116961904Y-68832438D01*
X116961904Y-68832438D02*
X117009523Y-68880057D01*
X117009523Y-68880057D02*
X117057142Y-68975295D01*
X117057142Y-68975295D02*
X117057142Y-69118152D01*
X117057142Y-69118152D02*
X117009523Y-69213390D01*
X117009523Y-69213390D02*
X116961904Y-69261009D01*
X116961904Y-69261009D02*
X116866666Y-69308628D01*
X116866666Y-69308628D02*
X116485714Y-69308628D01*
X118009523Y-69784819D02*
X117438095Y-69784819D01*
X117723809Y-69784819D02*
X117723809Y-68784819D01*
X117723809Y-68784819D02*
X117628571Y-68927676D01*
X117628571Y-68927676D02*
X117533333Y-69022914D01*
X117533333Y-69022914D02*
X117438095Y-69070533D01*
X118342857Y-68784819D02*
X119009523Y-68784819D01*
X119009523Y-68784819D02*
X118580952Y-69784819D01*
X71284261Y-46121009D02*
X71427118Y-46168628D01*
X71427118Y-46168628D02*
X71474737Y-46216247D01*
X71474737Y-46216247D02*
X71522356Y-46311485D01*
X71522356Y-46311485D02*
X71522356Y-46454342D01*
X71522356Y-46454342D02*
X71474737Y-46549580D01*
X71474737Y-46549580D02*
X71427118Y-46597200D01*
X71427118Y-46597200D02*
X71331880Y-46644819D01*
X71331880Y-46644819D02*
X70950928Y-46644819D01*
X70950928Y-46644819D02*
X70950928Y-45644819D01*
X70950928Y-45644819D02*
X71284261Y-45644819D01*
X71284261Y-45644819D02*
X71379499Y-45692438D01*
X71379499Y-45692438D02*
X71427118Y-45740057D01*
X71427118Y-45740057D02*
X71474737Y-45835295D01*
X71474737Y-45835295D02*
X71474737Y-45930533D01*
X71474737Y-45930533D02*
X71427118Y-46025771D01*
X71427118Y-46025771D02*
X71379499Y-46073390D01*
X71379499Y-46073390D02*
X71284261Y-46121009D01*
X71284261Y-46121009D02*
X70950928Y-46121009D01*
X71903309Y-46359104D02*
X72379499Y-46359104D01*
X71808071Y-46644819D02*
X72141404Y-45644819D01*
X72141404Y-45644819D02*
X72474737Y-46644819D01*
X72665214Y-45644819D02*
X73236642Y-45644819D01*
X72950928Y-46644819D02*
X72950928Y-45644819D01*
X73427119Y-45644819D02*
X73998547Y-45644819D01*
X73712833Y-46644819D02*
X73712833Y-45644819D01*
X74855690Y-46644819D02*
X74284262Y-46644819D01*
X74569976Y-46644819D02*
X74569976Y-45644819D01*
X74569976Y-45644819D02*
X74474738Y-45787676D01*
X74474738Y-45787676D02*
X74379500Y-45882914D01*
X74379500Y-45882914D02*
X74284262Y-45930533D01*
X120720952Y-55579819D02*
X120244762Y-55579819D01*
X120244762Y-55579819D02*
X120244762Y-54579819D01*
X121054286Y-55056009D02*
X121387619Y-55056009D01*
X121530476Y-55579819D02*
X121054286Y-55579819D01*
X121054286Y-55579819D02*
X121054286Y-54579819D01*
X121054286Y-54579819D02*
X121530476Y-54579819D01*
X121959048Y-55579819D02*
X121959048Y-54579819D01*
X121959048Y-54579819D02*
X122197143Y-54579819D01*
X122197143Y-54579819D02*
X122340000Y-54627438D01*
X122340000Y-54627438D02*
X122435238Y-54722676D01*
X122435238Y-54722676D02*
X122482857Y-54817914D01*
X122482857Y-54817914D02*
X122530476Y-55008390D01*
X122530476Y-55008390D02*
X122530476Y-55151247D01*
X122530476Y-55151247D02*
X122482857Y-55341723D01*
X122482857Y-55341723D02*
X122435238Y-55436961D01*
X122435238Y-55436961D02*
X122340000Y-55532200D01*
X122340000Y-55532200D02*
X122197143Y-55579819D01*
X122197143Y-55579819D02*
X121959048Y-55579819D01*
X123006667Y-55579819D02*
X123197143Y-55579819D01*
X123197143Y-55579819D02*
X123292381Y-55532200D01*
X123292381Y-55532200D02*
X123340000Y-55484580D01*
X123340000Y-55484580D02*
X123435238Y-55341723D01*
X123435238Y-55341723D02*
X123482857Y-55151247D01*
X123482857Y-55151247D02*
X123482857Y-54770295D01*
X123482857Y-54770295D02*
X123435238Y-54675057D01*
X123435238Y-54675057D02*
X123387619Y-54627438D01*
X123387619Y-54627438D02*
X123292381Y-54579819D01*
X123292381Y-54579819D02*
X123101905Y-54579819D01*
X123101905Y-54579819D02*
X123006667Y-54627438D01*
X123006667Y-54627438D02*
X122959048Y-54675057D01*
X122959048Y-54675057D02*
X122911429Y-54770295D01*
X122911429Y-54770295D02*
X122911429Y-55008390D01*
X122911429Y-55008390D02*
X122959048Y-55103628D01*
X122959048Y-55103628D02*
X123006667Y-55151247D01*
X123006667Y-55151247D02*
X123101905Y-55198866D01*
X123101905Y-55198866D02*
X123292381Y-55198866D01*
X123292381Y-55198866D02*
X123387619Y-55151247D01*
X123387619Y-55151247D02*
X123435238Y-55103628D01*
X123435238Y-55103628D02*
X123482857Y-55008390D01*
X98057142Y-72784819D02*
X97723809Y-72308628D01*
X97485714Y-72784819D02*
X97485714Y-71784819D01*
X97485714Y-71784819D02*
X97866666Y-71784819D01*
X97866666Y-71784819D02*
X97961904Y-71832438D01*
X97961904Y-71832438D02*
X98009523Y-71880057D01*
X98009523Y-71880057D02*
X98057142Y-71975295D01*
X98057142Y-71975295D02*
X98057142Y-72118152D01*
X98057142Y-72118152D02*
X98009523Y-72213390D01*
X98009523Y-72213390D02*
X97961904Y-72261009D01*
X97961904Y-72261009D02*
X97866666Y-72308628D01*
X97866666Y-72308628D02*
X97485714Y-72308628D01*
X99009523Y-72784819D02*
X98438095Y-72784819D01*
X98723809Y-72784819D02*
X98723809Y-71784819D01*
X98723809Y-71784819D02*
X98628571Y-71927676D01*
X98628571Y-71927676D02*
X98533333Y-72022914D01*
X98533333Y-72022914D02*
X98438095Y-72070533D01*
X99866666Y-71784819D02*
X99676190Y-71784819D01*
X99676190Y-71784819D02*
X99580952Y-71832438D01*
X99580952Y-71832438D02*
X99533333Y-71880057D01*
X99533333Y-71880057D02*
X99438095Y-72022914D01*
X99438095Y-72022914D02*
X99390476Y-72213390D01*
X99390476Y-72213390D02*
X99390476Y-72594342D01*
X99390476Y-72594342D02*
X99438095Y-72689580D01*
X99438095Y-72689580D02*
X99485714Y-72737200D01*
X99485714Y-72737200D02*
X99580952Y-72784819D01*
X99580952Y-72784819D02*
X99771428Y-72784819D01*
X99771428Y-72784819D02*
X99866666Y-72737200D01*
X99866666Y-72737200D02*
X99914285Y-72689580D01*
X99914285Y-72689580D02*
X99961904Y-72594342D01*
X99961904Y-72594342D02*
X99961904Y-72356247D01*
X99961904Y-72356247D02*
X99914285Y-72261009D01*
X99914285Y-72261009D02*
X99866666Y-72213390D01*
X99866666Y-72213390D02*
X99771428Y-72165771D01*
X99771428Y-72165771D02*
X99580952Y-72165771D01*
X99580952Y-72165771D02*
X99485714Y-72213390D01*
X99485714Y-72213390D02*
X99438095Y-72261009D01*
X99438095Y-72261009D02*
X99390476Y-72356247D01*
X101244761Y-76579819D02*
X100768571Y-76579819D01*
X100768571Y-76579819D02*
X100768571Y-75579819D01*
X101578095Y-76056009D02*
X101911428Y-76056009D01*
X102054285Y-76579819D02*
X101578095Y-76579819D01*
X101578095Y-76579819D02*
X101578095Y-75579819D01*
X101578095Y-75579819D02*
X102054285Y-75579819D01*
X102482857Y-76579819D02*
X102482857Y-75579819D01*
X102482857Y-75579819D02*
X102720952Y-75579819D01*
X102720952Y-75579819D02*
X102863809Y-75627438D01*
X102863809Y-75627438D02*
X102959047Y-75722676D01*
X102959047Y-75722676D02*
X103006666Y-75817914D01*
X103006666Y-75817914D02*
X103054285Y-76008390D01*
X103054285Y-76008390D02*
X103054285Y-76151247D01*
X103054285Y-76151247D02*
X103006666Y-76341723D01*
X103006666Y-76341723D02*
X102959047Y-76436961D01*
X102959047Y-76436961D02*
X102863809Y-76532200D01*
X102863809Y-76532200D02*
X102720952Y-76579819D01*
X102720952Y-76579819D02*
X102482857Y-76579819D01*
X104006666Y-76579819D02*
X103435238Y-76579819D01*
X103720952Y-76579819D02*
X103720952Y-75579819D01*
X103720952Y-75579819D02*
X103625714Y-75722676D01*
X103625714Y-75722676D02*
X103530476Y-75817914D01*
X103530476Y-75817914D02*
X103435238Y-75865533D01*
X104863809Y-75913152D02*
X104863809Y-76579819D01*
X104625714Y-75532200D02*
X104387619Y-76246485D01*
X104387619Y-76246485D02*
X105006666Y-76246485D01*
X101720952Y-40579819D02*
X101244762Y-40579819D01*
X101244762Y-40579819D02*
X101244762Y-39579819D01*
X102054286Y-40056009D02*
X102387619Y-40056009D01*
X102530476Y-40579819D02*
X102054286Y-40579819D01*
X102054286Y-40579819D02*
X102054286Y-39579819D01*
X102054286Y-39579819D02*
X102530476Y-39579819D01*
X102959048Y-40579819D02*
X102959048Y-39579819D01*
X102959048Y-39579819D02*
X103197143Y-39579819D01*
X103197143Y-39579819D02*
X103340000Y-39627438D01*
X103340000Y-39627438D02*
X103435238Y-39722676D01*
X103435238Y-39722676D02*
X103482857Y-39817914D01*
X103482857Y-39817914D02*
X103530476Y-40008390D01*
X103530476Y-40008390D02*
X103530476Y-40151247D01*
X103530476Y-40151247D02*
X103482857Y-40341723D01*
X103482857Y-40341723D02*
X103435238Y-40436961D01*
X103435238Y-40436961D02*
X103340000Y-40532200D01*
X103340000Y-40532200D02*
X103197143Y-40579819D01*
X103197143Y-40579819D02*
X102959048Y-40579819D01*
X103911429Y-39675057D02*
X103959048Y-39627438D01*
X103959048Y-39627438D02*
X104054286Y-39579819D01*
X104054286Y-39579819D02*
X104292381Y-39579819D01*
X104292381Y-39579819D02*
X104387619Y-39627438D01*
X104387619Y-39627438D02*
X104435238Y-39675057D01*
X104435238Y-39675057D02*
X104482857Y-39770295D01*
X104482857Y-39770295D02*
X104482857Y-39865533D01*
X104482857Y-39865533D02*
X104435238Y-40008390D01*
X104435238Y-40008390D02*
X103863810Y-40579819D01*
X103863810Y-40579819D02*
X104482857Y-40579819D01*
X139244761Y-73579819D02*
X138768571Y-73579819D01*
X138768571Y-73579819D02*
X138768571Y-72579819D01*
X139578095Y-73056009D02*
X139911428Y-73056009D01*
X140054285Y-73579819D02*
X139578095Y-73579819D01*
X139578095Y-73579819D02*
X139578095Y-72579819D01*
X139578095Y-72579819D02*
X140054285Y-72579819D01*
X140482857Y-73579819D02*
X140482857Y-72579819D01*
X140482857Y-72579819D02*
X140720952Y-72579819D01*
X140720952Y-72579819D02*
X140863809Y-72627438D01*
X140863809Y-72627438D02*
X140959047Y-72722676D01*
X140959047Y-72722676D02*
X141006666Y-72817914D01*
X141006666Y-72817914D02*
X141054285Y-73008390D01*
X141054285Y-73008390D02*
X141054285Y-73151247D01*
X141054285Y-73151247D02*
X141006666Y-73341723D01*
X141006666Y-73341723D02*
X140959047Y-73436961D01*
X140959047Y-73436961D02*
X140863809Y-73532200D01*
X140863809Y-73532200D02*
X140720952Y-73579819D01*
X140720952Y-73579819D02*
X140482857Y-73579819D01*
X142006666Y-73579819D02*
X141435238Y-73579819D01*
X141720952Y-73579819D02*
X141720952Y-72579819D01*
X141720952Y-72579819D02*
X141625714Y-72722676D01*
X141625714Y-72722676D02*
X141530476Y-72817914D01*
X141530476Y-72817914D02*
X141435238Y-72865533D01*
X142863809Y-72579819D02*
X142673333Y-72579819D01*
X142673333Y-72579819D02*
X142578095Y-72627438D01*
X142578095Y-72627438D02*
X142530476Y-72675057D01*
X142530476Y-72675057D02*
X142435238Y-72817914D01*
X142435238Y-72817914D02*
X142387619Y-73008390D01*
X142387619Y-73008390D02*
X142387619Y-73389342D01*
X142387619Y-73389342D02*
X142435238Y-73484580D01*
X142435238Y-73484580D02*
X142482857Y-73532200D01*
X142482857Y-73532200D02*
X142578095Y-73579819D01*
X142578095Y-73579819D02*
X142768571Y-73579819D01*
X142768571Y-73579819D02*
X142863809Y-73532200D01*
X142863809Y-73532200D02*
X142911428Y-73484580D01*
X142911428Y-73484580D02*
X142959047Y-73389342D01*
X142959047Y-73389342D02*
X142959047Y-73151247D01*
X142959047Y-73151247D02*
X142911428Y-73056009D01*
X142911428Y-73056009D02*
X142863809Y-73008390D01*
X142863809Y-73008390D02*
X142768571Y-72960771D01*
X142768571Y-72960771D02*
X142578095Y-72960771D01*
X142578095Y-72960771D02*
X142482857Y-73008390D01*
X142482857Y-73008390D02*
X142435238Y-73056009D01*
X142435238Y-73056009D02*
X142387619Y-73151247D01*
X120244761Y-91579819D02*
X119768571Y-91579819D01*
X119768571Y-91579819D02*
X119768571Y-90579819D01*
X120578095Y-91056009D02*
X120911428Y-91056009D01*
X121054285Y-91579819D02*
X120578095Y-91579819D01*
X120578095Y-91579819D02*
X120578095Y-90579819D01*
X120578095Y-90579819D02*
X121054285Y-90579819D01*
X121482857Y-91579819D02*
X121482857Y-90579819D01*
X121482857Y-90579819D02*
X121720952Y-90579819D01*
X121720952Y-90579819D02*
X121863809Y-90627438D01*
X121863809Y-90627438D02*
X121959047Y-90722676D01*
X121959047Y-90722676D02*
X122006666Y-90817914D01*
X122006666Y-90817914D02*
X122054285Y-91008390D01*
X122054285Y-91008390D02*
X122054285Y-91151247D01*
X122054285Y-91151247D02*
X122006666Y-91341723D01*
X122006666Y-91341723D02*
X121959047Y-91436961D01*
X121959047Y-91436961D02*
X121863809Y-91532200D01*
X121863809Y-91532200D02*
X121720952Y-91579819D01*
X121720952Y-91579819D02*
X121482857Y-91579819D01*
X122435238Y-90675057D02*
X122482857Y-90627438D01*
X122482857Y-90627438D02*
X122578095Y-90579819D01*
X122578095Y-90579819D02*
X122816190Y-90579819D01*
X122816190Y-90579819D02*
X122911428Y-90627438D01*
X122911428Y-90627438D02*
X122959047Y-90675057D01*
X122959047Y-90675057D02*
X123006666Y-90770295D01*
X123006666Y-90770295D02*
X123006666Y-90865533D01*
X123006666Y-90865533D02*
X122959047Y-91008390D01*
X122959047Y-91008390D02*
X122387619Y-91579819D01*
X122387619Y-91579819D02*
X123006666Y-91579819D01*
X123387619Y-90675057D02*
X123435238Y-90627438D01*
X123435238Y-90627438D02*
X123530476Y-90579819D01*
X123530476Y-90579819D02*
X123768571Y-90579819D01*
X123768571Y-90579819D02*
X123863809Y-90627438D01*
X123863809Y-90627438D02*
X123911428Y-90675057D01*
X123911428Y-90675057D02*
X123959047Y-90770295D01*
X123959047Y-90770295D02*
X123959047Y-90865533D01*
X123959047Y-90865533D02*
X123911428Y-91008390D01*
X123911428Y-91008390D02*
X123340000Y-91579819D01*
X123340000Y-91579819D02*
X123959047Y-91579819D01*
X79813333Y-58079819D02*
X79480000Y-57603628D01*
X79241905Y-58079819D02*
X79241905Y-57079819D01*
X79241905Y-57079819D02*
X79622857Y-57079819D01*
X79622857Y-57079819D02*
X79718095Y-57127438D01*
X79718095Y-57127438D02*
X79765714Y-57175057D01*
X79765714Y-57175057D02*
X79813333Y-57270295D01*
X79813333Y-57270295D02*
X79813333Y-57413152D01*
X79813333Y-57413152D02*
X79765714Y-57508390D01*
X79765714Y-57508390D02*
X79718095Y-57556009D01*
X79718095Y-57556009D02*
X79622857Y-57603628D01*
X79622857Y-57603628D02*
X79241905Y-57603628D01*
X80289524Y-58079819D02*
X80480000Y-58079819D01*
X80480000Y-58079819D02*
X80575238Y-58032200D01*
X80575238Y-58032200D02*
X80622857Y-57984580D01*
X80622857Y-57984580D02*
X80718095Y-57841723D01*
X80718095Y-57841723D02*
X80765714Y-57651247D01*
X80765714Y-57651247D02*
X80765714Y-57270295D01*
X80765714Y-57270295D02*
X80718095Y-57175057D01*
X80718095Y-57175057D02*
X80670476Y-57127438D01*
X80670476Y-57127438D02*
X80575238Y-57079819D01*
X80575238Y-57079819D02*
X80384762Y-57079819D01*
X80384762Y-57079819D02*
X80289524Y-57127438D01*
X80289524Y-57127438D02*
X80241905Y-57175057D01*
X80241905Y-57175057D02*
X80194286Y-57270295D01*
X80194286Y-57270295D02*
X80194286Y-57508390D01*
X80194286Y-57508390D02*
X80241905Y-57603628D01*
X80241905Y-57603628D02*
X80289524Y-57651247D01*
X80289524Y-57651247D02*
X80384762Y-57698866D01*
X80384762Y-57698866D02*
X80575238Y-57698866D01*
X80575238Y-57698866D02*
X80670476Y-57651247D01*
X80670476Y-57651247D02*
X80718095Y-57603628D01*
X80718095Y-57603628D02*
X80765714Y-57508390D01*
X93689833Y-41348819D02*
X93356500Y-40872628D01*
X93118405Y-41348819D02*
X93118405Y-40348819D01*
X93118405Y-40348819D02*
X93499357Y-40348819D01*
X93499357Y-40348819D02*
X93594595Y-40396438D01*
X93594595Y-40396438D02*
X93642214Y-40444057D01*
X93642214Y-40444057D02*
X93689833Y-40539295D01*
X93689833Y-40539295D02*
X93689833Y-40682152D01*
X93689833Y-40682152D02*
X93642214Y-40777390D01*
X93642214Y-40777390D02*
X93594595Y-40825009D01*
X93594595Y-40825009D02*
X93499357Y-40872628D01*
X93499357Y-40872628D02*
X93118405Y-40872628D01*
X94023167Y-40348819D02*
X94642214Y-40348819D01*
X94642214Y-40348819D02*
X94308881Y-40729771D01*
X94308881Y-40729771D02*
X94451738Y-40729771D01*
X94451738Y-40729771D02*
X94546976Y-40777390D01*
X94546976Y-40777390D02*
X94594595Y-40825009D01*
X94594595Y-40825009D02*
X94642214Y-40920247D01*
X94642214Y-40920247D02*
X94642214Y-41158342D01*
X94642214Y-41158342D02*
X94594595Y-41253580D01*
X94594595Y-41253580D02*
X94546976Y-41301200D01*
X94546976Y-41301200D02*
X94451738Y-41348819D01*
X94451738Y-41348819D02*
X94166024Y-41348819D01*
X94166024Y-41348819D02*
X94070786Y-41301200D01*
X94070786Y-41301200D02*
X94023167Y-41253580D01*
X177720952Y-40579819D02*
X177244762Y-40579819D01*
X177244762Y-40579819D02*
X177244762Y-39579819D01*
X178054286Y-40056009D02*
X178387619Y-40056009D01*
X178530476Y-40579819D02*
X178054286Y-40579819D01*
X178054286Y-40579819D02*
X178054286Y-39579819D01*
X178054286Y-39579819D02*
X178530476Y-39579819D01*
X178959048Y-40579819D02*
X178959048Y-39579819D01*
X178959048Y-39579819D02*
X179197143Y-39579819D01*
X179197143Y-39579819D02*
X179340000Y-39627438D01*
X179340000Y-39627438D02*
X179435238Y-39722676D01*
X179435238Y-39722676D02*
X179482857Y-39817914D01*
X179482857Y-39817914D02*
X179530476Y-40008390D01*
X179530476Y-40008390D02*
X179530476Y-40151247D01*
X179530476Y-40151247D02*
X179482857Y-40341723D01*
X179482857Y-40341723D02*
X179435238Y-40436961D01*
X179435238Y-40436961D02*
X179340000Y-40532200D01*
X179340000Y-40532200D02*
X179197143Y-40579819D01*
X179197143Y-40579819D02*
X178959048Y-40579819D01*
X180387619Y-39579819D02*
X180197143Y-39579819D01*
X180197143Y-39579819D02*
X180101905Y-39627438D01*
X180101905Y-39627438D02*
X180054286Y-39675057D01*
X180054286Y-39675057D02*
X179959048Y-39817914D01*
X179959048Y-39817914D02*
X179911429Y-40008390D01*
X179911429Y-40008390D02*
X179911429Y-40389342D01*
X179911429Y-40389342D02*
X179959048Y-40484580D01*
X179959048Y-40484580D02*
X180006667Y-40532200D01*
X180006667Y-40532200D02*
X180101905Y-40579819D01*
X180101905Y-40579819D02*
X180292381Y-40579819D01*
X180292381Y-40579819D02*
X180387619Y-40532200D01*
X180387619Y-40532200D02*
X180435238Y-40484580D01*
X180435238Y-40484580D02*
X180482857Y-40389342D01*
X180482857Y-40389342D02*
X180482857Y-40151247D01*
X180482857Y-40151247D02*
X180435238Y-40056009D01*
X180435238Y-40056009D02*
X180387619Y-40008390D01*
X180387619Y-40008390D02*
X180292381Y-39960771D01*
X180292381Y-39960771D02*
X180101905Y-39960771D01*
X180101905Y-39960771D02*
X180006667Y-40008390D01*
X180006667Y-40008390D02*
X179959048Y-40056009D01*
X179959048Y-40056009D02*
X179911429Y-40151247D01*
X155057142Y-54784819D02*
X154723809Y-54308628D01*
X154485714Y-54784819D02*
X154485714Y-53784819D01*
X154485714Y-53784819D02*
X154866666Y-53784819D01*
X154866666Y-53784819D02*
X154961904Y-53832438D01*
X154961904Y-53832438D02*
X155009523Y-53880057D01*
X155009523Y-53880057D02*
X155057142Y-53975295D01*
X155057142Y-53975295D02*
X155057142Y-54118152D01*
X155057142Y-54118152D02*
X155009523Y-54213390D01*
X155009523Y-54213390D02*
X154961904Y-54261009D01*
X154961904Y-54261009D02*
X154866666Y-54308628D01*
X154866666Y-54308628D02*
X154485714Y-54308628D01*
X156009523Y-54784819D02*
X155438095Y-54784819D01*
X155723809Y-54784819D02*
X155723809Y-53784819D01*
X155723809Y-53784819D02*
X155628571Y-53927676D01*
X155628571Y-53927676D02*
X155533333Y-54022914D01*
X155533333Y-54022914D02*
X155438095Y-54070533D01*
X156342857Y-53784819D02*
X156961904Y-53784819D01*
X156961904Y-53784819D02*
X156628571Y-54165771D01*
X156628571Y-54165771D02*
X156771428Y-54165771D01*
X156771428Y-54165771D02*
X156866666Y-54213390D01*
X156866666Y-54213390D02*
X156914285Y-54261009D01*
X156914285Y-54261009D02*
X156961904Y-54356247D01*
X156961904Y-54356247D02*
X156961904Y-54594342D01*
X156961904Y-54594342D02*
X156914285Y-54689580D01*
X156914285Y-54689580D02*
X156866666Y-54737200D01*
X156866666Y-54737200D02*
X156771428Y-54784819D01*
X156771428Y-54784819D02*
X156485714Y-54784819D01*
X156485714Y-54784819D02*
X156390476Y-54737200D01*
X156390476Y-54737200D02*
X156342857Y-54689580D01*
X60349673Y-100918796D02*
X59883889Y-101017802D01*
X59883889Y-101017802D02*
X59675977Y-100039654D01*
X60566816Y-100337129D02*
X60892866Y-100267825D01*
X61141507Y-100750487D02*
X60675723Y-100849492D01*
X60675723Y-100849492D02*
X60467811Y-99871345D01*
X60467811Y-99871345D02*
X60933595Y-99772339D01*
X61560713Y-100661382D02*
X61352802Y-99683234D01*
X61352802Y-99683234D02*
X61585694Y-99633731D01*
X61585694Y-99633731D02*
X61735330Y-99650608D01*
X61735330Y-99650608D02*
X61848288Y-99723964D01*
X61848288Y-99723964D02*
X61914667Y-99807220D01*
X61914667Y-99807220D02*
X62000848Y-99983634D01*
X62000848Y-99983634D02*
X62030550Y-100123369D01*
X62030550Y-100123369D02*
X62023574Y-100319583D01*
X62023574Y-100319583D02*
X61996796Y-100422641D01*
X61996796Y-100422641D02*
X61923440Y-100535599D01*
X61923440Y-100535599D02*
X61793606Y-100611879D01*
X61793606Y-100611879D02*
X61560713Y-100661382D01*
X63051224Y-100344564D02*
X62492283Y-100463371D01*
X62771753Y-100403967D02*
X62563842Y-99425820D01*
X62563842Y-99425820D02*
X62500386Y-99585356D01*
X62500386Y-99585356D02*
X62427031Y-99698314D01*
X62427031Y-99698314D02*
X62343774Y-99764694D01*
X63517009Y-100245558D02*
X63703322Y-100205956D01*
X63703322Y-100205956D02*
X63786579Y-100139577D01*
X63786579Y-100139577D02*
X63823257Y-100083098D01*
X63823257Y-100083098D02*
X63886712Y-99923561D01*
X63886712Y-99923561D02*
X63893688Y-99727347D01*
X63893688Y-99727347D02*
X63814484Y-99354719D01*
X63814484Y-99354719D02*
X63748104Y-99271463D01*
X63748104Y-99271463D02*
X63691625Y-99234785D01*
X63691625Y-99234785D02*
X63588568Y-99208007D01*
X63588568Y-99208007D02*
X63402254Y-99247610D01*
X63402254Y-99247610D02*
X63318997Y-99313989D01*
X63318997Y-99313989D02*
X63282320Y-99370468D01*
X63282320Y-99370468D02*
X63255542Y-99473526D01*
X63255542Y-99473526D02*
X63305045Y-99706418D01*
X63305045Y-99706418D02*
X63371425Y-99789674D01*
X63371425Y-99789674D02*
X63427904Y-99826352D01*
X63427904Y-99826352D02*
X63530961Y-99853130D01*
X63530961Y-99853130D02*
X63717275Y-99813527D01*
X63717275Y-99813527D02*
X63800531Y-99747148D01*
X63800531Y-99747148D02*
X63837209Y-99690669D01*
X63837209Y-99690669D02*
X63863987Y-99587611D01*
X177244761Y-58579819D02*
X176768571Y-58579819D01*
X176768571Y-58579819D02*
X176768571Y-57579819D01*
X177578095Y-58056009D02*
X177911428Y-58056009D01*
X178054285Y-58579819D02*
X177578095Y-58579819D01*
X177578095Y-58579819D02*
X177578095Y-57579819D01*
X177578095Y-57579819D02*
X178054285Y-57579819D01*
X178482857Y-58579819D02*
X178482857Y-57579819D01*
X178482857Y-57579819D02*
X178720952Y-57579819D01*
X178720952Y-57579819D02*
X178863809Y-57627438D01*
X178863809Y-57627438D02*
X178959047Y-57722676D01*
X178959047Y-57722676D02*
X179006666Y-57817914D01*
X179006666Y-57817914D02*
X179054285Y-58008390D01*
X179054285Y-58008390D02*
X179054285Y-58151247D01*
X179054285Y-58151247D02*
X179006666Y-58341723D01*
X179006666Y-58341723D02*
X178959047Y-58436961D01*
X178959047Y-58436961D02*
X178863809Y-58532200D01*
X178863809Y-58532200D02*
X178720952Y-58579819D01*
X178720952Y-58579819D02*
X178482857Y-58579819D01*
X180006666Y-58579819D02*
X179435238Y-58579819D01*
X179720952Y-58579819D02*
X179720952Y-57579819D01*
X179720952Y-57579819D02*
X179625714Y-57722676D01*
X179625714Y-57722676D02*
X179530476Y-57817914D01*
X179530476Y-57817914D02*
X179435238Y-57865533D01*
X180387619Y-57675057D02*
X180435238Y-57627438D01*
X180435238Y-57627438D02*
X180530476Y-57579819D01*
X180530476Y-57579819D02*
X180768571Y-57579819D01*
X180768571Y-57579819D02*
X180863809Y-57627438D01*
X180863809Y-57627438D02*
X180911428Y-57675057D01*
X180911428Y-57675057D02*
X180959047Y-57770295D01*
X180959047Y-57770295D02*
X180959047Y-57865533D01*
X180959047Y-57865533D02*
X180911428Y-58008390D01*
X180911428Y-58008390D02*
X180340000Y-58579819D01*
X180340000Y-58579819D02*
X180959047Y-58579819D01*
X152820000Y-40530000D02*
X152820000Y-39530000D01*
X152820000Y-53530000D02*
X152820000Y-52530000D01*
X152820000Y-53530000D02*
X153820000Y-53530000D01*
X153820000Y-39530000D02*
X152820000Y-39530000D01*
X165820000Y-53530000D02*
X166820000Y-53530000D01*
X166820000Y-39530000D02*
X165820000Y-39530000D01*
X166820000Y-39530000D02*
X166820000Y-40530000D01*
X166820000Y-52530000D02*
X166820000Y-53530000D01*
X166820000Y-53530000D02*
X165820000Y-53530000D01*
D11*
X174472936Y-37245000D02*
X174927064Y-37245000D01*
X174472936Y-38715000D02*
X174927064Y-38715000D01*
D10*
X114820000Y-91530000D02*
X114820000Y-90530000D01*
X114820000Y-104530000D02*
X114820000Y-103530000D01*
X114820000Y-104530000D02*
X115820000Y-104530000D01*
X115820000Y-90530000D02*
X114820000Y-90530000D01*
X127820000Y-104530000D02*
X128820000Y-104530000D01*
X128820000Y-90530000D02*
X127820000Y-90530000D01*
X128820000Y-90530000D02*
X128820000Y-91530000D01*
X128820000Y-103530000D02*
X128820000Y-104530000D01*
X128820000Y-104530000D02*
X127820000Y-104530000D01*
X133820000Y-91530000D02*
X133820000Y-90530000D01*
X133820000Y-104530000D02*
X133820000Y-103530000D01*
X133820000Y-104530000D02*
X134820000Y-104530000D01*
X134820000Y-90530000D02*
X133820000Y-90530000D01*
X146820000Y-104530000D02*
X147820000Y-104530000D01*
X147820000Y-90530000D02*
X146820000Y-90530000D01*
X147820000Y-90530000D02*
X147820000Y-91530000D01*
X147820000Y-103530000D02*
X147820000Y-104530000D01*
X147820000Y-104530000D02*
X146820000Y-104530000D01*
X133820000Y-55530000D02*
X133820000Y-54530000D01*
X133820000Y-68530000D02*
X133820000Y-67530000D01*
X133820000Y-68530000D02*
X134820000Y-68530000D01*
X134820000Y-54530000D02*
X133820000Y-54530000D01*
X146820000Y-68530000D02*
X147820000Y-68530000D01*
X147820000Y-54530000D02*
X146820000Y-54530000D01*
X147820000Y-54530000D02*
X147820000Y-55530000D01*
X147820000Y-67530000D02*
X147820000Y-68530000D01*
X147820000Y-68530000D02*
X146820000Y-68530000D01*
D11*
X120155000Y-37565000D02*
X120155000Y-39485000D01*
X120155000Y-39485000D02*
X122840000Y-39485000D01*
X122840000Y-37565000D02*
X120155000Y-37565000D01*
D10*
X152820000Y-58530000D02*
X152820000Y-57530000D01*
X152820000Y-71530000D02*
X152820000Y-70530000D01*
X152820000Y-71530000D02*
X153820000Y-71530000D01*
X153820000Y-57530000D02*
X152820000Y-57530000D01*
X165820000Y-71530000D02*
X166820000Y-71530000D01*
X166820000Y-57530000D02*
X165820000Y-57530000D01*
X166820000Y-57530000D02*
X166820000Y-58530000D01*
X166820000Y-70530000D02*
X166820000Y-71530000D01*
X166820000Y-71530000D02*
X165820000Y-71530000D01*
D11*
X136472936Y-52245000D02*
X136927064Y-52245000D01*
X136472936Y-53715000D02*
X136927064Y-53715000D01*
X120155000Y-73815000D02*
X120155000Y-75735000D01*
X120155000Y-75735000D02*
X122840000Y-75735000D01*
X122840000Y-73815000D02*
X120155000Y-73815000D01*
X98472936Y-55245000D02*
X98927064Y-55245000D01*
X98472936Y-56715000D02*
X98927064Y-56715000D01*
X67377500Y-71950000D02*
X67377500Y-73280000D01*
X66047500Y-71950000D02*
X67377500Y-71950000D01*
X64777500Y-71950000D02*
X54557500Y-71950000D01*
X64777500Y-71950000D02*
X64777500Y-74610000D01*
X54557500Y-71950000D02*
X54557500Y-74610000D01*
X64777500Y-74610000D02*
X54557500Y-74610000D01*
X139155000Y-37815000D02*
X139155000Y-39735000D01*
X139155000Y-39735000D02*
X141840000Y-39735000D01*
X141840000Y-37815000D02*
X139155000Y-37815000D01*
X82435000Y-44065000D02*
X82435000Y-45985000D01*
X82435000Y-45985000D02*
X85120000Y-45985000D01*
X85120000Y-44065000D02*
X82435000Y-44065000D01*
X81959436Y-40073000D02*
X82413564Y-40073000D01*
X81959436Y-41543000D02*
X82413564Y-41543000D01*
X60834357Y-98819448D02*
X60390153Y-98913867D01*
X60528727Y-97381571D02*
X60084523Y-97475990D01*
D10*
X77100000Y-43780000D02*
X77100000Y-42780000D01*
X77100000Y-56780000D02*
X77100000Y-55780000D01*
X77100000Y-56780000D02*
X78100000Y-56780000D01*
X78100000Y-42780000D02*
X77100000Y-42780000D01*
X90100000Y-56780000D02*
X91100000Y-56780000D01*
X91100000Y-42780000D02*
X90100000Y-42780000D01*
X91100000Y-42780000D02*
X91100000Y-43780000D01*
X91100000Y-55780000D02*
X91100000Y-56780000D01*
X91100000Y-56780000D02*
X90100000Y-56780000D01*
D12*
X52322500Y-77330000D02*
X52322500Y-79330000D01*
X52322500Y-89330000D02*
X52322500Y-91330000D01*
X52322500Y-91330000D02*
X67722500Y-91330000D01*
X52922500Y-77330000D02*
X52322500Y-77330000D01*
X67722500Y-77330000D02*
X56822500Y-77330000D01*
D11*
X82435000Y-80065000D02*
X82435000Y-81985000D01*
X82435000Y-81985000D02*
X85120000Y-81985000D01*
X85120000Y-80065000D02*
X82435000Y-80065000D01*
X136472936Y-70245000D02*
X136927064Y-70245000D01*
X136472936Y-71715000D02*
X136927064Y-71715000D01*
X155472936Y-73245000D02*
X155927064Y-73245000D01*
X155472936Y-74715000D02*
X155927064Y-74715000D01*
X175522436Y-55245000D02*
X175976564Y-55245000D01*
X175522436Y-56715000D02*
X175976564Y-56715000D01*
X117472936Y-88245000D02*
X117927064Y-88245000D01*
X117472936Y-89715000D02*
X117927064Y-89715000D01*
X81959436Y-37533000D02*
X82413564Y-37533000D01*
X81959436Y-39003000D02*
X82413564Y-39003000D01*
X139155000Y-91715000D02*
X139155000Y-93635000D01*
X139155000Y-93635000D02*
X141840000Y-93635000D01*
X141840000Y-91715000D02*
X139155000Y-91715000D01*
D10*
X171820000Y-76530000D02*
X171820000Y-75530000D01*
X171820000Y-89530000D02*
X171820000Y-88530000D01*
X171820000Y-89530000D02*
X172820000Y-89530000D01*
X172820000Y-75530000D02*
X171820000Y-75530000D01*
X184820000Y-89530000D02*
X185820000Y-89530000D01*
X185820000Y-75530000D02*
X184820000Y-75530000D01*
X185820000Y-75530000D02*
X185820000Y-76530000D01*
X185820000Y-88530000D02*
X185820000Y-89530000D01*
X185820000Y-89530000D02*
X184820000Y-89530000D01*
D11*
X139155000Y-55815000D02*
X139155000Y-57735000D01*
X139155000Y-57735000D02*
X141840000Y-57735000D01*
X141840000Y-55815000D02*
X139155000Y-55815000D01*
X78264000Y-38212000D02*
X78264000Y-37422000D01*
X77664000Y-36412000D02*
X71964000Y-36412000D01*
X76414000Y-39262000D02*
X74714000Y-39262000D01*
X76214000Y-36412000D02*
X76214000Y-35122000D01*
X76214000Y-35122000D02*
X76014000Y-34912000D01*
X76014000Y-34912000D02*
X75114000Y-34912000D01*
X74914000Y-35122000D02*
X75114000Y-34912000D01*
X74914000Y-35122000D02*
X74914000Y-36412000D01*
X73414000Y-39262000D02*
X73214000Y-39262000D01*
X71364000Y-37422000D02*
X71364000Y-38212000D01*
X174472936Y-73245000D02*
X174927064Y-73245000D01*
X174472936Y-74715000D02*
X174927064Y-74715000D01*
D10*
X114820000Y-55530000D02*
X114820000Y-54530000D01*
X114820000Y-68530000D02*
X114820000Y-67530000D01*
X114820000Y-68530000D02*
X115820000Y-68530000D01*
X115820000Y-54530000D02*
X114820000Y-54530000D01*
X127820000Y-68530000D02*
X128820000Y-68530000D01*
X128820000Y-54530000D02*
X127820000Y-54530000D01*
X128820000Y-54530000D02*
X128820000Y-55530000D01*
X128820000Y-67530000D02*
X128820000Y-68530000D01*
X128820000Y-68530000D02*
X127820000Y-68530000D01*
D11*
X158155000Y-76815000D02*
X158155000Y-78735000D01*
X158155000Y-78735000D02*
X160840000Y-78735000D01*
X160840000Y-76815000D02*
X158155000Y-76815000D01*
X154289064Y-38749000D02*
X153834936Y-38749000D01*
X154289064Y-37279000D02*
X153834936Y-37279000D01*
X82435000Y-98065000D02*
X82435000Y-99985000D01*
X82435000Y-99985000D02*
X85120000Y-99985000D01*
X85120000Y-98065000D02*
X82435000Y-98065000D01*
X98472936Y-37245000D02*
X98927064Y-37245000D01*
X98472936Y-38715000D02*
X98927064Y-38715000D01*
D10*
X95820000Y-76530000D02*
X95820000Y-75530000D01*
X95820000Y-89530000D02*
X95820000Y-88530000D01*
X95820000Y-89530000D02*
X96820000Y-89530000D01*
X96820000Y-75530000D02*
X95820000Y-75530000D01*
X108820000Y-89530000D02*
X109820000Y-89530000D01*
X109820000Y-75530000D02*
X108820000Y-75530000D01*
X109820000Y-75530000D02*
X109820000Y-76530000D01*
X109820000Y-88530000D02*
X109820000Y-89530000D01*
X109820000Y-89530000D02*
X108820000Y-89530000D01*
D11*
X177155000Y-76815000D02*
X177155000Y-78735000D01*
X177155000Y-78735000D02*
X179840000Y-78735000D01*
X179840000Y-76815000D02*
X177155000Y-76815000D01*
D10*
X114820000Y-73530000D02*
X114820000Y-72530000D01*
X114820000Y-86530000D02*
X114820000Y-85530000D01*
X114820000Y-86530000D02*
X115820000Y-86530000D01*
X115820000Y-72530000D02*
X114820000Y-72530000D01*
X127820000Y-86530000D02*
X128820000Y-86530000D01*
X128820000Y-72530000D02*
X127820000Y-72530000D01*
X128820000Y-72530000D02*
X128820000Y-73530000D01*
X128820000Y-85530000D02*
X128820000Y-86530000D01*
X128820000Y-86530000D02*
X127820000Y-86530000D01*
X95820000Y-40530000D02*
X95820000Y-39530000D01*
X95820000Y-53530000D02*
X95820000Y-52530000D01*
X95820000Y-53530000D02*
X96820000Y-53530000D01*
X96820000Y-39530000D02*
X95820000Y-39530000D01*
X108820000Y-53530000D02*
X109820000Y-53530000D01*
X109820000Y-39530000D02*
X108820000Y-39530000D01*
X109820000Y-39530000D02*
X109820000Y-40530000D01*
X109820000Y-52530000D02*
X109820000Y-53530000D01*
X109820000Y-53530000D02*
X108820000Y-53530000D01*
D11*
X101155000Y-58815000D02*
X101155000Y-60735000D01*
X101155000Y-60735000D02*
X103840000Y-60735000D01*
X103840000Y-58815000D02*
X101155000Y-58815000D01*
X158155000Y-40815000D02*
X158155000Y-42735000D01*
X158155000Y-42735000D02*
X160840000Y-42735000D01*
X160840000Y-40815000D02*
X158155000Y-40815000D01*
X117472936Y-52245000D02*
X117927064Y-52245000D01*
X117472936Y-53715000D02*
X117927064Y-53715000D01*
X52017500Y-36240000D02*
X52017500Y-69370000D01*
D13*
X52017500Y-69370000D02*
X54507500Y-69370000D01*
D11*
X54507500Y-38840000D02*
X54507500Y-69370000D01*
X59967500Y-38840000D02*
X54507500Y-38840000D01*
X67427500Y-38840000D02*
X61967500Y-38840000D01*
X67427500Y-69370000D02*
X67427500Y-38840000D01*
D13*
X67427500Y-69370000D02*
X69917500Y-69370000D01*
D11*
X69917500Y-36240000D02*
X52017500Y-36240000D01*
X69917500Y-69370000D02*
X69917500Y-36140000D01*
X101155000Y-95065000D02*
X101155000Y-96985000D01*
X101155000Y-96985000D02*
X103840000Y-96985000D01*
X103840000Y-95065000D02*
X101155000Y-95065000D01*
X79752936Y-76495000D02*
X80207064Y-76495000D01*
X79752936Y-77965000D02*
X80207064Y-77965000D01*
X81542436Y-94985000D02*
X81996564Y-94985000D01*
X81542436Y-96455000D02*
X81996564Y-96455000D01*
D10*
X171820000Y-58530000D02*
X171820000Y-57530000D01*
X171820000Y-71530000D02*
X171820000Y-70530000D01*
X171820000Y-71530000D02*
X172820000Y-71530000D01*
X172820000Y-57530000D02*
X171820000Y-57530000D01*
X184820000Y-71530000D02*
X185820000Y-71530000D01*
X185820000Y-57530000D02*
X184820000Y-57530000D01*
X185820000Y-57530000D02*
X185820000Y-58530000D01*
X185820000Y-70530000D02*
X185820000Y-71530000D01*
X185820000Y-71530000D02*
X184820000Y-71530000D01*
D11*
X163941064Y-38749000D02*
X163486936Y-38749000D01*
X163941064Y-37279000D02*
X163486936Y-37279000D01*
D10*
X171820000Y-40530000D02*
X171820000Y-39530000D01*
X171820000Y-53530000D02*
X171820000Y-52530000D01*
X171820000Y-53530000D02*
X172820000Y-53530000D01*
X172820000Y-39530000D02*
X171820000Y-39530000D01*
X184820000Y-53530000D02*
X185820000Y-53530000D01*
X185820000Y-39530000D02*
X184820000Y-39530000D01*
X185820000Y-39530000D02*
X185820000Y-40530000D01*
X185820000Y-52530000D02*
X185820000Y-53530000D01*
X185820000Y-53530000D02*
X184820000Y-53530000D01*
D11*
X136592936Y-88245000D02*
X137047064Y-88245000D01*
X136592936Y-89715000D02*
X137047064Y-89715000D01*
X158155000Y-58815000D02*
X158155000Y-60735000D01*
X158155000Y-60735000D02*
X160840000Y-60735000D01*
X160840000Y-58815000D02*
X158155000Y-58815000D01*
D10*
X77100000Y-79780000D02*
X77100000Y-78780000D01*
X77100000Y-92780000D02*
X77100000Y-91780000D01*
X77100000Y-92780000D02*
X78100000Y-92780000D01*
X78100000Y-78780000D02*
X77100000Y-78780000D01*
X90100000Y-92780000D02*
X91100000Y-92780000D01*
X91100000Y-78780000D02*
X90100000Y-78780000D01*
X91100000Y-78780000D02*
X91100000Y-79780000D01*
X91100000Y-91780000D02*
X91100000Y-92780000D01*
X91100000Y-92780000D02*
X90100000Y-92780000D01*
X114820000Y-37280000D02*
X114820000Y-36280000D01*
X114820000Y-50280000D02*
X114820000Y-49280000D01*
X114820000Y-50280000D02*
X115820000Y-50280000D01*
X115820000Y-36280000D02*
X114820000Y-36280000D01*
X127820000Y-50280000D02*
X128820000Y-50280000D01*
X128820000Y-36280000D02*
X127820000Y-36280000D01*
X128820000Y-36280000D02*
X128820000Y-37280000D01*
X128820000Y-49280000D02*
X128820000Y-50280000D01*
X128820000Y-50280000D02*
X127820000Y-50280000D01*
D11*
X86576500Y-37978000D02*
X84901500Y-37978000D01*
X86576500Y-37978000D02*
X87226500Y-37978000D01*
X86576500Y-41098000D02*
X85926500Y-41098000D01*
X86576500Y-41098000D02*
X87226500Y-41098000D01*
X98472936Y-91495000D02*
X98927064Y-91495000D01*
X98472936Y-92965000D02*
X98927064Y-92965000D01*
D10*
X55065877Y-101990971D02*
X54857965Y-101012824D01*
X57768729Y-114706890D02*
X57560817Y-113728742D01*
X57768729Y-114706890D02*
X58746876Y-114498978D01*
X55836113Y-100804912D02*
X54857965Y-101012824D01*
X70484647Y-112004038D02*
X71462795Y-111796126D01*
X68552031Y-98102060D02*
X67573884Y-98309972D01*
X68552031Y-98102060D02*
X68759943Y-99080208D01*
X71254883Y-110817979D02*
X71462795Y-111796126D01*
X71462795Y-111796126D02*
X70484647Y-112004038D01*
D11*
X82435000Y-62110000D02*
X82435000Y-64030000D01*
X82435000Y-64030000D02*
X85120000Y-64030000D01*
X85120000Y-62110000D02*
X82435000Y-62110000D01*
X106082936Y-37279000D02*
X106537064Y-37279000D01*
X106082936Y-38749000D02*
X106537064Y-38749000D01*
D10*
X77100000Y-61825000D02*
X77100000Y-60825000D01*
X77100000Y-74825000D02*
X77100000Y-73825000D01*
X77100000Y-74825000D02*
X78100000Y-74825000D01*
X78100000Y-60825000D02*
X77100000Y-60825000D01*
X90100000Y-74825000D02*
X91100000Y-74825000D01*
X91100000Y-60825000D02*
X90100000Y-60825000D01*
X91100000Y-60825000D02*
X91100000Y-61825000D01*
X91100000Y-73825000D02*
X91100000Y-74825000D01*
X91100000Y-74825000D02*
X90100000Y-74825000D01*
D11*
X117472936Y-70245000D02*
X117927064Y-70245000D01*
X117472936Y-71715000D02*
X117927064Y-71715000D01*
D10*
X133820000Y-73530000D02*
X133820000Y-72530000D01*
X133820000Y-86530000D02*
X133820000Y-85530000D01*
X133820000Y-86530000D02*
X134820000Y-86530000D01*
X134820000Y-72530000D02*
X133820000Y-72530000D01*
X146820000Y-86530000D02*
X147820000Y-86530000D01*
X147820000Y-72530000D02*
X146820000Y-72530000D01*
X147820000Y-72530000D02*
X147820000Y-73530000D01*
X147820000Y-85530000D02*
X147820000Y-86530000D01*
X147820000Y-86530000D02*
X146820000Y-86530000D01*
D11*
X74842000Y-41866000D02*
X74842000Y-42926000D01*
X73782000Y-41866000D02*
X74842000Y-41866000D01*
X72782000Y-41866000D02*
X70722000Y-41866000D01*
X72782000Y-41866000D02*
X72782000Y-43986000D01*
X70722000Y-41866000D02*
X70722000Y-43986000D01*
X72782000Y-43986000D02*
X70722000Y-43986000D01*
X120155000Y-55815000D02*
X120155000Y-57735000D01*
X120155000Y-57735000D02*
X122840000Y-57735000D01*
X122840000Y-55815000D02*
X120155000Y-55815000D01*
X98472936Y-73245000D02*
X98927064Y-73245000D01*
X98472936Y-74715000D02*
X98927064Y-74715000D01*
X101155000Y-76815000D02*
X101155000Y-78735000D01*
X101155000Y-78735000D02*
X103840000Y-78735000D01*
X103840000Y-76815000D02*
X101155000Y-76815000D01*
D10*
X95820000Y-58530000D02*
X95820000Y-57530000D01*
X95820000Y-71530000D02*
X95820000Y-70530000D01*
X95820000Y-71530000D02*
X96820000Y-71530000D01*
X96820000Y-57530000D02*
X95820000Y-57530000D01*
X108820000Y-71530000D02*
X109820000Y-71530000D01*
X109820000Y-57530000D02*
X108820000Y-57530000D01*
X109820000Y-57530000D02*
X109820000Y-58530000D01*
X109820000Y-70530000D02*
X109820000Y-71530000D01*
X109820000Y-71530000D02*
X108820000Y-71530000D01*
D11*
X101155000Y-40815000D02*
X101155000Y-42735000D01*
X101155000Y-42735000D02*
X103840000Y-42735000D01*
X103840000Y-40815000D02*
X101155000Y-40815000D01*
D10*
X133820000Y-37530000D02*
X133820000Y-36530000D01*
X133820000Y-50530000D02*
X133820000Y-49530000D01*
X133820000Y-50530000D02*
X134820000Y-50530000D01*
X134820000Y-36530000D02*
X133820000Y-36530000D01*
X146820000Y-50530000D02*
X147820000Y-50530000D01*
X147820000Y-36530000D02*
X146820000Y-36530000D01*
X147820000Y-36530000D02*
X147820000Y-37530000D01*
X147820000Y-49530000D02*
X147820000Y-50530000D01*
X147820000Y-50530000D02*
X146820000Y-50530000D01*
D11*
X139155000Y-73815000D02*
X139155000Y-75735000D01*
X139155000Y-75735000D02*
X141840000Y-75735000D01*
X141840000Y-73815000D02*
X139155000Y-73815000D01*
X120155000Y-91815000D02*
X120155000Y-93735000D01*
X120155000Y-93735000D02*
X122840000Y-93735000D01*
X122840000Y-91815000D02*
X120155000Y-91815000D01*
X79752936Y-58540000D02*
X80207064Y-58540000D01*
X79752936Y-60010000D02*
X80207064Y-60010000D01*
D10*
X95820000Y-94780000D02*
X95820000Y-93780000D01*
X95820000Y-107780000D02*
X95820000Y-106780000D01*
X95820000Y-107780000D02*
X96820000Y-107780000D01*
X96820000Y-93780000D02*
X95820000Y-93780000D01*
X108820000Y-107780000D02*
X109820000Y-107780000D01*
X109820000Y-93780000D02*
X108820000Y-93780000D01*
X109820000Y-93780000D02*
X109820000Y-94780000D01*
X109820000Y-106780000D02*
X109820000Y-107780000D01*
X109820000Y-107780000D02*
X108820000Y-107780000D01*
D11*
X91375564Y-41543000D02*
X90921436Y-41543000D01*
X91375564Y-40073000D02*
X90921436Y-40073000D01*
D10*
X152820000Y-76530000D02*
X152820000Y-75530000D01*
X152820000Y-89530000D02*
X152820000Y-88530000D01*
X152820000Y-89530000D02*
X153820000Y-89530000D01*
X153820000Y-75530000D02*
X152820000Y-75530000D01*
X165820000Y-89530000D02*
X166820000Y-89530000D01*
X166820000Y-75530000D02*
X165820000Y-75530000D01*
X166820000Y-75530000D02*
X166820000Y-76530000D01*
X166820000Y-88530000D02*
X166820000Y-89530000D01*
X166820000Y-89530000D02*
X165820000Y-89530000D01*
X77100000Y-97780000D02*
X77100000Y-96780000D01*
X77100000Y-110780000D02*
X77100000Y-109780000D01*
X77100000Y-110780000D02*
X78100000Y-110780000D01*
X78100000Y-96780000D02*
X77100000Y-96780000D01*
X90100000Y-110780000D02*
X91100000Y-110780000D01*
X91100000Y-96780000D02*
X90100000Y-96780000D01*
X91100000Y-96780000D02*
X91100000Y-97780000D01*
X91100000Y-109780000D02*
X91100000Y-110780000D01*
X91100000Y-110780000D02*
X90100000Y-110780000D01*
D11*
X177155000Y-40815000D02*
X177155000Y-42735000D01*
X177155000Y-42735000D02*
X179840000Y-42735000D01*
X179840000Y-40815000D02*
X177155000Y-40815000D01*
X155472936Y-55245000D02*
X155927064Y-55245000D01*
X155472936Y-56715000D02*
X155927064Y-56715000D01*
X60310770Y-101167502D02*
X60709961Y-103045545D01*
X60709961Y-103045545D02*
X63336287Y-102487302D01*
X62937096Y-100609259D02*
X60310770Y-101167502D01*
X177155000Y-58815000D02*
X177155000Y-60735000D01*
X177155000Y-60735000D02*
X179840000Y-60735000D01*
X179840000Y-58815000D02*
X177155000Y-58815000D01*
%LPC*%
D14*
X154320000Y-46530000D03*
D15*
X154820000Y-50280000D03*
D16*
X159820000Y-46530000D03*
D15*
X159820000Y-52480000D03*
D17*
X165040000Y-42330000D03*
D14*
X165320000Y-46530000D03*
D18*
X173787500Y-37980000D03*
X175612500Y-37980000D03*
D14*
X116320000Y-97530000D03*
D15*
X116820000Y-101280000D03*
D16*
X121820000Y-97530000D03*
D15*
X121820000Y-103480000D03*
D17*
X127040000Y-93330000D03*
D14*
X127320000Y-97530000D03*
X135320000Y-97530000D03*
D15*
X135820000Y-101280000D03*
D16*
X140820000Y-97530000D03*
D15*
X140820000Y-103480000D03*
D17*
X146040000Y-93330000D03*
D14*
X146320000Y-97530000D03*
D19*
X153095500Y-95672000D03*
D14*
X135320000Y-61530000D03*
D15*
X135820000Y-65280000D03*
D16*
X140820000Y-61530000D03*
D15*
X140820000Y-67480000D03*
D17*
X146040000Y-57330000D03*
D14*
X146320000Y-61530000D03*
D20*
X120902500Y-38525000D03*
X122777500Y-38525000D03*
D14*
X154320000Y-64530000D03*
D15*
X154820000Y-68280000D03*
D16*
X159820000Y-64530000D03*
D15*
X159820000Y-70480000D03*
D17*
X165040000Y-60330000D03*
D14*
X165320000Y-64530000D03*
D18*
X135787500Y-52980000D03*
X137612500Y-52980000D03*
D20*
X120902500Y-74775000D03*
X122777500Y-74775000D03*
D18*
X97787500Y-55980000D03*
X99612500Y-55980000D03*
D21*
X66047500Y-73280000D03*
D22*
X63507500Y-73280000D03*
X60967500Y-73280000D03*
X58427500Y-73280000D03*
X55887500Y-73280000D03*
D20*
X139902500Y-38775000D03*
X141777500Y-38775000D03*
X83182500Y-45025000D03*
X85057500Y-45025000D03*
D18*
X81274000Y-40808000D03*
X83099000Y-40808000D03*
D23*
X61352000Y-97958000D03*
X59566880Y-98337438D03*
D14*
X78600000Y-49780000D03*
D15*
X79100000Y-53530000D03*
D16*
X84100000Y-49780000D03*
D15*
X84100000Y-55730000D03*
D17*
X89320000Y-45580000D03*
D14*
X89600000Y-49780000D03*
D24*
X55197500Y-90130000D03*
D25*
X55197500Y-80020000D03*
X55197500Y-82560000D03*
X55197500Y-85100000D03*
X55197500Y-87640000D03*
X53972500Y-77630000D03*
X55822500Y-77630000D03*
D20*
X83182500Y-81025000D03*
X85057500Y-81025000D03*
D18*
X135787500Y-70980000D03*
X137612500Y-70980000D03*
X154787500Y-73980000D03*
X156612500Y-73980000D03*
X174837000Y-55980000D03*
X176662000Y-55980000D03*
X116787500Y-88980000D03*
X118612500Y-88980000D03*
X81274000Y-38268000D03*
X83099000Y-38268000D03*
D20*
X139902500Y-92675000D03*
X141777500Y-92675000D03*
D14*
X173320000Y-82530000D03*
D15*
X173820000Y-86280000D03*
D16*
X178820000Y-82530000D03*
D15*
X178820000Y-88480000D03*
D17*
X184040000Y-78330000D03*
D14*
X184320000Y-82530000D03*
D20*
X139902500Y-56775000D03*
X141777500Y-56775000D03*
D26*
X78464000Y-38922000D03*
X78464000Y-36712000D03*
D27*
X76314000Y-37812000D03*
X73314000Y-37812000D03*
D26*
X71164000Y-38922000D03*
X71164000Y-36712000D03*
D28*
X77064000Y-39572000D03*
X74064000Y-39572000D03*
X72564000Y-39572000D03*
D18*
X173787500Y-73980000D03*
X175612500Y-73980000D03*
D14*
X116320000Y-61530000D03*
D15*
X116820000Y-65280000D03*
D16*
X121820000Y-61530000D03*
D15*
X121820000Y-67480000D03*
D17*
X127040000Y-57330000D03*
D14*
X127320000Y-61530000D03*
D20*
X158902500Y-77775000D03*
X160777500Y-77775000D03*
D29*
X154974500Y-38014000D03*
X153149500Y-38014000D03*
D19*
X74560000Y-94910000D03*
D20*
X83182500Y-99025000D03*
X85057500Y-99025000D03*
D18*
X97787500Y-37980000D03*
X99612500Y-37980000D03*
D14*
X97320000Y-82530000D03*
D15*
X97820000Y-86280000D03*
D16*
X102820000Y-82530000D03*
D15*
X102820000Y-88480000D03*
D17*
X108040000Y-78330000D03*
D14*
X108320000Y-82530000D03*
D20*
X177902500Y-77775000D03*
X179777500Y-77775000D03*
D14*
X116320000Y-79530000D03*
D15*
X116820000Y-83280000D03*
D16*
X121820000Y-79530000D03*
D15*
X121820000Y-85480000D03*
D17*
X127040000Y-75330000D03*
D14*
X127320000Y-79530000D03*
D19*
X93102000Y-58842000D03*
D14*
X97320000Y-46530000D03*
D15*
X97820000Y-50280000D03*
D16*
X102820000Y-46530000D03*
D15*
X102820000Y-52480000D03*
D17*
X108040000Y-42330000D03*
D14*
X108320000Y-46530000D03*
D20*
X101902500Y-59775000D03*
X103777500Y-59775000D03*
X158902500Y-41775000D03*
X160777500Y-41775000D03*
D18*
X116787500Y-52980000D03*
X118612500Y-52980000D03*
D19*
X169302000Y-55286000D03*
D30*
X53347500Y-40170000D03*
D31*
X53347500Y-42710000D03*
X53347500Y-45250000D03*
X53347500Y-47790000D03*
X53347500Y-50330000D03*
X53347500Y-52870000D03*
X53347500Y-55410000D03*
X53347500Y-57950000D03*
X53347500Y-60490000D03*
X53347500Y-63030000D03*
X53347500Y-65570000D03*
X53347500Y-68110000D03*
X68587500Y-68110000D03*
X68587500Y-65570000D03*
X68587500Y-63030000D03*
X68587500Y-60490000D03*
X68587500Y-57950000D03*
X68587500Y-55410000D03*
X68587500Y-52870000D03*
X68587500Y-50330000D03*
X68587500Y-47790000D03*
X68587500Y-45250000D03*
X68587500Y-42710000D03*
X68587500Y-40170000D03*
D20*
X101902500Y-96025000D03*
X103777500Y-96025000D03*
D18*
X79067500Y-77230000D03*
X80892500Y-77230000D03*
X80857000Y-95720000D03*
X82682000Y-95720000D03*
D14*
X173320000Y-64530000D03*
D15*
X173820000Y-68280000D03*
D16*
X178820000Y-64530000D03*
D15*
X178820000Y-70480000D03*
D17*
X184040000Y-60330000D03*
D14*
X184320000Y-64530000D03*
D29*
X164626500Y-38014000D03*
X162801500Y-38014000D03*
D14*
X173320000Y-46530000D03*
D15*
X173820000Y-50280000D03*
D16*
X178820000Y-46530000D03*
D15*
X178820000Y-52480000D03*
D17*
X184040000Y-42330000D03*
D14*
X184320000Y-46530000D03*
D18*
X135907500Y-88980000D03*
X137732500Y-88980000D03*
D19*
X130962000Y-70526000D03*
D20*
X158902500Y-59775000D03*
X160777500Y-59775000D03*
D14*
X78600000Y-85780000D03*
D15*
X79100000Y-89530000D03*
D16*
X84100000Y-85780000D03*
D15*
X84100000Y-91730000D03*
D17*
X89320000Y-81580000D03*
D14*
X89600000Y-85780000D03*
X116320000Y-43280000D03*
D15*
X116820000Y-47030000D03*
D16*
X121820000Y-43280000D03*
D15*
X121820000Y-49230000D03*
D17*
X127040000Y-39080000D03*
D14*
X127320000Y-43280000D03*
D32*
X85639000Y-38588000D03*
X85639000Y-40488000D03*
X87514000Y-39538000D03*
D18*
X97787500Y-92230000D03*
X99612500Y-92230000D03*
D14*
X57780568Y-107547989D03*
D15*
X59049311Y-111112087D03*
D16*
X63160380Y-106404475D03*
D15*
X64397455Y-112224453D03*
D17*
X67393081Y-101210956D03*
D14*
X68540192Y-105260961D03*
D20*
X83182500Y-63070000D03*
X85057500Y-63070000D03*
D18*
X105397500Y-38014000D03*
X107222500Y-38014000D03*
D14*
X78600000Y-67825000D03*
D15*
X79100000Y-71575000D03*
D16*
X84100000Y-67825000D03*
D15*
X84100000Y-73775000D03*
D17*
X89320000Y-63625000D03*
D14*
X89600000Y-67825000D03*
D18*
X116787500Y-70980000D03*
X118612500Y-70980000D03*
D14*
X135320000Y-79530000D03*
D15*
X135820000Y-83280000D03*
D16*
X140820000Y-79530000D03*
D15*
X140820000Y-85480000D03*
D17*
X146040000Y-75330000D03*
D14*
X146320000Y-79530000D03*
D33*
X73782000Y-42926000D03*
D34*
X71782000Y-42926000D03*
D20*
X120902500Y-56775000D03*
X122777500Y-56775000D03*
D18*
X97787500Y-73980000D03*
X99612500Y-73980000D03*
D20*
X101902500Y-77775000D03*
X103777500Y-77775000D03*
D14*
X97320000Y-64530000D03*
D15*
X97820000Y-68280000D03*
D16*
X102820000Y-64530000D03*
D15*
X102820000Y-70480000D03*
D17*
X108040000Y-60330000D03*
D14*
X108320000Y-64530000D03*
D20*
X101902500Y-41775000D03*
X103777500Y-41775000D03*
D14*
X135320000Y-43530000D03*
D15*
X135820000Y-47280000D03*
D16*
X140820000Y-43530000D03*
D15*
X140820000Y-49480000D03*
D17*
X146040000Y-39330000D03*
D14*
X146320000Y-43530000D03*
D20*
X139902500Y-74775000D03*
X141777500Y-74775000D03*
X120902500Y-92775000D03*
X122777500Y-92775000D03*
D18*
X79067500Y-59275000D03*
X80892500Y-59275000D03*
D14*
X97320000Y-100780000D03*
D15*
X97820000Y-104530000D03*
D16*
X102820000Y-100780000D03*
D15*
X102820000Y-106730000D03*
D17*
X108040000Y-96580000D03*
D14*
X108320000Y-100780000D03*
D29*
X92061000Y-40808000D03*
X90236000Y-40808000D03*
D14*
X154320000Y-82530000D03*
D15*
X154820000Y-86280000D03*
D16*
X159820000Y-82530000D03*
D15*
X159820000Y-88480000D03*
D17*
X165040000Y-78330000D03*
D14*
X165320000Y-82530000D03*
X78600000Y-103780000D03*
D15*
X79100000Y-107530000D03*
D16*
X84100000Y-103780000D03*
D15*
X84100000Y-109730000D03*
D17*
X89320000Y-99580000D03*
D14*
X89600000Y-103780000D03*
D20*
X177902500Y-41775000D03*
X179777500Y-41775000D03*
D18*
X154787500Y-55980000D03*
X156612500Y-55980000D03*
D35*
X61241531Y-101951109D03*
X63075557Y-101561275D03*
D20*
X177902500Y-59775000D03*
X179777500Y-59775000D03*
%LPD*%
M02*
