%TF.GenerationSoftware,KiCad,Pcbnew,7.0.5-0*%
%TF.CreationDate,2023-08-04T20:21:57+09:30*%
%TF.ProjectId,Rolio,436f726e-6552-46f6-9c69-6f2e6b696361,rev?*%
%TF.SameCoordinates,Original*%
%TF.FileFunction,Legend,Bot*%
%TF.FilePolarity,Positive*%
%FSLAX46Y46*%
G04 Gerber Fmt 4.6, Leading zero omitted, Abs format (unit mm)*
G04 Created by KiCad (PCBNEW 7.0.5-0) date 2023-08-04 20:21:57*
%MOMM*%
%LPD*%
G01*
G04 APERTURE LIST*
G04 Aperture macros list*
%AMRoundRect*
0 Rectangle with rounded corners*
0 $1 Rounding radius*
0 $2 $3 $4 $5 $6 $7 $8 $9 X,Y pos of 4 corners*
0 Add a 4 corners polygon primitive as box body*
4,1,4,$2,$3,$4,$5,$6,$7,$8,$9,$2,$3,0*
0 Add four circle primitives for the rounded corners*
1,1,$1+$1,$2,$3*
1,1,$1+$1,$4,$5*
1,1,$1+$1,$6,$7*
1,1,$1+$1,$8,$9*
0 Add four rect primitives between the rounded corners*
20,1,$1+$1,$2,$3,$4,$5,0*
20,1,$1+$1,$4,$5,$6,$7,0*
20,1,$1+$1,$6,$7,$8,$9,0*
20,1,$1+$1,$8,$9,$2,$3,0*%
%AMRotRect*
0 Rectangle, with rotation*
0 The origin of the aperture is its center*
0 $1 length*
0 $2 width*
0 $3 Rotation angle, in degrees counterclockwise*
0 Add horizontal line*
21,1,$1,$2,0,0,$3*%
G04 Aperture macros list end*
%ADD10C,0.150000*%
%ADD11C,0.120000*%
%ADD12C,1.701800*%
%ADD13C,3.000000*%
%ADD14C,3.429000*%
%ADD15C,0.990600*%
%ADD16R,2.600000X2.600000*%
%ADD17C,4.300000*%
%ADD18R,1.700000X1.700000*%
%ADD19O,1.700000X1.700000*%
%ADD20C,1.500000*%
%ADD21C,1.600000*%
%ADD22C,0.900000*%
%ADD23R,1.600000X1.600000*%
%ADD24O,1.600000X1.600000*%
%ADD25RotRect,2.600000X2.600000X12.000000*%
%ADD26R,1.350000X1.350000*%
%ADD27O,1.350000X1.350000*%
%ADD28RoundRect,0.225000X-0.375000X0.225000X-0.375000X-0.225000X0.375000X-0.225000X0.375000X0.225000X0*%
%ADD29RoundRect,0.225000X-0.413585X0.142116X-0.320025X-0.298050X0.413585X-0.142116X0.320025X0.298050X0*%
%ADD30R,1.250000X1.000000*%
%ADD31RoundRect,0.225000X-0.225000X-0.375000X0.225000X-0.375000X0.225000X0.375000X-0.225000X0.375000X0*%
G04 APERTURE END LIST*
D10*
X157034285Y-44937200D02*
X156891428Y-44984819D01*
X156891428Y-44984819D02*
X156653333Y-44984819D01*
X156653333Y-44984819D02*
X156558095Y-44937200D01*
X156558095Y-44937200D02*
X156510476Y-44889580D01*
X156510476Y-44889580D02*
X156462857Y-44794342D01*
X156462857Y-44794342D02*
X156462857Y-44699104D01*
X156462857Y-44699104D02*
X156510476Y-44603866D01*
X156510476Y-44603866D02*
X156558095Y-44556247D01*
X156558095Y-44556247D02*
X156653333Y-44508628D01*
X156653333Y-44508628D02*
X156843809Y-44461009D01*
X156843809Y-44461009D02*
X156939047Y-44413390D01*
X156939047Y-44413390D02*
X156986666Y-44365771D01*
X156986666Y-44365771D02*
X157034285Y-44270533D01*
X157034285Y-44270533D02*
X157034285Y-44175295D01*
X157034285Y-44175295D02*
X156986666Y-44080057D01*
X156986666Y-44080057D02*
X156939047Y-44032438D01*
X156939047Y-44032438D02*
X156843809Y-43984819D01*
X156843809Y-43984819D02*
X156605714Y-43984819D01*
X156605714Y-43984819D02*
X156462857Y-44032438D01*
X156129523Y-43984819D02*
X155891428Y-44984819D01*
X155891428Y-44984819D02*
X155700952Y-44270533D01*
X155700952Y-44270533D02*
X155510476Y-44984819D01*
X155510476Y-44984819D02*
X155272381Y-43984819D01*
X155129524Y-45080057D02*
X154367619Y-45080057D01*
X153796190Y-44461009D02*
X153653333Y-44508628D01*
X153653333Y-44508628D02*
X153605714Y-44556247D01*
X153605714Y-44556247D02*
X153558095Y-44651485D01*
X153558095Y-44651485D02*
X153558095Y-44794342D01*
X153558095Y-44794342D02*
X153605714Y-44889580D01*
X153605714Y-44889580D02*
X153653333Y-44937200D01*
X153653333Y-44937200D02*
X153748571Y-44984819D01*
X153748571Y-44984819D02*
X154129523Y-44984819D01*
X154129523Y-44984819D02*
X154129523Y-43984819D01*
X154129523Y-43984819D02*
X153796190Y-43984819D01*
X153796190Y-43984819D02*
X153700952Y-44032438D01*
X153700952Y-44032438D02*
X153653333Y-44080057D01*
X153653333Y-44080057D02*
X153605714Y-44175295D01*
X153605714Y-44175295D02*
X153605714Y-44270533D01*
X153605714Y-44270533D02*
X153653333Y-44365771D01*
X153653333Y-44365771D02*
X153700952Y-44413390D01*
X153700952Y-44413390D02*
X153796190Y-44461009D01*
X153796190Y-44461009D02*
X154129523Y-44461009D01*
X152939047Y-43984819D02*
X152843809Y-43984819D01*
X152843809Y-43984819D02*
X152748571Y-44032438D01*
X152748571Y-44032438D02*
X152700952Y-44080057D01*
X152700952Y-44080057D02*
X152653333Y-44175295D01*
X152653333Y-44175295D02*
X152605714Y-44365771D01*
X152605714Y-44365771D02*
X152605714Y-44603866D01*
X152605714Y-44603866D02*
X152653333Y-44794342D01*
X152653333Y-44794342D02*
X152700952Y-44889580D01*
X152700952Y-44889580D02*
X152748571Y-44937200D01*
X152748571Y-44937200D02*
X152843809Y-44984819D01*
X152843809Y-44984819D02*
X152939047Y-44984819D01*
X152939047Y-44984819D02*
X153034285Y-44937200D01*
X153034285Y-44937200D02*
X153081904Y-44889580D01*
X153081904Y-44889580D02*
X153129523Y-44794342D01*
X153129523Y-44794342D02*
X153177142Y-44603866D01*
X153177142Y-44603866D02*
X153177142Y-44365771D01*
X153177142Y-44365771D02*
X153129523Y-44175295D01*
X153129523Y-44175295D02*
X153081904Y-44080057D01*
X153081904Y-44080057D02*
X153034285Y-44032438D01*
X153034285Y-44032438D02*
X152939047Y-43984819D01*
X119034285Y-95937200D02*
X118891428Y-95984819D01*
X118891428Y-95984819D02*
X118653333Y-95984819D01*
X118653333Y-95984819D02*
X118558095Y-95937200D01*
X118558095Y-95937200D02*
X118510476Y-95889580D01*
X118510476Y-95889580D02*
X118462857Y-95794342D01*
X118462857Y-95794342D02*
X118462857Y-95699104D01*
X118462857Y-95699104D02*
X118510476Y-95603866D01*
X118510476Y-95603866D02*
X118558095Y-95556247D01*
X118558095Y-95556247D02*
X118653333Y-95508628D01*
X118653333Y-95508628D02*
X118843809Y-95461009D01*
X118843809Y-95461009D02*
X118939047Y-95413390D01*
X118939047Y-95413390D02*
X118986666Y-95365771D01*
X118986666Y-95365771D02*
X119034285Y-95270533D01*
X119034285Y-95270533D02*
X119034285Y-95175295D01*
X119034285Y-95175295D02*
X118986666Y-95080057D01*
X118986666Y-95080057D02*
X118939047Y-95032438D01*
X118939047Y-95032438D02*
X118843809Y-94984819D01*
X118843809Y-94984819D02*
X118605714Y-94984819D01*
X118605714Y-94984819D02*
X118462857Y-95032438D01*
X118129523Y-94984819D02*
X117891428Y-95984819D01*
X117891428Y-95984819D02*
X117700952Y-95270533D01*
X117700952Y-95270533D02*
X117510476Y-95984819D01*
X117510476Y-95984819D02*
X117272381Y-94984819D01*
X117129524Y-96080057D02*
X116367619Y-96080057D01*
X115796190Y-95461009D02*
X115653333Y-95508628D01*
X115653333Y-95508628D02*
X115605714Y-95556247D01*
X115605714Y-95556247D02*
X115558095Y-95651485D01*
X115558095Y-95651485D02*
X115558095Y-95794342D01*
X115558095Y-95794342D02*
X115605714Y-95889580D01*
X115605714Y-95889580D02*
X115653333Y-95937200D01*
X115653333Y-95937200D02*
X115748571Y-95984819D01*
X115748571Y-95984819D02*
X116129523Y-95984819D01*
X116129523Y-95984819D02*
X116129523Y-94984819D01*
X116129523Y-94984819D02*
X115796190Y-94984819D01*
X115796190Y-94984819D02*
X115700952Y-95032438D01*
X115700952Y-95032438D02*
X115653333Y-95080057D01*
X115653333Y-95080057D02*
X115605714Y-95175295D01*
X115605714Y-95175295D02*
X115605714Y-95270533D01*
X115605714Y-95270533D02*
X115653333Y-95365771D01*
X115653333Y-95365771D02*
X115700952Y-95413390D01*
X115700952Y-95413390D02*
X115796190Y-95461009D01*
X115796190Y-95461009D02*
X116129523Y-95461009D01*
X115224761Y-94984819D02*
X114605714Y-94984819D01*
X114605714Y-94984819D02*
X114939047Y-95365771D01*
X114939047Y-95365771D02*
X114796190Y-95365771D01*
X114796190Y-95365771D02*
X114700952Y-95413390D01*
X114700952Y-95413390D02*
X114653333Y-95461009D01*
X114653333Y-95461009D02*
X114605714Y-95556247D01*
X114605714Y-95556247D02*
X114605714Y-95794342D01*
X114605714Y-95794342D02*
X114653333Y-95889580D01*
X114653333Y-95889580D02*
X114700952Y-95937200D01*
X114700952Y-95937200D02*
X114796190Y-95984819D01*
X114796190Y-95984819D02*
X115081904Y-95984819D01*
X115081904Y-95984819D02*
X115177142Y-95937200D01*
X115177142Y-95937200D02*
X115224761Y-95889580D01*
X138034285Y-95937200D02*
X137891428Y-95984819D01*
X137891428Y-95984819D02*
X137653333Y-95984819D01*
X137653333Y-95984819D02*
X137558095Y-95937200D01*
X137558095Y-95937200D02*
X137510476Y-95889580D01*
X137510476Y-95889580D02*
X137462857Y-95794342D01*
X137462857Y-95794342D02*
X137462857Y-95699104D01*
X137462857Y-95699104D02*
X137510476Y-95603866D01*
X137510476Y-95603866D02*
X137558095Y-95556247D01*
X137558095Y-95556247D02*
X137653333Y-95508628D01*
X137653333Y-95508628D02*
X137843809Y-95461009D01*
X137843809Y-95461009D02*
X137939047Y-95413390D01*
X137939047Y-95413390D02*
X137986666Y-95365771D01*
X137986666Y-95365771D02*
X138034285Y-95270533D01*
X138034285Y-95270533D02*
X138034285Y-95175295D01*
X138034285Y-95175295D02*
X137986666Y-95080057D01*
X137986666Y-95080057D02*
X137939047Y-95032438D01*
X137939047Y-95032438D02*
X137843809Y-94984819D01*
X137843809Y-94984819D02*
X137605714Y-94984819D01*
X137605714Y-94984819D02*
X137462857Y-95032438D01*
X137129523Y-94984819D02*
X136891428Y-95984819D01*
X136891428Y-95984819D02*
X136700952Y-95270533D01*
X136700952Y-95270533D02*
X136510476Y-95984819D01*
X136510476Y-95984819D02*
X136272381Y-94984819D01*
X136129524Y-96080057D02*
X135367619Y-96080057D01*
X134796190Y-95461009D02*
X134653333Y-95508628D01*
X134653333Y-95508628D02*
X134605714Y-95556247D01*
X134605714Y-95556247D02*
X134558095Y-95651485D01*
X134558095Y-95651485D02*
X134558095Y-95794342D01*
X134558095Y-95794342D02*
X134605714Y-95889580D01*
X134605714Y-95889580D02*
X134653333Y-95937200D01*
X134653333Y-95937200D02*
X134748571Y-95984819D01*
X134748571Y-95984819D02*
X135129523Y-95984819D01*
X135129523Y-95984819D02*
X135129523Y-94984819D01*
X135129523Y-94984819D02*
X134796190Y-94984819D01*
X134796190Y-94984819D02*
X134700952Y-95032438D01*
X134700952Y-95032438D02*
X134653333Y-95080057D01*
X134653333Y-95080057D02*
X134605714Y-95175295D01*
X134605714Y-95175295D02*
X134605714Y-95270533D01*
X134605714Y-95270533D02*
X134653333Y-95365771D01*
X134653333Y-95365771D02*
X134700952Y-95413390D01*
X134700952Y-95413390D02*
X134796190Y-95461009D01*
X134796190Y-95461009D02*
X135129523Y-95461009D01*
X133700952Y-95318152D02*
X133700952Y-95984819D01*
X133939047Y-94937200D02*
X134177142Y-95651485D01*
X134177142Y-95651485D02*
X133558095Y-95651485D01*
X138034285Y-59937200D02*
X137891428Y-59984819D01*
X137891428Y-59984819D02*
X137653333Y-59984819D01*
X137653333Y-59984819D02*
X137558095Y-59937200D01*
X137558095Y-59937200D02*
X137510476Y-59889580D01*
X137510476Y-59889580D02*
X137462857Y-59794342D01*
X137462857Y-59794342D02*
X137462857Y-59699104D01*
X137462857Y-59699104D02*
X137510476Y-59603866D01*
X137510476Y-59603866D02*
X137558095Y-59556247D01*
X137558095Y-59556247D02*
X137653333Y-59508628D01*
X137653333Y-59508628D02*
X137843809Y-59461009D01*
X137843809Y-59461009D02*
X137939047Y-59413390D01*
X137939047Y-59413390D02*
X137986666Y-59365771D01*
X137986666Y-59365771D02*
X138034285Y-59270533D01*
X138034285Y-59270533D02*
X138034285Y-59175295D01*
X138034285Y-59175295D02*
X137986666Y-59080057D01*
X137986666Y-59080057D02*
X137939047Y-59032438D01*
X137939047Y-59032438D02*
X137843809Y-58984819D01*
X137843809Y-58984819D02*
X137605714Y-58984819D01*
X137605714Y-58984819D02*
X137462857Y-59032438D01*
X137129523Y-58984819D02*
X136891428Y-59984819D01*
X136891428Y-59984819D02*
X136700952Y-59270533D01*
X136700952Y-59270533D02*
X136510476Y-59984819D01*
X136510476Y-59984819D02*
X136272381Y-58984819D01*
X136129524Y-60080057D02*
X135367619Y-60080057D01*
X134558095Y-59889580D02*
X134605714Y-59937200D01*
X134605714Y-59937200D02*
X134748571Y-59984819D01*
X134748571Y-59984819D02*
X134843809Y-59984819D01*
X134843809Y-59984819D02*
X134986666Y-59937200D01*
X134986666Y-59937200D02*
X135081904Y-59841961D01*
X135081904Y-59841961D02*
X135129523Y-59746723D01*
X135129523Y-59746723D02*
X135177142Y-59556247D01*
X135177142Y-59556247D02*
X135177142Y-59413390D01*
X135177142Y-59413390D02*
X135129523Y-59222914D01*
X135129523Y-59222914D02*
X135081904Y-59127676D01*
X135081904Y-59127676D02*
X134986666Y-59032438D01*
X134986666Y-59032438D02*
X134843809Y-58984819D01*
X134843809Y-58984819D02*
X134748571Y-58984819D01*
X134748571Y-58984819D02*
X134605714Y-59032438D01*
X134605714Y-59032438D02*
X134558095Y-59080057D01*
X133605714Y-59984819D02*
X134177142Y-59984819D01*
X133891428Y-59984819D02*
X133891428Y-58984819D01*
X133891428Y-58984819D02*
X133986666Y-59127676D01*
X133986666Y-59127676D02*
X134081904Y-59222914D01*
X134081904Y-59222914D02*
X134177142Y-59270533D01*
X157034285Y-62937200D02*
X156891428Y-62984819D01*
X156891428Y-62984819D02*
X156653333Y-62984819D01*
X156653333Y-62984819D02*
X156558095Y-62937200D01*
X156558095Y-62937200D02*
X156510476Y-62889580D01*
X156510476Y-62889580D02*
X156462857Y-62794342D01*
X156462857Y-62794342D02*
X156462857Y-62699104D01*
X156462857Y-62699104D02*
X156510476Y-62603866D01*
X156510476Y-62603866D02*
X156558095Y-62556247D01*
X156558095Y-62556247D02*
X156653333Y-62508628D01*
X156653333Y-62508628D02*
X156843809Y-62461009D01*
X156843809Y-62461009D02*
X156939047Y-62413390D01*
X156939047Y-62413390D02*
X156986666Y-62365771D01*
X156986666Y-62365771D02*
X157034285Y-62270533D01*
X157034285Y-62270533D02*
X157034285Y-62175295D01*
X157034285Y-62175295D02*
X156986666Y-62080057D01*
X156986666Y-62080057D02*
X156939047Y-62032438D01*
X156939047Y-62032438D02*
X156843809Y-61984819D01*
X156843809Y-61984819D02*
X156605714Y-61984819D01*
X156605714Y-61984819D02*
X156462857Y-62032438D01*
X156129523Y-61984819D02*
X155891428Y-62984819D01*
X155891428Y-62984819D02*
X155700952Y-62270533D01*
X155700952Y-62270533D02*
X155510476Y-62984819D01*
X155510476Y-62984819D02*
X155272381Y-61984819D01*
X155129524Y-63080057D02*
X154367619Y-63080057D01*
X153796190Y-62461009D02*
X153653333Y-62508628D01*
X153653333Y-62508628D02*
X153605714Y-62556247D01*
X153605714Y-62556247D02*
X153558095Y-62651485D01*
X153558095Y-62651485D02*
X153558095Y-62794342D01*
X153558095Y-62794342D02*
X153605714Y-62889580D01*
X153605714Y-62889580D02*
X153653333Y-62937200D01*
X153653333Y-62937200D02*
X153748571Y-62984819D01*
X153748571Y-62984819D02*
X154129523Y-62984819D01*
X154129523Y-62984819D02*
X154129523Y-61984819D01*
X154129523Y-61984819D02*
X153796190Y-61984819D01*
X153796190Y-61984819D02*
X153700952Y-62032438D01*
X153700952Y-62032438D02*
X153653333Y-62080057D01*
X153653333Y-62080057D02*
X153605714Y-62175295D01*
X153605714Y-62175295D02*
X153605714Y-62270533D01*
X153605714Y-62270533D02*
X153653333Y-62365771D01*
X153653333Y-62365771D02*
X153700952Y-62413390D01*
X153700952Y-62413390D02*
X153796190Y-62461009D01*
X153796190Y-62461009D02*
X154129523Y-62461009D01*
X152605714Y-62984819D02*
X153177142Y-62984819D01*
X152891428Y-62984819D02*
X152891428Y-61984819D01*
X152891428Y-61984819D02*
X152986666Y-62127676D01*
X152986666Y-62127676D02*
X153081904Y-62222914D01*
X153081904Y-62222914D02*
X153177142Y-62270533D01*
X81242856Y-48187200D02*
X81099999Y-48234819D01*
X81099999Y-48234819D02*
X80861904Y-48234819D01*
X80861904Y-48234819D02*
X80766666Y-48187200D01*
X80766666Y-48187200D02*
X80719047Y-48139580D01*
X80719047Y-48139580D02*
X80671428Y-48044342D01*
X80671428Y-48044342D02*
X80671428Y-47949104D01*
X80671428Y-47949104D02*
X80719047Y-47853866D01*
X80719047Y-47853866D02*
X80766666Y-47806247D01*
X80766666Y-47806247D02*
X80861904Y-47758628D01*
X80861904Y-47758628D02*
X81052380Y-47711009D01*
X81052380Y-47711009D02*
X81147618Y-47663390D01*
X81147618Y-47663390D02*
X81195237Y-47615771D01*
X81195237Y-47615771D02*
X81242856Y-47520533D01*
X81242856Y-47520533D02*
X81242856Y-47425295D01*
X81242856Y-47425295D02*
X81195237Y-47330057D01*
X81195237Y-47330057D02*
X81147618Y-47282438D01*
X81147618Y-47282438D02*
X81052380Y-47234819D01*
X81052380Y-47234819D02*
X80814285Y-47234819D01*
X80814285Y-47234819D02*
X80671428Y-47282438D01*
X80338094Y-47234819D02*
X80099999Y-48234819D01*
X80099999Y-48234819D02*
X79909523Y-47520533D01*
X79909523Y-47520533D02*
X79719047Y-48234819D01*
X79719047Y-48234819D02*
X79480952Y-47234819D01*
X79338095Y-48330057D02*
X78576190Y-48330057D01*
X78004761Y-47711009D02*
X78338094Y-47711009D01*
X78338094Y-48234819D02*
X78338094Y-47234819D01*
X78338094Y-47234819D02*
X77861904Y-47234819D01*
X77290475Y-47234819D02*
X77195237Y-47234819D01*
X77195237Y-47234819D02*
X77099999Y-47282438D01*
X77099999Y-47282438D02*
X77052380Y-47330057D01*
X77052380Y-47330057D02*
X77004761Y-47425295D01*
X77004761Y-47425295D02*
X76957142Y-47615771D01*
X76957142Y-47615771D02*
X76957142Y-47853866D01*
X76957142Y-47853866D02*
X77004761Y-48044342D01*
X77004761Y-48044342D02*
X77052380Y-48139580D01*
X77052380Y-48139580D02*
X77099999Y-48187200D01*
X77099999Y-48187200D02*
X77195237Y-48234819D01*
X77195237Y-48234819D02*
X77290475Y-48234819D01*
X77290475Y-48234819D02*
X77385713Y-48187200D01*
X77385713Y-48187200D02*
X77433332Y-48139580D01*
X77433332Y-48139580D02*
X77480951Y-48044342D01*
X77480951Y-48044342D02*
X77528570Y-47853866D01*
X77528570Y-47853866D02*
X77528570Y-47615771D01*
X77528570Y-47615771D02*
X77480951Y-47425295D01*
X77480951Y-47425295D02*
X77433332Y-47330057D01*
X77433332Y-47330057D02*
X77385713Y-47282438D01*
X77385713Y-47282438D02*
X77290475Y-47234819D01*
X175962856Y-80937200D02*
X175819999Y-80984819D01*
X175819999Y-80984819D02*
X175581904Y-80984819D01*
X175581904Y-80984819D02*
X175486666Y-80937200D01*
X175486666Y-80937200D02*
X175439047Y-80889580D01*
X175439047Y-80889580D02*
X175391428Y-80794342D01*
X175391428Y-80794342D02*
X175391428Y-80699104D01*
X175391428Y-80699104D02*
X175439047Y-80603866D01*
X175439047Y-80603866D02*
X175486666Y-80556247D01*
X175486666Y-80556247D02*
X175581904Y-80508628D01*
X175581904Y-80508628D02*
X175772380Y-80461009D01*
X175772380Y-80461009D02*
X175867618Y-80413390D01*
X175867618Y-80413390D02*
X175915237Y-80365771D01*
X175915237Y-80365771D02*
X175962856Y-80270533D01*
X175962856Y-80270533D02*
X175962856Y-80175295D01*
X175962856Y-80175295D02*
X175915237Y-80080057D01*
X175915237Y-80080057D02*
X175867618Y-80032438D01*
X175867618Y-80032438D02*
X175772380Y-79984819D01*
X175772380Y-79984819D02*
X175534285Y-79984819D01*
X175534285Y-79984819D02*
X175391428Y-80032438D01*
X175058094Y-79984819D02*
X174819999Y-80984819D01*
X174819999Y-80984819D02*
X174629523Y-80270533D01*
X174629523Y-80270533D02*
X174439047Y-80984819D01*
X174439047Y-80984819D02*
X174200952Y-79984819D01*
X174058095Y-81080057D02*
X173296190Y-81080057D01*
X173105713Y-80699104D02*
X172629523Y-80699104D01*
X173200951Y-80984819D02*
X172867618Y-79984819D01*
X172867618Y-79984819D02*
X172534285Y-80984819D01*
X172248570Y-80080057D02*
X172200951Y-80032438D01*
X172200951Y-80032438D02*
X172105713Y-79984819D01*
X172105713Y-79984819D02*
X171867618Y-79984819D01*
X171867618Y-79984819D02*
X171772380Y-80032438D01*
X171772380Y-80032438D02*
X171724761Y-80080057D01*
X171724761Y-80080057D02*
X171677142Y-80175295D01*
X171677142Y-80175295D02*
X171677142Y-80270533D01*
X171677142Y-80270533D02*
X171724761Y-80413390D01*
X171724761Y-80413390D02*
X172296189Y-80984819D01*
X172296189Y-80984819D02*
X171677142Y-80984819D01*
X119034285Y-59937200D02*
X118891428Y-59984819D01*
X118891428Y-59984819D02*
X118653333Y-59984819D01*
X118653333Y-59984819D02*
X118558095Y-59937200D01*
X118558095Y-59937200D02*
X118510476Y-59889580D01*
X118510476Y-59889580D02*
X118462857Y-59794342D01*
X118462857Y-59794342D02*
X118462857Y-59699104D01*
X118462857Y-59699104D02*
X118510476Y-59603866D01*
X118510476Y-59603866D02*
X118558095Y-59556247D01*
X118558095Y-59556247D02*
X118653333Y-59508628D01*
X118653333Y-59508628D02*
X118843809Y-59461009D01*
X118843809Y-59461009D02*
X118939047Y-59413390D01*
X118939047Y-59413390D02*
X118986666Y-59365771D01*
X118986666Y-59365771D02*
X119034285Y-59270533D01*
X119034285Y-59270533D02*
X119034285Y-59175295D01*
X119034285Y-59175295D02*
X118986666Y-59080057D01*
X118986666Y-59080057D02*
X118939047Y-59032438D01*
X118939047Y-59032438D02*
X118843809Y-58984819D01*
X118843809Y-58984819D02*
X118605714Y-58984819D01*
X118605714Y-58984819D02*
X118462857Y-59032438D01*
X118129523Y-58984819D02*
X117891428Y-59984819D01*
X117891428Y-59984819D02*
X117700952Y-59270533D01*
X117700952Y-59270533D02*
X117510476Y-59984819D01*
X117510476Y-59984819D02*
X117272381Y-58984819D01*
X117129524Y-60080057D02*
X116367619Y-60080057D01*
X116129523Y-59984819D02*
X116129523Y-58984819D01*
X116129523Y-58984819D02*
X115891428Y-58984819D01*
X115891428Y-58984819D02*
X115748571Y-59032438D01*
X115748571Y-59032438D02*
X115653333Y-59127676D01*
X115653333Y-59127676D02*
X115605714Y-59222914D01*
X115605714Y-59222914D02*
X115558095Y-59413390D01*
X115558095Y-59413390D02*
X115558095Y-59556247D01*
X115558095Y-59556247D02*
X115605714Y-59746723D01*
X115605714Y-59746723D02*
X115653333Y-59841961D01*
X115653333Y-59841961D02*
X115748571Y-59937200D01*
X115748571Y-59937200D02*
X115891428Y-59984819D01*
X115891428Y-59984819D02*
X116129523Y-59984819D01*
X114605714Y-59984819D02*
X115177142Y-59984819D01*
X114891428Y-59984819D02*
X114891428Y-58984819D01*
X114891428Y-58984819D02*
X114986666Y-59127676D01*
X114986666Y-59127676D02*
X115081904Y-59222914D01*
X115081904Y-59222914D02*
X115177142Y-59270533D01*
X99986666Y-80937200D02*
X99843809Y-80984819D01*
X99843809Y-80984819D02*
X99605714Y-80984819D01*
X99605714Y-80984819D02*
X99510476Y-80937200D01*
X99510476Y-80937200D02*
X99462857Y-80889580D01*
X99462857Y-80889580D02*
X99415238Y-80794342D01*
X99415238Y-80794342D02*
X99415238Y-80699104D01*
X99415238Y-80699104D02*
X99462857Y-80603866D01*
X99462857Y-80603866D02*
X99510476Y-80556247D01*
X99510476Y-80556247D02*
X99605714Y-80508628D01*
X99605714Y-80508628D02*
X99796190Y-80461009D01*
X99796190Y-80461009D02*
X99891428Y-80413390D01*
X99891428Y-80413390D02*
X99939047Y-80365771D01*
X99939047Y-80365771D02*
X99986666Y-80270533D01*
X99986666Y-80270533D02*
X99986666Y-80175295D01*
X99986666Y-80175295D02*
X99939047Y-80080057D01*
X99939047Y-80080057D02*
X99891428Y-80032438D01*
X99891428Y-80032438D02*
X99796190Y-79984819D01*
X99796190Y-79984819D02*
X99558095Y-79984819D01*
X99558095Y-79984819D02*
X99415238Y-80032438D01*
X99081904Y-79984819D02*
X98843809Y-80984819D01*
X98843809Y-80984819D02*
X98653333Y-80270533D01*
X98653333Y-80270533D02*
X98462857Y-80984819D01*
X98462857Y-80984819D02*
X98224762Y-79984819D01*
X98081905Y-81080057D02*
X97320000Y-81080057D01*
X97081904Y-80461009D02*
X96748571Y-80461009D01*
X96605714Y-80984819D02*
X97081904Y-80984819D01*
X97081904Y-80984819D02*
X97081904Y-79984819D01*
X97081904Y-79984819D02*
X96605714Y-79984819D01*
X96224761Y-80080057D02*
X96177142Y-80032438D01*
X96177142Y-80032438D02*
X96081904Y-79984819D01*
X96081904Y-79984819D02*
X95843809Y-79984819D01*
X95843809Y-79984819D02*
X95748571Y-80032438D01*
X95748571Y-80032438D02*
X95700952Y-80080057D01*
X95700952Y-80080057D02*
X95653333Y-80175295D01*
X95653333Y-80175295D02*
X95653333Y-80270533D01*
X95653333Y-80270533D02*
X95700952Y-80413390D01*
X95700952Y-80413390D02*
X96272380Y-80984819D01*
X96272380Y-80984819D02*
X95653333Y-80984819D01*
X119034285Y-77937200D02*
X118891428Y-77984819D01*
X118891428Y-77984819D02*
X118653333Y-77984819D01*
X118653333Y-77984819D02*
X118558095Y-77937200D01*
X118558095Y-77937200D02*
X118510476Y-77889580D01*
X118510476Y-77889580D02*
X118462857Y-77794342D01*
X118462857Y-77794342D02*
X118462857Y-77699104D01*
X118462857Y-77699104D02*
X118510476Y-77603866D01*
X118510476Y-77603866D02*
X118558095Y-77556247D01*
X118558095Y-77556247D02*
X118653333Y-77508628D01*
X118653333Y-77508628D02*
X118843809Y-77461009D01*
X118843809Y-77461009D02*
X118939047Y-77413390D01*
X118939047Y-77413390D02*
X118986666Y-77365771D01*
X118986666Y-77365771D02*
X119034285Y-77270533D01*
X119034285Y-77270533D02*
X119034285Y-77175295D01*
X119034285Y-77175295D02*
X118986666Y-77080057D01*
X118986666Y-77080057D02*
X118939047Y-77032438D01*
X118939047Y-77032438D02*
X118843809Y-76984819D01*
X118843809Y-76984819D02*
X118605714Y-76984819D01*
X118605714Y-76984819D02*
X118462857Y-77032438D01*
X118129523Y-76984819D02*
X117891428Y-77984819D01*
X117891428Y-77984819D02*
X117700952Y-77270533D01*
X117700952Y-77270533D02*
X117510476Y-77984819D01*
X117510476Y-77984819D02*
X117272381Y-76984819D01*
X117129524Y-78080057D02*
X116367619Y-78080057D01*
X116129523Y-77984819D02*
X116129523Y-76984819D01*
X116129523Y-76984819D02*
X115891428Y-76984819D01*
X115891428Y-76984819D02*
X115748571Y-77032438D01*
X115748571Y-77032438D02*
X115653333Y-77127676D01*
X115653333Y-77127676D02*
X115605714Y-77222914D01*
X115605714Y-77222914D02*
X115558095Y-77413390D01*
X115558095Y-77413390D02*
X115558095Y-77556247D01*
X115558095Y-77556247D02*
X115605714Y-77746723D01*
X115605714Y-77746723D02*
X115653333Y-77841961D01*
X115653333Y-77841961D02*
X115748571Y-77937200D01*
X115748571Y-77937200D02*
X115891428Y-77984819D01*
X115891428Y-77984819D02*
X116129523Y-77984819D01*
X115177142Y-77080057D02*
X115129523Y-77032438D01*
X115129523Y-77032438D02*
X115034285Y-76984819D01*
X115034285Y-76984819D02*
X114796190Y-76984819D01*
X114796190Y-76984819D02*
X114700952Y-77032438D01*
X114700952Y-77032438D02*
X114653333Y-77080057D01*
X114653333Y-77080057D02*
X114605714Y-77175295D01*
X114605714Y-77175295D02*
X114605714Y-77270533D01*
X114605714Y-77270533D02*
X114653333Y-77413390D01*
X114653333Y-77413390D02*
X115224761Y-77984819D01*
X115224761Y-77984819D02*
X114605714Y-77984819D01*
X99986666Y-44937200D02*
X99843809Y-44984819D01*
X99843809Y-44984819D02*
X99605714Y-44984819D01*
X99605714Y-44984819D02*
X99510476Y-44937200D01*
X99510476Y-44937200D02*
X99462857Y-44889580D01*
X99462857Y-44889580D02*
X99415238Y-44794342D01*
X99415238Y-44794342D02*
X99415238Y-44699104D01*
X99415238Y-44699104D02*
X99462857Y-44603866D01*
X99462857Y-44603866D02*
X99510476Y-44556247D01*
X99510476Y-44556247D02*
X99605714Y-44508628D01*
X99605714Y-44508628D02*
X99796190Y-44461009D01*
X99796190Y-44461009D02*
X99891428Y-44413390D01*
X99891428Y-44413390D02*
X99939047Y-44365771D01*
X99939047Y-44365771D02*
X99986666Y-44270533D01*
X99986666Y-44270533D02*
X99986666Y-44175295D01*
X99986666Y-44175295D02*
X99939047Y-44080057D01*
X99939047Y-44080057D02*
X99891428Y-44032438D01*
X99891428Y-44032438D02*
X99796190Y-43984819D01*
X99796190Y-43984819D02*
X99558095Y-43984819D01*
X99558095Y-43984819D02*
X99415238Y-44032438D01*
X99081904Y-43984819D02*
X98843809Y-44984819D01*
X98843809Y-44984819D02*
X98653333Y-44270533D01*
X98653333Y-44270533D02*
X98462857Y-44984819D01*
X98462857Y-44984819D02*
X98224762Y-43984819D01*
X98081905Y-45080057D02*
X97320000Y-45080057D01*
X97081904Y-44461009D02*
X96748571Y-44461009D01*
X96605714Y-44984819D02*
X97081904Y-44984819D01*
X97081904Y-44984819D02*
X97081904Y-43984819D01*
X97081904Y-43984819D02*
X96605714Y-43984819D01*
X95986666Y-43984819D02*
X95891428Y-43984819D01*
X95891428Y-43984819D02*
X95796190Y-44032438D01*
X95796190Y-44032438D02*
X95748571Y-44080057D01*
X95748571Y-44080057D02*
X95700952Y-44175295D01*
X95700952Y-44175295D02*
X95653333Y-44365771D01*
X95653333Y-44365771D02*
X95653333Y-44603866D01*
X95653333Y-44603866D02*
X95700952Y-44794342D01*
X95700952Y-44794342D02*
X95748571Y-44889580D01*
X95748571Y-44889580D02*
X95796190Y-44937200D01*
X95796190Y-44937200D02*
X95891428Y-44984819D01*
X95891428Y-44984819D02*
X95986666Y-44984819D01*
X95986666Y-44984819D02*
X96081904Y-44937200D01*
X96081904Y-44937200D02*
X96129523Y-44889580D01*
X96129523Y-44889580D02*
X96177142Y-44794342D01*
X96177142Y-44794342D02*
X96224761Y-44603866D01*
X96224761Y-44603866D02*
X96224761Y-44365771D01*
X96224761Y-44365771D02*
X96177142Y-44175295D01*
X96177142Y-44175295D02*
X96129523Y-44080057D01*
X96129523Y-44080057D02*
X96081904Y-44032438D01*
X96081904Y-44032438D02*
X95986666Y-43984819D01*
X175962856Y-62937200D02*
X175819999Y-62984819D01*
X175819999Y-62984819D02*
X175581904Y-62984819D01*
X175581904Y-62984819D02*
X175486666Y-62937200D01*
X175486666Y-62937200D02*
X175439047Y-62889580D01*
X175439047Y-62889580D02*
X175391428Y-62794342D01*
X175391428Y-62794342D02*
X175391428Y-62699104D01*
X175391428Y-62699104D02*
X175439047Y-62603866D01*
X175439047Y-62603866D02*
X175486666Y-62556247D01*
X175486666Y-62556247D02*
X175581904Y-62508628D01*
X175581904Y-62508628D02*
X175772380Y-62461009D01*
X175772380Y-62461009D02*
X175867618Y-62413390D01*
X175867618Y-62413390D02*
X175915237Y-62365771D01*
X175915237Y-62365771D02*
X175962856Y-62270533D01*
X175962856Y-62270533D02*
X175962856Y-62175295D01*
X175962856Y-62175295D02*
X175915237Y-62080057D01*
X175915237Y-62080057D02*
X175867618Y-62032438D01*
X175867618Y-62032438D02*
X175772380Y-61984819D01*
X175772380Y-61984819D02*
X175534285Y-61984819D01*
X175534285Y-61984819D02*
X175391428Y-62032438D01*
X175058094Y-61984819D02*
X174819999Y-62984819D01*
X174819999Y-62984819D02*
X174629523Y-62270533D01*
X174629523Y-62270533D02*
X174439047Y-62984819D01*
X174439047Y-62984819D02*
X174200952Y-61984819D01*
X174058095Y-63080057D02*
X173296190Y-63080057D01*
X173105713Y-62699104D02*
X172629523Y-62699104D01*
X173200951Y-62984819D02*
X172867618Y-61984819D01*
X172867618Y-61984819D02*
X172534285Y-62984819D01*
X171677142Y-62984819D02*
X172248570Y-62984819D01*
X171962856Y-62984819D02*
X171962856Y-61984819D01*
X171962856Y-61984819D02*
X172058094Y-62127676D01*
X172058094Y-62127676D02*
X172153332Y-62222914D01*
X172153332Y-62222914D02*
X172248570Y-62270533D01*
X175962856Y-44937200D02*
X175819999Y-44984819D01*
X175819999Y-44984819D02*
X175581904Y-44984819D01*
X175581904Y-44984819D02*
X175486666Y-44937200D01*
X175486666Y-44937200D02*
X175439047Y-44889580D01*
X175439047Y-44889580D02*
X175391428Y-44794342D01*
X175391428Y-44794342D02*
X175391428Y-44699104D01*
X175391428Y-44699104D02*
X175439047Y-44603866D01*
X175439047Y-44603866D02*
X175486666Y-44556247D01*
X175486666Y-44556247D02*
X175581904Y-44508628D01*
X175581904Y-44508628D02*
X175772380Y-44461009D01*
X175772380Y-44461009D02*
X175867618Y-44413390D01*
X175867618Y-44413390D02*
X175915237Y-44365771D01*
X175915237Y-44365771D02*
X175962856Y-44270533D01*
X175962856Y-44270533D02*
X175962856Y-44175295D01*
X175962856Y-44175295D02*
X175915237Y-44080057D01*
X175915237Y-44080057D02*
X175867618Y-44032438D01*
X175867618Y-44032438D02*
X175772380Y-43984819D01*
X175772380Y-43984819D02*
X175534285Y-43984819D01*
X175534285Y-43984819D02*
X175391428Y-44032438D01*
X175058094Y-43984819D02*
X174819999Y-44984819D01*
X174819999Y-44984819D02*
X174629523Y-44270533D01*
X174629523Y-44270533D02*
X174439047Y-44984819D01*
X174439047Y-44984819D02*
X174200952Y-43984819D01*
X174058095Y-45080057D02*
X173296190Y-45080057D01*
X173105713Y-44699104D02*
X172629523Y-44699104D01*
X173200951Y-44984819D02*
X172867618Y-43984819D01*
X172867618Y-43984819D02*
X172534285Y-44984819D01*
X172010475Y-43984819D02*
X171915237Y-43984819D01*
X171915237Y-43984819D02*
X171819999Y-44032438D01*
X171819999Y-44032438D02*
X171772380Y-44080057D01*
X171772380Y-44080057D02*
X171724761Y-44175295D01*
X171724761Y-44175295D02*
X171677142Y-44365771D01*
X171677142Y-44365771D02*
X171677142Y-44603866D01*
X171677142Y-44603866D02*
X171724761Y-44794342D01*
X171724761Y-44794342D02*
X171772380Y-44889580D01*
X171772380Y-44889580D02*
X171819999Y-44937200D01*
X171819999Y-44937200D02*
X171915237Y-44984819D01*
X171915237Y-44984819D02*
X172010475Y-44984819D01*
X172010475Y-44984819D02*
X172105713Y-44937200D01*
X172105713Y-44937200D02*
X172153332Y-44889580D01*
X172153332Y-44889580D02*
X172200951Y-44794342D01*
X172200951Y-44794342D02*
X172248570Y-44603866D01*
X172248570Y-44603866D02*
X172248570Y-44365771D01*
X172248570Y-44365771D02*
X172200951Y-44175295D01*
X172200951Y-44175295D02*
X172153332Y-44080057D01*
X172153332Y-44080057D02*
X172105713Y-44032438D01*
X172105713Y-44032438D02*
X172010475Y-43984819D01*
X81242856Y-84187200D02*
X81099999Y-84234819D01*
X81099999Y-84234819D02*
X80861904Y-84234819D01*
X80861904Y-84234819D02*
X80766666Y-84187200D01*
X80766666Y-84187200D02*
X80719047Y-84139580D01*
X80719047Y-84139580D02*
X80671428Y-84044342D01*
X80671428Y-84044342D02*
X80671428Y-83949104D01*
X80671428Y-83949104D02*
X80719047Y-83853866D01*
X80719047Y-83853866D02*
X80766666Y-83806247D01*
X80766666Y-83806247D02*
X80861904Y-83758628D01*
X80861904Y-83758628D02*
X81052380Y-83711009D01*
X81052380Y-83711009D02*
X81147618Y-83663390D01*
X81147618Y-83663390D02*
X81195237Y-83615771D01*
X81195237Y-83615771D02*
X81242856Y-83520533D01*
X81242856Y-83520533D02*
X81242856Y-83425295D01*
X81242856Y-83425295D02*
X81195237Y-83330057D01*
X81195237Y-83330057D02*
X81147618Y-83282438D01*
X81147618Y-83282438D02*
X81052380Y-83234819D01*
X81052380Y-83234819D02*
X80814285Y-83234819D01*
X80814285Y-83234819D02*
X80671428Y-83282438D01*
X80338094Y-83234819D02*
X80099999Y-84234819D01*
X80099999Y-84234819D02*
X79909523Y-83520533D01*
X79909523Y-83520533D02*
X79719047Y-84234819D01*
X79719047Y-84234819D02*
X79480952Y-83234819D01*
X79338095Y-84330057D02*
X78576190Y-84330057D01*
X78004761Y-83711009D02*
X78338094Y-83711009D01*
X78338094Y-84234819D02*
X78338094Y-83234819D01*
X78338094Y-83234819D02*
X77861904Y-83234819D01*
X77528570Y-83330057D02*
X77480951Y-83282438D01*
X77480951Y-83282438D02*
X77385713Y-83234819D01*
X77385713Y-83234819D02*
X77147618Y-83234819D01*
X77147618Y-83234819D02*
X77052380Y-83282438D01*
X77052380Y-83282438D02*
X77004761Y-83330057D01*
X77004761Y-83330057D02*
X76957142Y-83425295D01*
X76957142Y-83425295D02*
X76957142Y-83520533D01*
X76957142Y-83520533D02*
X77004761Y-83663390D01*
X77004761Y-83663390D02*
X77576189Y-84234819D01*
X77576189Y-84234819D02*
X76957142Y-84234819D01*
X119034285Y-41687200D02*
X118891428Y-41734819D01*
X118891428Y-41734819D02*
X118653333Y-41734819D01*
X118653333Y-41734819D02*
X118558095Y-41687200D01*
X118558095Y-41687200D02*
X118510476Y-41639580D01*
X118510476Y-41639580D02*
X118462857Y-41544342D01*
X118462857Y-41544342D02*
X118462857Y-41449104D01*
X118462857Y-41449104D02*
X118510476Y-41353866D01*
X118510476Y-41353866D02*
X118558095Y-41306247D01*
X118558095Y-41306247D02*
X118653333Y-41258628D01*
X118653333Y-41258628D02*
X118843809Y-41211009D01*
X118843809Y-41211009D02*
X118939047Y-41163390D01*
X118939047Y-41163390D02*
X118986666Y-41115771D01*
X118986666Y-41115771D02*
X119034285Y-41020533D01*
X119034285Y-41020533D02*
X119034285Y-40925295D01*
X119034285Y-40925295D02*
X118986666Y-40830057D01*
X118986666Y-40830057D02*
X118939047Y-40782438D01*
X118939047Y-40782438D02*
X118843809Y-40734819D01*
X118843809Y-40734819D02*
X118605714Y-40734819D01*
X118605714Y-40734819D02*
X118462857Y-40782438D01*
X118129523Y-40734819D02*
X117891428Y-41734819D01*
X117891428Y-41734819D02*
X117700952Y-41020533D01*
X117700952Y-41020533D02*
X117510476Y-41734819D01*
X117510476Y-41734819D02*
X117272381Y-40734819D01*
X117129524Y-41830057D02*
X116367619Y-41830057D01*
X116129523Y-41734819D02*
X116129523Y-40734819D01*
X116129523Y-40734819D02*
X115891428Y-40734819D01*
X115891428Y-40734819D02*
X115748571Y-40782438D01*
X115748571Y-40782438D02*
X115653333Y-40877676D01*
X115653333Y-40877676D02*
X115605714Y-40972914D01*
X115605714Y-40972914D02*
X115558095Y-41163390D01*
X115558095Y-41163390D02*
X115558095Y-41306247D01*
X115558095Y-41306247D02*
X115605714Y-41496723D01*
X115605714Y-41496723D02*
X115653333Y-41591961D01*
X115653333Y-41591961D02*
X115748571Y-41687200D01*
X115748571Y-41687200D02*
X115891428Y-41734819D01*
X115891428Y-41734819D02*
X116129523Y-41734819D01*
X114939047Y-40734819D02*
X114843809Y-40734819D01*
X114843809Y-40734819D02*
X114748571Y-40782438D01*
X114748571Y-40782438D02*
X114700952Y-40830057D01*
X114700952Y-40830057D02*
X114653333Y-40925295D01*
X114653333Y-40925295D02*
X114605714Y-41115771D01*
X114605714Y-41115771D02*
X114605714Y-41353866D01*
X114605714Y-41353866D02*
X114653333Y-41544342D01*
X114653333Y-41544342D02*
X114700952Y-41639580D01*
X114700952Y-41639580D02*
X114748571Y-41687200D01*
X114748571Y-41687200D02*
X114843809Y-41734819D01*
X114843809Y-41734819D02*
X114939047Y-41734819D01*
X114939047Y-41734819D02*
X115034285Y-41687200D01*
X115034285Y-41687200D02*
X115081904Y-41639580D01*
X115081904Y-41639580D02*
X115129523Y-41544342D01*
X115129523Y-41544342D02*
X115177142Y-41353866D01*
X115177142Y-41353866D02*
X115177142Y-41115771D01*
X115177142Y-41115771D02*
X115129523Y-40925295D01*
X115129523Y-40925295D02*
X115081904Y-40830057D01*
X115081904Y-40830057D02*
X115034285Y-40782438D01*
X115034285Y-40782438D02*
X114939047Y-40734819D01*
X60057800Y-105435564D02*
X59927965Y-105511844D01*
X59927965Y-105511844D02*
X59695073Y-105561347D01*
X59695073Y-105561347D02*
X59592016Y-105534569D01*
X59592016Y-105534569D02*
X59535536Y-105497892D01*
X59535536Y-105497892D02*
X59469157Y-105414635D01*
X59469157Y-105414635D02*
X59449356Y-105321478D01*
X59449356Y-105321478D02*
X59476133Y-105218421D01*
X59476133Y-105218421D02*
X59512811Y-105161942D01*
X59512811Y-105161942D02*
X59596067Y-105095562D01*
X59596067Y-105095562D02*
X59772481Y-105009381D01*
X59772481Y-105009381D02*
X59855737Y-104943002D01*
X59855737Y-104943002D02*
X59892415Y-104886523D01*
X59892415Y-104886523D02*
X59919192Y-104783465D01*
X59919192Y-104783465D02*
X59899391Y-104690309D01*
X59899391Y-104690309D02*
X59833012Y-104607052D01*
X59833012Y-104607052D02*
X59776533Y-104570374D01*
X59776533Y-104570374D02*
X59673475Y-104543597D01*
X59673475Y-104543597D02*
X59440583Y-104593100D01*
X59440583Y-104593100D02*
X59310748Y-104669380D01*
X58974798Y-104692105D02*
X58949818Y-105719756D01*
X58949818Y-105719756D02*
X58614995Y-105060681D01*
X58614995Y-105060681D02*
X58577190Y-105798960D01*
X58577190Y-105798960D02*
X58136386Y-104870315D01*
X58224364Y-105971321D02*
X57479108Y-106129730D01*
X57117508Y-105573713D02*
X56791459Y-105643017D01*
X56760630Y-106185082D02*
X57226415Y-106086076D01*
X57226415Y-106086076D02*
X57018503Y-105107929D01*
X57018503Y-105107929D02*
X56552718Y-105206934D01*
X56226669Y-105276238D02*
X55621149Y-105404945D01*
X55621149Y-105404945D02*
X56026403Y-105708269D01*
X56026403Y-105708269D02*
X55886667Y-105737971D01*
X55886667Y-105737971D02*
X55803411Y-105804350D01*
X55803411Y-105804350D02*
X55766733Y-105860829D01*
X55766733Y-105860829D02*
X55739956Y-105963887D01*
X55739956Y-105963887D02*
X55789459Y-106196779D01*
X55789459Y-106196779D02*
X55855838Y-106280036D01*
X55855838Y-106280036D02*
X55912317Y-106316713D01*
X55912317Y-106316713D02*
X56015375Y-106343491D01*
X56015375Y-106343491D02*
X56294845Y-106284087D01*
X56294845Y-106284087D02*
X56378102Y-106217708D01*
X56378102Y-106217708D02*
X56414780Y-106161229D01*
X81242856Y-66232200D02*
X81099999Y-66279819D01*
X81099999Y-66279819D02*
X80861904Y-66279819D01*
X80861904Y-66279819D02*
X80766666Y-66232200D01*
X80766666Y-66232200D02*
X80719047Y-66184580D01*
X80719047Y-66184580D02*
X80671428Y-66089342D01*
X80671428Y-66089342D02*
X80671428Y-65994104D01*
X80671428Y-65994104D02*
X80719047Y-65898866D01*
X80719047Y-65898866D02*
X80766666Y-65851247D01*
X80766666Y-65851247D02*
X80861904Y-65803628D01*
X80861904Y-65803628D02*
X81052380Y-65756009D01*
X81052380Y-65756009D02*
X81147618Y-65708390D01*
X81147618Y-65708390D02*
X81195237Y-65660771D01*
X81195237Y-65660771D02*
X81242856Y-65565533D01*
X81242856Y-65565533D02*
X81242856Y-65470295D01*
X81242856Y-65470295D02*
X81195237Y-65375057D01*
X81195237Y-65375057D02*
X81147618Y-65327438D01*
X81147618Y-65327438D02*
X81052380Y-65279819D01*
X81052380Y-65279819D02*
X80814285Y-65279819D01*
X80814285Y-65279819D02*
X80671428Y-65327438D01*
X80338094Y-65279819D02*
X80099999Y-66279819D01*
X80099999Y-66279819D02*
X79909523Y-65565533D01*
X79909523Y-65565533D02*
X79719047Y-66279819D01*
X79719047Y-66279819D02*
X79480952Y-65279819D01*
X79338095Y-66375057D02*
X78576190Y-66375057D01*
X78004761Y-65756009D02*
X78338094Y-65756009D01*
X78338094Y-66279819D02*
X78338094Y-65279819D01*
X78338094Y-65279819D02*
X77861904Y-65279819D01*
X76957142Y-66279819D02*
X77528570Y-66279819D01*
X77242856Y-66279819D02*
X77242856Y-65279819D01*
X77242856Y-65279819D02*
X77338094Y-65422676D01*
X77338094Y-65422676D02*
X77433332Y-65517914D01*
X77433332Y-65517914D02*
X77528570Y-65565533D01*
X138034285Y-77937200D02*
X137891428Y-77984819D01*
X137891428Y-77984819D02*
X137653333Y-77984819D01*
X137653333Y-77984819D02*
X137558095Y-77937200D01*
X137558095Y-77937200D02*
X137510476Y-77889580D01*
X137510476Y-77889580D02*
X137462857Y-77794342D01*
X137462857Y-77794342D02*
X137462857Y-77699104D01*
X137462857Y-77699104D02*
X137510476Y-77603866D01*
X137510476Y-77603866D02*
X137558095Y-77556247D01*
X137558095Y-77556247D02*
X137653333Y-77508628D01*
X137653333Y-77508628D02*
X137843809Y-77461009D01*
X137843809Y-77461009D02*
X137939047Y-77413390D01*
X137939047Y-77413390D02*
X137986666Y-77365771D01*
X137986666Y-77365771D02*
X138034285Y-77270533D01*
X138034285Y-77270533D02*
X138034285Y-77175295D01*
X138034285Y-77175295D02*
X137986666Y-77080057D01*
X137986666Y-77080057D02*
X137939047Y-77032438D01*
X137939047Y-77032438D02*
X137843809Y-76984819D01*
X137843809Y-76984819D02*
X137605714Y-76984819D01*
X137605714Y-76984819D02*
X137462857Y-77032438D01*
X137129523Y-76984819D02*
X136891428Y-77984819D01*
X136891428Y-77984819D02*
X136700952Y-77270533D01*
X136700952Y-77270533D02*
X136510476Y-77984819D01*
X136510476Y-77984819D02*
X136272381Y-76984819D01*
X136129524Y-78080057D02*
X135367619Y-78080057D01*
X134558095Y-77889580D02*
X134605714Y-77937200D01*
X134605714Y-77937200D02*
X134748571Y-77984819D01*
X134748571Y-77984819D02*
X134843809Y-77984819D01*
X134843809Y-77984819D02*
X134986666Y-77937200D01*
X134986666Y-77937200D02*
X135081904Y-77841961D01*
X135081904Y-77841961D02*
X135129523Y-77746723D01*
X135129523Y-77746723D02*
X135177142Y-77556247D01*
X135177142Y-77556247D02*
X135177142Y-77413390D01*
X135177142Y-77413390D02*
X135129523Y-77222914D01*
X135129523Y-77222914D02*
X135081904Y-77127676D01*
X135081904Y-77127676D02*
X134986666Y-77032438D01*
X134986666Y-77032438D02*
X134843809Y-76984819D01*
X134843809Y-76984819D02*
X134748571Y-76984819D01*
X134748571Y-76984819D02*
X134605714Y-77032438D01*
X134605714Y-77032438D02*
X134558095Y-77080057D01*
X134177142Y-77080057D02*
X134129523Y-77032438D01*
X134129523Y-77032438D02*
X134034285Y-76984819D01*
X134034285Y-76984819D02*
X133796190Y-76984819D01*
X133796190Y-76984819D02*
X133700952Y-77032438D01*
X133700952Y-77032438D02*
X133653333Y-77080057D01*
X133653333Y-77080057D02*
X133605714Y-77175295D01*
X133605714Y-77175295D02*
X133605714Y-77270533D01*
X133605714Y-77270533D02*
X133653333Y-77413390D01*
X133653333Y-77413390D02*
X134224761Y-77984819D01*
X134224761Y-77984819D02*
X133605714Y-77984819D01*
X99986666Y-62937200D02*
X99843809Y-62984819D01*
X99843809Y-62984819D02*
X99605714Y-62984819D01*
X99605714Y-62984819D02*
X99510476Y-62937200D01*
X99510476Y-62937200D02*
X99462857Y-62889580D01*
X99462857Y-62889580D02*
X99415238Y-62794342D01*
X99415238Y-62794342D02*
X99415238Y-62699104D01*
X99415238Y-62699104D02*
X99462857Y-62603866D01*
X99462857Y-62603866D02*
X99510476Y-62556247D01*
X99510476Y-62556247D02*
X99605714Y-62508628D01*
X99605714Y-62508628D02*
X99796190Y-62461009D01*
X99796190Y-62461009D02*
X99891428Y-62413390D01*
X99891428Y-62413390D02*
X99939047Y-62365771D01*
X99939047Y-62365771D02*
X99986666Y-62270533D01*
X99986666Y-62270533D02*
X99986666Y-62175295D01*
X99986666Y-62175295D02*
X99939047Y-62080057D01*
X99939047Y-62080057D02*
X99891428Y-62032438D01*
X99891428Y-62032438D02*
X99796190Y-61984819D01*
X99796190Y-61984819D02*
X99558095Y-61984819D01*
X99558095Y-61984819D02*
X99415238Y-62032438D01*
X99081904Y-61984819D02*
X98843809Y-62984819D01*
X98843809Y-62984819D02*
X98653333Y-62270533D01*
X98653333Y-62270533D02*
X98462857Y-62984819D01*
X98462857Y-62984819D02*
X98224762Y-61984819D01*
X98081905Y-63080057D02*
X97320000Y-63080057D01*
X97081904Y-62461009D02*
X96748571Y-62461009D01*
X96605714Y-62984819D02*
X97081904Y-62984819D01*
X97081904Y-62984819D02*
X97081904Y-61984819D01*
X97081904Y-61984819D02*
X96605714Y-61984819D01*
X95653333Y-62984819D02*
X96224761Y-62984819D01*
X95939047Y-62984819D02*
X95939047Y-61984819D01*
X95939047Y-61984819D02*
X96034285Y-62127676D01*
X96034285Y-62127676D02*
X96129523Y-62222914D01*
X96129523Y-62222914D02*
X96224761Y-62270533D01*
X138034285Y-41937200D02*
X137891428Y-41984819D01*
X137891428Y-41984819D02*
X137653333Y-41984819D01*
X137653333Y-41984819D02*
X137558095Y-41937200D01*
X137558095Y-41937200D02*
X137510476Y-41889580D01*
X137510476Y-41889580D02*
X137462857Y-41794342D01*
X137462857Y-41794342D02*
X137462857Y-41699104D01*
X137462857Y-41699104D02*
X137510476Y-41603866D01*
X137510476Y-41603866D02*
X137558095Y-41556247D01*
X137558095Y-41556247D02*
X137653333Y-41508628D01*
X137653333Y-41508628D02*
X137843809Y-41461009D01*
X137843809Y-41461009D02*
X137939047Y-41413390D01*
X137939047Y-41413390D02*
X137986666Y-41365771D01*
X137986666Y-41365771D02*
X138034285Y-41270533D01*
X138034285Y-41270533D02*
X138034285Y-41175295D01*
X138034285Y-41175295D02*
X137986666Y-41080057D01*
X137986666Y-41080057D02*
X137939047Y-41032438D01*
X137939047Y-41032438D02*
X137843809Y-40984819D01*
X137843809Y-40984819D02*
X137605714Y-40984819D01*
X137605714Y-40984819D02*
X137462857Y-41032438D01*
X137129523Y-40984819D02*
X136891428Y-41984819D01*
X136891428Y-41984819D02*
X136700952Y-41270533D01*
X136700952Y-41270533D02*
X136510476Y-41984819D01*
X136510476Y-41984819D02*
X136272381Y-40984819D01*
X136129524Y-42080057D02*
X135367619Y-42080057D01*
X134558095Y-41889580D02*
X134605714Y-41937200D01*
X134605714Y-41937200D02*
X134748571Y-41984819D01*
X134748571Y-41984819D02*
X134843809Y-41984819D01*
X134843809Y-41984819D02*
X134986666Y-41937200D01*
X134986666Y-41937200D02*
X135081904Y-41841961D01*
X135081904Y-41841961D02*
X135129523Y-41746723D01*
X135129523Y-41746723D02*
X135177142Y-41556247D01*
X135177142Y-41556247D02*
X135177142Y-41413390D01*
X135177142Y-41413390D02*
X135129523Y-41222914D01*
X135129523Y-41222914D02*
X135081904Y-41127676D01*
X135081904Y-41127676D02*
X134986666Y-41032438D01*
X134986666Y-41032438D02*
X134843809Y-40984819D01*
X134843809Y-40984819D02*
X134748571Y-40984819D01*
X134748571Y-40984819D02*
X134605714Y-41032438D01*
X134605714Y-41032438D02*
X134558095Y-41080057D01*
X133939047Y-40984819D02*
X133843809Y-40984819D01*
X133843809Y-40984819D02*
X133748571Y-41032438D01*
X133748571Y-41032438D02*
X133700952Y-41080057D01*
X133700952Y-41080057D02*
X133653333Y-41175295D01*
X133653333Y-41175295D02*
X133605714Y-41365771D01*
X133605714Y-41365771D02*
X133605714Y-41603866D01*
X133605714Y-41603866D02*
X133653333Y-41794342D01*
X133653333Y-41794342D02*
X133700952Y-41889580D01*
X133700952Y-41889580D02*
X133748571Y-41937200D01*
X133748571Y-41937200D02*
X133843809Y-41984819D01*
X133843809Y-41984819D02*
X133939047Y-41984819D01*
X133939047Y-41984819D02*
X134034285Y-41937200D01*
X134034285Y-41937200D02*
X134081904Y-41889580D01*
X134081904Y-41889580D02*
X134129523Y-41794342D01*
X134129523Y-41794342D02*
X134177142Y-41603866D01*
X134177142Y-41603866D02*
X134177142Y-41365771D01*
X134177142Y-41365771D02*
X134129523Y-41175295D01*
X134129523Y-41175295D02*
X134081904Y-41080057D01*
X134081904Y-41080057D02*
X134034285Y-41032438D01*
X134034285Y-41032438D02*
X133939047Y-40984819D01*
X100034285Y-99187200D02*
X99891428Y-99234819D01*
X99891428Y-99234819D02*
X99653333Y-99234819D01*
X99653333Y-99234819D02*
X99558095Y-99187200D01*
X99558095Y-99187200D02*
X99510476Y-99139580D01*
X99510476Y-99139580D02*
X99462857Y-99044342D01*
X99462857Y-99044342D02*
X99462857Y-98949104D01*
X99462857Y-98949104D02*
X99510476Y-98853866D01*
X99510476Y-98853866D02*
X99558095Y-98806247D01*
X99558095Y-98806247D02*
X99653333Y-98758628D01*
X99653333Y-98758628D02*
X99843809Y-98711009D01*
X99843809Y-98711009D02*
X99939047Y-98663390D01*
X99939047Y-98663390D02*
X99986666Y-98615771D01*
X99986666Y-98615771D02*
X100034285Y-98520533D01*
X100034285Y-98520533D02*
X100034285Y-98425295D01*
X100034285Y-98425295D02*
X99986666Y-98330057D01*
X99986666Y-98330057D02*
X99939047Y-98282438D01*
X99939047Y-98282438D02*
X99843809Y-98234819D01*
X99843809Y-98234819D02*
X99605714Y-98234819D01*
X99605714Y-98234819D02*
X99462857Y-98282438D01*
X99129523Y-98234819D02*
X98891428Y-99234819D01*
X98891428Y-99234819D02*
X98700952Y-98520533D01*
X98700952Y-98520533D02*
X98510476Y-99234819D01*
X98510476Y-99234819D02*
X98272381Y-98234819D01*
X98129524Y-99330057D02*
X97367619Y-99330057D01*
X96558095Y-99139580D02*
X96605714Y-99187200D01*
X96605714Y-99187200D02*
X96748571Y-99234819D01*
X96748571Y-99234819D02*
X96843809Y-99234819D01*
X96843809Y-99234819D02*
X96986666Y-99187200D01*
X96986666Y-99187200D02*
X97081904Y-99091961D01*
X97081904Y-99091961D02*
X97129523Y-98996723D01*
X97129523Y-98996723D02*
X97177142Y-98806247D01*
X97177142Y-98806247D02*
X97177142Y-98663390D01*
X97177142Y-98663390D02*
X97129523Y-98472914D01*
X97129523Y-98472914D02*
X97081904Y-98377676D01*
X97081904Y-98377676D02*
X96986666Y-98282438D01*
X96986666Y-98282438D02*
X96843809Y-98234819D01*
X96843809Y-98234819D02*
X96748571Y-98234819D01*
X96748571Y-98234819D02*
X96605714Y-98282438D01*
X96605714Y-98282438D02*
X96558095Y-98330057D01*
X96224761Y-98234819D02*
X95605714Y-98234819D01*
X95605714Y-98234819D02*
X95939047Y-98615771D01*
X95939047Y-98615771D02*
X95796190Y-98615771D01*
X95796190Y-98615771D02*
X95700952Y-98663390D01*
X95700952Y-98663390D02*
X95653333Y-98711009D01*
X95653333Y-98711009D02*
X95605714Y-98806247D01*
X95605714Y-98806247D02*
X95605714Y-99044342D01*
X95605714Y-99044342D02*
X95653333Y-99139580D01*
X95653333Y-99139580D02*
X95700952Y-99187200D01*
X95700952Y-99187200D02*
X95796190Y-99234819D01*
X95796190Y-99234819D02*
X96081904Y-99234819D01*
X96081904Y-99234819D02*
X96177142Y-99187200D01*
X96177142Y-99187200D02*
X96224761Y-99139580D01*
X157034285Y-80937200D02*
X156891428Y-80984819D01*
X156891428Y-80984819D02*
X156653333Y-80984819D01*
X156653333Y-80984819D02*
X156558095Y-80937200D01*
X156558095Y-80937200D02*
X156510476Y-80889580D01*
X156510476Y-80889580D02*
X156462857Y-80794342D01*
X156462857Y-80794342D02*
X156462857Y-80699104D01*
X156462857Y-80699104D02*
X156510476Y-80603866D01*
X156510476Y-80603866D02*
X156558095Y-80556247D01*
X156558095Y-80556247D02*
X156653333Y-80508628D01*
X156653333Y-80508628D02*
X156843809Y-80461009D01*
X156843809Y-80461009D02*
X156939047Y-80413390D01*
X156939047Y-80413390D02*
X156986666Y-80365771D01*
X156986666Y-80365771D02*
X157034285Y-80270533D01*
X157034285Y-80270533D02*
X157034285Y-80175295D01*
X157034285Y-80175295D02*
X156986666Y-80080057D01*
X156986666Y-80080057D02*
X156939047Y-80032438D01*
X156939047Y-80032438D02*
X156843809Y-79984819D01*
X156843809Y-79984819D02*
X156605714Y-79984819D01*
X156605714Y-79984819D02*
X156462857Y-80032438D01*
X156129523Y-79984819D02*
X155891428Y-80984819D01*
X155891428Y-80984819D02*
X155700952Y-80270533D01*
X155700952Y-80270533D02*
X155510476Y-80984819D01*
X155510476Y-80984819D02*
X155272381Y-79984819D01*
X155129524Y-81080057D02*
X154367619Y-81080057D01*
X153796190Y-80461009D02*
X153653333Y-80508628D01*
X153653333Y-80508628D02*
X153605714Y-80556247D01*
X153605714Y-80556247D02*
X153558095Y-80651485D01*
X153558095Y-80651485D02*
X153558095Y-80794342D01*
X153558095Y-80794342D02*
X153605714Y-80889580D01*
X153605714Y-80889580D02*
X153653333Y-80937200D01*
X153653333Y-80937200D02*
X153748571Y-80984819D01*
X153748571Y-80984819D02*
X154129523Y-80984819D01*
X154129523Y-80984819D02*
X154129523Y-79984819D01*
X154129523Y-79984819D02*
X153796190Y-79984819D01*
X153796190Y-79984819D02*
X153700952Y-80032438D01*
X153700952Y-80032438D02*
X153653333Y-80080057D01*
X153653333Y-80080057D02*
X153605714Y-80175295D01*
X153605714Y-80175295D02*
X153605714Y-80270533D01*
X153605714Y-80270533D02*
X153653333Y-80365771D01*
X153653333Y-80365771D02*
X153700952Y-80413390D01*
X153700952Y-80413390D02*
X153796190Y-80461009D01*
X153796190Y-80461009D02*
X154129523Y-80461009D01*
X153177142Y-80080057D02*
X153129523Y-80032438D01*
X153129523Y-80032438D02*
X153034285Y-79984819D01*
X153034285Y-79984819D02*
X152796190Y-79984819D01*
X152796190Y-79984819D02*
X152700952Y-80032438D01*
X152700952Y-80032438D02*
X152653333Y-80080057D01*
X152653333Y-80080057D02*
X152605714Y-80175295D01*
X152605714Y-80175295D02*
X152605714Y-80270533D01*
X152605714Y-80270533D02*
X152653333Y-80413390D01*
X152653333Y-80413390D02*
X153224761Y-80984819D01*
X153224761Y-80984819D02*
X152605714Y-80984819D01*
X81314285Y-102187200D02*
X81171428Y-102234819D01*
X81171428Y-102234819D02*
X80933333Y-102234819D01*
X80933333Y-102234819D02*
X80838095Y-102187200D01*
X80838095Y-102187200D02*
X80790476Y-102139580D01*
X80790476Y-102139580D02*
X80742857Y-102044342D01*
X80742857Y-102044342D02*
X80742857Y-101949104D01*
X80742857Y-101949104D02*
X80790476Y-101853866D01*
X80790476Y-101853866D02*
X80838095Y-101806247D01*
X80838095Y-101806247D02*
X80933333Y-101758628D01*
X80933333Y-101758628D02*
X81123809Y-101711009D01*
X81123809Y-101711009D02*
X81219047Y-101663390D01*
X81219047Y-101663390D02*
X81266666Y-101615771D01*
X81266666Y-101615771D02*
X81314285Y-101520533D01*
X81314285Y-101520533D02*
X81314285Y-101425295D01*
X81314285Y-101425295D02*
X81266666Y-101330057D01*
X81266666Y-101330057D02*
X81219047Y-101282438D01*
X81219047Y-101282438D02*
X81123809Y-101234819D01*
X81123809Y-101234819D02*
X80885714Y-101234819D01*
X80885714Y-101234819D02*
X80742857Y-101282438D01*
X80409523Y-101234819D02*
X80171428Y-102234819D01*
X80171428Y-102234819D02*
X79980952Y-101520533D01*
X79980952Y-101520533D02*
X79790476Y-102234819D01*
X79790476Y-102234819D02*
X79552381Y-101234819D01*
X79409524Y-102330057D02*
X78647619Y-102330057D01*
X78409523Y-102234819D02*
X78409523Y-101234819D01*
X78409523Y-101234819D02*
X78171428Y-101234819D01*
X78171428Y-101234819D02*
X78028571Y-101282438D01*
X78028571Y-101282438D02*
X77933333Y-101377676D01*
X77933333Y-101377676D02*
X77885714Y-101472914D01*
X77885714Y-101472914D02*
X77838095Y-101663390D01*
X77838095Y-101663390D02*
X77838095Y-101806247D01*
X77838095Y-101806247D02*
X77885714Y-101996723D01*
X77885714Y-101996723D02*
X77933333Y-102091961D01*
X77933333Y-102091961D02*
X78028571Y-102187200D01*
X78028571Y-102187200D02*
X78171428Y-102234819D01*
X78171428Y-102234819D02*
X78409523Y-102234819D01*
X77504761Y-101234819D02*
X76885714Y-101234819D01*
X76885714Y-101234819D02*
X77219047Y-101615771D01*
X77219047Y-101615771D02*
X77076190Y-101615771D01*
X77076190Y-101615771D02*
X76980952Y-101663390D01*
X76980952Y-101663390D02*
X76933333Y-101711009D01*
X76933333Y-101711009D02*
X76885714Y-101806247D01*
X76885714Y-101806247D02*
X76885714Y-102044342D01*
X76885714Y-102044342D02*
X76933333Y-102139580D01*
X76933333Y-102139580D02*
X76980952Y-102187200D01*
X76980952Y-102187200D02*
X77076190Y-102234819D01*
X77076190Y-102234819D02*
X77361904Y-102234819D01*
X77361904Y-102234819D02*
X77457142Y-102187200D01*
X77457142Y-102187200D02*
X77504761Y-102139580D01*
X149374819Y-76598214D02*
X148374819Y-76598214D01*
X148374819Y-76598214D02*
X148374819Y-76836309D01*
X148374819Y-76836309D02*
X148422438Y-76979166D01*
X148422438Y-76979166D02*
X148517676Y-77074404D01*
X148517676Y-77074404D02*
X148612914Y-77122023D01*
X148612914Y-77122023D02*
X148803390Y-77169642D01*
X148803390Y-77169642D02*
X148946247Y-77169642D01*
X148946247Y-77169642D02*
X149136723Y-77122023D01*
X149136723Y-77122023D02*
X149231961Y-77074404D01*
X149231961Y-77074404D02*
X149327200Y-76979166D01*
X149327200Y-76979166D02*
X149374819Y-76836309D01*
X149374819Y-76836309D02*
X149374819Y-76598214D01*
X149374819Y-78122023D02*
X149374819Y-77550595D01*
X149374819Y-77836309D02*
X148374819Y-77836309D01*
X148374819Y-77836309D02*
X148517676Y-77741071D01*
X148517676Y-77741071D02*
X148612914Y-77645833D01*
X148612914Y-77645833D02*
X148660533Y-77550595D01*
X148374819Y-78455357D02*
X148374819Y-79122023D01*
X148374819Y-79122023D02*
X149374819Y-78693452D01*
X130374819Y-55598214D02*
X129374819Y-55598214D01*
X129374819Y-55598214D02*
X129374819Y-55836309D01*
X129374819Y-55836309D02*
X129422438Y-55979166D01*
X129422438Y-55979166D02*
X129517676Y-56074404D01*
X129517676Y-56074404D02*
X129612914Y-56122023D01*
X129612914Y-56122023D02*
X129803390Y-56169642D01*
X129803390Y-56169642D02*
X129946247Y-56169642D01*
X129946247Y-56169642D02*
X130136723Y-56122023D01*
X130136723Y-56122023D02*
X130231961Y-56074404D01*
X130231961Y-56074404D02*
X130327200Y-55979166D01*
X130327200Y-55979166D02*
X130374819Y-55836309D01*
X130374819Y-55836309D02*
X130374819Y-55598214D01*
X130374819Y-57122023D02*
X130374819Y-56550595D01*
X130374819Y-56836309D02*
X129374819Y-56836309D01*
X129374819Y-56836309D02*
X129517676Y-56741071D01*
X129517676Y-56741071D02*
X129612914Y-56645833D01*
X129612914Y-56645833D02*
X129660533Y-56550595D01*
X129374819Y-57741071D02*
X129374819Y-57836309D01*
X129374819Y-57836309D02*
X129422438Y-57931547D01*
X129422438Y-57931547D02*
X129470057Y-57979166D01*
X129470057Y-57979166D02*
X129565295Y-58026785D01*
X129565295Y-58026785D02*
X129755771Y-58074404D01*
X129755771Y-58074404D02*
X129993866Y-58074404D01*
X129993866Y-58074404D02*
X130184342Y-58026785D01*
X130184342Y-58026785D02*
X130279580Y-57979166D01*
X130279580Y-57979166D02*
X130327200Y-57931547D01*
X130327200Y-57931547D02*
X130374819Y-57836309D01*
X130374819Y-57836309D02*
X130374819Y-57741071D01*
X130374819Y-57741071D02*
X130327200Y-57645833D01*
X130327200Y-57645833D02*
X130279580Y-57598214D01*
X130279580Y-57598214D02*
X130184342Y-57550595D01*
X130184342Y-57550595D02*
X129993866Y-57502976D01*
X129993866Y-57502976D02*
X129755771Y-57502976D01*
X129755771Y-57502976D02*
X129565295Y-57550595D01*
X129565295Y-57550595D02*
X129470057Y-57598214D01*
X129470057Y-57598214D02*
X129422438Y-57645833D01*
X129422438Y-57645833D02*
X129374819Y-57741071D01*
X73654819Y-79848214D02*
X72654819Y-79848214D01*
X72654819Y-79848214D02*
X72654819Y-80086309D01*
X72654819Y-80086309D02*
X72702438Y-80229166D01*
X72702438Y-80229166D02*
X72797676Y-80324404D01*
X72797676Y-80324404D02*
X72892914Y-80372023D01*
X72892914Y-80372023D02*
X73083390Y-80419642D01*
X73083390Y-80419642D02*
X73226247Y-80419642D01*
X73226247Y-80419642D02*
X73416723Y-80372023D01*
X73416723Y-80372023D02*
X73511961Y-80324404D01*
X73511961Y-80324404D02*
X73607200Y-80229166D01*
X73607200Y-80229166D02*
X73654819Y-80086309D01*
X73654819Y-80086309D02*
X73654819Y-79848214D01*
X73654819Y-81372023D02*
X73654819Y-80800595D01*
X73654819Y-81086309D02*
X72654819Y-81086309D01*
X72654819Y-81086309D02*
X72797676Y-80991071D01*
X72797676Y-80991071D02*
X72892914Y-80895833D01*
X72892914Y-80895833D02*
X72940533Y-80800595D01*
X72654819Y-81705357D02*
X72654819Y-82324404D01*
X72654819Y-82324404D02*
X73035771Y-81991071D01*
X73035771Y-81991071D02*
X73035771Y-82133928D01*
X73035771Y-82133928D02*
X73083390Y-82229166D01*
X73083390Y-82229166D02*
X73131009Y-82276785D01*
X73131009Y-82276785D02*
X73226247Y-82324404D01*
X73226247Y-82324404D02*
X73464342Y-82324404D01*
X73464342Y-82324404D02*
X73559580Y-82276785D01*
X73559580Y-82276785D02*
X73607200Y-82229166D01*
X73607200Y-82229166D02*
X73654819Y-82133928D01*
X73654819Y-82133928D02*
X73654819Y-81848214D01*
X73654819Y-81848214D02*
X73607200Y-81752976D01*
X73607200Y-81752976D02*
X73559580Y-81705357D01*
X73654819Y-47901905D02*
X72654819Y-47901905D01*
X72654819Y-47901905D02*
X72654819Y-48140000D01*
X72654819Y-48140000D02*
X72702438Y-48282857D01*
X72702438Y-48282857D02*
X72797676Y-48378095D01*
X72797676Y-48378095D02*
X72892914Y-48425714D01*
X72892914Y-48425714D02*
X73083390Y-48473333D01*
X73083390Y-48473333D02*
X73226247Y-48473333D01*
X73226247Y-48473333D02*
X73416723Y-48425714D01*
X73416723Y-48425714D02*
X73511961Y-48378095D01*
X73511961Y-48378095D02*
X73607200Y-48282857D01*
X73607200Y-48282857D02*
X73654819Y-48140000D01*
X73654819Y-48140000D02*
X73654819Y-47901905D01*
X73654819Y-49425714D02*
X73654819Y-48854286D01*
X73654819Y-49140000D02*
X72654819Y-49140000D01*
X72654819Y-49140000D02*
X72797676Y-49044762D01*
X72797676Y-49044762D02*
X72892914Y-48949524D01*
X72892914Y-48949524D02*
X72940533Y-48854286D01*
X168374819Y-61598214D02*
X167374819Y-61598214D01*
X167374819Y-61598214D02*
X167374819Y-61836309D01*
X167374819Y-61836309D02*
X167422438Y-61979166D01*
X167422438Y-61979166D02*
X167517676Y-62074404D01*
X167517676Y-62074404D02*
X167612914Y-62122023D01*
X167612914Y-62122023D02*
X167803390Y-62169642D01*
X167803390Y-62169642D02*
X167946247Y-62169642D01*
X167946247Y-62169642D02*
X168136723Y-62122023D01*
X168136723Y-62122023D02*
X168231961Y-62074404D01*
X168231961Y-62074404D02*
X168327200Y-61979166D01*
X168327200Y-61979166D02*
X168374819Y-61836309D01*
X168374819Y-61836309D02*
X168374819Y-61598214D01*
X168374819Y-63122023D02*
X168374819Y-62550595D01*
X168374819Y-62836309D02*
X167374819Y-62836309D01*
X167374819Y-62836309D02*
X167517676Y-62741071D01*
X167517676Y-62741071D02*
X167612914Y-62645833D01*
X167612914Y-62645833D02*
X167660533Y-62550595D01*
X167470057Y-63502976D02*
X167422438Y-63550595D01*
X167422438Y-63550595D02*
X167374819Y-63645833D01*
X167374819Y-63645833D02*
X167374819Y-63883928D01*
X167374819Y-63883928D02*
X167422438Y-63979166D01*
X167422438Y-63979166D02*
X167470057Y-64026785D01*
X167470057Y-64026785D02*
X167565295Y-64074404D01*
X167565295Y-64074404D02*
X167660533Y-64074404D01*
X167660533Y-64074404D02*
X167803390Y-64026785D01*
X167803390Y-64026785D02*
X168374819Y-63455357D01*
X168374819Y-63455357D02*
X168374819Y-64074404D01*
X92374819Y-76598214D02*
X91374819Y-76598214D01*
X91374819Y-76598214D02*
X91374819Y-76836309D01*
X91374819Y-76836309D02*
X91422438Y-76979166D01*
X91422438Y-76979166D02*
X91517676Y-77074404D01*
X91517676Y-77074404D02*
X91612914Y-77122023D01*
X91612914Y-77122023D02*
X91803390Y-77169642D01*
X91803390Y-77169642D02*
X91946247Y-77169642D01*
X91946247Y-77169642D02*
X92136723Y-77122023D01*
X92136723Y-77122023D02*
X92231961Y-77074404D01*
X92231961Y-77074404D02*
X92327200Y-76979166D01*
X92327200Y-76979166D02*
X92374819Y-76836309D01*
X92374819Y-76836309D02*
X92374819Y-76598214D01*
X92374819Y-78122023D02*
X92374819Y-77550595D01*
X92374819Y-77836309D02*
X91374819Y-77836309D01*
X91374819Y-77836309D02*
X91517676Y-77741071D01*
X91517676Y-77741071D02*
X91612914Y-77645833D01*
X91612914Y-77645833D02*
X91660533Y-77550595D01*
X91708152Y-78979166D02*
X92374819Y-78979166D01*
X91327200Y-78741071D02*
X92041485Y-78502976D01*
X92041485Y-78502976D02*
X92041485Y-79122023D01*
X111374819Y-73598214D02*
X110374819Y-73598214D01*
X110374819Y-73598214D02*
X110374819Y-73836309D01*
X110374819Y-73836309D02*
X110422438Y-73979166D01*
X110422438Y-73979166D02*
X110517676Y-74074404D01*
X110517676Y-74074404D02*
X110612914Y-74122023D01*
X110612914Y-74122023D02*
X110803390Y-74169642D01*
X110803390Y-74169642D02*
X110946247Y-74169642D01*
X110946247Y-74169642D02*
X111136723Y-74122023D01*
X111136723Y-74122023D02*
X111231961Y-74074404D01*
X111231961Y-74074404D02*
X111327200Y-73979166D01*
X111327200Y-73979166D02*
X111374819Y-73836309D01*
X111374819Y-73836309D02*
X111374819Y-73598214D01*
X111374819Y-75122023D02*
X111374819Y-74550595D01*
X111374819Y-74836309D02*
X110374819Y-74836309D01*
X110374819Y-74836309D02*
X110517676Y-74741071D01*
X110517676Y-74741071D02*
X110612914Y-74645833D01*
X110612914Y-74645833D02*
X110660533Y-74550595D01*
X110374819Y-76026785D02*
X110374819Y-75550595D01*
X110374819Y-75550595D02*
X110851009Y-75502976D01*
X110851009Y-75502976D02*
X110803390Y-75550595D01*
X110803390Y-75550595D02*
X110755771Y-75645833D01*
X110755771Y-75645833D02*
X110755771Y-75883928D01*
X110755771Y-75883928D02*
X110803390Y-75979166D01*
X110803390Y-75979166D02*
X110851009Y-76026785D01*
X110851009Y-76026785D02*
X110946247Y-76074404D01*
X110946247Y-76074404D02*
X111184342Y-76074404D01*
X111184342Y-76074404D02*
X111279580Y-76026785D01*
X111279580Y-76026785D02*
X111327200Y-75979166D01*
X111327200Y-75979166D02*
X111374819Y-75883928D01*
X111374819Y-75883928D02*
X111374819Y-75645833D01*
X111374819Y-75645833D02*
X111327200Y-75550595D01*
X111327200Y-75550595D02*
X111279580Y-75502976D01*
X111374819Y-37824405D02*
X110374819Y-37824405D01*
X110374819Y-37824405D02*
X110374819Y-38062500D01*
X110374819Y-38062500D02*
X110422438Y-38205357D01*
X110422438Y-38205357D02*
X110517676Y-38300595D01*
X110517676Y-38300595D02*
X110612914Y-38348214D01*
X110612914Y-38348214D02*
X110803390Y-38395833D01*
X110803390Y-38395833D02*
X110946247Y-38395833D01*
X110946247Y-38395833D02*
X111136723Y-38348214D01*
X111136723Y-38348214D02*
X111231961Y-38300595D01*
X111231961Y-38300595D02*
X111327200Y-38205357D01*
X111327200Y-38205357D02*
X111374819Y-38062500D01*
X111374819Y-38062500D02*
X111374819Y-37824405D01*
X110374819Y-38729167D02*
X110374819Y-39348214D01*
X110374819Y-39348214D02*
X110755771Y-39014881D01*
X110755771Y-39014881D02*
X110755771Y-39157738D01*
X110755771Y-39157738D02*
X110803390Y-39252976D01*
X110803390Y-39252976D02*
X110851009Y-39300595D01*
X110851009Y-39300595D02*
X110946247Y-39348214D01*
X110946247Y-39348214D02*
X111184342Y-39348214D01*
X111184342Y-39348214D02*
X111279580Y-39300595D01*
X111279580Y-39300595D02*
X111327200Y-39252976D01*
X111327200Y-39252976D02*
X111374819Y-39157738D01*
X111374819Y-39157738D02*
X111374819Y-38872024D01*
X111374819Y-38872024D02*
X111327200Y-38776786D01*
X111327200Y-38776786D02*
X111279580Y-38729167D01*
X92374819Y-94848214D02*
X91374819Y-94848214D01*
X91374819Y-94848214D02*
X91374819Y-95086309D01*
X91374819Y-95086309D02*
X91422438Y-95229166D01*
X91422438Y-95229166D02*
X91517676Y-95324404D01*
X91517676Y-95324404D02*
X91612914Y-95372023D01*
X91612914Y-95372023D02*
X91803390Y-95419642D01*
X91803390Y-95419642D02*
X91946247Y-95419642D01*
X91946247Y-95419642D02*
X92136723Y-95372023D01*
X92136723Y-95372023D02*
X92231961Y-95324404D01*
X92231961Y-95324404D02*
X92327200Y-95229166D01*
X92327200Y-95229166D02*
X92374819Y-95086309D01*
X92374819Y-95086309D02*
X92374819Y-94848214D01*
X91470057Y-95800595D02*
X91422438Y-95848214D01*
X91422438Y-95848214D02*
X91374819Y-95943452D01*
X91374819Y-95943452D02*
X91374819Y-96181547D01*
X91374819Y-96181547D02*
X91422438Y-96276785D01*
X91422438Y-96276785D02*
X91470057Y-96324404D01*
X91470057Y-96324404D02*
X91565295Y-96372023D01*
X91565295Y-96372023D02*
X91660533Y-96372023D01*
X91660533Y-96372023D02*
X91803390Y-96324404D01*
X91803390Y-96324404D02*
X92374819Y-95752976D01*
X92374819Y-95752976D02*
X92374819Y-96372023D01*
X91470057Y-96752976D02*
X91422438Y-96800595D01*
X91422438Y-96800595D02*
X91374819Y-96895833D01*
X91374819Y-96895833D02*
X91374819Y-97133928D01*
X91374819Y-97133928D02*
X91422438Y-97229166D01*
X91422438Y-97229166D02*
X91470057Y-97276785D01*
X91470057Y-97276785D02*
X91565295Y-97324404D01*
X91565295Y-97324404D02*
X91660533Y-97324404D01*
X91660533Y-97324404D02*
X91803390Y-97276785D01*
X91803390Y-97276785D02*
X92374819Y-96705357D01*
X92374819Y-96705357D02*
X92374819Y-97324404D01*
X111374819Y-91278214D02*
X110374819Y-91278214D01*
X110374819Y-91278214D02*
X110374819Y-91516309D01*
X110374819Y-91516309D02*
X110422438Y-91659166D01*
X110422438Y-91659166D02*
X110517676Y-91754404D01*
X110517676Y-91754404D02*
X110612914Y-91802023D01*
X110612914Y-91802023D02*
X110803390Y-91849642D01*
X110803390Y-91849642D02*
X110946247Y-91849642D01*
X110946247Y-91849642D02*
X111136723Y-91802023D01*
X111136723Y-91802023D02*
X111231961Y-91754404D01*
X111231961Y-91754404D02*
X111327200Y-91659166D01*
X111327200Y-91659166D02*
X111374819Y-91516309D01*
X111374819Y-91516309D02*
X111374819Y-91278214D01*
X110470057Y-92230595D02*
X110422438Y-92278214D01*
X110422438Y-92278214D02*
X110374819Y-92373452D01*
X110374819Y-92373452D02*
X110374819Y-92611547D01*
X110374819Y-92611547D02*
X110422438Y-92706785D01*
X110422438Y-92706785D02*
X110470057Y-92754404D01*
X110470057Y-92754404D02*
X110565295Y-92802023D01*
X110565295Y-92802023D02*
X110660533Y-92802023D01*
X110660533Y-92802023D02*
X110803390Y-92754404D01*
X110803390Y-92754404D02*
X111374819Y-92182976D01*
X111374819Y-92182976D02*
X111374819Y-92802023D01*
X110374819Y-93135357D02*
X110374819Y-93754404D01*
X110374819Y-93754404D02*
X110755771Y-93421071D01*
X110755771Y-93421071D02*
X110755771Y-93563928D01*
X110755771Y-93563928D02*
X110803390Y-93659166D01*
X110803390Y-93659166D02*
X110851009Y-93706785D01*
X110851009Y-93706785D02*
X110946247Y-93754404D01*
X110946247Y-93754404D02*
X111184342Y-93754404D01*
X111184342Y-93754404D02*
X111279580Y-93706785D01*
X111279580Y-93706785D02*
X111327200Y-93659166D01*
X111327200Y-93659166D02*
X111374819Y-93563928D01*
X111374819Y-93563928D02*
X111374819Y-93278214D01*
X111374819Y-93278214D02*
X111327200Y-93182976D01*
X111327200Y-93182976D02*
X111279580Y-93135357D01*
X149374819Y-58598214D02*
X148374819Y-58598214D01*
X148374819Y-58598214D02*
X148374819Y-58836309D01*
X148374819Y-58836309D02*
X148422438Y-58979166D01*
X148422438Y-58979166D02*
X148517676Y-59074404D01*
X148517676Y-59074404D02*
X148612914Y-59122023D01*
X148612914Y-59122023D02*
X148803390Y-59169642D01*
X148803390Y-59169642D02*
X148946247Y-59169642D01*
X148946247Y-59169642D02*
X149136723Y-59122023D01*
X149136723Y-59122023D02*
X149231961Y-59074404D01*
X149231961Y-59074404D02*
X149327200Y-58979166D01*
X149327200Y-58979166D02*
X149374819Y-58836309D01*
X149374819Y-58836309D02*
X149374819Y-58598214D01*
X149374819Y-60122023D02*
X149374819Y-59550595D01*
X149374819Y-59836309D02*
X148374819Y-59836309D01*
X148374819Y-59836309D02*
X148517676Y-59741071D01*
X148517676Y-59741071D02*
X148612914Y-59645833D01*
X148612914Y-59645833D02*
X148660533Y-59550595D01*
X149374819Y-61074404D02*
X149374819Y-60502976D01*
X149374819Y-60788690D02*
X148374819Y-60788690D01*
X148374819Y-60788690D02*
X148517676Y-60693452D01*
X148517676Y-60693452D02*
X148612914Y-60598214D01*
X148612914Y-60598214D02*
X148660533Y-60502976D01*
X77840819Y-61745905D02*
X76840819Y-61745905D01*
X76840819Y-61745905D02*
X76840819Y-61984000D01*
X76840819Y-61984000D02*
X76888438Y-62126857D01*
X76888438Y-62126857D02*
X76983676Y-62222095D01*
X76983676Y-62222095D02*
X77078914Y-62269714D01*
X77078914Y-62269714D02*
X77269390Y-62317333D01*
X77269390Y-62317333D02*
X77412247Y-62317333D01*
X77412247Y-62317333D02*
X77602723Y-62269714D01*
X77602723Y-62269714D02*
X77697961Y-62222095D01*
X77697961Y-62222095D02*
X77793200Y-62126857D01*
X77793200Y-62126857D02*
X77840819Y-61984000D01*
X77840819Y-61984000D02*
X77840819Y-61745905D01*
X76840819Y-62650667D02*
X76840819Y-63317333D01*
X76840819Y-63317333D02*
X77840819Y-62888762D01*
X54728789Y-104022135D02*
X55706936Y-103814224D01*
X55706936Y-103814224D02*
X55657433Y-103581331D01*
X55657433Y-103581331D02*
X55581153Y-103451497D01*
X55581153Y-103451497D02*
X55468195Y-103378141D01*
X55468195Y-103378141D02*
X55365138Y-103351363D01*
X55365138Y-103351363D02*
X55168923Y-103344387D01*
X55168923Y-103344387D02*
X55029188Y-103374089D01*
X55029188Y-103374089D02*
X54852775Y-103460270D01*
X54852775Y-103460270D02*
X54769518Y-103526649D01*
X54769518Y-103526649D02*
X54696163Y-103639607D01*
X54696163Y-103639607D02*
X54679286Y-103789243D01*
X54679286Y-103789243D02*
X54728789Y-104022135D01*
X55415768Y-102902456D02*
X55452446Y-102845977D01*
X55452446Y-102845977D02*
X55479223Y-102742919D01*
X55479223Y-102742919D02*
X55429721Y-102510027D01*
X55429721Y-102510027D02*
X55363341Y-102426771D01*
X55363341Y-102426771D02*
X55306862Y-102390093D01*
X55306862Y-102390093D02*
X55203805Y-102363315D01*
X55203805Y-102363315D02*
X55110648Y-102383116D01*
X55110648Y-102383116D02*
X54980813Y-102459397D01*
X54980813Y-102459397D02*
X54540678Y-103137145D01*
X54540678Y-103137145D02*
X54411971Y-102531625D01*
X55261411Y-101718193D02*
X55241610Y-101625036D01*
X55241610Y-101625036D02*
X55175230Y-101541780D01*
X55175230Y-101541780D02*
X55118751Y-101505102D01*
X55118751Y-101505102D02*
X55015694Y-101478325D01*
X55015694Y-101478325D02*
X54819480Y-101471348D01*
X54819480Y-101471348D02*
X54586587Y-101520851D01*
X54586587Y-101520851D02*
X54410174Y-101607032D01*
X54410174Y-101607032D02*
X54326918Y-101673411D01*
X54326918Y-101673411D02*
X54290240Y-101729890D01*
X54290240Y-101729890D02*
X54263462Y-101832948D01*
X54263462Y-101832948D02*
X54283263Y-101926105D01*
X54283263Y-101926105D02*
X54349643Y-102009361D01*
X54349643Y-102009361D02*
X54406122Y-102046039D01*
X54406122Y-102046039D02*
X54509180Y-102072816D01*
X54509180Y-102072816D02*
X54705394Y-102079793D01*
X54705394Y-102079793D02*
X54938286Y-102030290D01*
X54938286Y-102030290D02*
X55114699Y-101944109D01*
X55114699Y-101944109D02*
X55197956Y-101877730D01*
X55197956Y-101877730D02*
X55234634Y-101821251D01*
X55234634Y-101821251D02*
X55261411Y-101718193D01*
X130374819Y-91598214D02*
X129374819Y-91598214D01*
X129374819Y-91598214D02*
X129374819Y-91836309D01*
X129374819Y-91836309D02*
X129422438Y-91979166D01*
X129422438Y-91979166D02*
X129517676Y-92074404D01*
X129517676Y-92074404D02*
X129612914Y-92122023D01*
X129612914Y-92122023D02*
X129803390Y-92169642D01*
X129803390Y-92169642D02*
X129946247Y-92169642D01*
X129946247Y-92169642D02*
X130136723Y-92122023D01*
X130136723Y-92122023D02*
X130231961Y-92074404D01*
X130231961Y-92074404D02*
X130327200Y-91979166D01*
X130327200Y-91979166D02*
X130374819Y-91836309D01*
X130374819Y-91836309D02*
X130374819Y-91598214D01*
X129470057Y-92550595D02*
X129422438Y-92598214D01*
X129422438Y-92598214D02*
X129374819Y-92693452D01*
X129374819Y-92693452D02*
X129374819Y-92931547D01*
X129374819Y-92931547D02*
X129422438Y-93026785D01*
X129422438Y-93026785D02*
X129470057Y-93074404D01*
X129470057Y-93074404D02*
X129565295Y-93122023D01*
X129565295Y-93122023D02*
X129660533Y-93122023D01*
X129660533Y-93122023D02*
X129803390Y-93074404D01*
X129803390Y-93074404D02*
X130374819Y-92502976D01*
X130374819Y-92502976D02*
X130374819Y-93122023D01*
X130374819Y-93598214D02*
X130374819Y-93788690D01*
X130374819Y-93788690D02*
X130327200Y-93883928D01*
X130327200Y-93883928D02*
X130279580Y-93931547D01*
X130279580Y-93931547D02*
X130136723Y-94026785D01*
X130136723Y-94026785D02*
X129946247Y-94074404D01*
X129946247Y-94074404D02*
X129565295Y-94074404D01*
X129565295Y-94074404D02*
X129470057Y-94026785D01*
X129470057Y-94026785D02*
X129422438Y-93979166D01*
X129422438Y-93979166D02*
X129374819Y-93883928D01*
X129374819Y-93883928D02*
X129374819Y-93693452D01*
X129374819Y-93693452D02*
X129422438Y-93598214D01*
X129422438Y-93598214D02*
X129470057Y-93550595D01*
X129470057Y-93550595D02*
X129565295Y-93502976D01*
X129565295Y-93502976D02*
X129803390Y-93502976D01*
X129803390Y-93502976D02*
X129898628Y-93550595D01*
X129898628Y-93550595D02*
X129946247Y-93598214D01*
X129946247Y-93598214D02*
X129993866Y-93693452D01*
X129993866Y-93693452D02*
X129993866Y-93883928D01*
X129993866Y-93883928D02*
X129946247Y-93979166D01*
X129946247Y-93979166D02*
X129898628Y-94026785D01*
X129898628Y-94026785D02*
X129803390Y-94074404D01*
X130374819Y-38074405D02*
X129374819Y-38074405D01*
X129374819Y-38074405D02*
X129374819Y-38312500D01*
X129374819Y-38312500D02*
X129422438Y-38455357D01*
X129422438Y-38455357D02*
X129517676Y-38550595D01*
X129517676Y-38550595D02*
X129612914Y-38598214D01*
X129612914Y-38598214D02*
X129803390Y-38645833D01*
X129803390Y-38645833D02*
X129946247Y-38645833D01*
X129946247Y-38645833D02*
X130136723Y-38598214D01*
X130136723Y-38598214D02*
X130231961Y-38550595D01*
X130231961Y-38550595D02*
X130327200Y-38455357D01*
X130327200Y-38455357D02*
X130374819Y-38312500D01*
X130374819Y-38312500D02*
X130374819Y-38074405D01*
X129708152Y-39502976D02*
X130374819Y-39502976D01*
X129327200Y-39264881D02*
X130041485Y-39026786D01*
X130041485Y-39026786D02*
X130041485Y-39645833D01*
X88274571Y-44075819D02*
X88607904Y-43599628D01*
X88845999Y-44075819D02*
X88845999Y-43075819D01*
X88845999Y-43075819D02*
X88465047Y-43075819D01*
X88465047Y-43075819D02*
X88369809Y-43123438D01*
X88369809Y-43123438D02*
X88322190Y-43171057D01*
X88322190Y-43171057D02*
X88274571Y-43266295D01*
X88274571Y-43266295D02*
X88274571Y-43409152D01*
X88274571Y-43409152D02*
X88322190Y-43504390D01*
X88322190Y-43504390D02*
X88369809Y-43552009D01*
X88369809Y-43552009D02*
X88465047Y-43599628D01*
X88465047Y-43599628D02*
X88845999Y-43599628D01*
X87845999Y-43552009D02*
X87512666Y-43552009D01*
X87369809Y-44075819D02*
X87845999Y-44075819D01*
X87845999Y-44075819D02*
X87845999Y-43075819D01*
X87845999Y-43075819D02*
X87369809Y-43075819D01*
X86988856Y-44028200D02*
X86845999Y-44075819D01*
X86845999Y-44075819D02*
X86607904Y-44075819D01*
X86607904Y-44075819D02*
X86512666Y-44028200D01*
X86512666Y-44028200D02*
X86465047Y-43980580D01*
X86465047Y-43980580D02*
X86417428Y-43885342D01*
X86417428Y-43885342D02*
X86417428Y-43790104D01*
X86417428Y-43790104D02*
X86465047Y-43694866D01*
X86465047Y-43694866D02*
X86512666Y-43647247D01*
X86512666Y-43647247D02*
X86607904Y-43599628D01*
X86607904Y-43599628D02*
X86798380Y-43552009D01*
X86798380Y-43552009D02*
X86893618Y-43504390D01*
X86893618Y-43504390D02*
X86941237Y-43456771D01*
X86941237Y-43456771D02*
X86988856Y-43361533D01*
X86988856Y-43361533D02*
X86988856Y-43266295D01*
X86988856Y-43266295D02*
X86941237Y-43171057D01*
X86941237Y-43171057D02*
X86893618Y-43123438D01*
X86893618Y-43123438D02*
X86798380Y-43075819D01*
X86798380Y-43075819D02*
X86560285Y-43075819D01*
X86560285Y-43075819D02*
X86417428Y-43123438D01*
X85988856Y-43552009D02*
X85655523Y-43552009D01*
X85512666Y-44075819D02*
X85988856Y-44075819D01*
X85988856Y-44075819D02*
X85988856Y-43075819D01*
X85988856Y-43075819D02*
X85512666Y-43075819D01*
X85226951Y-43075819D02*
X84655523Y-43075819D01*
X84941237Y-44075819D02*
X84941237Y-43075819D01*
X83798380Y-44075819D02*
X84369808Y-44075819D01*
X84084094Y-44075819D02*
X84084094Y-43075819D01*
X84084094Y-43075819D02*
X84179332Y-43218676D01*
X84179332Y-43218676D02*
X84274570Y-43313914D01*
X84274570Y-43313914D02*
X84369808Y-43361533D01*
X92374819Y-41074405D02*
X91374819Y-41074405D01*
X91374819Y-41074405D02*
X91374819Y-41312500D01*
X91374819Y-41312500D02*
X91422438Y-41455357D01*
X91422438Y-41455357D02*
X91517676Y-41550595D01*
X91517676Y-41550595D02*
X91612914Y-41598214D01*
X91612914Y-41598214D02*
X91803390Y-41645833D01*
X91803390Y-41645833D02*
X91946247Y-41645833D01*
X91946247Y-41645833D02*
X92136723Y-41598214D01*
X92136723Y-41598214D02*
X92231961Y-41550595D01*
X92231961Y-41550595D02*
X92327200Y-41455357D01*
X92327200Y-41455357D02*
X92374819Y-41312500D01*
X92374819Y-41312500D02*
X92374819Y-41074405D01*
X91470057Y-42026786D02*
X91422438Y-42074405D01*
X91422438Y-42074405D02*
X91374819Y-42169643D01*
X91374819Y-42169643D02*
X91374819Y-42407738D01*
X91374819Y-42407738D02*
X91422438Y-42502976D01*
X91422438Y-42502976D02*
X91470057Y-42550595D01*
X91470057Y-42550595D02*
X91565295Y-42598214D01*
X91565295Y-42598214D02*
X91660533Y-42598214D01*
X91660533Y-42598214D02*
X91803390Y-42550595D01*
X91803390Y-42550595D02*
X92374819Y-41979167D01*
X92374819Y-41979167D02*
X92374819Y-42598214D01*
X97496319Y-58913905D02*
X96496319Y-58913905D01*
X96496319Y-58913905D02*
X96496319Y-59152000D01*
X96496319Y-59152000D02*
X96543938Y-59294857D01*
X96543938Y-59294857D02*
X96639176Y-59390095D01*
X96639176Y-59390095D02*
X96734414Y-59437714D01*
X96734414Y-59437714D02*
X96924890Y-59485333D01*
X96924890Y-59485333D02*
X97067747Y-59485333D01*
X97067747Y-59485333D02*
X97258223Y-59437714D01*
X97258223Y-59437714D02*
X97353461Y-59390095D01*
X97353461Y-59390095D02*
X97448700Y-59294857D01*
X97448700Y-59294857D02*
X97496319Y-59152000D01*
X97496319Y-59152000D02*
X97496319Y-58913905D01*
X96924890Y-60056762D02*
X96877271Y-59961524D01*
X96877271Y-59961524D02*
X96829652Y-59913905D01*
X96829652Y-59913905D02*
X96734414Y-59866286D01*
X96734414Y-59866286D02*
X96686795Y-59866286D01*
X96686795Y-59866286D02*
X96591557Y-59913905D01*
X96591557Y-59913905D02*
X96543938Y-59961524D01*
X96543938Y-59961524D02*
X96496319Y-60056762D01*
X96496319Y-60056762D02*
X96496319Y-60247238D01*
X96496319Y-60247238D02*
X96543938Y-60342476D01*
X96543938Y-60342476D02*
X96591557Y-60390095D01*
X96591557Y-60390095D02*
X96686795Y-60437714D01*
X96686795Y-60437714D02*
X96734414Y-60437714D01*
X96734414Y-60437714D02*
X96829652Y-60390095D01*
X96829652Y-60390095D02*
X96877271Y-60342476D01*
X96877271Y-60342476D02*
X96924890Y-60247238D01*
X96924890Y-60247238D02*
X96924890Y-60056762D01*
X96924890Y-60056762D02*
X96972509Y-59961524D01*
X96972509Y-59961524D02*
X97020128Y-59913905D01*
X97020128Y-59913905D02*
X97115366Y-59866286D01*
X97115366Y-59866286D02*
X97305842Y-59866286D01*
X97305842Y-59866286D02*
X97401080Y-59913905D01*
X97401080Y-59913905D02*
X97448700Y-59961524D01*
X97448700Y-59961524D02*
X97496319Y-60056762D01*
X97496319Y-60056762D02*
X97496319Y-60247238D01*
X97496319Y-60247238D02*
X97448700Y-60342476D01*
X97448700Y-60342476D02*
X97401080Y-60390095D01*
X97401080Y-60390095D02*
X97305842Y-60437714D01*
X97305842Y-60437714D02*
X97115366Y-60437714D01*
X97115366Y-60437714D02*
X97020128Y-60390095D01*
X97020128Y-60390095D02*
X96972509Y-60342476D01*
X96972509Y-60342476D02*
X96924890Y-60247238D01*
X168374819Y-76598214D02*
X167374819Y-76598214D01*
X167374819Y-76598214D02*
X167374819Y-76836309D01*
X167374819Y-76836309D02*
X167422438Y-76979166D01*
X167422438Y-76979166D02*
X167517676Y-77074404D01*
X167517676Y-77074404D02*
X167612914Y-77122023D01*
X167612914Y-77122023D02*
X167803390Y-77169642D01*
X167803390Y-77169642D02*
X167946247Y-77169642D01*
X167946247Y-77169642D02*
X168136723Y-77122023D01*
X168136723Y-77122023D02*
X168231961Y-77074404D01*
X168231961Y-77074404D02*
X168327200Y-76979166D01*
X168327200Y-76979166D02*
X168374819Y-76836309D01*
X168374819Y-76836309D02*
X168374819Y-76598214D01*
X168374819Y-78122023D02*
X168374819Y-77550595D01*
X168374819Y-77836309D02*
X167374819Y-77836309D01*
X167374819Y-77836309D02*
X167517676Y-77741071D01*
X167517676Y-77741071D02*
X167612914Y-77645833D01*
X167612914Y-77645833D02*
X167660533Y-77550595D01*
X167803390Y-78693452D02*
X167755771Y-78598214D01*
X167755771Y-78598214D02*
X167708152Y-78550595D01*
X167708152Y-78550595D02*
X167612914Y-78502976D01*
X167612914Y-78502976D02*
X167565295Y-78502976D01*
X167565295Y-78502976D02*
X167470057Y-78550595D01*
X167470057Y-78550595D02*
X167422438Y-78598214D01*
X167422438Y-78598214D02*
X167374819Y-78693452D01*
X167374819Y-78693452D02*
X167374819Y-78883928D01*
X167374819Y-78883928D02*
X167422438Y-78979166D01*
X167422438Y-78979166D02*
X167470057Y-79026785D01*
X167470057Y-79026785D02*
X167565295Y-79074404D01*
X167565295Y-79074404D02*
X167612914Y-79074404D01*
X167612914Y-79074404D02*
X167708152Y-79026785D01*
X167708152Y-79026785D02*
X167755771Y-78979166D01*
X167755771Y-78979166D02*
X167803390Y-78883928D01*
X167803390Y-78883928D02*
X167803390Y-78693452D01*
X167803390Y-78693452D02*
X167851009Y-78598214D01*
X167851009Y-78598214D02*
X167898628Y-78550595D01*
X167898628Y-78550595D02*
X167993866Y-78502976D01*
X167993866Y-78502976D02*
X168184342Y-78502976D01*
X168184342Y-78502976D02*
X168279580Y-78550595D01*
X168279580Y-78550595D02*
X168327200Y-78598214D01*
X168327200Y-78598214D02*
X168374819Y-78693452D01*
X168374819Y-78693452D02*
X168374819Y-78883928D01*
X168374819Y-78883928D02*
X168327200Y-78979166D01*
X168327200Y-78979166D02*
X168279580Y-79026785D01*
X168279580Y-79026785D02*
X168184342Y-79074404D01*
X168184342Y-79074404D02*
X167993866Y-79074404D01*
X167993866Y-79074404D02*
X167898628Y-79026785D01*
X167898628Y-79026785D02*
X167851009Y-78979166D01*
X167851009Y-78979166D02*
X167803390Y-78883928D01*
X149374819Y-41074405D02*
X148374819Y-41074405D01*
X148374819Y-41074405D02*
X148374819Y-41312500D01*
X148374819Y-41312500D02*
X148422438Y-41455357D01*
X148422438Y-41455357D02*
X148517676Y-41550595D01*
X148517676Y-41550595D02*
X148612914Y-41598214D01*
X148612914Y-41598214D02*
X148803390Y-41645833D01*
X148803390Y-41645833D02*
X148946247Y-41645833D01*
X148946247Y-41645833D02*
X149136723Y-41598214D01*
X149136723Y-41598214D02*
X149231961Y-41550595D01*
X149231961Y-41550595D02*
X149327200Y-41455357D01*
X149327200Y-41455357D02*
X149374819Y-41312500D01*
X149374819Y-41312500D02*
X149374819Y-41074405D01*
X148374819Y-42550595D02*
X148374819Y-42074405D01*
X148374819Y-42074405D02*
X148851009Y-42026786D01*
X148851009Y-42026786D02*
X148803390Y-42074405D01*
X148803390Y-42074405D02*
X148755771Y-42169643D01*
X148755771Y-42169643D02*
X148755771Y-42407738D01*
X148755771Y-42407738D02*
X148803390Y-42502976D01*
X148803390Y-42502976D02*
X148851009Y-42550595D01*
X148851009Y-42550595D02*
X148946247Y-42598214D01*
X148946247Y-42598214D02*
X149184342Y-42598214D01*
X149184342Y-42598214D02*
X149279580Y-42550595D01*
X149279580Y-42550595D02*
X149327200Y-42502976D01*
X149327200Y-42502976D02*
X149374819Y-42407738D01*
X149374819Y-42407738D02*
X149374819Y-42169643D01*
X149374819Y-42169643D02*
X149327200Y-42074405D01*
X149327200Y-42074405D02*
X149279580Y-42026786D01*
X168374819Y-41074405D02*
X167374819Y-41074405D01*
X167374819Y-41074405D02*
X167374819Y-41312500D01*
X167374819Y-41312500D02*
X167422438Y-41455357D01*
X167422438Y-41455357D02*
X167517676Y-41550595D01*
X167517676Y-41550595D02*
X167612914Y-41598214D01*
X167612914Y-41598214D02*
X167803390Y-41645833D01*
X167803390Y-41645833D02*
X167946247Y-41645833D01*
X167946247Y-41645833D02*
X168136723Y-41598214D01*
X168136723Y-41598214D02*
X168231961Y-41550595D01*
X168231961Y-41550595D02*
X168327200Y-41455357D01*
X168327200Y-41455357D02*
X168374819Y-41312500D01*
X168374819Y-41312500D02*
X168374819Y-41074405D01*
X167374819Y-42502976D02*
X167374819Y-42312500D01*
X167374819Y-42312500D02*
X167422438Y-42217262D01*
X167422438Y-42217262D02*
X167470057Y-42169643D01*
X167470057Y-42169643D02*
X167612914Y-42074405D01*
X167612914Y-42074405D02*
X167803390Y-42026786D01*
X167803390Y-42026786D02*
X168184342Y-42026786D01*
X168184342Y-42026786D02*
X168279580Y-42074405D01*
X168279580Y-42074405D02*
X168327200Y-42122024D01*
X168327200Y-42122024D02*
X168374819Y-42217262D01*
X168374819Y-42217262D02*
X168374819Y-42407738D01*
X168374819Y-42407738D02*
X168327200Y-42502976D01*
X168327200Y-42502976D02*
X168279580Y-42550595D01*
X168279580Y-42550595D02*
X168184342Y-42598214D01*
X168184342Y-42598214D02*
X167946247Y-42598214D01*
X167946247Y-42598214D02*
X167851009Y-42550595D01*
X167851009Y-42550595D02*
X167803390Y-42502976D01*
X167803390Y-42502976D02*
X167755771Y-42407738D01*
X167755771Y-42407738D02*
X167755771Y-42217262D01*
X167755771Y-42217262D02*
X167803390Y-42122024D01*
X167803390Y-42122024D02*
X167851009Y-42074405D01*
X167851009Y-42074405D02*
X167946247Y-42026786D01*
X111374819Y-56074405D02*
X110374819Y-56074405D01*
X110374819Y-56074405D02*
X110374819Y-56312500D01*
X110374819Y-56312500D02*
X110422438Y-56455357D01*
X110422438Y-56455357D02*
X110517676Y-56550595D01*
X110517676Y-56550595D02*
X110612914Y-56598214D01*
X110612914Y-56598214D02*
X110803390Y-56645833D01*
X110803390Y-56645833D02*
X110946247Y-56645833D01*
X110946247Y-56645833D02*
X111136723Y-56598214D01*
X111136723Y-56598214D02*
X111231961Y-56550595D01*
X111231961Y-56550595D02*
X111327200Y-56455357D01*
X111327200Y-56455357D02*
X111374819Y-56312500D01*
X111374819Y-56312500D02*
X111374819Y-56074405D01*
X111374819Y-57122024D02*
X111374819Y-57312500D01*
X111374819Y-57312500D02*
X111327200Y-57407738D01*
X111327200Y-57407738D02*
X111279580Y-57455357D01*
X111279580Y-57455357D02*
X111136723Y-57550595D01*
X111136723Y-57550595D02*
X110946247Y-57598214D01*
X110946247Y-57598214D02*
X110565295Y-57598214D01*
X110565295Y-57598214D02*
X110470057Y-57550595D01*
X110470057Y-57550595D02*
X110422438Y-57502976D01*
X110422438Y-57502976D02*
X110374819Y-57407738D01*
X110374819Y-57407738D02*
X110374819Y-57217262D01*
X110374819Y-57217262D02*
X110422438Y-57122024D01*
X110422438Y-57122024D02*
X110470057Y-57074405D01*
X110470057Y-57074405D02*
X110565295Y-57026786D01*
X110565295Y-57026786D02*
X110803390Y-57026786D01*
X110803390Y-57026786D02*
X110898628Y-57074405D01*
X110898628Y-57074405D02*
X110946247Y-57122024D01*
X110946247Y-57122024D02*
X110993866Y-57217262D01*
X110993866Y-57217262D02*
X110993866Y-57407738D01*
X110993866Y-57407738D02*
X110946247Y-57502976D01*
X110946247Y-57502976D02*
X110898628Y-57550595D01*
X110898628Y-57550595D02*
X110803390Y-57598214D01*
X59772285Y-97872819D02*
X59772285Y-96872819D01*
X59772285Y-96872819D02*
X59534190Y-96872819D01*
X59534190Y-96872819D02*
X59391333Y-96920438D01*
X59391333Y-96920438D02*
X59296095Y-97015676D01*
X59296095Y-97015676D02*
X59248476Y-97110914D01*
X59248476Y-97110914D02*
X59200857Y-97301390D01*
X59200857Y-97301390D02*
X59200857Y-97444247D01*
X59200857Y-97444247D02*
X59248476Y-97634723D01*
X59248476Y-97634723D02*
X59296095Y-97729961D01*
X59296095Y-97729961D02*
X59391333Y-97825200D01*
X59391333Y-97825200D02*
X59534190Y-97872819D01*
X59534190Y-97872819D02*
X59772285Y-97872819D01*
X58248476Y-97872819D02*
X58819904Y-97872819D01*
X58534190Y-97872819D02*
X58534190Y-96872819D01*
X58534190Y-96872819D02*
X58629428Y-97015676D01*
X58629428Y-97015676D02*
X58724666Y-97110914D01*
X58724666Y-97110914D02*
X58819904Y-97158533D01*
X57772285Y-97872819D02*
X57581809Y-97872819D01*
X57581809Y-97872819D02*
X57486571Y-97825200D01*
X57486571Y-97825200D02*
X57438952Y-97777580D01*
X57438952Y-97777580D02*
X57343714Y-97634723D01*
X57343714Y-97634723D02*
X57296095Y-97444247D01*
X57296095Y-97444247D02*
X57296095Y-97063295D01*
X57296095Y-97063295D02*
X57343714Y-96968057D01*
X57343714Y-96968057D02*
X57391333Y-96920438D01*
X57391333Y-96920438D02*
X57486571Y-96872819D01*
X57486571Y-96872819D02*
X57677047Y-96872819D01*
X57677047Y-96872819D02*
X57772285Y-96920438D01*
X57772285Y-96920438D02*
X57819904Y-96968057D01*
X57819904Y-96968057D02*
X57867523Y-97063295D01*
X57867523Y-97063295D02*
X57867523Y-97301390D01*
X57867523Y-97301390D02*
X57819904Y-97396628D01*
X57819904Y-97396628D02*
X57772285Y-97444247D01*
X57772285Y-97444247D02*
X57677047Y-97491866D01*
X57677047Y-97491866D02*
X57486571Y-97491866D01*
X57486571Y-97491866D02*
X57391333Y-97444247D01*
X57391333Y-97444247D02*
X57343714Y-97396628D01*
X57343714Y-97396628D02*
X57296095Y-97301390D01*
X73654819Y-100848214D02*
X72654819Y-100848214D01*
X72654819Y-100848214D02*
X72654819Y-101086309D01*
X72654819Y-101086309D02*
X72702438Y-101229166D01*
X72702438Y-101229166D02*
X72797676Y-101324404D01*
X72797676Y-101324404D02*
X72892914Y-101372023D01*
X72892914Y-101372023D02*
X73083390Y-101419642D01*
X73083390Y-101419642D02*
X73226247Y-101419642D01*
X73226247Y-101419642D02*
X73416723Y-101372023D01*
X73416723Y-101372023D02*
X73511961Y-101324404D01*
X73511961Y-101324404D02*
X73607200Y-101229166D01*
X73607200Y-101229166D02*
X73654819Y-101086309D01*
X73654819Y-101086309D02*
X73654819Y-100848214D01*
X72750057Y-101800595D02*
X72702438Y-101848214D01*
X72702438Y-101848214D02*
X72654819Y-101943452D01*
X72654819Y-101943452D02*
X72654819Y-102181547D01*
X72654819Y-102181547D02*
X72702438Y-102276785D01*
X72702438Y-102276785D02*
X72750057Y-102324404D01*
X72750057Y-102324404D02*
X72845295Y-102372023D01*
X72845295Y-102372023D02*
X72940533Y-102372023D01*
X72940533Y-102372023D02*
X73083390Y-102324404D01*
X73083390Y-102324404D02*
X73654819Y-101752976D01*
X73654819Y-101752976D02*
X73654819Y-102372023D01*
X73654819Y-103324404D02*
X73654819Y-102752976D01*
X73654819Y-103038690D02*
X72654819Y-103038690D01*
X72654819Y-103038690D02*
X72797676Y-102943452D01*
X72797676Y-102943452D02*
X72892914Y-102848214D01*
X72892914Y-102848214D02*
X72940533Y-102752976D01*
X130374819Y-77098214D02*
X129374819Y-77098214D01*
X129374819Y-77098214D02*
X129374819Y-77336309D01*
X129374819Y-77336309D02*
X129422438Y-77479166D01*
X129422438Y-77479166D02*
X129517676Y-77574404D01*
X129517676Y-77574404D02*
X129612914Y-77622023D01*
X129612914Y-77622023D02*
X129803390Y-77669642D01*
X129803390Y-77669642D02*
X129946247Y-77669642D01*
X129946247Y-77669642D02*
X130136723Y-77622023D01*
X130136723Y-77622023D02*
X130231961Y-77574404D01*
X130231961Y-77574404D02*
X130327200Y-77479166D01*
X130327200Y-77479166D02*
X130374819Y-77336309D01*
X130374819Y-77336309D02*
X130374819Y-77098214D01*
X130374819Y-78622023D02*
X130374819Y-78050595D01*
X130374819Y-78336309D02*
X129374819Y-78336309D01*
X129374819Y-78336309D02*
X129517676Y-78241071D01*
X129517676Y-78241071D02*
X129612914Y-78145833D01*
X129612914Y-78145833D02*
X129660533Y-78050595D01*
X129374819Y-79479166D02*
X129374819Y-79288690D01*
X129374819Y-79288690D02*
X129422438Y-79193452D01*
X129422438Y-79193452D02*
X129470057Y-79145833D01*
X129470057Y-79145833D02*
X129612914Y-79050595D01*
X129612914Y-79050595D02*
X129803390Y-79002976D01*
X129803390Y-79002976D02*
X130184342Y-79002976D01*
X130184342Y-79002976D02*
X130279580Y-79050595D01*
X130279580Y-79050595D02*
X130327200Y-79098214D01*
X130327200Y-79098214D02*
X130374819Y-79193452D01*
X130374819Y-79193452D02*
X130374819Y-79383928D01*
X130374819Y-79383928D02*
X130327200Y-79479166D01*
X130327200Y-79479166D02*
X130279580Y-79526785D01*
X130279580Y-79526785D02*
X130184342Y-79574404D01*
X130184342Y-79574404D02*
X129946247Y-79574404D01*
X129946247Y-79574404D02*
X129851009Y-79526785D01*
X129851009Y-79526785D02*
X129803390Y-79479166D01*
X129803390Y-79479166D02*
X129755771Y-79383928D01*
X129755771Y-79383928D02*
X129755771Y-79193452D01*
X129755771Y-79193452D02*
X129803390Y-79098214D01*
X129803390Y-79098214D02*
X129851009Y-79050595D01*
X129851009Y-79050595D02*
X129946247Y-79002976D01*
X152820000Y-48030000D02*
X152820000Y-48530000D01*
X152820000Y-52130000D02*
X152820000Y-52730000D01*
X152820000Y-52730000D02*
X157320000Y-52730000D01*
X157320000Y-48030000D02*
X152820000Y-48030000D01*
X157320000Y-48730000D02*
X157320000Y-48030000D01*
X157820000Y-53230000D02*
X157820000Y-54230000D01*
X158320000Y-54730000D02*
X157820000Y-54230000D01*
X161320000Y-50230000D02*
X158820000Y-50230000D01*
X161320000Y-54730000D02*
X158320000Y-54730000D01*
X161820000Y-50730000D02*
X161320000Y-50230000D01*
X161820000Y-54230000D02*
X161320000Y-54730000D01*
X157820000Y-53230000D02*
G75*
G03*
X157320000Y-52730000I-500001J-1D01*
G01*
X157320000Y-48730000D02*
G75*
G03*
X158820000Y-50230000I1500001J1D01*
G01*
X114820000Y-99030000D02*
X114820000Y-99530000D01*
X114820000Y-103130000D02*
X114820000Y-103730000D01*
X114820000Y-103730000D02*
X119320000Y-103730000D01*
X119320000Y-99030000D02*
X114820000Y-99030000D01*
X119320000Y-99730000D02*
X119320000Y-99030000D01*
X119820000Y-104230000D02*
X119820000Y-105230000D01*
X120320000Y-105730000D02*
X119820000Y-105230000D01*
X123320000Y-101230000D02*
X120820000Y-101230000D01*
X123320000Y-105730000D02*
X120320000Y-105730000D01*
X123820000Y-101730000D02*
X123320000Y-101230000D01*
X123820000Y-105230000D02*
X123320000Y-105730000D01*
X119820000Y-104230000D02*
G75*
G03*
X119320000Y-103730000I-500001J-1D01*
G01*
X119320000Y-99730000D02*
G75*
G03*
X120820000Y-101230000I1500001J1D01*
G01*
X133820000Y-99030000D02*
X133820000Y-99530000D01*
X133820000Y-103130000D02*
X133820000Y-103730000D01*
X133820000Y-103730000D02*
X138320000Y-103730000D01*
X138320000Y-99030000D02*
X133820000Y-99030000D01*
X138320000Y-99730000D02*
X138320000Y-99030000D01*
X138820000Y-104230000D02*
X138820000Y-105230000D01*
X139320000Y-105730000D02*
X138820000Y-105230000D01*
X142320000Y-101230000D02*
X139820000Y-101230000D01*
X142320000Y-105730000D02*
X139320000Y-105730000D01*
X142820000Y-101730000D02*
X142320000Y-101230000D01*
X142820000Y-105230000D02*
X142320000Y-105730000D01*
X138820000Y-104230000D02*
G75*
G03*
X138320000Y-103730000I-500001J-1D01*
G01*
X138320000Y-99730000D02*
G75*
G03*
X139820000Y-101230000I1500001J1D01*
G01*
X133820000Y-63030000D02*
X133820000Y-63530000D01*
X133820000Y-67130000D02*
X133820000Y-67730000D01*
X133820000Y-67730000D02*
X138320000Y-67730000D01*
X138320000Y-63030000D02*
X133820000Y-63030000D01*
X138320000Y-63730000D02*
X138320000Y-63030000D01*
X138820000Y-68230000D02*
X138820000Y-69230000D01*
X139320000Y-69730000D02*
X138820000Y-69230000D01*
X142320000Y-65230000D02*
X139820000Y-65230000D01*
X142320000Y-69730000D02*
X139320000Y-69730000D01*
X142820000Y-65730000D02*
X142320000Y-65230000D01*
X142820000Y-69230000D02*
X142320000Y-69730000D01*
X138820000Y-68230000D02*
G75*
G03*
X138320000Y-67730000I-500001J-1D01*
G01*
X138320000Y-63730000D02*
G75*
G03*
X139820000Y-65230000I1500001J1D01*
G01*
X152820000Y-66030000D02*
X152820000Y-66530000D01*
X152820000Y-70130000D02*
X152820000Y-70730000D01*
X152820000Y-70730000D02*
X157320000Y-70730000D01*
X157320000Y-66030000D02*
X152820000Y-66030000D01*
X157320000Y-66730000D02*
X157320000Y-66030000D01*
X157820000Y-71230000D02*
X157820000Y-72230000D01*
X158320000Y-72730000D02*
X157820000Y-72230000D01*
X161320000Y-68230000D02*
X158820000Y-68230000D01*
X161320000Y-72730000D02*
X158320000Y-72730000D01*
X161820000Y-68730000D02*
X161320000Y-68230000D01*
X161820000Y-72230000D02*
X161320000Y-72730000D01*
X157820000Y-71230000D02*
G75*
G03*
X157320000Y-70730000I-500001J-1D01*
G01*
X157320000Y-66730000D02*
G75*
G03*
X158820000Y-68230000I1500001J1D01*
G01*
X77100000Y-51280000D02*
X77100000Y-51780000D01*
X77100000Y-55380000D02*
X77100000Y-55980000D01*
X77100000Y-55980000D02*
X81600000Y-55980000D01*
X81600000Y-51280000D02*
X77100000Y-51280000D01*
X81600000Y-51980000D02*
X81600000Y-51280000D01*
X82100000Y-56480000D02*
X82100000Y-57480000D01*
X82600000Y-57980000D02*
X82100000Y-57480000D01*
X85600000Y-53480000D02*
X83100000Y-53480000D01*
X85600000Y-57980000D02*
X82600000Y-57980000D01*
X86100000Y-53980000D02*
X85600000Y-53480000D01*
X86100000Y-57480000D02*
X85600000Y-57980000D01*
X82100000Y-56480000D02*
G75*
G03*
X81600000Y-55980000I-500001J-1D01*
G01*
X81600000Y-51980000D02*
G75*
G03*
X83100000Y-53480000I1500001J1D01*
G01*
X171820000Y-84030000D02*
X171820000Y-84530000D01*
X171820000Y-88130000D02*
X171820000Y-88730000D01*
X171820000Y-88730000D02*
X176320000Y-88730000D01*
X176320000Y-84030000D02*
X171820000Y-84030000D01*
X176320000Y-84730000D02*
X176320000Y-84030000D01*
X176820000Y-89230000D02*
X176820000Y-90230000D01*
X177320000Y-90730000D02*
X176820000Y-90230000D01*
X180320000Y-86230000D02*
X177820000Y-86230000D01*
X180320000Y-90730000D02*
X177320000Y-90730000D01*
X180820000Y-86730000D02*
X180320000Y-86230000D01*
X180820000Y-90230000D02*
X180320000Y-90730000D01*
X176820000Y-89230000D02*
G75*
G03*
X176320000Y-88730000I-500001J-1D01*
G01*
X176320000Y-84730000D02*
G75*
G03*
X177820000Y-86230000I1500001J1D01*
G01*
X114820000Y-63030000D02*
X114820000Y-63530000D01*
X114820000Y-67130000D02*
X114820000Y-67730000D01*
X114820000Y-67730000D02*
X119320000Y-67730000D01*
X119320000Y-63030000D02*
X114820000Y-63030000D01*
X119320000Y-63730000D02*
X119320000Y-63030000D01*
X119820000Y-68230000D02*
X119820000Y-69230000D01*
X120320000Y-69730000D02*
X119820000Y-69230000D01*
X123320000Y-65230000D02*
X120820000Y-65230000D01*
X123320000Y-69730000D02*
X120320000Y-69730000D01*
X123820000Y-65730000D02*
X123320000Y-65230000D01*
X123820000Y-69230000D02*
X123320000Y-69730000D01*
X119820000Y-68230000D02*
G75*
G03*
X119320000Y-67730000I-500001J-1D01*
G01*
X119320000Y-63730000D02*
G75*
G03*
X120820000Y-65230000I1500001J1D01*
G01*
X95820000Y-84030000D02*
X95820000Y-84530000D01*
X95820000Y-88130000D02*
X95820000Y-88730000D01*
X95820000Y-88730000D02*
X100320000Y-88730000D01*
X100320000Y-84030000D02*
X95820000Y-84030000D01*
X100320000Y-84730000D02*
X100320000Y-84030000D01*
X100820000Y-89230000D02*
X100820000Y-90230000D01*
X101320000Y-90730000D02*
X100820000Y-90230000D01*
X104320000Y-86230000D02*
X101820000Y-86230000D01*
X104320000Y-90730000D02*
X101320000Y-90730000D01*
X104820000Y-86730000D02*
X104320000Y-86230000D01*
X104820000Y-90230000D02*
X104320000Y-90730000D01*
X100820000Y-89230000D02*
G75*
G03*
X100320000Y-88730000I-500001J-1D01*
G01*
X100320000Y-84730000D02*
G75*
G03*
X101820000Y-86230000I1500001J1D01*
G01*
X114820000Y-81030000D02*
X114820000Y-81530000D01*
X114820000Y-85130000D02*
X114820000Y-85730000D01*
X114820000Y-85730000D02*
X119320000Y-85730000D01*
X119320000Y-81030000D02*
X114820000Y-81030000D01*
X119320000Y-81730000D02*
X119320000Y-81030000D01*
X119820000Y-86230000D02*
X119820000Y-87230000D01*
X120320000Y-87730000D02*
X119820000Y-87230000D01*
X123320000Y-83230000D02*
X120820000Y-83230000D01*
X123320000Y-87730000D02*
X120320000Y-87730000D01*
X123820000Y-83730000D02*
X123320000Y-83230000D01*
X123820000Y-87230000D02*
X123320000Y-87730000D01*
X119820000Y-86230000D02*
G75*
G03*
X119320000Y-85730000I-500001J-1D01*
G01*
X119320000Y-81730000D02*
G75*
G03*
X120820000Y-83230000I1500001J1D01*
G01*
X95820000Y-48030000D02*
X95820000Y-48530000D01*
X95820000Y-52130000D02*
X95820000Y-52730000D01*
X95820000Y-52730000D02*
X100320000Y-52730000D01*
X100320000Y-48030000D02*
X95820000Y-48030000D01*
X100320000Y-48730000D02*
X100320000Y-48030000D01*
X100820000Y-53230000D02*
X100820000Y-54230000D01*
X101320000Y-54730000D02*
X100820000Y-54230000D01*
X104320000Y-50230000D02*
X101820000Y-50230000D01*
X104320000Y-54730000D02*
X101320000Y-54730000D01*
X104820000Y-50730000D02*
X104320000Y-50230000D01*
X104820000Y-54230000D02*
X104320000Y-54730000D01*
X100820000Y-53230000D02*
G75*
G03*
X100320000Y-52730000I-500001J-1D01*
G01*
X100320000Y-48730000D02*
G75*
G03*
X101820000Y-50230000I1500001J1D01*
G01*
X171820000Y-66030000D02*
X171820000Y-66530000D01*
X171820000Y-70130000D02*
X171820000Y-70730000D01*
X171820000Y-70730000D02*
X176320000Y-70730000D01*
X176320000Y-66030000D02*
X171820000Y-66030000D01*
X176320000Y-66730000D02*
X176320000Y-66030000D01*
X176820000Y-71230000D02*
X176820000Y-72230000D01*
X177320000Y-72730000D02*
X176820000Y-72230000D01*
X180320000Y-68230000D02*
X177820000Y-68230000D01*
X180320000Y-72730000D02*
X177320000Y-72730000D01*
X180820000Y-68730000D02*
X180320000Y-68230000D01*
X180820000Y-72230000D02*
X180320000Y-72730000D01*
X176820000Y-71230000D02*
G75*
G03*
X176320000Y-70730000I-500001J-1D01*
G01*
X176320000Y-66730000D02*
G75*
G03*
X177820000Y-68230000I1500001J1D01*
G01*
X171820000Y-48030000D02*
X171820000Y-48530000D01*
X171820000Y-52130000D02*
X171820000Y-52730000D01*
X171820000Y-52730000D02*
X176320000Y-52730000D01*
X176320000Y-48030000D02*
X171820000Y-48030000D01*
X176320000Y-48730000D02*
X176320000Y-48030000D01*
X176820000Y-53230000D02*
X176820000Y-54230000D01*
X177320000Y-54730000D02*
X176820000Y-54230000D01*
X180320000Y-50230000D02*
X177820000Y-50230000D01*
X180320000Y-54730000D02*
X177320000Y-54730000D01*
X180820000Y-50730000D02*
X180320000Y-50230000D01*
X180820000Y-54230000D02*
X180320000Y-54730000D01*
X176820000Y-53230000D02*
G75*
G03*
X176320000Y-52730000I-500001J-1D01*
G01*
X176320000Y-48730000D02*
G75*
G03*
X177820000Y-50230000I1500001J1D01*
G01*
X77100000Y-87280000D02*
X77100000Y-87780000D01*
X77100000Y-91380000D02*
X77100000Y-91980000D01*
X77100000Y-91980000D02*
X81600000Y-91980000D01*
X81600000Y-87280000D02*
X77100000Y-87280000D01*
X81600000Y-87980000D02*
X81600000Y-87280000D01*
X82100000Y-92480000D02*
X82100000Y-93480000D01*
X82600000Y-93980000D02*
X82100000Y-93480000D01*
X85600000Y-89480000D02*
X83100000Y-89480000D01*
X85600000Y-93980000D02*
X82600000Y-93980000D01*
X86100000Y-89980000D02*
X85600000Y-89480000D01*
X86100000Y-93480000D02*
X85600000Y-93980000D01*
X82100000Y-92480000D02*
G75*
G03*
X81600000Y-91980000I-500001J-1D01*
G01*
X81600000Y-87980000D02*
G75*
G03*
X83100000Y-89480000I1500001J1D01*
G01*
X114820000Y-44780000D02*
X114820000Y-45280000D01*
X114820000Y-48880000D02*
X114820000Y-49480000D01*
X114820000Y-49480000D02*
X119320000Y-49480000D01*
X119320000Y-44780000D02*
X114820000Y-44780000D01*
X119320000Y-45480000D02*
X119320000Y-44780000D01*
X119820000Y-49980000D02*
X119820000Y-50980000D01*
X120320000Y-51480000D02*
X119820000Y-50980000D01*
X123320000Y-46980000D02*
X120820000Y-46980000D01*
X123320000Y-51480000D02*
X120320000Y-51480000D01*
X123820000Y-47480000D02*
X123320000Y-46980000D01*
X123820000Y-50980000D02*
X123320000Y-51480000D01*
X119820000Y-49980000D02*
G75*
G03*
X119320000Y-49480000I-500001J-1D01*
G01*
X119320000Y-45480000D02*
G75*
G03*
X120820000Y-46980000I1500001J1D01*
G01*
X56625214Y-109327078D02*
X56729170Y-109816152D01*
X57477652Y-113337483D02*
X57602399Y-113924372D01*
X57602399Y-113924372D02*
X62004063Y-112988769D01*
X61026879Y-108391476D02*
X56625214Y-109327078D01*
X61172417Y-109076179D02*
X61026879Y-108391476D01*
X62597093Y-113373887D02*
X62805005Y-114352035D01*
X63398034Y-114737153D02*
X62805005Y-114352035D01*
X65396875Y-109711754D02*
X62951506Y-110231533D01*
X66332477Y-114113418D02*
X63398034Y-114737153D01*
X65989904Y-110096872D02*
X65396875Y-109711754D01*
X66717595Y-113520388D02*
X66332477Y-114113418D01*
X62597094Y-113373887D02*
G75*
G03*
X62004063Y-112988769I-489075J-103957D01*
G01*
X61172417Y-109076179D02*
G75*
G03*
X62951506Y-110231533I1467222J311869D01*
G01*
X77100000Y-69325000D02*
X77100000Y-69825000D01*
X77100000Y-73425000D02*
X77100000Y-74025000D01*
X77100000Y-74025000D02*
X81600000Y-74025000D01*
X81600000Y-69325000D02*
X77100000Y-69325000D01*
X81600000Y-70025000D02*
X81600000Y-69325000D01*
X82100000Y-74525000D02*
X82100000Y-75525000D01*
X82600000Y-76025000D02*
X82100000Y-75525000D01*
X85600000Y-71525000D02*
X83100000Y-71525000D01*
X85600000Y-76025000D02*
X82600000Y-76025000D01*
X86100000Y-72025000D02*
X85600000Y-71525000D01*
X86100000Y-75525000D02*
X85600000Y-76025000D01*
X82100000Y-74525000D02*
G75*
G03*
X81600000Y-74025000I-500001J-1D01*
G01*
X81600000Y-70025000D02*
G75*
G03*
X83100000Y-71525000I1500001J1D01*
G01*
X133820000Y-81030000D02*
X133820000Y-81530000D01*
X133820000Y-85130000D02*
X133820000Y-85730000D01*
X133820000Y-85730000D02*
X138320000Y-85730000D01*
X138320000Y-81030000D02*
X133820000Y-81030000D01*
X138320000Y-81730000D02*
X138320000Y-81030000D01*
X138820000Y-86230000D02*
X138820000Y-87230000D01*
X139320000Y-87730000D02*
X138820000Y-87230000D01*
X142320000Y-83230000D02*
X139820000Y-83230000D01*
X142320000Y-87730000D02*
X139320000Y-87730000D01*
X142820000Y-83730000D02*
X142320000Y-83230000D01*
X142820000Y-87230000D02*
X142320000Y-87730000D01*
X138820000Y-86230000D02*
G75*
G03*
X138320000Y-85730000I-500001J-1D01*
G01*
X138320000Y-81730000D02*
G75*
G03*
X139820000Y-83230000I1500001J1D01*
G01*
X95820000Y-66030000D02*
X95820000Y-66530000D01*
X95820000Y-70130000D02*
X95820000Y-70730000D01*
X95820000Y-70730000D02*
X100320000Y-70730000D01*
X100320000Y-66030000D02*
X95820000Y-66030000D01*
X100320000Y-66730000D02*
X100320000Y-66030000D01*
X100820000Y-71230000D02*
X100820000Y-72230000D01*
X101320000Y-72730000D02*
X100820000Y-72230000D01*
X104320000Y-68230000D02*
X101820000Y-68230000D01*
X104320000Y-72730000D02*
X101320000Y-72730000D01*
X104820000Y-68730000D02*
X104320000Y-68230000D01*
X104820000Y-72230000D02*
X104320000Y-72730000D01*
X100820000Y-71230000D02*
G75*
G03*
X100320000Y-70730000I-500001J-1D01*
G01*
X100320000Y-66730000D02*
G75*
G03*
X101820000Y-68230000I1500001J1D01*
G01*
X133820000Y-45030000D02*
X133820000Y-45530000D01*
X133820000Y-49130000D02*
X133820000Y-49730000D01*
X133820000Y-49730000D02*
X138320000Y-49730000D01*
X138320000Y-45030000D02*
X133820000Y-45030000D01*
X138320000Y-45730000D02*
X138320000Y-45030000D01*
X138820000Y-50230000D02*
X138820000Y-51230000D01*
X139320000Y-51730000D02*
X138820000Y-51230000D01*
X142320000Y-47230000D02*
X139820000Y-47230000D01*
X142320000Y-51730000D02*
X139320000Y-51730000D01*
X142820000Y-47730000D02*
X142320000Y-47230000D01*
X142820000Y-51230000D02*
X142320000Y-51730000D01*
X138820000Y-50230000D02*
G75*
G03*
X138320000Y-49730000I-500001J-1D01*
G01*
X138320000Y-45730000D02*
G75*
G03*
X139820000Y-47230000I1500001J1D01*
G01*
X95820000Y-102280000D02*
X95820000Y-102780000D01*
X95820000Y-106380000D02*
X95820000Y-106980000D01*
X95820000Y-106980000D02*
X100320000Y-106980000D01*
X100320000Y-102280000D02*
X95820000Y-102280000D01*
X100320000Y-102980000D02*
X100320000Y-102280000D01*
X100820000Y-107480000D02*
X100820000Y-108480000D01*
X101320000Y-108980000D02*
X100820000Y-108480000D01*
X104320000Y-104480000D02*
X101820000Y-104480000D01*
X104320000Y-108980000D02*
X101320000Y-108980000D01*
X104820000Y-104980000D02*
X104320000Y-104480000D01*
X104820000Y-108480000D02*
X104320000Y-108980000D01*
X100820000Y-107480000D02*
G75*
G03*
X100320000Y-106980000I-500001J-1D01*
G01*
X100320000Y-102980000D02*
G75*
G03*
X101820000Y-104480000I1500001J1D01*
G01*
X152820000Y-84030000D02*
X152820000Y-84530000D01*
X152820000Y-88130000D02*
X152820000Y-88730000D01*
X152820000Y-88730000D02*
X157320000Y-88730000D01*
X157320000Y-84030000D02*
X152820000Y-84030000D01*
X157320000Y-84730000D02*
X157320000Y-84030000D01*
X157820000Y-89230000D02*
X157820000Y-90230000D01*
X158320000Y-90730000D02*
X157820000Y-90230000D01*
X161320000Y-86230000D02*
X158820000Y-86230000D01*
X161320000Y-90730000D02*
X158320000Y-90730000D01*
X161820000Y-86730000D02*
X161320000Y-86230000D01*
X161820000Y-90230000D02*
X161320000Y-90730000D01*
X157820000Y-89230000D02*
G75*
G03*
X157320000Y-88730000I-500001J-1D01*
G01*
X157320000Y-84730000D02*
G75*
G03*
X158820000Y-86230000I1500001J1D01*
G01*
X77100000Y-105280000D02*
X77100000Y-105780000D01*
X77100000Y-109380000D02*
X77100000Y-109980000D01*
X77100000Y-109980000D02*
X81600000Y-109980000D01*
X81600000Y-105280000D02*
X77100000Y-105280000D01*
X81600000Y-105980000D02*
X81600000Y-105280000D01*
X82100000Y-110480000D02*
X82100000Y-111480000D01*
X82600000Y-111980000D02*
X82100000Y-111480000D01*
X85600000Y-107480000D02*
X83100000Y-107480000D01*
X85600000Y-111980000D02*
X82600000Y-111980000D01*
X86100000Y-107980000D02*
X85600000Y-107480000D01*
X86100000Y-111480000D02*
X85600000Y-111980000D01*
X82100000Y-110480000D02*
G75*
G03*
X81600000Y-109980000I-500001J-1D01*
G01*
X81600000Y-105980000D02*
G75*
G03*
X83100000Y-107480000I1500001J1D01*
G01*
D11*
X151920000Y-75452500D02*
X151920000Y-79462500D01*
X149920000Y-75452500D02*
X151920000Y-75452500D01*
X149920000Y-75452500D02*
X149920000Y-79462500D01*
X132920000Y-54452500D02*
X132920000Y-58462500D01*
X130920000Y-54452500D02*
X132920000Y-54452500D01*
X130920000Y-54452500D02*
X130920000Y-58462500D01*
X76200000Y-78702500D02*
X76200000Y-82712500D01*
X74200000Y-78702500D02*
X76200000Y-78702500D01*
X74200000Y-78702500D02*
X74200000Y-82712500D01*
X76200000Y-46280000D02*
X76200000Y-50290000D01*
X74200000Y-46280000D02*
X76200000Y-46280000D01*
X74200000Y-46280000D02*
X74200000Y-50290000D01*
X170920000Y-60452500D02*
X170920000Y-64462500D01*
X168920000Y-60452500D02*
X170920000Y-60452500D01*
X168920000Y-60452500D02*
X168920000Y-64462500D01*
X94920000Y-75452500D02*
X94920000Y-79462500D01*
X92920000Y-75452500D02*
X94920000Y-75452500D01*
X92920000Y-75452500D02*
X92920000Y-79462500D01*
X113920000Y-72452500D02*
X113920000Y-76462500D01*
X111920000Y-72452500D02*
X113920000Y-72452500D01*
X111920000Y-72452500D02*
X111920000Y-76462500D01*
X113920000Y-36202500D02*
X113920000Y-40212500D01*
X111920000Y-36202500D02*
X113920000Y-36202500D01*
X111920000Y-36202500D02*
X111920000Y-40212500D01*
X94920000Y-93702500D02*
X94920000Y-97712500D01*
X92920000Y-93702500D02*
X94920000Y-93702500D01*
X92920000Y-93702500D02*
X92920000Y-97712500D01*
X113920000Y-90132500D02*
X113920000Y-94142500D01*
X111920000Y-90132500D02*
X113920000Y-90132500D01*
X111920000Y-90132500D02*
X111920000Y-94142500D01*
X151920000Y-57452500D02*
X151920000Y-61462500D01*
X149920000Y-57452500D02*
X151920000Y-57452500D01*
X149920000Y-57452500D02*
X149920000Y-61462500D01*
X80386000Y-60124000D02*
X80386000Y-64134000D01*
X78386000Y-60124000D02*
X80386000Y-60124000D01*
X78386000Y-60124000D02*
X78386000Y-64134000D01*
X57364976Y-99807660D02*
X58198702Y-103730032D01*
X55408681Y-100223483D02*
X57364976Y-99807660D01*
X55408681Y-100223483D02*
X56242407Y-104145855D01*
X132920000Y-90452500D02*
X132920000Y-94462500D01*
X130920000Y-90452500D02*
X132920000Y-90452500D01*
X130920000Y-90452500D02*
X130920000Y-94462500D01*
X132920000Y-36452500D02*
X132920000Y-40462500D01*
X130920000Y-36452500D02*
X132920000Y-36452500D01*
X130920000Y-36452500D02*
X130920000Y-40462500D01*
X89800000Y-42130000D02*
X83400000Y-42130000D01*
X89800000Y-40930000D02*
X89800000Y-42130000D01*
X89800000Y-38130000D02*
X89800000Y-39330000D01*
X83400000Y-42130000D02*
X83400000Y-40930000D01*
X83400000Y-39330000D02*
X83400000Y-38130000D01*
X83400000Y-38130000D02*
X89800000Y-38130000D01*
X94920000Y-39452500D02*
X94920000Y-43462500D01*
X92920000Y-39452500D02*
X94920000Y-39452500D01*
X92920000Y-39452500D02*
X92920000Y-43462500D01*
X100041500Y-57292000D02*
X100041500Y-61302000D01*
X98041500Y-57292000D02*
X100041500Y-57292000D01*
X98041500Y-57292000D02*
X98041500Y-61302000D01*
X170920000Y-75452500D02*
X170920000Y-79462500D01*
X168920000Y-75452500D02*
X170920000Y-75452500D01*
X168920000Y-75452500D02*
X168920000Y-79462500D01*
X151920000Y-39452500D02*
X151920000Y-43462500D01*
X149920000Y-39452500D02*
X151920000Y-39452500D01*
X149920000Y-39452500D02*
X149920000Y-43462500D01*
X170920000Y-39452500D02*
X170920000Y-43462500D01*
X168920000Y-39452500D02*
X170920000Y-39452500D01*
X168920000Y-39452500D02*
X168920000Y-43462500D01*
X113920000Y-54452500D02*
X113920000Y-58462500D01*
X111920000Y-54452500D02*
X113920000Y-54452500D01*
X111920000Y-54452500D02*
X111920000Y-58462500D01*
X56198000Y-94418000D02*
X60208000Y-94418000D01*
X56198000Y-96418000D02*
X56198000Y-94418000D01*
X56198000Y-96418000D02*
X60208000Y-96418000D01*
X76200000Y-99702500D02*
X76200000Y-103712500D01*
X74200000Y-99702500D02*
X76200000Y-99702500D01*
X74200000Y-99702500D02*
X74200000Y-103712500D01*
X132920000Y-75952500D02*
X132920000Y-79962500D01*
X130920000Y-75952500D02*
X132920000Y-75952500D01*
X130920000Y-75952500D02*
X130920000Y-79962500D01*
%LPC*%
D12*
X154320000Y-46530000D03*
D13*
X154820000Y-50280000D03*
D14*
X159820000Y-46530000D03*
D13*
X159820000Y-52480000D03*
D15*
X165040000Y-42330000D03*
D12*
X165320000Y-46530000D03*
D16*
X163095000Y-52480000D03*
X151545000Y-50280000D03*
D12*
X116320000Y-97530000D03*
D13*
X116820000Y-101280000D03*
D14*
X121820000Y-97530000D03*
D13*
X121820000Y-103480000D03*
D15*
X127040000Y-93330000D03*
D12*
X127320000Y-97530000D03*
D16*
X125095000Y-103480000D03*
X113545000Y-101280000D03*
D12*
X135320000Y-97530000D03*
D13*
X135820000Y-101280000D03*
D14*
X140820000Y-97530000D03*
D13*
X140820000Y-103480000D03*
D15*
X146040000Y-93330000D03*
D12*
X146320000Y-97530000D03*
D16*
X144095000Y-103480000D03*
X132545000Y-101280000D03*
D17*
X153095500Y-95672000D03*
D12*
X135320000Y-61530000D03*
D13*
X135820000Y-65280000D03*
D14*
X140820000Y-61530000D03*
D13*
X140820000Y-67480000D03*
D15*
X146040000Y-57330000D03*
D12*
X146320000Y-61530000D03*
D16*
X144095000Y-67480000D03*
X132545000Y-65280000D03*
D12*
X154320000Y-64530000D03*
D13*
X154820000Y-68280000D03*
D14*
X159820000Y-64530000D03*
D13*
X159820000Y-70480000D03*
D15*
X165040000Y-60330000D03*
D12*
X165320000Y-64530000D03*
D16*
X163095000Y-70480000D03*
X151545000Y-68280000D03*
D18*
X66047500Y-73280000D03*
D19*
X63507500Y-73280000D03*
X60967500Y-73280000D03*
X58427500Y-73280000D03*
X55887500Y-73280000D03*
D12*
X78600000Y-49780000D03*
D13*
X79100000Y-53530000D03*
D14*
X84100000Y-49780000D03*
D13*
X84100000Y-55730000D03*
D15*
X89320000Y-45580000D03*
D12*
X89600000Y-49780000D03*
D16*
X87375000Y-55730000D03*
X75825000Y-53530000D03*
D20*
X55197500Y-90130000D03*
D21*
X55197500Y-80020000D03*
X55197500Y-82560000D03*
X55197500Y-85100000D03*
X55197500Y-87640000D03*
X53972500Y-77630000D03*
X55822500Y-77630000D03*
D12*
X173320000Y-82530000D03*
D13*
X173820000Y-86280000D03*
D14*
X178820000Y-82530000D03*
D13*
X178820000Y-88480000D03*
D15*
X184040000Y-78330000D03*
D12*
X184320000Y-82530000D03*
D16*
X182095000Y-88480000D03*
X170545000Y-86280000D03*
D22*
X76314000Y-37812000D03*
X73314000Y-37812000D03*
D12*
X116320000Y-61530000D03*
D13*
X116820000Y-65280000D03*
D14*
X121820000Y-61530000D03*
D13*
X121820000Y-67480000D03*
D15*
X127040000Y-57330000D03*
D12*
X127320000Y-61530000D03*
D16*
X125095000Y-67480000D03*
X113545000Y-65280000D03*
D17*
X74560000Y-94910000D03*
D12*
X97320000Y-82530000D03*
D13*
X97820000Y-86280000D03*
D14*
X102820000Y-82530000D03*
D13*
X102820000Y-88480000D03*
D15*
X108040000Y-78330000D03*
D12*
X108320000Y-82530000D03*
D16*
X106095000Y-88480000D03*
X94545000Y-86280000D03*
D12*
X116320000Y-79530000D03*
D13*
X116820000Y-83280000D03*
D14*
X121820000Y-79530000D03*
D13*
X121820000Y-85480000D03*
D15*
X127040000Y-75330000D03*
D12*
X127320000Y-79530000D03*
D16*
X125095000Y-85480000D03*
X113545000Y-83280000D03*
D17*
X93102000Y-58842000D03*
D12*
X97320000Y-46530000D03*
D13*
X97820000Y-50280000D03*
D14*
X102820000Y-46530000D03*
D13*
X102820000Y-52480000D03*
D15*
X108040000Y-42330000D03*
D12*
X108320000Y-46530000D03*
D16*
X106095000Y-52480000D03*
X94545000Y-50280000D03*
D17*
X169302000Y-55286000D03*
D23*
X53347500Y-40170000D03*
D24*
X53347500Y-42710000D03*
X53347500Y-45250000D03*
X53347500Y-47790000D03*
X53347500Y-50330000D03*
X53347500Y-52870000D03*
X53347500Y-55410000D03*
X53347500Y-57950000D03*
X53347500Y-60490000D03*
X53347500Y-63030000D03*
X53347500Y-65570000D03*
X53347500Y-68110000D03*
X68587500Y-68110000D03*
X68587500Y-65570000D03*
X68587500Y-63030000D03*
X68587500Y-60490000D03*
X68587500Y-57950000D03*
X68587500Y-55410000D03*
X68587500Y-52870000D03*
X68587500Y-50330000D03*
X68587500Y-47790000D03*
X68587500Y-45250000D03*
X68587500Y-42710000D03*
X68587500Y-40170000D03*
D12*
X173320000Y-64530000D03*
D13*
X173820000Y-68280000D03*
D14*
X178820000Y-64530000D03*
D13*
X178820000Y-70480000D03*
D15*
X184040000Y-60330000D03*
D12*
X184320000Y-64530000D03*
D16*
X182095000Y-70480000D03*
X170545000Y-68280000D03*
D12*
X173320000Y-46530000D03*
D13*
X173820000Y-50280000D03*
D14*
X178820000Y-46530000D03*
D13*
X178820000Y-52480000D03*
D15*
X184040000Y-42330000D03*
D12*
X184320000Y-46530000D03*
D16*
X182095000Y-52480000D03*
X170545000Y-50280000D03*
D17*
X130962000Y-70526000D03*
D12*
X78600000Y-85780000D03*
D13*
X79100000Y-89530000D03*
D14*
X84100000Y-85780000D03*
D13*
X84100000Y-91730000D03*
D15*
X89320000Y-81580000D03*
D12*
X89600000Y-85780000D03*
D16*
X87375000Y-91730000D03*
X75825000Y-89530000D03*
D12*
X116320000Y-43280000D03*
D13*
X116820000Y-47030000D03*
D14*
X121820000Y-43280000D03*
D13*
X121820000Y-49230000D03*
D15*
X127040000Y-39080000D03*
D12*
X127320000Y-43280000D03*
D16*
X125095000Y-49230000D03*
X113545000Y-47030000D03*
D12*
X57780568Y-107547989D03*
D13*
X59049311Y-111112087D03*
D14*
X63160380Y-106404475D03*
D13*
X64397455Y-112224453D03*
D15*
X67393081Y-101210956D03*
D12*
X68540192Y-105260961D03*
D25*
X67600888Y-111543542D03*
X55845877Y-111792998D03*
D12*
X78600000Y-67825000D03*
D13*
X79100000Y-71575000D03*
D14*
X84100000Y-67825000D03*
D13*
X84100000Y-73775000D03*
D15*
X89320000Y-63625000D03*
D12*
X89600000Y-67825000D03*
D16*
X87375000Y-73775000D03*
X75825000Y-71575000D03*
D12*
X135320000Y-79530000D03*
D13*
X135820000Y-83280000D03*
D14*
X140820000Y-79530000D03*
D13*
X140820000Y-85480000D03*
D15*
X146040000Y-75330000D03*
D12*
X146320000Y-79530000D03*
D16*
X144095000Y-85480000D03*
X132545000Y-83280000D03*
D26*
X73782000Y-42926000D03*
D27*
X71782000Y-42926000D03*
D12*
X97320000Y-64530000D03*
D13*
X97820000Y-68280000D03*
D14*
X102820000Y-64530000D03*
D13*
X102820000Y-70480000D03*
D15*
X108040000Y-60330000D03*
D12*
X108320000Y-64530000D03*
D16*
X106095000Y-70480000D03*
X94545000Y-68280000D03*
D12*
X135320000Y-43530000D03*
D13*
X135820000Y-47280000D03*
D14*
X140820000Y-43530000D03*
D13*
X140820000Y-49480000D03*
D15*
X146040000Y-39330000D03*
D12*
X146320000Y-43530000D03*
D16*
X144095000Y-49480000D03*
X132545000Y-47280000D03*
D12*
X97320000Y-100780000D03*
D13*
X97820000Y-104530000D03*
D14*
X102820000Y-100780000D03*
D13*
X102820000Y-106730000D03*
D15*
X108040000Y-96580000D03*
D12*
X108320000Y-100780000D03*
D16*
X106095000Y-106730000D03*
X94545000Y-104530000D03*
D12*
X154320000Y-82530000D03*
D13*
X154820000Y-86280000D03*
D14*
X159820000Y-82530000D03*
D13*
X159820000Y-88480000D03*
D15*
X165040000Y-78330000D03*
D12*
X165320000Y-82530000D03*
D16*
X163095000Y-88480000D03*
X151545000Y-86280000D03*
D12*
X78600000Y-103780000D03*
D13*
X79100000Y-107530000D03*
D14*
X84100000Y-103780000D03*
D13*
X84100000Y-109730000D03*
D15*
X89320000Y-99580000D03*
D12*
X89600000Y-103780000D03*
D16*
X87375000Y-109730000D03*
X75825000Y-107530000D03*
D28*
X150920000Y-76162500D03*
X150920000Y-79462500D03*
X131920000Y-55162500D03*
X131920000Y-58462500D03*
X75200000Y-79412500D03*
X75200000Y-82712500D03*
X75200000Y-46990000D03*
X75200000Y-50290000D03*
X169920000Y-61162500D03*
X169920000Y-64462500D03*
X93920000Y-76162500D03*
X93920000Y-79462500D03*
X112920000Y-73162500D03*
X112920000Y-76462500D03*
X112920000Y-36912500D03*
X112920000Y-40212500D03*
X93920000Y-94412500D03*
X93920000Y-97712500D03*
X112920000Y-90842500D03*
X112920000Y-94142500D03*
X150920000Y-58162500D03*
X150920000Y-61462500D03*
X79386000Y-60834000D03*
X79386000Y-64134000D03*
D29*
X56534446Y-100710056D03*
X57220554Y-103937944D03*
D28*
X131920000Y-91162500D03*
X131920000Y-94462500D03*
X131920000Y-37162500D03*
X131920000Y-40462500D03*
D30*
X90475000Y-40130000D03*
X82725000Y-40130000D03*
D28*
X93920000Y-40162500D03*
X93920000Y-43462500D03*
X99041500Y-58002000D03*
X99041500Y-61302000D03*
X169920000Y-76162500D03*
X169920000Y-79462500D03*
X150920000Y-40162500D03*
X150920000Y-43462500D03*
X169920000Y-40162500D03*
X169920000Y-43462500D03*
X112920000Y-55162500D03*
X112920000Y-58462500D03*
D31*
X56908000Y-95418000D03*
X60208000Y-95418000D03*
D28*
X75200000Y-100412500D03*
X75200000Y-103712500D03*
X131920000Y-76662500D03*
X131920000Y-79962500D03*
%LPD*%
M02*
