M48
; DRILL file {KiCad 7.0.5-0} date 2023 August 03, Thursday 20:34:25
; FORMAT={-:-/ absolute / metric / decimal}
; #@! TF.CreationDate,2023-08-03T20:34:25+09:30
; #@! TF.GenerationSoftware,Kicad,Pcbnew,7.0.5-0
; #@! TF.FileFunction,Plated,1,2,PTH
FMAT,2
METRIC
; #@! TA.AperFunction,Plated,PTH,ViaDrill
T1C0.400
; #@! TA.AperFunction,Plated,PTH,ComponentDrill
T2C0.800
; #@! TA.AperFunction,Plated,PTH,ComponentDrill
T3C0.900
; #@! TA.AperFunction,Plated,PTH,ComponentDrill
T4C1.000
%
G90
G05
T1
X59.182Y-42.418
X59.436Y-61.214
X66.074Y-56.048
X66.074Y-58.334
X66.074Y-74.082
X66.074Y-76.368
X67.564Y-54.102
X68.834Y-49.276
X70.612Y-72.39
X70.612Y-74.168
X73.152Y-71.374
X73.66Y-88.9
X76.454Y-40.894
X76.708Y-58.928
X76.708Y-76.962
X85.124Y-55.794
X85.124Y-58.08
X85.124Y-73.828
X85.124Y-75.86
X87.884Y-99.314
X88.138Y-90.17
X92.202Y-68.58
X93.76Y-92.878
X95.504Y-38.354
X95.758Y-55.88
X95.758Y-74.168
X104.428Y-53.0
X104.428Y-55.286
X104.428Y-71.034
X104.428Y-73.32
X107.95Y-88.9
X109.22Y-60.96
X109.22Y-103.886
X110.998Y-33.274
X111.252Y-86.36
X112.522Y-88.392
X114.554Y-74.168
X114.808Y-91.186
X115.316Y-37.846
X123.19Y-53.086
X123.19Y-55.372
X123.444Y-71.374
X123.444Y-73.914
X127.508Y-68.58
X127.508Y-93.218
X128.27Y-100.076
X130.302Y-88.392
X131.064Y-91.44
X133.858Y-59.436
X133.858Y-77.216
X134.112Y-41.402
X134.112Y-94.996
X140.97Y-112.268
X141.986Y-56.134
X141.986Y-58.42
X141.986Y-74.168
X141.986Y-76.708
X145.288Y-92.456
X146.558Y-71.374
X147.066Y-85.344
X147.32Y-103.124
X148.844Y-36.322
X149.606Y-94.234
X151.892Y-45.212
X152.4Y-62.23
X152.4Y-80.772
X152.654Y-98.044
X160.782Y-58.166
X160.782Y-69.596
X161.29Y-94.234
X163.068Y-40.386
X163.576Y-88.392
X164.338Y-106.426
X164.846Y-72.898
X166.116Y-64.77
X166.15Y-99.568
X167.386Y-67.31
X168.91Y-40.64
X168.91Y-67.31
X169.418Y-74.93
X170.434Y-67.31
X174.752Y-100.838
X175.514Y-74.93
X179.832Y-83.312
X186.69Y-94.488
X187.706Y-95.25
X187.706Y-114.554
X188.468Y-75.438
X188.722Y-96.012
X190.246Y-97.282
X191.262Y-44.45
X191.262Y-48.006
T2
X167.268Y-44.57
X169.268Y-44.57
X172.972Y-39.36
X172.972Y-41.9
X172.972Y-44.44
X172.972Y-46.98
X172.972Y-49.52
X172.972Y-52.06
X172.972Y-54.6
X172.972Y-57.14
X172.972Y-59.68
X172.972Y-62.22
X172.972Y-64.76
X172.972Y-67.3
X188.212Y-39.36
X188.212Y-41.9
X188.212Y-44.44
X188.212Y-46.98
X188.212Y-49.52
X188.212Y-52.06
X188.212Y-54.6
X188.212Y-57.14
X188.212Y-59.68
X188.212Y-62.22
X188.212Y-64.76
X188.212Y-67.3
T3
X185.697Y-91.57
X186.322Y-81.56
X186.322Y-84.1
X186.322Y-86.64
X186.322Y-89.18
X187.547Y-91.57
T4
X175.512Y-72.47
X178.052Y-72.47
X180.592Y-72.47
X183.132Y-72.47
X185.672Y-72.47
T0
M30
