%TF.GenerationSoftware,KiCad,Pcbnew,7.0.5-0*%
%TF.CreationDate,2023-08-03T20:32:26+09:30*%
%TF.ProjectId,Rolio,436f726e-6552-46f6-9c69-6f2e6b696361,rev?*%
%TF.SameCoordinates,Original*%
%TF.FileFunction,Paste,Top*%
%TF.FilePolarity,Positive*%
%FSLAX46Y46*%
G04 Gerber Fmt 4.6, Leading zero omitted, Abs format (unit mm)*
G04 Created by KiCad (PCBNEW 7.0.5-0) date 2023-08-03 20:32:26*
%MOMM*%
%LPD*%
G01*
G04 APERTURE LIST*
G04 Aperture macros list*
%AMRoundRect*
0 Rectangle with rounded corners*
0 $1 Rounding radius*
0 $2 $3 $4 $5 $6 $7 $8 $9 X,Y pos of 4 corners*
0 Add a 4 corners polygon primitive as box body*
4,1,4,$2,$3,$4,$5,$6,$7,$8,$9,$2,$3,0*
0 Add four circle primitives for the rounded corners*
1,1,$1+$1,$2,$3*
1,1,$1+$1,$4,$5*
1,1,$1+$1,$6,$7*
1,1,$1+$1,$8,$9*
0 Add four rect primitives between the rounded corners*
20,1,$1+$1,$2,$3,$4,$5,0*
20,1,$1+$1,$4,$5,$6,$7,0*
20,1,$1+$1,$6,$7,$8,$9,0*
20,1,$1+$1,$8,$9,$2,$3,0*%
G04 Aperture macros list end*
%ADD10RoundRect,0.250000X-0.262500X-0.450000X0.262500X-0.450000X0.262500X0.450000X-0.262500X0.450000X0*%
%ADD11RoundRect,0.243750X-0.243750X-0.456250X0.243750X-0.456250X0.243750X0.456250X-0.243750X0.456250X0*%
%ADD12RoundRect,0.250000X0.262500X0.450000X-0.262500X0.450000X-0.262500X-0.450000X0.262500X-0.450000X0*%
%ADD13RoundRect,0.250000X-0.350324X-0.385590X0.163203X-0.494743X0.350324X0.385590X-0.163203X0.494743X0*%
%ADD14R,1.000000X0.800000*%
%ADD15R,0.700000X1.500000*%
%ADD16RoundRect,0.150000X0.587500X0.150000X-0.587500X0.150000X-0.587500X-0.150000X0.587500X-0.150000X0*%
%ADD17RoundRect,0.243750X-0.333283X-0.395601X0.143564X-0.496958X0.333283X0.395601X-0.143564X0.496958X0*%
G04 APERTURE END LIST*
D10*
%TO.C,R8*%
X57705500Y-37170000D03*
X59530500Y-37170000D03*
%TD*%
D11*
%TO.C,LED3*%
X118820500Y-37715000D03*
X120695500Y-37715000D03*
%TD*%
D10*
%TO.C,R12*%
X95705500Y-52170000D03*
X97530500Y-52170000D03*
%TD*%
D11*
%TO.C,LED15*%
X118820500Y-73965000D03*
X120695500Y-73965000D03*
%TD*%
D10*
%TO.C,R10*%
X133705500Y-55170000D03*
X135530500Y-55170000D03*
%TD*%
D11*
%TO.C,LED4*%
X99820500Y-37965000D03*
X101695500Y-37965000D03*
%TD*%
%TO.C,LED1*%
X156553400Y-44215000D03*
X158428400Y-44215000D03*
%TD*%
D12*
%TO.C,R2*%
X159600500Y-37506000D03*
X157775500Y-37506000D03*
%TD*%
D13*
%TO.C,R21*%
X175264681Y-96179288D03*
X177049801Y-96558726D03*
%TD*%
D11*
%TO.C,LED13*%
X156553400Y-80215000D03*
X158428400Y-80215000D03*
%TD*%
D10*
%TO.C,R18*%
X95705500Y-70170000D03*
X97530500Y-70170000D03*
%TD*%
%TO.C,R19*%
X76705500Y-73170000D03*
X78530500Y-73170000D03*
%TD*%
%TO.C,R14*%
X57705500Y-55170000D03*
X59530500Y-55170000D03*
%TD*%
%TO.C,R24*%
X114705500Y-88170000D03*
X116530500Y-88170000D03*
%TD*%
D12*
%TO.C,R1*%
X159600500Y-40300000D03*
X157775500Y-40300000D03*
%TD*%
D11*
%TO.C,LED23*%
X99820500Y-91865000D03*
X101695500Y-91865000D03*
%TD*%
%TO.C,LED10*%
X99820500Y-55965000D03*
X101695500Y-55965000D03*
%TD*%
D14*
%TO.C,SW4*%
X170300000Y-38112000D03*
X170300000Y-35902000D03*
X163000000Y-38112000D03*
X163000000Y-35902000D03*
D15*
X168900000Y-38762000D03*
X165900000Y-38762000D03*
X164400000Y-38762000D03*
%TD*%
D10*
%TO.C,R20*%
X57705500Y-73170000D03*
X59530500Y-73170000D03*
%TD*%
D11*
%TO.C,LED17*%
X80820500Y-76965000D03*
X82695500Y-76965000D03*
%TD*%
D10*
%TO.C,R6*%
X85671000Y-37204000D03*
X87496000Y-37204000D03*
%TD*%
D11*
%TO.C,LED20*%
X156553400Y-98215000D03*
X158428400Y-98215000D03*
%TD*%
D12*
%TO.C,R4*%
X139566000Y-37170000D03*
X137741000Y-37170000D03*
%TD*%
D11*
%TO.C,LED18*%
X61820500Y-76965000D03*
X63695500Y-76965000D03*
%TD*%
%TO.C,LED8*%
X137820500Y-58965000D03*
X139695500Y-58965000D03*
%TD*%
%TO.C,LED5*%
X80820500Y-40965000D03*
X82695500Y-40965000D03*
%TD*%
D10*
%TO.C,R11*%
X114705500Y-52170000D03*
X116530500Y-52170000D03*
%TD*%
D11*
%TO.C,LED21*%
X137820500Y-95215000D03*
X139695500Y-95215000D03*
%TD*%
D10*
%TO.C,R15*%
X152438400Y-76420000D03*
X154263400Y-76420000D03*
%TD*%
%TO.C,R22*%
X152438400Y-94420000D03*
X154263400Y-94420000D03*
%TD*%
%TO.C,R7*%
X76705500Y-37170000D03*
X78530500Y-37170000D03*
%TD*%
%TO.C,R25*%
X95825500Y-88170000D03*
X97650500Y-88170000D03*
%TD*%
D11*
%TO.C,LED11*%
X80820500Y-58965000D03*
X82695500Y-58965000D03*
%TD*%
D16*
%TO.C,Q1*%
X155235500Y-39914000D03*
X155235500Y-38014000D03*
X153360500Y-38964000D03*
%TD*%
D10*
%TO.C,R23*%
X133705500Y-91420000D03*
X135530500Y-91420000D03*
%TD*%
D11*
%TO.C,LED7*%
X156553400Y-62260000D03*
X158428400Y-62260000D03*
%TD*%
D12*
%TO.C,R5*%
X133724000Y-37204000D03*
X131899000Y-37204000D03*
%TD*%
D10*
%TO.C,R17*%
X115927500Y-70104000D03*
X117752500Y-70104000D03*
%TD*%
D11*
%TO.C,LED9*%
X118820500Y-55965000D03*
X120695500Y-55965000D03*
%TD*%
D10*
%TO.C,R16*%
X133705500Y-73170000D03*
X135530500Y-73170000D03*
%TD*%
D11*
%TO.C,LED14*%
X137820500Y-76965000D03*
X139695500Y-76965000D03*
%TD*%
%TO.C,LED2*%
X137820500Y-40965000D03*
X139695500Y-40965000D03*
%TD*%
%TO.C,LED16*%
X99820500Y-73965000D03*
X101695500Y-73965000D03*
%TD*%
%TO.C,LED22*%
X118820500Y-91965000D03*
X120695500Y-91965000D03*
%TD*%
D10*
%TO.C,R9*%
X153773500Y-58465000D03*
X155598500Y-58465000D03*
%TD*%
%TO.C,R3*%
X148045000Y-40420000D03*
X149870000Y-40420000D03*
%TD*%
D11*
%TO.C,LED6*%
X61820500Y-40965000D03*
X63695500Y-40965000D03*
%TD*%
D10*
%TO.C,R13*%
X77573500Y-55170000D03*
X79398500Y-55170000D03*
%TD*%
D17*
%TO.C,LED19*%
X178467955Y-100739947D03*
X180301981Y-101129781D03*
%TD*%
D11*
%TO.C,LED12*%
X61820500Y-58965000D03*
X63695500Y-58965000D03*
%TD*%
M02*
