%TF.GenerationSoftware,KiCad,Pcbnew,7.0.5-0*%
%TF.CreationDate,2023-08-03T20:32:26+09:30*%
%TF.ProjectId,Rolio,436f726e-6552-46f6-9c69-6f2e6b696361,rev?*%
%TF.SameCoordinates,Original*%
%TF.FileFunction,Legend,Top*%
%TF.FilePolarity,Positive*%
%FSLAX46Y46*%
G04 Gerber Fmt 4.6, Leading zero omitted, Abs format (unit mm)*
G04 Created by KiCad (PCBNEW 7.0.5-0) date 2023-08-03 20:32:26*
%MOMM*%
%LPD*%
G01*
G04 APERTURE LIST*
G04 Aperture macros list*
%AMRoundRect*
0 Rectangle with rounded corners*
0 $1 Rounding radius*
0 $2 $3 $4 $5 $6 $7 $8 $9 X,Y pos of 4 corners*
0 Add a 4 corners polygon primitive as box body*
4,1,4,$2,$3,$4,$5,$6,$7,$8,$9,$2,$3,0*
0 Add four circle primitives for the rounded corners*
1,1,$1+$1,$2,$3*
1,1,$1+$1,$4,$5*
1,1,$1+$1,$6,$7*
1,1,$1+$1,$8,$9*
0 Add four rect primitives between the rounded corners*
20,1,$1+$1,$2,$3,$4,$5,0*
20,1,$1+$1,$4,$5,$6,$7,0*
20,1,$1+$1,$6,$7,$8,$9,0*
20,1,$1+$1,$8,$9,$2,$3,0*%
G04 Aperture macros list end*
%ADD10C,0.150000*%
%ADD11C,0.120000*%
%ADD12C,0.200000*%
%ADD13C,0.100000*%
%ADD14C,1.701800*%
%ADD15C,3.000000*%
%ADD16C,3.429000*%
%ADD17C,0.990600*%
%ADD18RoundRect,0.250000X-0.262500X-0.450000X0.262500X-0.450000X0.262500X0.450000X-0.262500X0.450000X0*%
%ADD19C,4.300000*%
%ADD20RoundRect,0.243750X-0.243750X-0.456250X0.243750X-0.456250X0.243750X0.456250X-0.243750X0.456250X0*%
%ADD21R,1.700000X1.700000*%
%ADD22O,1.700000X1.700000*%
%ADD23RoundRect,0.250000X0.262500X0.450000X-0.262500X0.450000X-0.262500X-0.450000X0.262500X-0.450000X0*%
%ADD24RoundRect,0.250000X-0.350324X-0.385590X0.163203X-0.494743X0.350324X0.385590X-0.163203X0.494743X0*%
%ADD25C,1.500000*%
%ADD26C,1.600000*%
%ADD27R,1.000000X0.800000*%
%ADD28C,0.900000*%
%ADD29R,0.700000X1.500000*%
%ADD30R,1.600000X1.600000*%
%ADD31O,1.600000X1.600000*%
%ADD32RoundRect,0.150000X0.587500X0.150000X-0.587500X0.150000X-0.587500X-0.150000X0.587500X-0.150000X0*%
%ADD33R,1.350000X1.350000*%
%ADD34O,1.350000X1.350000*%
%ADD35RoundRect,0.243750X-0.333283X-0.395601X0.143564X-0.496958X0.333283X0.395601X-0.143564X0.496958X0*%
G04 APERTURE END LIST*
D10*
X167416866Y-42709220D02*
X167416866Y-41947316D01*
X167797819Y-42328268D02*
X167035914Y-42328268D01*
X169026866Y-42709220D02*
X169026866Y-41947316D01*
%TO.C,R8*%
X61167333Y-37658819D02*
X60834000Y-37182628D01*
X60595905Y-37658819D02*
X60595905Y-36658819D01*
X60595905Y-36658819D02*
X60976857Y-36658819D01*
X60976857Y-36658819D02*
X61072095Y-36706438D01*
X61072095Y-36706438D02*
X61119714Y-36754057D01*
X61119714Y-36754057D02*
X61167333Y-36849295D01*
X61167333Y-36849295D02*
X61167333Y-36992152D01*
X61167333Y-36992152D02*
X61119714Y-37087390D01*
X61119714Y-37087390D02*
X61072095Y-37135009D01*
X61072095Y-37135009D02*
X60976857Y-37182628D01*
X60976857Y-37182628D02*
X60595905Y-37182628D01*
X61738762Y-37087390D02*
X61643524Y-37039771D01*
X61643524Y-37039771D02*
X61595905Y-36992152D01*
X61595905Y-36992152D02*
X61548286Y-36896914D01*
X61548286Y-36896914D02*
X61548286Y-36849295D01*
X61548286Y-36849295D02*
X61595905Y-36754057D01*
X61595905Y-36754057D02*
X61643524Y-36706438D01*
X61643524Y-36706438D02*
X61738762Y-36658819D01*
X61738762Y-36658819D02*
X61929238Y-36658819D01*
X61929238Y-36658819D02*
X62024476Y-36706438D01*
X62024476Y-36706438D02*
X62072095Y-36754057D01*
X62072095Y-36754057D02*
X62119714Y-36849295D01*
X62119714Y-36849295D02*
X62119714Y-36896914D01*
X62119714Y-36896914D02*
X62072095Y-36992152D01*
X62072095Y-36992152D02*
X62024476Y-37039771D01*
X62024476Y-37039771D02*
X61929238Y-37087390D01*
X61929238Y-37087390D02*
X61738762Y-37087390D01*
X61738762Y-37087390D02*
X61643524Y-37135009D01*
X61643524Y-37135009D02*
X61595905Y-37182628D01*
X61595905Y-37182628D02*
X61548286Y-37277866D01*
X61548286Y-37277866D02*
X61548286Y-37468342D01*
X61548286Y-37468342D02*
X61595905Y-37563580D01*
X61595905Y-37563580D02*
X61643524Y-37611200D01*
X61643524Y-37611200D02*
X61738762Y-37658819D01*
X61738762Y-37658819D02*
X61929238Y-37658819D01*
X61929238Y-37658819D02*
X62024476Y-37611200D01*
X62024476Y-37611200D02*
X62072095Y-37563580D01*
X62072095Y-37563580D02*
X62119714Y-37468342D01*
X62119714Y-37468342D02*
X62119714Y-37277866D01*
X62119714Y-37277866D02*
X62072095Y-37182628D01*
X62072095Y-37182628D02*
X62024476Y-37135009D01*
X62024476Y-37135009D02*
X61929238Y-37087390D01*
%TO.C,H3*%
X147694095Y-53186819D02*
X147694095Y-52186819D01*
X147694095Y-52663009D02*
X148265523Y-52663009D01*
X148265523Y-53186819D02*
X148265523Y-52186819D01*
X148646476Y-52186819D02*
X149265523Y-52186819D01*
X149265523Y-52186819D02*
X148932190Y-52567771D01*
X148932190Y-52567771D02*
X149075047Y-52567771D01*
X149075047Y-52567771D02*
X149170285Y-52615390D01*
X149170285Y-52615390D02*
X149217904Y-52663009D01*
X149217904Y-52663009D02*
X149265523Y-52758247D01*
X149265523Y-52758247D02*
X149265523Y-52996342D01*
X149265523Y-52996342D02*
X149217904Y-53091580D01*
X149217904Y-53091580D02*
X149170285Y-53139200D01*
X149170285Y-53139200D02*
X149075047Y-53186819D01*
X149075047Y-53186819D02*
X148789333Y-53186819D01*
X148789333Y-53186819D02*
X148694095Y-53139200D01*
X148694095Y-53139200D02*
X148646476Y-53091580D01*
%TO.C,LED3*%
X118638952Y-36519819D02*
X118162762Y-36519819D01*
X118162762Y-36519819D02*
X118162762Y-35519819D01*
X118972286Y-35996009D02*
X119305619Y-35996009D01*
X119448476Y-36519819D02*
X118972286Y-36519819D01*
X118972286Y-36519819D02*
X118972286Y-35519819D01*
X118972286Y-35519819D02*
X119448476Y-35519819D01*
X119877048Y-36519819D02*
X119877048Y-35519819D01*
X119877048Y-35519819D02*
X120115143Y-35519819D01*
X120115143Y-35519819D02*
X120258000Y-35567438D01*
X120258000Y-35567438D02*
X120353238Y-35662676D01*
X120353238Y-35662676D02*
X120400857Y-35757914D01*
X120400857Y-35757914D02*
X120448476Y-35948390D01*
X120448476Y-35948390D02*
X120448476Y-36091247D01*
X120448476Y-36091247D02*
X120400857Y-36281723D01*
X120400857Y-36281723D02*
X120353238Y-36376961D01*
X120353238Y-36376961D02*
X120258000Y-36472200D01*
X120258000Y-36472200D02*
X120115143Y-36519819D01*
X120115143Y-36519819D02*
X119877048Y-36519819D01*
X120781810Y-35519819D02*
X121400857Y-35519819D01*
X121400857Y-35519819D02*
X121067524Y-35900771D01*
X121067524Y-35900771D02*
X121210381Y-35900771D01*
X121210381Y-35900771D02*
X121305619Y-35948390D01*
X121305619Y-35948390D02*
X121353238Y-35996009D01*
X121353238Y-35996009D02*
X121400857Y-36091247D01*
X121400857Y-36091247D02*
X121400857Y-36329342D01*
X121400857Y-36329342D02*
X121353238Y-36424580D01*
X121353238Y-36424580D02*
X121305619Y-36472200D01*
X121305619Y-36472200D02*
X121210381Y-36519819D01*
X121210381Y-36519819D02*
X120924667Y-36519819D01*
X120924667Y-36519819D02*
X120829429Y-36472200D01*
X120829429Y-36472200D02*
X120781810Y-36424580D01*
%TO.C,R12*%
X95975142Y-50974819D02*
X95641809Y-50498628D01*
X95403714Y-50974819D02*
X95403714Y-49974819D01*
X95403714Y-49974819D02*
X95784666Y-49974819D01*
X95784666Y-49974819D02*
X95879904Y-50022438D01*
X95879904Y-50022438D02*
X95927523Y-50070057D01*
X95927523Y-50070057D02*
X95975142Y-50165295D01*
X95975142Y-50165295D02*
X95975142Y-50308152D01*
X95975142Y-50308152D02*
X95927523Y-50403390D01*
X95927523Y-50403390D02*
X95879904Y-50451009D01*
X95879904Y-50451009D02*
X95784666Y-50498628D01*
X95784666Y-50498628D02*
X95403714Y-50498628D01*
X96927523Y-50974819D02*
X96356095Y-50974819D01*
X96641809Y-50974819D02*
X96641809Y-49974819D01*
X96641809Y-49974819D02*
X96546571Y-50117676D01*
X96546571Y-50117676D02*
X96451333Y-50212914D01*
X96451333Y-50212914D02*
X96356095Y-50260533D01*
X97308476Y-50070057D02*
X97356095Y-50022438D01*
X97356095Y-50022438D02*
X97451333Y-49974819D01*
X97451333Y-49974819D02*
X97689428Y-49974819D01*
X97689428Y-49974819D02*
X97784666Y-50022438D01*
X97784666Y-50022438D02*
X97832285Y-50070057D01*
X97832285Y-50070057D02*
X97879904Y-50165295D01*
X97879904Y-50165295D02*
X97879904Y-50260533D01*
X97879904Y-50260533D02*
X97832285Y-50403390D01*
X97832285Y-50403390D02*
X97260857Y-50974819D01*
X97260857Y-50974819D02*
X97879904Y-50974819D01*
%TO.C,LED15*%
X118162761Y-72769819D02*
X117686571Y-72769819D01*
X117686571Y-72769819D02*
X117686571Y-71769819D01*
X118496095Y-72246009D02*
X118829428Y-72246009D01*
X118972285Y-72769819D02*
X118496095Y-72769819D01*
X118496095Y-72769819D02*
X118496095Y-71769819D01*
X118496095Y-71769819D02*
X118972285Y-71769819D01*
X119400857Y-72769819D02*
X119400857Y-71769819D01*
X119400857Y-71769819D02*
X119638952Y-71769819D01*
X119638952Y-71769819D02*
X119781809Y-71817438D01*
X119781809Y-71817438D02*
X119877047Y-71912676D01*
X119877047Y-71912676D02*
X119924666Y-72007914D01*
X119924666Y-72007914D02*
X119972285Y-72198390D01*
X119972285Y-72198390D02*
X119972285Y-72341247D01*
X119972285Y-72341247D02*
X119924666Y-72531723D01*
X119924666Y-72531723D02*
X119877047Y-72626961D01*
X119877047Y-72626961D02*
X119781809Y-72722200D01*
X119781809Y-72722200D02*
X119638952Y-72769819D01*
X119638952Y-72769819D02*
X119400857Y-72769819D01*
X120924666Y-72769819D02*
X120353238Y-72769819D01*
X120638952Y-72769819D02*
X120638952Y-71769819D01*
X120638952Y-71769819D02*
X120543714Y-71912676D01*
X120543714Y-71912676D02*
X120448476Y-72007914D01*
X120448476Y-72007914D02*
X120353238Y-72055533D01*
X121829428Y-71769819D02*
X121353238Y-71769819D01*
X121353238Y-71769819D02*
X121305619Y-72246009D01*
X121305619Y-72246009D02*
X121353238Y-72198390D01*
X121353238Y-72198390D02*
X121448476Y-72150771D01*
X121448476Y-72150771D02*
X121686571Y-72150771D01*
X121686571Y-72150771D02*
X121781809Y-72198390D01*
X121781809Y-72198390D02*
X121829428Y-72246009D01*
X121829428Y-72246009D02*
X121877047Y-72341247D01*
X121877047Y-72341247D02*
X121877047Y-72579342D01*
X121877047Y-72579342D02*
X121829428Y-72674580D01*
X121829428Y-72674580D02*
X121781809Y-72722200D01*
X121781809Y-72722200D02*
X121686571Y-72769819D01*
X121686571Y-72769819D02*
X121448476Y-72769819D01*
X121448476Y-72769819D02*
X121353238Y-72722200D01*
X121353238Y-72722200D02*
X121305619Y-72674580D01*
%TO.C,R10*%
X133975142Y-53974819D02*
X133641809Y-53498628D01*
X133403714Y-53974819D02*
X133403714Y-52974819D01*
X133403714Y-52974819D02*
X133784666Y-52974819D01*
X133784666Y-52974819D02*
X133879904Y-53022438D01*
X133879904Y-53022438D02*
X133927523Y-53070057D01*
X133927523Y-53070057D02*
X133975142Y-53165295D01*
X133975142Y-53165295D02*
X133975142Y-53308152D01*
X133975142Y-53308152D02*
X133927523Y-53403390D01*
X133927523Y-53403390D02*
X133879904Y-53451009D01*
X133879904Y-53451009D02*
X133784666Y-53498628D01*
X133784666Y-53498628D02*
X133403714Y-53498628D01*
X134927523Y-53974819D02*
X134356095Y-53974819D01*
X134641809Y-53974819D02*
X134641809Y-52974819D01*
X134641809Y-52974819D02*
X134546571Y-53117676D01*
X134546571Y-53117676D02*
X134451333Y-53212914D01*
X134451333Y-53212914D02*
X134356095Y-53260533D01*
X135546571Y-52974819D02*
X135641809Y-52974819D01*
X135641809Y-52974819D02*
X135737047Y-53022438D01*
X135737047Y-53022438D02*
X135784666Y-53070057D01*
X135784666Y-53070057D02*
X135832285Y-53165295D01*
X135832285Y-53165295D02*
X135879904Y-53355771D01*
X135879904Y-53355771D02*
X135879904Y-53593866D01*
X135879904Y-53593866D02*
X135832285Y-53784342D01*
X135832285Y-53784342D02*
X135784666Y-53879580D01*
X135784666Y-53879580D02*
X135737047Y-53927200D01*
X135737047Y-53927200D02*
X135641809Y-53974819D01*
X135641809Y-53974819D02*
X135546571Y-53974819D01*
X135546571Y-53974819D02*
X135451333Y-53927200D01*
X135451333Y-53927200D02*
X135403714Y-53879580D01*
X135403714Y-53879580D02*
X135356095Y-53784342D01*
X135356095Y-53784342D02*
X135308476Y-53593866D01*
X135308476Y-53593866D02*
X135308476Y-53355771D01*
X135308476Y-53355771D02*
X135356095Y-53165295D01*
X135356095Y-53165295D02*
X135403714Y-53070057D01*
X135403714Y-53070057D02*
X135451333Y-53022438D01*
X135451333Y-53022438D02*
X135546571Y-52974819D01*
%TO.C,Nice!View1*%
X176883115Y-75714819D02*
X176883115Y-74714819D01*
X176883115Y-74714819D02*
X177454543Y-75714819D01*
X177454543Y-75714819D02*
X177454543Y-74714819D01*
X177930734Y-75714819D02*
X177930734Y-75048152D01*
X177930734Y-74714819D02*
X177883115Y-74762438D01*
X177883115Y-74762438D02*
X177930734Y-74810057D01*
X177930734Y-74810057D02*
X177978353Y-74762438D01*
X177978353Y-74762438D02*
X177930734Y-74714819D01*
X177930734Y-74714819D02*
X177930734Y-74810057D01*
X178835495Y-75667200D02*
X178740257Y-75714819D01*
X178740257Y-75714819D02*
X178549781Y-75714819D01*
X178549781Y-75714819D02*
X178454543Y-75667200D01*
X178454543Y-75667200D02*
X178406924Y-75619580D01*
X178406924Y-75619580D02*
X178359305Y-75524342D01*
X178359305Y-75524342D02*
X178359305Y-75238628D01*
X178359305Y-75238628D02*
X178406924Y-75143390D01*
X178406924Y-75143390D02*
X178454543Y-75095771D01*
X178454543Y-75095771D02*
X178549781Y-75048152D01*
X178549781Y-75048152D02*
X178740257Y-75048152D01*
X178740257Y-75048152D02*
X178835495Y-75095771D01*
X179645019Y-75667200D02*
X179549781Y-75714819D01*
X179549781Y-75714819D02*
X179359305Y-75714819D01*
X179359305Y-75714819D02*
X179264067Y-75667200D01*
X179264067Y-75667200D02*
X179216448Y-75571961D01*
X179216448Y-75571961D02*
X179216448Y-75191009D01*
X179216448Y-75191009D02*
X179264067Y-75095771D01*
X179264067Y-75095771D02*
X179359305Y-75048152D01*
X179359305Y-75048152D02*
X179549781Y-75048152D01*
X179549781Y-75048152D02*
X179645019Y-75095771D01*
X179645019Y-75095771D02*
X179692638Y-75191009D01*
X179692638Y-75191009D02*
X179692638Y-75286247D01*
X179692638Y-75286247D02*
X179216448Y-75381485D01*
X180121210Y-75619580D02*
X180168829Y-75667200D01*
X180168829Y-75667200D02*
X180121210Y-75714819D01*
X180121210Y-75714819D02*
X180073591Y-75667200D01*
X180073591Y-75667200D02*
X180121210Y-75619580D01*
X180121210Y-75619580D02*
X180121210Y-75714819D01*
X180121210Y-75333866D02*
X180073591Y-74762438D01*
X180073591Y-74762438D02*
X180121210Y-74714819D01*
X180121210Y-74714819D02*
X180168829Y-74762438D01*
X180168829Y-74762438D02*
X180121210Y-75333866D01*
X180121210Y-75333866D02*
X180121210Y-74714819D01*
X180454543Y-74714819D02*
X180787876Y-75714819D01*
X180787876Y-75714819D02*
X181121209Y-74714819D01*
X181454543Y-75714819D02*
X181454543Y-75048152D01*
X181454543Y-74714819D02*
X181406924Y-74762438D01*
X181406924Y-74762438D02*
X181454543Y-74810057D01*
X181454543Y-74810057D02*
X181502162Y-74762438D01*
X181502162Y-74762438D02*
X181454543Y-74714819D01*
X181454543Y-74714819D02*
X181454543Y-74810057D01*
X182311685Y-75667200D02*
X182216447Y-75714819D01*
X182216447Y-75714819D02*
X182025971Y-75714819D01*
X182025971Y-75714819D02*
X181930733Y-75667200D01*
X181930733Y-75667200D02*
X181883114Y-75571961D01*
X181883114Y-75571961D02*
X181883114Y-75191009D01*
X181883114Y-75191009D02*
X181930733Y-75095771D01*
X181930733Y-75095771D02*
X182025971Y-75048152D01*
X182025971Y-75048152D02*
X182216447Y-75048152D01*
X182216447Y-75048152D02*
X182311685Y-75095771D01*
X182311685Y-75095771D02*
X182359304Y-75191009D01*
X182359304Y-75191009D02*
X182359304Y-75286247D01*
X182359304Y-75286247D02*
X181883114Y-75381485D01*
X182692638Y-75048152D02*
X182883114Y-75714819D01*
X182883114Y-75714819D02*
X183073590Y-75238628D01*
X183073590Y-75238628D02*
X183264066Y-75714819D01*
X183264066Y-75714819D02*
X183454542Y-75048152D01*
X184359304Y-75714819D02*
X183787876Y-75714819D01*
X184073590Y-75714819D02*
X184073590Y-74714819D01*
X184073590Y-74714819D02*
X183978352Y-74857676D01*
X183978352Y-74857676D02*
X183883114Y-74952914D01*
X183883114Y-74952914D02*
X183787876Y-75000533D01*
%TO.C,H4*%
X166236095Y-89254819D02*
X166236095Y-88254819D01*
X166236095Y-88731009D02*
X166807523Y-88731009D01*
X166807523Y-89254819D02*
X166807523Y-88254819D01*
X167712285Y-88588152D02*
X167712285Y-89254819D01*
X167474190Y-88207200D02*
X167236095Y-88921485D01*
X167236095Y-88921485D02*
X167855142Y-88921485D01*
%TO.C,LED4*%
X99638952Y-36769819D02*
X99162762Y-36769819D01*
X99162762Y-36769819D02*
X99162762Y-35769819D01*
X99972286Y-36246009D02*
X100305619Y-36246009D01*
X100448476Y-36769819D02*
X99972286Y-36769819D01*
X99972286Y-36769819D02*
X99972286Y-35769819D01*
X99972286Y-35769819D02*
X100448476Y-35769819D01*
X100877048Y-36769819D02*
X100877048Y-35769819D01*
X100877048Y-35769819D02*
X101115143Y-35769819D01*
X101115143Y-35769819D02*
X101258000Y-35817438D01*
X101258000Y-35817438D02*
X101353238Y-35912676D01*
X101353238Y-35912676D02*
X101400857Y-36007914D01*
X101400857Y-36007914D02*
X101448476Y-36198390D01*
X101448476Y-36198390D02*
X101448476Y-36341247D01*
X101448476Y-36341247D02*
X101400857Y-36531723D01*
X101400857Y-36531723D02*
X101353238Y-36626961D01*
X101353238Y-36626961D02*
X101258000Y-36722200D01*
X101258000Y-36722200D02*
X101115143Y-36769819D01*
X101115143Y-36769819D02*
X100877048Y-36769819D01*
X102305619Y-36103152D02*
X102305619Y-36769819D01*
X102067524Y-35722200D02*
X101829429Y-36436485D01*
X101829429Y-36436485D02*
X102448476Y-36436485D01*
%TO.C,LED1*%
X156371852Y-43019819D02*
X155895662Y-43019819D01*
X155895662Y-43019819D02*
X155895662Y-42019819D01*
X156705186Y-42496009D02*
X157038519Y-42496009D01*
X157181376Y-43019819D02*
X156705186Y-43019819D01*
X156705186Y-43019819D02*
X156705186Y-42019819D01*
X156705186Y-42019819D02*
X157181376Y-42019819D01*
X157609948Y-43019819D02*
X157609948Y-42019819D01*
X157609948Y-42019819D02*
X157848043Y-42019819D01*
X157848043Y-42019819D02*
X157990900Y-42067438D01*
X157990900Y-42067438D02*
X158086138Y-42162676D01*
X158086138Y-42162676D02*
X158133757Y-42257914D01*
X158133757Y-42257914D02*
X158181376Y-42448390D01*
X158181376Y-42448390D02*
X158181376Y-42591247D01*
X158181376Y-42591247D02*
X158133757Y-42781723D01*
X158133757Y-42781723D02*
X158086138Y-42876961D01*
X158086138Y-42876961D02*
X157990900Y-42972200D01*
X157990900Y-42972200D02*
X157848043Y-43019819D01*
X157848043Y-43019819D02*
X157609948Y-43019819D01*
X159133757Y-43019819D02*
X158562329Y-43019819D01*
X158848043Y-43019819D02*
X158848043Y-42019819D01*
X158848043Y-42019819D02*
X158752805Y-42162676D01*
X158752805Y-42162676D02*
X158657567Y-42257914D01*
X158657567Y-42257914D02*
X158562329Y-42305533D01*
%TO.C,R2*%
X161123333Y-37960819D02*
X160790000Y-37484628D01*
X160551905Y-37960819D02*
X160551905Y-36960819D01*
X160551905Y-36960819D02*
X160932857Y-36960819D01*
X160932857Y-36960819D02*
X161028095Y-37008438D01*
X161028095Y-37008438D02*
X161075714Y-37056057D01*
X161075714Y-37056057D02*
X161123333Y-37151295D01*
X161123333Y-37151295D02*
X161123333Y-37294152D01*
X161123333Y-37294152D02*
X161075714Y-37389390D01*
X161075714Y-37389390D02*
X161028095Y-37437009D01*
X161028095Y-37437009D02*
X160932857Y-37484628D01*
X160932857Y-37484628D02*
X160551905Y-37484628D01*
X161504286Y-37056057D02*
X161551905Y-37008438D01*
X161551905Y-37008438D02*
X161647143Y-36960819D01*
X161647143Y-36960819D02*
X161885238Y-36960819D01*
X161885238Y-36960819D02*
X161980476Y-37008438D01*
X161980476Y-37008438D02*
X162028095Y-37056057D01*
X162028095Y-37056057D02*
X162075714Y-37151295D01*
X162075714Y-37151295D02*
X162075714Y-37246533D01*
X162075714Y-37246533D02*
X162028095Y-37389390D01*
X162028095Y-37389390D02*
X161456667Y-37960819D01*
X161456667Y-37960819D02*
X162075714Y-37960819D01*
%TO.C,R21*%
X175776923Y-95066285D02*
X175549879Y-94531197D01*
X175217982Y-94947478D02*
X175425893Y-93969331D01*
X175425893Y-93969331D02*
X175798521Y-94048535D01*
X175798521Y-94048535D02*
X175881777Y-94114915D01*
X175881777Y-94114915D02*
X175918455Y-94171394D01*
X175918455Y-94171394D02*
X175945233Y-94274451D01*
X175945233Y-94274451D02*
X175915531Y-94414187D01*
X175915531Y-94414187D02*
X175849151Y-94497443D01*
X175849151Y-94497443D02*
X175792672Y-94534121D01*
X175792672Y-94534121D02*
X175689615Y-94560898D01*
X175689615Y-94560898D02*
X175316987Y-94481694D01*
X176337661Y-94260499D02*
X176394140Y-94223821D01*
X176394140Y-94223821D02*
X176497198Y-94197044D01*
X176497198Y-94197044D02*
X176730090Y-94246546D01*
X176730090Y-94246546D02*
X176813346Y-94312926D01*
X176813346Y-94312926D02*
X176850024Y-94369405D01*
X176850024Y-94369405D02*
X176876802Y-94472462D01*
X176876802Y-94472462D02*
X176857001Y-94565619D01*
X176857001Y-94565619D02*
X176780720Y-94695454D01*
X176780720Y-94695454D02*
X176102972Y-95135589D01*
X176102972Y-95135589D02*
X176708492Y-95264296D01*
X177640061Y-95462307D02*
X177081120Y-95343501D01*
X177360591Y-95402904D02*
X177568502Y-94424756D01*
X177568502Y-94424756D02*
X177445644Y-94544691D01*
X177445644Y-94544691D02*
X177332686Y-94618047D01*
X177332686Y-94618047D02*
X177229628Y-94644824D01*
%TO.C,RE_1*%
X179697399Y-85824819D02*
X179364066Y-85348628D01*
X179125971Y-85824819D02*
X179125971Y-84824819D01*
X179125971Y-84824819D02*
X179506923Y-84824819D01*
X179506923Y-84824819D02*
X179602161Y-84872438D01*
X179602161Y-84872438D02*
X179649780Y-84920057D01*
X179649780Y-84920057D02*
X179697399Y-85015295D01*
X179697399Y-85015295D02*
X179697399Y-85158152D01*
X179697399Y-85158152D02*
X179649780Y-85253390D01*
X179649780Y-85253390D02*
X179602161Y-85301009D01*
X179602161Y-85301009D02*
X179506923Y-85348628D01*
X179506923Y-85348628D02*
X179125971Y-85348628D01*
X180125971Y-85301009D02*
X180459304Y-85301009D01*
X180602161Y-85824819D02*
X180125971Y-85824819D01*
X180125971Y-85824819D02*
X180125971Y-84824819D01*
X180125971Y-84824819D02*
X180602161Y-84824819D01*
X180792638Y-85920057D02*
X181554542Y-85920057D01*
X182316447Y-85824819D02*
X181745019Y-85824819D01*
X182030733Y-85824819D02*
X182030733Y-84824819D01*
X182030733Y-84824819D02*
X181935495Y-84967676D01*
X181935495Y-84967676D02*
X181840257Y-85062914D01*
X181840257Y-85062914D02*
X181745019Y-85110533D01*
%TO.C,H1*%
X71494095Y-49630819D02*
X71494095Y-48630819D01*
X71494095Y-49107009D02*
X72065523Y-49107009D01*
X72065523Y-49630819D02*
X72065523Y-48630819D01*
X73065523Y-49630819D02*
X72494095Y-49630819D01*
X72779809Y-49630819D02*
X72779809Y-48630819D01*
X72779809Y-48630819D02*
X72684571Y-48773676D01*
X72684571Y-48773676D02*
X72589333Y-48868914D01*
X72589333Y-48868914D02*
X72494095Y-48916533D01*
%TO.C,LED13*%
X155895661Y-79019819D02*
X155419471Y-79019819D01*
X155419471Y-79019819D02*
X155419471Y-78019819D01*
X156228995Y-78496009D02*
X156562328Y-78496009D01*
X156705185Y-79019819D02*
X156228995Y-79019819D01*
X156228995Y-79019819D02*
X156228995Y-78019819D01*
X156228995Y-78019819D02*
X156705185Y-78019819D01*
X157133757Y-79019819D02*
X157133757Y-78019819D01*
X157133757Y-78019819D02*
X157371852Y-78019819D01*
X157371852Y-78019819D02*
X157514709Y-78067438D01*
X157514709Y-78067438D02*
X157609947Y-78162676D01*
X157609947Y-78162676D02*
X157657566Y-78257914D01*
X157657566Y-78257914D02*
X157705185Y-78448390D01*
X157705185Y-78448390D02*
X157705185Y-78591247D01*
X157705185Y-78591247D02*
X157657566Y-78781723D01*
X157657566Y-78781723D02*
X157609947Y-78876961D01*
X157609947Y-78876961D02*
X157514709Y-78972200D01*
X157514709Y-78972200D02*
X157371852Y-79019819D01*
X157371852Y-79019819D02*
X157133757Y-79019819D01*
X158657566Y-79019819D02*
X158086138Y-79019819D01*
X158371852Y-79019819D02*
X158371852Y-78019819D01*
X158371852Y-78019819D02*
X158276614Y-78162676D01*
X158276614Y-78162676D02*
X158181376Y-78257914D01*
X158181376Y-78257914D02*
X158086138Y-78305533D01*
X158990900Y-78019819D02*
X159609947Y-78019819D01*
X159609947Y-78019819D02*
X159276614Y-78400771D01*
X159276614Y-78400771D02*
X159419471Y-78400771D01*
X159419471Y-78400771D02*
X159514709Y-78448390D01*
X159514709Y-78448390D02*
X159562328Y-78496009D01*
X159562328Y-78496009D02*
X159609947Y-78591247D01*
X159609947Y-78591247D02*
X159609947Y-78829342D01*
X159609947Y-78829342D02*
X159562328Y-78924580D01*
X159562328Y-78924580D02*
X159514709Y-78972200D01*
X159514709Y-78972200D02*
X159419471Y-79019819D01*
X159419471Y-79019819D02*
X159133757Y-79019819D01*
X159133757Y-79019819D02*
X159038519Y-78972200D01*
X159038519Y-78972200D02*
X158990900Y-78924580D01*
%TO.C,R18*%
X95975142Y-68974819D02*
X95641809Y-68498628D01*
X95403714Y-68974819D02*
X95403714Y-67974819D01*
X95403714Y-67974819D02*
X95784666Y-67974819D01*
X95784666Y-67974819D02*
X95879904Y-68022438D01*
X95879904Y-68022438D02*
X95927523Y-68070057D01*
X95927523Y-68070057D02*
X95975142Y-68165295D01*
X95975142Y-68165295D02*
X95975142Y-68308152D01*
X95975142Y-68308152D02*
X95927523Y-68403390D01*
X95927523Y-68403390D02*
X95879904Y-68451009D01*
X95879904Y-68451009D02*
X95784666Y-68498628D01*
X95784666Y-68498628D02*
X95403714Y-68498628D01*
X96927523Y-68974819D02*
X96356095Y-68974819D01*
X96641809Y-68974819D02*
X96641809Y-67974819D01*
X96641809Y-67974819D02*
X96546571Y-68117676D01*
X96546571Y-68117676D02*
X96451333Y-68212914D01*
X96451333Y-68212914D02*
X96356095Y-68260533D01*
X97498952Y-68403390D02*
X97403714Y-68355771D01*
X97403714Y-68355771D02*
X97356095Y-68308152D01*
X97356095Y-68308152D02*
X97308476Y-68212914D01*
X97308476Y-68212914D02*
X97308476Y-68165295D01*
X97308476Y-68165295D02*
X97356095Y-68070057D01*
X97356095Y-68070057D02*
X97403714Y-68022438D01*
X97403714Y-68022438D02*
X97498952Y-67974819D01*
X97498952Y-67974819D02*
X97689428Y-67974819D01*
X97689428Y-67974819D02*
X97784666Y-68022438D01*
X97784666Y-68022438D02*
X97832285Y-68070057D01*
X97832285Y-68070057D02*
X97879904Y-68165295D01*
X97879904Y-68165295D02*
X97879904Y-68212914D01*
X97879904Y-68212914D02*
X97832285Y-68308152D01*
X97832285Y-68308152D02*
X97784666Y-68355771D01*
X97784666Y-68355771D02*
X97689428Y-68403390D01*
X97689428Y-68403390D02*
X97498952Y-68403390D01*
X97498952Y-68403390D02*
X97403714Y-68451009D01*
X97403714Y-68451009D02*
X97356095Y-68498628D01*
X97356095Y-68498628D02*
X97308476Y-68593866D01*
X97308476Y-68593866D02*
X97308476Y-68784342D01*
X97308476Y-68784342D02*
X97356095Y-68879580D01*
X97356095Y-68879580D02*
X97403714Y-68927200D01*
X97403714Y-68927200D02*
X97498952Y-68974819D01*
X97498952Y-68974819D02*
X97689428Y-68974819D01*
X97689428Y-68974819D02*
X97784666Y-68927200D01*
X97784666Y-68927200D02*
X97832285Y-68879580D01*
X97832285Y-68879580D02*
X97879904Y-68784342D01*
X97879904Y-68784342D02*
X97879904Y-68593866D01*
X97879904Y-68593866D02*
X97832285Y-68498628D01*
X97832285Y-68498628D02*
X97784666Y-68451009D01*
X97784666Y-68451009D02*
X97689428Y-68403390D01*
%TO.C,R19*%
X76975142Y-71974819D02*
X76641809Y-71498628D01*
X76403714Y-71974819D02*
X76403714Y-70974819D01*
X76403714Y-70974819D02*
X76784666Y-70974819D01*
X76784666Y-70974819D02*
X76879904Y-71022438D01*
X76879904Y-71022438D02*
X76927523Y-71070057D01*
X76927523Y-71070057D02*
X76975142Y-71165295D01*
X76975142Y-71165295D02*
X76975142Y-71308152D01*
X76975142Y-71308152D02*
X76927523Y-71403390D01*
X76927523Y-71403390D02*
X76879904Y-71451009D01*
X76879904Y-71451009D02*
X76784666Y-71498628D01*
X76784666Y-71498628D02*
X76403714Y-71498628D01*
X77927523Y-71974819D02*
X77356095Y-71974819D01*
X77641809Y-71974819D02*
X77641809Y-70974819D01*
X77641809Y-70974819D02*
X77546571Y-71117676D01*
X77546571Y-71117676D02*
X77451333Y-71212914D01*
X77451333Y-71212914D02*
X77356095Y-71260533D01*
X78403714Y-71974819D02*
X78594190Y-71974819D01*
X78594190Y-71974819D02*
X78689428Y-71927200D01*
X78689428Y-71927200D02*
X78737047Y-71879580D01*
X78737047Y-71879580D02*
X78832285Y-71736723D01*
X78832285Y-71736723D02*
X78879904Y-71546247D01*
X78879904Y-71546247D02*
X78879904Y-71165295D01*
X78879904Y-71165295D02*
X78832285Y-71070057D01*
X78832285Y-71070057D02*
X78784666Y-71022438D01*
X78784666Y-71022438D02*
X78689428Y-70974819D01*
X78689428Y-70974819D02*
X78498952Y-70974819D01*
X78498952Y-70974819D02*
X78403714Y-71022438D01*
X78403714Y-71022438D02*
X78356095Y-71070057D01*
X78356095Y-71070057D02*
X78308476Y-71165295D01*
X78308476Y-71165295D02*
X78308476Y-71403390D01*
X78308476Y-71403390D02*
X78356095Y-71498628D01*
X78356095Y-71498628D02*
X78403714Y-71546247D01*
X78403714Y-71546247D02*
X78498952Y-71593866D01*
X78498952Y-71593866D02*
X78689428Y-71593866D01*
X78689428Y-71593866D02*
X78784666Y-71546247D01*
X78784666Y-71546247D02*
X78832285Y-71498628D01*
X78832285Y-71498628D02*
X78879904Y-71403390D01*
%TO.C,R14*%
X57975142Y-53974819D02*
X57641809Y-53498628D01*
X57403714Y-53974819D02*
X57403714Y-52974819D01*
X57403714Y-52974819D02*
X57784666Y-52974819D01*
X57784666Y-52974819D02*
X57879904Y-53022438D01*
X57879904Y-53022438D02*
X57927523Y-53070057D01*
X57927523Y-53070057D02*
X57975142Y-53165295D01*
X57975142Y-53165295D02*
X57975142Y-53308152D01*
X57975142Y-53308152D02*
X57927523Y-53403390D01*
X57927523Y-53403390D02*
X57879904Y-53451009D01*
X57879904Y-53451009D02*
X57784666Y-53498628D01*
X57784666Y-53498628D02*
X57403714Y-53498628D01*
X58927523Y-53974819D02*
X58356095Y-53974819D01*
X58641809Y-53974819D02*
X58641809Y-52974819D01*
X58641809Y-52974819D02*
X58546571Y-53117676D01*
X58546571Y-53117676D02*
X58451333Y-53212914D01*
X58451333Y-53212914D02*
X58356095Y-53260533D01*
X59784666Y-53308152D02*
X59784666Y-53974819D01*
X59546571Y-52927200D02*
X59308476Y-53641485D01*
X59308476Y-53641485D02*
X59927523Y-53641485D01*
%TO.C,R24*%
X114975142Y-86974819D02*
X114641809Y-86498628D01*
X114403714Y-86974819D02*
X114403714Y-85974819D01*
X114403714Y-85974819D02*
X114784666Y-85974819D01*
X114784666Y-85974819D02*
X114879904Y-86022438D01*
X114879904Y-86022438D02*
X114927523Y-86070057D01*
X114927523Y-86070057D02*
X114975142Y-86165295D01*
X114975142Y-86165295D02*
X114975142Y-86308152D01*
X114975142Y-86308152D02*
X114927523Y-86403390D01*
X114927523Y-86403390D02*
X114879904Y-86451009D01*
X114879904Y-86451009D02*
X114784666Y-86498628D01*
X114784666Y-86498628D02*
X114403714Y-86498628D01*
X115356095Y-86070057D02*
X115403714Y-86022438D01*
X115403714Y-86022438D02*
X115498952Y-85974819D01*
X115498952Y-85974819D02*
X115737047Y-85974819D01*
X115737047Y-85974819D02*
X115832285Y-86022438D01*
X115832285Y-86022438D02*
X115879904Y-86070057D01*
X115879904Y-86070057D02*
X115927523Y-86165295D01*
X115927523Y-86165295D02*
X115927523Y-86260533D01*
X115927523Y-86260533D02*
X115879904Y-86403390D01*
X115879904Y-86403390D02*
X115308476Y-86974819D01*
X115308476Y-86974819D02*
X115927523Y-86974819D01*
X116784666Y-86308152D02*
X116784666Y-86974819D01*
X116546571Y-85927200D02*
X116308476Y-86641485D01*
X116308476Y-86641485D02*
X116927523Y-86641485D01*
%TO.C,R1*%
X161123333Y-40754819D02*
X160790000Y-40278628D01*
X160551905Y-40754819D02*
X160551905Y-39754819D01*
X160551905Y-39754819D02*
X160932857Y-39754819D01*
X160932857Y-39754819D02*
X161028095Y-39802438D01*
X161028095Y-39802438D02*
X161075714Y-39850057D01*
X161075714Y-39850057D02*
X161123333Y-39945295D01*
X161123333Y-39945295D02*
X161123333Y-40088152D01*
X161123333Y-40088152D02*
X161075714Y-40183390D01*
X161075714Y-40183390D02*
X161028095Y-40231009D01*
X161028095Y-40231009D02*
X160932857Y-40278628D01*
X160932857Y-40278628D02*
X160551905Y-40278628D01*
X162075714Y-40754819D02*
X161504286Y-40754819D01*
X161790000Y-40754819D02*
X161790000Y-39754819D01*
X161790000Y-39754819D02*
X161694762Y-39897676D01*
X161694762Y-39897676D02*
X161599524Y-39992914D01*
X161599524Y-39992914D02*
X161504286Y-40040533D01*
%TO.C,LED23*%
X99162761Y-90669819D02*
X98686571Y-90669819D01*
X98686571Y-90669819D02*
X98686571Y-89669819D01*
X99496095Y-90146009D02*
X99829428Y-90146009D01*
X99972285Y-90669819D02*
X99496095Y-90669819D01*
X99496095Y-90669819D02*
X99496095Y-89669819D01*
X99496095Y-89669819D02*
X99972285Y-89669819D01*
X100400857Y-90669819D02*
X100400857Y-89669819D01*
X100400857Y-89669819D02*
X100638952Y-89669819D01*
X100638952Y-89669819D02*
X100781809Y-89717438D01*
X100781809Y-89717438D02*
X100877047Y-89812676D01*
X100877047Y-89812676D02*
X100924666Y-89907914D01*
X100924666Y-89907914D02*
X100972285Y-90098390D01*
X100972285Y-90098390D02*
X100972285Y-90241247D01*
X100972285Y-90241247D02*
X100924666Y-90431723D01*
X100924666Y-90431723D02*
X100877047Y-90526961D01*
X100877047Y-90526961D02*
X100781809Y-90622200D01*
X100781809Y-90622200D02*
X100638952Y-90669819D01*
X100638952Y-90669819D02*
X100400857Y-90669819D01*
X101353238Y-89765057D02*
X101400857Y-89717438D01*
X101400857Y-89717438D02*
X101496095Y-89669819D01*
X101496095Y-89669819D02*
X101734190Y-89669819D01*
X101734190Y-89669819D02*
X101829428Y-89717438D01*
X101829428Y-89717438D02*
X101877047Y-89765057D01*
X101877047Y-89765057D02*
X101924666Y-89860295D01*
X101924666Y-89860295D02*
X101924666Y-89955533D01*
X101924666Y-89955533D02*
X101877047Y-90098390D01*
X101877047Y-90098390D02*
X101305619Y-90669819D01*
X101305619Y-90669819D02*
X101924666Y-90669819D01*
X102258000Y-89669819D02*
X102877047Y-89669819D01*
X102877047Y-89669819D02*
X102543714Y-90050771D01*
X102543714Y-90050771D02*
X102686571Y-90050771D01*
X102686571Y-90050771D02*
X102781809Y-90098390D01*
X102781809Y-90098390D02*
X102829428Y-90146009D01*
X102829428Y-90146009D02*
X102877047Y-90241247D01*
X102877047Y-90241247D02*
X102877047Y-90479342D01*
X102877047Y-90479342D02*
X102829428Y-90574580D01*
X102829428Y-90574580D02*
X102781809Y-90622200D01*
X102781809Y-90622200D02*
X102686571Y-90669819D01*
X102686571Y-90669819D02*
X102400857Y-90669819D01*
X102400857Y-90669819D02*
X102305619Y-90622200D01*
X102305619Y-90622200D02*
X102258000Y-90574580D01*
%TO.C,LED10*%
X99162761Y-54769819D02*
X98686571Y-54769819D01*
X98686571Y-54769819D02*
X98686571Y-53769819D01*
X99496095Y-54246009D02*
X99829428Y-54246009D01*
X99972285Y-54769819D02*
X99496095Y-54769819D01*
X99496095Y-54769819D02*
X99496095Y-53769819D01*
X99496095Y-53769819D02*
X99972285Y-53769819D01*
X100400857Y-54769819D02*
X100400857Y-53769819D01*
X100400857Y-53769819D02*
X100638952Y-53769819D01*
X100638952Y-53769819D02*
X100781809Y-53817438D01*
X100781809Y-53817438D02*
X100877047Y-53912676D01*
X100877047Y-53912676D02*
X100924666Y-54007914D01*
X100924666Y-54007914D02*
X100972285Y-54198390D01*
X100972285Y-54198390D02*
X100972285Y-54341247D01*
X100972285Y-54341247D02*
X100924666Y-54531723D01*
X100924666Y-54531723D02*
X100877047Y-54626961D01*
X100877047Y-54626961D02*
X100781809Y-54722200D01*
X100781809Y-54722200D02*
X100638952Y-54769819D01*
X100638952Y-54769819D02*
X100400857Y-54769819D01*
X101924666Y-54769819D02*
X101353238Y-54769819D01*
X101638952Y-54769819D02*
X101638952Y-53769819D01*
X101638952Y-53769819D02*
X101543714Y-53912676D01*
X101543714Y-53912676D02*
X101448476Y-54007914D01*
X101448476Y-54007914D02*
X101353238Y-54055533D01*
X102543714Y-53769819D02*
X102638952Y-53769819D01*
X102638952Y-53769819D02*
X102734190Y-53817438D01*
X102734190Y-53817438D02*
X102781809Y-53865057D01*
X102781809Y-53865057D02*
X102829428Y-53960295D01*
X102829428Y-53960295D02*
X102877047Y-54150771D01*
X102877047Y-54150771D02*
X102877047Y-54388866D01*
X102877047Y-54388866D02*
X102829428Y-54579342D01*
X102829428Y-54579342D02*
X102781809Y-54674580D01*
X102781809Y-54674580D02*
X102734190Y-54722200D01*
X102734190Y-54722200D02*
X102638952Y-54769819D01*
X102638952Y-54769819D02*
X102543714Y-54769819D01*
X102543714Y-54769819D02*
X102448476Y-54722200D01*
X102448476Y-54722200D02*
X102400857Y-54674580D01*
X102400857Y-54674580D02*
X102353238Y-54579342D01*
X102353238Y-54579342D02*
X102305619Y-54388866D01*
X102305619Y-54388866D02*
X102305619Y-54150771D01*
X102305619Y-54150771D02*
X102353238Y-53960295D01*
X102353238Y-53960295D02*
X102400857Y-53865057D01*
X102400857Y-53865057D02*
X102448476Y-53817438D01*
X102448476Y-53817438D02*
X102543714Y-53769819D01*
%TO.C,SW4*%
X165316667Y-40939200D02*
X165459524Y-40986819D01*
X165459524Y-40986819D02*
X165697619Y-40986819D01*
X165697619Y-40986819D02*
X165792857Y-40939200D01*
X165792857Y-40939200D02*
X165840476Y-40891580D01*
X165840476Y-40891580D02*
X165888095Y-40796342D01*
X165888095Y-40796342D02*
X165888095Y-40701104D01*
X165888095Y-40701104D02*
X165840476Y-40605866D01*
X165840476Y-40605866D02*
X165792857Y-40558247D01*
X165792857Y-40558247D02*
X165697619Y-40510628D01*
X165697619Y-40510628D02*
X165507143Y-40463009D01*
X165507143Y-40463009D02*
X165411905Y-40415390D01*
X165411905Y-40415390D02*
X165364286Y-40367771D01*
X165364286Y-40367771D02*
X165316667Y-40272533D01*
X165316667Y-40272533D02*
X165316667Y-40177295D01*
X165316667Y-40177295D02*
X165364286Y-40082057D01*
X165364286Y-40082057D02*
X165411905Y-40034438D01*
X165411905Y-40034438D02*
X165507143Y-39986819D01*
X165507143Y-39986819D02*
X165745238Y-39986819D01*
X165745238Y-39986819D02*
X165888095Y-40034438D01*
X166221429Y-39986819D02*
X166459524Y-40986819D01*
X166459524Y-40986819D02*
X166650000Y-40272533D01*
X166650000Y-40272533D02*
X166840476Y-40986819D01*
X166840476Y-40986819D02*
X167078572Y-39986819D01*
X167888095Y-40320152D02*
X167888095Y-40986819D01*
X167650000Y-39939200D02*
X167411905Y-40653485D01*
X167411905Y-40653485D02*
X168030952Y-40653485D01*
%TO.C,R20*%
X57975142Y-71974819D02*
X57641809Y-71498628D01*
X57403714Y-71974819D02*
X57403714Y-70974819D01*
X57403714Y-70974819D02*
X57784666Y-70974819D01*
X57784666Y-70974819D02*
X57879904Y-71022438D01*
X57879904Y-71022438D02*
X57927523Y-71070057D01*
X57927523Y-71070057D02*
X57975142Y-71165295D01*
X57975142Y-71165295D02*
X57975142Y-71308152D01*
X57975142Y-71308152D02*
X57927523Y-71403390D01*
X57927523Y-71403390D02*
X57879904Y-71451009D01*
X57879904Y-71451009D02*
X57784666Y-71498628D01*
X57784666Y-71498628D02*
X57403714Y-71498628D01*
X58356095Y-71070057D02*
X58403714Y-71022438D01*
X58403714Y-71022438D02*
X58498952Y-70974819D01*
X58498952Y-70974819D02*
X58737047Y-70974819D01*
X58737047Y-70974819D02*
X58832285Y-71022438D01*
X58832285Y-71022438D02*
X58879904Y-71070057D01*
X58879904Y-71070057D02*
X58927523Y-71165295D01*
X58927523Y-71165295D02*
X58927523Y-71260533D01*
X58927523Y-71260533D02*
X58879904Y-71403390D01*
X58879904Y-71403390D02*
X58308476Y-71974819D01*
X58308476Y-71974819D02*
X58927523Y-71974819D01*
X59546571Y-70974819D02*
X59641809Y-70974819D01*
X59641809Y-70974819D02*
X59737047Y-71022438D01*
X59737047Y-71022438D02*
X59784666Y-71070057D01*
X59784666Y-71070057D02*
X59832285Y-71165295D01*
X59832285Y-71165295D02*
X59879904Y-71355771D01*
X59879904Y-71355771D02*
X59879904Y-71593866D01*
X59879904Y-71593866D02*
X59832285Y-71784342D01*
X59832285Y-71784342D02*
X59784666Y-71879580D01*
X59784666Y-71879580D02*
X59737047Y-71927200D01*
X59737047Y-71927200D02*
X59641809Y-71974819D01*
X59641809Y-71974819D02*
X59546571Y-71974819D01*
X59546571Y-71974819D02*
X59451333Y-71927200D01*
X59451333Y-71927200D02*
X59403714Y-71879580D01*
X59403714Y-71879580D02*
X59356095Y-71784342D01*
X59356095Y-71784342D02*
X59308476Y-71593866D01*
X59308476Y-71593866D02*
X59308476Y-71355771D01*
X59308476Y-71355771D02*
X59356095Y-71165295D01*
X59356095Y-71165295D02*
X59403714Y-71070057D01*
X59403714Y-71070057D02*
X59451333Y-71022438D01*
X59451333Y-71022438D02*
X59546571Y-70974819D01*
%TO.C,LED17*%
X80162761Y-75769819D02*
X79686571Y-75769819D01*
X79686571Y-75769819D02*
X79686571Y-74769819D01*
X80496095Y-75246009D02*
X80829428Y-75246009D01*
X80972285Y-75769819D02*
X80496095Y-75769819D01*
X80496095Y-75769819D02*
X80496095Y-74769819D01*
X80496095Y-74769819D02*
X80972285Y-74769819D01*
X81400857Y-75769819D02*
X81400857Y-74769819D01*
X81400857Y-74769819D02*
X81638952Y-74769819D01*
X81638952Y-74769819D02*
X81781809Y-74817438D01*
X81781809Y-74817438D02*
X81877047Y-74912676D01*
X81877047Y-74912676D02*
X81924666Y-75007914D01*
X81924666Y-75007914D02*
X81972285Y-75198390D01*
X81972285Y-75198390D02*
X81972285Y-75341247D01*
X81972285Y-75341247D02*
X81924666Y-75531723D01*
X81924666Y-75531723D02*
X81877047Y-75626961D01*
X81877047Y-75626961D02*
X81781809Y-75722200D01*
X81781809Y-75722200D02*
X81638952Y-75769819D01*
X81638952Y-75769819D02*
X81400857Y-75769819D01*
X82924666Y-75769819D02*
X82353238Y-75769819D01*
X82638952Y-75769819D02*
X82638952Y-74769819D01*
X82638952Y-74769819D02*
X82543714Y-74912676D01*
X82543714Y-74912676D02*
X82448476Y-75007914D01*
X82448476Y-75007914D02*
X82353238Y-75055533D01*
X83258000Y-74769819D02*
X83924666Y-74769819D01*
X83924666Y-74769819D02*
X83496095Y-75769819D01*
%TO.C,R6*%
X89416833Y-37738819D02*
X89083500Y-37262628D01*
X88845405Y-37738819D02*
X88845405Y-36738819D01*
X88845405Y-36738819D02*
X89226357Y-36738819D01*
X89226357Y-36738819D02*
X89321595Y-36786438D01*
X89321595Y-36786438D02*
X89369214Y-36834057D01*
X89369214Y-36834057D02*
X89416833Y-36929295D01*
X89416833Y-36929295D02*
X89416833Y-37072152D01*
X89416833Y-37072152D02*
X89369214Y-37167390D01*
X89369214Y-37167390D02*
X89321595Y-37215009D01*
X89321595Y-37215009D02*
X89226357Y-37262628D01*
X89226357Y-37262628D02*
X88845405Y-37262628D01*
X90273976Y-36738819D02*
X90083500Y-36738819D01*
X90083500Y-36738819D02*
X89988262Y-36786438D01*
X89988262Y-36786438D02*
X89940643Y-36834057D01*
X89940643Y-36834057D02*
X89845405Y-36976914D01*
X89845405Y-36976914D02*
X89797786Y-37167390D01*
X89797786Y-37167390D02*
X89797786Y-37548342D01*
X89797786Y-37548342D02*
X89845405Y-37643580D01*
X89845405Y-37643580D02*
X89893024Y-37691200D01*
X89893024Y-37691200D02*
X89988262Y-37738819D01*
X89988262Y-37738819D02*
X90178738Y-37738819D01*
X90178738Y-37738819D02*
X90273976Y-37691200D01*
X90273976Y-37691200D02*
X90321595Y-37643580D01*
X90321595Y-37643580D02*
X90369214Y-37548342D01*
X90369214Y-37548342D02*
X90369214Y-37310247D01*
X90369214Y-37310247D02*
X90321595Y-37215009D01*
X90321595Y-37215009D02*
X90273976Y-37167390D01*
X90273976Y-37167390D02*
X90178738Y-37119771D01*
X90178738Y-37119771D02*
X89988262Y-37119771D01*
X89988262Y-37119771D02*
X89893024Y-37167390D01*
X89893024Y-37167390D02*
X89845405Y-37215009D01*
X89845405Y-37215009D02*
X89797786Y-37310247D01*
%TO.C,LED20*%
X155895661Y-97019819D02*
X155419471Y-97019819D01*
X155419471Y-97019819D02*
X155419471Y-96019819D01*
X156228995Y-96496009D02*
X156562328Y-96496009D01*
X156705185Y-97019819D02*
X156228995Y-97019819D01*
X156228995Y-97019819D02*
X156228995Y-96019819D01*
X156228995Y-96019819D02*
X156705185Y-96019819D01*
X157133757Y-97019819D02*
X157133757Y-96019819D01*
X157133757Y-96019819D02*
X157371852Y-96019819D01*
X157371852Y-96019819D02*
X157514709Y-96067438D01*
X157514709Y-96067438D02*
X157609947Y-96162676D01*
X157609947Y-96162676D02*
X157657566Y-96257914D01*
X157657566Y-96257914D02*
X157705185Y-96448390D01*
X157705185Y-96448390D02*
X157705185Y-96591247D01*
X157705185Y-96591247D02*
X157657566Y-96781723D01*
X157657566Y-96781723D02*
X157609947Y-96876961D01*
X157609947Y-96876961D02*
X157514709Y-96972200D01*
X157514709Y-96972200D02*
X157371852Y-97019819D01*
X157371852Y-97019819D02*
X157133757Y-97019819D01*
X158086138Y-96115057D02*
X158133757Y-96067438D01*
X158133757Y-96067438D02*
X158228995Y-96019819D01*
X158228995Y-96019819D02*
X158467090Y-96019819D01*
X158467090Y-96019819D02*
X158562328Y-96067438D01*
X158562328Y-96067438D02*
X158609947Y-96115057D01*
X158609947Y-96115057D02*
X158657566Y-96210295D01*
X158657566Y-96210295D02*
X158657566Y-96305533D01*
X158657566Y-96305533D02*
X158609947Y-96448390D01*
X158609947Y-96448390D02*
X158038519Y-97019819D01*
X158038519Y-97019819D02*
X158657566Y-97019819D01*
X159276614Y-96019819D02*
X159371852Y-96019819D01*
X159371852Y-96019819D02*
X159467090Y-96067438D01*
X159467090Y-96067438D02*
X159514709Y-96115057D01*
X159514709Y-96115057D02*
X159562328Y-96210295D01*
X159562328Y-96210295D02*
X159609947Y-96400771D01*
X159609947Y-96400771D02*
X159609947Y-96638866D01*
X159609947Y-96638866D02*
X159562328Y-96829342D01*
X159562328Y-96829342D02*
X159514709Y-96924580D01*
X159514709Y-96924580D02*
X159467090Y-96972200D01*
X159467090Y-96972200D02*
X159371852Y-97019819D01*
X159371852Y-97019819D02*
X159276614Y-97019819D01*
X159276614Y-97019819D02*
X159181376Y-96972200D01*
X159181376Y-96972200D02*
X159133757Y-96924580D01*
X159133757Y-96924580D02*
X159086138Y-96829342D01*
X159086138Y-96829342D02*
X159038519Y-96638866D01*
X159038519Y-96638866D02*
X159038519Y-96400771D01*
X159038519Y-96400771D02*
X159086138Y-96210295D01*
X159086138Y-96210295D02*
X159133757Y-96115057D01*
X159133757Y-96115057D02*
X159181376Y-96067438D01*
X159181376Y-96067438D02*
X159276614Y-96019819D01*
%TO.C,R4*%
X141431333Y-37658819D02*
X141098000Y-37182628D01*
X140859905Y-37658819D02*
X140859905Y-36658819D01*
X140859905Y-36658819D02*
X141240857Y-36658819D01*
X141240857Y-36658819D02*
X141336095Y-36706438D01*
X141336095Y-36706438D02*
X141383714Y-36754057D01*
X141383714Y-36754057D02*
X141431333Y-36849295D01*
X141431333Y-36849295D02*
X141431333Y-36992152D01*
X141431333Y-36992152D02*
X141383714Y-37087390D01*
X141383714Y-37087390D02*
X141336095Y-37135009D01*
X141336095Y-37135009D02*
X141240857Y-37182628D01*
X141240857Y-37182628D02*
X140859905Y-37182628D01*
X142288476Y-36992152D02*
X142288476Y-37658819D01*
X142050381Y-36611200D02*
X141812286Y-37325485D01*
X141812286Y-37325485D02*
X142431333Y-37325485D01*
%TO.C,LED18*%
X61162761Y-75769819D02*
X60686571Y-75769819D01*
X60686571Y-75769819D02*
X60686571Y-74769819D01*
X61496095Y-75246009D02*
X61829428Y-75246009D01*
X61972285Y-75769819D02*
X61496095Y-75769819D01*
X61496095Y-75769819D02*
X61496095Y-74769819D01*
X61496095Y-74769819D02*
X61972285Y-74769819D01*
X62400857Y-75769819D02*
X62400857Y-74769819D01*
X62400857Y-74769819D02*
X62638952Y-74769819D01*
X62638952Y-74769819D02*
X62781809Y-74817438D01*
X62781809Y-74817438D02*
X62877047Y-74912676D01*
X62877047Y-74912676D02*
X62924666Y-75007914D01*
X62924666Y-75007914D02*
X62972285Y-75198390D01*
X62972285Y-75198390D02*
X62972285Y-75341247D01*
X62972285Y-75341247D02*
X62924666Y-75531723D01*
X62924666Y-75531723D02*
X62877047Y-75626961D01*
X62877047Y-75626961D02*
X62781809Y-75722200D01*
X62781809Y-75722200D02*
X62638952Y-75769819D01*
X62638952Y-75769819D02*
X62400857Y-75769819D01*
X63924666Y-75769819D02*
X63353238Y-75769819D01*
X63638952Y-75769819D02*
X63638952Y-74769819D01*
X63638952Y-74769819D02*
X63543714Y-74912676D01*
X63543714Y-74912676D02*
X63448476Y-75007914D01*
X63448476Y-75007914D02*
X63353238Y-75055533D01*
X64496095Y-75198390D02*
X64400857Y-75150771D01*
X64400857Y-75150771D02*
X64353238Y-75103152D01*
X64353238Y-75103152D02*
X64305619Y-75007914D01*
X64305619Y-75007914D02*
X64305619Y-74960295D01*
X64305619Y-74960295D02*
X64353238Y-74865057D01*
X64353238Y-74865057D02*
X64400857Y-74817438D01*
X64400857Y-74817438D02*
X64496095Y-74769819D01*
X64496095Y-74769819D02*
X64686571Y-74769819D01*
X64686571Y-74769819D02*
X64781809Y-74817438D01*
X64781809Y-74817438D02*
X64829428Y-74865057D01*
X64829428Y-74865057D02*
X64877047Y-74960295D01*
X64877047Y-74960295D02*
X64877047Y-75007914D01*
X64877047Y-75007914D02*
X64829428Y-75103152D01*
X64829428Y-75103152D02*
X64781809Y-75150771D01*
X64781809Y-75150771D02*
X64686571Y-75198390D01*
X64686571Y-75198390D02*
X64496095Y-75198390D01*
X64496095Y-75198390D02*
X64400857Y-75246009D01*
X64400857Y-75246009D02*
X64353238Y-75293628D01*
X64353238Y-75293628D02*
X64305619Y-75388866D01*
X64305619Y-75388866D02*
X64305619Y-75579342D01*
X64305619Y-75579342D02*
X64353238Y-75674580D01*
X64353238Y-75674580D02*
X64400857Y-75722200D01*
X64400857Y-75722200D02*
X64496095Y-75769819D01*
X64496095Y-75769819D02*
X64686571Y-75769819D01*
X64686571Y-75769819D02*
X64781809Y-75722200D01*
X64781809Y-75722200D02*
X64829428Y-75674580D01*
X64829428Y-75674580D02*
X64877047Y-75579342D01*
X64877047Y-75579342D02*
X64877047Y-75388866D01*
X64877047Y-75388866D02*
X64829428Y-75293628D01*
X64829428Y-75293628D02*
X64781809Y-75246009D01*
X64781809Y-75246009D02*
X64686571Y-75198390D01*
%TO.C,LED8*%
X137638952Y-57769819D02*
X137162762Y-57769819D01*
X137162762Y-57769819D02*
X137162762Y-56769819D01*
X137972286Y-57246009D02*
X138305619Y-57246009D01*
X138448476Y-57769819D02*
X137972286Y-57769819D01*
X137972286Y-57769819D02*
X137972286Y-56769819D01*
X137972286Y-56769819D02*
X138448476Y-56769819D01*
X138877048Y-57769819D02*
X138877048Y-56769819D01*
X138877048Y-56769819D02*
X139115143Y-56769819D01*
X139115143Y-56769819D02*
X139258000Y-56817438D01*
X139258000Y-56817438D02*
X139353238Y-56912676D01*
X139353238Y-56912676D02*
X139400857Y-57007914D01*
X139400857Y-57007914D02*
X139448476Y-57198390D01*
X139448476Y-57198390D02*
X139448476Y-57341247D01*
X139448476Y-57341247D02*
X139400857Y-57531723D01*
X139400857Y-57531723D02*
X139353238Y-57626961D01*
X139353238Y-57626961D02*
X139258000Y-57722200D01*
X139258000Y-57722200D02*
X139115143Y-57769819D01*
X139115143Y-57769819D02*
X138877048Y-57769819D01*
X140019905Y-57198390D02*
X139924667Y-57150771D01*
X139924667Y-57150771D02*
X139877048Y-57103152D01*
X139877048Y-57103152D02*
X139829429Y-57007914D01*
X139829429Y-57007914D02*
X139829429Y-56960295D01*
X139829429Y-56960295D02*
X139877048Y-56865057D01*
X139877048Y-56865057D02*
X139924667Y-56817438D01*
X139924667Y-56817438D02*
X140019905Y-56769819D01*
X140019905Y-56769819D02*
X140210381Y-56769819D01*
X140210381Y-56769819D02*
X140305619Y-56817438D01*
X140305619Y-56817438D02*
X140353238Y-56865057D01*
X140353238Y-56865057D02*
X140400857Y-56960295D01*
X140400857Y-56960295D02*
X140400857Y-57007914D01*
X140400857Y-57007914D02*
X140353238Y-57103152D01*
X140353238Y-57103152D02*
X140305619Y-57150771D01*
X140305619Y-57150771D02*
X140210381Y-57198390D01*
X140210381Y-57198390D02*
X140019905Y-57198390D01*
X140019905Y-57198390D02*
X139924667Y-57246009D01*
X139924667Y-57246009D02*
X139877048Y-57293628D01*
X139877048Y-57293628D02*
X139829429Y-57388866D01*
X139829429Y-57388866D02*
X139829429Y-57579342D01*
X139829429Y-57579342D02*
X139877048Y-57674580D01*
X139877048Y-57674580D02*
X139924667Y-57722200D01*
X139924667Y-57722200D02*
X140019905Y-57769819D01*
X140019905Y-57769819D02*
X140210381Y-57769819D01*
X140210381Y-57769819D02*
X140305619Y-57722200D01*
X140305619Y-57722200D02*
X140353238Y-57674580D01*
X140353238Y-57674580D02*
X140400857Y-57579342D01*
X140400857Y-57579342D02*
X140400857Y-57388866D01*
X140400857Y-57388866D02*
X140353238Y-57293628D01*
X140353238Y-57293628D02*
X140305619Y-57246009D01*
X140305619Y-57246009D02*
X140210381Y-57198390D01*
%TO.C,LED5*%
X80638952Y-39769819D02*
X80162762Y-39769819D01*
X80162762Y-39769819D02*
X80162762Y-38769819D01*
X80972286Y-39246009D02*
X81305619Y-39246009D01*
X81448476Y-39769819D02*
X80972286Y-39769819D01*
X80972286Y-39769819D02*
X80972286Y-38769819D01*
X80972286Y-38769819D02*
X81448476Y-38769819D01*
X81877048Y-39769819D02*
X81877048Y-38769819D01*
X81877048Y-38769819D02*
X82115143Y-38769819D01*
X82115143Y-38769819D02*
X82258000Y-38817438D01*
X82258000Y-38817438D02*
X82353238Y-38912676D01*
X82353238Y-38912676D02*
X82400857Y-39007914D01*
X82400857Y-39007914D02*
X82448476Y-39198390D01*
X82448476Y-39198390D02*
X82448476Y-39341247D01*
X82448476Y-39341247D02*
X82400857Y-39531723D01*
X82400857Y-39531723D02*
X82353238Y-39626961D01*
X82353238Y-39626961D02*
X82258000Y-39722200D01*
X82258000Y-39722200D02*
X82115143Y-39769819D01*
X82115143Y-39769819D02*
X81877048Y-39769819D01*
X83353238Y-38769819D02*
X82877048Y-38769819D01*
X82877048Y-38769819D02*
X82829429Y-39246009D01*
X82829429Y-39246009D02*
X82877048Y-39198390D01*
X82877048Y-39198390D02*
X82972286Y-39150771D01*
X82972286Y-39150771D02*
X83210381Y-39150771D01*
X83210381Y-39150771D02*
X83305619Y-39198390D01*
X83305619Y-39198390D02*
X83353238Y-39246009D01*
X83353238Y-39246009D02*
X83400857Y-39341247D01*
X83400857Y-39341247D02*
X83400857Y-39579342D01*
X83400857Y-39579342D02*
X83353238Y-39674580D01*
X83353238Y-39674580D02*
X83305619Y-39722200D01*
X83305619Y-39722200D02*
X83210381Y-39769819D01*
X83210381Y-39769819D02*
X82972286Y-39769819D01*
X82972286Y-39769819D02*
X82877048Y-39722200D01*
X82877048Y-39722200D02*
X82829429Y-39674580D01*
%TO.C,R11*%
X114975142Y-50974819D02*
X114641809Y-50498628D01*
X114403714Y-50974819D02*
X114403714Y-49974819D01*
X114403714Y-49974819D02*
X114784666Y-49974819D01*
X114784666Y-49974819D02*
X114879904Y-50022438D01*
X114879904Y-50022438D02*
X114927523Y-50070057D01*
X114927523Y-50070057D02*
X114975142Y-50165295D01*
X114975142Y-50165295D02*
X114975142Y-50308152D01*
X114975142Y-50308152D02*
X114927523Y-50403390D01*
X114927523Y-50403390D02*
X114879904Y-50451009D01*
X114879904Y-50451009D02*
X114784666Y-50498628D01*
X114784666Y-50498628D02*
X114403714Y-50498628D01*
X115927523Y-50974819D02*
X115356095Y-50974819D01*
X115641809Y-50974819D02*
X115641809Y-49974819D01*
X115641809Y-49974819D02*
X115546571Y-50117676D01*
X115546571Y-50117676D02*
X115451333Y-50212914D01*
X115451333Y-50212914D02*
X115356095Y-50260533D01*
X116879904Y-50974819D02*
X116308476Y-50974819D01*
X116594190Y-50974819D02*
X116594190Y-49974819D01*
X116594190Y-49974819D02*
X116498952Y-50117676D01*
X116498952Y-50117676D02*
X116403714Y-50212914D01*
X116403714Y-50212914D02*
X116308476Y-50260533D01*
%TO.C,NICE_NANO1*%
X176259067Y-37484819D02*
X176259067Y-36484819D01*
X176259067Y-36484819D02*
X176830495Y-37484819D01*
X176830495Y-37484819D02*
X176830495Y-36484819D01*
X177306686Y-37484819D02*
X177306686Y-36484819D01*
X178354304Y-37389580D02*
X178306685Y-37437200D01*
X178306685Y-37437200D02*
X178163828Y-37484819D01*
X178163828Y-37484819D02*
X178068590Y-37484819D01*
X178068590Y-37484819D02*
X177925733Y-37437200D01*
X177925733Y-37437200D02*
X177830495Y-37341961D01*
X177830495Y-37341961D02*
X177782876Y-37246723D01*
X177782876Y-37246723D02*
X177735257Y-37056247D01*
X177735257Y-37056247D02*
X177735257Y-36913390D01*
X177735257Y-36913390D02*
X177782876Y-36722914D01*
X177782876Y-36722914D02*
X177830495Y-36627676D01*
X177830495Y-36627676D02*
X177925733Y-36532438D01*
X177925733Y-36532438D02*
X178068590Y-36484819D01*
X178068590Y-36484819D02*
X178163828Y-36484819D01*
X178163828Y-36484819D02*
X178306685Y-36532438D01*
X178306685Y-36532438D02*
X178354304Y-36580057D01*
X178782876Y-36961009D02*
X179116209Y-36961009D01*
X179259066Y-37484819D02*
X178782876Y-37484819D01*
X178782876Y-37484819D02*
X178782876Y-36484819D01*
X178782876Y-36484819D02*
X179259066Y-36484819D01*
X179449543Y-37580057D02*
X180211447Y-37580057D01*
X180449543Y-37484819D02*
X180449543Y-36484819D01*
X180449543Y-36484819D02*
X181020971Y-37484819D01*
X181020971Y-37484819D02*
X181020971Y-36484819D01*
X181449543Y-37199104D02*
X181925733Y-37199104D01*
X181354305Y-37484819D02*
X181687638Y-36484819D01*
X181687638Y-36484819D02*
X182020971Y-37484819D01*
X182354305Y-37484819D02*
X182354305Y-36484819D01*
X182354305Y-36484819D02*
X182925733Y-37484819D01*
X182925733Y-37484819D02*
X182925733Y-36484819D01*
X183592400Y-36484819D02*
X183782876Y-36484819D01*
X183782876Y-36484819D02*
X183878114Y-36532438D01*
X183878114Y-36532438D02*
X183973352Y-36627676D01*
X183973352Y-36627676D02*
X184020971Y-36818152D01*
X184020971Y-36818152D02*
X184020971Y-37151485D01*
X184020971Y-37151485D02*
X183973352Y-37341961D01*
X183973352Y-37341961D02*
X183878114Y-37437200D01*
X183878114Y-37437200D02*
X183782876Y-37484819D01*
X183782876Y-37484819D02*
X183592400Y-37484819D01*
X183592400Y-37484819D02*
X183497162Y-37437200D01*
X183497162Y-37437200D02*
X183401924Y-37341961D01*
X183401924Y-37341961D02*
X183354305Y-37151485D01*
X183354305Y-37151485D02*
X183354305Y-36818152D01*
X183354305Y-36818152D02*
X183401924Y-36627676D01*
X183401924Y-36627676D02*
X183497162Y-36532438D01*
X183497162Y-36532438D02*
X183592400Y-36484819D01*
X184973352Y-37484819D02*
X184401924Y-37484819D01*
X184687638Y-37484819D02*
X184687638Y-36484819D01*
X184687638Y-36484819D02*
X184592400Y-36627676D01*
X184592400Y-36627676D02*
X184497162Y-36722914D01*
X184497162Y-36722914D02*
X184401924Y-36770533D01*
%TO.C,LED21*%
X137162761Y-94019819D02*
X136686571Y-94019819D01*
X136686571Y-94019819D02*
X136686571Y-93019819D01*
X137496095Y-93496009D02*
X137829428Y-93496009D01*
X137972285Y-94019819D02*
X137496095Y-94019819D01*
X137496095Y-94019819D02*
X137496095Y-93019819D01*
X137496095Y-93019819D02*
X137972285Y-93019819D01*
X138400857Y-94019819D02*
X138400857Y-93019819D01*
X138400857Y-93019819D02*
X138638952Y-93019819D01*
X138638952Y-93019819D02*
X138781809Y-93067438D01*
X138781809Y-93067438D02*
X138877047Y-93162676D01*
X138877047Y-93162676D02*
X138924666Y-93257914D01*
X138924666Y-93257914D02*
X138972285Y-93448390D01*
X138972285Y-93448390D02*
X138972285Y-93591247D01*
X138972285Y-93591247D02*
X138924666Y-93781723D01*
X138924666Y-93781723D02*
X138877047Y-93876961D01*
X138877047Y-93876961D02*
X138781809Y-93972200D01*
X138781809Y-93972200D02*
X138638952Y-94019819D01*
X138638952Y-94019819D02*
X138400857Y-94019819D01*
X139353238Y-93115057D02*
X139400857Y-93067438D01*
X139400857Y-93067438D02*
X139496095Y-93019819D01*
X139496095Y-93019819D02*
X139734190Y-93019819D01*
X139734190Y-93019819D02*
X139829428Y-93067438D01*
X139829428Y-93067438D02*
X139877047Y-93115057D01*
X139877047Y-93115057D02*
X139924666Y-93210295D01*
X139924666Y-93210295D02*
X139924666Y-93305533D01*
X139924666Y-93305533D02*
X139877047Y-93448390D01*
X139877047Y-93448390D02*
X139305619Y-94019819D01*
X139305619Y-94019819D02*
X139924666Y-94019819D01*
X140877047Y-94019819D02*
X140305619Y-94019819D01*
X140591333Y-94019819D02*
X140591333Y-93019819D01*
X140591333Y-93019819D02*
X140496095Y-93162676D01*
X140496095Y-93162676D02*
X140400857Y-93257914D01*
X140400857Y-93257914D02*
X140305619Y-93305533D01*
%TO.C,R15*%
X152708042Y-75224819D02*
X152374709Y-74748628D01*
X152136614Y-75224819D02*
X152136614Y-74224819D01*
X152136614Y-74224819D02*
X152517566Y-74224819D01*
X152517566Y-74224819D02*
X152612804Y-74272438D01*
X152612804Y-74272438D02*
X152660423Y-74320057D01*
X152660423Y-74320057D02*
X152708042Y-74415295D01*
X152708042Y-74415295D02*
X152708042Y-74558152D01*
X152708042Y-74558152D02*
X152660423Y-74653390D01*
X152660423Y-74653390D02*
X152612804Y-74701009D01*
X152612804Y-74701009D02*
X152517566Y-74748628D01*
X152517566Y-74748628D02*
X152136614Y-74748628D01*
X153660423Y-75224819D02*
X153088995Y-75224819D01*
X153374709Y-75224819D02*
X153374709Y-74224819D01*
X153374709Y-74224819D02*
X153279471Y-74367676D01*
X153279471Y-74367676D02*
X153184233Y-74462914D01*
X153184233Y-74462914D02*
X153088995Y-74510533D01*
X154565185Y-74224819D02*
X154088995Y-74224819D01*
X154088995Y-74224819D02*
X154041376Y-74701009D01*
X154041376Y-74701009D02*
X154088995Y-74653390D01*
X154088995Y-74653390D02*
X154184233Y-74605771D01*
X154184233Y-74605771D02*
X154422328Y-74605771D01*
X154422328Y-74605771D02*
X154517566Y-74653390D01*
X154517566Y-74653390D02*
X154565185Y-74701009D01*
X154565185Y-74701009D02*
X154612804Y-74796247D01*
X154612804Y-74796247D02*
X154612804Y-75034342D01*
X154612804Y-75034342D02*
X154565185Y-75129580D01*
X154565185Y-75129580D02*
X154517566Y-75177200D01*
X154517566Y-75177200D02*
X154422328Y-75224819D01*
X154422328Y-75224819D02*
X154184233Y-75224819D01*
X154184233Y-75224819D02*
X154088995Y-75177200D01*
X154088995Y-75177200D02*
X154041376Y-75129580D01*
%TO.C,H5*%
X109848095Y-64870819D02*
X109848095Y-63870819D01*
X109848095Y-64347009D02*
X110419523Y-64347009D01*
X110419523Y-64870819D02*
X110419523Y-63870819D01*
X111371904Y-63870819D02*
X110895714Y-63870819D01*
X110895714Y-63870819D02*
X110848095Y-64347009D01*
X110848095Y-64347009D02*
X110895714Y-64299390D01*
X110895714Y-64299390D02*
X110990952Y-64251771D01*
X110990952Y-64251771D02*
X111229047Y-64251771D01*
X111229047Y-64251771D02*
X111324285Y-64299390D01*
X111324285Y-64299390D02*
X111371904Y-64347009D01*
X111371904Y-64347009D02*
X111419523Y-64442247D01*
X111419523Y-64442247D02*
X111419523Y-64680342D01*
X111419523Y-64680342D02*
X111371904Y-64775580D01*
X111371904Y-64775580D02*
X111324285Y-64823200D01*
X111324285Y-64823200D02*
X111229047Y-64870819D01*
X111229047Y-64870819D02*
X110990952Y-64870819D01*
X110990952Y-64870819D02*
X110895714Y-64823200D01*
X110895714Y-64823200D02*
X110848095Y-64775580D01*
%TO.C,R22*%
X152708042Y-93224819D02*
X152374709Y-92748628D01*
X152136614Y-93224819D02*
X152136614Y-92224819D01*
X152136614Y-92224819D02*
X152517566Y-92224819D01*
X152517566Y-92224819D02*
X152612804Y-92272438D01*
X152612804Y-92272438D02*
X152660423Y-92320057D01*
X152660423Y-92320057D02*
X152708042Y-92415295D01*
X152708042Y-92415295D02*
X152708042Y-92558152D01*
X152708042Y-92558152D02*
X152660423Y-92653390D01*
X152660423Y-92653390D02*
X152612804Y-92701009D01*
X152612804Y-92701009D02*
X152517566Y-92748628D01*
X152517566Y-92748628D02*
X152136614Y-92748628D01*
X153088995Y-92320057D02*
X153136614Y-92272438D01*
X153136614Y-92272438D02*
X153231852Y-92224819D01*
X153231852Y-92224819D02*
X153469947Y-92224819D01*
X153469947Y-92224819D02*
X153565185Y-92272438D01*
X153565185Y-92272438D02*
X153612804Y-92320057D01*
X153612804Y-92320057D02*
X153660423Y-92415295D01*
X153660423Y-92415295D02*
X153660423Y-92510533D01*
X153660423Y-92510533D02*
X153612804Y-92653390D01*
X153612804Y-92653390D02*
X153041376Y-93224819D01*
X153041376Y-93224819D02*
X153660423Y-93224819D01*
X154041376Y-92320057D02*
X154088995Y-92272438D01*
X154088995Y-92272438D02*
X154184233Y-92224819D01*
X154184233Y-92224819D02*
X154422328Y-92224819D01*
X154422328Y-92224819D02*
X154517566Y-92272438D01*
X154517566Y-92272438D02*
X154565185Y-92320057D01*
X154565185Y-92320057D02*
X154612804Y-92415295D01*
X154612804Y-92415295D02*
X154612804Y-92510533D01*
X154612804Y-92510533D02*
X154565185Y-92653390D01*
X154565185Y-92653390D02*
X153993757Y-93224819D01*
X153993757Y-93224819D02*
X154612804Y-93224819D01*
%TO.C,R7*%
X80471333Y-37658819D02*
X80138000Y-37182628D01*
X79899905Y-37658819D02*
X79899905Y-36658819D01*
X79899905Y-36658819D02*
X80280857Y-36658819D01*
X80280857Y-36658819D02*
X80376095Y-36706438D01*
X80376095Y-36706438D02*
X80423714Y-36754057D01*
X80423714Y-36754057D02*
X80471333Y-36849295D01*
X80471333Y-36849295D02*
X80471333Y-36992152D01*
X80471333Y-36992152D02*
X80423714Y-37087390D01*
X80423714Y-37087390D02*
X80376095Y-37135009D01*
X80376095Y-37135009D02*
X80280857Y-37182628D01*
X80280857Y-37182628D02*
X79899905Y-37182628D01*
X80804667Y-36658819D02*
X81471333Y-36658819D01*
X81471333Y-36658819D02*
X81042762Y-37658819D01*
%TO.C,R25*%
X96095142Y-86974819D02*
X95761809Y-86498628D01*
X95523714Y-86974819D02*
X95523714Y-85974819D01*
X95523714Y-85974819D02*
X95904666Y-85974819D01*
X95904666Y-85974819D02*
X95999904Y-86022438D01*
X95999904Y-86022438D02*
X96047523Y-86070057D01*
X96047523Y-86070057D02*
X96095142Y-86165295D01*
X96095142Y-86165295D02*
X96095142Y-86308152D01*
X96095142Y-86308152D02*
X96047523Y-86403390D01*
X96047523Y-86403390D02*
X95999904Y-86451009D01*
X95999904Y-86451009D02*
X95904666Y-86498628D01*
X95904666Y-86498628D02*
X95523714Y-86498628D01*
X96476095Y-86070057D02*
X96523714Y-86022438D01*
X96523714Y-86022438D02*
X96618952Y-85974819D01*
X96618952Y-85974819D02*
X96857047Y-85974819D01*
X96857047Y-85974819D02*
X96952285Y-86022438D01*
X96952285Y-86022438D02*
X96999904Y-86070057D01*
X96999904Y-86070057D02*
X97047523Y-86165295D01*
X97047523Y-86165295D02*
X97047523Y-86260533D01*
X97047523Y-86260533D02*
X96999904Y-86403390D01*
X96999904Y-86403390D02*
X96428476Y-86974819D01*
X96428476Y-86974819D02*
X97047523Y-86974819D01*
X97952285Y-85974819D02*
X97476095Y-85974819D01*
X97476095Y-85974819D02*
X97428476Y-86451009D01*
X97428476Y-86451009D02*
X97476095Y-86403390D01*
X97476095Y-86403390D02*
X97571333Y-86355771D01*
X97571333Y-86355771D02*
X97809428Y-86355771D01*
X97809428Y-86355771D02*
X97904666Y-86403390D01*
X97904666Y-86403390D02*
X97952285Y-86451009D01*
X97952285Y-86451009D02*
X97999904Y-86546247D01*
X97999904Y-86546247D02*
X97999904Y-86784342D01*
X97999904Y-86784342D02*
X97952285Y-86879580D01*
X97952285Y-86879580D02*
X97904666Y-86927200D01*
X97904666Y-86927200D02*
X97809428Y-86974819D01*
X97809428Y-86974819D02*
X97571333Y-86974819D01*
X97571333Y-86974819D02*
X97476095Y-86927200D01*
X97476095Y-86927200D02*
X97428476Y-86879580D01*
%TO.C,LED11*%
X80162761Y-57769819D02*
X79686571Y-57769819D01*
X79686571Y-57769819D02*
X79686571Y-56769819D01*
X80496095Y-57246009D02*
X80829428Y-57246009D01*
X80972285Y-57769819D02*
X80496095Y-57769819D01*
X80496095Y-57769819D02*
X80496095Y-56769819D01*
X80496095Y-56769819D02*
X80972285Y-56769819D01*
X81400857Y-57769819D02*
X81400857Y-56769819D01*
X81400857Y-56769819D02*
X81638952Y-56769819D01*
X81638952Y-56769819D02*
X81781809Y-56817438D01*
X81781809Y-56817438D02*
X81877047Y-56912676D01*
X81877047Y-56912676D02*
X81924666Y-57007914D01*
X81924666Y-57007914D02*
X81972285Y-57198390D01*
X81972285Y-57198390D02*
X81972285Y-57341247D01*
X81972285Y-57341247D02*
X81924666Y-57531723D01*
X81924666Y-57531723D02*
X81877047Y-57626961D01*
X81877047Y-57626961D02*
X81781809Y-57722200D01*
X81781809Y-57722200D02*
X81638952Y-57769819D01*
X81638952Y-57769819D02*
X81400857Y-57769819D01*
X82924666Y-57769819D02*
X82353238Y-57769819D01*
X82638952Y-57769819D02*
X82638952Y-56769819D01*
X82638952Y-56769819D02*
X82543714Y-56912676D01*
X82543714Y-56912676D02*
X82448476Y-57007914D01*
X82448476Y-57007914D02*
X82353238Y-57055533D01*
X83877047Y-57769819D02*
X83305619Y-57769819D01*
X83591333Y-57769819D02*
X83591333Y-56769819D01*
X83591333Y-56769819D02*
X83496095Y-56912676D01*
X83496095Y-56912676D02*
X83400857Y-57007914D01*
X83400857Y-57007914D02*
X83305619Y-57055533D01*
%TO.C,Q1*%
X151154761Y-38498057D02*
X151059523Y-38450438D01*
X151059523Y-38450438D02*
X150964285Y-38355200D01*
X150964285Y-38355200D02*
X150821428Y-38212342D01*
X150821428Y-38212342D02*
X150726190Y-38164723D01*
X150726190Y-38164723D02*
X150630952Y-38164723D01*
X150678571Y-38402819D02*
X150583333Y-38355200D01*
X150583333Y-38355200D02*
X150488095Y-38259961D01*
X150488095Y-38259961D02*
X150440476Y-38069485D01*
X150440476Y-38069485D02*
X150440476Y-37736152D01*
X150440476Y-37736152D02*
X150488095Y-37545676D01*
X150488095Y-37545676D02*
X150583333Y-37450438D01*
X150583333Y-37450438D02*
X150678571Y-37402819D01*
X150678571Y-37402819D02*
X150869047Y-37402819D01*
X150869047Y-37402819D02*
X150964285Y-37450438D01*
X150964285Y-37450438D02*
X151059523Y-37545676D01*
X151059523Y-37545676D02*
X151107142Y-37736152D01*
X151107142Y-37736152D02*
X151107142Y-38069485D01*
X151107142Y-38069485D02*
X151059523Y-38259961D01*
X151059523Y-38259961D02*
X150964285Y-38355200D01*
X150964285Y-38355200D02*
X150869047Y-38402819D01*
X150869047Y-38402819D02*
X150678571Y-38402819D01*
X152059523Y-38402819D02*
X151488095Y-38402819D01*
X151773809Y-38402819D02*
X151773809Y-37402819D01*
X151773809Y-37402819D02*
X151678571Y-37545676D01*
X151678571Y-37545676D02*
X151583333Y-37640914D01*
X151583333Y-37640914D02*
X151488095Y-37688533D01*
%TO.C,R23*%
X133975142Y-90224819D02*
X133641809Y-89748628D01*
X133403714Y-90224819D02*
X133403714Y-89224819D01*
X133403714Y-89224819D02*
X133784666Y-89224819D01*
X133784666Y-89224819D02*
X133879904Y-89272438D01*
X133879904Y-89272438D02*
X133927523Y-89320057D01*
X133927523Y-89320057D02*
X133975142Y-89415295D01*
X133975142Y-89415295D02*
X133975142Y-89558152D01*
X133975142Y-89558152D02*
X133927523Y-89653390D01*
X133927523Y-89653390D02*
X133879904Y-89701009D01*
X133879904Y-89701009D02*
X133784666Y-89748628D01*
X133784666Y-89748628D02*
X133403714Y-89748628D01*
X134356095Y-89320057D02*
X134403714Y-89272438D01*
X134403714Y-89272438D02*
X134498952Y-89224819D01*
X134498952Y-89224819D02*
X134737047Y-89224819D01*
X134737047Y-89224819D02*
X134832285Y-89272438D01*
X134832285Y-89272438D02*
X134879904Y-89320057D01*
X134879904Y-89320057D02*
X134927523Y-89415295D01*
X134927523Y-89415295D02*
X134927523Y-89510533D01*
X134927523Y-89510533D02*
X134879904Y-89653390D01*
X134879904Y-89653390D02*
X134308476Y-90224819D01*
X134308476Y-90224819D02*
X134927523Y-90224819D01*
X135260857Y-89224819D02*
X135879904Y-89224819D01*
X135879904Y-89224819D02*
X135546571Y-89605771D01*
X135546571Y-89605771D02*
X135689428Y-89605771D01*
X135689428Y-89605771D02*
X135784666Y-89653390D01*
X135784666Y-89653390D02*
X135832285Y-89701009D01*
X135832285Y-89701009D02*
X135879904Y-89796247D01*
X135879904Y-89796247D02*
X135879904Y-90034342D01*
X135879904Y-90034342D02*
X135832285Y-90129580D01*
X135832285Y-90129580D02*
X135784666Y-90177200D01*
X135784666Y-90177200D02*
X135689428Y-90224819D01*
X135689428Y-90224819D02*
X135403714Y-90224819D01*
X135403714Y-90224819D02*
X135308476Y-90177200D01*
X135308476Y-90177200D02*
X135260857Y-90129580D01*
%TO.C,LED7*%
X156371852Y-61064819D02*
X155895662Y-61064819D01*
X155895662Y-61064819D02*
X155895662Y-60064819D01*
X156705186Y-60541009D02*
X157038519Y-60541009D01*
X157181376Y-61064819D02*
X156705186Y-61064819D01*
X156705186Y-61064819D02*
X156705186Y-60064819D01*
X156705186Y-60064819D02*
X157181376Y-60064819D01*
X157609948Y-61064819D02*
X157609948Y-60064819D01*
X157609948Y-60064819D02*
X157848043Y-60064819D01*
X157848043Y-60064819D02*
X157990900Y-60112438D01*
X157990900Y-60112438D02*
X158086138Y-60207676D01*
X158086138Y-60207676D02*
X158133757Y-60302914D01*
X158133757Y-60302914D02*
X158181376Y-60493390D01*
X158181376Y-60493390D02*
X158181376Y-60636247D01*
X158181376Y-60636247D02*
X158133757Y-60826723D01*
X158133757Y-60826723D02*
X158086138Y-60921961D01*
X158086138Y-60921961D02*
X157990900Y-61017200D01*
X157990900Y-61017200D02*
X157848043Y-61064819D01*
X157848043Y-61064819D02*
X157609948Y-61064819D01*
X158514710Y-60064819D02*
X159181376Y-60064819D01*
X159181376Y-60064819D02*
X158752805Y-61064819D01*
%TO.C,R5*%
X129694833Y-37578819D02*
X129361500Y-37102628D01*
X129123405Y-37578819D02*
X129123405Y-36578819D01*
X129123405Y-36578819D02*
X129504357Y-36578819D01*
X129504357Y-36578819D02*
X129599595Y-36626438D01*
X129599595Y-36626438D02*
X129647214Y-36674057D01*
X129647214Y-36674057D02*
X129694833Y-36769295D01*
X129694833Y-36769295D02*
X129694833Y-36912152D01*
X129694833Y-36912152D02*
X129647214Y-37007390D01*
X129647214Y-37007390D02*
X129599595Y-37055009D01*
X129599595Y-37055009D02*
X129504357Y-37102628D01*
X129504357Y-37102628D02*
X129123405Y-37102628D01*
X130599595Y-36578819D02*
X130123405Y-36578819D01*
X130123405Y-36578819D02*
X130075786Y-37055009D01*
X130075786Y-37055009D02*
X130123405Y-37007390D01*
X130123405Y-37007390D02*
X130218643Y-36959771D01*
X130218643Y-36959771D02*
X130456738Y-36959771D01*
X130456738Y-36959771D02*
X130551976Y-37007390D01*
X130551976Y-37007390D02*
X130599595Y-37055009D01*
X130599595Y-37055009D02*
X130647214Y-37150247D01*
X130647214Y-37150247D02*
X130647214Y-37388342D01*
X130647214Y-37388342D02*
X130599595Y-37483580D01*
X130599595Y-37483580D02*
X130551976Y-37531200D01*
X130551976Y-37531200D02*
X130456738Y-37578819D01*
X130456738Y-37578819D02*
X130218643Y-37578819D01*
X130218643Y-37578819D02*
X130123405Y-37531200D01*
X130123405Y-37531200D02*
X130075786Y-37483580D01*
%TO.C,R17*%
X116197142Y-68908819D02*
X115863809Y-68432628D01*
X115625714Y-68908819D02*
X115625714Y-67908819D01*
X115625714Y-67908819D02*
X116006666Y-67908819D01*
X116006666Y-67908819D02*
X116101904Y-67956438D01*
X116101904Y-67956438D02*
X116149523Y-68004057D01*
X116149523Y-68004057D02*
X116197142Y-68099295D01*
X116197142Y-68099295D02*
X116197142Y-68242152D01*
X116197142Y-68242152D02*
X116149523Y-68337390D01*
X116149523Y-68337390D02*
X116101904Y-68385009D01*
X116101904Y-68385009D02*
X116006666Y-68432628D01*
X116006666Y-68432628D02*
X115625714Y-68432628D01*
X117149523Y-68908819D02*
X116578095Y-68908819D01*
X116863809Y-68908819D02*
X116863809Y-67908819D01*
X116863809Y-67908819D02*
X116768571Y-68051676D01*
X116768571Y-68051676D02*
X116673333Y-68146914D01*
X116673333Y-68146914D02*
X116578095Y-68194533D01*
X117482857Y-67908819D02*
X118149523Y-67908819D01*
X118149523Y-67908819D02*
X117720952Y-68908819D01*
%TO.C,BATT1*%
X166672761Y-47041009D02*
X166815618Y-47088628D01*
X166815618Y-47088628D02*
X166863237Y-47136247D01*
X166863237Y-47136247D02*
X166910856Y-47231485D01*
X166910856Y-47231485D02*
X166910856Y-47374342D01*
X166910856Y-47374342D02*
X166863237Y-47469580D01*
X166863237Y-47469580D02*
X166815618Y-47517200D01*
X166815618Y-47517200D02*
X166720380Y-47564819D01*
X166720380Y-47564819D02*
X166339428Y-47564819D01*
X166339428Y-47564819D02*
X166339428Y-46564819D01*
X166339428Y-46564819D02*
X166672761Y-46564819D01*
X166672761Y-46564819D02*
X166767999Y-46612438D01*
X166767999Y-46612438D02*
X166815618Y-46660057D01*
X166815618Y-46660057D02*
X166863237Y-46755295D01*
X166863237Y-46755295D02*
X166863237Y-46850533D01*
X166863237Y-46850533D02*
X166815618Y-46945771D01*
X166815618Y-46945771D02*
X166767999Y-46993390D01*
X166767999Y-46993390D02*
X166672761Y-47041009D01*
X166672761Y-47041009D02*
X166339428Y-47041009D01*
X167291809Y-47279104D02*
X167767999Y-47279104D01*
X167196571Y-47564819D02*
X167529904Y-46564819D01*
X167529904Y-46564819D02*
X167863237Y-47564819D01*
X168053714Y-46564819D02*
X168625142Y-46564819D01*
X168339428Y-47564819D02*
X168339428Y-46564819D01*
X168815619Y-46564819D02*
X169387047Y-46564819D01*
X169101333Y-47564819D02*
X169101333Y-46564819D01*
X170244190Y-47564819D02*
X169672762Y-47564819D01*
X169958476Y-47564819D02*
X169958476Y-46564819D01*
X169958476Y-46564819D02*
X169863238Y-46707676D01*
X169863238Y-46707676D02*
X169768000Y-46802914D01*
X169768000Y-46802914D02*
X169672762Y-46850533D01*
%TO.C,LED9*%
X118638952Y-54769819D02*
X118162762Y-54769819D01*
X118162762Y-54769819D02*
X118162762Y-53769819D01*
X118972286Y-54246009D02*
X119305619Y-54246009D01*
X119448476Y-54769819D02*
X118972286Y-54769819D01*
X118972286Y-54769819D02*
X118972286Y-53769819D01*
X118972286Y-53769819D02*
X119448476Y-53769819D01*
X119877048Y-54769819D02*
X119877048Y-53769819D01*
X119877048Y-53769819D02*
X120115143Y-53769819D01*
X120115143Y-53769819D02*
X120258000Y-53817438D01*
X120258000Y-53817438D02*
X120353238Y-53912676D01*
X120353238Y-53912676D02*
X120400857Y-54007914D01*
X120400857Y-54007914D02*
X120448476Y-54198390D01*
X120448476Y-54198390D02*
X120448476Y-54341247D01*
X120448476Y-54341247D02*
X120400857Y-54531723D01*
X120400857Y-54531723D02*
X120353238Y-54626961D01*
X120353238Y-54626961D02*
X120258000Y-54722200D01*
X120258000Y-54722200D02*
X120115143Y-54769819D01*
X120115143Y-54769819D02*
X119877048Y-54769819D01*
X120924667Y-54769819D02*
X121115143Y-54769819D01*
X121115143Y-54769819D02*
X121210381Y-54722200D01*
X121210381Y-54722200D02*
X121258000Y-54674580D01*
X121258000Y-54674580D02*
X121353238Y-54531723D01*
X121353238Y-54531723D02*
X121400857Y-54341247D01*
X121400857Y-54341247D02*
X121400857Y-53960295D01*
X121400857Y-53960295D02*
X121353238Y-53865057D01*
X121353238Y-53865057D02*
X121305619Y-53817438D01*
X121305619Y-53817438D02*
X121210381Y-53769819D01*
X121210381Y-53769819D02*
X121019905Y-53769819D01*
X121019905Y-53769819D02*
X120924667Y-53817438D01*
X120924667Y-53817438D02*
X120877048Y-53865057D01*
X120877048Y-53865057D02*
X120829429Y-53960295D01*
X120829429Y-53960295D02*
X120829429Y-54198390D01*
X120829429Y-54198390D02*
X120877048Y-54293628D01*
X120877048Y-54293628D02*
X120924667Y-54341247D01*
X120924667Y-54341247D02*
X121019905Y-54388866D01*
X121019905Y-54388866D02*
X121210381Y-54388866D01*
X121210381Y-54388866D02*
X121305619Y-54341247D01*
X121305619Y-54341247D02*
X121353238Y-54293628D01*
X121353238Y-54293628D02*
X121400857Y-54198390D01*
%TO.C,R16*%
X133975142Y-71974819D02*
X133641809Y-71498628D01*
X133403714Y-71974819D02*
X133403714Y-70974819D01*
X133403714Y-70974819D02*
X133784666Y-70974819D01*
X133784666Y-70974819D02*
X133879904Y-71022438D01*
X133879904Y-71022438D02*
X133927523Y-71070057D01*
X133927523Y-71070057D02*
X133975142Y-71165295D01*
X133975142Y-71165295D02*
X133975142Y-71308152D01*
X133975142Y-71308152D02*
X133927523Y-71403390D01*
X133927523Y-71403390D02*
X133879904Y-71451009D01*
X133879904Y-71451009D02*
X133784666Y-71498628D01*
X133784666Y-71498628D02*
X133403714Y-71498628D01*
X134927523Y-71974819D02*
X134356095Y-71974819D01*
X134641809Y-71974819D02*
X134641809Y-70974819D01*
X134641809Y-70974819D02*
X134546571Y-71117676D01*
X134546571Y-71117676D02*
X134451333Y-71212914D01*
X134451333Y-71212914D02*
X134356095Y-71260533D01*
X135784666Y-70974819D02*
X135594190Y-70974819D01*
X135594190Y-70974819D02*
X135498952Y-71022438D01*
X135498952Y-71022438D02*
X135451333Y-71070057D01*
X135451333Y-71070057D02*
X135356095Y-71212914D01*
X135356095Y-71212914D02*
X135308476Y-71403390D01*
X135308476Y-71403390D02*
X135308476Y-71784342D01*
X135308476Y-71784342D02*
X135356095Y-71879580D01*
X135356095Y-71879580D02*
X135403714Y-71927200D01*
X135403714Y-71927200D02*
X135498952Y-71974819D01*
X135498952Y-71974819D02*
X135689428Y-71974819D01*
X135689428Y-71974819D02*
X135784666Y-71927200D01*
X135784666Y-71927200D02*
X135832285Y-71879580D01*
X135832285Y-71879580D02*
X135879904Y-71784342D01*
X135879904Y-71784342D02*
X135879904Y-71546247D01*
X135879904Y-71546247D02*
X135832285Y-71451009D01*
X135832285Y-71451009D02*
X135784666Y-71403390D01*
X135784666Y-71403390D02*
X135689428Y-71355771D01*
X135689428Y-71355771D02*
X135498952Y-71355771D01*
X135498952Y-71355771D02*
X135403714Y-71403390D01*
X135403714Y-71403390D02*
X135356095Y-71451009D01*
X135356095Y-71451009D02*
X135308476Y-71546247D01*
%TO.C,LED14*%
X137162761Y-75769819D02*
X136686571Y-75769819D01*
X136686571Y-75769819D02*
X136686571Y-74769819D01*
X137496095Y-75246009D02*
X137829428Y-75246009D01*
X137972285Y-75769819D02*
X137496095Y-75769819D01*
X137496095Y-75769819D02*
X137496095Y-74769819D01*
X137496095Y-74769819D02*
X137972285Y-74769819D01*
X138400857Y-75769819D02*
X138400857Y-74769819D01*
X138400857Y-74769819D02*
X138638952Y-74769819D01*
X138638952Y-74769819D02*
X138781809Y-74817438D01*
X138781809Y-74817438D02*
X138877047Y-74912676D01*
X138877047Y-74912676D02*
X138924666Y-75007914D01*
X138924666Y-75007914D02*
X138972285Y-75198390D01*
X138972285Y-75198390D02*
X138972285Y-75341247D01*
X138972285Y-75341247D02*
X138924666Y-75531723D01*
X138924666Y-75531723D02*
X138877047Y-75626961D01*
X138877047Y-75626961D02*
X138781809Y-75722200D01*
X138781809Y-75722200D02*
X138638952Y-75769819D01*
X138638952Y-75769819D02*
X138400857Y-75769819D01*
X139924666Y-75769819D02*
X139353238Y-75769819D01*
X139638952Y-75769819D02*
X139638952Y-74769819D01*
X139638952Y-74769819D02*
X139543714Y-74912676D01*
X139543714Y-74912676D02*
X139448476Y-75007914D01*
X139448476Y-75007914D02*
X139353238Y-75055533D01*
X140781809Y-75103152D02*
X140781809Y-75769819D01*
X140543714Y-74722200D02*
X140305619Y-75436485D01*
X140305619Y-75436485D02*
X140924666Y-75436485D01*
%TO.C,LED2*%
X137638952Y-39769819D02*
X137162762Y-39769819D01*
X137162762Y-39769819D02*
X137162762Y-38769819D01*
X137972286Y-39246009D02*
X138305619Y-39246009D01*
X138448476Y-39769819D02*
X137972286Y-39769819D01*
X137972286Y-39769819D02*
X137972286Y-38769819D01*
X137972286Y-38769819D02*
X138448476Y-38769819D01*
X138877048Y-39769819D02*
X138877048Y-38769819D01*
X138877048Y-38769819D02*
X139115143Y-38769819D01*
X139115143Y-38769819D02*
X139258000Y-38817438D01*
X139258000Y-38817438D02*
X139353238Y-38912676D01*
X139353238Y-38912676D02*
X139400857Y-39007914D01*
X139400857Y-39007914D02*
X139448476Y-39198390D01*
X139448476Y-39198390D02*
X139448476Y-39341247D01*
X139448476Y-39341247D02*
X139400857Y-39531723D01*
X139400857Y-39531723D02*
X139353238Y-39626961D01*
X139353238Y-39626961D02*
X139258000Y-39722200D01*
X139258000Y-39722200D02*
X139115143Y-39769819D01*
X139115143Y-39769819D02*
X138877048Y-39769819D01*
X139829429Y-38865057D02*
X139877048Y-38817438D01*
X139877048Y-38817438D02*
X139972286Y-38769819D01*
X139972286Y-38769819D02*
X140210381Y-38769819D01*
X140210381Y-38769819D02*
X140305619Y-38817438D01*
X140305619Y-38817438D02*
X140353238Y-38865057D01*
X140353238Y-38865057D02*
X140400857Y-38960295D01*
X140400857Y-38960295D02*
X140400857Y-39055533D01*
X140400857Y-39055533D02*
X140353238Y-39198390D01*
X140353238Y-39198390D02*
X139781810Y-39769819D01*
X139781810Y-39769819D02*
X140400857Y-39769819D01*
%TO.C,H2*%
X87664495Y-90064819D02*
X87664495Y-89064819D01*
X87664495Y-89541009D02*
X88235923Y-89541009D01*
X88235923Y-90064819D02*
X88235923Y-89064819D01*
X88664495Y-89160057D02*
X88712114Y-89112438D01*
X88712114Y-89112438D02*
X88807352Y-89064819D01*
X88807352Y-89064819D02*
X89045447Y-89064819D01*
X89045447Y-89064819D02*
X89140685Y-89112438D01*
X89140685Y-89112438D02*
X89188304Y-89160057D01*
X89188304Y-89160057D02*
X89235923Y-89255295D01*
X89235923Y-89255295D02*
X89235923Y-89350533D01*
X89235923Y-89350533D02*
X89188304Y-89493390D01*
X89188304Y-89493390D02*
X88616876Y-90064819D01*
X88616876Y-90064819D02*
X89235923Y-90064819D01*
%TO.C,LED16*%
X99162761Y-72769819D02*
X98686571Y-72769819D01*
X98686571Y-72769819D02*
X98686571Y-71769819D01*
X99496095Y-72246009D02*
X99829428Y-72246009D01*
X99972285Y-72769819D02*
X99496095Y-72769819D01*
X99496095Y-72769819D02*
X99496095Y-71769819D01*
X99496095Y-71769819D02*
X99972285Y-71769819D01*
X100400857Y-72769819D02*
X100400857Y-71769819D01*
X100400857Y-71769819D02*
X100638952Y-71769819D01*
X100638952Y-71769819D02*
X100781809Y-71817438D01*
X100781809Y-71817438D02*
X100877047Y-71912676D01*
X100877047Y-71912676D02*
X100924666Y-72007914D01*
X100924666Y-72007914D02*
X100972285Y-72198390D01*
X100972285Y-72198390D02*
X100972285Y-72341247D01*
X100972285Y-72341247D02*
X100924666Y-72531723D01*
X100924666Y-72531723D02*
X100877047Y-72626961D01*
X100877047Y-72626961D02*
X100781809Y-72722200D01*
X100781809Y-72722200D02*
X100638952Y-72769819D01*
X100638952Y-72769819D02*
X100400857Y-72769819D01*
X101924666Y-72769819D02*
X101353238Y-72769819D01*
X101638952Y-72769819D02*
X101638952Y-71769819D01*
X101638952Y-71769819D02*
X101543714Y-71912676D01*
X101543714Y-71912676D02*
X101448476Y-72007914D01*
X101448476Y-72007914D02*
X101353238Y-72055533D01*
X102781809Y-71769819D02*
X102591333Y-71769819D01*
X102591333Y-71769819D02*
X102496095Y-71817438D01*
X102496095Y-71817438D02*
X102448476Y-71865057D01*
X102448476Y-71865057D02*
X102353238Y-72007914D01*
X102353238Y-72007914D02*
X102305619Y-72198390D01*
X102305619Y-72198390D02*
X102305619Y-72579342D01*
X102305619Y-72579342D02*
X102353238Y-72674580D01*
X102353238Y-72674580D02*
X102400857Y-72722200D01*
X102400857Y-72722200D02*
X102496095Y-72769819D01*
X102496095Y-72769819D02*
X102686571Y-72769819D01*
X102686571Y-72769819D02*
X102781809Y-72722200D01*
X102781809Y-72722200D02*
X102829428Y-72674580D01*
X102829428Y-72674580D02*
X102877047Y-72579342D01*
X102877047Y-72579342D02*
X102877047Y-72341247D01*
X102877047Y-72341247D02*
X102829428Y-72246009D01*
X102829428Y-72246009D02*
X102781809Y-72198390D01*
X102781809Y-72198390D02*
X102686571Y-72150771D01*
X102686571Y-72150771D02*
X102496095Y-72150771D01*
X102496095Y-72150771D02*
X102400857Y-72198390D01*
X102400857Y-72198390D02*
X102353238Y-72246009D01*
X102353238Y-72246009D02*
X102305619Y-72341247D01*
%TO.C,LED22*%
X118162761Y-90769819D02*
X117686571Y-90769819D01*
X117686571Y-90769819D02*
X117686571Y-89769819D01*
X118496095Y-90246009D02*
X118829428Y-90246009D01*
X118972285Y-90769819D02*
X118496095Y-90769819D01*
X118496095Y-90769819D02*
X118496095Y-89769819D01*
X118496095Y-89769819D02*
X118972285Y-89769819D01*
X119400857Y-90769819D02*
X119400857Y-89769819D01*
X119400857Y-89769819D02*
X119638952Y-89769819D01*
X119638952Y-89769819D02*
X119781809Y-89817438D01*
X119781809Y-89817438D02*
X119877047Y-89912676D01*
X119877047Y-89912676D02*
X119924666Y-90007914D01*
X119924666Y-90007914D02*
X119972285Y-90198390D01*
X119972285Y-90198390D02*
X119972285Y-90341247D01*
X119972285Y-90341247D02*
X119924666Y-90531723D01*
X119924666Y-90531723D02*
X119877047Y-90626961D01*
X119877047Y-90626961D02*
X119781809Y-90722200D01*
X119781809Y-90722200D02*
X119638952Y-90769819D01*
X119638952Y-90769819D02*
X119400857Y-90769819D01*
X120353238Y-89865057D02*
X120400857Y-89817438D01*
X120400857Y-89817438D02*
X120496095Y-89769819D01*
X120496095Y-89769819D02*
X120734190Y-89769819D01*
X120734190Y-89769819D02*
X120829428Y-89817438D01*
X120829428Y-89817438D02*
X120877047Y-89865057D01*
X120877047Y-89865057D02*
X120924666Y-89960295D01*
X120924666Y-89960295D02*
X120924666Y-90055533D01*
X120924666Y-90055533D02*
X120877047Y-90198390D01*
X120877047Y-90198390D02*
X120305619Y-90769819D01*
X120305619Y-90769819D02*
X120924666Y-90769819D01*
X121305619Y-89865057D02*
X121353238Y-89817438D01*
X121353238Y-89817438D02*
X121448476Y-89769819D01*
X121448476Y-89769819D02*
X121686571Y-89769819D01*
X121686571Y-89769819D02*
X121781809Y-89817438D01*
X121781809Y-89817438D02*
X121829428Y-89865057D01*
X121829428Y-89865057D02*
X121877047Y-89960295D01*
X121877047Y-89960295D02*
X121877047Y-90055533D01*
X121877047Y-90055533D02*
X121829428Y-90198390D01*
X121829428Y-90198390D02*
X121258000Y-90769819D01*
X121258000Y-90769819D02*
X121877047Y-90769819D01*
%TO.C,R9*%
X154519333Y-57269819D02*
X154186000Y-56793628D01*
X153947905Y-57269819D02*
X153947905Y-56269819D01*
X153947905Y-56269819D02*
X154328857Y-56269819D01*
X154328857Y-56269819D02*
X154424095Y-56317438D01*
X154424095Y-56317438D02*
X154471714Y-56365057D01*
X154471714Y-56365057D02*
X154519333Y-56460295D01*
X154519333Y-56460295D02*
X154519333Y-56603152D01*
X154519333Y-56603152D02*
X154471714Y-56698390D01*
X154471714Y-56698390D02*
X154424095Y-56746009D01*
X154424095Y-56746009D02*
X154328857Y-56793628D01*
X154328857Y-56793628D02*
X153947905Y-56793628D01*
X154995524Y-57269819D02*
X155186000Y-57269819D01*
X155186000Y-57269819D02*
X155281238Y-57222200D01*
X155281238Y-57222200D02*
X155328857Y-57174580D01*
X155328857Y-57174580D02*
X155424095Y-57031723D01*
X155424095Y-57031723D02*
X155471714Y-56841247D01*
X155471714Y-56841247D02*
X155471714Y-56460295D01*
X155471714Y-56460295D02*
X155424095Y-56365057D01*
X155424095Y-56365057D02*
X155376476Y-56317438D01*
X155376476Y-56317438D02*
X155281238Y-56269819D01*
X155281238Y-56269819D02*
X155090762Y-56269819D01*
X155090762Y-56269819D02*
X154995524Y-56317438D01*
X154995524Y-56317438D02*
X154947905Y-56365057D01*
X154947905Y-56365057D02*
X154900286Y-56460295D01*
X154900286Y-56460295D02*
X154900286Y-56698390D01*
X154900286Y-56698390D02*
X154947905Y-56793628D01*
X154947905Y-56793628D02*
X154995524Y-56841247D01*
X154995524Y-56841247D02*
X155090762Y-56888866D01*
X155090762Y-56888866D02*
X155281238Y-56888866D01*
X155281238Y-56888866D02*
X155376476Y-56841247D01*
X155376476Y-56841247D02*
X155424095Y-56793628D01*
X155424095Y-56793628D02*
X155471714Y-56698390D01*
%TO.C,R3*%
X148790833Y-39224819D02*
X148457500Y-38748628D01*
X148219405Y-39224819D02*
X148219405Y-38224819D01*
X148219405Y-38224819D02*
X148600357Y-38224819D01*
X148600357Y-38224819D02*
X148695595Y-38272438D01*
X148695595Y-38272438D02*
X148743214Y-38320057D01*
X148743214Y-38320057D02*
X148790833Y-38415295D01*
X148790833Y-38415295D02*
X148790833Y-38558152D01*
X148790833Y-38558152D02*
X148743214Y-38653390D01*
X148743214Y-38653390D02*
X148695595Y-38701009D01*
X148695595Y-38701009D02*
X148600357Y-38748628D01*
X148600357Y-38748628D02*
X148219405Y-38748628D01*
X149124167Y-38224819D02*
X149743214Y-38224819D01*
X149743214Y-38224819D02*
X149409881Y-38605771D01*
X149409881Y-38605771D02*
X149552738Y-38605771D01*
X149552738Y-38605771D02*
X149647976Y-38653390D01*
X149647976Y-38653390D02*
X149695595Y-38701009D01*
X149695595Y-38701009D02*
X149743214Y-38796247D01*
X149743214Y-38796247D02*
X149743214Y-39034342D01*
X149743214Y-39034342D02*
X149695595Y-39129580D01*
X149695595Y-39129580D02*
X149647976Y-39177200D01*
X149647976Y-39177200D02*
X149552738Y-39224819D01*
X149552738Y-39224819D02*
X149267024Y-39224819D01*
X149267024Y-39224819D02*
X149171786Y-39177200D01*
X149171786Y-39177200D02*
X149124167Y-39129580D01*
%TO.C,LED6*%
X61638952Y-39769819D02*
X61162762Y-39769819D01*
X61162762Y-39769819D02*
X61162762Y-38769819D01*
X61972286Y-39246009D02*
X62305619Y-39246009D01*
X62448476Y-39769819D02*
X61972286Y-39769819D01*
X61972286Y-39769819D02*
X61972286Y-38769819D01*
X61972286Y-38769819D02*
X62448476Y-38769819D01*
X62877048Y-39769819D02*
X62877048Y-38769819D01*
X62877048Y-38769819D02*
X63115143Y-38769819D01*
X63115143Y-38769819D02*
X63258000Y-38817438D01*
X63258000Y-38817438D02*
X63353238Y-38912676D01*
X63353238Y-38912676D02*
X63400857Y-39007914D01*
X63400857Y-39007914D02*
X63448476Y-39198390D01*
X63448476Y-39198390D02*
X63448476Y-39341247D01*
X63448476Y-39341247D02*
X63400857Y-39531723D01*
X63400857Y-39531723D02*
X63353238Y-39626961D01*
X63353238Y-39626961D02*
X63258000Y-39722200D01*
X63258000Y-39722200D02*
X63115143Y-39769819D01*
X63115143Y-39769819D02*
X62877048Y-39769819D01*
X64305619Y-38769819D02*
X64115143Y-38769819D01*
X64115143Y-38769819D02*
X64019905Y-38817438D01*
X64019905Y-38817438D02*
X63972286Y-38865057D01*
X63972286Y-38865057D02*
X63877048Y-39007914D01*
X63877048Y-39007914D02*
X63829429Y-39198390D01*
X63829429Y-39198390D02*
X63829429Y-39579342D01*
X63829429Y-39579342D02*
X63877048Y-39674580D01*
X63877048Y-39674580D02*
X63924667Y-39722200D01*
X63924667Y-39722200D02*
X64019905Y-39769819D01*
X64019905Y-39769819D02*
X64210381Y-39769819D01*
X64210381Y-39769819D02*
X64305619Y-39722200D01*
X64305619Y-39722200D02*
X64353238Y-39674580D01*
X64353238Y-39674580D02*
X64400857Y-39579342D01*
X64400857Y-39579342D02*
X64400857Y-39341247D01*
X64400857Y-39341247D02*
X64353238Y-39246009D01*
X64353238Y-39246009D02*
X64305619Y-39198390D01*
X64305619Y-39198390D02*
X64210381Y-39150771D01*
X64210381Y-39150771D02*
X64019905Y-39150771D01*
X64019905Y-39150771D02*
X63924667Y-39198390D01*
X63924667Y-39198390D02*
X63877048Y-39246009D01*
X63877048Y-39246009D02*
X63829429Y-39341247D01*
%TO.C,R13*%
X77843142Y-53974819D02*
X77509809Y-53498628D01*
X77271714Y-53974819D02*
X77271714Y-52974819D01*
X77271714Y-52974819D02*
X77652666Y-52974819D01*
X77652666Y-52974819D02*
X77747904Y-53022438D01*
X77747904Y-53022438D02*
X77795523Y-53070057D01*
X77795523Y-53070057D02*
X77843142Y-53165295D01*
X77843142Y-53165295D02*
X77843142Y-53308152D01*
X77843142Y-53308152D02*
X77795523Y-53403390D01*
X77795523Y-53403390D02*
X77747904Y-53451009D01*
X77747904Y-53451009D02*
X77652666Y-53498628D01*
X77652666Y-53498628D02*
X77271714Y-53498628D01*
X78795523Y-53974819D02*
X78224095Y-53974819D01*
X78509809Y-53974819D02*
X78509809Y-52974819D01*
X78509809Y-52974819D02*
X78414571Y-53117676D01*
X78414571Y-53117676D02*
X78319333Y-53212914D01*
X78319333Y-53212914D02*
X78224095Y-53260533D01*
X79128857Y-52974819D02*
X79747904Y-52974819D01*
X79747904Y-52974819D02*
X79414571Y-53355771D01*
X79414571Y-53355771D02*
X79557428Y-53355771D01*
X79557428Y-53355771D02*
X79652666Y-53403390D01*
X79652666Y-53403390D02*
X79700285Y-53451009D01*
X79700285Y-53451009D02*
X79747904Y-53546247D01*
X79747904Y-53546247D02*
X79747904Y-53784342D01*
X79747904Y-53784342D02*
X79700285Y-53879580D01*
X79700285Y-53879580D02*
X79652666Y-53927200D01*
X79652666Y-53927200D02*
X79557428Y-53974819D01*
X79557428Y-53974819D02*
X79271714Y-53974819D01*
X79271714Y-53974819D02*
X79176476Y-53927200D01*
X79176476Y-53927200D02*
X79128857Y-53879580D01*
%TO.C,LED19*%
X178073081Y-99434131D02*
X177607296Y-99335125D01*
X177607296Y-99335125D02*
X177815208Y-98356978D01*
X178508036Y-98991072D02*
X178834086Y-99060376D01*
X178864915Y-99602440D02*
X178399130Y-99503435D01*
X178399130Y-99503435D02*
X178607042Y-98525287D01*
X178607042Y-98525287D02*
X179072826Y-98624293D01*
X179284121Y-99691546D02*
X179492033Y-98713398D01*
X179492033Y-98713398D02*
X179724925Y-98762901D01*
X179724925Y-98762901D02*
X179854760Y-98839181D01*
X179854760Y-98839181D02*
X179928116Y-98952139D01*
X179928116Y-98952139D02*
X179954893Y-99055196D01*
X179954893Y-99055196D02*
X179961869Y-99251411D01*
X179961869Y-99251411D02*
X179932167Y-99391146D01*
X179932167Y-99391146D02*
X179845987Y-99567559D01*
X179845987Y-99567559D02*
X179779607Y-99650816D01*
X179779607Y-99650816D02*
X179666649Y-99724172D01*
X179666649Y-99724172D02*
X179517013Y-99741048D01*
X179517013Y-99741048D02*
X179284121Y-99691546D01*
X180774632Y-100008363D02*
X180215690Y-99889557D01*
X180495161Y-99948960D02*
X180703073Y-98970812D01*
X180703073Y-98970812D02*
X180580214Y-99090747D01*
X180580214Y-99090747D02*
X180467256Y-99164102D01*
X180467256Y-99164102D02*
X180364198Y-99190880D01*
X181240416Y-100107369D02*
X181426730Y-100146971D01*
X181426730Y-100146971D02*
X181529788Y-100120194D01*
X181529788Y-100120194D02*
X181586267Y-100083516D01*
X181586267Y-100083516D02*
X181709125Y-99963582D01*
X181709125Y-99963582D02*
X181795306Y-99787168D01*
X181795306Y-99787168D02*
X181874510Y-99414541D01*
X181874510Y-99414541D02*
X181847733Y-99311483D01*
X181847733Y-99311483D02*
X181811055Y-99255004D01*
X181811055Y-99255004D02*
X181727799Y-99188625D01*
X181727799Y-99188625D02*
X181541485Y-99149022D01*
X181541485Y-99149022D02*
X181438427Y-99175800D01*
X181438427Y-99175800D02*
X181381948Y-99212478D01*
X181381948Y-99212478D02*
X181315569Y-99295734D01*
X181315569Y-99295734D02*
X181266066Y-99528626D01*
X181266066Y-99528626D02*
X181292843Y-99631684D01*
X181292843Y-99631684D02*
X181329521Y-99688163D01*
X181329521Y-99688163D02*
X181412778Y-99754542D01*
X181412778Y-99754542D02*
X181599091Y-99794145D01*
X181599091Y-99794145D02*
X181702149Y-99767367D01*
X181702149Y-99767367D02*
X181758628Y-99730689D01*
X181758628Y-99730689D02*
X181825007Y-99647433D01*
%TO.C,LED12*%
X61162761Y-57769819D02*
X60686571Y-57769819D01*
X60686571Y-57769819D02*
X60686571Y-56769819D01*
X61496095Y-57246009D02*
X61829428Y-57246009D01*
X61972285Y-57769819D02*
X61496095Y-57769819D01*
X61496095Y-57769819D02*
X61496095Y-56769819D01*
X61496095Y-56769819D02*
X61972285Y-56769819D01*
X62400857Y-57769819D02*
X62400857Y-56769819D01*
X62400857Y-56769819D02*
X62638952Y-56769819D01*
X62638952Y-56769819D02*
X62781809Y-56817438D01*
X62781809Y-56817438D02*
X62877047Y-56912676D01*
X62877047Y-56912676D02*
X62924666Y-57007914D01*
X62924666Y-57007914D02*
X62972285Y-57198390D01*
X62972285Y-57198390D02*
X62972285Y-57341247D01*
X62972285Y-57341247D02*
X62924666Y-57531723D01*
X62924666Y-57531723D02*
X62877047Y-57626961D01*
X62877047Y-57626961D02*
X62781809Y-57722200D01*
X62781809Y-57722200D02*
X62638952Y-57769819D01*
X62638952Y-57769819D02*
X62400857Y-57769819D01*
X63924666Y-57769819D02*
X63353238Y-57769819D01*
X63638952Y-57769819D02*
X63638952Y-56769819D01*
X63638952Y-56769819D02*
X63543714Y-56912676D01*
X63543714Y-56912676D02*
X63448476Y-57007914D01*
X63448476Y-57007914D02*
X63353238Y-57055533D01*
X64305619Y-56865057D02*
X64353238Y-56817438D01*
X64353238Y-56817438D02*
X64448476Y-56769819D01*
X64448476Y-56769819D02*
X64686571Y-56769819D01*
X64686571Y-56769819D02*
X64781809Y-56817438D01*
X64781809Y-56817438D02*
X64829428Y-56865057D01*
X64829428Y-56865057D02*
X64877047Y-56960295D01*
X64877047Y-56960295D02*
X64877047Y-57055533D01*
X64877047Y-57055533D02*
X64829428Y-57198390D01*
X64829428Y-57198390D02*
X64258000Y-57769819D01*
X64258000Y-57769819D02*
X64877047Y-57769819D01*
%TO.C,SW_B0*%
X74738000Y-39720000D02*
X74738000Y-38720000D01*
X74738000Y-52720000D02*
X74738000Y-51720000D01*
X74738000Y-52720000D02*
X75738000Y-52720000D01*
X75738000Y-38720000D02*
X74738000Y-38720000D01*
X87738000Y-52720000D02*
X88738000Y-52720000D01*
X88738000Y-38720000D02*
X87738000Y-38720000D01*
X88738000Y-38720000D02*
X88738000Y-39720000D01*
X88738000Y-51720000D02*
X88738000Y-52720000D01*
X88738000Y-52720000D02*
X87738000Y-52720000D01*
D11*
%TO.C,R8*%
X58390936Y-36435000D02*
X58845064Y-36435000D01*
X58390936Y-37905000D02*
X58845064Y-37905000D01*
D10*
%TO.C,SW_B3*%
X112738000Y-90720000D02*
X112738000Y-89720000D01*
X112738000Y-103720000D02*
X112738000Y-102720000D01*
X112738000Y-103720000D02*
X113738000Y-103720000D01*
X113738000Y-89720000D02*
X112738000Y-89720000D01*
X125738000Y-103720000D02*
X126738000Y-103720000D01*
X126738000Y-89720000D02*
X125738000Y-89720000D01*
X126738000Y-89720000D02*
X126738000Y-90720000D01*
X126738000Y-102720000D02*
X126738000Y-103720000D01*
X126738000Y-103720000D02*
X125738000Y-103720000D01*
%TO.C,SW_B4*%
X93738000Y-90720000D02*
X93738000Y-89720000D01*
X93738000Y-103720000D02*
X93738000Y-102720000D01*
X93738000Y-103720000D02*
X94738000Y-103720000D01*
X94738000Y-89720000D02*
X93738000Y-89720000D01*
X106738000Y-103720000D02*
X107738000Y-103720000D01*
X107738000Y-89720000D02*
X106738000Y-89720000D01*
X107738000Y-89720000D02*
X107738000Y-90720000D01*
X107738000Y-102720000D02*
X107738000Y-103720000D01*
X107738000Y-103720000D02*
X106738000Y-103720000D01*
%TO.C,SW_C1*%
X93738000Y-54720000D02*
X93738000Y-53720000D01*
X93738000Y-67720000D02*
X93738000Y-66720000D01*
X93738000Y-67720000D02*
X94738000Y-67720000D01*
X94738000Y-53720000D02*
X93738000Y-53720000D01*
X106738000Y-67720000D02*
X107738000Y-67720000D01*
X107738000Y-53720000D02*
X106738000Y-53720000D01*
X107738000Y-53720000D02*
X107738000Y-54720000D01*
X107738000Y-66720000D02*
X107738000Y-67720000D01*
X107738000Y-67720000D02*
X106738000Y-67720000D01*
D11*
%TO.C,LED3*%
X118073000Y-36755000D02*
X118073000Y-38675000D01*
X118073000Y-38675000D02*
X120758000Y-38675000D01*
X120758000Y-36755000D02*
X118073000Y-36755000D01*
D10*
%TO.C,SW_B1*%
X74738000Y-57720000D02*
X74738000Y-56720000D01*
X74738000Y-70720000D02*
X74738000Y-69720000D01*
X74738000Y-70720000D02*
X75738000Y-70720000D01*
X75738000Y-56720000D02*
X74738000Y-56720000D01*
X87738000Y-70720000D02*
X88738000Y-70720000D01*
X88738000Y-56720000D02*
X87738000Y-56720000D01*
X88738000Y-56720000D02*
X88738000Y-57720000D01*
X88738000Y-69720000D02*
X88738000Y-70720000D01*
X88738000Y-70720000D02*
X87738000Y-70720000D01*
D11*
%TO.C,R12*%
X96390936Y-51435000D02*
X96845064Y-51435000D01*
X96390936Y-52905000D02*
X96845064Y-52905000D01*
%TO.C,LED15*%
X118073000Y-73005000D02*
X118073000Y-74925000D01*
X118073000Y-74925000D02*
X120758000Y-74925000D01*
X120758000Y-73005000D02*
X118073000Y-73005000D01*
%TO.C,R10*%
X134390936Y-54435000D02*
X134845064Y-54435000D01*
X134390936Y-55905000D02*
X134845064Y-55905000D01*
%TO.C,Nice!View1*%
X187002400Y-71140000D02*
X187002400Y-72470000D01*
X185672400Y-71140000D02*
X187002400Y-71140000D01*
X184402400Y-71140000D02*
X174182400Y-71140000D01*
X184402400Y-71140000D02*
X184402400Y-73800000D01*
X174182400Y-71140000D02*
X174182400Y-73800000D01*
X184402400Y-73800000D02*
X174182400Y-73800000D01*
%TO.C,LED4*%
X99073000Y-37005000D02*
X99073000Y-38925000D01*
X99073000Y-38925000D02*
X101758000Y-38925000D01*
X101758000Y-37005000D02*
X99073000Y-37005000D01*
%TO.C,LED1*%
X155805900Y-43255000D02*
X155805900Y-45175000D01*
X155805900Y-45175000D02*
X158490900Y-45175000D01*
X158490900Y-43255000D02*
X155805900Y-43255000D01*
%TO.C,R2*%
X158915064Y-38241000D02*
X158460936Y-38241000D01*
X158915064Y-36771000D02*
X158460936Y-36771000D01*
%TO.C,R21*%
X176087954Y-95602859D02*
X176532158Y-95697278D01*
X175782324Y-97040736D02*
X176226528Y-97135155D01*
D10*
%TO.C,SW_F0*%
X150470900Y-42970000D02*
X150470900Y-41970000D01*
X150470900Y-55970000D02*
X150470900Y-54970000D01*
X150470900Y-55970000D02*
X151470900Y-55970000D01*
X151470900Y-41970000D02*
X150470900Y-41970000D01*
X163470900Y-55970000D02*
X164470900Y-55970000D01*
X164470900Y-41970000D02*
X163470900Y-41970000D01*
X164470900Y-41970000D02*
X164470900Y-42970000D01*
X164470900Y-54970000D02*
X164470900Y-55970000D01*
X164470900Y-55970000D02*
X163470900Y-55970000D01*
D12*
%TO.C,RE_1*%
X189197400Y-91870000D02*
X189197400Y-89870000D01*
X189197400Y-79870000D02*
X189197400Y-77870000D01*
X189197400Y-77870000D02*
X173797400Y-77870000D01*
X188597400Y-91870000D02*
X189197400Y-91870000D01*
X173797400Y-91870000D02*
X184697400Y-91870000D01*
D11*
%TO.C,LED13*%
X155805900Y-79255000D02*
X155805900Y-81175000D01*
X155805900Y-81175000D02*
X158490900Y-81175000D01*
X158490900Y-79255000D02*
X155805900Y-79255000D01*
%TO.C,R18*%
X96390936Y-69435000D02*
X96845064Y-69435000D01*
X96390936Y-70905000D02*
X96845064Y-70905000D01*
%TO.C,R19*%
X77390936Y-72435000D02*
X77845064Y-72435000D01*
X77390936Y-73905000D02*
X77845064Y-73905000D01*
%TO.C,R14*%
X58390936Y-54435000D02*
X58845064Y-54435000D01*
X58390936Y-55905000D02*
X58845064Y-55905000D01*
%TO.C,R24*%
X115390936Y-87435000D02*
X115845064Y-87435000D01*
X115390936Y-88905000D02*
X115845064Y-88905000D01*
%TO.C,R1*%
X158915064Y-41035000D02*
X158460936Y-41035000D01*
X158915064Y-39565000D02*
X158460936Y-39565000D01*
%TO.C,LED23*%
X99073000Y-90905000D02*
X99073000Y-92825000D01*
X99073000Y-92825000D02*
X101758000Y-92825000D01*
X101758000Y-90905000D02*
X99073000Y-90905000D01*
D10*
%TO.C,SW_A2*%
X55738000Y-75720000D02*
X55738000Y-74720000D01*
X55738000Y-88720000D02*
X55738000Y-87720000D01*
X55738000Y-88720000D02*
X56738000Y-88720000D01*
X56738000Y-74720000D02*
X55738000Y-74720000D01*
X68738000Y-88720000D02*
X69738000Y-88720000D01*
X69738000Y-74720000D02*
X68738000Y-74720000D01*
X69738000Y-74720000D02*
X69738000Y-75720000D01*
X69738000Y-87720000D02*
X69738000Y-88720000D01*
X69738000Y-88720000D02*
X68738000Y-88720000D01*
D11*
%TO.C,LED10*%
X99073000Y-55005000D02*
X99073000Y-56925000D01*
X99073000Y-56925000D02*
X101758000Y-56925000D01*
X101758000Y-55005000D02*
X99073000Y-55005000D01*
%TO.C,SW4*%
X170100000Y-37402000D02*
X170100000Y-36612000D01*
X169500000Y-35602000D02*
X163800000Y-35602000D01*
X168250000Y-38452000D02*
X166550000Y-38452000D01*
X168050000Y-35602000D02*
X168050000Y-34312000D01*
X168050000Y-34312000D02*
X167850000Y-34102000D01*
X167850000Y-34102000D02*
X166950000Y-34102000D01*
X166750000Y-34312000D02*
X166950000Y-34102000D01*
X166750000Y-34312000D02*
X166750000Y-35602000D01*
X165250000Y-38452000D02*
X165050000Y-38452000D01*
X163200000Y-36612000D02*
X163200000Y-37402000D01*
%TO.C,R20*%
X58390936Y-72435000D02*
X58845064Y-72435000D01*
X58390936Y-73905000D02*
X58845064Y-73905000D01*
D10*
%TO.C,SW_D1*%
X112738000Y-54720000D02*
X112738000Y-53720000D01*
X112738000Y-67720000D02*
X112738000Y-66720000D01*
X112738000Y-67720000D02*
X113738000Y-67720000D01*
X113738000Y-53720000D02*
X112738000Y-53720000D01*
X125738000Y-67720000D02*
X126738000Y-67720000D01*
X126738000Y-53720000D02*
X125738000Y-53720000D01*
X126738000Y-53720000D02*
X126738000Y-54720000D01*
X126738000Y-66720000D02*
X126738000Y-67720000D01*
X126738000Y-67720000D02*
X125738000Y-67720000D01*
D11*
%TO.C,LED17*%
X80073000Y-76005000D02*
X80073000Y-77925000D01*
X80073000Y-77925000D02*
X82758000Y-77925000D01*
X82758000Y-76005000D02*
X80073000Y-76005000D01*
%TO.C,R6*%
X86356436Y-36469000D02*
X86810564Y-36469000D01*
X86356436Y-37939000D02*
X86810564Y-37939000D01*
%TO.C,LED20*%
X155805900Y-97255000D02*
X155805900Y-99175000D01*
X155805900Y-99175000D02*
X158490900Y-99175000D01*
X158490900Y-97255000D02*
X155805900Y-97255000D01*
%TO.C,R4*%
X138880564Y-37905000D02*
X138426436Y-37905000D01*
X138880564Y-36435000D02*
X138426436Y-36435000D01*
D10*
%TO.C,SW_E2*%
X131738000Y-75720000D02*
X131738000Y-74720000D01*
X131738000Y-88720000D02*
X131738000Y-87720000D01*
X131738000Y-88720000D02*
X132738000Y-88720000D01*
X132738000Y-74720000D02*
X131738000Y-74720000D01*
X144738000Y-88720000D02*
X145738000Y-88720000D01*
X145738000Y-74720000D02*
X144738000Y-74720000D01*
X145738000Y-74720000D02*
X145738000Y-75720000D01*
X145738000Y-87720000D02*
X145738000Y-88720000D01*
X145738000Y-88720000D02*
X144738000Y-88720000D01*
D11*
%TO.C,LED18*%
X61073000Y-76005000D02*
X61073000Y-77925000D01*
X61073000Y-77925000D02*
X63758000Y-77925000D01*
X63758000Y-76005000D02*
X61073000Y-76005000D01*
D10*
%TO.C,SW_D2*%
X112738000Y-72720000D02*
X112738000Y-71720000D01*
X112738000Y-85720000D02*
X112738000Y-84720000D01*
X112738000Y-85720000D02*
X113738000Y-85720000D01*
X113738000Y-71720000D02*
X112738000Y-71720000D01*
X125738000Y-85720000D02*
X126738000Y-85720000D01*
X126738000Y-71720000D02*
X125738000Y-71720000D01*
X126738000Y-71720000D02*
X126738000Y-72720000D01*
X126738000Y-84720000D02*
X126738000Y-85720000D01*
X126738000Y-85720000D02*
X125738000Y-85720000D01*
%TO.C,SW_E0*%
X131738000Y-39720000D02*
X131738000Y-38720000D01*
X131738000Y-52720000D02*
X131738000Y-51720000D01*
X131738000Y-52720000D02*
X132738000Y-52720000D01*
X132738000Y-38720000D02*
X131738000Y-38720000D01*
X144738000Y-52720000D02*
X145738000Y-52720000D01*
X145738000Y-38720000D02*
X144738000Y-38720000D01*
X145738000Y-38720000D02*
X145738000Y-39720000D01*
X145738000Y-51720000D02*
X145738000Y-52720000D01*
X145738000Y-52720000D02*
X144738000Y-52720000D01*
D11*
%TO.C,LED8*%
X137073000Y-58005000D02*
X137073000Y-59925000D01*
X137073000Y-59925000D02*
X139758000Y-59925000D01*
X139758000Y-58005000D02*
X137073000Y-58005000D01*
%TO.C,LED5*%
X80073000Y-40005000D02*
X80073000Y-41925000D01*
X80073000Y-41925000D02*
X82758000Y-41925000D01*
X82758000Y-40005000D02*
X80073000Y-40005000D01*
%TO.C,R11*%
X115390936Y-51435000D02*
X115845064Y-51435000D01*
X115390936Y-52905000D02*
X115845064Y-52905000D01*
%TO.C,NICE_NANO1*%
X171642400Y-35430000D02*
X171642400Y-68560000D01*
D13*
X171642400Y-68560000D02*
X174132400Y-68560000D01*
D11*
X174132400Y-38030000D02*
X174132400Y-68560000D01*
X179592400Y-38030000D02*
X174132400Y-38030000D01*
X187052400Y-38030000D02*
X181592400Y-38030000D01*
X187052400Y-68560000D02*
X187052400Y-38030000D01*
D13*
X187052400Y-68560000D02*
X189542400Y-68560000D01*
D11*
X189542400Y-35430000D02*
X171642400Y-35430000D01*
X189542400Y-68560000D02*
X189542400Y-35330000D01*
%TO.C,LED21*%
X137073000Y-94255000D02*
X137073000Y-96175000D01*
X137073000Y-96175000D02*
X139758000Y-96175000D01*
X139758000Y-94255000D02*
X137073000Y-94255000D01*
%TO.C,R15*%
X153123836Y-75685000D02*
X153577964Y-75685000D01*
X153123836Y-77155000D02*
X153577964Y-77155000D01*
%TO.C,R22*%
X153123836Y-93685000D02*
X153577964Y-93685000D01*
X153123836Y-95155000D02*
X153577964Y-95155000D01*
D10*
%TO.C,SW_A1*%
X55738000Y-57720000D02*
X55738000Y-56720000D01*
X55738000Y-70720000D02*
X55738000Y-69720000D01*
X55738000Y-70720000D02*
X56738000Y-70720000D01*
X56738000Y-56720000D02*
X55738000Y-56720000D01*
X68738000Y-70720000D02*
X69738000Y-70720000D01*
X69738000Y-56720000D02*
X68738000Y-56720000D01*
X69738000Y-56720000D02*
X69738000Y-57720000D01*
X69738000Y-69720000D02*
X69738000Y-70720000D01*
X69738000Y-70720000D02*
X68738000Y-70720000D01*
D11*
%TO.C,R7*%
X77390936Y-36435000D02*
X77845064Y-36435000D01*
X77390936Y-37905000D02*
X77845064Y-37905000D01*
D10*
%TO.C,SW_A0*%
X55738000Y-39720000D02*
X55738000Y-38720000D01*
X55738000Y-52720000D02*
X55738000Y-51720000D01*
X55738000Y-52720000D02*
X56738000Y-52720000D01*
X56738000Y-38720000D02*
X55738000Y-38720000D01*
X68738000Y-52720000D02*
X69738000Y-52720000D01*
X69738000Y-38720000D02*
X68738000Y-38720000D01*
X69738000Y-38720000D02*
X69738000Y-39720000D01*
X69738000Y-51720000D02*
X69738000Y-52720000D01*
X69738000Y-52720000D02*
X68738000Y-52720000D01*
D11*
%TO.C,R25*%
X96510936Y-87435000D02*
X96965064Y-87435000D01*
X96510936Y-88905000D02*
X96965064Y-88905000D01*
%TO.C,LED11*%
X80073000Y-58005000D02*
X80073000Y-59925000D01*
X80073000Y-59925000D02*
X82758000Y-59925000D01*
X82758000Y-58005000D02*
X80073000Y-58005000D01*
D10*
%TO.C,SW_F2*%
X150470900Y-78970000D02*
X150470900Y-77970000D01*
X150470900Y-91970000D02*
X150470900Y-90970000D01*
X150470900Y-91970000D02*
X151470900Y-91970000D01*
X151470900Y-77970000D02*
X150470900Y-77970000D01*
X163470900Y-91970000D02*
X164470900Y-91970000D01*
X164470900Y-77970000D02*
X163470900Y-77970000D01*
X164470900Y-77970000D02*
X164470900Y-78970000D01*
X164470900Y-90970000D02*
X164470900Y-91970000D01*
X164470900Y-91970000D02*
X163470900Y-91970000D01*
%TO.C,SW_D0*%
X112738000Y-36470000D02*
X112738000Y-35470000D01*
X112738000Y-49470000D02*
X112738000Y-48470000D01*
X112738000Y-49470000D02*
X113738000Y-49470000D01*
X113738000Y-35470000D02*
X112738000Y-35470000D01*
X125738000Y-49470000D02*
X126738000Y-49470000D01*
X126738000Y-35470000D02*
X125738000Y-35470000D01*
X126738000Y-35470000D02*
X126738000Y-36470000D01*
X126738000Y-48470000D02*
X126738000Y-49470000D01*
X126738000Y-49470000D02*
X125738000Y-49470000D01*
D11*
%TO.C,Q1*%
X154298000Y-40524000D02*
X155973000Y-40524000D01*
X154298000Y-40524000D02*
X153648000Y-40524000D01*
X154298000Y-37404000D02*
X154948000Y-37404000D01*
X154298000Y-37404000D02*
X153648000Y-37404000D01*
%TO.C,R23*%
X134390936Y-90685000D02*
X134845064Y-90685000D01*
X134390936Y-92155000D02*
X134845064Y-92155000D01*
D10*
%TO.C,SW_E3*%
X172810001Y-98264498D02*
X173017913Y-97286350D01*
X170107149Y-110980416D02*
X170315061Y-110002269D01*
X170107149Y-110980416D02*
X171085297Y-111188328D01*
X173996060Y-97494262D02*
X173017913Y-97286350D01*
X182823068Y-113683268D02*
X183801215Y-113891180D01*
X186711979Y-100197114D02*
X185733831Y-99989202D01*
X186711979Y-100197114D02*
X186504067Y-101175261D01*
X184009127Y-112913032D02*
X183801215Y-113891180D01*
X183801215Y-113891180D02*
X182823068Y-113683268D01*
D11*
%TO.C,LED7*%
X155805900Y-61300000D02*
X155805900Y-63220000D01*
X155805900Y-63220000D02*
X158490900Y-63220000D01*
X158490900Y-61300000D02*
X155805900Y-61300000D01*
%TO.C,R5*%
X133038564Y-37939000D02*
X132584436Y-37939000D01*
X133038564Y-36469000D02*
X132584436Y-36469000D01*
D10*
%TO.C,SW_F1*%
X150470900Y-61015000D02*
X150470900Y-60015000D01*
X150470900Y-74015000D02*
X150470900Y-73015000D01*
X150470900Y-74015000D02*
X151470900Y-74015000D01*
X151470900Y-60015000D02*
X150470900Y-60015000D01*
X163470900Y-74015000D02*
X164470900Y-74015000D01*
X164470900Y-60015000D02*
X163470900Y-60015000D01*
X164470900Y-60015000D02*
X164470900Y-61015000D01*
X164470900Y-73015000D02*
X164470900Y-74015000D01*
X164470900Y-74015000D02*
X163470900Y-74015000D01*
D11*
%TO.C,R17*%
X116612936Y-69369000D02*
X117067064Y-69369000D01*
X116612936Y-70839000D02*
X117067064Y-70839000D01*
D10*
%TO.C,SW_C2*%
X93738000Y-72720000D02*
X93738000Y-71720000D01*
X93738000Y-85720000D02*
X93738000Y-84720000D01*
X93738000Y-85720000D02*
X94738000Y-85720000D01*
X94738000Y-71720000D02*
X93738000Y-71720000D01*
X106738000Y-85720000D02*
X107738000Y-85720000D01*
X107738000Y-71720000D02*
X106738000Y-71720000D01*
X107738000Y-71720000D02*
X107738000Y-72720000D01*
X107738000Y-84720000D02*
X107738000Y-85720000D01*
X107738000Y-85720000D02*
X106738000Y-85720000D01*
D11*
%TO.C,BATT1*%
X166208000Y-45630000D02*
X166208000Y-44570000D01*
X167268000Y-45630000D02*
X166208000Y-45630000D01*
X168268000Y-45630000D02*
X170328000Y-45630000D01*
X168268000Y-45630000D02*
X168268000Y-43510000D01*
X170328000Y-45630000D02*
X170328000Y-43510000D01*
X168268000Y-43510000D02*
X170328000Y-43510000D01*
%TO.C,LED9*%
X118073000Y-55005000D02*
X118073000Y-56925000D01*
X118073000Y-56925000D02*
X120758000Y-56925000D01*
X120758000Y-55005000D02*
X118073000Y-55005000D01*
%TO.C,R16*%
X134390936Y-72435000D02*
X134845064Y-72435000D01*
X134390936Y-73905000D02*
X134845064Y-73905000D01*
%TO.C,LED14*%
X137073000Y-76005000D02*
X137073000Y-77925000D01*
X137073000Y-77925000D02*
X139758000Y-77925000D01*
X139758000Y-76005000D02*
X137073000Y-76005000D01*
D10*
%TO.C,SW_E1*%
X131738000Y-57720000D02*
X131738000Y-56720000D01*
X131738000Y-70720000D02*
X131738000Y-69720000D01*
X131738000Y-70720000D02*
X132738000Y-70720000D01*
X132738000Y-56720000D02*
X131738000Y-56720000D01*
X144738000Y-70720000D02*
X145738000Y-70720000D01*
X145738000Y-56720000D02*
X144738000Y-56720000D01*
X145738000Y-56720000D02*
X145738000Y-57720000D01*
X145738000Y-69720000D02*
X145738000Y-70720000D01*
X145738000Y-70720000D02*
X144738000Y-70720000D01*
D11*
%TO.C,LED2*%
X137073000Y-40005000D02*
X137073000Y-41925000D01*
X137073000Y-41925000D02*
X139758000Y-41925000D01*
X139758000Y-40005000D02*
X137073000Y-40005000D01*
D10*
%TO.C,SW_C0*%
X93738000Y-36720000D02*
X93738000Y-35720000D01*
X93738000Y-49720000D02*
X93738000Y-48720000D01*
X93738000Y-49720000D02*
X94738000Y-49720000D01*
X94738000Y-35720000D02*
X93738000Y-35720000D01*
X106738000Y-49720000D02*
X107738000Y-49720000D01*
X107738000Y-35720000D02*
X106738000Y-35720000D01*
X107738000Y-35720000D02*
X107738000Y-36720000D01*
X107738000Y-48720000D02*
X107738000Y-49720000D01*
X107738000Y-49720000D02*
X106738000Y-49720000D01*
D11*
%TO.C,LED16*%
X99073000Y-73005000D02*
X99073000Y-74925000D01*
X99073000Y-74925000D02*
X101758000Y-74925000D01*
X101758000Y-73005000D02*
X99073000Y-73005000D01*
%TO.C,LED22*%
X118073000Y-91005000D02*
X118073000Y-92925000D01*
X118073000Y-92925000D02*
X120758000Y-92925000D01*
X120758000Y-91005000D02*
X118073000Y-91005000D01*
%TO.C,R9*%
X154458936Y-57730000D02*
X154913064Y-57730000D01*
X154458936Y-59200000D02*
X154913064Y-59200000D01*
D10*
%TO.C,SW_C3*%
X131738000Y-93970000D02*
X131738000Y-92970000D01*
X131738000Y-106970000D02*
X131738000Y-105970000D01*
X131738000Y-106970000D02*
X132738000Y-106970000D01*
X132738000Y-92970000D02*
X131738000Y-92970000D01*
X144738000Y-106970000D02*
X145738000Y-106970000D01*
X145738000Y-92970000D02*
X144738000Y-92970000D01*
X145738000Y-92970000D02*
X145738000Y-93970000D01*
X145738000Y-105970000D02*
X145738000Y-106970000D01*
X145738000Y-106970000D02*
X144738000Y-106970000D01*
D11*
%TO.C,R3*%
X148730436Y-39685000D02*
X149184564Y-39685000D01*
X148730436Y-41155000D02*
X149184564Y-41155000D01*
D10*
%TO.C,SW_B2*%
X74738000Y-75720000D02*
X74738000Y-74720000D01*
X74738000Y-88720000D02*
X74738000Y-87720000D01*
X74738000Y-88720000D02*
X75738000Y-88720000D01*
X75738000Y-74720000D02*
X74738000Y-74720000D01*
X87738000Y-88720000D02*
X88738000Y-88720000D01*
X88738000Y-74720000D02*
X87738000Y-74720000D01*
X88738000Y-74720000D02*
X88738000Y-75720000D01*
X88738000Y-87720000D02*
X88738000Y-88720000D01*
X88738000Y-88720000D02*
X87738000Y-88720000D01*
%TO.C,SW_D3*%
X150470900Y-96970000D02*
X150470900Y-95970000D01*
X150470900Y-109970000D02*
X150470900Y-108970000D01*
X150470900Y-109970000D02*
X151470900Y-109970000D01*
X151470900Y-95970000D02*
X150470900Y-95970000D01*
X163470900Y-109970000D02*
X164470900Y-109970000D01*
X164470900Y-95970000D02*
X163470900Y-95970000D01*
X164470900Y-95970000D02*
X164470900Y-96970000D01*
X164470900Y-108970000D02*
X164470900Y-109970000D01*
X164470900Y-109970000D02*
X163470900Y-109970000D01*
D11*
%TO.C,LED6*%
X61073000Y-40005000D02*
X61073000Y-41925000D01*
X61073000Y-41925000D02*
X63758000Y-41925000D01*
X63758000Y-40005000D02*
X61073000Y-40005000D01*
%TO.C,R13*%
X78258936Y-54435000D02*
X78713064Y-54435000D01*
X78258936Y-55905000D02*
X78713064Y-55905000D01*
%TO.C,LED19*%
X177936385Y-99645511D02*
X177537194Y-101523554D01*
X177537194Y-101523554D02*
X180163520Y-102081797D01*
X180562711Y-100203754D02*
X177936385Y-99645511D01*
%TO.C,LED12*%
X61073000Y-58005000D02*
X61073000Y-59925000D01*
X61073000Y-59925000D02*
X63758000Y-59925000D01*
X63758000Y-58005000D02*
X61073000Y-58005000D01*
%TD*%
%LPC*%
D14*
%TO.C,SW_B0*%
X76238000Y-45720000D03*
D15*
X76738000Y-49470000D03*
D16*
X81738000Y-45720000D03*
D15*
X81738000Y-51670000D03*
D17*
X86958000Y-41520000D03*
D14*
X87238000Y-45720000D03*
%TD*%
D18*
%TO.C,R8*%
X57705500Y-37170000D03*
X59530500Y-37170000D03*
%TD*%
D14*
%TO.C,SW_B3*%
X114238000Y-96720000D03*
D15*
X114738000Y-100470000D03*
D16*
X119738000Y-96720000D03*
D15*
X119738000Y-102670000D03*
D17*
X124958000Y-92520000D03*
D14*
X125238000Y-96720000D03*
%TD*%
D19*
%TO.C,H3*%
X148456000Y-58032000D03*
%TD*%
D14*
%TO.C,SW_B4*%
X95238000Y-96720000D03*
D15*
X95738000Y-100470000D03*
D16*
X100738000Y-96720000D03*
D15*
X100738000Y-102670000D03*
D17*
X105958000Y-92520000D03*
D14*
X106238000Y-96720000D03*
%TD*%
%TO.C,SW_C1*%
X95238000Y-60720000D03*
D15*
X95738000Y-64470000D03*
D16*
X100738000Y-60720000D03*
D15*
X100738000Y-66670000D03*
D17*
X105958000Y-56520000D03*
D14*
X106238000Y-60720000D03*
%TD*%
D20*
%TO.C,LED3*%
X118820500Y-37715000D03*
X120695500Y-37715000D03*
%TD*%
D14*
%TO.C,SW_B1*%
X76238000Y-63720000D03*
D15*
X76738000Y-67470000D03*
D16*
X81738000Y-63720000D03*
D15*
X81738000Y-69670000D03*
D17*
X86958000Y-59520000D03*
D14*
X87238000Y-63720000D03*
%TD*%
D18*
%TO.C,R12*%
X95705500Y-52170000D03*
X97530500Y-52170000D03*
%TD*%
D20*
%TO.C,LED15*%
X118820500Y-73965000D03*
X120695500Y-73965000D03*
%TD*%
D18*
%TO.C,R10*%
X133705500Y-55170000D03*
X135530500Y-55170000D03*
%TD*%
D21*
%TO.C,Nice!View1*%
X185672400Y-72470000D03*
D22*
X183132400Y-72470000D03*
X180592400Y-72470000D03*
X178052400Y-72470000D03*
X175512400Y-72470000D03*
%TD*%
D19*
%TO.C,H4*%
X166998000Y-94100000D03*
%TD*%
D20*
%TO.C,LED4*%
X99820500Y-37965000D03*
X101695500Y-37965000D03*
%TD*%
%TO.C,LED1*%
X156553400Y-44215000D03*
X158428400Y-44215000D03*
%TD*%
D23*
%TO.C,R2*%
X159600500Y-37506000D03*
X157775500Y-37506000D03*
%TD*%
D24*
%TO.C,R21*%
X175264681Y-96179288D03*
X177049801Y-96558726D03*
%TD*%
D14*
%TO.C,SW_F0*%
X151970900Y-48970000D03*
D15*
X152470900Y-52720000D03*
D16*
X157470900Y-48970000D03*
D15*
X157470900Y-54920000D03*
D17*
X162690900Y-44770000D03*
D14*
X162970900Y-48970000D03*
%TD*%
D25*
%TO.C,RE_1*%
X186322400Y-79070000D03*
D26*
X186322400Y-89180000D03*
X186322400Y-86640000D03*
X186322400Y-84100000D03*
X186322400Y-81560000D03*
X187547400Y-91570000D03*
X185697400Y-91570000D03*
%TD*%
D19*
%TO.C,H1*%
X72256000Y-54476000D03*
%TD*%
D20*
%TO.C,LED13*%
X156553400Y-80215000D03*
X158428400Y-80215000D03*
%TD*%
D18*
%TO.C,R18*%
X95705500Y-70170000D03*
X97530500Y-70170000D03*
%TD*%
%TO.C,R19*%
X76705500Y-73170000D03*
X78530500Y-73170000D03*
%TD*%
%TO.C,R14*%
X57705500Y-55170000D03*
X59530500Y-55170000D03*
%TD*%
%TO.C,R24*%
X114705500Y-88170000D03*
X116530500Y-88170000D03*
%TD*%
D23*
%TO.C,R1*%
X159600500Y-40300000D03*
X157775500Y-40300000D03*
%TD*%
D20*
%TO.C,LED23*%
X99820500Y-91865000D03*
X101695500Y-91865000D03*
%TD*%
D14*
%TO.C,SW_A2*%
X57238000Y-81720000D03*
D15*
X57738000Y-85470000D03*
D16*
X62738000Y-81720000D03*
D15*
X62738000Y-87670000D03*
D17*
X67958000Y-77520000D03*
D14*
X68238000Y-81720000D03*
%TD*%
D20*
%TO.C,LED10*%
X99820500Y-55965000D03*
X101695500Y-55965000D03*
%TD*%
D27*
%TO.C,SW4*%
X170300000Y-38112000D03*
X170300000Y-35902000D03*
D28*
X168150000Y-37002000D03*
X165150000Y-37002000D03*
D27*
X163000000Y-38112000D03*
X163000000Y-35902000D03*
D29*
X168900000Y-38762000D03*
X165900000Y-38762000D03*
X164400000Y-38762000D03*
%TD*%
D18*
%TO.C,R20*%
X57705500Y-73170000D03*
X59530500Y-73170000D03*
%TD*%
D14*
%TO.C,SW_D1*%
X114238000Y-60720000D03*
D15*
X114738000Y-64470000D03*
D16*
X119738000Y-60720000D03*
D15*
X119738000Y-66670000D03*
D17*
X124958000Y-56520000D03*
D14*
X125238000Y-60720000D03*
%TD*%
D20*
%TO.C,LED17*%
X80820500Y-76965000D03*
X82695500Y-76965000D03*
%TD*%
D18*
%TO.C,R6*%
X85671000Y-37204000D03*
X87496000Y-37204000D03*
%TD*%
D20*
%TO.C,LED20*%
X156553400Y-98215000D03*
X158428400Y-98215000D03*
%TD*%
D23*
%TO.C,R4*%
X139566000Y-37170000D03*
X137741000Y-37170000D03*
%TD*%
D14*
%TO.C,SW_E2*%
X133238000Y-81720000D03*
D15*
X133738000Y-85470000D03*
D16*
X138738000Y-81720000D03*
D15*
X138738000Y-87670000D03*
D17*
X143958000Y-77520000D03*
D14*
X144238000Y-81720000D03*
%TD*%
D20*
%TO.C,LED18*%
X61820500Y-76965000D03*
X63695500Y-76965000D03*
%TD*%
D14*
%TO.C,SW_D2*%
X114238000Y-78720000D03*
D15*
X114738000Y-82470000D03*
D16*
X119738000Y-78720000D03*
D15*
X119738000Y-84670000D03*
D17*
X124958000Y-74520000D03*
D14*
X125238000Y-78720000D03*
%TD*%
%TO.C,SW_E0*%
X133238000Y-45720000D03*
D15*
X133738000Y-49470000D03*
D16*
X138738000Y-45720000D03*
D15*
X138738000Y-51670000D03*
D17*
X143958000Y-41520000D03*
D14*
X144238000Y-45720000D03*
%TD*%
D20*
%TO.C,LED8*%
X137820500Y-58965000D03*
X139695500Y-58965000D03*
%TD*%
%TO.C,LED5*%
X80820500Y-40965000D03*
X82695500Y-40965000D03*
%TD*%
D18*
%TO.C,R11*%
X114705500Y-52170000D03*
X116530500Y-52170000D03*
%TD*%
D30*
%TO.C,NICE_NANO1*%
X172972400Y-39360000D03*
D31*
X172972400Y-41900000D03*
X172972400Y-44440000D03*
X172972400Y-46980000D03*
X172972400Y-49520000D03*
X172972400Y-52060000D03*
X172972400Y-54600000D03*
X172972400Y-57140000D03*
X172972400Y-59680000D03*
X172972400Y-62220000D03*
X172972400Y-64760000D03*
X172972400Y-67300000D03*
X188212400Y-67300000D03*
X188212400Y-64760000D03*
X188212400Y-62220000D03*
X188212400Y-59680000D03*
X188212400Y-57140000D03*
X188212400Y-54600000D03*
X188212400Y-52060000D03*
X188212400Y-49520000D03*
X188212400Y-46980000D03*
X188212400Y-44440000D03*
X188212400Y-41900000D03*
X188212400Y-39360000D03*
%TD*%
D20*
%TO.C,LED21*%
X137820500Y-95215000D03*
X139695500Y-95215000D03*
%TD*%
D18*
%TO.C,R15*%
X152438400Y-76420000D03*
X154263400Y-76420000D03*
%TD*%
D19*
%TO.C,H5*%
X110610000Y-69716000D03*
%TD*%
D18*
%TO.C,R22*%
X152438400Y-94420000D03*
X154263400Y-94420000D03*
%TD*%
D14*
%TO.C,SW_A1*%
X57238000Y-63720000D03*
D15*
X57738000Y-67470000D03*
D16*
X62738000Y-63720000D03*
D15*
X62738000Y-69670000D03*
D17*
X67958000Y-59520000D03*
D14*
X68238000Y-63720000D03*
%TD*%
D18*
%TO.C,R7*%
X76705500Y-37170000D03*
X78530500Y-37170000D03*
%TD*%
D14*
%TO.C,SW_A0*%
X57238000Y-45720000D03*
D15*
X57738000Y-49470000D03*
D16*
X62738000Y-45720000D03*
D15*
X62738000Y-51670000D03*
D17*
X67958000Y-41520000D03*
D14*
X68238000Y-45720000D03*
%TD*%
D18*
%TO.C,R25*%
X95825500Y-88170000D03*
X97650500Y-88170000D03*
%TD*%
D20*
%TO.C,LED11*%
X80820500Y-58965000D03*
X82695500Y-58965000D03*
%TD*%
D14*
%TO.C,SW_F2*%
X151970900Y-84970000D03*
D15*
X152470900Y-88720000D03*
D16*
X157470900Y-84970000D03*
D15*
X157470900Y-90920000D03*
D17*
X162690900Y-80770000D03*
D14*
X162970900Y-84970000D03*
%TD*%
%TO.C,SW_D0*%
X114238000Y-42470000D03*
D15*
X114738000Y-46220000D03*
D16*
X119738000Y-42470000D03*
D15*
X119738000Y-48420000D03*
D17*
X124958000Y-38270000D03*
D14*
X125238000Y-42470000D03*
%TD*%
D32*
%TO.C,Q1*%
X155235500Y-39914000D03*
X155235500Y-38014000D03*
X153360500Y-38964000D03*
%TD*%
D18*
%TO.C,R23*%
X133705500Y-91420000D03*
X135530500Y-91420000D03*
%TD*%
D14*
%TO.C,SW_E3*%
X173029752Y-104445251D03*
D15*
X172739157Y-108217260D03*
D16*
X178409564Y-105588765D03*
D15*
X177172489Y-111408743D03*
D17*
X184388724Y-102565844D03*
D14*
X183789376Y-106732279D03*
%TD*%
D20*
%TO.C,LED7*%
X156553400Y-62260000D03*
X158428400Y-62260000D03*
%TD*%
D23*
%TO.C,R5*%
X133724000Y-37204000D03*
X131899000Y-37204000D03*
%TD*%
D14*
%TO.C,SW_F1*%
X151970900Y-67015000D03*
D15*
X152470900Y-70765000D03*
D16*
X157470900Y-67015000D03*
D15*
X157470900Y-72965000D03*
D17*
X162690900Y-62815000D03*
D14*
X162970900Y-67015000D03*
%TD*%
D18*
%TO.C,R17*%
X115927500Y-70104000D03*
X117752500Y-70104000D03*
%TD*%
D14*
%TO.C,SW_C2*%
X95238000Y-78720000D03*
D15*
X95738000Y-82470000D03*
D16*
X100738000Y-78720000D03*
D15*
X100738000Y-84670000D03*
D17*
X105958000Y-74520000D03*
D14*
X106238000Y-78720000D03*
%TD*%
D33*
%TO.C,BATT1*%
X167268000Y-44570000D03*
D34*
X169268000Y-44570000D03*
%TD*%
D20*
%TO.C,LED9*%
X118820500Y-55965000D03*
X120695500Y-55965000D03*
%TD*%
D18*
%TO.C,R16*%
X133705500Y-73170000D03*
X135530500Y-73170000D03*
%TD*%
D20*
%TO.C,LED14*%
X137820500Y-76965000D03*
X139695500Y-76965000D03*
%TD*%
D14*
%TO.C,SW_E1*%
X133238000Y-63720000D03*
D15*
X133738000Y-67470000D03*
D16*
X138738000Y-63720000D03*
D15*
X138738000Y-69670000D03*
D17*
X143958000Y-59520000D03*
D14*
X144238000Y-63720000D03*
%TD*%
D20*
%TO.C,LED2*%
X137820500Y-40965000D03*
X139695500Y-40965000D03*
%TD*%
D14*
%TO.C,SW_C0*%
X95238000Y-42720000D03*
D15*
X95738000Y-46470000D03*
D16*
X100738000Y-42720000D03*
D15*
X100738000Y-48670000D03*
D17*
X105958000Y-38520000D03*
D14*
X106238000Y-42720000D03*
%TD*%
D19*
%TO.C,H2*%
X88426400Y-94910000D03*
%TD*%
D20*
%TO.C,LED16*%
X99820500Y-73965000D03*
X101695500Y-73965000D03*
%TD*%
%TO.C,LED22*%
X118820500Y-91965000D03*
X120695500Y-91965000D03*
%TD*%
D18*
%TO.C,R9*%
X153773500Y-58465000D03*
X155598500Y-58465000D03*
%TD*%
D14*
%TO.C,SW_C3*%
X133238000Y-99970000D03*
D15*
X133738000Y-103720000D03*
D16*
X138738000Y-99970000D03*
D15*
X138738000Y-105920000D03*
D17*
X143958000Y-95770000D03*
D14*
X144238000Y-99970000D03*
%TD*%
D18*
%TO.C,R3*%
X148045000Y-40420000D03*
X149870000Y-40420000D03*
%TD*%
D14*
%TO.C,SW_B2*%
X76238000Y-81720000D03*
D15*
X76738000Y-85470000D03*
D16*
X81738000Y-81720000D03*
D15*
X81738000Y-87670000D03*
D17*
X86958000Y-77520000D03*
D14*
X87238000Y-81720000D03*
%TD*%
%TO.C,SW_D3*%
X151970900Y-102970000D03*
D15*
X152470900Y-106720000D03*
D16*
X157470900Y-102970000D03*
D15*
X157470900Y-108920000D03*
D17*
X162690900Y-98770000D03*
D14*
X162970900Y-102970000D03*
%TD*%
D20*
%TO.C,LED6*%
X61820500Y-40965000D03*
X63695500Y-40965000D03*
%TD*%
D18*
%TO.C,R13*%
X77573500Y-55170000D03*
X79398500Y-55170000D03*
%TD*%
D35*
%TO.C,LED19*%
X178467955Y-100739947D03*
X180301981Y-101129781D03*
%TD*%
D20*
%TO.C,LED12*%
X61820500Y-58965000D03*
X63695500Y-58965000D03*
%TD*%
%LPD*%
M02*
