G04 #@! TF.GenerationSoftware,KiCad,Pcbnew,7.0.5-0*
G04 #@! TF.CreationDate,2023-09-10T21:21:40+09:30*
G04 #@! TF.ProjectId,Rolio,526f6c69-6f2e-46b6-9963-61645f706362,rev?*
G04 #@! TF.SameCoordinates,Original*
G04 #@! TF.FileFunction,Legend,Top*
G04 #@! TF.FilePolarity,Positive*
%FSLAX46Y46*%
G04 Gerber Fmt 4.6, Leading zero omitted, Abs format (unit mm)*
G04 Created by KiCad (PCBNEW 7.0.5-0) date 2023-09-10 21:21:40*
%MOMM*%
%LPD*%
G01*
G04 APERTURE LIST*
G04 Aperture macros list*
%AMRoundRect*
0 Rectangle with rounded corners*
0 $1 Rounding radius*
0 $2 $3 $4 $5 $6 $7 $8 $9 X,Y pos of 4 corners*
0 Add a 4 corners polygon primitive as box body*
4,1,4,$2,$3,$4,$5,$6,$7,$8,$9,$2,$3,0*
0 Add four circle primitives for the rounded corners*
1,1,$1+$1,$2,$3*
1,1,$1+$1,$4,$5*
1,1,$1+$1,$6,$7*
1,1,$1+$1,$8,$9*
0 Add four rect primitives between the rounded corners*
20,1,$1+$1,$2,$3,$4,$5,0*
20,1,$1+$1,$4,$5,$6,$7,0*
20,1,$1+$1,$6,$7,$8,$9,0*
20,1,$1+$1,$8,$9,$2,$3,0*%
G04 Aperture macros list end*
%ADD10C,0.150000*%
%ADD11C,0.187500*%
%ADD12C,0.100000*%
%ADD13C,0.120000*%
%ADD14C,0.200000*%
%ADD15C,1.701800*%
%ADD16C,3.000000*%
%ADD17C,3.429000*%
%ADD18C,0.990600*%
%ADD19C,4.300000*%
%ADD20RoundRect,0.243750X-0.243750X-0.456250X0.243750X-0.456250X0.243750X0.456250X-0.243750X0.456250X0*%
%ADD21R,1.700000X1.700000*%
%ADD22O,1.700000X1.700000*%
%ADD23C,1.500000*%
%ADD24C,1.600000*%
%ADD25RoundRect,0.250000X0.325000X0.450000X-0.325000X0.450000X-0.325000X-0.450000X0.325000X-0.450000X0*%
%ADD26R,1.600000X1.600000*%
%ADD27O,1.600000X1.600000*%
%ADD28R,1.350000X1.350000*%
%ADD29O,1.350000X1.350000*%
%ADD30RoundRect,0.243750X-0.333283X-0.395601X0.143564X-0.496958X0.333283X0.395601X-0.143564X0.496958X0*%
%ADD31C,0.900000*%
G04 APERTURE END LIST*
D10*
X165810779Y-44610866D02*
X166572684Y-44610866D01*
X166191731Y-44991819D02*
X166191731Y-44229914D01*
X165810779Y-51050866D02*
X166572684Y-51050866D01*
D11*
X92788783Y-34387392D02*
X92388783Y-33815964D01*
X92103069Y-34387392D02*
X92103069Y-33187392D01*
X92103069Y-33187392D02*
X92560212Y-33187392D01*
X92560212Y-33187392D02*
X92674497Y-33244535D01*
X92674497Y-33244535D02*
X92731640Y-33301678D01*
X92731640Y-33301678D02*
X92788783Y-33415964D01*
X92788783Y-33415964D02*
X92788783Y-33587392D01*
X92788783Y-33587392D02*
X92731640Y-33701678D01*
X92731640Y-33701678D02*
X92674497Y-33758821D01*
X92674497Y-33758821D02*
X92560212Y-33815964D01*
X92560212Y-33815964D02*
X92103069Y-33815964D01*
X93474497Y-34387392D02*
X93360212Y-34330250D01*
X93360212Y-34330250D02*
X93303069Y-34273107D01*
X93303069Y-34273107D02*
X93245926Y-34158821D01*
X93245926Y-34158821D02*
X93245926Y-33815964D01*
X93245926Y-33815964D02*
X93303069Y-33701678D01*
X93303069Y-33701678D02*
X93360212Y-33644535D01*
X93360212Y-33644535D02*
X93474497Y-33587392D01*
X93474497Y-33587392D02*
X93645926Y-33587392D01*
X93645926Y-33587392D02*
X93760212Y-33644535D01*
X93760212Y-33644535D02*
X93817355Y-33701678D01*
X93817355Y-33701678D02*
X93874497Y-33815964D01*
X93874497Y-33815964D02*
X93874497Y-34158821D01*
X93874497Y-34158821D02*
X93817355Y-34273107D01*
X93817355Y-34273107D02*
X93760212Y-34330250D01*
X93760212Y-34330250D02*
X93645926Y-34387392D01*
X93645926Y-34387392D02*
X93474497Y-34387392D01*
X94560211Y-34387392D02*
X94445926Y-34330250D01*
X94445926Y-34330250D02*
X94388783Y-34215964D01*
X94388783Y-34215964D02*
X94388783Y-33187392D01*
X95017354Y-34387392D02*
X95017354Y-33587392D01*
X95017354Y-33187392D02*
X94960211Y-33244535D01*
X94960211Y-33244535D02*
X95017354Y-33301678D01*
X95017354Y-33301678D02*
X95074497Y-33244535D01*
X95074497Y-33244535D02*
X95017354Y-33187392D01*
X95017354Y-33187392D02*
X95017354Y-33301678D01*
X95760211Y-34387392D02*
X95645926Y-34330250D01*
X95645926Y-34330250D02*
X95588783Y-34273107D01*
X95588783Y-34273107D02*
X95531640Y-34158821D01*
X95531640Y-34158821D02*
X95531640Y-33815964D01*
X95531640Y-33815964D02*
X95588783Y-33701678D01*
X95588783Y-33701678D02*
X95645926Y-33644535D01*
X95645926Y-33644535D02*
X95760211Y-33587392D01*
X95760211Y-33587392D02*
X95931640Y-33587392D01*
X95931640Y-33587392D02*
X96045926Y-33644535D01*
X96045926Y-33644535D02*
X96103069Y-33701678D01*
X96103069Y-33701678D02*
X96160211Y-33815964D01*
X96160211Y-33815964D02*
X96160211Y-34158821D01*
X96160211Y-34158821D02*
X96103069Y-34273107D01*
X96103069Y-34273107D02*
X96045926Y-34330250D01*
X96045926Y-34330250D02*
X95931640Y-34387392D01*
X95931640Y-34387392D02*
X95760211Y-34387392D01*
X97417354Y-33187392D02*
X97817354Y-34387392D01*
X97817354Y-34387392D02*
X98217354Y-33187392D01*
X99245925Y-34387392D02*
X98560211Y-34387392D01*
X98903068Y-34387392D02*
X98903068Y-33187392D01*
X98903068Y-33187392D02*
X98788782Y-33358821D01*
X98788782Y-33358821D02*
X98674497Y-33473107D01*
X98674497Y-33473107D02*
X98560211Y-33530250D01*
X99760211Y-34273107D02*
X99817354Y-34330250D01*
X99817354Y-34330250D02*
X99760211Y-34387392D01*
X99760211Y-34387392D02*
X99703068Y-34330250D01*
X99703068Y-34330250D02*
X99760211Y-34273107D01*
X99760211Y-34273107D02*
X99760211Y-34387392D01*
X100560211Y-33187392D02*
X100674497Y-33187392D01*
X100674497Y-33187392D02*
X100788783Y-33244535D01*
X100788783Y-33244535D02*
X100845926Y-33301678D01*
X100845926Y-33301678D02*
X100903068Y-33415964D01*
X100903068Y-33415964D02*
X100960211Y-33644535D01*
X100960211Y-33644535D02*
X100960211Y-33930250D01*
X100960211Y-33930250D02*
X100903068Y-34158821D01*
X100903068Y-34158821D02*
X100845926Y-34273107D01*
X100845926Y-34273107D02*
X100788783Y-34330250D01*
X100788783Y-34330250D02*
X100674497Y-34387392D01*
X100674497Y-34387392D02*
X100560211Y-34387392D01*
X100560211Y-34387392D02*
X100445926Y-34330250D01*
X100445926Y-34330250D02*
X100388783Y-34273107D01*
X100388783Y-34273107D02*
X100331640Y-34158821D01*
X100331640Y-34158821D02*
X100274497Y-33930250D01*
X100274497Y-33930250D02*
X100274497Y-33644535D01*
X100274497Y-33644535D02*
X100331640Y-33415964D01*
X100331640Y-33415964D02*
X100388783Y-33301678D01*
X100388783Y-33301678D02*
X100445926Y-33244535D01*
X100445926Y-33244535D02*
X100560211Y-33187392D01*
X102103068Y-34387392D02*
X101417354Y-34387392D01*
X101760211Y-34387392D02*
X101760211Y-33187392D01*
X101760211Y-33187392D02*
X101645925Y-33358821D01*
X101645925Y-33358821D02*
X101531640Y-33473107D01*
X101531640Y-33473107D02*
X101417354Y-33530250D01*
X103874497Y-34844535D02*
X103817354Y-34787392D01*
X103817354Y-34787392D02*
X103703068Y-34615964D01*
X103703068Y-34615964D02*
X103645926Y-34501678D01*
X103645926Y-34501678D02*
X103588783Y-34330250D01*
X103588783Y-34330250D02*
X103531640Y-34044535D01*
X103531640Y-34044535D02*
X103531640Y-33815964D01*
X103531640Y-33815964D02*
X103588783Y-33530250D01*
X103588783Y-33530250D02*
X103645926Y-33358821D01*
X103645926Y-33358821D02*
X103703068Y-33244535D01*
X103703068Y-33244535D02*
X103817354Y-33073107D01*
X103817354Y-33073107D02*
X103874497Y-33015964D01*
X104903068Y-34387392D02*
X104331640Y-34387392D01*
X104331640Y-34387392D02*
X104331640Y-33187392D01*
X105760212Y-34330250D02*
X105645926Y-34387392D01*
X105645926Y-34387392D02*
X105417355Y-34387392D01*
X105417355Y-34387392D02*
X105303069Y-34330250D01*
X105303069Y-34330250D02*
X105245926Y-34215964D01*
X105245926Y-34215964D02*
X105245926Y-33758821D01*
X105245926Y-33758821D02*
X105303069Y-33644535D01*
X105303069Y-33644535D02*
X105417355Y-33587392D01*
X105417355Y-33587392D02*
X105645926Y-33587392D01*
X105645926Y-33587392D02*
X105760212Y-33644535D01*
X105760212Y-33644535D02*
X105817355Y-33758821D01*
X105817355Y-33758821D02*
X105817355Y-33873107D01*
X105817355Y-33873107D02*
X105245926Y-33987392D01*
X106160211Y-33587392D02*
X106617354Y-33587392D01*
X106331640Y-34387392D02*
X106331640Y-33358821D01*
X106331640Y-33358821D02*
X106388783Y-33244535D01*
X106388783Y-33244535D02*
X106503068Y-33187392D01*
X106503068Y-33187392D02*
X106617354Y-33187392D01*
X106845925Y-33587392D02*
X107303068Y-33587392D01*
X107017354Y-33187392D02*
X107017354Y-34215964D01*
X107017354Y-34215964D02*
X107074497Y-34330250D01*
X107074497Y-34330250D02*
X107188782Y-34387392D01*
X107188782Y-34387392D02*
X107303068Y-34387392D01*
X107588782Y-34844535D02*
X107645925Y-34787392D01*
X107645925Y-34787392D02*
X107760211Y-34615964D01*
X107760211Y-34615964D02*
X107817354Y-34501678D01*
X107817354Y-34501678D02*
X107874496Y-34330250D01*
X107874496Y-34330250D02*
X107931639Y-34044535D01*
X107931639Y-34044535D02*
X107931639Y-33815964D01*
X107931639Y-33815964D02*
X107874496Y-33530250D01*
X107874496Y-33530250D02*
X107817354Y-33358821D01*
X107817354Y-33358821D02*
X107760211Y-33244535D01*
X107760211Y-33244535D02*
X107645925Y-33073107D01*
X107645925Y-33073107D02*
X107588782Y-33015964D01*
X109417354Y-33930250D02*
X110331640Y-33930250D01*
X111817354Y-34387392D02*
X111817354Y-33187392D01*
X111817354Y-33187392D02*
X112217354Y-34044535D01*
X112217354Y-34044535D02*
X112617354Y-33187392D01*
X112617354Y-33187392D02*
X112617354Y-34387392D01*
X113188783Y-34387392D02*
X113188783Y-33587392D01*
X113188783Y-33187392D02*
X113131640Y-33244535D01*
X113131640Y-33244535D02*
X113188783Y-33301678D01*
X113188783Y-33301678D02*
X113245926Y-33244535D01*
X113245926Y-33244535D02*
X113188783Y-33187392D01*
X113188783Y-33187392D02*
X113188783Y-33301678D01*
X114274498Y-34330250D02*
X114160212Y-34387392D01*
X114160212Y-34387392D02*
X113931640Y-34387392D01*
X113931640Y-34387392D02*
X113817355Y-34330250D01*
X113817355Y-34330250D02*
X113760212Y-34273107D01*
X113760212Y-34273107D02*
X113703069Y-34158821D01*
X113703069Y-34158821D02*
X113703069Y-33815964D01*
X113703069Y-33815964D02*
X113760212Y-33701678D01*
X113760212Y-33701678D02*
X113817355Y-33644535D01*
X113817355Y-33644535D02*
X113931640Y-33587392D01*
X113931640Y-33587392D02*
X114160212Y-33587392D01*
X114160212Y-33587392D02*
X114274498Y-33644535D01*
X114788783Y-34387392D02*
X114788783Y-33187392D01*
X114903069Y-33930250D02*
X115245926Y-34387392D01*
X115245926Y-33587392D02*
X114788783Y-34044535D01*
X115760212Y-34387392D02*
X115760212Y-33587392D01*
X115760212Y-33187392D02*
X115703069Y-33244535D01*
X115703069Y-33244535D02*
X115760212Y-33301678D01*
X115760212Y-33301678D02*
X115817355Y-33244535D01*
X115817355Y-33244535D02*
X115760212Y-33187392D01*
X115760212Y-33187392D02*
X115760212Y-33301678D01*
X116845927Y-33587392D02*
X116845927Y-34387392D01*
X116331641Y-33587392D02*
X116331641Y-34215964D01*
X116331641Y-34215964D02*
X116388784Y-34330250D01*
X116388784Y-34330250D02*
X116503069Y-34387392D01*
X116503069Y-34387392D02*
X116674498Y-34387392D01*
X116674498Y-34387392D02*
X116788784Y-34330250D01*
X116788784Y-34330250D02*
X116845927Y-34273107D01*
X117360212Y-34330250D02*
X117474498Y-34387392D01*
X117474498Y-34387392D02*
X117703069Y-34387392D01*
X117703069Y-34387392D02*
X117817355Y-34330250D01*
X117817355Y-34330250D02*
X117874498Y-34215964D01*
X117874498Y-34215964D02*
X117874498Y-34158821D01*
X117874498Y-34158821D02*
X117817355Y-34044535D01*
X117817355Y-34044535D02*
X117703069Y-33987392D01*
X117703069Y-33987392D02*
X117531641Y-33987392D01*
X117531641Y-33987392D02*
X117417355Y-33930250D01*
X117417355Y-33930250D02*
X117360212Y-33815964D01*
X117360212Y-33815964D02*
X117360212Y-33758821D01*
X117360212Y-33758821D02*
X117417355Y-33644535D01*
X117417355Y-33644535D02*
X117531641Y-33587392D01*
X117531641Y-33587392D02*
X117703069Y-33587392D01*
X117703069Y-33587392D02*
X117817355Y-33644535D01*
X118388784Y-34387392D02*
X118388784Y-33187392D01*
X118388784Y-33187392D02*
X118788784Y-34044535D01*
X118788784Y-34044535D02*
X119188784Y-33187392D01*
X119188784Y-33187392D02*
X119188784Y-34387392D01*
X119931641Y-34387392D02*
X119817356Y-34330250D01*
X119817356Y-34330250D02*
X119760213Y-34273107D01*
X119760213Y-34273107D02*
X119703070Y-34158821D01*
X119703070Y-34158821D02*
X119703070Y-33815964D01*
X119703070Y-33815964D02*
X119760213Y-33701678D01*
X119760213Y-33701678D02*
X119817356Y-33644535D01*
X119817356Y-33644535D02*
X119931641Y-33587392D01*
X119931641Y-33587392D02*
X120103070Y-33587392D01*
X120103070Y-33587392D02*
X120217356Y-33644535D01*
X120217356Y-33644535D02*
X120274499Y-33701678D01*
X120274499Y-33701678D02*
X120331641Y-33815964D01*
X120331641Y-33815964D02*
X120331641Y-34158821D01*
X120331641Y-34158821D02*
X120274499Y-34273107D01*
X120274499Y-34273107D02*
X120217356Y-34330250D01*
X120217356Y-34330250D02*
X120103070Y-34387392D01*
X120103070Y-34387392D02*
X119931641Y-34387392D01*
X121360213Y-33587392D02*
X121360213Y-34387392D01*
X120845927Y-33587392D02*
X120845927Y-34215964D01*
X120845927Y-34215964D02*
X120903070Y-34330250D01*
X120903070Y-34330250D02*
X121017355Y-34387392D01*
X121017355Y-34387392D02*
X121188784Y-34387392D01*
X121188784Y-34387392D02*
X121303070Y-34330250D01*
X121303070Y-34330250D02*
X121360213Y-34273107D01*
X121874498Y-34330250D02*
X121988784Y-34387392D01*
X121988784Y-34387392D02*
X122217355Y-34387392D01*
X122217355Y-34387392D02*
X122331641Y-34330250D01*
X122331641Y-34330250D02*
X122388784Y-34215964D01*
X122388784Y-34215964D02*
X122388784Y-34158821D01*
X122388784Y-34158821D02*
X122331641Y-34044535D01*
X122331641Y-34044535D02*
X122217355Y-33987392D01*
X122217355Y-33987392D02*
X122045927Y-33987392D01*
X122045927Y-33987392D02*
X121931641Y-33930250D01*
X121931641Y-33930250D02*
X121874498Y-33815964D01*
X121874498Y-33815964D02*
X121874498Y-33758821D01*
X121874498Y-33758821D02*
X121931641Y-33644535D01*
X121931641Y-33644535D02*
X122045927Y-33587392D01*
X122045927Y-33587392D02*
X122217355Y-33587392D01*
X122217355Y-33587392D02*
X122331641Y-33644535D01*
X122903070Y-34387392D02*
X122903070Y-33587392D01*
X122903070Y-33187392D02*
X122845927Y-33244535D01*
X122845927Y-33244535D02*
X122903070Y-33301678D01*
X122903070Y-33301678D02*
X122960213Y-33244535D01*
X122960213Y-33244535D02*
X122903070Y-33187392D01*
X122903070Y-33187392D02*
X122903070Y-33301678D01*
X123988785Y-33587392D02*
X123988785Y-34387392D01*
X123474499Y-33587392D02*
X123474499Y-34215964D01*
X123474499Y-34215964D02*
X123531642Y-34330250D01*
X123531642Y-34330250D02*
X123645927Y-34387392D01*
X123645927Y-34387392D02*
X123817356Y-34387392D01*
X123817356Y-34387392D02*
X123931642Y-34330250D01*
X123931642Y-34330250D02*
X123988785Y-34273107D01*
X124503070Y-34330250D02*
X124617356Y-34387392D01*
X124617356Y-34387392D02*
X124845927Y-34387392D01*
X124845927Y-34387392D02*
X124960213Y-34330250D01*
X124960213Y-34330250D02*
X125017356Y-34215964D01*
X125017356Y-34215964D02*
X125017356Y-34158821D01*
X125017356Y-34158821D02*
X124960213Y-34044535D01*
X124960213Y-34044535D02*
X124845927Y-33987392D01*
X124845927Y-33987392D02*
X124674499Y-33987392D01*
X124674499Y-33987392D02*
X124560213Y-33930250D01*
X124560213Y-33930250D02*
X124503070Y-33815964D01*
X124503070Y-33815964D02*
X124503070Y-33758821D01*
X124503070Y-33758821D02*
X124560213Y-33644535D01*
X124560213Y-33644535D02*
X124674499Y-33587392D01*
X124674499Y-33587392D02*
X124845927Y-33587392D01*
X124845927Y-33587392D02*
X124960213Y-33644535D01*
X126503071Y-33187392D02*
X126388785Y-33415964D01*
X126960214Y-33301678D02*
X127017357Y-33244535D01*
X127017357Y-33244535D02*
X127131643Y-33187392D01*
X127131643Y-33187392D02*
X127417357Y-33187392D01*
X127417357Y-33187392D02*
X127531643Y-33244535D01*
X127531643Y-33244535D02*
X127588785Y-33301678D01*
X127588785Y-33301678D02*
X127645928Y-33415964D01*
X127645928Y-33415964D02*
X127645928Y-33530250D01*
X127645928Y-33530250D02*
X127588785Y-33701678D01*
X127588785Y-33701678D02*
X126903071Y-34387392D01*
X126903071Y-34387392D02*
X127645928Y-34387392D01*
X128045928Y-33187392D02*
X128788785Y-33187392D01*
X128788785Y-33187392D02*
X128388785Y-33644535D01*
X128388785Y-33644535D02*
X128560214Y-33644535D01*
X128560214Y-33644535D02*
X128674500Y-33701678D01*
X128674500Y-33701678D02*
X128731642Y-33758821D01*
X128731642Y-33758821D02*
X128788785Y-33873107D01*
X128788785Y-33873107D02*
X128788785Y-34158821D01*
X128788785Y-34158821D02*
X128731642Y-34273107D01*
X128731642Y-34273107D02*
X128674500Y-34330250D01*
X128674500Y-34330250D02*
X128560214Y-34387392D01*
X128560214Y-34387392D02*
X128217357Y-34387392D01*
X128217357Y-34387392D02*
X128103071Y-34330250D01*
X128103071Y-34330250D02*
X128045928Y-34273107D01*
D10*
X78883237Y-93240009D02*
X79026094Y-93287628D01*
X79026094Y-93287628D02*
X79073713Y-93335247D01*
X79073713Y-93335247D02*
X79121332Y-93430485D01*
X79121332Y-93430485D02*
X79121332Y-93573342D01*
X79121332Y-93573342D02*
X79073713Y-93668580D01*
X79073713Y-93668580D02*
X79026094Y-93716200D01*
X79026094Y-93716200D02*
X78930856Y-93763819D01*
X78930856Y-93763819D02*
X78549904Y-93763819D01*
X78549904Y-93763819D02*
X78549904Y-92763819D01*
X78549904Y-92763819D02*
X78883237Y-92763819D01*
X78883237Y-92763819D02*
X78978475Y-92811438D01*
X78978475Y-92811438D02*
X79026094Y-92859057D01*
X79026094Y-92859057D02*
X79073713Y-92954295D01*
X79073713Y-92954295D02*
X79073713Y-93049533D01*
X79073713Y-93049533D02*
X79026094Y-93144771D01*
X79026094Y-93144771D02*
X78978475Y-93192390D01*
X78978475Y-93192390D02*
X78883237Y-93240009D01*
X78883237Y-93240009D02*
X78549904Y-93240009D01*
X79978475Y-93763819D02*
X79978475Y-93240009D01*
X79978475Y-93240009D02*
X79930856Y-93144771D01*
X79930856Y-93144771D02*
X79835618Y-93097152D01*
X79835618Y-93097152D02*
X79645142Y-93097152D01*
X79645142Y-93097152D02*
X79549904Y-93144771D01*
X79978475Y-93716200D02*
X79883237Y-93763819D01*
X79883237Y-93763819D02*
X79645142Y-93763819D01*
X79645142Y-93763819D02*
X79549904Y-93716200D01*
X79549904Y-93716200D02*
X79502285Y-93620961D01*
X79502285Y-93620961D02*
X79502285Y-93525723D01*
X79502285Y-93525723D02*
X79549904Y-93430485D01*
X79549904Y-93430485D02*
X79645142Y-93382866D01*
X79645142Y-93382866D02*
X79883237Y-93382866D01*
X79883237Y-93382866D02*
X79978475Y-93335247D01*
X80883237Y-93716200D02*
X80787999Y-93763819D01*
X80787999Y-93763819D02*
X80597523Y-93763819D01*
X80597523Y-93763819D02*
X80502285Y-93716200D01*
X80502285Y-93716200D02*
X80454666Y-93668580D01*
X80454666Y-93668580D02*
X80407047Y-93573342D01*
X80407047Y-93573342D02*
X80407047Y-93287628D01*
X80407047Y-93287628D02*
X80454666Y-93192390D01*
X80454666Y-93192390D02*
X80502285Y-93144771D01*
X80502285Y-93144771D02*
X80597523Y-93097152D01*
X80597523Y-93097152D02*
X80787999Y-93097152D01*
X80787999Y-93097152D02*
X80883237Y-93144771D01*
X81311809Y-93763819D02*
X81311809Y-92763819D01*
X81407047Y-93382866D02*
X81692761Y-93763819D01*
X81692761Y-93097152D02*
X81311809Y-93478104D01*
X82264190Y-93763819D02*
X82168952Y-93716200D01*
X82168952Y-93716200D02*
X82121333Y-93620961D01*
X82121333Y-93620961D02*
X82121333Y-92763819D01*
X82645143Y-93763819D02*
X82645143Y-93097152D01*
X82645143Y-92763819D02*
X82597524Y-92811438D01*
X82597524Y-92811438D02*
X82645143Y-92859057D01*
X82645143Y-92859057D02*
X82692762Y-92811438D01*
X82692762Y-92811438D02*
X82645143Y-92763819D01*
X82645143Y-92763819D02*
X82645143Y-92859057D01*
X83549904Y-93097152D02*
X83549904Y-93906676D01*
X83549904Y-93906676D02*
X83502285Y-94001914D01*
X83502285Y-94001914D02*
X83454666Y-94049533D01*
X83454666Y-94049533D02*
X83359428Y-94097152D01*
X83359428Y-94097152D02*
X83216571Y-94097152D01*
X83216571Y-94097152D02*
X83121333Y-94049533D01*
X83549904Y-93716200D02*
X83454666Y-93763819D01*
X83454666Y-93763819D02*
X83264190Y-93763819D01*
X83264190Y-93763819D02*
X83168952Y-93716200D01*
X83168952Y-93716200D02*
X83121333Y-93668580D01*
X83121333Y-93668580D02*
X83073714Y-93573342D01*
X83073714Y-93573342D02*
X83073714Y-93287628D01*
X83073714Y-93287628D02*
X83121333Y-93192390D01*
X83121333Y-93192390D02*
X83168952Y-93144771D01*
X83168952Y-93144771D02*
X83264190Y-93097152D01*
X83264190Y-93097152D02*
X83454666Y-93097152D01*
X83454666Y-93097152D02*
X83549904Y-93144771D01*
X84026095Y-93763819D02*
X84026095Y-92763819D01*
X84454666Y-93763819D02*
X84454666Y-93240009D01*
X84454666Y-93240009D02*
X84407047Y-93144771D01*
X84407047Y-93144771D02*
X84311809Y-93097152D01*
X84311809Y-93097152D02*
X84168952Y-93097152D01*
X84168952Y-93097152D02*
X84073714Y-93144771D01*
X84073714Y-93144771D02*
X84026095Y-93192390D01*
X84788000Y-93097152D02*
X85168952Y-93097152D01*
X84930857Y-92763819D02*
X84930857Y-93620961D01*
X84930857Y-93620961D02*
X84978476Y-93716200D01*
X84978476Y-93716200D02*
X85073714Y-93763819D01*
X85073714Y-93763819D02*
X85168952Y-93763819D01*
X80383238Y-94373819D02*
X80954666Y-94373819D01*
X80668952Y-95373819D02*
X80668952Y-94373819D01*
X81668952Y-95326200D02*
X81573714Y-95373819D01*
X81573714Y-95373819D02*
X81383238Y-95373819D01*
X81383238Y-95373819D02*
X81288000Y-95326200D01*
X81288000Y-95326200D02*
X81240381Y-95230961D01*
X81240381Y-95230961D02*
X81240381Y-94850009D01*
X81240381Y-94850009D02*
X81288000Y-94754771D01*
X81288000Y-94754771D02*
X81383238Y-94707152D01*
X81383238Y-94707152D02*
X81573714Y-94707152D01*
X81573714Y-94707152D02*
X81668952Y-94754771D01*
X81668952Y-94754771D02*
X81716571Y-94850009D01*
X81716571Y-94850009D02*
X81716571Y-94945247D01*
X81716571Y-94945247D02*
X81240381Y-95040485D01*
X82097524Y-95326200D02*
X82192762Y-95373819D01*
X82192762Y-95373819D02*
X82383238Y-95373819D01*
X82383238Y-95373819D02*
X82478476Y-95326200D01*
X82478476Y-95326200D02*
X82526095Y-95230961D01*
X82526095Y-95230961D02*
X82526095Y-95183342D01*
X82526095Y-95183342D02*
X82478476Y-95088104D01*
X82478476Y-95088104D02*
X82383238Y-95040485D01*
X82383238Y-95040485D02*
X82240381Y-95040485D01*
X82240381Y-95040485D02*
X82145143Y-94992866D01*
X82145143Y-94992866D02*
X82097524Y-94897628D01*
X82097524Y-94897628D02*
X82097524Y-94850009D01*
X82097524Y-94850009D02*
X82145143Y-94754771D01*
X82145143Y-94754771D02*
X82240381Y-94707152D01*
X82240381Y-94707152D02*
X82383238Y-94707152D01*
X82383238Y-94707152D02*
X82478476Y-94754771D01*
X82811810Y-94707152D02*
X83192762Y-94707152D01*
X82954667Y-94373819D02*
X82954667Y-95230961D01*
X82954667Y-95230961D02*
X83002286Y-95326200D01*
X83002286Y-95326200D02*
X83097524Y-95373819D01*
X83097524Y-95373819D02*
X83192762Y-95373819D01*
X118638952Y-36769819D02*
X118162762Y-36769819D01*
X118162762Y-36769819D02*
X118162762Y-35769819D01*
X118972286Y-36246009D02*
X119305619Y-36246009D01*
X119448476Y-36769819D02*
X118972286Y-36769819D01*
X118972286Y-36769819D02*
X118972286Y-35769819D01*
X118972286Y-35769819D02*
X119448476Y-35769819D01*
X119877048Y-36769819D02*
X119877048Y-35769819D01*
X119877048Y-35769819D02*
X120115143Y-35769819D01*
X120115143Y-35769819D02*
X120258000Y-35817438D01*
X120258000Y-35817438D02*
X120353238Y-35912676D01*
X120353238Y-35912676D02*
X120400857Y-36007914D01*
X120400857Y-36007914D02*
X120448476Y-36198390D01*
X120448476Y-36198390D02*
X120448476Y-36341247D01*
X120448476Y-36341247D02*
X120400857Y-36531723D01*
X120400857Y-36531723D02*
X120353238Y-36626961D01*
X120353238Y-36626961D02*
X120258000Y-36722200D01*
X120258000Y-36722200D02*
X120115143Y-36769819D01*
X120115143Y-36769819D02*
X119877048Y-36769819D01*
X120781810Y-35769819D02*
X121400857Y-35769819D01*
X121400857Y-35769819D02*
X121067524Y-36150771D01*
X121067524Y-36150771D02*
X121210381Y-36150771D01*
X121210381Y-36150771D02*
X121305619Y-36198390D01*
X121305619Y-36198390D02*
X121353238Y-36246009D01*
X121353238Y-36246009D02*
X121400857Y-36341247D01*
X121400857Y-36341247D02*
X121400857Y-36579342D01*
X121400857Y-36579342D02*
X121353238Y-36674580D01*
X121353238Y-36674580D02*
X121305619Y-36722200D01*
X121305619Y-36722200D02*
X121210381Y-36769819D01*
X121210381Y-36769819D02*
X120924667Y-36769819D01*
X120924667Y-36769819D02*
X120829429Y-36722200D01*
X120829429Y-36722200D02*
X120781810Y-36674580D01*
X118162761Y-72769819D02*
X117686571Y-72769819D01*
X117686571Y-72769819D02*
X117686571Y-71769819D01*
X118496095Y-72246009D02*
X118829428Y-72246009D01*
X118972285Y-72769819D02*
X118496095Y-72769819D01*
X118496095Y-72769819D02*
X118496095Y-71769819D01*
X118496095Y-71769819D02*
X118972285Y-71769819D01*
X119400857Y-72769819D02*
X119400857Y-71769819D01*
X119400857Y-71769819D02*
X119638952Y-71769819D01*
X119638952Y-71769819D02*
X119781809Y-71817438D01*
X119781809Y-71817438D02*
X119877047Y-71912676D01*
X119877047Y-71912676D02*
X119924666Y-72007914D01*
X119924666Y-72007914D02*
X119972285Y-72198390D01*
X119972285Y-72198390D02*
X119972285Y-72341247D01*
X119972285Y-72341247D02*
X119924666Y-72531723D01*
X119924666Y-72531723D02*
X119877047Y-72626961D01*
X119877047Y-72626961D02*
X119781809Y-72722200D01*
X119781809Y-72722200D02*
X119638952Y-72769819D01*
X119638952Y-72769819D02*
X119400857Y-72769819D01*
X120924666Y-72769819D02*
X120353238Y-72769819D01*
X120638952Y-72769819D02*
X120638952Y-71769819D01*
X120638952Y-71769819D02*
X120543714Y-71912676D01*
X120543714Y-71912676D02*
X120448476Y-72007914D01*
X120448476Y-72007914D02*
X120353238Y-72055533D01*
X121829428Y-71769819D02*
X121353238Y-71769819D01*
X121353238Y-71769819D02*
X121305619Y-72246009D01*
X121305619Y-72246009D02*
X121353238Y-72198390D01*
X121353238Y-72198390D02*
X121448476Y-72150771D01*
X121448476Y-72150771D02*
X121686571Y-72150771D01*
X121686571Y-72150771D02*
X121781809Y-72198390D01*
X121781809Y-72198390D02*
X121829428Y-72246009D01*
X121829428Y-72246009D02*
X121877047Y-72341247D01*
X121877047Y-72341247D02*
X121877047Y-72579342D01*
X121877047Y-72579342D02*
X121829428Y-72674580D01*
X121829428Y-72674580D02*
X121781809Y-72722200D01*
X121781809Y-72722200D02*
X121686571Y-72769819D01*
X121686571Y-72769819D02*
X121448476Y-72769819D01*
X121448476Y-72769819D02*
X121353238Y-72722200D01*
X121353238Y-72722200D02*
X121305619Y-72674580D01*
X178383115Y-75714819D02*
X178383115Y-74714819D01*
X178383115Y-74714819D02*
X178954543Y-75714819D01*
X178954543Y-75714819D02*
X178954543Y-74714819D01*
X179430734Y-75714819D02*
X179430734Y-75048152D01*
X179430734Y-74714819D02*
X179383115Y-74762438D01*
X179383115Y-74762438D02*
X179430734Y-74810057D01*
X179430734Y-74810057D02*
X179478353Y-74762438D01*
X179478353Y-74762438D02*
X179430734Y-74714819D01*
X179430734Y-74714819D02*
X179430734Y-74810057D01*
X180335495Y-75667200D02*
X180240257Y-75714819D01*
X180240257Y-75714819D02*
X180049781Y-75714819D01*
X180049781Y-75714819D02*
X179954543Y-75667200D01*
X179954543Y-75667200D02*
X179906924Y-75619580D01*
X179906924Y-75619580D02*
X179859305Y-75524342D01*
X179859305Y-75524342D02*
X179859305Y-75238628D01*
X179859305Y-75238628D02*
X179906924Y-75143390D01*
X179906924Y-75143390D02*
X179954543Y-75095771D01*
X179954543Y-75095771D02*
X180049781Y-75048152D01*
X180049781Y-75048152D02*
X180240257Y-75048152D01*
X180240257Y-75048152D02*
X180335495Y-75095771D01*
X181145019Y-75667200D02*
X181049781Y-75714819D01*
X181049781Y-75714819D02*
X180859305Y-75714819D01*
X180859305Y-75714819D02*
X180764067Y-75667200D01*
X180764067Y-75667200D02*
X180716448Y-75571961D01*
X180716448Y-75571961D02*
X180716448Y-75191009D01*
X180716448Y-75191009D02*
X180764067Y-75095771D01*
X180764067Y-75095771D02*
X180859305Y-75048152D01*
X180859305Y-75048152D02*
X181049781Y-75048152D01*
X181049781Y-75048152D02*
X181145019Y-75095771D01*
X181145019Y-75095771D02*
X181192638Y-75191009D01*
X181192638Y-75191009D02*
X181192638Y-75286247D01*
X181192638Y-75286247D02*
X180716448Y-75381485D01*
X181621210Y-75619580D02*
X181668829Y-75667200D01*
X181668829Y-75667200D02*
X181621210Y-75714819D01*
X181621210Y-75714819D02*
X181573591Y-75667200D01*
X181573591Y-75667200D02*
X181621210Y-75619580D01*
X181621210Y-75619580D02*
X181621210Y-75714819D01*
X181621210Y-75333866D02*
X181573591Y-74762438D01*
X181573591Y-74762438D02*
X181621210Y-74714819D01*
X181621210Y-74714819D02*
X181668829Y-74762438D01*
X181668829Y-74762438D02*
X181621210Y-75333866D01*
X181621210Y-75333866D02*
X181621210Y-74714819D01*
X181954543Y-74714819D02*
X182287876Y-75714819D01*
X182287876Y-75714819D02*
X182621209Y-74714819D01*
X182954543Y-75714819D02*
X182954543Y-75048152D01*
X182954543Y-74714819D02*
X182906924Y-74762438D01*
X182906924Y-74762438D02*
X182954543Y-74810057D01*
X182954543Y-74810057D02*
X183002162Y-74762438D01*
X183002162Y-74762438D02*
X182954543Y-74714819D01*
X182954543Y-74714819D02*
X182954543Y-74810057D01*
X183811685Y-75667200D02*
X183716447Y-75714819D01*
X183716447Y-75714819D02*
X183525971Y-75714819D01*
X183525971Y-75714819D02*
X183430733Y-75667200D01*
X183430733Y-75667200D02*
X183383114Y-75571961D01*
X183383114Y-75571961D02*
X183383114Y-75191009D01*
X183383114Y-75191009D02*
X183430733Y-75095771D01*
X183430733Y-75095771D02*
X183525971Y-75048152D01*
X183525971Y-75048152D02*
X183716447Y-75048152D01*
X183716447Y-75048152D02*
X183811685Y-75095771D01*
X183811685Y-75095771D02*
X183859304Y-75191009D01*
X183859304Y-75191009D02*
X183859304Y-75286247D01*
X183859304Y-75286247D02*
X183383114Y-75381485D01*
X184192638Y-75048152D02*
X184383114Y-75714819D01*
X184383114Y-75714819D02*
X184573590Y-75238628D01*
X184573590Y-75238628D02*
X184764066Y-75714819D01*
X184764066Y-75714819D02*
X184954542Y-75048152D01*
X185859304Y-75714819D02*
X185287876Y-75714819D01*
X185573590Y-75714819D02*
X185573590Y-74714819D01*
X185573590Y-74714819D02*
X185478352Y-74857676D01*
X185478352Y-74857676D02*
X185383114Y-74952914D01*
X185383114Y-74952914D02*
X185287876Y-75000533D01*
X99638952Y-36769819D02*
X99162762Y-36769819D01*
X99162762Y-36769819D02*
X99162762Y-35769819D01*
X99972286Y-36246009D02*
X100305619Y-36246009D01*
X100448476Y-36769819D02*
X99972286Y-36769819D01*
X99972286Y-36769819D02*
X99972286Y-35769819D01*
X99972286Y-35769819D02*
X100448476Y-35769819D01*
X100877048Y-36769819D02*
X100877048Y-35769819D01*
X100877048Y-35769819D02*
X101115143Y-35769819D01*
X101115143Y-35769819D02*
X101258000Y-35817438D01*
X101258000Y-35817438D02*
X101353238Y-35912676D01*
X101353238Y-35912676D02*
X101400857Y-36007914D01*
X101400857Y-36007914D02*
X101448476Y-36198390D01*
X101448476Y-36198390D02*
X101448476Y-36341247D01*
X101448476Y-36341247D02*
X101400857Y-36531723D01*
X101400857Y-36531723D02*
X101353238Y-36626961D01*
X101353238Y-36626961D02*
X101258000Y-36722200D01*
X101258000Y-36722200D02*
X101115143Y-36769819D01*
X101115143Y-36769819D02*
X100877048Y-36769819D01*
X102305619Y-36103152D02*
X102305619Y-36769819D01*
X102067524Y-35722200D02*
X101829429Y-36436485D01*
X101829429Y-36436485D02*
X102448476Y-36436485D01*
X156371852Y-43019819D02*
X155895662Y-43019819D01*
X155895662Y-43019819D02*
X155895662Y-42019819D01*
X156705186Y-42496009D02*
X157038519Y-42496009D01*
X157181376Y-43019819D02*
X156705186Y-43019819D01*
X156705186Y-43019819D02*
X156705186Y-42019819D01*
X156705186Y-42019819D02*
X157181376Y-42019819D01*
X157609948Y-43019819D02*
X157609948Y-42019819D01*
X157609948Y-42019819D02*
X157848043Y-42019819D01*
X157848043Y-42019819D02*
X157990900Y-42067438D01*
X157990900Y-42067438D02*
X158086138Y-42162676D01*
X158086138Y-42162676D02*
X158133757Y-42257914D01*
X158133757Y-42257914D02*
X158181376Y-42448390D01*
X158181376Y-42448390D02*
X158181376Y-42591247D01*
X158181376Y-42591247D02*
X158133757Y-42781723D01*
X158133757Y-42781723D02*
X158086138Y-42876961D01*
X158086138Y-42876961D02*
X157990900Y-42972200D01*
X157990900Y-42972200D02*
X157848043Y-43019819D01*
X157848043Y-43019819D02*
X157609948Y-43019819D01*
X159133757Y-43019819D02*
X158562329Y-43019819D01*
X158848043Y-43019819D02*
X158848043Y-42019819D01*
X158848043Y-42019819D02*
X158752805Y-42162676D01*
X158752805Y-42162676D02*
X158657567Y-42257914D01*
X158657567Y-42257914D02*
X158562329Y-42305533D01*
X181197399Y-85824819D02*
X180864066Y-85348628D01*
X180625971Y-85824819D02*
X180625971Y-84824819D01*
X180625971Y-84824819D02*
X181006923Y-84824819D01*
X181006923Y-84824819D02*
X181102161Y-84872438D01*
X181102161Y-84872438D02*
X181149780Y-84920057D01*
X181149780Y-84920057D02*
X181197399Y-85015295D01*
X181197399Y-85015295D02*
X181197399Y-85158152D01*
X181197399Y-85158152D02*
X181149780Y-85253390D01*
X181149780Y-85253390D02*
X181102161Y-85301009D01*
X181102161Y-85301009D02*
X181006923Y-85348628D01*
X181006923Y-85348628D02*
X180625971Y-85348628D01*
X181625971Y-85301009D02*
X181959304Y-85301009D01*
X182102161Y-85824819D02*
X181625971Y-85824819D01*
X181625971Y-85824819D02*
X181625971Y-84824819D01*
X181625971Y-84824819D02*
X182102161Y-84824819D01*
X182292638Y-85920057D02*
X183054542Y-85920057D01*
X183816447Y-85824819D02*
X183245019Y-85824819D01*
X183530733Y-85824819D02*
X183530733Y-84824819D01*
X183530733Y-84824819D02*
X183435495Y-84967676D01*
X183435495Y-84967676D02*
X183340257Y-85062914D01*
X183340257Y-85062914D02*
X183245019Y-85110533D01*
X155895661Y-79019819D02*
X155419471Y-79019819D01*
X155419471Y-79019819D02*
X155419471Y-78019819D01*
X156228995Y-78496009D02*
X156562328Y-78496009D01*
X156705185Y-79019819D02*
X156228995Y-79019819D01*
X156228995Y-79019819D02*
X156228995Y-78019819D01*
X156228995Y-78019819D02*
X156705185Y-78019819D01*
X157133757Y-79019819D02*
X157133757Y-78019819D01*
X157133757Y-78019819D02*
X157371852Y-78019819D01*
X157371852Y-78019819D02*
X157514709Y-78067438D01*
X157514709Y-78067438D02*
X157609947Y-78162676D01*
X157609947Y-78162676D02*
X157657566Y-78257914D01*
X157657566Y-78257914D02*
X157705185Y-78448390D01*
X157705185Y-78448390D02*
X157705185Y-78591247D01*
X157705185Y-78591247D02*
X157657566Y-78781723D01*
X157657566Y-78781723D02*
X157609947Y-78876961D01*
X157609947Y-78876961D02*
X157514709Y-78972200D01*
X157514709Y-78972200D02*
X157371852Y-79019819D01*
X157371852Y-79019819D02*
X157133757Y-79019819D01*
X158657566Y-79019819D02*
X158086138Y-79019819D01*
X158371852Y-79019819D02*
X158371852Y-78019819D01*
X158371852Y-78019819D02*
X158276614Y-78162676D01*
X158276614Y-78162676D02*
X158181376Y-78257914D01*
X158181376Y-78257914D02*
X158086138Y-78305533D01*
X158990900Y-78019819D02*
X159609947Y-78019819D01*
X159609947Y-78019819D02*
X159276614Y-78400771D01*
X159276614Y-78400771D02*
X159419471Y-78400771D01*
X159419471Y-78400771D02*
X159514709Y-78448390D01*
X159514709Y-78448390D02*
X159562328Y-78496009D01*
X159562328Y-78496009D02*
X159609947Y-78591247D01*
X159609947Y-78591247D02*
X159609947Y-78829342D01*
X159609947Y-78829342D02*
X159562328Y-78924580D01*
X159562328Y-78924580D02*
X159514709Y-78972200D01*
X159514709Y-78972200D02*
X159419471Y-79019819D01*
X159419471Y-79019819D02*
X159133757Y-79019819D01*
X159133757Y-79019819D02*
X159038519Y-78972200D01*
X159038519Y-78972200D02*
X158990900Y-78924580D01*
X99162761Y-90669819D02*
X98686571Y-90669819D01*
X98686571Y-90669819D02*
X98686571Y-89669819D01*
X99496095Y-90146009D02*
X99829428Y-90146009D01*
X99972285Y-90669819D02*
X99496095Y-90669819D01*
X99496095Y-90669819D02*
X99496095Y-89669819D01*
X99496095Y-89669819D02*
X99972285Y-89669819D01*
X100400857Y-90669819D02*
X100400857Y-89669819D01*
X100400857Y-89669819D02*
X100638952Y-89669819D01*
X100638952Y-89669819D02*
X100781809Y-89717438D01*
X100781809Y-89717438D02*
X100877047Y-89812676D01*
X100877047Y-89812676D02*
X100924666Y-89907914D01*
X100924666Y-89907914D02*
X100972285Y-90098390D01*
X100972285Y-90098390D02*
X100972285Y-90241247D01*
X100972285Y-90241247D02*
X100924666Y-90431723D01*
X100924666Y-90431723D02*
X100877047Y-90526961D01*
X100877047Y-90526961D02*
X100781809Y-90622200D01*
X100781809Y-90622200D02*
X100638952Y-90669819D01*
X100638952Y-90669819D02*
X100400857Y-90669819D01*
X101353238Y-89765057D02*
X101400857Y-89717438D01*
X101400857Y-89717438D02*
X101496095Y-89669819D01*
X101496095Y-89669819D02*
X101734190Y-89669819D01*
X101734190Y-89669819D02*
X101829428Y-89717438D01*
X101829428Y-89717438D02*
X101877047Y-89765057D01*
X101877047Y-89765057D02*
X101924666Y-89860295D01*
X101924666Y-89860295D02*
X101924666Y-89955533D01*
X101924666Y-89955533D02*
X101877047Y-90098390D01*
X101877047Y-90098390D02*
X101305619Y-90669819D01*
X101305619Y-90669819D02*
X101924666Y-90669819D01*
X102258000Y-89669819D02*
X102877047Y-89669819D01*
X102877047Y-89669819D02*
X102543714Y-90050771D01*
X102543714Y-90050771D02*
X102686571Y-90050771D01*
X102686571Y-90050771D02*
X102781809Y-90098390D01*
X102781809Y-90098390D02*
X102829428Y-90146009D01*
X102829428Y-90146009D02*
X102877047Y-90241247D01*
X102877047Y-90241247D02*
X102877047Y-90479342D01*
X102877047Y-90479342D02*
X102829428Y-90574580D01*
X102829428Y-90574580D02*
X102781809Y-90622200D01*
X102781809Y-90622200D02*
X102686571Y-90669819D01*
X102686571Y-90669819D02*
X102400857Y-90669819D01*
X102400857Y-90669819D02*
X102305619Y-90622200D01*
X102305619Y-90622200D02*
X102258000Y-90574580D01*
X99162761Y-54769819D02*
X98686571Y-54769819D01*
X98686571Y-54769819D02*
X98686571Y-53769819D01*
X99496095Y-54246009D02*
X99829428Y-54246009D01*
X99972285Y-54769819D02*
X99496095Y-54769819D01*
X99496095Y-54769819D02*
X99496095Y-53769819D01*
X99496095Y-53769819D02*
X99972285Y-53769819D01*
X100400857Y-54769819D02*
X100400857Y-53769819D01*
X100400857Y-53769819D02*
X100638952Y-53769819D01*
X100638952Y-53769819D02*
X100781809Y-53817438D01*
X100781809Y-53817438D02*
X100877047Y-53912676D01*
X100877047Y-53912676D02*
X100924666Y-54007914D01*
X100924666Y-54007914D02*
X100972285Y-54198390D01*
X100972285Y-54198390D02*
X100972285Y-54341247D01*
X100972285Y-54341247D02*
X100924666Y-54531723D01*
X100924666Y-54531723D02*
X100877047Y-54626961D01*
X100877047Y-54626961D02*
X100781809Y-54722200D01*
X100781809Y-54722200D02*
X100638952Y-54769819D01*
X100638952Y-54769819D02*
X100400857Y-54769819D01*
X101924666Y-54769819D02*
X101353238Y-54769819D01*
X101638952Y-54769819D02*
X101638952Y-53769819D01*
X101638952Y-53769819D02*
X101543714Y-53912676D01*
X101543714Y-53912676D02*
X101448476Y-54007914D01*
X101448476Y-54007914D02*
X101353238Y-54055533D01*
X102543714Y-53769819D02*
X102638952Y-53769819D01*
X102638952Y-53769819D02*
X102734190Y-53817438D01*
X102734190Y-53817438D02*
X102781809Y-53865057D01*
X102781809Y-53865057D02*
X102829428Y-53960295D01*
X102829428Y-53960295D02*
X102877047Y-54150771D01*
X102877047Y-54150771D02*
X102877047Y-54388866D01*
X102877047Y-54388866D02*
X102829428Y-54579342D01*
X102829428Y-54579342D02*
X102781809Y-54674580D01*
X102781809Y-54674580D02*
X102734190Y-54722200D01*
X102734190Y-54722200D02*
X102638952Y-54769819D01*
X102638952Y-54769819D02*
X102543714Y-54769819D01*
X102543714Y-54769819D02*
X102448476Y-54722200D01*
X102448476Y-54722200D02*
X102400857Y-54674580D01*
X102400857Y-54674580D02*
X102353238Y-54579342D01*
X102353238Y-54579342D02*
X102305619Y-54388866D01*
X102305619Y-54388866D02*
X102305619Y-54150771D01*
X102305619Y-54150771D02*
X102353238Y-53960295D01*
X102353238Y-53960295D02*
X102400857Y-53865057D01*
X102400857Y-53865057D02*
X102448476Y-53817438D01*
X102448476Y-53817438D02*
X102543714Y-53769819D01*
X80162761Y-75769819D02*
X79686571Y-75769819D01*
X79686571Y-75769819D02*
X79686571Y-74769819D01*
X80496095Y-75246009D02*
X80829428Y-75246009D01*
X80972285Y-75769819D02*
X80496095Y-75769819D01*
X80496095Y-75769819D02*
X80496095Y-74769819D01*
X80496095Y-74769819D02*
X80972285Y-74769819D01*
X81400857Y-75769819D02*
X81400857Y-74769819D01*
X81400857Y-74769819D02*
X81638952Y-74769819D01*
X81638952Y-74769819D02*
X81781809Y-74817438D01*
X81781809Y-74817438D02*
X81877047Y-74912676D01*
X81877047Y-74912676D02*
X81924666Y-75007914D01*
X81924666Y-75007914D02*
X81972285Y-75198390D01*
X81972285Y-75198390D02*
X81972285Y-75341247D01*
X81972285Y-75341247D02*
X81924666Y-75531723D01*
X81924666Y-75531723D02*
X81877047Y-75626961D01*
X81877047Y-75626961D02*
X81781809Y-75722200D01*
X81781809Y-75722200D02*
X81638952Y-75769819D01*
X81638952Y-75769819D02*
X81400857Y-75769819D01*
X82924666Y-75769819D02*
X82353238Y-75769819D01*
X82638952Y-75769819D02*
X82638952Y-74769819D01*
X82638952Y-74769819D02*
X82543714Y-74912676D01*
X82543714Y-74912676D02*
X82448476Y-75007914D01*
X82448476Y-75007914D02*
X82353238Y-75055533D01*
X83258000Y-74769819D02*
X83924666Y-74769819D01*
X83924666Y-74769819D02*
X83496095Y-75769819D01*
D12*
X85154115Y-91448533D02*
X84392211Y-91448533D01*
X79344590Y-91448533D02*
X78582686Y-91448533D01*
X78963638Y-91067580D02*
X78963638Y-91829485D01*
D10*
X155895661Y-97019819D02*
X155419471Y-97019819D01*
X155419471Y-97019819D02*
X155419471Y-96019819D01*
X156228995Y-96496009D02*
X156562328Y-96496009D01*
X156705185Y-97019819D02*
X156228995Y-97019819D01*
X156228995Y-97019819D02*
X156228995Y-96019819D01*
X156228995Y-96019819D02*
X156705185Y-96019819D01*
X157133757Y-97019819D02*
X157133757Y-96019819D01*
X157133757Y-96019819D02*
X157371852Y-96019819D01*
X157371852Y-96019819D02*
X157514709Y-96067438D01*
X157514709Y-96067438D02*
X157609947Y-96162676D01*
X157609947Y-96162676D02*
X157657566Y-96257914D01*
X157657566Y-96257914D02*
X157705185Y-96448390D01*
X157705185Y-96448390D02*
X157705185Y-96591247D01*
X157705185Y-96591247D02*
X157657566Y-96781723D01*
X157657566Y-96781723D02*
X157609947Y-96876961D01*
X157609947Y-96876961D02*
X157514709Y-96972200D01*
X157514709Y-96972200D02*
X157371852Y-97019819D01*
X157371852Y-97019819D02*
X157133757Y-97019819D01*
X158086138Y-96115057D02*
X158133757Y-96067438D01*
X158133757Y-96067438D02*
X158228995Y-96019819D01*
X158228995Y-96019819D02*
X158467090Y-96019819D01*
X158467090Y-96019819D02*
X158562328Y-96067438D01*
X158562328Y-96067438D02*
X158609947Y-96115057D01*
X158609947Y-96115057D02*
X158657566Y-96210295D01*
X158657566Y-96210295D02*
X158657566Y-96305533D01*
X158657566Y-96305533D02*
X158609947Y-96448390D01*
X158609947Y-96448390D02*
X158038519Y-97019819D01*
X158038519Y-97019819D02*
X158657566Y-97019819D01*
X159276614Y-96019819D02*
X159371852Y-96019819D01*
X159371852Y-96019819D02*
X159467090Y-96067438D01*
X159467090Y-96067438D02*
X159514709Y-96115057D01*
X159514709Y-96115057D02*
X159562328Y-96210295D01*
X159562328Y-96210295D02*
X159609947Y-96400771D01*
X159609947Y-96400771D02*
X159609947Y-96638866D01*
X159609947Y-96638866D02*
X159562328Y-96829342D01*
X159562328Y-96829342D02*
X159514709Y-96924580D01*
X159514709Y-96924580D02*
X159467090Y-96972200D01*
X159467090Y-96972200D02*
X159371852Y-97019819D01*
X159371852Y-97019819D02*
X159276614Y-97019819D01*
X159276614Y-97019819D02*
X159181376Y-96972200D01*
X159181376Y-96972200D02*
X159133757Y-96924580D01*
X159133757Y-96924580D02*
X159086138Y-96829342D01*
X159086138Y-96829342D02*
X159038519Y-96638866D01*
X159038519Y-96638866D02*
X159038519Y-96400771D01*
X159038519Y-96400771D02*
X159086138Y-96210295D01*
X159086138Y-96210295D02*
X159133757Y-96115057D01*
X159133757Y-96115057D02*
X159181376Y-96067438D01*
X159181376Y-96067438D02*
X159276614Y-96019819D01*
X61162761Y-78769819D02*
X60686571Y-78769819D01*
X60686571Y-78769819D02*
X60686571Y-77769819D01*
X61496095Y-78246009D02*
X61829428Y-78246009D01*
X61972285Y-78769819D02*
X61496095Y-78769819D01*
X61496095Y-78769819D02*
X61496095Y-77769819D01*
X61496095Y-77769819D02*
X61972285Y-77769819D01*
X62400857Y-78769819D02*
X62400857Y-77769819D01*
X62400857Y-77769819D02*
X62638952Y-77769819D01*
X62638952Y-77769819D02*
X62781809Y-77817438D01*
X62781809Y-77817438D02*
X62877047Y-77912676D01*
X62877047Y-77912676D02*
X62924666Y-78007914D01*
X62924666Y-78007914D02*
X62972285Y-78198390D01*
X62972285Y-78198390D02*
X62972285Y-78341247D01*
X62972285Y-78341247D02*
X62924666Y-78531723D01*
X62924666Y-78531723D02*
X62877047Y-78626961D01*
X62877047Y-78626961D02*
X62781809Y-78722200D01*
X62781809Y-78722200D02*
X62638952Y-78769819D01*
X62638952Y-78769819D02*
X62400857Y-78769819D01*
X63924666Y-78769819D02*
X63353238Y-78769819D01*
X63638952Y-78769819D02*
X63638952Y-77769819D01*
X63638952Y-77769819D02*
X63543714Y-77912676D01*
X63543714Y-77912676D02*
X63448476Y-78007914D01*
X63448476Y-78007914D02*
X63353238Y-78055533D01*
X64496095Y-78198390D02*
X64400857Y-78150771D01*
X64400857Y-78150771D02*
X64353238Y-78103152D01*
X64353238Y-78103152D02*
X64305619Y-78007914D01*
X64305619Y-78007914D02*
X64305619Y-77960295D01*
X64305619Y-77960295D02*
X64353238Y-77865057D01*
X64353238Y-77865057D02*
X64400857Y-77817438D01*
X64400857Y-77817438D02*
X64496095Y-77769819D01*
X64496095Y-77769819D02*
X64686571Y-77769819D01*
X64686571Y-77769819D02*
X64781809Y-77817438D01*
X64781809Y-77817438D02*
X64829428Y-77865057D01*
X64829428Y-77865057D02*
X64877047Y-77960295D01*
X64877047Y-77960295D02*
X64877047Y-78007914D01*
X64877047Y-78007914D02*
X64829428Y-78103152D01*
X64829428Y-78103152D02*
X64781809Y-78150771D01*
X64781809Y-78150771D02*
X64686571Y-78198390D01*
X64686571Y-78198390D02*
X64496095Y-78198390D01*
X64496095Y-78198390D02*
X64400857Y-78246009D01*
X64400857Y-78246009D02*
X64353238Y-78293628D01*
X64353238Y-78293628D02*
X64305619Y-78388866D01*
X64305619Y-78388866D02*
X64305619Y-78579342D01*
X64305619Y-78579342D02*
X64353238Y-78674580D01*
X64353238Y-78674580D02*
X64400857Y-78722200D01*
X64400857Y-78722200D02*
X64496095Y-78769819D01*
X64496095Y-78769819D02*
X64686571Y-78769819D01*
X64686571Y-78769819D02*
X64781809Y-78722200D01*
X64781809Y-78722200D02*
X64829428Y-78674580D01*
X64829428Y-78674580D02*
X64877047Y-78579342D01*
X64877047Y-78579342D02*
X64877047Y-78388866D01*
X64877047Y-78388866D02*
X64829428Y-78293628D01*
X64829428Y-78293628D02*
X64781809Y-78246009D01*
X64781809Y-78246009D02*
X64686571Y-78198390D01*
X137638952Y-57769819D02*
X137162762Y-57769819D01*
X137162762Y-57769819D02*
X137162762Y-56769819D01*
X137972286Y-57246009D02*
X138305619Y-57246009D01*
X138448476Y-57769819D02*
X137972286Y-57769819D01*
X137972286Y-57769819D02*
X137972286Y-56769819D01*
X137972286Y-56769819D02*
X138448476Y-56769819D01*
X138877048Y-57769819D02*
X138877048Y-56769819D01*
X138877048Y-56769819D02*
X139115143Y-56769819D01*
X139115143Y-56769819D02*
X139258000Y-56817438D01*
X139258000Y-56817438D02*
X139353238Y-56912676D01*
X139353238Y-56912676D02*
X139400857Y-57007914D01*
X139400857Y-57007914D02*
X139448476Y-57198390D01*
X139448476Y-57198390D02*
X139448476Y-57341247D01*
X139448476Y-57341247D02*
X139400857Y-57531723D01*
X139400857Y-57531723D02*
X139353238Y-57626961D01*
X139353238Y-57626961D02*
X139258000Y-57722200D01*
X139258000Y-57722200D02*
X139115143Y-57769819D01*
X139115143Y-57769819D02*
X138877048Y-57769819D01*
X140019905Y-57198390D02*
X139924667Y-57150771D01*
X139924667Y-57150771D02*
X139877048Y-57103152D01*
X139877048Y-57103152D02*
X139829429Y-57007914D01*
X139829429Y-57007914D02*
X139829429Y-56960295D01*
X139829429Y-56960295D02*
X139877048Y-56865057D01*
X139877048Y-56865057D02*
X139924667Y-56817438D01*
X139924667Y-56817438D02*
X140019905Y-56769819D01*
X140019905Y-56769819D02*
X140210381Y-56769819D01*
X140210381Y-56769819D02*
X140305619Y-56817438D01*
X140305619Y-56817438D02*
X140353238Y-56865057D01*
X140353238Y-56865057D02*
X140400857Y-56960295D01*
X140400857Y-56960295D02*
X140400857Y-57007914D01*
X140400857Y-57007914D02*
X140353238Y-57103152D01*
X140353238Y-57103152D02*
X140305619Y-57150771D01*
X140305619Y-57150771D02*
X140210381Y-57198390D01*
X140210381Y-57198390D02*
X140019905Y-57198390D01*
X140019905Y-57198390D02*
X139924667Y-57246009D01*
X139924667Y-57246009D02*
X139877048Y-57293628D01*
X139877048Y-57293628D02*
X139829429Y-57388866D01*
X139829429Y-57388866D02*
X139829429Y-57579342D01*
X139829429Y-57579342D02*
X139877048Y-57674580D01*
X139877048Y-57674580D02*
X139924667Y-57722200D01*
X139924667Y-57722200D02*
X140019905Y-57769819D01*
X140019905Y-57769819D02*
X140210381Y-57769819D01*
X140210381Y-57769819D02*
X140305619Y-57722200D01*
X140305619Y-57722200D02*
X140353238Y-57674580D01*
X140353238Y-57674580D02*
X140400857Y-57579342D01*
X140400857Y-57579342D02*
X140400857Y-57388866D01*
X140400857Y-57388866D02*
X140353238Y-57293628D01*
X140353238Y-57293628D02*
X140305619Y-57246009D01*
X140305619Y-57246009D02*
X140210381Y-57198390D01*
X80638952Y-39769819D02*
X80162762Y-39769819D01*
X80162762Y-39769819D02*
X80162762Y-38769819D01*
X80972286Y-39246009D02*
X81305619Y-39246009D01*
X81448476Y-39769819D02*
X80972286Y-39769819D01*
X80972286Y-39769819D02*
X80972286Y-38769819D01*
X80972286Y-38769819D02*
X81448476Y-38769819D01*
X81877048Y-39769819D02*
X81877048Y-38769819D01*
X81877048Y-38769819D02*
X82115143Y-38769819D01*
X82115143Y-38769819D02*
X82258000Y-38817438D01*
X82258000Y-38817438D02*
X82353238Y-38912676D01*
X82353238Y-38912676D02*
X82400857Y-39007914D01*
X82400857Y-39007914D02*
X82448476Y-39198390D01*
X82448476Y-39198390D02*
X82448476Y-39341247D01*
X82448476Y-39341247D02*
X82400857Y-39531723D01*
X82400857Y-39531723D02*
X82353238Y-39626961D01*
X82353238Y-39626961D02*
X82258000Y-39722200D01*
X82258000Y-39722200D02*
X82115143Y-39769819D01*
X82115143Y-39769819D02*
X81877048Y-39769819D01*
X83353238Y-38769819D02*
X82877048Y-38769819D01*
X82877048Y-38769819D02*
X82829429Y-39246009D01*
X82829429Y-39246009D02*
X82877048Y-39198390D01*
X82877048Y-39198390D02*
X82972286Y-39150771D01*
X82972286Y-39150771D02*
X83210381Y-39150771D01*
X83210381Y-39150771D02*
X83305619Y-39198390D01*
X83305619Y-39198390D02*
X83353238Y-39246009D01*
X83353238Y-39246009D02*
X83400857Y-39341247D01*
X83400857Y-39341247D02*
X83400857Y-39579342D01*
X83400857Y-39579342D02*
X83353238Y-39674580D01*
X83353238Y-39674580D02*
X83305619Y-39722200D01*
X83305619Y-39722200D02*
X83210381Y-39769819D01*
X83210381Y-39769819D02*
X82972286Y-39769819D01*
X82972286Y-39769819D02*
X82877048Y-39722200D01*
X82877048Y-39722200D02*
X82829429Y-39674580D01*
X177759067Y-37484819D02*
X177759067Y-36484819D01*
X177759067Y-36484819D02*
X178330495Y-37484819D01*
X178330495Y-37484819D02*
X178330495Y-36484819D01*
X178806686Y-37484819D02*
X178806686Y-36484819D01*
X179854304Y-37389580D02*
X179806685Y-37437200D01*
X179806685Y-37437200D02*
X179663828Y-37484819D01*
X179663828Y-37484819D02*
X179568590Y-37484819D01*
X179568590Y-37484819D02*
X179425733Y-37437200D01*
X179425733Y-37437200D02*
X179330495Y-37341961D01*
X179330495Y-37341961D02*
X179282876Y-37246723D01*
X179282876Y-37246723D02*
X179235257Y-37056247D01*
X179235257Y-37056247D02*
X179235257Y-36913390D01*
X179235257Y-36913390D02*
X179282876Y-36722914D01*
X179282876Y-36722914D02*
X179330495Y-36627676D01*
X179330495Y-36627676D02*
X179425733Y-36532438D01*
X179425733Y-36532438D02*
X179568590Y-36484819D01*
X179568590Y-36484819D02*
X179663828Y-36484819D01*
X179663828Y-36484819D02*
X179806685Y-36532438D01*
X179806685Y-36532438D02*
X179854304Y-36580057D01*
X180282876Y-36961009D02*
X180616209Y-36961009D01*
X180759066Y-37484819D02*
X180282876Y-37484819D01*
X180282876Y-37484819D02*
X180282876Y-36484819D01*
X180282876Y-36484819D02*
X180759066Y-36484819D01*
X180949543Y-37580057D02*
X181711447Y-37580057D01*
X181949543Y-37484819D02*
X181949543Y-36484819D01*
X181949543Y-36484819D02*
X182520971Y-37484819D01*
X182520971Y-37484819D02*
X182520971Y-36484819D01*
X182949543Y-37199104D02*
X183425733Y-37199104D01*
X182854305Y-37484819D02*
X183187638Y-36484819D01*
X183187638Y-36484819D02*
X183520971Y-37484819D01*
X183854305Y-37484819D02*
X183854305Y-36484819D01*
X183854305Y-36484819D02*
X184425733Y-37484819D01*
X184425733Y-37484819D02*
X184425733Y-36484819D01*
X185092400Y-36484819D02*
X185282876Y-36484819D01*
X185282876Y-36484819D02*
X185378114Y-36532438D01*
X185378114Y-36532438D02*
X185473352Y-36627676D01*
X185473352Y-36627676D02*
X185520971Y-36818152D01*
X185520971Y-36818152D02*
X185520971Y-37151485D01*
X185520971Y-37151485D02*
X185473352Y-37341961D01*
X185473352Y-37341961D02*
X185378114Y-37437200D01*
X185378114Y-37437200D02*
X185282876Y-37484819D01*
X185282876Y-37484819D02*
X185092400Y-37484819D01*
X185092400Y-37484819D02*
X184997162Y-37437200D01*
X184997162Y-37437200D02*
X184901924Y-37341961D01*
X184901924Y-37341961D02*
X184854305Y-37151485D01*
X184854305Y-37151485D02*
X184854305Y-36818152D01*
X184854305Y-36818152D02*
X184901924Y-36627676D01*
X184901924Y-36627676D02*
X184997162Y-36532438D01*
X184997162Y-36532438D02*
X185092400Y-36484819D01*
X186473352Y-37484819D02*
X185901924Y-37484819D01*
X186187638Y-37484819D02*
X186187638Y-36484819D01*
X186187638Y-36484819D02*
X186092400Y-36627676D01*
X186092400Y-36627676D02*
X185997162Y-36722914D01*
X185997162Y-36722914D02*
X185901924Y-36770533D01*
X137162761Y-93769819D02*
X136686571Y-93769819D01*
X136686571Y-93769819D02*
X136686571Y-92769819D01*
X137496095Y-93246009D02*
X137829428Y-93246009D01*
X137972285Y-93769819D02*
X137496095Y-93769819D01*
X137496095Y-93769819D02*
X137496095Y-92769819D01*
X137496095Y-92769819D02*
X137972285Y-92769819D01*
X138400857Y-93769819D02*
X138400857Y-92769819D01*
X138400857Y-92769819D02*
X138638952Y-92769819D01*
X138638952Y-92769819D02*
X138781809Y-92817438D01*
X138781809Y-92817438D02*
X138877047Y-92912676D01*
X138877047Y-92912676D02*
X138924666Y-93007914D01*
X138924666Y-93007914D02*
X138972285Y-93198390D01*
X138972285Y-93198390D02*
X138972285Y-93341247D01*
X138972285Y-93341247D02*
X138924666Y-93531723D01*
X138924666Y-93531723D02*
X138877047Y-93626961D01*
X138877047Y-93626961D02*
X138781809Y-93722200D01*
X138781809Y-93722200D02*
X138638952Y-93769819D01*
X138638952Y-93769819D02*
X138400857Y-93769819D01*
X139353238Y-92865057D02*
X139400857Y-92817438D01*
X139400857Y-92817438D02*
X139496095Y-92769819D01*
X139496095Y-92769819D02*
X139734190Y-92769819D01*
X139734190Y-92769819D02*
X139829428Y-92817438D01*
X139829428Y-92817438D02*
X139877047Y-92865057D01*
X139877047Y-92865057D02*
X139924666Y-92960295D01*
X139924666Y-92960295D02*
X139924666Y-93055533D01*
X139924666Y-93055533D02*
X139877047Y-93198390D01*
X139877047Y-93198390D02*
X139305619Y-93769819D01*
X139305619Y-93769819D02*
X139924666Y-93769819D01*
X140877047Y-93769819D02*
X140305619Y-93769819D01*
X140591333Y-93769819D02*
X140591333Y-92769819D01*
X140591333Y-92769819D02*
X140496095Y-92912676D01*
X140496095Y-92912676D02*
X140400857Y-93007914D01*
X140400857Y-93007914D02*
X140305619Y-93055533D01*
X80162761Y-57769819D02*
X79686571Y-57769819D01*
X79686571Y-57769819D02*
X79686571Y-56769819D01*
X80496095Y-57246009D02*
X80829428Y-57246009D01*
X80972285Y-57769819D02*
X80496095Y-57769819D01*
X80496095Y-57769819D02*
X80496095Y-56769819D01*
X80496095Y-56769819D02*
X80972285Y-56769819D01*
X81400857Y-57769819D02*
X81400857Y-56769819D01*
X81400857Y-56769819D02*
X81638952Y-56769819D01*
X81638952Y-56769819D02*
X81781809Y-56817438D01*
X81781809Y-56817438D02*
X81877047Y-56912676D01*
X81877047Y-56912676D02*
X81924666Y-57007914D01*
X81924666Y-57007914D02*
X81972285Y-57198390D01*
X81972285Y-57198390D02*
X81972285Y-57341247D01*
X81972285Y-57341247D02*
X81924666Y-57531723D01*
X81924666Y-57531723D02*
X81877047Y-57626961D01*
X81877047Y-57626961D02*
X81781809Y-57722200D01*
X81781809Y-57722200D02*
X81638952Y-57769819D01*
X81638952Y-57769819D02*
X81400857Y-57769819D01*
X82924666Y-57769819D02*
X82353238Y-57769819D01*
X82638952Y-57769819D02*
X82638952Y-56769819D01*
X82638952Y-56769819D02*
X82543714Y-56912676D01*
X82543714Y-56912676D02*
X82448476Y-57007914D01*
X82448476Y-57007914D02*
X82353238Y-57055533D01*
X83877047Y-57769819D02*
X83305619Y-57769819D01*
X83591333Y-57769819D02*
X83591333Y-56769819D01*
X83591333Y-56769819D02*
X83496095Y-56912676D01*
X83496095Y-56912676D02*
X83400857Y-57007914D01*
X83400857Y-57007914D02*
X83305619Y-57055533D01*
X156371852Y-61064819D02*
X155895662Y-61064819D01*
X155895662Y-61064819D02*
X155895662Y-60064819D01*
X156705186Y-60541009D02*
X157038519Y-60541009D01*
X157181376Y-61064819D02*
X156705186Y-61064819D01*
X156705186Y-61064819D02*
X156705186Y-60064819D01*
X156705186Y-60064819D02*
X157181376Y-60064819D01*
X157609948Y-61064819D02*
X157609948Y-60064819D01*
X157609948Y-60064819D02*
X157848043Y-60064819D01*
X157848043Y-60064819D02*
X157990900Y-60112438D01*
X157990900Y-60112438D02*
X158086138Y-60207676D01*
X158086138Y-60207676D02*
X158133757Y-60302914D01*
X158133757Y-60302914D02*
X158181376Y-60493390D01*
X158181376Y-60493390D02*
X158181376Y-60636247D01*
X158181376Y-60636247D02*
X158133757Y-60826723D01*
X158133757Y-60826723D02*
X158086138Y-60921961D01*
X158086138Y-60921961D02*
X157990900Y-61017200D01*
X157990900Y-61017200D02*
X157848043Y-61064819D01*
X157848043Y-61064819D02*
X157609948Y-61064819D01*
X158514710Y-60064819D02*
X159181376Y-60064819D01*
X159181376Y-60064819D02*
X158752805Y-61064819D01*
X118638952Y-54769819D02*
X118162762Y-54769819D01*
X118162762Y-54769819D02*
X118162762Y-53769819D01*
X118972286Y-54246009D02*
X119305619Y-54246009D01*
X119448476Y-54769819D02*
X118972286Y-54769819D01*
X118972286Y-54769819D02*
X118972286Y-53769819D01*
X118972286Y-53769819D02*
X119448476Y-53769819D01*
X119877048Y-54769819D02*
X119877048Y-53769819D01*
X119877048Y-53769819D02*
X120115143Y-53769819D01*
X120115143Y-53769819D02*
X120258000Y-53817438D01*
X120258000Y-53817438D02*
X120353238Y-53912676D01*
X120353238Y-53912676D02*
X120400857Y-54007914D01*
X120400857Y-54007914D02*
X120448476Y-54198390D01*
X120448476Y-54198390D02*
X120448476Y-54341247D01*
X120448476Y-54341247D02*
X120400857Y-54531723D01*
X120400857Y-54531723D02*
X120353238Y-54626961D01*
X120353238Y-54626961D02*
X120258000Y-54722200D01*
X120258000Y-54722200D02*
X120115143Y-54769819D01*
X120115143Y-54769819D02*
X119877048Y-54769819D01*
X120924667Y-54769819D02*
X121115143Y-54769819D01*
X121115143Y-54769819D02*
X121210381Y-54722200D01*
X121210381Y-54722200D02*
X121258000Y-54674580D01*
X121258000Y-54674580D02*
X121353238Y-54531723D01*
X121353238Y-54531723D02*
X121400857Y-54341247D01*
X121400857Y-54341247D02*
X121400857Y-53960295D01*
X121400857Y-53960295D02*
X121353238Y-53865057D01*
X121353238Y-53865057D02*
X121305619Y-53817438D01*
X121305619Y-53817438D02*
X121210381Y-53769819D01*
X121210381Y-53769819D02*
X121019905Y-53769819D01*
X121019905Y-53769819D02*
X120924667Y-53817438D01*
X120924667Y-53817438D02*
X120877048Y-53865057D01*
X120877048Y-53865057D02*
X120829429Y-53960295D01*
X120829429Y-53960295D02*
X120829429Y-54198390D01*
X120829429Y-54198390D02*
X120877048Y-54293628D01*
X120877048Y-54293628D02*
X120924667Y-54341247D01*
X120924667Y-54341247D02*
X121019905Y-54388866D01*
X121019905Y-54388866D02*
X121210381Y-54388866D01*
X121210381Y-54388866D02*
X121305619Y-54341247D01*
X121305619Y-54341247D02*
X121353238Y-54293628D01*
X121353238Y-54293628D02*
X121400857Y-54198390D01*
X137162761Y-75769819D02*
X136686571Y-75769819D01*
X136686571Y-75769819D02*
X136686571Y-74769819D01*
X137496095Y-75246009D02*
X137829428Y-75246009D01*
X137972285Y-75769819D02*
X137496095Y-75769819D01*
X137496095Y-75769819D02*
X137496095Y-74769819D01*
X137496095Y-74769819D02*
X137972285Y-74769819D01*
X138400857Y-75769819D02*
X138400857Y-74769819D01*
X138400857Y-74769819D02*
X138638952Y-74769819D01*
X138638952Y-74769819D02*
X138781809Y-74817438D01*
X138781809Y-74817438D02*
X138877047Y-74912676D01*
X138877047Y-74912676D02*
X138924666Y-75007914D01*
X138924666Y-75007914D02*
X138972285Y-75198390D01*
X138972285Y-75198390D02*
X138972285Y-75341247D01*
X138972285Y-75341247D02*
X138924666Y-75531723D01*
X138924666Y-75531723D02*
X138877047Y-75626961D01*
X138877047Y-75626961D02*
X138781809Y-75722200D01*
X138781809Y-75722200D02*
X138638952Y-75769819D01*
X138638952Y-75769819D02*
X138400857Y-75769819D01*
X139924666Y-75769819D02*
X139353238Y-75769819D01*
X139638952Y-75769819D02*
X139638952Y-74769819D01*
X139638952Y-74769819D02*
X139543714Y-74912676D01*
X139543714Y-74912676D02*
X139448476Y-75007914D01*
X139448476Y-75007914D02*
X139353238Y-75055533D01*
X140781809Y-75103152D02*
X140781809Y-75769819D01*
X140543714Y-74722200D02*
X140305619Y-75436485D01*
X140305619Y-75436485D02*
X140924666Y-75436485D01*
X137638952Y-39769819D02*
X137162762Y-39769819D01*
X137162762Y-39769819D02*
X137162762Y-38769819D01*
X137972286Y-39246009D02*
X138305619Y-39246009D01*
X138448476Y-39769819D02*
X137972286Y-39769819D01*
X137972286Y-39769819D02*
X137972286Y-38769819D01*
X137972286Y-38769819D02*
X138448476Y-38769819D01*
X138877048Y-39769819D02*
X138877048Y-38769819D01*
X138877048Y-38769819D02*
X139115143Y-38769819D01*
X139115143Y-38769819D02*
X139258000Y-38817438D01*
X139258000Y-38817438D02*
X139353238Y-38912676D01*
X139353238Y-38912676D02*
X139400857Y-39007914D01*
X139400857Y-39007914D02*
X139448476Y-39198390D01*
X139448476Y-39198390D02*
X139448476Y-39341247D01*
X139448476Y-39341247D02*
X139400857Y-39531723D01*
X139400857Y-39531723D02*
X139353238Y-39626961D01*
X139353238Y-39626961D02*
X139258000Y-39722200D01*
X139258000Y-39722200D02*
X139115143Y-39769819D01*
X139115143Y-39769819D02*
X138877048Y-39769819D01*
X139829429Y-38865057D02*
X139877048Y-38817438D01*
X139877048Y-38817438D02*
X139972286Y-38769819D01*
X139972286Y-38769819D02*
X140210381Y-38769819D01*
X140210381Y-38769819D02*
X140305619Y-38817438D01*
X140305619Y-38817438D02*
X140353238Y-38865057D01*
X140353238Y-38865057D02*
X140400857Y-38960295D01*
X140400857Y-38960295D02*
X140400857Y-39055533D01*
X140400857Y-39055533D02*
X140353238Y-39198390D01*
X140353238Y-39198390D02*
X139781810Y-39769819D01*
X139781810Y-39769819D02*
X140400857Y-39769819D01*
X99162761Y-72769819D02*
X98686571Y-72769819D01*
X98686571Y-72769819D02*
X98686571Y-71769819D01*
X99496095Y-72246009D02*
X99829428Y-72246009D01*
X99972285Y-72769819D02*
X99496095Y-72769819D01*
X99496095Y-72769819D02*
X99496095Y-71769819D01*
X99496095Y-71769819D02*
X99972285Y-71769819D01*
X100400857Y-72769819D02*
X100400857Y-71769819D01*
X100400857Y-71769819D02*
X100638952Y-71769819D01*
X100638952Y-71769819D02*
X100781809Y-71817438D01*
X100781809Y-71817438D02*
X100877047Y-71912676D01*
X100877047Y-71912676D02*
X100924666Y-72007914D01*
X100924666Y-72007914D02*
X100972285Y-72198390D01*
X100972285Y-72198390D02*
X100972285Y-72341247D01*
X100972285Y-72341247D02*
X100924666Y-72531723D01*
X100924666Y-72531723D02*
X100877047Y-72626961D01*
X100877047Y-72626961D02*
X100781809Y-72722200D01*
X100781809Y-72722200D02*
X100638952Y-72769819D01*
X100638952Y-72769819D02*
X100400857Y-72769819D01*
X101924666Y-72769819D02*
X101353238Y-72769819D01*
X101638952Y-72769819D02*
X101638952Y-71769819D01*
X101638952Y-71769819D02*
X101543714Y-71912676D01*
X101543714Y-71912676D02*
X101448476Y-72007914D01*
X101448476Y-72007914D02*
X101353238Y-72055533D01*
X102781809Y-71769819D02*
X102591333Y-71769819D01*
X102591333Y-71769819D02*
X102496095Y-71817438D01*
X102496095Y-71817438D02*
X102448476Y-71865057D01*
X102448476Y-71865057D02*
X102353238Y-72007914D01*
X102353238Y-72007914D02*
X102305619Y-72198390D01*
X102305619Y-72198390D02*
X102305619Y-72579342D01*
X102305619Y-72579342D02*
X102353238Y-72674580D01*
X102353238Y-72674580D02*
X102400857Y-72722200D01*
X102400857Y-72722200D02*
X102496095Y-72769819D01*
X102496095Y-72769819D02*
X102686571Y-72769819D01*
X102686571Y-72769819D02*
X102781809Y-72722200D01*
X102781809Y-72722200D02*
X102829428Y-72674580D01*
X102829428Y-72674580D02*
X102877047Y-72579342D01*
X102877047Y-72579342D02*
X102877047Y-72341247D01*
X102877047Y-72341247D02*
X102829428Y-72246009D01*
X102829428Y-72246009D02*
X102781809Y-72198390D01*
X102781809Y-72198390D02*
X102686571Y-72150771D01*
X102686571Y-72150771D02*
X102496095Y-72150771D01*
X102496095Y-72150771D02*
X102400857Y-72198390D01*
X102400857Y-72198390D02*
X102353238Y-72246009D01*
X102353238Y-72246009D02*
X102305619Y-72341247D01*
X118162761Y-90769819D02*
X117686571Y-90769819D01*
X117686571Y-90769819D02*
X117686571Y-89769819D01*
X118496095Y-90246009D02*
X118829428Y-90246009D01*
X118972285Y-90769819D02*
X118496095Y-90769819D01*
X118496095Y-90769819D02*
X118496095Y-89769819D01*
X118496095Y-89769819D02*
X118972285Y-89769819D01*
X119400857Y-90769819D02*
X119400857Y-89769819D01*
X119400857Y-89769819D02*
X119638952Y-89769819D01*
X119638952Y-89769819D02*
X119781809Y-89817438D01*
X119781809Y-89817438D02*
X119877047Y-89912676D01*
X119877047Y-89912676D02*
X119924666Y-90007914D01*
X119924666Y-90007914D02*
X119972285Y-90198390D01*
X119972285Y-90198390D02*
X119972285Y-90341247D01*
X119972285Y-90341247D02*
X119924666Y-90531723D01*
X119924666Y-90531723D02*
X119877047Y-90626961D01*
X119877047Y-90626961D02*
X119781809Y-90722200D01*
X119781809Y-90722200D02*
X119638952Y-90769819D01*
X119638952Y-90769819D02*
X119400857Y-90769819D01*
X120353238Y-89865057D02*
X120400857Y-89817438D01*
X120400857Y-89817438D02*
X120496095Y-89769819D01*
X120496095Y-89769819D02*
X120734190Y-89769819D01*
X120734190Y-89769819D02*
X120829428Y-89817438D01*
X120829428Y-89817438D02*
X120877047Y-89865057D01*
X120877047Y-89865057D02*
X120924666Y-89960295D01*
X120924666Y-89960295D02*
X120924666Y-90055533D01*
X120924666Y-90055533D02*
X120877047Y-90198390D01*
X120877047Y-90198390D02*
X120305619Y-90769819D01*
X120305619Y-90769819D02*
X120924666Y-90769819D01*
X121305619Y-89865057D02*
X121353238Y-89817438D01*
X121353238Y-89817438D02*
X121448476Y-89769819D01*
X121448476Y-89769819D02*
X121686571Y-89769819D01*
X121686571Y-89769819D02*
X121781809Y-89817438D01*
X121781809Y-89817438D02*
X121829428Y-89865057D01*
X121829428Y-89865057D02*
X121877047Y-89960295D01*
X121877047Y-89960295D02*
X121877047Y-90055533D01*
X121877047Y-90055533D02*
X121829428Y-90198390D01*
X121829428Y-90198390D02*
X121258000Y-90769819D01*
X121258000Y-90769819D02*
X121877047Y-90769819D01*
X61638952Y-42769819D02*
X61162762Y-42769819D01*
X61162762Y-42769819D02*
X61162762Y-41769819D01*
X61972286Y-42246009D02*
X62305619Y-42246009D01*
X62448476Y-42769819D02*
X61972286Y-42769819D01*
X61972286Y-42769819D02*
X61972286Y-41769819D01*
X61972286Y-41769819D02*
X62448476Y-41769819D01*
X62877048Y-42769819D02*
X62877048Y-41769819D01*
X62877048Y-41769819D02*
X63115143Y-41769819D01*
X63115143Y-41769819D02*
X63258000Y-41817438D01*
X63258000Y-41817438D02*
X63353238Y-41912676D01*
X63353238Y-41912676D02*
X63400857Y-42007914D01*
X63400857Y-42007914D02*
X63448476Y-42198390D01*
X63448476Y-42198390D02*
X63448476Y-42341247D01*
X63448476Y-42341247D02*
X63400857Y-42531723D01*
X63400857Y-42531723D02*
X63353238Y-42626961D01*
X63353238Y-42626961D02*
X63258000Y-42722200D01*
X63258000Y-42722200D02*
X63115143Y-42769819D01*
X63115143Y-42769819D02*
X62877048Y-42769819D01*
X64305619Y-41769819D02*
X64115143Y-41769819D01*
X64115143Y-41769819D02*
X64019905Y-41817438D01*
X64019905Y-41817438D02*
X63972286Y-41865057D01*
X63972286Y-41865057D02*
X63877048Y-42007914D01*
X63877048Y-42007914D02*
X63829429Y-42198390D01*
X63829429Y-42198390D02*
X63829429Y-42579342D01*
X63829429Y-42579342D02*
X63877048Y-42674580D01*
X63877048Y-42674580D02*
X63924667Y-42722200D01*
X63924667Y-42722200D02*
X64019905Y-42769819D01*
X64019905Y-42769819D02*
X64210381Y-42769819D01*
X64210381Y-42769819D02*
X64305619Y-42722200D01*
X64305619Y-42722200D02*
X64353238Y-42674580D01*
X64353238Y-42674580D02*
X64400857Y-42579342D01*
X64400857Y-42579342D02*
X64400857Y-42341247D01*
X64400857Y-42341247D02*
X64353238Y-42246009D01*
X64353238Y-42246009D02*
X64305619Y-42198390D01*
X64305619Y-42198390D02*
X64210381Y-42150771D01*
X64210381Y-42150771D02*
X64019905Y-42150771D01*
X64019905Y-42150771D02*
X63924667Y-42198390D01*
X63924667Y-42198390D02*
X63877048Y-42246009D01*
X63877048Y-42246009D02*
X63829429Y-42341247D01*
X178073081Y-99434131D02*
X177607296Y-99335125D01*
X177607296Y-99335125D02*
X177815208Y-98356978D01*
X178508036Y-98991072D02*
X178834086Y-99060376D01*
X178864915Y-99602440D02*
X178399130Y-99503435D01*
X178399130Y-99503435D02*
X178607042Y-98525287D01*
X178607042Y-98525287D02*
X179072826Y-98624293D01*
X179284121Y-99691546D02*
X179492033Y-98713398D01*
X179492033Y-98713398D02*
X179724925Y-98762901D01*
X179724925Y-98762901D02*
X179854760Y-98839181D01*
X179854760Y-98839181D02*
X179928116Y-98952139D01*
X179928116Y-98952139D02*
X179954893Y-99055196D01*
X179954893Y-99055196D02*
X179961869Y-99251411D01*
X179961869Y-99251411D02*
X179932167Y-99391146D01*
X179932167Y-99391146D02*
X179845987Y-99567559D01*
X179845987Y-99567559D02*
X179779607Y-99650816D01*
X179779607Y-99650816D02*
X179666649Y-99724172D01*
X179666649Y-99724172D02*
X179517013Y-99741048D01*
X179517013Y-99741048D02*
X179284121Y-99691546D01*
X180774632Y-100008363D02*
X180215690Y-99889557D01*
X180495161Y-99948960D02*
X180703073Y-98970812D01*
X180703073Y-98970812D02*
X180580214Y-99090747D01*
X180580214Y-99090747D02*
X180467256Y-99164102D01*
X180467256Y-99164102D02*
X180364198Y-99190880D01*
X181240416Y-100107369D02*
X181426730Y-100146971D01*
X181426730Y-100146971D02*
X181529788Y-100120194D01*
X181529788Y-100120194D02*
X181586267Y-100083516D01*
X181586267Y-100083516D02*
X181709125Y-99963582D01*
X181709125Y-99963582D02*
X181795306Y-99787168D01*
X181795306Y-99787168D02*
X181874510Y-99414541D01*
X181874510Y-99414541D02*
X181847733Y-99311483D01*
X181847733Y-99311483D02*
X181811055Y-99255004D01*
X181811055Y-99255004D02*
X181727799Y-99188625D01*
X181727799Y-99188625D02*
X181541485Y-99149022D01*
X181541485Y-99149022D02*
X181438427Y-99175800D01*
X181438427Y-99175800D02*
X181381948Y-99212478D01*
X181381948Y-99212478D02*
X181315569Y-99295734D01*
X181315569Y-99295734D02*
X181266066Y-99528626D01*
X181266066Y-99528626D02*
X181292843Y-99631684D01*
X181292843Y-99631684D02*
X181329521Y-99688163D01*
X181329521Y-99688163D02*
X181412778Y-99754542D01*
X181412778Y-99754542D02*
X181599091Y-99794145D01*
X181599091Y-99794145D02*
X181702149Y-99767367D01*
X181702149Y-99767367D02*
X181758628Y-99730689D01*
X181758628Y-99730689D02*
X181825007Y-99647433D01*
X61162761Y-60769819D02*
X60686571Y-60769819D01*
X60686571Y-60769819D02*
X60686571Y-59769819D01*
X61496095Y-60246009D02*
X61829428Y-60246009D01*
X61972285Y-60769819D02*
X61496095Y-60769819D01*
X61496095Y-60769819D02*
X61496095Y-59769819D01*
X61496095Y-59769819D02*
X61972285Y-59769819D01*
X62400857Y-60769819D02*
X62400857Y-59769819D01*
X62400857Y-59769819D02*
X62638952Y-59769819D01*
X62638952Y-59769819D02*
X62781809Y-59817438D01*
X62781809Y-59817438D02*
X62877047Y-59912676D01*
X62877047Y-59912676D02*
X62924666Y-60007914D01*
X62924666Y-60007914D02*
X62972285Y-60198390D01*
X62972285Y-60198390D02*
X62972285Y-60341247D01*
X62972285Y-60341247D02*
X62924666Y-60531723D01*
X62924666Y-60531723D02*
X62877047Y-60626961D01*
X62877047Y-60626961D02*
X62781809Y-60722200D01*
X62781809Y-60722200D02*
X62638952Y-60769819D01*
X62638952Y-60769819D02*
X62400857Y-60769819D01*
X63924666Y-60769819D02*
X63353238Y-60769819D01*
X63638952Y-60769819D02*
X63638952Y-59769819D01*
X63638952Y-59769819D02*
X63543714Y-59912676D01*
X63543714Y-59912676D02*
X63448476Y-60007914D01*
X63448476Y-60007914D02*
X63353238Y-60055533D01*
X64305619Y-59865057D02*
X64353238Y-59817438D01*
X64353238Y-59817438D02*
X64448476Y-59769819D01*
X64448476Y-59769819D02*
X64686571Y-59769819D01*
X64686571Y-59769819D02*
X64781809Y-59817438D01*
X64781809Y-59817438D02*
X64829428Y-59865057D01*
X64829428Y-59865057D02*
X64877047Y-59960295D01*
X64877047Y-59960295D02*
X64877047Y-60055533D01*
X64877047Y-60055533D02*
X64829428Y-60198390D01*
X64829428Y-60198390D02*
X64258000Y-60769819D01*
X64258000Y-60769819D02*
X64877047Y-60769819D01*
X74738000Y-39720000D02*
X74738000Y-38720000D01*
X74738000Y-52720000D02*
X74738000Y-51720000D01*
X74738000Y-52720000D02*
X75738000Y-52720000D01*
X75738000Y-38720000D02*
X74738000Y-38720000D01*
X87738000Y-52720000D02*
X88738000Y-52720000D01*
X88738000Y-38720000D02*
X87738000Y-38720000D01*
X88738000Y-38720000D02*
X88738000Y-39720000D01*
X88738000Y-51720000D02*
X88738000Y-52720000D01*
X88738000Y-52720000D02*
X87738000Y-52720000D01*
X112738000Y-90720000D02*
X112738000Y-89720000D01*
X112738000Y-103720000D02*
X112738000Y-102720000D01*
X112738000Y-103720000D02*
X113738000Y-103720000D01*
X113738000Y-89720000D02*
X112738000Y-89720000D01*
X125738000Y-103720000D02*
X126738000Y-103720000D01*
X126738000Y-89720000D02*
X125738000Y-89720000D01*
X126738000Y-89720000D02*
X126738000Y-90720000D01*
X126738000Y-102720000D02*
X126738000Y-103720000D01*
X126738000Y-103720000D02*
X125738000Y-103720000D01*
X93738000Y-90720000D02*
X93738000Y-89720000D01*
X93738000Y-103720000D02*
X93738000Y-102720000D01*
X93738000Y-103720000D02*
X94738000Y-103720000D01*
X94738000Y-89720000D02*
X93738000Y-89720000D01*
X106738000Y-103720000D02*
X107738000Y-103720000D01*
X107738000Y-89720000D02*
X106738000Y-89720000D01*
X107738000Y-89720000D02*
X107738000Y-90720000D01*
X107738000Y-102720000D02*
X107738000Y-103720000D01*
X107738000Y-103720000D02*
X106738000Y-103720000D01*
X93738000Y-54720000D02*
X93738000Y-53720000D01*
X93738000Y-67720000D02*
X93738000Y-66720000D01*
X93738000Y-67720000D02*
X94738000Y-67720000D01*
X94738000Y-53720000D02*
X93738000Y-53720000D01*
X106738000Y-67720000D02*
X107738000Y-67720000D01*
X107738000Y-53720000D02*
X106738000Y-53720000D01*
X107738000Y-53720000D02*
X107738000Y-54720000D01*
X107738000Y-66720000D02*
X107738000Y-67720000D01*
X107738000Y-67720000D02*
X106738000Y-67720000D01*
D13*
X118073000Y-37005000D02*
X118073000Y-38925000D01*
X118073000Y-38925000D02*
X120758000Y-38925000D01*
X120758000Y-37005000D02*
X118073000Y-37005000D01*
D10*
X74738000Y-57720000D02*
X74738000Y-56720000D01*
X74738000Y-70720000D02*
X74738000Y-69720000D01*
X74738000Y-70720000D02*
X75738000Y-70720000D01*
X75738000Y-56720000D02*
X74738000Y-56720000D01*
X87738000Y-70720000D02*
X88738000Y-70720000D01*
X88738000Y-56720000D02*
X87738000Y-56720000D01*
X88738000Y-56720000D02*
X88738000Y-57720000D01*
X88738000Y-69720000D02*
X88738000Y-70720000D01*
X88738000Y-70720000D02*
X87738000Y-70720000D01*
D13*
X118073000Y-73005000D02*
X118073000Y-74925000D01*
X118073000Y-74925000D02*
X120758000Y-74925000D01*
X120758000Y-73005000D02*
X118073000Y-73005000D01*
X188502400Y-71140000D02*
X188502400Y-72470000D01*
X187172400Y-71140000D02*
X188502400Y-71140000D01*
X185902400Y-71140000D02*
X175682400Y-71140000D01*
X185902400Y-71140000D02*
X185902400Y-73800000D01*
X175682400Y-71140000D02*
X175682400Y-73800000D01*
X185902400Y-73800000D02*
X175682400Y-73800000D01*
X99073000Y-37005000D02*
X99073000Y-38925000D01*
X99073000Y-38925000D02*
X101758000Y-38925000D01*
X101758000Y-37005000D02*
X99073000Y-37005000D01*
X155805900Y-43255000D02*
X155805900Y-45175000D01*
X155805900Y-45175000D02*
X158490900Y-45175000D01*
X158490900Y-43255000D02*
X155805900Y-43255000D01*
D10*
X150470900Y-42970000D02*
X150470900Y-41970000D01*
X150470900Y-55970000D02*
X150470900Y-54970000D01*
X150470900Y-55970000D02*
X151470900Y-55970000D01*
X151470900Y-41970000D02*
X150470900Y-41970000D01*
X163470900Y-55970000D02*
X164470900Y-55970000D01*
X164470900Y-41970000D02*
X163470900Y-41970000D01*
X164470900Y-41970000D02*
X164470900Y-42970000D01*
X164470900Y-54970000D02*
X164470900Y-55970000D01*
X164470900Y-55970000D02*
X163470900Y-55970000D01*
D14*
X190697400Y-91870000D02*
X190697400Y-89870000D01*
X190697400Y-79870000D02*
X190697400Y-77870000D01*
X190697400Y-77870000D02*
X175297400Y-77870000D01*
X190097400Y-91870000D02*
X190697400Y-91870000D01*
X175297400Y-91870000D02*
X186197400Y-91870000D01*
D13*
X155805900Y-79255000D02*
X155805900Y-81175000D01*
X155805900Y-81175000D02*
X158490900Y-81175000D01*
X158490900Y-79255000D02*
X155805900Y-79255000D01*
X99073000Y-90905000D02*
X99073000Y-92825000D01*
X99073000Y-92825000D02*
X101758000Y-92825000D01*
X101758000Y-90905000D02*
X99073000Y-90905000D01*
D10*
X55738000Y-78720000D02*
X55738000Y-77720000D01*
X55738000Y-91720000D02*
X55738000Y-90720000D01*
X55738000Y-91720000D02*
X56738000Y-91720000D01*
X56738000Y-77720000D02*
X55738000Y-77720000D01*
X68738000Y-91720000D02*
X69738000Y-91720000D01*
X69738000Y-77720000D02*
X68738000Y-77720000D01*
X69738000Y-77720000D02*
X69738000Y-78720000D01*
X69738000Y-90720000D02*
X69738000Y-91720000D01*
X69738000Y-91720000D02*
X68738000Y-91720000D01*
D13*
X99073000Y-55005000D02*
X99073000Y-56925000D01*
X99073000Y-56925000D02*
X101758000Y-56925000D01*
X101758000Y-55005000D02*
X99073000Y-55005000D01*
D10*
X112738000Y-54720000D02*
X112738000Y-53720000D01*
X112738000Y-67720000D02*
X112738000Y-66720000D01*
X112738000Y-67720000D02*
X113738000Y-67720000D01*
X113738000Y-53720000D02*
X112738000Y-53720000D01*
X125738000Y-67720000D02*
X126738000Y-67720000D01*
X126738000Y-53720000D02*
X125738000Y-53720000D01*
X126738000Y-53720000D02*
X126738000Y-54720000D01*
X126738000Y-66720000D02*
X126738000Y-67720000D01*
X126738000Y-67720000D02*
X125738000Y-67720000D01*
D13*
X80073000Y-76005000D02*
X80073000Y-77925000D01*
X80073000Y-77925000D02*
X82758000Y-77925000D01*
X82758000Y-76005000D02*
X80073000Y-76005000D01*
X155805900Y-97255000D02*
X155805900Y-99175000D01*
X155805900Y-99175000D02*
X158490900Y-99175000D01*
X158490900Y-97255000D02*
X155805900Y-97255000D01*
D10*
X131738000Y-75720000D02*
X131738000Y-74720000D01*
X131738000Y-88720000D02*
X131738000Y-87720000D01*
X131738000Y-88720000D02*
X132738000Y-88720000D01*
X132738000Y-74720000D02*
X131738000Y-74720000D01*
X144738000Y-88720000D02*
X145738000Y-88720000D01*
X145738000Y-74720000D02*
X144738000Y-74720000D01*
X145738000Y-74720000D02*
X145738000Y-75720000D01*
X145738000Y-87720000D02*
X145738000Y-88720000D01*
X145738000Y-88720000D02*
X144738000Y-88720000D01*
D13*
X61073000Y-79005000D02*
X61073000Y-80925000D01*
X61073000Y-80925000D02*
X63758000Y-80925000D01*
X63758000Y-79005000D02*
X61073000Y-79005000D01*
D10*
X112738000Y-72720000D02*
X112738000Y-71720000D01*
X112738000Y-85720000D02*
X112738000Y-84720000D01*
X112738000Y-85720000D02*
X113738000Y-85720000D01*
X113738000Y-71720000D02*
X112738000Y-71720000D01*
X125738000Y-85720000D02*
X126738000Y-85720000D01*
X126738000Y-71720000D02*
X125738000Y-71720000D01*
X126738000Y-71720000D02*
X126738000Y-72720000D01*
X126738000Y-84720000D02*
X126738000Y-85720000D01*
X126738000Y-85720000D02*
X125738000Y-85720000D01*
X131738000Y-39720000D02*
X131738000Y-38720000D01*
X131738000Y-52720000D02*
X131738000Y-51720000D01*
X131738000Y-52720000D02*
X132738000Y-52720000D01*
X132738000Y-38720000D02*
X131738000Y-38720000D01*
X144738000Y-52720000D02*
X145738000Y-52720000D01*
X145738000Y-38720000D02*
X144738000Y-38720000D01*
X145738000Y-38720000D02*
X145738000Y-39720000D01*
X145738000Y-51720000D02*
X145738000Y-52720000D01*
X145738000Y-52720000D02*
X144738000Y-52720000D01*
D13*
X137073000Y-58005000D02*
X137073000Y-59925000D01*
X137073000Y-59925000D02*
X139758000Y-59925000D01*
X139758000Y-58005000D02*
X137073000Y-58005000D01*
X80073000Y-40005000D02*
X80073000Y-41925000D01*
X80073000Y-41925000D02*
X82758000Y-41925000D01*
X82758000Y-40005000D02*
X80073000Y-40005000D01*
X173142400Y-35930000D02*
X173142400Y-68560000D01*
D12*
X173142400Y-68560000D02*
X175632400Y-68560000D01*
D13*
X175632400Y-38030000D02*
X175632400Y-68560000D01*
X181092400Y-38030000D02*
X175632400Y-38030000D01*
X188552400Y-38030000D02*
X183092400Y-38030000D01*
X188552400Y-68560000D02*
X188552400Y-38030000D01*
D12*
X188552400Y-68560000D02*
X191042400Y-68560000D01*
D13*
X191042400Y-35930000D02*
X173142400Y-35930000D01*
X191042400Y-68560000D02*
X191042400Y-35930000D01*
X137073000Y-94005000D02*
X137073000Y-95925000D01*
X137073000Y-95925000D02*
X139758000Y-95925000D01*
X139758000Y-94005000D02*
X137073000Y-94005000D01*
D10*
X55738000Y-60720000D02*
X55738000Y-59720000D01*
X55738000Y-73720000D02*
X55738000Y-72720000D01*
X55738000Y-73720000D02*
X56738000Y-73720000D01*
X56738000Y-59720000D02*
X55738000Y-59720000D01*
X68738000Y-73720000D02*
X69738000Y-73720000D01*
X69738000Y-59720000D02*
X68738000Y-59720000D01*
X69738000Y-59720000D02*
X69738000Y-60720000D01*
X69738000Y-72720000D02*
X69738000Y-73720000D01*
X69738000Y-73720000D02*
X68738000Y-73720000D01*
X55738000Y-42720000D02*
X55738000Y-41720000D01*
X55738000Y-55720000D02*
X55738000Y-54720000D01*
X55738000Y-55720000D02*
X56738000Y-55720000D01*
X56738000Y-41720000D02*
X55738000Y-41720000D01*
X68738000Y-55720000D02*
X69738000Y-55720000D01*
X69738000Y-41720000D02*
X68738000Y-41720000D01*
X69738000Y-41720000D02*
X69738000Y-42720000D01*
X69738000Y-54720000D02*
X69738000Y-55720000D01*
X69738000Y-55720000D02*
X68738000Y-55720000D01*
D13*
X80073000Y-58005000D02*
X80073000Y-59925000D01*
X80073000Y-59925000D02*
X82758000Y-59925000D01*
X82758000Y-58005000D02*
X80073000Y-58005000D01*
D10*
X150470900Y-78970000D02*
X150470900Y-77970000D01*
X150470900Y-91970000D02*
X150470900Y-90970000D01*
X150470900Y-91970000D02*
X151470900Y-91970000D01*
X151470900Y-77970000D02*
X150470900Y-77970000D01*
X163470900Y-91970000D02*
X164470900Y-91970000D01*
X164470900Y-77970000D02*
X163470900Y-77970000D01*
X164470900Y-77970000D02*
X164470900Y-78970000D01*
X164470900Y-90970000D02*
X164470900Y-91970000D01*
X164470900Y-91970000D02*
X163470900Y-91970000D01*
X112738000Y-36720000D02*
X112738000Y-35720000D01*
X112738000Y-49720000D02*
X112738000Y-48720000D01*
X112738000Y-49720000D02*
X113738000Y-49720000D01*
X113738000Y-35720000D02*
X112738000Y-35720000D01*
X125738000Y-49720000D02*
X126738000Y-49720000D01*
X126738000Y-35720000D02*
X125738000Y-35720000D01*
X126738000Y-35720000D02*
X126738000Y-36720000D01*
X126738000Y-48720000D02*
X126738000Y-49720000D01*
X126738000Y-49720000D02*
X125738000Y-49720000D01*
X172810001Y-98264498D02*
X173017913Y-97286350D01*
X170107149Y-110980416D02*
X170315061Y-110002269D01*
X170107149Y-110980416D02*
X171085297Y-111188328D01*
X173996060Y-97494262D02*
X173017913Y-97286350D01*
X182823068Y-113683268D02*
X183801215Y-113891180D01*
X186711979Y-100197114D02*
X185733831Y-99989202D01*
X186711979Y-100197114D02*
X186504067Y-101175261D01*
X184009127Y-112913032D02*
X183801215Y-113891180D01*
X183801215Y-113891180D02*
X182823068Y-113683268D01*
D13*
X155805900Y-61300000D02*
X155805900Y-63220000D01*
X155805900Y-63220000D02*
X158490900Y-63220000D01*
X158490900Y-61300000D02*
X155805900Y-61300000D01*
D10*
X150470900Y-61015000D02*
X150470900Y-60015000D01*
X150470900Y-74015000D02*
X150470900Y-73015000D01*
X150470900Y-74015000D02*
X151470900Y-74015000D01*
X151470900Y-60015000D02*
X150470900Y-60015000D01*
X163470900Y-74015000D02*
X164470900Y-74015000D01*
X164470900Y-60015000D02*
X163470900Y-60015000D01*
X164470900Y-60015000D02*
X164470900Y-61015000D01*
X164470900Y-73015000D02*
X164470900Y-74015000D01*
X164470900Y-74015000D02*
X163470900Y-74015000D01*
X93738000Y-72720000D02*
X93738000Y-71720000D01*
X93738000Y-85720000D02*
X93738000Y-84720000D01*
X93738000Y-85720000D02*
X94738000Y-85720000D01*
X94738000Y-71720000D02*
X93738000Y-71720000D01*
X106738000Y-85720000D02*
X107738000Y-85720000D01*
X107738000Y-71720000D02*
X106738000Y-71720000D01*
X107738000Y-71720000D02*
X107738000Y-72720000D01*
X107738000Y-84720000D02*
X107738000Y-85720000D01*
X107738000Y-85720000D02*
X106738000Y-85720000D01*
D13*
X165168203Y-45676000D02*
X166228203Y-45676000D01*
X165168203Y-46736000D02*
X165168203Y-45676000D01*
X165168203Y-47736000D02*
X165168203Y-49796000D01*
X165168203Y-47736000D02*
X167288203Y-47736000D01*
X165168203Y-49796000D02*
X167288203Y-49796000D01*
X167288203Y-47736000D02*
X167288203Y-49796000D01*
X118073000Y-55005000D02*
X118073000Y-56925000D01*
X118073000Y-56925000D02*
X120758000Y-56925000D01*
X120758000Y-55005000D02*
X118073000Y-55005000D01*
X137073000Y-76005000D02*
X137073000Y-77925000D01*
X137073000Y-77925000D02*
X139758000Y-77925000D01*
X139758000Y-76005000D02*
X137073000Y-76005000D01*
D10*
X131738000Y-57720000D02*
X131738000Y-56720000D01*
X131738000Y-70720000D02*
X131738000Y-69720000D01*
X131738000Y-70720000D02*
X132738000Y-70720000D01*
X132738000Y-56720000D02*
X131738000Y-56720000D01*
X144738000Y-70720000D02*
X145738000Y-70720000D01*
X145738000Y-56720000D02*
X144738000Y-56720000D01*
X145738000Y-56720000D02*
X145738000Y-57720000D01*
X145738000Y-69720000D02*
X145738000Y-70720000D01*
X145738000Y-70720000D02*
X144738000Y-70720000D01*
D13*
X137073000Y-40005000D02*
X137073000Y-41925000D01*
X137073000Y-41925000D02*
X139758000Y-41925000D01*
X139758000Y-40005000D02*
X137073000Y-40005000D01*
D10*
X93738000Y-36720000D02*
X93738000Y-35720000D01*
X93738000Y-49720000D02*
X93738000Y-48720000D01*
X93738000Y-49720000D02*
X94738000Y-49720000D01*
X94738000Y-35720000D02*
X93738000Y-35720000D01*
X106738000Y-49720000D02*
X107738000Y-49720000D01*
X107738000Y-35720000D02*
X106738000Y-35720000D01*
X107738000Y-35720000D02*
X107738000Y-36720000D01*
X107738000Y-48720000D02*
X107738000Y-49720000D01*
X107738000Y-49720000D02*
X106738000Y-49720000D01*
D13*
X99073000Y-73005000D02*
X99073000Y-74925000D01*
X99073000Y-74925000D02*
X101758000Y-74925000D01*
X101758000Y-73005000D02*
X99073000Y-73005000D01*
X118073000Y-91005000D02*
X118073000Y-92925000D01*
X118073000Y-92925000D02*
X120758000Y-92925000D01*
X120758000Y-91005000D02*
X118073000Y-91005000D01*
D10*
X131738000Y-93720000D02*
X131738000Y-92720000D01*
X131738000Y-106720000D02*
X131738000Y-105720000D01*
X131738000Y-106720000D02*
X132738000Y-106720000D01*
X132738000Y-92720000D02*
X131738000Y-92720000D01*
X144738000Y-106720000D02*
X145738000Y-106720000D01*
X145738000Y-92720000D02*
X144738000Y-92720000D01*
X145738000Y-92720000D02*
X145738000Y-93720000D01*
X145738000Y-105720000D02*
X145738000Y-106720000D01*
X145738000Y-106720000D02*
X144738000Y-106720000D01*
X74738000Y-75720000D02*
X74738000Y-74720000D01*
X74738000Y-88720000D02*
X74738000Y-87720000D01*
X74738000Y-88720000D02*
X75738000Y-88720000D01*
X75738000Y-74720000D02*
X74738000Y-74720000D01*
X87738000Y-88720000D02*
X88738000Y-88720000D01*
X88738000Y-74720000D02*
X87738000Y-74720000D01*
X88738000Y-74720000D02*
X88738000Y-75720000D01*
X88738000Y-87720000D02*
X88738000Y-88720000D01*
X88738000Y-88720000D02*
X87738000Y-88720000D01*
X150470900Y-96970000D02*
X150470900Y-95970000D01*
X150470900Y-109970000D02*
X150470900Y-108970000D01*
X150470900Y-109970000D02*
X151470900Y-109970000D01*
X151470900Y-95970000D02*
X150470900Y-95970000D01*
X163470900Y-109970000D02*
X164470900Y-109970000D01*
X164470900Y-95970000D02*
X163470900Y-95970000D01*
X164470900Y-95970000D02*
X164470900Y-96970000D01*
X164470900Y-108970000D02*
X164470900Y-109970000D01*
X164470900Y-109970000D02*
X163470900Y-109970000D01*
D13*
X61073000Y-43005000D02*
X61073000Y-44925000D01*
X61073000Y-44925000D02*
X63758000Y-44925000D01*
X63758000Y-43005000D02*
X61073000Y-43005000D01*
X177936385Y-99645511D02*
X177537194Y-101523554D01*
X177537194Y-101523554D02*
X180163520Y-102081797D01*
X180562711Y-100203754D02*
X177936385Y-99645511D01*
X61073000Y-61005000D02*
X61073000Y-62925000D01*
X61073000Y-62925000D02*
X63758000Y-62925000D01*
X63758000Y-61005000D02*
X61073000Y-61005000D01*
%LPC*%
D15*
X76238000Y-45720000D03*
D16*
X76738000Y-49470000D03*
D17*
X81738000Y-45720000D03*
D16*
X81738000Y-51670000D03*
D18*
X86958000Y-41520000D03*
D15*
X87238000Y-45720000D03*
X114238000Y-96720000D03*
D16*
X114738000Y-100470000D03*
D17*
X119738000Y-96720000D03*
D16*
X119738000Y-102670000D03*
D18*
X124958000Y-92520000D03*
D15*
X125238000Y-96720000D03*
D19*
X167456000Y-58032000D03*
D15*
X95238000Y-96720000D03*
D16*
X95738000Y-100470000D03*
D17*
X100738000Y-96720000D03*
D16*
X100738000Y-102670000D03*
D18*
X105958000Y-92520000D03*
D15*
X106238000Y-96720000D03*
X95238000Y-60720000D03*
D16*
X95738000Y-64470000D03*
D17*
X100738000Y-60720000D03*
D16*
X100738000Y-66670000D03*
D18*
X105958000Y-56520000D03*
D15*
X106238000Y-60720000D03*
D20*
X118820500Y-37965000D03*
X120695500Y-37965000D03*
D15*
X76238000Y-63720000D03*
D16*
X76738000Y-67470000D03*
D17*
X81738000Y-63720000D03*
D16*
X81738000Y-69670000D03*
D18*
X86958000Y-59520000D03*
D15*
X87238000Y-63720000D03*
D20*
X118820500Y-73965000D03*
X120695500Y-73965000D03*
D21*
X187172400Y-72470000D03*
D22*
X184632400Y-72470000D03*
X182092400Y-72470000D03*
X179552400Y-72470000D03*
X177012400Y-72470000D03*
D19*
X166808000Y-93970000D03*
D20*
X99820500Y-37965000D03*
X101695500Y-37965000D03*
X156553400Y-44215000D03*
X158428400Y-44215000D03*
D15*
X151970900Y-48970000D03*
D16*
X152470900Y-52720000D03*
D17*
X157470900Y-48970000D03*
D16*
X157470900Y-54920000D03*
D18*
X162690900Y-44770000D03*
D15*
X162970900Y-48970000D03*
D23*
X187822400Y-79070000D03*
D24*
X187822400Y-89180000D03*
X187822400Y-86640000D03*
X187822400Y-84100000D03*
X187822400Y-81560000D03*
X189047400Y-91570000D03*
X187197400Y-91570000D03*
D19*
X71518000Y-57788000D03*
D20*
X156553400Y-80215000D03*
X158428400Y-80215000D03*
X99820500Y-91865000D03*
X101695500Y-91865000D03*
D15*
X57238000Y-84720000D03*
D16*
X57738000Y-88470000D03*
D17*
X62738000Y-84720000D03*
D16*
X62738000Y-90670000D03*
D18*
X67958000Y-80520000D03*
D15*
X68238000Y-84720000D03*
D20*
X99820500Y-55965000D03*
X101695500Y-55965000D03*
D15*
X114238000Y-60720000D03*
D16*
X114738000Y-64470000D03*
D17*
X119738000Y-60720000D03*
D16*
X119738000Y-66670000D03*
D18*
X124958000Y-56520000D03*
D15*
X125238000Y-60720000D03*
D20*
X80820500Y-76965000D03*
X82695500Y-76965000D03*
D25*
X83058000Y-91440000D03*
X80658000Y-91440000D03*
D20*
X156553400Y-98215000D03*
X158428400Y-98215000D03*
D15*
X133238000Y-81720000D03*
D16*
X133738000Y-85470000D03*
D17*
X138738000Y-81720000D03*
D16*
X138738000Y-87670000D03*
D18*
X143958000Y-77520000D03*
D15*
X144238000Y-81720000D03*
D20*
X61820500Y-79965000D03*
X63695500Y-79965000D03*
D15*
X114238000Y-78720000D03*
D16*
X114738000Y-82470000D03*
D17*
X119738000Y-78720000D03*
D16*
X119738000Y-84670000D03*
D18*
X124958000Y-74520000D03*
D15*
X125238000Y-78720000D03*
X133238000Y-45720000D03*
D16*
X133738000Y-49470000D03*
D17*
X138738000Y-45720000D03*
D16*
X138738000Y-51670000D03*
D18*
X143958000Y-41520000D03*
D15*
X144238000Y-45720000D03*
D20*
X137820500Y-58965000D03*
X139695500Y-58965000D03*
X80820500Y-40965000D03*
X82695500Y-40965000D03*
D26*
X174472400Y-39360000D03*
D27*
X174472400Y-41900000D03*
X174472400Y-44440000D03*
X174472400Y-46980000D03*
X174472400Y-49520000D03*
X174472400Y-52060000D03*
X174472400Y-54600000D03*
X174472400Y-57140000D03*
X174472400Y-59680000D03*
X174472400Y-62220000D03*
X174472400Y-64760000D03*
X174472400Y-67300000D03*
X189712400Y-67300000D03*
X189712400Y-64760000D03*
X189712400Y-62220000D03*
X189712400Y-59680000D03*
X189712400Y-57140000D03*
X189712400Y-54600000D03*
X189712400Y-52060000D03*
X189712400Y-49520000D03*
X189712400Y-46980000D03*
X189712400Y-44440000D03*
X189712400Y-41900000D03*
X189712400Y-39360000D03*
D20*
X137820500Y-94965000D03*
X139695500Y-94965000D03*
D19*
X110610000Y-69716000D03*
D15*
X57238000Y-66720000D03*
D16*
X57738000Y-70470000D03*
D17*
X62738000Y-66720000D03*
D16*
X62738000Y-72670000D03*
D18*
X67958000Y-62520000D03*
D15*
X68238000Y-66720000D03*
X57238000Y-48720000D03*
D16*
X57738000Y-52470000D03*
D17*
X62738000Y-48720000D03*
D16*
X62738000Y-54670000D03*
D18*
X67958000Y-44520000D03*
D15*
X68238000Y-48720000D03*
D20*
X80820500Y-58965000D03*
X82695500Y-58965000D03*
D15*
X151970900Y-84970000D03*
D16*
X152470900Y-88720000D03*
D17*
X157470900Y-84970000D03*
D16*
X157470900Y-90920000D03*
D18*
X162690900Y-80770000D03*
D15*
X162970900Y-84970000D03*
X114238000Y-42720000D03*
D16*
X114738000Y-46470000D03*
D17*
X119738000Y-42720000D03*
D16*
X119738000Y-48670000D03*
D18*
X124958000Y-38520000D03*
D15*
X125238000Y-42720000D03*
X173029752Y-104445251D03*
D16*
X172739157Y-108217260D03*
D17*
X178409564Y-105588765D03*
D16*
X177172489Y-111408743D03*
D18*
X184388724Y-102565844D03*
D15*
X183789376Y-106732279D03*
D20*
X156553400Y-62260000D03*
X158428400Y-62260000D03*
D15*
X151970900Y-67015000D03*
D16*
X152470900Y-70765000D03*
D17*
X157470900Y-67015000D03*
D16*
X157470900Y-72965000D03*
D18*
X162690900Y-62815000D03*
D15*
X162970900Y-67015000D03*
X95238000Y-78720000D03*
D16*
X95738000Y-82470000D03*
D17*
X100738000Y-78720000D03*
D16*
X100738000Y-84670000D03*
D18*
X105958000Y-74520000D03*
D15*
X106238000Y-78720000D03*
D28*
X166228203Y-46736000D03*
D29*
X166228203Y-48736000D03*
D20*
X118820500Y-55965000D03*
X120695500Y-55965000D03*
X137820500Y-76965000D03*
X139695500Y-76965000D03*
D15*
X133238000Y-63720000D03*
D16*
X133738000Y-67470000D03*
D17*
X138738000Y-63720000D03*
D16*
X138738000Y-69670000D03*
D18*
X143958000Y-59520000D03*
D15*
X144238000Y-63720000D03*
D20*
X137820500Y-40965000D03*
X139695500Y-40965000D03*
D15*
X95238000Y-42720000D03*
D16*
X95738000Y-46470000D03*
D17*
X100738000Y-42720000D03*
D16*
X100738000Y-48670000D03*
D18*
X105958000Y-38520000D03*
D15*
X106238000Y-42720000D03*
D19*
X72768000Y-93980000D03*
D20*
X99820500Y-73965000D03*
X101695500Y-73965000D03*
X118820500Y-91965000D03*
X120695500Y-91965000D03*
D15*
X133238000Y-99720000D03*
D16*
X133738000Y-103470000D03*
D17*
X138738000Y-99720000D03*
D16*
X138738000Y-105670000D03*
D18*
X143958000Y-95520000D03*
D15*
X144238000Y-99720000D03*
X76238000Y-81720000D03*
D16*
X76738000Y-85470000D03*
D17*
X81738000Y-81720000D03*
D16*
X81738000Y-87670000D03*
D18*
X86958000Y-77520000D03*
D15*
X87238000Y-81720000D03*
X151970900Y-102970000D03*
D16*
X152470900Y-106720000D03*
D17*
X157470900Y-102970000D03*
D16*
X157470900Y-108920000D03*
D18*
X162690900Y-98770000D03*
D15*
X162970900Y-102970000D03*
D20*
X61820500Y-43965000D03*
X63695500Y-43965000D03*
D30*
X178467955Y-100739947D03*
X180301981Y-101129781D03*
D20*
X61820500Y-61965000D03*
X63695500Y-61965000D03*
D31*
X166939000Y-38300000D03*
X166939000Y-41300000D03*
%LPD*%
M02*
