%TF.GenerationSoftware,KiCad,Pcbnew,7.0.5-0*%
%TF.CreationDate,2023-10-18T13:26:08+10:30*%
%TF.ProjectId,Rolio,526f6c69-6f2e-46b6-9963-61645f706362,rev?*%
%TF.SameCoordinates,Original*%
%TF.FileFunction,Profile,NP*%
%FSLAX46Y46*%
G04 Gerber Fmt 4.6, Leading zero omitted, Abs format (unit mm)*
G04 Created by KiCad (PCBNEW 7.0.5-0) date 2023-10-18 13:26:08*
%MOMM*%
%LPD*%
G01*
G04 APERTURE LIST*
%TA.AperFunction,Profile*%
%ADD10C,0.150000*%
%TD*%
%TA.AperFunction,Profile*%
%ADD11C,0.050000*%
%TD*%
G04 APERTURE END LIST*
D10*
X-4335387Y-6197787D02*
G75*
G03*
X-4935400Y-5597787I-600013J-13D01*
G01*
X51067Y-61213471D02*
G75*
G03*
X-3186122Y-65736935I3560933J-5968429D01*
G01*
X-84689869Y-71187787D02*
X-99028650Y-71187787D01*
X-139969800Y-7285363D02*
X-139969800Y-56250280D01*
X-83527604Y-71280260D02*
G75*
G03*
X-84689869Y-71187787I-1162296J-7258240D01*
G01*
X-139969780Y-56250280D02*
G75*
G03*
X-137907484Y-59063554I2949980J-20D01*
G01*
X-137479725Y-4371437D02*
X-99481104Y1626139D01*
X-3186123Y-65736935D02*
X-6011349Y-79028582D01*
X-17035400Y-6197787D02*
X-17035400Y-35407787D01*
X51067Y-61213471D02*
G75*
G03*
X1489600Y-58680114I-1511467J2533371D01*
G01*
X-4935400Y-36007800D02*
G75*
G03*
X-4335400Y-35407787I0J600000D01*
G01*
X-4935400Y-5597787D02*
X-16435400Y-5597787D01*
X-137479722Y-4371458D02*
G75*
G03*
X-139969800Y-7285363I459822J-2913842D01*
G01*
X-17035387Y-35407787D02*
G75*
G03*
X-16435400Y-36007787I599987J-13D01*
G01*
X-16435400Y-5597800D02*
G75*
G03*
X-17035400Y-6197787I0J-600000D01*
G01*
X-99916330Y-71051049D02*
G75*
G03*
X-99028650Y-71187787I887630J2812649D01*
G01*
X-28456680Y-77437787D02*
X-44843463Y-77437787D01*
X-137907484Y-59063555D02*
X-99916334Y-71051062D01*
X-99021179Y1662210D02*
G75*
G03*
X-99481104Y1626138I79J-2951110D01*
G01*
X-45309948Y-77400666D02*
G75*
G03*
X-44843463Y-77437787I466448J2912066D01*
G01*
X-4335400Y-35407787D02*
X-4335400Y-6197787D01*
X-99021179Y1662213D02*
X-65930170Y1662213D01*
X-9510224Y-81300778D02*
X-26928529Y-77598403D01*
X1489613Y-4287787D02*
G75*
G03*
X-1460400Y-1337787I-2950013J-13D01*
G01*
X1489600Y-58680114D02*
X1489600Y-4287787D01*
X-83527605Y-71280264D02*
X-45309949Y-77400671D01*
X-47261237Y-1247916D02*
G75*
G03*
X-46115322Y-1337787I1145937J7260916D01*
G01*
X-9510221Y-81300764D02*
G75*
G03*
X-6011349Y-79028582I613321J2885564D01*
G01*
X-4935400Y-36007787D02*
X-16435400Y-36007787D01*
X-46115322Y-1337787D02*
X-1460400Y-1337787D01*
X-65470245Y1626141D02*
G75*
G03*
X-65930170Y1662213I-459955J-2914441D01*
G01*
X-65470245Y1626139D02*
X-47261236Y-1247910D01*
X-26928529Y-77598404D02*
G75*
G03*
X-28456680Y-77437787I-1528171J-7189496D01*
G01*
D11*
%TO.C,RE_1*%
X-17923000Y-57514000D02*
X-17923000Y-43914000D01*
X-18223000Y-43614000D02*
X-20323000Y-43614000D01*
X-20323000Y-57814000D02*
X-18223000Y-57814000D01*
X-20623000Y-43914000D02*
X-20623000Y-57514000D01*
X-18223000Y-57814000D02*
G75*
G03*
X-17923000Y-57514000I0J300000D01*
G01*
X-17923000Y-43914000D02*
G75*
G03*
X-18223000Y-43614000I-300000J0D01*
G01*
X-20623000Y-57514000D02*
G75*
G03*
X-20323000Y-57814000I300000J0D01*
G01*
X-20323000Y-43614000D02*
G75*
G03*
X-20623000Y-43914000I0J-300000D01*
G01*
%TD*%
M02*
