G04 #@! TF.GenerationSoftware,KiCad,Pcbnew,7.0.5-0*
G04 #@! TF.CreationDate,2023-09-10T21:21:40+09:30*
G04 #@! TF.ProjectId,Rolio,526f6c69-6f2e-46b6-9963-61645f706362,rev?*
G04 #@! TF.SameCoordinates,Original*
G04 #@! TF.FileFunction,Paste,Bot*
G04 #@! TF.FilePolarity,Positive*
%FSLAX46Y46*%
G04 Gerber Fmt 4.6, Leading zero omitted, Abs format (unit mm)*
G04 Created by KiCad (PCBNEW 7.0.5-0) date 2023-09-10 21:21:40*
%MOMM*%
%LPD*%
G01*
G04 APERTURE LIST*
G04 Aperture macros list*
%AMRoundRect*
0 Rectangle with rounded corners*
0 $1 Rounding radius*
0 $2 $3 $4 $5 $6 $7 $8 $9 X,Y pos of 4 corners*
0 Add a 4 corners polygon primitive as box body*
4,1,4,$2,$3,$4,$5,$6,$7,$8,$9,$2,$3,0*
0 Add four circle primitives for the rounded corners*
1,1,$1+$1,$2,$3*
1,1,$1+$1,$4,$5*
1,1,$1+$1,$6,$7*
1,1,$1+$1,$8,$9*
0 Add four rect primitives between the rounded corners*
20,1,$1+$1,$2,$3,$4,$5,0*
20,1,$1+$1,$4,$5,$6,$7,0*
20,1,$1+$1,$6,$7,$8,$9,0*
20,1,$1+$1,$8,$9,$2,$3,0*%
%AMRotRect*
0 Rectangle, with rotation*
0 The origin of the aperture is its center*
0 $1 length*
0 $2 width*
0 $3 Rotation angle, in degrees counterclockwise*
0 Add horizontal line*
21,1,$1,$2,0,0,$3*%
G04 Aperture macros list end*
%ADD10R,2.600000X2.600000*%
%ADD11RotRect,2.600000X2.600000X348.000000*%
%ADD12RoundRect,0.250000X0.262500X0.450000X-0.262500X0.450000X-0.262500X-0.450000X0.262500X-0.450000X0*%
%ADD13RoundRect,0.225000X-0.375000X0.225000X-0.375000X-0.225000X0.375000X-0.225000X0.375000X0.225000X0*%
%ADD14RoundRect,0.250000X-0.337500X-0.475000X0.337500X-0.475000X0.337500X0.475000X-0.337500X0.475000X0*%
%ADD15RoundRect,0.250000X0.450000X-0.262500X0.450000X0.262500X-0.450000X0.262500X-0.450000X-0.262500X0*%
%ADD16R,0.800000X1.000000*%
%ADD17R,1.500000X0.700000*%
%ADD18R,1.000000X1.250000*%
%ADD19RoundRect,0.225000X-0.225000X-0.375000X0.225000X-0.375000X0.225000X0.375000X-0.225000X0.375000X0*%
%ADD20RoundRect,0.150000X0.150000X-0.587500X0.150000X0.587500X-0.150000X0.587500X-0.150000X-0.587500X0*%
G04 APERTURE END LIST*
D10*
X85013000Y-51670000D03*
X73463000Y-49470000D03*
X123013000Y-102670000D03*
X111463000Y-100470000D03*
X104013000Y-102670000D03*
X92463000Y-100470000D03*
X104013000Y-66670000D03*
X92463000Y-64470000D03*
X85013000Y-69670000D03*
X73463000Y-67470000D03*
X160745900Y-54920000D03*
X149195900Y-52720000D03*
X66013000Y-90670000D03*
X54463000Y-88470000D03*
X123013000Y-66670000D03*
X111463000Y-64470000D03*
X142013000Y-87670000D03*
X130463000Y-85470000D03*
X123013000Y-84670000D03*
X111463000Y-82470000D03*
X142013000Y-51670000D03*
X130463000Y-49470000D03*
X66013000Y-72670000D03*
X54463000Y-70470000D03*
X66013000Y-54670000D03*
X54463000Y-52470000D03*
X160745900Y-90920000D03*
X149195900Y-88720000D03*
X123013000Y-48670000D03*
X111463000Y-46470000D03*
D11*
X180375923Y-112089654D03*
X169535724Y-107536349D03*
D10*
X160745900Y-72965000D03*
X149195900Y-70765000D03*
X104013000Y-84670000D03*
X92463000Y-82470000D03*
X142013000Y-69670000D03*
X130463000Y-67470000D03*
X104013000Y-48670000D03*
X92463000Y-46470000D03*
X142013000Y-105670000D03*
X130463000Y-103470000D03*
X85013000Y-87670000D03*
X73463000Y-85470000D03*
X160745900Y-108920000D03*
X149195900Y-106720000D03*
D12*
X62605190Y-42170000D03*
X60780190Y-42170000D03*
D13*
X75946000Y-75438000D03*
X75946000Y-78738000D03*
D14*
X178308000Y-86529000D03*
X180383000Y-86529000D03*
D13*
X94996000Y-54610000D03*
X94996000Y-57910000D03*
X151638000Y-78740000D03*
X151638000Y-82040000D03*
D12*
X100076000Y-54170000D03*
X98251000Y-54170000D03*
D13*
X151638000Y-42926000D03*
X151638000Y-46226000D03*
D12*
X138580500Y-57404000D03*
X136755500Y-57404000D03*
D13*
X56676400Y-60352500D03*
X56676400Y-63652500D03*
D14*
X178308000Y-83058000D03*
X180383000Y-83058000D03*
D13*
X132842000Y-75438000D03*
X132842000Y-78738000D03*
D15*
X86614000Y-99210500D03*
X86614000Y-97385500D03*
D12*
X179578000Y-99060000D03*
X177753000Y-99060000D03*
D13*
X114808000Y-73026000D03*
X114808000Y-76326000D03*
D12*
X100076000Y-72170000D03*
X98251000Y-72170000D03*
X81909190Y-75170000D03*
X80084190Y-75170000D03*
X62605190Y-60170000D03*
X60780190Y-60170000D03*
D13*
X113792000Y-36450000D03*
X113792000Y-39750000D03*
D12*
X119634000Y-90102000D03*
X117809000Y-90102000D03*
D15*
X84328000Y-99210500D03*
X84328000Y-97385500D03*
D13*
X132842000Y-93476000D03*
X132842000Y-96776000D03*
X113792000Y-90424000D03*
X113792000Y-93724000D03*
X76708000Y-57532000D03*
X76708000Y-60832000D03*
X151638000Y-60960000D03*
X151638000Y-64260000D03*
D16*
X168039000Y-36150000D03*
X165829000Y-36150000D03*
X168039000Y-43450000D03*
X165829000Y-43450000D03*
D17*
X165179000Y-37550000D03*
X165179000Y-40550000D03*
X165179000Y-42050000D03*
D12*
X62605190Y-78170000D03*
X60780190Y-78170000D03*
D13*
X173646946Y-98261944D03*
X173646946Y-101561944D03*
D12*
X100838000Y-36322000D03*
X99013000Y-36322000D03*
D13*
X94742000Y-90424000D03*
X94742000Y-93724000D03*
X94996000Y-36576000D03*
X94996000Y-39876000D03*
D12*
X138580500Y-39370000D03*
X136755500Y-39370000D03*
D18*
X169694000Y-44893000D03*
X169694000Y-52643000D03*
D13*
X132842000Y-39624000D03*
X132842000Y-42924000D03*
X132842000Y-57404000D03*
X132842000Y-60704000D03*
D12*
X119634000Y-54102000D03*
X117809000Y-54102000D03*
D13*
X56676400Y-78352500D03*
X56676400Y-81652500D03*
D12*
X157376500Y-78520000D03*
X155551500Y-78520000D03*
X157376500Y-96520000D03*
X155551500Y-96520000D03*
D13*
X75946000Y-39624000D03*
X75946000Y-42924000D03*
D12*
X81909190Y-39170000D03*
X80084190Y-39170000D03*
D13*
X56676400Y-42352500D03*
X56676400Y-45652500D03*
X113792000Y-54610000D03*
X113792000Y-57910000D03*
D12*
X99956000Y-90170000D03*
X98131000Y-90170000D03*
D19*
X177673000Y-90170000D03*
X180973000Y-90170000D03*
D20*
X86548000Y-95093000D03*
X84648000Y-95093000D03*
X85598000Y-93218000D03*
D12*
X138580500Y-93654000D03*
X136755500Y-93654000D03*
D13*
X151638000Y-96774000D03*
X151638000Y-100074000D03*
D12*
X119634000Y-36322000D03*
X117809000Y-36322000D03*
D13*
X94742000Y-72390000D03*
X94742000Y-75690000D03*
D12*
X119126000Y-72036000D03*
X117301000Y-72036000D03*
X138580500Y-75404000D03*
X136755500Y-75404000D03*
X157273000Y-60565000D03*
X155448000Y-60565000D03*
X157226000Y-42672000D03*
X155401000Y-42672000D03*
X81041190Y-57170000D03*
X79216190Y-57170000D03*
M02*
