%TF.GenerationSoftware,KiCad,Pcbnew,7.0.5-0*%
%TF.CreationDate,2023-10-18T13:26:08+10:30*%
%TF.ProjectId,Rolio,526f6c69-6f2e-46b6-9963-61645f706362,rev?*%
%TF.SameCoordinates,Original*%
%TF.FileFunction,Soldermask,Bot*%
%TF.FilePolarity,Negative*%
%FSLAX46Y46*%
G04 Gerber Fmt 4.6, Leading zero omitted, Abs format (unit mm)*
G04 Created by KiCad (PCBNEW 7.0.5-0) date 2023-10-18 13:26:08*
%MOMM*%
%LPD*%
G01*
G04 APERTURE LIST*
G04 Aperture macros list*
%AMRoundRect*
0 Rectangle with rounded corners*
0 $1 Rounding radius*
0 $2 $3 $4 $5 $6 $7 $8 $9 X,Y pos of 4 corners*
0 Add a 4 corners polygon primitive as box body*
4,1,4,$2,$3,$4,$5,$6,$7,$8,$9,$2,$3,0*
0 Add four circle primitives for the rounded corners*
1,1,$1+$1,$2,$3*
1,1,$1+$1,$4,$5*
1,1,$1+$1,$6,$7*
1,1,$1+$1,$8,$9*
0 Add four rect primitives between the rounded corners*
20,1,$1+$1,$2,$3,$4,$5,0*
20,1,$1+$1,$4,$5,$6,$7,0*
20,1,$1+$1,$6,$7,$8,$9,0*
20,1,$1+$1,$8,$9,$2,$3,0*%
%AMRotRect*
0 Rectangle, with rotation*
0 The origin of the aperture is its center*
0 $1 length*
0 $2 width*
0 $3 Rotation angle, in degrees counterclockwise*
0 Add horizontal line*
21,1,$1,$2,0,0,$3*%
G04 Aperture macros list end*
%ADD10C,1.701800*%
%ADD11C,3.000000*%
%ADD12C,3.429000*%
%ADD13C,0.990600*%
%ADD14R,2.600000X2.600000*%
%ADD15C,4.300000*%
%ADD16R,1.700000X1.700000*%
%ADD17O,1.700000X1.700000*%
%ADD18C,1.500000*%
%ADD19C,1.600000*%
%ADD20R,1.600000X1.600000*%
%ADD21O,1.600000X1.600000*%
%ADD22RotRect,2.600000X2.600000X348.000000*%
%ADD23R,1.350000X1.350000*%
%ADD24O,1.350000X1.350000*%
%ADD25RoundRect,0.250000X0.262500X0.450000X-0.262500X0.450000X-0.262500X-0.450000X0.262500X-0.450000X0*%
%ADD26RoundRect,0.225000X-0.375000X0.225000X-0.375000X-0.225000X0.375000X-0.225000X0.375000X0.225000X0*%
%ADD27RoundRect,0.250000X-0.337500X-0.475000X0.337500X-0.475000X0.337500X0.475000X-0.337500X0.475000X0*%
%ADD28RoundRect,0.250000X0.450000X-0.262500X0.450000X0.262500X-0.450000X0.262500X-0.450000X-0.262500X0*%
%ADD29R,0.800000X1.000000*%
%ADD30C,0.900000*%
%ADD31R,1.500000X0.700000*%
%ADD32R,1.000000X1.250000*%
%ADD33RoundRect,0.225000X-0.225000X-0.375000X0.225000X-0.375000X0.225000X0.375000X-0.225000X0.375000X0*%
%ADD34RoundRect,0.150000X0.150000X-0.587500X0.150000X0.587500X-0.150000X0.587500X-0.150000X-0.587500X0*%
G04 APERTURE END LIST*
D10*
%TO.C,SW_B0*%
X-116582400Y-10754000D03*
D11*
X-116082400Y-14504000D03*
D12*
X-111082400Y-10754000D03*
D11*
X-111082400Y-16704000D03*
D13*
X-105862400Y-6554000D03*
D10*
X-105582400Y-10754000D03*
D14*
X-107807400Y-16704000D03*
X-119357400Y-14504000D03*
%TD*%
D10*
%TO.C,SW_B3*%
X-78582400Y-61754000D03*
D11*
X-78082400Y-65504000D03*
D12*
X-73082400Y-61754000D03*
D11*
X-73082400Y-67704000D03*
D13*
X-67862400Y-57554000D03*
D10*
X-67582400Y-61754000D03*
D14*
X-69807400Y-67704000D03*
X-81357400Y-65504000D03*
%TD*%
D15*
%TO.C,H3*%
X-25364400Y-23066000D03*
%TD*%
D10*
%TO.C,SW_B4*%
X-97582400Y-61754000D03*
D11*
X-97082400Y-65504000D03*
D12*
X-92082400Y-61754000D03*
D11*
X-92082400Y-67704000D03*
D13*
X-86862400Y-57554000D03*
D10*
X-86582400Y-61754000D03*
D14*
X-88807400Y-67704000D03*
X-100357400Y-65504000D03*
%TD*%
D10*
%TO.C,SW_C1*%
X-97582400Y-25754000D03*
D11*
X-97082400Y-29504000D03*
D12*
X-92082400Y-25754000D03*
D11*
X-92082400Y-31704000D03*
D13*
X-86862400Y-21554000D03*
D10*
X-86582400Y-25754000D03*
D14*
X-88807400Y-31704000D03*
X-100357400Y-29504000D03*
%TD*%
D10*
%TO.C,SW_B1*%
X-116582400Y-28754000D03*
D11*
X-116082400Y-32504000D03*
D12*
X-111082400Y-28754000D03*
D11*
X-111082400Y-34704000D03*
D13*
X-105862400Y-24554000D03*
D10*
X-105582400Y-28754000D03*
D14*
X-107807400Y-34704000D03*
X-119357400Y-32504000D03*
%TD*%
D16*
%TO.C,Nice!View1*%
X-5648000Y-38314000D03*
D17*
X-8188000Y-38314000D03*
X-10728000Y-38314000D03*
X-13268000Y-38314000D03*
X-15808000Y-38314000D03*
%TD*%
D15*
%TO.C,H4*%
X-26012400Y-59004000D03*
%TD*%
D10*
%TO.C,SW_F0*%
X-40849500Y-14004000D03*
D11*
X-40349500Y-17754000D03*
D12*
X-35349500Y-14004000D03*
D11*
X-35349500Y-19954000D03*
D13*
X-30129500Y-9804000D03*
D10*
X-29849500Y-14004000D03*
D14*
X-32074500Y-19954000D03*
X-43624500Y-17754000D03*
%TD*%
D18*
%TO.C,RE_1*%
X-4998000Y-44914000D03*
D19*
X-4998000Y-55024000D03*
X-4998000Y-52484000D03*
X-4998000Y-49944000D03*
X-4998000Y-47404000D03*
X-3773000Y-57414000D03*
X-5623000Y-57414000D03*
%TD*%
D15*
%TO.C,H1*%
X-121302400Y-22822000D03*
%TD*%
D10*
%TO.C,SW_A2*%
X-135582400Y-49754000D03*
D11*
X-135082400Y-53504000D03*
D12*
X-130082400Y-49754000D03*
D11*
X-130082400Y-55704000D03*
D13*
X-124862400Y-45554000D03*
D10*
X-124582400Y-49754000D03*
D14*
X-126807400Y-55704000D03*
X-138357400Y-53504000D03*
%TD*%
D10*
%TO.C,SW_D1*%
X-78582400Y-25754000D03*
D11*
X-78082400Y-29504000D03*
D12*
X-73082400Y-25754000D03*
D11*
X-73082400Y-31704000D03*
D13*
X-67862400Y-21554000D03*
D10*
X-67582400Y-25754000D03*
D14*
X-69807400Y-31704000D03*
X-81357400Y-29504000D03*
%TD*%
D10*
%TO.C,SW_E2*%
X-59582400Y-46754000D03*
D11*
X-59082400Y-50504000D03*
D12*
X-54082400Y-46754000D03*
D11*
X-54082400Y-52704000D03*
D13*
X-48862400Y-42554000D03*
D10*
X-48582400Y-46754000D03*
D14*
X-50807400Y-52704000D03*
X-62357400Y-50504000D03*
%TD*%
D10*
%TO.C,SW_D2*%
X-78582400Y-43754000D03*
D11*
X-78082400Y-47504000D03*
D12*
X-73082400Y-43754000D03*
D11*
X-73082400Y-49704000D03*
D13*
X-67862400Y-39554000D03*
D10*
X-67582400Y-43754000D03*
D14*
X-69807400Y-49704000D03*
X-81357400Y-47504000D03*
%TD*%
D10*
%TO.C,SW_E0*%
X-59582400Y-10754000D03*
D11*
X-59082400Y-14504000D03*
D12*
X-54082400Y-10754000D03*
D11*
X-54082400Y-16704000D03*
D13*
X-48862400Y-6554000D03*
D10*
X-48582400Y-10754000D03*
D14*
X-50807400Y-16704000D03*
X-62357400Y-14504000D03*
%TD*%
D20*
%TO.C,NICE_NANO1*%
X-18348000Y-5204000D03*
D21*
X-18348000Y-7744000D03*
X-18348000Y-10284000D03*
X-18348000Y-12824000D03*
X-18348000Y-15364000D03*
X-18348000Y-17904000D03*
X-18348000Y-20444000D03*
X-18348000Y-22984000D03*
X-18348000Y-25524000D03*
X-18348000Y-28064000D03*
X-18348000Y-30604000D03*
X-18348000Y-33144000D03*
X-3108000Y-33144000D03*
X-3108000Y-30604000D03*
X-3108000Y-28064000D03*
X-3108000Y-25524000D03*
X-3108000Y-22984000D03*
X-3108000Y-20444000D03*
X-3108000Y-17904000D03*
X-3108000Y-15364000D03*
X-3108000Y-12824000D03*
X-3108000Y-10284000D03*
X-3108000Y-7744000D03*
X-3108000Y-5204000D03*
%TD*%
D15*
%TO.C,H5*%
X-82210400Y-34750000D03*
%TD*%
D10*
%TO.C,SW_A1*%
X-135582400Y-31754000D03*
D11*
X-135082400Y-35504000D03*
D12*
X-130082400Y-31754000D03*
D11*
X-130082400Y-37704000D03*
D13*
X-124862400Y-27554000D03*
D10*
X-124582400Y-31754000D03*
D14*
X-126807400Y-37704000D03*
X-138357400Y-35504000D03*
%TD*%
D10*
%TO.C,SW_A0*%
X-135582400Y-13754000D03*
D11*
X-135082400Y-17504000D03*
D12*
X-130082400Y-13754000D03*
D11*
X-130082400Y-19704000D03*
D13*
X-124862400Y-9554000D03*
D10*
X-124582400Y-13754000D03*
D14*
X-126807400Y-19704000D03*
X-138357400Y-17504000D03*
%TD*%
D10*
%TO.C,SW_F2*%
X-40849500Y-50004000D03*
D11*
X-40349500Y-53754000D03*
D12*
X-35349500Y-50004000D03*
D11*
X-35349500Y-55954000D03*
D13*
X-30129500Y-45804000D03*
D10*
X-29849500Y-50004000D03*
D14*
X-32074500Y-55954000D03*
X-43624500Y-53754000D03*
%TD*%
D10*
%TO.C,SW_D0*%
X-78582400Y-7754000D03*
D11*
X-78082400Y-11504000D03*
D12*
X-73082400Y-7754000D03*
D11*
X-73082400Y-13704000D03*
D13*
X-67862400Y-3554000D03*
D10*
X-67582400Y-7754000D03*
D14*
X-69807400Y-13704000D03*
X-81357400Y-11504000D03*
%TD*%
D10*
%TO.C,SW_E3*%
X-19790648Y-69479251D03*
D11*
X-20081243Y-73251260D03*
D12*
X-14410836Y-70622765D03*
D11*
X-15647911Y-76442743D03*
D13*
X-8431676Y-67599844D03*
D10*
X-9031024Y-71766279D03*
D22*
X-12444477Y-77123654D03*
X-23284676Y-72570349D03*
%TD*%
D10*
%TO.C,SW_F1*%
X-40849500Y-32049000D03*
D11*
X-40349500Y-35799000D03*
D12*
X-35349500Y-32049000D03*
D11*
X-35349500Y-37999000D03*
D13*
X-30129500Y-27849000D03*
D10*
X-29849500Y-32049000D03*
D14*
X-32074500Y-37999000D03*
X-43624500Y-35799000D03*
%TD*%
D10*
%TO.C,SW_C2*%
X-97582400Y-43754000D03*
D11*
X-97082400Y-47504000D03*
D12*
X-92082400Y-43754000D03*
D11*
X-92082400Y-49704000D03*
D13*
X-86862400Y-39554000D03*
D10*
X-86582400Y-43754000D03*
D14*
X-88807400Y-49704000D03*
X-100357400Y-47504000D03*
%TD*%
D23*
%TO.C,BATT1*%
X-26592197Y-12580000D03*
D24*
X-26592197Y-14580000D03*
%TD*%
D10*
%TO.C,SW_E1*%
X-59582400Y-28754000D03*
D11*
X-59082400Y-32504000D03*
D12*
X-54082400Y-28754000D03*
D11*
X-54082400Y-34704000D03*
D13*
X-48862400Y-24554000D03*
D10*
X-48582400Y-28754000D03*
D14*
X-50807400Y-34704000D03*
X-62357400Y-32504000D03*
%TD*%
D10*
%TO.C,SW_C0*%
X-97582400Y-7754000D03*
D11*
X-97082400Y-11504000D03*
D12*
X-92082400Y-7754000D03*
D11*
X-92082400Y-13704000D03*
D13*
X-86862400Y-3554000D03*
D10*
X-86582400Y-7754000D03*
D14*
X-88807400Y-13704000D03*
X-100357400Y-11504000D03*
%TD*%
D15*
%TO.C,H2*%
X-120052400Y-59014000D03*
%TD*%
D10*
%TO.C,SW_C3*%
X-59582400Y-64754000D03*
D11*
X-59082400Y-68504000D03*
D12*
X-54082400Y-64754000D03*
D11*
X-54082400Y-70704000D03*
D13*
X-48862400Y-60554000D03*
D10*
X-48582400Y-64754000D03*
D14*
X-50807400Y-70704000D03*
X-62357400Y-68504000D03*
%TD*%
D10*
%TO.C,SW_B2*%
X-116582400Y-46754000D03*
D11*
X-116082400Y-50504000D03*
D12*
X-111082400Y-46754000D03*
D11*
X-111082400Y-52704000D03*
D13*
X-105862400Y-42554000D03*
D10*
X-105582400Y-46754000D03*
D14*
X-107807400Y-52704000D03*
X-119357400Y-50504000D03*
%TD*%
D10*
%TO.C,SW_F3*%
X-40849500Y-68004000D03*
D11*
X-40349500Y-71754000D03*
D12*
X-35349500Y-68004000D03*
D11*
X-35349500Y-73954000D03*
D13*
X-30129500Y-63804000D03*
D10*
X-29849500Y-68004000D03*
D14*
X-32074500Y-73954000D03*
X-43624500Y-71754000D03*
%TD*%
D25*
%TO.C,R8*%
X-130215210Y-7204000D03*
X-132040210Y-7204000D03*
%TD*%
D26*
%TO.C,D17*%
X-116874400Y-40472000D03*
X-116874400Y-43772000D03*
%TD*%
D27*
%TO.C,C1*%
X-14512400Y-52373000D03*
X-12437400Y-52373000D03*
%TD*%
D26*
%TO.C,D10*%
X-97824400Y-19644000D03*
X-97824400Y-22944000D03*
%TD*%
%TO.C,D13*%
X-41182400Y-43774000D03*
X-41182400Y-47074000D03*
%TD*%
D25*
%TO.C,R12*%
X-92744400Y-19204000D03*
X-94569400Y-19204000D03*
%TD*%
D26*
%TO.C,D1*%
X-41182400Y-7960000D03*
X-41182400Y-11260000D03*
%TD*%
D25*
%TO.C,R10*%
X-54239900Y-22438000D03*
X-56064900Y-22438000D03*
%TD*%
D26*
%TO.C,D12*%
X-136144000Y-25386500D03*
X-136144000Y-28686500D03*
%TD*%
D27*
%TO.C,C2*%
X-14512400Y-48902000D03*
X-12437400Y-48902000D03*
%TD*%
D26*
%TO.C,D14*%
X-59978400Y-40472000D03*
X-59978400Y-43772000D03*
%TD*%
D28*
%TO.C,R2*%
X-106206400Y-64244500D03*
X-106206400Y-62419500D03*
%TD*%
D25*
%TO.C,R21*%
X-13242400Y-64094000D03*
X-15067400Y-64094000D03*
%TD*%
D26*
%TO.C,D15*%
X-78012400Y-38060000D03*
X-78012400Y-41360000D03*
%TD*%
D25*
%TO.C,R18*%
X-92744400Y-37204000D03*
X-94569400Y-37204000D03*
%TD*%
%TO.C,R19*%
X-110911210Y-40204000D03*
X-112736210Y-40204000D03*
%TD*%
%TO.C,R14*%
X-130215210Y-25204000D03*
X-132040210Y-25204000D03*
%TD*%
D26*
%TO.C,D3*%
X-79028400Y-1484000D03*
X-79028400Y-4784000D03*
%TD*%
D25*
%TO.C,R24*%
X-73186400Y-55136000D03*
X-75011400Y-55136000D03*
%TD*%
D28*
%TO.C,R1*%
X-108492400Y-64244500D03*
X-108492400Y-62419500D03*
%TD*%
D26*
%TO.C,D22*%
X-59978400Y-58510000D03*
X-59978400Y-61810000D03*
%TD*%
%TO.C,D23*%
X-79028400Y-55458000D03*
X-79028400Y-58758000D03*
%TD*%
%TO.C,D11*%
X-116112400Y-22566000D03*
X-116112400Y-25866000D03*
%TD*%
%TO.C,D7*%
X-41182400Y-25994000D03*
X-41182400Y-29294000D03*
%TD*%
D29*
%TO.C,SW4*%
X-24781400Y-2044000D03*
X-26991400Y-2044000D03*
D30*
X-25881400Y-4194000D03*
X-25881400Y-7194000D03*
D29*
X-24781400Y-9344000D03*
X-26991400Y-9344000D03*
D31*
X-27641400Y-3444000D03*
X-27641400Y-6444000D03*
X-27641400Y-7944000D03*
%TD*%
D25*
%TO.C,R20*%
X-130215210Y-43204000D03*
X-132040210Y-43204000D03*
%TD*%
D26*
%TO.C,D20*%
X-19173454Y-63295944D03*
X-19173454Y-66595944D03*
%TD*%
D25*
%TO.C,R6*%
X-91982400Y-1356000D03*
X-93807400Y-1356000D03*
%TD*%
D26*
%TO.C,D29*%
X-98078400Y-55458000D03*
X-98078400Y-58758000D03*
%TD*%
%TO.C,D4*%
X-97824400Y-1610000D03*
X-97824400Y-4910000D03*
%TD*%
D25*
%TO.C,R4*%
X-54239900Y-4404000D03*
X-56064900Y-4404000D03*
%TD*%
D32*
%TO.C,RESET1*%
X-23126400Y-10737000D03*
X-23126400Y-18487000D03*
%TD*%
D26*
%TO.C,D2*%
X-59978400Y-4658000D03*
X-59978400Y-7958000D03*
%TD*%
%TO.C,D8*%
X-59978400Y-22438000D03*
X-59978400Y-25738000D03*
%TD*%
D25*
%TO.C,R11*%
X-73186400Y-19136000D03*
X-75011400Y-19136000D03*
%TD*%
D26*
%TO.C,D18*%
X-136144000Y-43386500D03*
X-136144000Y-46686500D03*
%TD*%
D25*
%TO.C,R15*%
X-35443900Y-43554000D03*
X-37268900Y-43554000D03*
%TD*%
%TO.C,R22*%
X-35443900Y-61554000D03*
X-37268900Y-61554000D03*
%TD*%
D26*
%TO.C,D5*%
X-116874400Y-4658000D03*
X-116874400Y-7958000D03*
%TD*%
D25*
%TO.C,R7*%
X-110911210Y-4204000D03*
X-112736210Y-4204000D03*
%TD*%
D26*
%TO.C,D6*%
X-136144000Y-7386500D03*
X-136144000Y-10686500D03*
%TD*%
%TO.C,D9*%
X-79028400Y-19644000D03*
X-79028400Y-22944000D03*
%TD*%
D25*
%TO.C,R25*%
X-92864400Y-55204000D03*
X-94689400Y-55204000D03*
%TD*%
D33*
%TO.C,D19*%
X-15147400Y-56014000D03*
X-11847400Y-56014000D03*
%TD*%
D34*
%TO.C,Q1*%
X-106272400Y-60127000D03*
X-108172400Y-60127000D03*
X-107222400Y-58252000D03*
%TD*%
D25*
%TO.C,R23*%
X-54239900Y-58688000D03*
X-56064900Y-58688000D03*
%TD*%
D26*
%TO.C,D21*%
X-41182400Y-61808000D03*
X-41182400Y-65108000D03*
%TD*%
D25*
%TO.C,R5*%
X-73186400Y-1356000D03*
X-75011400Y-1356000D03*
%TD*%
D26*
%TO.C,D16*%
X-98078400Y-37424000D03*
X-98078400Y-40724000D03*
%TD*%
D25*
%TO.C,R17*%
X-73694400Y-37070000D03*
X-75519400Y-37070000D03*
%TD*%
%TO.C,R16*%
X-54239900Y-40438000D03*
X-56064900Y-40438000D03*
%TD*%
%TO.C,R9*%
X-35547400Y-25599000D03*
X-37372400Y-25599000D03*
%TD*%
%TO.C,R3*%
X-35594400Y-7706000D03*
X-37419400Y-7706000D03*
%TD*%
%TO.C,R13*%
X-111779210Y-22204000D03*
X-113604210Y-22204000D03*
%TD*%
M02*
