%TF.GenerationSoftware,KiCad,Pcbnew,7.0.5-0*%
%TF.CreationDate,2023-10-18T13:26:08+10:30*%
%TF.ProjectId,Rolio,526f6c69-6f2e-46b6-9963-61645f706362,rev?*%
%TF.SameCoordinates,Original*%
%TF.FileFunction,Paste,Bot*%
%TF.FilePolarity,Positive*%
%FSLAX46Y46*%
G04 Gerber Fmt 4.6, Leading zero omitted, Abs format (unit mm)*
G04 Created by KiCad (PCBNEW 7.0.5-0) date 2023-10-18 13:26:08*
%MOMM*%
%LPD*%
G01*
G04 APERTURE LIST*
G04 Aperture macros list*
%AMRoundRect*
0 Rectangle with rounded corners*
0 $1 Rounding radius*
0 $2 $3 $4 $5 $6 $7 $8 $9 X,Y pos of 4 corners*
0 Add a 4 corners polygon primitive as box body*
4,1,4,$2,$3,$4,$5,$6,$7,$8,$9,$2,$3,0*
0 Add four circle primitives for the rounded corners*
1,1,$1+$1,$2,$3*
1,1,$1+$1,$4,$5*
1,1,$1+$1,$6,$7*
1,1,$1+$1,$8,$9*
0 Add four rect primitives between the rounded corners*
20,1,$1+$1,$2,$3,$4,$5,0*
20,1,$1+$1,$4,$5,$6,$7,0*
20,1,$1+$1,$6,$7,$8,$9,0*
20,1,$1+$1,$8,$9,$2,$3,0*%
%AMRotRect*
0 Rectangle, with rotation*
0 The origin of the aperture is its center*
0 $1 length*
0 $2 width*
0 $3 Rotation angle, in degrees counterclockwise*
0 Add horizontal line*
21,1,$1,$2,0,0,$3*%
G04 Aperture macros list end*
%ADD10R,2.600000X2.600000*%
%ADD11RotRect,2.600000X2.600000X348.000000*%
%ADD12RoundRect,0.250000X0.262500X0.450000X-0.262500X0.450000X-0.262500X-0.450000X0.262500X-0.450000X0*%
%ADD13RoundRect,0.225000X-0.375000X0.225000X-0.375000X-0.225000X0.375000X-0.225000X0.375000X0.225000X0*%
%ADD14RoundRect,0.250000X-0.337500X-0.475000X0.337500X-0.475000X0.337500X0.475000X-0.337500X0.475000X0*%
%ADD15RoundRect,0.250000X0.450000X-0.262500X0.450000X0.262500X-0.450000X0.262500X-0.450000X-0.262500X0*%
%ADD16R,0.800000X1.000000*%
%ADD17R,1.500000X0.700000*%
%ADD18R,1.000000X1.250000*%
%ADD19RoundRect,0.225000X-0.225000X-0.375000X0.225000X-0.375000X0.225000X0.375000X-0.225000X0.375000X0*%
%ADD20RoundRect,0.150000X0.150000X-0.587500X0.150000X0.587500X-0.150000X0.587500X-0.150000X-0.587500X0*%
G04 APERTURE END LIST*
D10*
%TO.C,SW_B0*%
X-107807400Y-16704000D03*
X-119357400Y-14504000D03*
%TD*%
%TO.C,SW_B3*%
X-69807400Y-67704000D03*
X-81357400Y-65504000D03*
%TD*%
%TO.C,SW_B4*%
X-88807400Y-67704000D03*
X-100357400Y-65504000D03*
%TD*%
%TO.C,SW_C1*%
X-88807400Y-31704000D03*
X-100357400Y-29504000D03*
%TD*%
%TO.C,SW_B1*%
X-107807400Y-34704000D03*
X-119357400Y-32504000D03*
%TD*%
%TO.C,SW_F0*%
X-32074500Y-19954000D03*
X-43624500Y-17754000D03*
%TD*%
%TO.C,SW_A2*%
X-126807400Y-55704000D03*
X-138357400Y-53504000D03*
%TD*%
%TO.C,SW_D1*%
X-69807400Y-31704000D03*
X-81357400Y-29504000D03*
%TD*%
%TO.C,SW_E2*%
X-50807400Y-52704000D03*
X-62357400Y-50504000D03*
%TD*%
%TO.C,SW_D2*%
X-69807400Y-49704000D03*
X-81357400Y-47504000D03*
%TD*%
%TO.C,SW_E0*%
X-50807400Y-16704000D03*
X-62357400Y-14504000D03*
%TD*%
%TO.C,SW_A1*%
X-126807400Y-37704000D03*
X-138357400Y-35504000D03*
%TD*%
%TO.C,SW_A0*%
X-126807400Y-19704000D03*
X-138357400Y-17504000D03*
%TD*%
%TO.C,SW_F2*%
X-32074500Y-55954000D03*
X-43624500Y-53754000D03*
%TD*%
%TO.C,SW_D0*%
X-69807400Y-13704000D03*
X-81357400Y-11504000D03*
%TD*%
D11*
%TO.C,SW_E3*%
X-12444477Y-77123654D03*
X-23284676Y-72570349D03*
%TD*%
D10*
%TO.C,SW_F1*%
X-32074500Y-37999000D03*
X-43624500Y-35799000D03*
%TD*%
%TO.C,SW_C2*%
X-88807400Y-49704000D03*
X-100357400Y-47504000D03*
%TD*%
%TO.C,SW_E1*%
X-50807400Y-34704000D03*
X-62357400Y-32504000D03*
%TD*%
%TO.C,SW_C0*%
X-88807400Y-13704000D03*
X-100357400Y-11504000D03*
%TD*%
%TO.C,SW_C3*%
X-50807400Y-70704000D03*
X-62357400Y-68504000D03*
%TD*%
%TO.C,SW_B2*%
X-107807400Y-52704000D03*
X-119357400Y-50504000D03*
%TD*%
%TO.C,SW_F3*%
X-32074500Y-73954000D03*
X-43624500Y-71754000D03*
%TD*%
D12*
%TO.C,R8*%
X-130215210Y-7204000D03*
X-132040210Y-7204000D03*
%TD*%
D13*
%TO.C,D17*%
X-116874400Y-40472000D03*
X-116874400Y-43772000D03*
%TD*%
D14*
%TO.C,C1*%
X-14512400Y-52373000D03*
X-12437400Y-52373000D03*
%TD*%
D13*
%TO.C,D10*%
X-97824400Y-19644000D03*
X-97824400Y-22944000D03*
%TD*%
%TO.C,D13*%
X-41182400Y-43774000D03*
X-41182400Y-47074000D03*
%TD*%
D12*
%TO.C,R12*%
X-92744400Y-19204000D03*
X-94569400Y-19204000D03*
%TD*%
D13*
%TO.C,D1*%
X-41182400Y-7960000D03*
X-41182400Y-11260000D03*
%TD*%
D12*
%TO.C,R10*%
X-54239900Y-22438000D03*
X-56064900Y-22438000D03*
%TD*%
D13*
%TO.C,D12*%
X-136144000Y-25386500D03*
X-136144000Y-28686500D03*
%TD*%
D14*
%TO.C,C2*%
X-14512400Y-48902000D03*
X-12437400Y-48902000D03*
%TD*%
D13*
%TO.C,D14*%
X-59978400Y-40472000D03*
X-59978400Y-43772000D03*
%TD*%
D15*
%TO.C,R2*%
X-106206400Y-64244500D03*
X-106206400Y-62419500D03*
%TD*%
D12*
%TO.C,R21*%
X-13242400Y-64094000D03*
X-15067400Y-64094000D03*
%TD*%
D13*
%TO.C,D15*%
X-78012400Y-38060000D03*
X-78012400Y-41360000D03*
%TD*%
D12*
%TO.C,R18*%
X-92744400Y-37204000D03*
X-94569400Y-37204000D03*
%TD*%
%TO.C,R19*%
X-110911210Y-40204000D03*
X-112736210Y-40204000D03*
%TD*%
%TO.C,R14*%
X-130215210Y-25204000D03*
X-132040210Y-25204000D03*
%TD*%
D13*
%TO.C,D3*%
X-79028400Y-1484000D03*
X-79028400Y-4784000D03*
%TD*%
D12*
%TO.C,R24*%
X-73186400Y-55136000D03*
X-75011400Y-55136000D03*
%TD*%
D15*
%TO.C,R1*%
X-108492400Y-64244500D03*
X-108492400Y-62419500D03*
%TD*%
D13*
%TO.C,D22*%
X-59978400Y-58510000D03*
X-59978400Y-61810000D03*
%TD*%
%TO.C,D23*%
X-79028400Y-55458000D03*
X-79028400Y-58758000D03*
%TD*%
%TO.C,D11*%
X-116112400Y-22566000D03*
X-116112400Y-25866000D03*
%TD*%
%TO.C,D7*%
X-41182400Y-25994000D03*
X-41182400Y-29294000D03*
%TD*%
D16*
%TO.C,SW4*%
X-24781400Y-2044000D03*
X-26991400Y-2044000D03*
X-24781400Y-9344000D03*
X-26991400Y-9344000D03*
D17*
X-27641400Y-3444000D03*
X-27641400Y-6444000D03*
X-27641400Y-7944000D03*
%TD*%
D12*
%TO.C,R20*%
X-130215210Y-43204000D03*
X-132040210Y-43204000D03*
%TD*%
D13*
%TO.C,D20*%
X-19173454Y-63295944D03*
X-19173454Y-66595944D03*
%TD*%
D12*
%TO.C,R6*%
X-91982400Y-1356000D03*
X-93807400Y-1356000D03*
%TD*%
D13*
%TO.C,D29*%
X-98078400Y-55458000D03*
X-98078400Y-58758000D03*
%TD*%
%TO.C,D4*%
X-97824400Y-1610000D03*
X-97824400Y-4910000D03*
%TD*%
D12*
%TO.C,R4*%
X-54239900Y-4404000D03*
X-56064900Y-4404000D03*
%TD*%
D18*
%TO.C,RESET1*%
X-23126400Y-10737000D03*
X-23126400Y-18487000D03*
%TD*%
D13*
%TO.C,D2*%
X-59978400Y-4658000D03*
X-59978400Y-7958000D03*
%TD*%
%TO.C,D8*%
X-59978400Y-22438000D03*
X-59978400Y-25738000D03*
%TD*%
D12*
%TO.C,R11*%
X-73186400Y-19136000D03*
X-75011400Y-19136000D03*
%TD*%
D13*
%TO.C,D18*%
X-136144000Y-43386500D03*
X-136144000Y-46686500D03*
%TD*%
D12*
%TO.C,R15*%
X-35443900Y-43554000D03*
X-37268900Y-43554000D03*
%TD*%
%TO.C,R22*%
X-35443900Y-61554000D03*
X-37268900Y-61554000D03*
%TD*%
D13*
%TO.C,D5*%
X-116874400Y-4658000D03*
X-116874400Y-7958000D03*
%TD*%
D12*
%TO.C,R7*%
X-110911210Y-4204000D03*
X-112736210Y-4204000D03*
%TD*%
D13*
%TO.C,D6*%
X-136144000Y-7386500D03*
X-136144000Y-10686500D03*
%TD*%
%TO.C,D9*%
X-79028400Y-19644000D03*
X-79028400Y-22944000D03*
%TD*%
D12*
%TO.C,R25*%
X-92864400Y-55204000D03*
X-94689400Y-55204000D03*
%TD*%
D19*
%TO.C,D19*%
X-15147400Y-56014000D03*
X-11847400Y-56014000D03*
%TD*%
D20*
%TO.C,Q1*%
X-106272400Y-60127000D03*
X-108172400Y-60127000D03*
X-107222400Y-58252000D03*
%TD*%
D12*
%TO.C,R23*%
X-54239900Y-58688000D03*
X-56064900Y-58688000D03*
%TD*%
D13*
%TO.C,D21*%
X-41182400Y-61808000D03*
X-41182400Y-65108000D03*
%TD*%
D12*
%TO.C,R5*%
X-73186400Y-1356000D03*
X-75011400Y-1356000D03*
%TD*%
D13*
%TO.C,D16*%
X-98078400Y-37424000D03*
X-98078400Y-40724000D03*
%TD*%
D12*
%TO.C,R17*%
X-73694400Y-37070000D03*
X-75519400Y-37070000D03*
%TD*%
%TO.C,R16*%
X-54239900Y-40438000D03*
X-56064900Y-40438000D03*
%TD*%
%TO.C,R9*%
X-35547400Y-25599000D03*
X-37372400Y-25599000D03*
%TD*%
%TO.C,R3*%
X-35594400Y-7706000D03*
X-37419400Y-7706000D03*
%TD*%
%TO.C,R13*%
X-111779210Y-22204000D03*
X-113604210Y-22204000D03*
%TD*%
M02*
