%TF.GenerationSoftware,KiCad,Pcbnew,7.0.5-0*%
%TF.CreationDate,2023-10-18T13:26:08+10:30*%
%TF.ProjectId,Rolio,526f6c69-6f2e-46b6-9963-61645f706362,rev?*%
%TF.SameCoordinates,Original*%
%TF.FileFunction,Soldermask,Top*%
%TF.FilePolarity,Negative*%
%FSLAX46Y46*%
G04 Gerber Fmt 4.6, Leading zero omitted, Abs format (unit mm)*
G04 Created by KiCad (PCBNEW 7.0.5-0) date 2023-10-18 13:26:08*
%MOMM*%
%LPD*%
G01*
G04 APERTURE LIST*
G04 Aperture macros list*
%AMRoundRect*
0 Rectangle with rounded corners*
0 $1 Rounding radius*
0 $2 $3 $4 $5 $6 $7 $8 $9 X,Y pos of 4 corners*
0 Add a 4 corners polygon primitive as box body*
4,1,4,$2,$3,$4,$5,$6,$7,$8,$9,$2,$3,0*
0 Add four circle primitives for the rounded corners*
1,1,$1+$1,$2,$3*
1,1,$1+$1,$4,$5*
1,1,$1+$1,$6,$7*
1,1,$1+$1,$8,$9*
0 Add four rect primitives between the rounded corners*
20,1,$1+$1,$2,$3,$4,$5,0*
20,1,$1+$1,$4,$5,$6,$7,0*
20,1,$1+$1,$6,$7,$8,$9,0*
20,1,$1+$1,$8,$9,$2,$3,0*%
G04 Aperture macros list end*
%ADD10C,1.701800*%
%ADD11C,3.000000*%
%ADD12C,3.429000*%
%ADD13C,0.990600*%
%ADD14C,4.300000*%
%ADD15RoundRect,0.243750X-0.243750X-0.456250X0.243750X-0.456250X0.243750X0.456250X-0.243750X0.456250X0*%
%ADD16R,1.700000X1.700000*%
%ADD17O,1.700000X1.700000*%
%ADD18C,1.500000*%
%ADD19C,1.600000*%
%ADD20RoundRect,0.250000X0.325000X0.450000X-0.325000X0.450000X-0.325000X-0.450000X0.325000X-0.450000X0*%
%ADD21R,1.600000X1.600000*%
%ADD22O,1.600000X1.600000*%
%ADD23R,1.350000X1.350000*%
%ADD24O,1.350000X1.350000*%
%ADD25RoundRect,0.243750X-0.333283X-0.395601X0.143564X-0.496958X0.333283X0.395601X-0.143564X0.496958X0*%
%ADD26C,0.900000*%
G04 APERTURE END LIST*
D10*
%TO.C,SW_B0*%
X-116582400Y-10754000D03*
D11*
X-116082400Y-14504000D03*
D12*
X-111082400Y-10754000D03*
D11*
X-111082400Y-16704000D03*
D13*
X-105862400Y-6554000D03*
D10*
X-105582400Y-10754000D03*
%TD*%
%TO.C,SW_B3*%
X-78582400Y-61754000D03*
D11*
X-78082400Y-65504000D03*
D12*
X-73082400Y-61754000D03*
D11*
X-73082400Y-67704000D03*
D13*
X-67862400Y-57554000D03*
D10*
X-67582400Y-61754000D03*
%TD*%
D14*
%TO.C,H3*%
X-25364400Y-23066000D03*
%TD*%
D10*
%TO.C,SW_B4*%
X-97582400Y-61754000D03*
D11*
X-97082400Y-65504000D03*
D12*
X-92082400Y-61754000D03*
D11*
X-92082400Y-67704000D03*
D13*
X-86862400Y-57554000D03*
D10*
X-86582400Y-61754000D03*
%TD*%
%TO.C,SW_C1*%
X-97582400Y-25754000D03*
D11*
X-97082400Y-29504000D03*
D12*
X-92082400Y-25754000D03*
D11*
X-92082400Y-31704000D03*
D13*
X-86862400Y-21554000D03*
D10*
X-86582400Y-25754000D03*
%TD*%
D15*
%TO.C,LED3*%
X-73999900Y-2999000D03*
X-72124900Y-2999000D03*
%TD*%
D10*
%TO.C,SW_B1*%
X-116582400Y-28754000D03*
D11*
X-116082400Y-32504000D03*
D12*
X-111082400Y-28754000D03*
D11*
X-111082400Y-34704000D03*
D13*
X-105862400Y-24554000D03*
D10*
X-105582400Y-28754000D03*
%TD*%
D15*
%TO.C,LED15*%
X-73999900Y-38999000D03*
X-72124900Y-38999000D03*
%TD*%
D16*
%TO.C,Nice!View1*%
X-5648000Y-38314000D03*
D17*
X-8188000Y-38314000D03*
X-10728000Y-38314000D03*
X-13268000Y-38314000D03*
X-15808000Y-38314000D03*
%TD*%
D14*
%TO.C,H4*%
X-26012400Y-59004000D03*
%TD*%
D15*
%TO.C,LED4*%
X-92999900Y-2999000D03*
X-91124900Y-2999000D03*
%TD*%
%TO.C,LED1*%
X-36267000Y-9249000D03*
X-34392000Y-9249000D03*
%TD*%
D10*
%TO.C,SW_F0*%
X-40849500Y-14004000D03*
D11*
X-40349500Y-17754000D03*
D12*
X-35349500Y-14004000D03*
D11*
X-35349500Y-19954000D03*
D13*
X-30129500Y-9804000D03*
D10*
X-29849500Y-14004000D03*
%TD*%
D18*
%TO.C,RE_1*%
X-4998000Y-44914000D03*
D19*
X-4998000Y-55024000D03*
X-4998000Y-52484000D03*
X-4998000Y-49944000D03*
X-4998000Y-47404000D03*
X-3773000Y-57414000D03*
X-5623000Y-57414000D03*
%TD*%
D14*
%TO.C,H1*%
X-121302400Y-22822000D03*
%TD*%
D15*
%TO.C,LED13*%
X-36267000Y-45249000D03*
X-34392000Y-45249000D03*
%TD*%
%TO.C,LED23*%
X-92999900Y-56899000D03*
X-91124900Y-56899000D03*
%TD*%
D10*
%TO.C,SW_A2*%
X-135582400Y-49754000D03*
D11*
X-135082400Y-53504000D03*
D12*
X-130082400Y-49754000D03*
D11*
X-130082400Y-55704000D03*
D13*
X-124862400Y-45554000D03*
D10*
X-124582400Y-49754000D03*
%TD*%
D15*
%TO.C,LED10*%
X-92999900Y-20999000D03*
X-91124900Y-20999000D03*
%TD*%
D10*
%TO.C,SW_D1*%
X-78582400Y-25754000D03*
D11*
X-78082400Y-29504000D03*
D12*
X-73082400Y-25754000D03*
D11*
X-73082400Y-31704000D03*
D13*
X-67862400Y-21554000D03*
D10*
X-67582400Y-25754000D03*
%TD*%
D15*
%TO.C,LED17*%
X-111999900Y-41999000D03*
X-110124900Y-41999000D03*
%TD*%
D20*
%TO.C,TP1*%
X-109762400Y-56474000D03*
X-112162400Y-56474000D03*
%TD*%
D15*
%TO.C,LED20*%
X-36267000Y-63249000D03*
X-34392000Y-63249000D03*
%TD*%
D10*
%TO.C,SW_E2*%
X-59582400Y-46754000D03*
D11*
X-59082400Y-50504000D03*
D12*
X-54082400Y-46754000D03*
D11*
X-54082400Y-52704000D03*
D13*
X-48862400Y-42554000D03*
D10*
X-48582400Y-46754000D03*
%TD*%
D15*
%TO.C,LED18*%
X-130999900Y-44999000D03*
X-129124900Y-44999000D03*
%TD*%
D10*
%TO.C,SW_D2*%
X-78582400Y-43754000D03*
D11*
X-78082400Y-47504000D03*
D12*
X-73082400Y-43754000D03*
D11*
X-73082400Y-49704000D03*
D13*
X-67862400Y-39554000D03*
D10*
X-67582400Y-43754000D03*
%TD*%
%TO.C,SW_E0*%
X-59582400Y-10754000D03*
D11*
X-59082400Y-14504000D03*
D12*
X-54082400Y-10754000D03*
D11*
X-54082400Y-16704000D03*
D13*
X-48862400Y-6554000D03*
D10*
X-48582400Y-10754000D03*
%TD*%
D15*
%TO.C,LED8*%
X-54999900Y-23999000D03*
X-53124900Y-23999000D03*
%TD*%
%TO.C,LED5*%
X-111999900Y-5999000D03*
X-110124900Y-5999000D03*
%TD*%
D21*
%TO.C,NICE_NANO1*%
X-18348000Y-5204000D03*
D22*
X-18348000Y-7744000D03*
X-18348000Y-10284000D03*
X-18348000Y-12824000D03*
X-18348000Y-15364000D03*
X-18348000Y-17904000D03*
X-18348000Y-20444000D03*
X-18348000Y-22984000D03*
X-18348000Y-25524000D03*
X-18348000Y-28064000D03*
X-18348000Y-30604000D03*
X-18348000Y-33144000D03*
X-3108000Y-33144000D03*
X-3108000Y-30604000D03*
X-3108000Y-28064000D03*
X-3108000Y-25524000D03*
X-3108000Y-22984000D03*
X-3108000Y-20444000D03*
X-3108000Y-17904000D03*
X-3108000Y-15364000D03*
X-3108000Y-12824000D03*
X-3108000Y-10284000D03*
X-3108000Y-7744000D03*
X-3108000Y-5204000D03*
%TD*%
D15*
%TO.C,LED21*%
X-54999900Y-59999000D03*
X-53124900Y-59999000D03*
%TD*%
D14*
%TO.C,H5*%
X-82210400Y-34750000D03*
%TD*%
D10*
%TO.C,SW_A1*%
X-135582400Y-31754000D03*
D11*
X-135082400Y-35504000D03*
D12*
X-130082400Y-31754000D03*
D11*
X-130082400Y-37704000D03*
D13*
X-124862400Y-27554000D03*
D10*
X-124582400Y-31754000D03*
%TD*%
%TO.C,SW_A0*%
X-135582400Y-13754000D03*
D11*
X-135082400Y-17504000D03*
D12*
X-130082400Y-13754000D03*
D11*
X-130082400Y-19704000D03*
D13*
X-124862400Y-9554000D03*
D10*
X-124582400Y-13754000D03*
%TD*%
D15*
%TO.C,LED11*%
X-111999900Y-23999000D03*
X-110124900Y-23999000D03*
%TD*%
D10*
%TO.C,SW_F2*%
X-40849500Y-50004000D03*
D11*
X-40349500Y-53754000D03*
D12*
X-35349500Y-50004000D03*
D11*
X-35349500Y-55954000D03*
D13*
X-30129500Y-45804000D03*
D10*
X-29849500Y-50004000D03*
%TD*%
%TO.C,SW_D0*%
X-78582400Y-7754000D03*
D11*
X-78082400Y-11504000D03*
D12*
X-73082400Y-7754000D03*
D11*
X-73082400Y-13704000D03*
D13*
X-67862400Y-3554000D03*
D10*
X-67582400Y-7754000D03*
%TD*%
%TO.C,SW_E3*%
X-19790648Y-69479251D03*
D11*
X-20081243Y-73251260D03*
D12*
X-14410836Y-70622765D03*
D11*
X-15647911Y-76442743D03*
D13*
X-8431676Y-67599844D03*
D10*
X-9031024Y-71766279D03*
%TD*%
D15*
%TO.C,LED7*%
X-36267000Y-27294000D03*
X-34392000Y-27294000D03*
%TD*%
D10*
%TO.C,SW_F1*%
X-40849500Y-32049000D03*
D11*
X-40349500Y-35799000D03*
D12*
X-35349500Y-32049000D03*
D11*
X-35349500Y-37999000D03*
D13*
X-30129500Y-27849000D03*
D10*
X-29849500Y-32049000D03*
%TD*%
%TO.C,SW_C2*%
X-97582400Y-43754000D03*
D11*
X-97082400Y-47504000D03*
D12*
X-92082400Y-43754000D03*
D11*
X-92082400Y-49704000D03*
D13*
X-86862400Y-39554000D03*
D10*
X-86582400Y-43754000D03*
%TD*%
D23*
%TO.C,BATT1*%
X-26592197Y-12580000D03*
D24*
X-26592197Y-14580000D03*
%TD*%
D15*
%TO.C,LED9*%
X-73999900Y-20999000D03*
X-72124900Y-20999000D03*
%TD*%
%TO.C,LED14*%
X-54999900Y-41999000D03*
X-53124900Y-41999000D03*
%TD*%
D10*
%TO.C,SW_E1*%
X-59582400Y-28754000D03*
D11*
X-59082400Y-32504000D03*
D12*
X-54082400Y-28754000D03*
D11*
X-54082400Y-34704000D03*
D13*
X-48862400Y-24554000D03*
D10*
X-48582400Y-28754000D03*
%TD*%
D15*
%TO.C,LED2*%
X-54999900Y-5999000D03*
X-53124900Y-5999000D03*
%TD*%
D10*
%TO.C,SW_C0*%
X-97582400Y-7754000D03*
D11*
X-97082400Y-11504000D03*
D12*
X-92082400Y-7754000D03*
D11*
X-92082400Y-13704000D03*
D13*
X-86862400Y-3554000D03*
D10*
X-86582400Y-7754000D03*
%TD*%
D14*
%TO.C,H2*%
X-120052400Y-59014000D03*
%TD*%
D15*
%TO.C,LED16*%
X-92999900Y-38999000D03*
X-91124900Y-38999000D03*
%TD*%
%TO.C,LED22*%
X-73999900Y-56999000D03*
X-72124900Y-56999000D03*
%TD*%
D10*
%TO.C,SW_C3*%
X-59582400Y-64754000D03*
D11*
X-59082400Y-68504000D03*
D12*
X-54082400Y-64754000D03*
D11*
X-54082400Y-70704000D03*
D13*
X-48862400Y-60554000D03*
D10*
X-48582400Y-64754000D03*
%TD*%
%TO.C,SW_B2*%
X-116582400Y-46754000D03*
D11*
X-116082400Y-50504000D03*
D12*
X-111082400Y-46754000D03*
D11*
X-111082400Y-52704000D03*
D13*
X-105862400Y-42554000D03*
D10*
X-105582400Y-46754000D03*
%TD*%
%TO.C,SW_F3*%
X-40849500Y-68004000D03*
D11*
X-40349500Y-71754000D03*
D12*
X-35349500Y-68004000D03*
D11*
X-35349500Y-73954000D03*
D13*
X-30129500Y-63804000D03*
D10*
X-29849500Y-68004000D03*
%TD*%
D15*
%TO.C,LED6*%
X-130999900Y-8999000D03*
X-129124900Y-8999000D03*
%TD*%
D25*
%TO.C,LED19*%
X-14352445Y-65773947D03*
X-12518419Y-66163781D03*
%TD*%
D15*
%TO.C,LED12*%
X-130999900Y-26999000D03*
X-129124900Y-26999000D03*
%TD*%
D26*
%TO.C,SW4*%
X-25881400Y-4194000D03*
X-25881400Y-7194000D03*
%TD*%
M02*
