M48
; DRILL file {KiCad 7.0.5-0} date 2023 September 10, Sunday 21:21:49
; FORMAT={-:-/ absolute / metric / decimal}
; #@! TF.CreationDate,2023-09-10T21:21:49+09:30
; #@! TF.GenerationSoftware,Kicad,Pcbnew,7.0.5-0
; #@! TF.FileFunction,Plated,1,2,PTH
FMAT,2
METRIC
; #@! TA.AperFunction,Plated,PTH,ViaDrill
T1C0.400
; #@! TA.AperFunction,Plated,PTH,ComponentDrill
T2C0.800
; #@! TA.AperFunction,Plated,PTH,ComponentDrill
T3C0.900
; #@! TA.AperFunction,Plated,PTH,ComponentDrill
T4C1.000
%
G90
G05
T1
X58.42Y-57.658
X59.436Y-75.692
X60.452Y-43.688
X60.452Y-61.468
X60.452Y-79.502
X63.246Y-40.64
X63.246Y-76.454
X63.5Y-58.42
X76.454Y-99.314
X77.724Y-54.61
X77.724Y-91.694
X77.724Y-93.472
X78.232Y-72.644
X79.248Y-58.42
X79.502Y-40.386
X79.502Y-76.454
X81.788Y-55.626
X82.042Y-99.06
X82.296Y-37.592
X82.55Y-73.66
X85.598Y-91.44
X87.63Y-102.362
X89.408Y-37.592
X89.408Y-55.626
X89.408Y-73.66
X91.948Y-86.614
X96.774Y-51.562
X96.774Y-69.596
X96.774Y-87.63
X98.044Y-91.44
X98.298Y-55.626
X98.298Y-73.406
X98.552Y-37.592
X100.584Y-88.646
X100.838Y-52.578
X100.838Y-70.612
X101.346Y-34.798
X106.426Y-81.534
X108.458Y-75.692
X108.458Y-94.234
X109.474Y-60.96
X114.554Y-51.562
X115.57Y-87.63
X116.84Y-69.342
X117.094Y-73.406
X117.348Y-37.592
X117.348Y-91.44
X117.602Y-55.626
X119.888Y-70.358
X120.142Y-34.798
X120.396Y-52.578
X120.65Y-88.646
X126.238Y-67.818
X128.27Y-38.862
X128.27Y-81.788
X134.112Y-54.61
X134.62Y-72.644
X135.128Y-90.678
X136.144Y-40.64
X136.398Y-58.928
X136.398Y-76.708
X136.398Y-94.996
X139.192Y-55.626
X139.446Y-37.338
X139.446Y-73.66
X139.446Y-91.694
X145.542Y-107.696
X145.542Y-109.982
X146.558Y-77.47
X147.066Y-65.278
X147.32Y-45.72
X152.908Y-57.912
X153.416Y-75.692
X153.67Y-37.338
X153.67Y-93.472
X154.178Y-40.64
X154.686Y-61.976
X154.94Y-80.01
X154.94Y-97.79
X155.194Y-44.196
X157.988Y-58.928
X158.242Y-76.708
X158.242Y-94.742
X163.322Y-78.74
X164.592Y-87.884
X165.354Y-110.236
X166.116Y-70.612
X167.132Y-69.596
X167.64Y-76.2
X168.656Y-75.184
X169.672Y-74.168
X170.18Y-84.074
X170.18Y-85.598
X170.434Y-69.088
X170.434Y-70.358
X170.688Y-73.152
X171.196Y-40.132
X171.196Y-43.18
X171.196Y-46.736
X171.196Y-50.292
X172.466Y-38.354
X172.466Y-71.628
X175.006Y-95.25
X176.022Y-97.282
X176.276Y-84.582
X176.53Y-100.076
X182.118Y-77.47
X183.398Y-83.058
X183.398Y-86.36
X183.398Y-90.23
X190.754Y-83.82
X192.024Y-41.148
X192.024Y-45.72
X192.532Y-90.678
X192.532Y-92.202
T2
X166.228Y-46.736
X166.228Y-48.736
X174.472Y-39.36
X174.472Y-41.9
X174.472Y-44.44
X174.472Y-46.98
X174.472Y-49.52
X174.472Y-52.06
X174.472Y-54.6
X174.472Y-57.14
X174.472Y-59.68
X174.472Y-62.22
X174.472Y-64.76
X174.472Y-67.3
X189.712Y-39.36
X189.712Y-41.9
X189.712Y-44.44
X189.712Y-46.98
X189.712Y-49.52
X189.712Y-52.06
X189.712Y-54.6
X189.712Y-57.14
X189.712Y-59.68
X189.712Y-62.22
X189.712Y-64.76
X189.712Y-67.3
T3
X187.197Y-91.57
X187.822Y-81.56
X187.822Y-84.1
X187.822Y-86.64
X187.822Y-89.18
X189.047Y-91.57
T4
X177.012Y-72.47
X179.552Y-72.47
X182.092Y-72.47
X184.632Y-72.47
X187.172Y-72.47
T0
M30
