M48
; DRILL file {KiCad 7.0.5-0} date 2023 October 18, Wednesday 13:26:08
; FORMAT={-:-/ absolute / inch / decimal}
; #@! TF.CreationDate,2023-10-18T13:26:08+10:30
; #@! TF.GenerationSoftware,Kicad,Pcbnew,7.0.5-0
; #@! TF.FileFunction,Plated,1,2,PTH
FMAT,2
INCH
; #@! TA.AperFunction,Plated,PTH,ViaDrill
T1C0.0157
; #@! TA.AperFunction,Plated,PTH,ComponentDrill
T2C0.0315
; #@! TA.AperFunction,Plated,PTH,ComponentDrill
T3C0.0354
; #@! TA.AperFunction,Plated,PTH,ComponentDrill
T4C0.0394
%
G90
G05
T1
X-5.2914Y-0.8934
X-5.2514Y-1.6034
X-5.2114Y-0.3434
X-5.2114Y-1.0434
X-5.2114Y-1.7534
X-5.1014Y-0.2234
X-5.1014Y-1.6334
X-5.0914Y-0.9234
X-4.8214Y-0.1234
X-4.5714Y-2.4834
X-4.5314Y-0.7734
X-4.5114Y-1.4834
X-4.4714Y-0.9234
X-4.4614Y-0.2134
X-4.4614Y-1.6334
X-4.3814Y-2.3434
X-4.3714Y-0.8134
X-4.3614Y-2.5234
X-4.3514Y-0.1034
X-4.3414Y-1.5234
X-4.2214Y-2.2234
X-4.1414Y-2.6534
X-4.1114Y-2.3434
X-4.0714Y-0.0134
X-4.0714Y-0.1034
X-4.0714Y-0.8134
X-4.0714Y-1.5234
X-3.9714Y-2.0334
X-3.7814Y-0.6534
X-3.7814Y-1.3634
X-3.7814Y-2.0734
X-3.7314Y-2.2234
X-3.7214Y-0.8134
X-3.7214Y-1.5134
X-3.7114Y-0.1034
X-3.6314Y-2.1134
X-3.6214Y-0.6934
X-3.6214Y-1.4034
X-3.5014Y-0.0134
X-3.4014Y-1.8334
X-3.3214Y-1.6034
X-3.3214Y-2.3334
X-3.2814Y-1.0234
X-3.0814Y-0.6534
X-3.0414Y-2.0734
X-2.9914Y-1.3534
X-2.9814Y-1.5134
X-2.9714Y-0.1034
X-2.9714Y-2.2234
X-2.9614Y-0.8134
X-2.8714Y-1.3934
X-2.8514Y-0.6934
X-2.8414Y-2.1134
X-2.8314Y-0.0134
X-2.6214Y-1.2934
X-2.5414Y-0.1534
X-2.5414Y-1.8434
X-2.4314Y-0.0034
X-2.3114Y-0.7734
X-2.2914Y-1.4834
X-2.2714Y-2.1934
X-2.2314Y-0.2234
X-2.2214Y-0.9434
X-2.2214Y-1.6434
X-2.2214Y-2.3634
X-2.1114Y-0.8134
X-2.1014Y-0.0934
X-2.1014Y-1.5234
X-2.1014Y-2.2334
X-1.8614Y-2.8634
X-1.8614Y-2.9534
X-1.8214Y-1.6734
X-1.8014Y-1.1934
X-1.7914Y-0.4234
X-1.6414Y-0.2034
X-1.5714Y-0.1234
X-1.5714Y-0.9034
X-1.5514Y-1.6034
X-1.5414Y-2.3034
X-1.5214Y-0.2234
X-1.5014Y-1.0634
X-1.4914Y-1.7734
X-1.4914Y-2.4734
X-1.4814Y-0.3634
X-1.3714Y-0.9434
X-1.3614Y-1.6434
X-1.3614Y-2.3534
X-1.1714Y-0.1034
X-1.1614Y-1.7234
X-1.1114Y-2.0834
X-1.0514Y-1.4034
X-1.0414Y-2.9334
X-1.0114Y-1.3634
X-0.9914Y-1.6234
X-0.9514Y-1.5834
X-0.9114Y-1.5434
X-0.8914Y-1.9334
X-0.8914Y-1.9934
X-0.8814Y-0.1034
X-0.8814Y-1.3434
X-0.8814Y-1.3934
X-0.8714Y-1.5034
X-0.8514Y-0.2034
X-0.8514Y-0.2658
X-0.8514Y-0.3553
X-0.8514Y-0.4634
X-0.8514Y-0.6034
X-0.8014Y-0.1534
X-0.7746Y-1.4667
X-0.7014Y-2.3734
X-0.6614Y-2.4534
X-0.6514Y-1.9534
X-0.6414Y-2.5634
X-0.4214Y-1.6734
X-0.3709Y-1.9253
X-0.3709Y-2.0553
X-0.3709Y-2.2034
X-0.0814Y-1.9234
X-0.0314Y-0.2753
X-0.0114Y-0.4234
X-0.0114Y-2.1934
X-0.0114Y-2.2534
T2
X-1.0469Y-0.4953
X-1.0469Y-0.574
X-0.7224Y-0.2049
X-0.7224Y-0.3049
X-0.7224Y-0.4049
X-0.7224Y-0.5049
X-0.7224Y-0.6049
X-0.7224Y-0.7049
X-0.7224Y-0.8049
X-0.7224Y-0.9049
X-0.7224Y-1.0049
X-0.7224Y-1.1049
X-0.7224Y-1.2049
X-0.7224Y-1.3049
X-0.1224Y-0.2049
X-0.1224Y-0.3049
X-0.1224Y-0.4049
X-0.1224Y-0.5049
X-0.1224Y-0.6049
X-0.1224Y-0.7049
X-0.1224Y-0.8049
X-0.1224Y-0.9049
X-0.1224Y-1.0049
X-0.1224Y-1.1049
X-0.1224Y-1.2049
X-0.1224Y-1.3049
T3
X-0.2214Y-2.2604
X-0.1968Y-1.8663
X-0.1968Y-1.9663
X-0.1968Y-2.0663
X-0.1968Y-2.1663
X-0.1485Y-2.2604
T4
X-0.6224Y-1.5084
X-0.5224Y-1.5084
X-0.4224Y-1.5084
X-0.3224Y-1.5084
X-0.2224Y-1.5084
T0
M30
