%TF.GenerationSoftware,KiCad,Pcbnew,7.0.5-0*%
%TF.CreationDate,2023-10-18T13:26:08+10:30*%
%TF.ProjectId,Rolio,526f6c69-6f2e-46b6-9963-61645f706362,rev?*%
%TF.SameCoordinates,Original*%
%TF.FileFunction,Paste,Top*%
%TF.FilePolarity,Positive*%
%FSLAX46Y46*%
G04 Gerber Fmt 4.6, Leading zero omitted, Abs format (unit mm)*
G04 Created by KiCad (PCBNEW 7.0.5-0) date 2023-10-18 13:26:08*
%MOMM*%
%LPD*%
G01*
G04 APERTURE LIST*
G04 Aperture macros list*
%AMRoundRect*
0 Rectangle with rounded corners*
0 $1 Rounding radius*
0 $2 $3 $4 $5 $6 $7 $8 $9 X,Y pos of 4 corners*
0 Add a 4 corners polygon primitive as box body*
4,1,4,$2,$3,$4,$5,$6,$7,$8,$9,$2,$3,0*
0 Add four circle primitives for the rounded corners*
1,1,$1+$1,$2,$3*
1,1,$1+$1,$4,$5*
1,1,$1+$1,$6,$7*
1,1,$1+$1,$8,$9*
0 Add four rect primitives between the rounded corners*
20,1,$1+$1,$2,$3,$4,$5,0*
20,1,$1+$1,$4,$5,$6,$7,0*
20,1,$1+$1,$6,$7,$8,$9,0*
20,1,$1+$1,$8,$9,$2,$3,0*%
G04 Aperture macros list end*
%ADD10RoundRect,0.243750X-0.243750X-0.456250X0.243750X-0.456250X0.243750X0.456250X-0.243750X0.456250X0*%
%ADD11RoundRect,0.250000X0.325000X0.450000X-0.325000X0.450000X-0.325000X-0.450000X0.325000X-0.450000X0*%
%ADD12RoundRect,0.243750X-0.333283X-0.395601X0.143564X-0.496958X0.333283X0.395601X-0.143564X0.496958X0*%
G04 APERTURE END LIST*
D10*
%TO.C,LED3*%
X-73999900Y-2999000D03*
X-72124900Y-2999000D03*
%TD*%
%TO.C,LED15*%
X-73999900Y-38999000D03*
X-72124900Y-38999000D03*
%TD*%
%TO.C,LED4*%
X-92999900Y-2999000D03*
X-91124900Y-2999000D03*
%TD*%
%TO.C,LED1*%
X-36267000Y-9249000D03*
X-34392000Y-9249000D03*
%TD*%
%TO.C,LED13*%
X-36267000Y-45249000D03*
X-34392000Y-45249000D03*
%TD*%
%TO.C,LED23*%
X-92999900Y-56899000D03*
X-91124900Y-56899000D03*
%TD*%
%TO.C,LED10*%
X-92999900Y-20999000D03*
X-91124900Y-20999000D03*
%TD*%
%TO.C,LED17*%
X-111999900Y-41999000D03*
X-110124900Y-41999000D03*
%TD*%
D11*
%TO.C,TP1*%
X-109762400Y-56474000D03*
X-112162400Y-56474000D03*
%TD*%
D10*
%TO.C,LED20*%
X-36267000Y-63249000D03*
X-34392000Y-63249000D03*
%TD*%
%TO.C,LED18*%
X-130999900Y-44999000D03*
X-129124900Y-44999000D03*
%TD*%
%TO.C,LED8*%
X-54999900Y-23999000D03*
X-53124900Y-23999000D03*
%TD*%
%TO.C,LED5*%
X-111999900Y-5999000D03*
X-110124900Y-5999000D03*
%TD*%
%TO.C,LED21*%
X-54999900Y-59999000D03*
X-53124900Y-59999000D03*
%TD*%
%TO.C,LED11*%
X-111999900Y-23999000D03*
X-110124900Y-23999000D03*
%TD*%
%TO.C,LED7*%
X-36267000Y-27294000D03*
X-34392000Y-27294000D03*
%TD*%
%TO.C,LED9*%
X-73999900Y-20999000D03*
X-72124900Y-20999000D03*
%TD*%
%TO.C,LED14*%
X-54999900Y-41999000D03*
X-53124900Y-41999000D03*
%TD*%
%TO.C,LED2*%
X-54999900Y-5999000D03*
X-53124900Y-5999000D03*
%TD*%
%TO.C,LED16*%
X-92999900Y-38999000D03*
X-91124900Y-38999000D03*
%TD*%
%TO.C,LED22*%
X-73999900Y-56999000D03*
X-72124900Y-56999000D03*
%TD*%
%TO.C,LED6*%
X-130999900Y-8999000D03*
X-129124900Y-8999000D03*
%TD*%
D12*
%TO.C,LED19*%
X-14352445Y-65773947D03*
X-12518419Y-66163781D03*
%TD*%
D10*
%TO.C,LED12*%
X-130999900Y-26999000D03*
X-129124900Y-26999000D03*
%TD*%
M02*
