%TF.GenerationSoftware,KiCad,Pcbnew,7.0.5-0*%
%TF.CreationDate,2023-10-18T13:26:08+10:30*%
%TF.ProjectId,Rolio,526f6c69-6f2e-46b6-9963-61645f706362,rev?*%
%TF.SameCoordinates,Original*%
%TF.FileFunction,Legend,Top*%
%TF.FilePolarity,Positive*%
%FSLAX46Y46*%
G04 Gerber Fmt 4.6, Leading zero omitted, Abs format (unit mm)*
G04 Created by KiCad (PCBNEW 7.0.5-0) date 2023-10-18 13:26:08*
%MOMM*%
%LPD*%
G01*
G04 APERTURE LIST*
G04 Aperture macros list*
%AMRoundRect*
0 Rectangle with rounded corners*
0 $1 Rounding radius*
0 $2 $3 $4 $5 $6 $7 $8 $9 X,Y pos of 4 corners*
0 Add a 4 corners polygon primitive as box body*
4,1,4,$2,$3,$4,$5,$6,$7,$8,$9,$2,$3,0*
0 Add four circle primitives for the rounded corners*
1,1,$1+$1,$2,$3*
1,1,$1+$1,$4,$5*
1,1,$1+$1,$6,$7*
1,1,$1+$1,$8,$9*
0 Add four rect primitives between the rounded corners*
20,1,$1+$1,$2,$3,$4,$5,0*
20,1,$1+$1,$4,$5,$6,$7,0*
20,1,$1+$1,$6,$7,$8,$9,0*
20,1,$1+$1,$8,$9,$2,$3,0*%
G04 Aperture macros list end*
%ADD10C,0.150000*%
%ADD11C,0.187500*%
%ADD12C,0.100000*%
%ADD13C,0.120000*%
%ADD14C,0.200000*%
%ADD15C,1.701800*%
%ADD16C,3.000000*%
%ADD17C,3.429000*%
%ADD18C,0.990600*%
%ADD19C,4.300000*%
%ADD20RoundRect,0.243750X-0.243750X-0.456250X0.243750X-0.456250X0.243750X0.456250X-0.243750X0.456250X0*%
%ADD21R,1.700000X1.700000*%
%ADD22O,1.700000X1.700000*%
%ADD23C,1.500000*%
%ADD24C,1.600000*%
%ADD25RoundRect,0.250000X0.325000X0.450000X-0.325000X0.450000X-0.325000X-0.450000X0.325000X-0.450000X0*%
%ADD26R,1.600000X1.600000*%
%ADD27O,1.600000X1.600000*%
%ADD28R,1.350000X1.350000*%
%ADD29O,1.350000X1.350000*%
%ADD30RoundRect,0.243750X-0.333283X-0.395601X0.143564X-0.496958X0.333283X0.395601X-0.143564X0.496958X0*%
%ADD31C,0.900000*%
G04 APERTURE END LIST*
D10*
X-27009621Y-10406866D02*
X-26247716Y-10406866D01*
X-26628669Y-10787819D02*
X-26628669Y-10025914D01*
X-27009621Y-16846866D02*
X-26247716Y-16846866D01*
D11*
X-100031617Y-231392D02*
X-100431617Y340036D01*
X-100717331Y-231392D02*
X-100717331Y968608D01*
X-100717331Y968608D02*
X-100260188Y968608D01*
X-100260188Y968608D02*
X-100145903Y911465D01*
X-100145903Y911465D02*
X-100088760Y854322D01*
X-100088760Y854322D02*
X-100031617Y740036D01*
X-100031617Y740036D02*
X-100031617Y568608D01*
X-100031617Y568608D02*
X-100088760Y454322D01*
X-100088760Y454322D02*
X-100145903Y397179D01*
X-100145903Y397179D02*
X-100260188Y340036D01*
X-100260188Y340036D02*
X-100717331Y340036D01*
X-99345903Y-231392D02*
X-99460188Y-174250D01*
X-99460188Y-174250D02*
X-99517331Y-117107D01*
X-99517331Y-117107D02*
X-99574474Y-2821D01*
X-99574474Y-2821D02*
X-99574474Y340036D01*
X-99574474Y340036D02*
X-99517331Y454322D01*
X-99517331Y454322D02*
X-99460188Y511465D01*
X-99460188Y511465D02*
X-99345903Y568608D01*
X-99345903Y568608D02*
X-99174474Y568608D01*
X-99174474Y568608D02*
X-99060188Y511465D01*
X-99060188Y511465D02*
X-99003045Y454322D01*
X-99003045Y454322D02*
X-98945903Y340036D01*
X-98945903Y340036D02*
X-98945903Y-2821D01*
X-98945903Y-2821D02*
X-99003045Y-117107D01*
X-99003045Y-117107D02*
X-99060188Y-174250D01*
X-99060188Y-174250D02*
X-99174474Y-231392D01*
X-99174474Y-231392D02*
X-99345903Y-231392D01*
X-98260189Y-231392D02*
X-98374474Y-174250D01*
X-98374474Y-174250D02*
X-98431617Y-59964D01*
X-98431617Y-59964D02*
X-98431617Y968608D01*
X-97803046Y-231392D02*
X-97803046Y568608D01*
X-97803046Y968608D02*
X-97860189Y911465D01*
X-97860189Y911465D02*
X-97803046Y854322D01*
X-97803046Y854322D02*
X-97745903Y911465D01*
X-97745903Y911465D02*
X-97803046Y968608D01*
X-97803046Y968608D02*
X-97803046Y854322D01*
X-97060189Y-231392D02*
X-97174474Y-174250D01*
X-97174474Y-174250D02*
X-97231617Y-117107D01*
X-97231617Y-117107D02*
X-97288760Y-2821D01*
X-97288760Y-2821D02*
X-97288760Y340036D01*
X-97288760Y340036D02*
X-97231617Y454322D01*
X-97231617Y454322D02*
X-97174474Y511465D01*
X-97174474Y511465D02*
X-97060189Y568608D01*
X-97060189Y568608D02*
X-96888760Y568608D01*
X-96888760Y568608D02*
X-96774474Y511465D01*
X-96774474Y511465D02*
X-96717331Y454322D01*
X-96717331Y454322D02*
X-96660189Y340036D01*
X-96660189Y340036D02*
X-96660189Y-2821D01*
X-96660189Y-2821D02*
X-96717331Y-117107D01*
X-96717331Y-117107D02*
X-96774474Y-174250D01*
X-96774474Y-174250D02*
X-96888760Y-231392D01*
X-96888760Y-231392D02*
X-97060189Y-231392D01*
X-95403046Y968608D02*
X-95003046Y-231392D01*
X-95003046Y-231392D02*
X-94603046Y968608D01*
X-93574475Y-231392D02*
X-94260189Y-231392D01*
X-93917332Y-231392D02*
X-93917332Y968608D01*
X-93917332Y968608D02*
X-94031618Y797179D01*
X-94031618Y797179D02*
X-94145903Y682893D01*
X-94145903Y682893D02*
X-94260189Y625750D01*
X-93060189Y-117107D02*
X-93003046Y-174250D01*
X-93003046Y-174250D02*
X-93060189Y-231392D01*
X-93060189Y-231392D02*
X-93117332Y-174250D01*
X-93117332Y-174250D02*
X-93060189Y-117107D01*
X-93060189Y-117107D02*
X-93060189Y-231392D01*
X-92545903Y854322D02*
X-92488760Y911465D01*
X-92488760Y911465D02*
X-92374474Y968608D01*
X-92374474Y968608D02*
X-92088760Y968608D01*
X-92088760Y968608D02*
X-91974474Y911465D01*
X-91974474Y911465D02*
X-91917332Y854322D01*
X-91917332Y854322D02*
X-91860189Y740036D01*
X-91860189Y740036D02*
X-91860189Y625750D01*
X-91860189Y625750D02*
X-91917332Y454322D01*
X-91917332Y454322D02*
X-92603046Y-231392D01*
X-92603046Y-231392D02*
X-91860189Y-231392D01*
X-90088760Y-688535D02*
X-90145903Y-631392D01*
X-90145903Y-631392D02*
X-90260189Y-459964D01*
X-90260189Y-459964D02*
X-90317331Y-345678D01*
X-90317331Y-345678D02*
X-90374474Y-174250D01*
X-90374474Y-174250D02*
X-90431617Y111465D01*
X-90431617Y111465D02*
X-90431617Y340036D01*
X-90431617Y340036D02*
X-90374474Y625750D01*
X-90374474Y625750D02*
X-90317331Y797179D01*
X-90317331Y797179D02*
X-90260189Y911465D01*
X-90260189Y911465D02*
X-90145903Y1082893D01*
X-90145903Y1082893D02*
X-90088760Y1140036D01*
X-89060189Y-231392D02*
X-89631617Y-231392D01*
X-89631617Y-231392D02*
X-89631617Y968608D01*
X-88203045Y-174250D02*
X-88317331Y-231392D01*
X-88317331Y-231392D02*
X-88545902Y-231392D01*
X-88545902Y-231392D02*
X-88660188Y-174250D01*
X-88660188Y-174250D02*
X-88717331Y-59964D01*
X-88717331Y-59964D02*
X-88717331Y397179D01*
X-88717331Y397179D02*
X-88660188Y511465D01*
X-88660188Y511465D02*
X-88545902Y568608D01*
X-88545902Y568608D02*
X-88317331Y568608D01*
X-88317331Y568608D02*
X-88203045Y511465D01*
X-88203045Y511465D02*
X-88145902Y397179D01*
X-88145902Y397179D02*
X-88145902Y282893D01*
X-88145902Y282893D02*
X-88717331Y168608D01*
X-87803046Y568608D02*
X-87345903Y568608D01*
X-87631617Y-231392D02*
X-87631617Y797179D01*
X-87631617Y797179D02*
X-87574474Y911465D01*
X-87574474Y911465D02*
X-87460189Y968608D01*
X-87460189Y968608D02*
X-87345903Y968608D01*
X-87117332Y568608D02*
X-86660189Y568608D01*
X-86945903Y968608D02*
X-86945903Y-59964D01*
X-86945903Y-59964D02*
X-86888760Y-174250D01*
X-86888760Y-174250D02*
X-86774475Y-231392D01*
X-86774475Y-231392D02*
X-86660189Y-231392D01*
X-86374475Y-688535D02*
X-86317332Y-631392D01*
X-86317332Y-631392D02*
X-86203046Y-459964D01*
X-86203046Y-459964D02*
X-86145903Y-345678D01*
X-86145903Y-345678D02*
X-86088761Y-174250D01*
X-86088761Y-174250D02*
X-86031618Y111465D01*
X-86031618Y111465D02*
X-86031618Y340036D01*
X-86031618Y340036D02*
X-86088761Y625750D01*
X-86088761Y625750D02*
X-86145903Y797179D01*
X-86145903Y797179D02*
X-86203046Y911465D01*
X-86203046Y911465D02*
X-86317332Y1082893D01*
X-86317332Y1082893D02*
X-86374475Y1140036D01*
X-84545903Y225750D02*
X-83631617Y225750D01*
X-82145903Y-231392D02*
X-82145903Y968608D01*
X-82145903Y968608D02*
X-81745903Y111465D01*
X-81745903Y111465D02*
X-81345903Y968608D01*
X-81345903Y968608D02*
X-81345903Y-231392D01*
X-80774474Y-231392D02*
X-80774474Y568608D01*
X-80774474Y968608D02*
X-80831617Y911465D01*
X-80831617Y911465D02*
X-80774474Y854322D01*
X-80774474Y854322D02*
X-80717331Y911465D01*
X-80717331Y911465D02*
X-80774474Y968608D01*
X-80774474Y968608D02*
X-80774474Y854322D01*
X-79688759Y-174250D02*
X-79803045Y-231392D01*
X-79803045Y-231392D02*
X-80031617Y-231392D01*
X-80031617Y-231392D02*
X-80145902Y-174250D01*
X-80145902Y-174250D02*
X-80203045Y-117107D01*
X-80203045Y-117107D02*
X-80260188Y-2821D01*
X-80260188Y-2821D02*
X-80260188Y340036D01*
X-80260188Y340036D02*
X-80203045Y454322D01*
X-80203045Y454322D02*
X-80145902Y511465D01*
X-80145902Y511465D02*
X-80031617Y568608D01*
X-80031617Y568608D02*
X-79803045Y568608D01*
X-79803045Y568608D02*
X-79688759Y511465D01*
X-79174474Y-231392D02*
X-79174474Y968608D01*
X-79060188Y225750D02*
X-78717331Y-231392D01*
X-78717331Y568608D02*
X-79174474Y111465D01*
X-78203045Y-231392D02*
X-78203045Y568608D01*
X-78203045Y968608D02*
X-78260188Y911465D01*
X-78260188Y911465D02*
X-78203045Y854322D01*
X-78203045Y854322D02*
X-78145902Y911465D01*
X-78145902Y911465D02*
X-78203045Y968608D01*
X-78203045Y968608D02*
X-78203045Y854322D01*
X-77117330Y568608D02*
X-77117330Y-231392D01*
X-77631616Y568608D02*
X-77631616Y-59964D01*
X-77631616Y-59964D02*
X-77574473Y-174250D01*
X-77574473Y-174250D02*
X-77460188Y-231392D01*
X-77460188Y-231392D02*
X-77288759Y-231392D01*
X-77288759Y-231392D02*
X-77174473Y-174250D01*
X-77174473Y-174250D02*
X-77117330Y-117107D01*
X-76603045Y-174250D02*
X-76488759Y-231392D01*
X-76488759Y-231392D02*
X-76260188Y-231392D01*
X-76260188Y-231392D02*
X-76145902Y-174250D01*
X-76145902Y-174250D02*
X-76088759Y-59964D01*
X-76088759Y-59964D02*
X-76088759Y-2821D01*
X-76088759Y-2821D02*
X-76145902Y111465D01*
X-76145902Y111465D02*
X-76260188Y168608D01*
X-76260188Y168608D02*
X-76431616Y168608D01*
X-76431616Y168608D02*
X-76545902Y225750D01*
X-76545902Y225750D02*
X-76603045Y340036D01*
X-76603045Y340036D02*
X-76603045Y397179D01*
X-76603045Y397179D02*
X-76545902Y511465D01*
X-76545902Y511465D02*
X-76431616Y568608D01*
X-76431616Y568608D02*
X-76260188Y568608D01*
X-76260188Y568608D02*
X-76145902Y511465D01*
X-75574473Y-231392D02*
X-75574473Y968608D01*
X-75574473Y968608D02*
X-75174473Y111465D01*
X-75174473Y111465D02*
X-74774473Y968608D01*
X-74774473Y968608D02*
X-74774473Y-231392D01*
X-74031616Y-231392D02*
X-74145901Y-174250D01*
X-74145901Y-174250D02*
X-74203044Y-117107D01*
X-74203044Y-117107D02*
X-74260187Y-2821D01*
X-74260187Y-2821D02*
X-74260187Y340036D01*
X-74260187Y340036D02*
X-74203044Y454322D01*
X-74203044Y454322D02*
X-74145901Y511465D01*
X-74145901Y511465D02*
X-74031616Y568608D01*
X-74031616Y568608D02*
X-73860187Y568608D01*
X-73860187Y568608D02*
X-73745901Y511465D01*
X-73745901Y511465D02*
X-73688758Y454322D01*
X-73688758Y454322D02*
X-73631616Y340036D01*
X-73631616Y340036D02*
X-73631616Y-2821D01*
X-73631616Y-2821D02*
X-73688758Y-117107D01*
X-73688758Y-117107D02*
X-73745901Y-174250D01*
X-73745901Y-174250D02*
X-73860187Y-231392D01*
X-73860187Y-231392D02*
X-74031616Y-231392D01*
X-72603044Y568608D02*
X-72603044Y-231392D01*
X-73117330Y568608D02*
X-73117330Y-59964D01*
X-73117330Y-59964D02*
X-73060187Y-174250D01*
X-73060187Y-174250D02*
X-72945902Y-231392D01*
X-72945902Y-231392D02*
X-72774473Y-231392D01*
X-72774473Y-231392D02*
X-72660187Y-174250D01*
X-72660187Y-174250D02*
X-72603044Y-117107D01*
X-72088759Y-174250D02*
X-71974473Y-231392D01*
X-71974473Y-231392D02*
X-71745902Y-231392D01*
X-71745902Y-231392D02*
X-71631616Y-174250D01*
X-71631616Y-174250D02*
X-71574473Y-59964D01*
X-71574473Y-59964D02*
X-71574473Y-2821D01*
X-71574473Y-2821D02*
X-71631616Y111465D01*
X-71631616Y111465D02*
X-71745902Y168608D01*
X-71745902Y168608D02*
X-71917330Y168608D01*
X-71917330Y168608D02*
X-72031616Y225750D01*
X-72031616Y225750D02*
X-72088759Y340036D01*
X-72088759Y340036D02*
X-72088759Y397179D01*
X-72088759Y397179D02*
X-72031616Y511465D01*
X-72031616Y511465D02*
X-71917330Y568608D01*
X-71917330Y568608D02*
X-71745902Y568608D01*
X-71745902Y568608D02*
X-71631616Y511465D01*
X-71060187Y-231392D02*
X-71060187Y568608D01*
X-71060187Y968608D02*
X-71117330Y911465D01*
X-71117330Y911465D02*
X-71060187Y854322D01*
X-71060187Y854322D02*
X-71003044Y911465D01*
X-71003044Y911465D02*
X-71060187Y968608D01*
X-71060187Y968608D02*
X-71060187Y854322D01*
X-69974472Y568608D02*
X-69974472Y-231392D01*
X-70488758Y568608D02*
X-70488758Y-59964D01*
X-70488758Y-59964D02*
X-70431615Y-174250D01*
X-70431615Y-174250D02*
X-70317330Y-231392D01*
X-70317330Y-231392D02*
X-70145901Y-231392D01*
X-70145901Y-231392D02*
X-70031615Y-174250D01*
X-70031615Y-174250D02*
X-69974472Y-117107D01*
X-69460187Y-174250D02*
X-69345901Y-231392D01*
X-69345901Y-231392D02*
X-69117330Y-231392D01*
X-69117330Y-231392D02*
X-69003044Y-174250D01*
X-69003044Y-174250D02*
X-68945901Y-59964D01*
X-68945901Y-59964D02*
X-68945901Y-2821D01*
X-68945901Y-2821D02*
X-69003044Y111465D01*
X-69003044Y111465D02*
X-69117330Y168608D01*
X-69117330Y168608D02*
X-69288758Y168608D01*
X-69288758Y168608D02*
X-69403044Y225750D01*
X-69403044Y225750D02*
X-69460187Y340036D01*
X-69460187Y340036D02*
X-69460187Y397179D01*
X-69460187Y397179D02*
X-69403044Y511465D01*
X-69403044Y511465D02*
X-69288758Y568608D01*
X-69288758Y568608D02*
X-69117330Y568608D01*
X-69117330Y568608D02*
X-69003044Y511465D01*
X-67460186Y968608D02*
X-67574472Y740036D01*
X-67003043Y854322D02*
X-66945900Y911465D01*
X-66945900Y911465D02*
X-66831614Y968608D01*
X-66831614Y968608D02*
X-66545900Y968608D01*
X-66545900Y968608D02*
X-66431614Y911465D01*
X-66431614Y911465D02*
X-66374472Y854322D01*
X-66374472Y854322D02*
X-66317329Y740036D01*
X-66317329Y740036D02*
X-66317329Y625750D01*
X-66317329Y625750D02*
X-66374472Y454322D01*
X-66374472Y454322D02*
X-67060186Y-231392D01*
X-67060186Y-231392D02*
X-66317329Y-231392D01*
X-65917329Y968608D02*
X-65174472Y968608D01*
X-65174472Y968608D02*
X-65574472Y511465D01*
X-65574472Y511465D02*
X-65403043Y511465D01*
X-65403043Y511465D02*
X-65288757Y454322D01*
X-65288757Y454322D02*
X-65231615Y397179D01*
X-65231615Y397179D02*
X-65174472Y282893D01*
X-65174472Y282893D02*
X-65174472Y-2821D01*
X-65174472Y-2821D02*
X-65231615Y-117107D01*
X-65231615Y-117107D02*
X-65288757Y-174250D01*
X-65288757Y-174250D02*
X-65403043Y-231392D01*
X-65403043Y-231392D02*
X-65745900Y-231392D01*
X-65745900Y-231392D02*
X-65860186Y-174250D01*
X-65860186Y-174250D02*
X-65917329Y-117107D01*
D10*
X-113937163Y-58274009D02*
X-113794306Y-58321628D01*
X-113794306Y-58321628D02*
X-113746687Y-58369247D01*
X-113746687Y-58369247D02*
X-113699068Y-58464485D01*
X-113699068Y-58464485D02*
X-113699068Y-58607342D01*
X-113699068Y-58607342D02*
X-113746687Y-58702580D01*
X-113746687Y-58702580D02*
X-113794306Y-58750200D01*
X-113794306Y-58750200D02*
X-113889544Y-58797819D01*
X-113889544Y-58797819D02*
X-114270496Y-58797819D01*
X-114270496Y-58797819D02*
X-114270496Y-57797819D01*
X-114270496Y-57797819D02*
X-113937163Y-57797819D01*
X-113937163Y-57797819D02*
X-113841925Y-57845438D01*
X-113841925Y-57845438D02*
X-113794306Y-57893057D01*
X-113794306Y-57893057D02*
X-113746687Y-57988295D01*
X-113746687Y-57988295D02*
X-113746687Y-58083533D01*
X-113746687Y-58083533D02*
X-113794306Y-58178771D01*
X-113794306Y-58178771D02*
X-113841925Y-58226390D01*
X-113841925Y-58226390D02*
X-113937163Y-58274009D01*
X-113937163Y-58274009D02*
X-114270496Y-58274009D01*
X-112841925Y-58797819D02*
X-112841925Y-58274009D01*
X-112841925Y-58274009D02*
X-112889544Y-58178771D01*
X-112889544Y-58178771D02*
X-112984782Y-58131152D01*
X-112984782Y-58131152D02*
X-113175258Y-58131152D01*
X-113175258Y-58131152D02*
X-113270496Y-58178771D01*
X-112841925Y-58750200D02*
X-112937163Y-58797819D01*
X-112937163Y-58797819D02*
X-113175258Y-58797819D01*
X-113175258Y-58797819D02*
X-113270496Y-58750200D01*
X-113270496Y-58750200D02*
X-113318115Y-58654961D01*
X-113318115Y-58654961D02*
X-113318115Y-58559723D01*
X-113318115Y-58559723D02*
X-113270496Y-58464485D01*
X-113270496Y-58464485D02*
X-113175258Y-58416866D01*
X-113175258Y-58416866D02*
X-112937163Y-58416866D01*
X-112937163Y-58416866D02*
X-112841925Y-58369247D01*
X-111937163Y-58750200D02*
X-112032401Y-58797819D01*
X-112032401Y-58797819D02*
X-112222877Y-58797819D01*
X-112222877Y-58797819D02*
X-112318115Y-58750200D01*
X-112318115Y-58750200D02*
X-112365734Y-58702580D01*
X-112365734Y-58702580D02*
X-112413353Y-58607342D01*
X-112413353Y-58607342D02*
X-112413353Y-58321628D01*
X-112413353Y-58321628D02*
X-112365734Y-58226390D01*
X-112365734Y-58226390D02*
X-112318115Y-58178771D01*
X-112318115Y-58178771D02*
X-112222877Y-58131152D01*
X-112222877Y-58131152D02*
X-112032401Y-58131152D01*
X-112032401Y-58131152D02*
X-111937163Y-58178771D01*
X-111508591Y-58797819D02*
X-111508591Y-57797819D01*
X-111413353Y-58416866D02*
X-111127639Y-58797819D01*
X-111127639Y-58131152D02*
X-111508591Y-58512104D01*
X-110556210Y-58797819D02*
X-110651448Y-58750200D01*
X-110651448Y-58750200D02*
X-110699067Y-58654961D01*
X-110699067Y-58654961D02*
X-110699067Y-57797819D01*
X-110175257Y-58797819D02*
X-110175257Y-58131152D01*
X-110175257Y-57797819D02*
X-110222876Y-57845438D01*
X-110222876Y-57845438D02*
X-110175257Y-57893057D01*
X-110175257Y-57893057D02*
X-110127638Y-57845438D01*
X-110127638Y-57845438D02*
X-110175257Y-57797819D01*
X-110175257Y-57797819D02*
X-110175257Y-57893057D01*
X-109270496Y-58131152D02*
X-109270496Y-58940676D01*
X-109270496Y-58940676D02*
X-109318115Y-59035914D01*
X-109318115Y-59035914D02*
X-109365734Y-59083533D01*
X-109365734Y-59083533D02*
X-109460972Y-59131152D01*
X-109460972Y-59131152D02*
X-109603829Y-59131152D01*
X-109603829Y-59131152D02*
X-109699067Y-59083533D01*
X-109270496Y-58750200D02*
X-109365734Y-58797819D01*
X-109365734Y-58797819D02*
X-109556210Y-58797819D01*
X-109556210Y-58797819D02*
X-109651448Y-58750200D01*
X-109651448Y-58750200D02*
X-109699067Y-58702580D01*
X-109699067Y-58702580D02*
X-109746686Y-58607342D01*
X-109746686Y-58607342D02*
X-109746686Y-58321628D01*
X-109746686Y-58321628D02*
X-109699067Y-58226390D01*
X-109699067Y-58226390D02*
X-109651448Y-58178771D01*
X-109651448Y-58178771D02*
X-109556210Y-58131152D01*
X-109556210Y-58131152D02*
X-109365734Y-58131152D01*
X-109365734Y-58131152D02*
X-109270496Y-58178771D01*
X-108794305Y-58797819D02*
X-108794305Y-57797819D01*
X-108365734Y-58797819D02*
X-108365734Y-58274009D01*
X-108365734Y-58274009D02*
X-108413353Y-58178771D01*
X-108413353Y-58178771D02*
X-108508591Y-58131152D01*
X-108508591Y-58131152D02*
X-108651448Y-58131152D01*
X-108651448Y-58131152D02*
X-108746686Y-58178771D01*
X-108746686Y-58178771D02*
X-108794305Y-58226390D01*
X-108032400Y-58131152D02*
X-107651448Y-58131152D01*
X-107889543Y-57797819D02*
X-107889543Y-58654961D01*
X-107889543Y-58654961D02*
X-107841924Y-58750200D01*
X-107841924Y-58750200D02*
X-107746686Y-58797819D01*
X-107746686Y-58797819D02*
X-107651448Y-58797819D01*
X-112437162Y-59407819D02*
X-111865734Y-59407819D01*
X-112151448Y-60407819D02*
X-112151448Y-59407819D01*
X-111151448Y-60360200D02*
X-111246686Y-60407819D01*
X-111246686Y-60407819D02*
X-111437162Y-60407819D01*
X-111437162Y-60407819D02*
X-111532400Y-60360200D01*
X-111532400Y-60360200D02*
X-111580019Y-60264961D01*
X-111580019Y-60264961D02*
X-111580019Y-59884009D01*
X-111580019Y-59884009D02*
X-111532400Y-59788771D01*
X-111532400Y-59788771D02*
X-111437162Y-59741152D01*
X-111437162Y-59741152D02*
X-111246686Y-59741152D01*
X-111246686Y-59741152D02*
X-111151448Y-59788771D01*
X-111151448Y-59788771D02*
X-111103829Y-59884009D01*
X-111103829Y-59884009D02*
X-111103829Y-59979247D01*
X-111103829Y-59979247D02*
X-111580019Y-60074485D01*
X-110722876Y-60360200D02*
X-110627638Y-60407819D01*
X-110627638Y-60407819D02*
X-110437162Y-60407819D01*
X-110437162Y-60407819D02*
X-110341924Y-60360200D01*
X-110341924Y-60360200D02*
X-110294305Y-60264961D01*
X-110294305Y-60264961D02*
X-110294305Y-60217342D01*
X-110294305Y-60217342D02*
X-110341924Y-60122104D01*
X-110341924Y-60122104D02*
X-110437162Y-60074485D01*
X-110437162Y-60074485D02*
X-110580019Y-60074485D01*
X-110580019Y-60074485D02*
X-110675257Y-60026866D01*
X-110675257Y-60026866D02*
X-110722876Y-59931628D01*
X-110722876Y-59931628D02*
X-110722876Y-59884009D01*
X-110722876Y-59884009D02*
X-110675257Y-59788771D01*
X-110675257Y-59788771D02*
X-110580019Y-59741152D01*
X-110580019Y-59741152D02*
X-110437162Y-59741152D01*
X-110437162Y-59741152D02*
X-110341924Y-59788771D01*
X-110008590Y-59741152D02*
X-109627638Y-59741152D01*
X-109865733Y-59407819D02*
X-109865733Y-60264961D01*
X-109865733Y-60264961D02*
X-109818114Y-60360200D01*
X-109818114Y-60360200D02*
X-109722876Y-60407819D01*
X-109722876Y-60407819D02*
X-109627638Y-60407819D01*
%TO.C,LED3*%
X-74181448Y-1803819D02*
X-74657638Y-1803819D01*
X-74657638Y-1803819D02*
X-74657638Y-803819D01*
X-73848114Y-1280009D02*
X-73514781Y-1280009D01*
X-73371924Y-1803819D02*
X-73848114Y-1803819D01*
X-73848114Y-1803819D02*
X-73848114Y-803819D01*
X-73848114Y-803819D02*
X-73371924Y-803819D01*
X-72943352Y-1803819D02*
X-72943352Y-803819D01*
X-72943352Y-803819D02*
X-72705257Y-803819D01*
X-72705257Y-803819D02*
X-72562400Y-851438D01*
X-72562400Y-851438D02*
X-72467162Y-946676D01*
X-72467162Y-946676D02*
X-72419543Y-1041914D01*
X-72419543Y-1041914D02*
X-72371924Y-1232390D01*
X-72371924Y-1232390D02*
X-72371924Y-1375247D01*
X-72371924Y-1375247D02*
X-72419543Y-1565723D01*
X-72419543Y-1565723D02*
X-72467162Y-1660961D01*
X-72467162Y-1660961D02*
X-72562400Y-1756200D01*
X-72562400Y-1756200D02*
X-72705257Y-1803819D01*
X-72705257Y-1803819D02*
X-72943352Y-1803819D01*
X-72038590Y-803819D02*
X-71419543Y-803819D01*
X-71419543Y-803819D02*
X-71752876Y-1184771D01*
X-71752876Y-1184771D02*
X-71610019Y-1184771D01*
X-71610019Y-1184771D02*
X-71514781Y-1232390D01*
X-71514781Y-1232390D02*
X-71467162Y-1280009D01*
X-71467162Y-1280009D02*
X-71419543Y-1375247D01*
X-71419543Y-1375247D02*
X-71419543Y-1613342D01*
X-71419543Y-1613342D02*
X-71467162Y-1708580D01*
X-71467162Y-1708580D02*
X-71514781Y-1756200D01*
X-71514781Y-1756200D02*
X-71610019Y-1803819D01*
X-71610019Y-1803819D02*
X-71895733Y-1803819D01*
X-71895733Y-1803819D02*
X-71990971Y-1756200D01*
X-71990971Y-1756200D02*
X-72038590Y-1708580D01*
%TO.C,LED15*%
X-74657639Y-37803819D02*
X-75133829Y-37803819D01*
X-75133829Y-37803819D02*
X-75133829Y-36803819D01*
X-74324305Y-37280009D02*
X-73990972Y-37280009D01*
X-73848115Y-37803819D02*
X-74324305Y-37803819D01*
X-74324305Y-37803819D02*
X-74324305Y-36803819D01*
X-74324305Y-36803819D02*
X-73848115Y-36803819D01*
X-73419543Y-37803819D02*
X-73419543Y-36803819D01*
X-73419543Y-36803819D02*
X-73181448Y-36803819D01*
X-73181448Y-36803819D02*
X-73038591Y-36851438D01*
X-73038591Y-36851438D02*
X-72943353Y-36946676D01*
X-72943353Y-36946676D02*
X-72895734Y-37041914D01*
X-72895734Y-37041914D02*
X-72848115Y-37232390D01*
X-72848115Y-37232390D02*
X-72848115Y-37375247D01*
X-72848115Y-37375247D02*
X-72895734Y-37565723D01*
X-72895734Y-37565723D02*
X-72943353Y-37660961D01*
X-72943353Y-37660961D02*
X-73038591Y-37756200D01*
X-73038591Y-37756200D02*
X-73181448Y-37803819D01*
X-73181448Y-37803819D02*
X-73419543Y-37803819D01*
X-71895734Y-37803819D02*
X-72467162Y-37803819D01*
X-72181448Y-37803819D02*
X-72181448Y-36803819D01*
X-72181448Y-36803819D02*
X-72276686Y-36946676D01*
X-72276686Y-36946676D02*
X-72371924Y-37041914D01*
X-72371924Y-37041914D02*
X-72467162Y-37089533D01*
X-70990972Y-36803819D02*
X-71467162Y-36803819D01*
X-71467162Y-36803819D02*
X-71514781Y-37280009D01*
X-71514781Y-37280009D02*
X-71467162Y-37232390D01*
X-71467162Y-37232390D02*
X-71371924Y-37184771D01*
X-71371924Y-37184771D02*
X-71133829Y-37184771D01*
X-71133829Y-37184771D02*
X-71038591Y-37232390D01*
X-71038591Y-37232390D02*
X-70990972Y-37280009D01*
X-70990972Y-37280009D02*
X-70943353Y-37375247D01*
X-70943353Y-37375247D02*
X-70943353Y-37613342D01*
X-70943353Y-37613342D02*
X-70990972Y-37708580D01*
X-70990972Y-37708580D02*
X-71038591Y-37756200D01*
X-71038591Y-37756200D02*
X-71133829Y-37803819D01*
X-71133829Y-37803819D02*
X-71371924Y-37803819D01*
X-71371924Y-37803819D02*
X-71467162Y-37756200D01*
X-71467162Y-37756200D02*
X-71514781Y-37708580D01*
%TO.C,LED4*%
X-93181448Y-1803819D02*
X-93657638Y-1803819D01*
X-93657638Y-1803819D02*
X-93657638Y-803819D01*
X-92848114Y-1280009D02*
X-92514781Y-1280009D01*
X-92371924Y-1803819D02*
X-92848114Y-1803819D01*
X-92848114Y-1803819D02*
X-92848114Y-803819D01*
X-92848114Y-803819D02*
X-92371924Y-803819D01*
X-91943352Y-1803819D02*
X-91943352Y-803819D01*
X-91943352Y-803819D02*
X-91705257Y-803819D01*
X-91705257Y-803819D02*
X-91562400Y-851438D01*
X-91562400Y-851438D02*
X-91467162Y-946676D01*
X-91467162Y-946676D02*
X-91419543Y-1041914D01*
X-91419543Y-1041914D02*
X-91371924Y-1232390D01*
X-91371924Y-1232390D02*
X-91371924Y-1375247D01*
X-91371924Y-1375247D02*
X-91419543Y-1565723D01*
X-91419543Y-1565723D02*
X-91467162Y-1660961D01*
X-91467162Y-1660961D02*
X-91562400Y-1756200D01*
X-91562400Y-1756200D02*
X-91705257Y-1803819D01*
X-91705257Y-1803819D02*
X-91943352Y-1803819D01*
X-90514781Y-1137152D02*
X-90514781Y-1803819D01*
X-90752876Y-756200D02*
X-90990971Y-1470485D01*
X-90990971Y-1470485D02*
X-90371924Y-1470485D01*
%TO.C,LED1*%
X-36448548Y-8053819D02*
X-36924738Y-8053819D01*
X-36924738Y-8053819D02*
X-36924738Y-7053819D01*
X-36115214Y-7530009D02*
X-35781881Y-7530009D01*
X-35639024Y-8053819D02*
X-36115214Y-8053819D01*
X-36115214Y-8053819D02*
X-36115214Y-7053819D01*
X-36115214Y-7053819D02*
X-35639024Y-7053819D01*
X-35210452Y-8053819D02*
X-35210452Y-7053819D01*
X-35210452Y-7053819D02*
X-34972357Y-7053819D01*
X-34972357Y-7053819D02*
X-34829500Y-7101438D01*
X-34829500Y-7101438D02*
X-34734262Y-7196676D01*
X-34734262Y-7196676D02*
X-34686643Y-7291914D01*
X-34686643Y-7291914D02*
X-34639024Y-7482390D01*
X-34639024Y-7482390D02*
X-34639024Y-7625247D01*
X-34639024Y-7625247D02*
X-34686643Y-7815723D01*
X-34686643Y-7815723D02*
X-34734262Y-7910961D01*
X-34734262Y-7910961D02*
X-34829500Y-8006200D01*
X-34829500Y-8006200D02*
X-34972357Y-8053819D01*
X-34972357Y-8053819D02*
X-35210452Y-8053819D01*
X-33686643Y-8053819D02*
X-34258071Y-8053819D01*
X-33972357Y-8053819D02*
X-33972357Y-7053819D01*
X-33972357Y-7053819D02*
X-34067595Y-7196676D01*
X-34067595Y-7196676D02*
X-34162833Y-7291914D01*
X-34162833Y-7291914D02*
X-34258071Y-7339533D01*
%TO.C,RE_1*%
X-11623001Y-51668819D02*
X-11956334Y-51192628D01*
X-12194429Y-51668819D02*
X-12194429Y-50668819D01*
X-12194429Y-50668819D02*
X-11813477Y-50668819D01*
X-11813477Y-50668819D02*
X-11718239Y-50716438D01*
X-11718239Y-50716438D02*
X-11670620Y-50764057D01*
X-11670620Y-50764057D02*
X-11623001Y-50859295D01*
X-11623001Y-50859295D02*
X-11623001Y-51002152D01*
X-11623001Y-51002152D02*
X-11670620Y-51097390D01*
X-11670620Y-51097390D02*
X-11718239Y-51145009D01*
X-11718239Y-51145009D02*
X-11813477Y-51192628D01*
X-11813477Y-51192628D02*
X-12194429Y-51192628D01*
X-11194429Y-51145009D02*
X-10861096Y-51145009D01*
X-10718239Y-51668819D02*
X-11194429Y-51668819D01*
X-11194429Y-51668819D02*
X-11194429Y-50668819D01*
X-11194429Y-50668819D02*
X-10718239Y-50668819D01*
X-10527762Y-51764057D02*
X-9765858Y-51764057D01*
X-9003953Y-51668819D02*
X-9575381Y-51668819D01*
X-9289667Y-51668819D02*
X-9289667Y-50668819D01*
X-9289667Y-50668819D02*
X-9384905Y-50811676D01*
X-9384905Y-50811676D02*
X-9480143Y-50906914D01*
X-9480143Y-50906914D02*
X-9575381Y-50954533D01*
%TO.C,LED13*%
X-36924739Y-44053819D02*
X-37400929Y-44053819D01*
X-37400929Y-44053819D02*
X-37400929Y-43053819D01*
X-36591405Y-43530009D02*
X-36258072Y-43530009D01*
X-36115215Y-44053819D02*
X-36591405Y-44053819D01*
X-36591405Y-44053819D02*
X-36591405Y-43053819D01*
X-36591405Y-43053819D02*
X-36115215Y-43053819D01*
X-35686643Y-44053819D02*
X-35686643Y-43053819D01*
X-35686643Y-43053819D02*
X-35448548Y-43053819D01*
X-35448548Y-43053819D02*
X-35305691Y-43101438D01*
X-35305691Y-43101438D02*
X-35210453Y-43196676D01*
X-35210453Y-43196676D02*
X-35162834Y-43291914D01*
X-35162834Y-43291914D02*
X-35115215Y-43482390D01*
X-35115215Y-43482390D02*
X-35115215Y-43625247D01*
X-35115215Y-43625247D02*
X-35162834Y-43815723D01*
X-35162834Y-43815723D02*
X-35210453Y-43910961D01*
X-35210453Y-43910961D02*
X-35305691Y-44006200D01*
X-35305691Y-44006200D02*
X-35448548Y-44053819D01*
X-35448548Y-44053819D02*
X-35686643Y-44053819D01*
X-34162834Y-44053819D02*
X-34734262Y-44053819D01*
X-34448548Y-44053819D02*
X-34448548Y-43053819D01*
X-34448548Y-43053819D02*
X-34543786Y-43196676D01*
X-34543786Y-43196676D02*
X-34639024Y-43291914D01*
X-34639024Y-43291914D02*
X-34734262Y-43339533D01*
X-33829500Y-43053819D02*
X-33210453Y-43053819D01*
X-33210453Y-43053819D02*
X-33543786Y-43434771D01*
X-33543786Y-43434771D02*
X-33400929Y-43434771D01*
X-33400929Y-43434771D02*
X-33305691Y-43482390D01*
X-33305691Y-43482390D02*
X-33258072Y-43530009D01*
X-33258072Y-43530009D02*
X-33210453Y-43625247D01*
X-33210453Y-43625247D02*
X-33210453Y-43863342D01*
X-33210453Y-43863342D02*
X-33258072Y-43958580D01*
X-33258072Y-43958580D02*
X-33305691Y-44006200D01*
X-33305691Y-44006200D02*
X-33400929Y-44053819D01*
X-33400929Y-44053819D02*
X-33686643Y-44053819D01*
X-33686643Y-44053819D02*
X-33781881Y-44006200D01*
X-33781881Y-44006200D02*
X-33829500Y-43958580D01*
%TO.C,LED23*%
X-93657639Y-55703819D02*
X-94133829Y-55703819D01*
X-94133829Y-55703819D02*
X-94133829Y-54703819D01*
X-93324305Y-55180009D02*
X-92990972Y-55180009D01*
X-92848115Y-55703819D02*
X-93324305Y-55703819D01*
X-93324305Y-55703819D02*
X-93324305Y-54703819D01*
X-93324305Y-54703819D02*
X-92848115Y-54703819D01*
X-92419543Y-55703819D02*
X-92419543Y-54703819D01*
X-92419543Y-54703819D02*
X-92181448Y-54703819D01*
X-92181448Y-54703819D02*
X-92038591Y-54751438D01*
X-92038591Y-54751438D02*
X-91943353Y-54846676D01*
X-91943353Y-54846676D02*
X-91895734Y-54941914D01*
X-91895734Y-54941914D02*
X-91848115Y-55132390D01*
X-91848115Y-55132390D02*
X-91848115Y-55275247D01*
X-91848115Y-55275247D02*
X-91895734Y-55465723D01*
X-91895734Y-55465723D02*
X-91943353Y-55560961D01*
X-91943353Y-55560961D02*
X-92038591Y-55656200D01*
X-92038591Y-55656200D02*
X-92181448Y-55703819D01*
X-92181448Y-55703819D02*
X-92419543Y-55703819D01*
X-91467162Y-54799057D02*
X-91419543Y-54751438D01*
X-91419543Y-54751438D02*
X-91324305Y-54703819D01*
X-91324305Y-54703819D02*
X-91086210Y-54703819D01*
X-91086210Y-54703819D02*
X-90990972Y-54751438D01*
X-90990972Y-54751438D02*
X-90943353Y-54799057D01*
X-90943353Y-54799057D02*
X-90895734Y-54894295D01*
X-90895734Y-54894295D02*
X-90895734Y-54989533D01*
X-90895734Y-54989533D02*
X-90943353Y-55132390D01*
X-90943353Y-55132390D02*
X-91514781Y-55703819D01*
X-91514781Y-55703819D02*
X-90895734Y-55703819D01*
X-90562400Y-54703819D02*
X-89943353Y-54703819D01*
X-89943353Y-54703819D02*
X-90276686Y-55084771D01*
X-90276686Y-55084771D02*
X-90133829Y-55084771D01*
X-90133829Y-55084771D02*
X-90038591Y-55132390D01*
X-90038591Y-55132390D02*
X-89990972Y-55180009D01*
X-89990972Y-55180009D02*
X-89943353Y-55275247D01*
X-89943353Y-55275247D02*
X-89943353Y-55513342D01*
X-89943353Y-55513342D02*
X-89990972Y-55608580D01*
X-89990972Y-55608580D02*
X-90038591Y-55656200D01*
X-90038591Y-55656200D02*
X-90133829Y-55703819D01*
X-90133829Y-55703819D02*
X-90419543Y-55703819D01*
X-90419543Y-55703819D02*
X-90514781Y-55656200D01*
X-90514781Y-55656200D02*
X-90562400Y-55608580D01*
%TO.C,LED10*%
X-93657639Y-19803819D02*
X-94133829Y-19803819D01*
X-94133829Y-19803819D02*
X-94133829Y-18803819D01*
X-93324305Y-19280009D02*
X-92990972Y-19280009D01*
X-92848115Y-19803819D02*
X-93324305Y-19803819D01*
X-93324305Y-19803819D02*
X-93324305Y-18803819D01*
X-93324305Y-18803819D02*
X-92848115Y-18803819D01*
X-92419543Y-19803819D02*
X-92419543Y-18803819D01*
X-92419543Y-18803819D02*
X-92181448Y-18803819D01*
X-92181448Y-18803819D02*
X-92038591Y-18851438D01*
X-92038591Y-18851438D02*
X-91943353Y-18946676D01*
X-91943353Y-18946676D02*
X-91895734Y-19041914D01*
X-91895734Y-19041914D02*
X-91848115Y-19232390D01*
X-91848115Y-19232390D02*
X-91848115Y-19375247D01*
X-91848115Y-19375247D02*
X-91895734Y-19565723D01*
X-91895734Y-19565723D02*
X-91943353Y-19660961D01*
X-91943353Y-19660961D02*
X-92038591Y-19756200D01*
X-92038591Y-19756200D02*
X-92181448Y-19803819D01*
X-92181448Y-19803819D02*
X-92419543Y-19803819D01*
X-90895734Y-19803819D02*
X-91467162Y-19803819D01*
X-91181448Y-19803819D02*
X-91181448Y-18803819D01*
X-91181448Y-18803819D02*
X-91276686Y-18946676D01*
X-91276686Y-18946676D02*
X-91371924Y-19041914D01*
X-91371924Y-19041914D02*
X-91467162Y-19089533D01*
X-90276686Y-18803819D02*
X-90181448Y-18803819D01*
X-90181448Y-18803819D02*
X-90086210Y-18851438D01*
X-90086210Y-18851438D02*
X-90038591Y-18899057D01*
X-90038591Y-18899057D02*
X-89990972Y-18994295D01*
X-89990972Y-18994295D02*
X-89943353Y-19184771D01*
X-89943353Y-19184771D02*
X-89943353Y-19422866D01*
X-89943353Y-19422866D02*
X-89990972Y-19613342D01*
X-89990972Y-19613342D02*
X-90038591Y-19708580D01*
X-90038591Y-19708580D02*
X-90086210Y-19756200D01*
X-90086210Y-19756200D02*
X-90181448Y-19803819D01*
X-90181448Y-19803819D02*
X-90276686Y-19803819D01*
X-90276686Y-19803819D02*
X-90371924Y-19756200D01*
X-90371924Y-19756200D02*
X-90419543Y-19708580D01*
X-90419543Y-19708580D02*
X-90467162Y-19613342D01*
X-90467162Y-19613342D02*
X-90514781Y-19422866D01*
X-90514781Y-19422866D02*
X-90514781Y-19184771D01*
X-90514781Y-19184771D02*
X-90467162Y-18994295D01*
X-90467162Y-18994295D02*
X-90419543Y-18899057D01*
X-90419543Y-18899057D02*
X-90371924Y-18851438D01*
X-90371924Y-18851438D02*
X-90276686Y-18803819D01*
%TO.C,LED17*%
X-112657639Y-40803819D02*
X-113133829Y-40803819D01*
X-113133829Y-40803819D02*
X-113133829Y-39803819D01*
X-112324305Y-40280009D02*
X-111990972Y-40280009D01*
X-111848115Y-40803819D02*
X-112324305Y-40803819D01*
X-112324305Y-40803819D02*
X-112324305Y-39803819D01*
X-112324305Y-39803819D02*
X-111848115Y-39803819D01*
X-111419543Y-40803819D02*
X-111419543Y-39803819D01*
X-111419543Y-39803819D02*
X-111181448Y-39803819D01*
X-111181448Y-39803819D02*
X-111038591Y-39851438D01*
X-111038591Y-39851438D02*
X-110943353Y-39946676D01*
X-110943353Y-39946676D02*
X-110895734Y-40041914D01*
X-110895734Y-40041914D02*
X-110848115Y-40232390D01*
X-110848115Y-40232390D02*
X-110848115Y-40375247D01*
X-110848115Y-40375247D02*
X-110895734Y-40565723D01*
X-110895734Y-40565723D02*
X-110943353Y-40660961D01*
X-110943353Y-40660961D02*
X-111038591Y-40756200D01*
X-111038591Y-40756200D02*
X-111181448Y-40803819D01*
X-111181448Y-40803819D02*
X-111419543Y-40803819D01*
X-109895734Y-40803819D02*
X-110467162Y-40803819D01*
X-110181448Y-40803819D02*
X-110181448Y-39803819D01*
X-110181448Y-39803819D02*
X-110276686Y-39946676D01*
X-110276686Y-39946676D02*
X-110371924Y-40041914D01*
X-110371924Y-40041914D02*
X-110467162Y-40089533D01*
X-109562400Y-39803819D02*
X-108895734Y-39803819D01*
X-108895734Y-39803819D02*
X-109324305Y-40803819D01*
D12*
%TO.C,TP1*%
X-107666285Y-56482533D02*
X-108428189Y-56482533D01*
X-113475810Y-56482533D02*
X-114237714Y-56482533D01*
X-113856762Y-56101580D02*
X-113856762Y-56863485D01*
D10*
%TO.C,LED20*%
X-36924739Y-62053819D02*
X-37400929Y-62053819D01*
X-37400929Y-62053819D02*
X-37400929Y-61053819D01*
X-36591405Y-61530009D02*
X-36258072Y-61530009D01*
X-36115215Y-62053819D02*
X-36591405Y-62053819D01*
X-36591405Y-62053819D02*
X-36591405Y-61053819D01*
X-36591405Y-61053819D02*
X-36115215Y-61053819D01*
X-35686643Y-62053819D02*
X-35686643Y-61053819D01*
X-35686643Y-61053819D02*
X-35448548Y-61053819D01*
X-35448548Y-61053819D02*
X-35305691Y-61101438D01*
X-35305691Y-61101438D02*
X-35210453Y-61196676D01*
X-35210453Y-61196676D02*
X-35162834Y-61291914D01*
X-35162834Y-61291914D02*
X-35115215Y-61482390D01*
X-35115215Y-61482390D02*
X-35115215Y-61625247D01*
X-35115215Y-61625247D02*
X-35162834Y-61815723D01*
X-35162834Y-61815723D02*
X-35210453Y-61910961D01*
X-35210453Y-61910961D02*
X-35305691Y-62006200D01*
X-35305691Y-62006200D02*
X-35448548Y-62053819D01*
X-35448548Y-62053819D02*
X-35686643Y-62053819D01*
X-34734262Y-61149057D02*
X-34686643Y-61101438D01*
X-34686643Y-61101438D02*
X-34591405Y-61053819D01*
X-34591405Y-61053819D02*
X-34353310Y-61053819D01*
X-34353310Y-61053819D02*
X-34258072Y-61101438D01*
X-34258072Y-61101438D02*
X-34210453Y-61149057D01*
X-34210453Y-61149057D02*
X-34162834Y-61244295D01*
X-34162834Y-61244295D02*
X-34162834Y-61339533D01*
X-34162834Y-61339533D02*
X-34210453Y-61482390D01*
X-34210453Y-61482390D02*
X-34781881Y-62053819D01*
X-34781881Y-62053819D02*
X-34162834Y-62053819D01*
X-33543786Y-61053819D02*
X-33448548Y-61053819D01*
X-33448548Y-61053819D02*
X-33353310Y-61101438D01*
X-33353310Y-61101438D02*
X-33305691Y-61149057D01*
X-33305691Y-61149057D02*
X-33258072Y-61244295D01*
X-33258072Y-61244295D02*
X-33210453Y-61434771D01*
X-33210453Y-61434771D02*
X-33210453Y-61672866D01*
X-33210453Y-61672866D02*
X-33258072Y-61863342D01*
X-33258072Y-61863342D02*
X-33305691Y-61958580D01*
X-33305691Y-61958580D02*
X-33353310Y-62006200D01*
X-33353310Y-62006200D02*
X-33448548Y-62053819D01*
X-33448548Y-62053819D02*
X-33543786Y-62053819D01*
X-33543786Y-62053819D02*
X-33639024Y-62006200D01*
X-33639024Y-62006200D02*
X-33686643Y-61958580D01*
X-33686643Y-61958580D02*
X-33734262Y-61863342D01*
X-33734262Y-61863342D02*
X-33781881Y-61672866D01*
X-33781881Y-61672866D02*
X-33781881Y-61434771D01*
X-33781881Y-61434771D02*
X-33734262Y-61244295D01*
X-33734262Y-61244295D02*
X-33686643Y-61149057D01*
X-33686643Y-61149057D02*
X-33639024Y-61101438D01*
X-33639024Y-61101438D02*
X-33543786Y-61053819D01*
%TO.C,LED18*%
X-131657639Y-43803819D02*
X-132133829Y-43803819D01*
X-132133829Y-43803819D02*
X-132133829Y-42803819D01*
X-131324305Y-43280009D02*
X-130990972Y-43280009D01*
X-130848115Y-43803819D02*
X-131324305Y-43803819D01*
X-131324305Y-43803819D02*
X-131324305Y-42803819D01*
X-131324305Y-42803819D02*
X-130848115Y-42803819D01*
X-130419543Y-43803819D02*
X-130419543Y-42803819D01*
X-130419543Y-42803819D02*
X-130181448Y-42803819D01*
X-130181448Y-42803819D02*
X-130038591Y-42851438D01*
X-130038591Y-42851438D02*
X-129943353Y-42946676D01*
X-129943353Y-42946676D02*
X-129895734Y-43041914D01*
X-129895734Y-43041914D02*
X-129848115Y-43232390D01*
X-129848115Y-43232390D02*
X-129848115Y-43375247D01*
X-129848115Y-43375247D02*
X-129895734Y-43565723D01*
X-129895734Y-43565723D02*
X-129943353Y-43660961D01*
X-129943353Y-43660961D02*
X-130038591Y-43756200D01*
X-130038591Y-43756200D02*
X-130181448Y-43803819D01*
X-130181448Y-43803819D02*
X-130419543Y-43803819D01*
X-128895734Y-43803819D02*
X-129467162Y-43803819D01*
X-129181448Y-43803819D02*
X-129181448Y-42803819D01*
X-129181448Y-42803819D02*
X-129276686Y-42946676D01*
X-129276686Y-42946676D02*
X-129371924Y-43041914D01*
X-129371924Y-43041914D02*
X-129467162Y-43089533D01*
X-128324305Y-43232390D02*
X-128419543Y-43184771D01*
X-128419543Y-43184771D02*
X-128467162Y-43137152D01*
X-128467162Y-43137152D02*
X-128514781Y-43041914D01*
X-128514781Y-43041914D02*
X-128514781Y-42994295D01*
X-128514781Y-42994295D02*
X-128467162Y-42899057D01*
X-128467162Y-42899057D02*
X-128419543Y-42851438D01*
X-128419543Y-42851438D02*
X-128324305Y-42803819D01*
X-128324305Y-42803819D02*
X-128133829Y-42803819D01*
X-128133829Y-42803819D02*
X-128038591Y-42851438D01*
X-128038591Y-42851438D02*
X-127990972Y-42899057D01*
X-127990972Y-42899057D02*
X-127943353Y-42994295D01*
X-127943353Y-42994295D02*
X-127943353Y-43041914D01*
X-127943353Y-43041914D02*
X-127990972Y-43137152D01*
X-127990972Y-43137152D02*
X-128038591Y-43184771D01*
X-128038591Y-43184771D02*
X-128133829Y-43232390D01*
X-128133829Y-43232390D02*
X-128324305Y-43232390D01*
X-128324305Y-43232390D02*
X-128419543Y-43280009D01*
X-128419543Y-43280009D02*
X-128467162Y-43327628D01*
X-128467162Y-43327628D02*
X-128514781Y-43422866D01*
X-128514781Y-43422866D02*
X-128514781Y-43613342D01*
X-128514781Y-43613342D02*
X-128467162Y-43708580D01*
X-128467162Y-43708580D02*
X-128419543Y-43756200D01*
X-128419543Y-43756200D02*
X-128324305Y-43803819D01*
X-128324305Y-43803819D02*
X-128133829Y-43803819D01*
X-128133829Y-43803819D02*
X-128038591Y-43756200D01*
X-128038591Y-43756200D02*
X-127990972Y-43708580D01*
X-127990972Y-43708580D02*
X-127943353Y-43613342D01*
X-127943353Y-43613342D02*
X-127943353Y-43422866D01*
X-127943353Y-43422866D02*
X-127990972Y-43327628D01*
X-127990972Y-43327628D02*
X-128038591Y-43280009D01*
X-128038591Y-43280009D02*
X-128133829Y-43232390D01*
%TO.C,LED8*%
X-55181448Y-22803819D02*
X-55657638Y-22803819D01*
X-55657638Y-22803819D02*
X-55657638Y-21803819D01*
X-54848114Y-22280009D02*
X-54514781Y-22280009D01*
X-54371924Y-22803819D02*
X-54848114Y-22803819D01*
X-54848114Y-22803819D02*
X-54848114Y-21803819D01*
X-54848114Y-21803819D02*
X-54371924Y-21803819D01*
X-53943352Y-22803819D02*
X-53943352Y-21803819D01*
X-53943352Y-21803819D02*
X-53705257Y-21803819D01*
X-53705257Y-21803819D02*
X-53562400Y-21851438D01*
X-53562400Y-21851438D02*
X-53467162Y-21946676D01*
X-53467162Y-21946676D02*
X-53419543Y-22041914D01*
X-53419543Y-22041914D02*
X-53371924Y-22232390D01*
X-53371924Y-22232390D02*
X-53371924Y-22375247D01*
X-53371924Y-22375247D02*
X-53419543Y-22565723D01*
X-53419543Y-22565723D02*
X-53467162Y-22660961D01*
X-53467162Y-22660961D02*
X-53562400Y-22756200D01*
X-53562400Y-22756200D02*
X-53705257Y-22803819D01*
X-53705257Y-22803819D02*
X-53943352Y-22803819D01*
X-52800495Y-22232390D02*
X-52895733Y-22184771D01*
X-52895733Y-22184771D02*
X-52943352Y-22137152D01*
X-52943352Y-22137152D02*
X-52990971Y-22041914D01*
X-52990971Y-22041914D02*
X-52990971Y-21994295D01*
X-52990971Y-21994295D02*
X-52943352Y-21899057D01*
X-52943352Y-21899057D02*
X-52895733Y-21851438D01*
X-52895733Y-21851438D02*
X-52800495Y-21803819D01*
X-52800495Y-21803819D02*
X-52610019Y-21803819D01*
X-52610019Y-21803819D02*
X-52514781Y-21851438D01*
X-52514781Y-21851438D02*
X-52467162Y-21899057D01*
X-52467162Y-21899057D02*
X-52419543Y-21994295D01*
X-52419543Y-21994295D02*
X-52419543Y-22041914D01*
X-52419543Y-22041914D02*
X-52467162Y-22137152D01*
X-52467162Y-22137152D02*
X-52514781Y-22184771D01*
X-52514781Y-22184771D02*
X-52610019Y-22232390D01*
X-52610019Y-22232390D02*
X-52800495Y-22232390D01*
X-52800495Y-22232390D02*
X-52895733Y-22280009D01*
X-52895733Y-22280009D02*
X-52943352Y-22327628D01*
X-52943352Y-22327628D02*
X-52990971Y-22422866D01*
X-52990971Y-22422866D02*
X-52990971Y-22613342D01*
X-52990971Y-22613342D02*
X-52943352Y-22708580D01*
X-52943352Y-22708580D02*
X-52895733Y-22756200D01*
X-52895733Y-22756200D02*
X-52800495Y-22803819D01*
X-52800495Y-22803819D02*
X-52610019Y-22803819D01*
X-52610019Y-22803819D02*
X-52514781Y-22756200D01*
X-52514781Y-22756200D02*
X-52467162Y-22708580D01*
X-52467162Y-22708580D02*
X-52419543Y-22613342D01*
X-52419543Y-22613342D02*
X-52419543Y-22422866D01*
X-52419543Y-22422866D02*
X-52467162Y-22327628D01*
X-52467162Y-22327628D02*
X-52514781Y-22280009D01*
X-52514781Y-22280009D02*
X-52610019Y-22232390D01*
%TO.C,LED5*%
X-112181448Y-4803819D02*
X-112657638Y-4803819D01*
X-112657638Y-4803819D02*
X-112657638Y-3803819D01*
X-111848114Y-4280009D02*
X-111514781Y-4280009D01*
X-111371924Y-4803819D02*
X-111848114Y-4803819D01*
X-111848114Y-4803819D02*
X-111848114Y-3803819D01*
X-111848114Y-3803819D02*
X-111371924Y-3803819D01*
X-110943352Y-4803819D02*
X-110943352Y-3803819D01*
X-110943352Y-3803819D02*
X-110705257Y-3803819D01*
X-110705257Y-3803819D02*
X-110562400Y-3851438D01*
X-110562400Y-3851438D02*
X-110467162Y-3946676D01*
X-110467162Y-3946676D02*
X-110419543Y-4041914D01*
X-110419543Y-4041914D02*
X-110371924Y-4232390D01*
X-110371924Y-4232390D02*
X-110371924Y-4375247D01*
X-110371924Y-4375247D02*
X-110419543Y-4565723D01*
X-110419543Y-4565723D02*
X-110467162Y-4660961D01*
X-110467162Y-4660961D02*
X-110562400Y-4756200D01*
X-110562400Y-4756200D02*
X-110705257Y-4803819D01*
X-110705257Y-4803819D02*
X-110943352Y-4803819D01*
X-109467162Y-3803819D02*
X-109943352Y-3803819D01*
X-109943352Y-3803819D02*
X-109990971Y-4280009D01*
X-109990971Y-4280009D02*
X-109943352Y-4232390D01*
X-109943352Y-4232390D02*
X-109848114Y-4184771D01*
X-109848114Y-4184771D02*
X-109610019Y-4184771D01*
X-109610019Y-4184771D02*
X-109514781Y-4232390D01*
X-109514781Y-4232390D02*
X-109467162Y-4280009D01*
X-109467162Y-4280009D02*
X-109419543Y-4375247D01*
X-109419543Y-4375247D02*
X-109419543Y-4613342D01*
X-109419543Y-4613342D02*
X-109467162Y-4708580D01*
X-109467162Y-4708580D02*
X-109514781Y-4756200D01*
X-109514781Y-4756200D02*
X-109610019Y-4803819D01*
X-109610019Y-4803819D02*
X-109848114Y-4803819D01*
X-109848114Y-4803819D02*
X-109943352Y-4756200D01*
X-109943352Y-4756200D02*
X-109990971Y-4708580D01*
%TO.C,NICE_NANO1*%
X-15061333Y-3328819D02*
X-15061333Y-2328819D01*
X-15061333Y-2328819D02*
X-14489905Y-3328819D01*
X-14489905Y-3328819D02*
X-14489905Y-2328819D01*
X-14013714Y-3328819D02*
X-14013714Y-2328819D01*
X-12966096Y-3233580D02*
X-13013715Y-3281200D01*
X-13013715Y-3281200D02*
X-13156572Y-3328819D01*
X-13156572Y-3328819D02*
X-13251810Y-3328819D01*
X-13251810Y-3328819D02*
X-13394667Y-3281200D01*
X-13394667Y-3281200D02*
X-13489905Y-3185961D01*
X-13489905Y-3185961D02*
X-13537524Y-3090723D01*
X-13537524Y-3090723D02*
X-13585143Y-2900247D01*
X-13585143Y-2900247D02*
X-13585143Y-2757390D01*
X-13585143Y-2757390D02*
X-13537524Y-2566914D01*
X-13537524Y-2566914D02*
X-13489905Y-2471676D01*
X-13489905Y-2471676D02*
X-13394667Y-2376438D01*
X-13394667Y-2376438D02*
X-13251810Y-2328819D01*
X-13251810Y-2328819D02*
X-13156572Y-2328819D01*
X-13156572Y-2328819D02*
X-13013715Y-2376438D01*
X-13013715Y-2376438D02*
X-12966096Y-2424057D01*
X-12537524Y-2805009D02*
X-12204191Y-2805009D01*
X-12061334Y-3328819D02*
X-12537524Y-3328819D01*
X-12537524Y-3328819D02*
X-12537524Y-2328819D01*
X-12537524Y-2328819D02*
X-12061334Y-2328819D01*
X-11870857Y-3424057D02*
X-11108953Y-3424057D01*
X-10870857Y-3328819D02*
X-10870857Y-2328819D01*
X-10870857Y-2328819D02*
X-10299429Y-3328819D01*
X-10299429Y-3328819D02*
X-10299429Y-2328819D01*
X-9870857Y-3043104D02*
X-9394667Y-3043104D01*
X-9966095Y-3328819D02*
X-9632762Y-2328819D01*
X-9632762Y-2328819D02*
X-9299429Y-3328819D01*
X-8966095Y-3328819D02*
X-8966095Y-2328819D01*
X-8966095Y-2328819D02*
X-8394667Y-3328819D01*
X-8394667Y-3328819D02*
X-8394667Y-2328819D01*
X-7728000Y-2328819D02*
X-7537524Y-2328819D01*
X-7537524Y-2328819D02*
X-7442286Y-2376438D01*
X-7442286Y-2376438D02*
X-7347048Y-2471676D01*
X-7347048Y-2471676D02*
X-7299429Y-2662152D01*
X-7299429Y-2662152D02*
X-7299429Y-2995485D01*
X-7299429Y-2995485D02*
X-7347048Y-3185961D01*
X-7347048Y-3185961D02*
X-7442286Y-3281200D01*
X-7442286Y-3281200D02*
X-7537524Y-3328819D01*
X-7537524Y-3328819D02*
X-7728000Y-3328819D01*
X-7728000Y-3328819D02*
X-7823238Y-3281200D01*
X-7823238Y-3281200D02*
X-7918476Y-3185961D01*
X-7918476Y-3185961D02*
X-7966095Y-2995485D01*
X-7966095Y-2995485D02*
X-7966095Y-2662152D01*
X-7966095Y-2662152D02*
X-7918476Y-2471676D01*
X-7918476Y-2471676D02*
X-7823238Y-2376438D01*
X-7823238Y-2376438D02*
X-7728000Y-2328819D01*
X-6347048Y-3328819D02*
X-6918476Y-3328819D01*
X-6632762Y-3328819D02*
X-6632762Y-2328819D01*
X-6632762Y-2328819D02*
X-6728000Y-2471676D01*
X-6728000Y-2471676D02*
X-6823238Y-2566914D01*
X-6823238Y-2566914D02*
X-6918476Y-2614533D01*
%TO.C,LED21*%
X-55657639Y-58803819D02*
X-56133829Y-58803819D01*
X-56133829Y-58803819D02*
X-56133829Y-57803819D01*
X-55324305Y-58280009D02*
X-54990972Y-58280009D01*
X-54848115Y-58803819D02*
X-55324305Y-58803819D01*
X-55324305Y-58803819D02*
X-55324305Y-57803819D01*
X-55324305Y-57803819D02*
X-54848115Y-57803819D01*
X-54419543Y-58803819D02*
X-54419543Y-57803819D01*
X-54419543Y-57803819D02*
X-54181448Y-57803819D01*
X-54181448Y-57803819D02*
X-54038591Y-57851438D01*
X-54038591Y-57851438D02*
X-53943353Y-57946676D01*
X-53943353Y-57946676D02*
X-53895734Y-58041914D01*
X-53895734Y-58041914D02*
X-53848115Y-58232390D01*
X-53848115Y-58232390D02*
X-53848115Y-58375247D01*
X-53848115Y-58375247D02*
X-53895734Y-58565723D01*
X-53895734Y-58565723D02*
X-53943353Y-58660961D01*
X-53943353Y-58660961D02*
X-54038591Y-58756200D01*
X-54038591Y-58756200D02*
X-54181448Y-58803819D01*
X-54181448Y-58803819D02*
X-54419543Y-58803819D01*
X-53467162Y-57899057D02*
X-53419543Y-57851438D01*
X-53419543Y-57851438D02*
X-53324305Y-57803819D01*
X-53324305Y-57803819D02*
X-53086210Y-57803819D01*
X-53086210Y-57803819D02*
X-52990972Y-57851438D01*
X-52990972Y-57851438D02*
X-52943353Y-57899057D01*
X-52943353Y-57899057D02*
X-52895734Y-57994295D01*
X-52895734Y-57994295D02*
X-52895734Y-58089533D01*
X-52895734Y-58089533D02*
X-52943353Y-58232390D01*
X-52943353Y-58232390D02*
X-53514781Y-58803819D01*
X-53514781Y-58803819D02*
X-52895734Y-58803819D01*
X-51943353Y-58803819D02*
X-52514781Y-58803819D01*
X-52229067Y-58803819D02*
X-52229067Y-57803819D01*
X-52229067Y-57803819D02*
X-52324305Y-57946676D01*
X-52324305Y-57946676D02*
X-52419543Y-58041914D01*
X-52419543Y-58041914D02*
X-52514781Y-58089533D01*
%TO.C,LED11*%
X-112657639Y-22803819D02*
X-113133829Y-22803819D01*
X-113133829Y-22803819D02*
X-113133829Y-21803819D01*
X-112324305Y-22280009D02*
X-111990972Y-22280009D01*
X-111848115Y-22803819D02*
X-112324305Y-22803819D01*
X-112324305Y-22803819D02*
X-112324305Y-21803819D01*
X-112324305Y-21803819D02*
X-111848115Y-21803819D01*
X-111419543Y-22803819D02*
X-111419543Y-21803819D01*
X-111419543Y-21803819D02*
X-111181448Y-21803819D01*
X-111181448Y-21803819D02*
X-111038591Y-21851438D01*
X-111038591Y-21851438D02*
X-110943353Y-21946676D01*
X-110943353Y-21946676D02*
X-110895734Y-22041914D01*
X-110895734Y-22041914D02*
X-110848115Y-22232390D01*
X-110848115Y-22232390D02*
X-110848115Y-22375247D01*
X-110848115Y-22375247D02*
X-110895734Y-22565723D01*
X-110895734Y-22565723D02*
X-110943353Y-22660961D01*
X-110943353Y-22660961D02*
X-111038591Y-22756200D01*
X-111038591Y-22756200D02*
X-111181448Y-22803819D01*
X-111181448Y-22803819D02*
X-111419543Y-22803819D01*
X-109895734Y-22803819D02*
X-110467162Y-22803819D01*
X-110181448Y-22803819D02*
X-110181448Y-21803819D01*
X-110181448Y-21803819D02*
X-110276686Y-21946676D01*
X-110276686Y-21946676D02*
X-110371924Y-22041914D01*
X-110371924Y-22041914D02*
X-110467162Y-22089533D01*
X-108943353Y-22803819D02*
X-109514781Y-22803819D01*
X-109229067Y-22803819D02*
X-109229067Y-21803819D01*
X-109229067Y-21803819D02*
X-109324305Y-21946676D01*
X-109324305Y-21946676D02*
X-109419543Y-22041914D01*
X-109419543Y-22041914D02*
X-109514781Y-22089533D01*
%TO.C,LED7*%
X-36448548Y-26098819D02*
X-36924738Y-26098819D01*
X-36924738Y-26098819D02*
X-36924738Y-25098819D01*
X-36115214Y-25575009D02*
X-35781881Y-25575009D01*
X-35639024Y-26098819D02*
X-36115214Y-26098819D01*
X-36115214Y-26098819D02*
X-36115214Y-25098819D01*
X-36115214Y-25098819D02*
X-35639024Y-25098819D01*
X-35210452Y-26098819D02*
X-35210452Y-25098819D01*
X-35210452Y-25098819D02*
X-34972357Y-25098819D01*
X-34972357Y-25098819D02*
X-34829500Y-25146438D01*
X-34829500Y-25146438D02*
X-34734262Y-25241676D01*
X-34734262Y-25241676D02*
X-34686643Y-25336914D01*
X-34686643Y-25336914D02*
X-34639024Y-25527390D01*
X-34639024Y-25527390D02*
X-34639024Y-25670247D01*
X-34639024Y-25670247D02*
X-34686643Y-25860723D01*
X-34686643Y-25860723D02*
X-34734262Y-25955961D01*
X-34734262Y-25955961D02*
X-34829500Y-26051200D01*
X-34829500Y-26051200D02*
X-34972357Y-26098819D01*
X-34972357Y-26098819D02*
X-35210452Y-26098819D01*
X-34305690Y-25098819D02*
X-33639024Y-25098819D01*
X-33639024Y-25098819D02*
X-34067595Y-26098819D01*
%TO.C,LED9*%
X-74181448Y-19803819D02*
X-74657638Y-19803819D01*
X-74657638Y-19803819D02*
X-74657638Y-18803819D01*
X-73848114Y-19280009D02*
X-73514781Y-19280009D01*
X-73371924Y-19803819D02*
X-73848114Y-19803819D01*
X-73848114Y-19803819D02*
X-73848114Y-18803819D01*
X-73848114Y-18803819D02*
X-73371924Y-18803819D01*
X-72943352Y-19803819D02*
X-72943352Y-18803819D01*
X-72943352Y-18803819D02*
X-72705257Y-18803819D01*
X-72705257Y-18803819D02*
X-72562400Y-18851438D01*
X-72562400Y-18851438D02*
X-72467162Y-18946676D01*
X-72467162Y-18946676D02*
X-72419543Y-19041914D01*
X-72419543Y-19041914D02*
X-72371924Y-19232390D01*
X-72371924Y-19232390D02*
X-72371924Y-19375247D01*
X-72371924Y-19375247D02*
X-72419543Y-19565723D01*
X-72419543Y-19565723D02*
X-72467162Y-19660961D01*
X-72467162Y-19660961D02*
X-72562400Y-19756200D01*
X-72562400Y-19756200D02*
X-72705257Y-19803819D01*
X-72705257Y-19803819D02*
X-72943352Y-19803819D01*
X-71895733Y-19803819D02*
X-71705257Y-19803819D01*
X-71705257Y-19803819D02*
X-71610019Y-19756200D01*
X-71610019Y-19756200D02*
X-71562400Y-19708580D01*
X-71562400Y-19708580D02*
X-71467162Y-19565723D01*
X-71467162Y-19565723D02*
X-71419543Y-19375247D01*
X-71419543Y-19375247D02*
X-71419543Y-18994295D01*
X-71419543Y-18994295D02*
X-71467162Y-18899057D01*
X-71467162Y-18899057D02*
X-71514781Y-18851438D01*
X-71514781Y-18851438D02*
X-71610019Y-18803819D01*
X-71610019Y-18803819D02*
X-71800495Y-18803819D01*
X-71800495Y-18803819D02*
X-71895733Y-18851438D01*
X-71895733Y-18851438D02*
X-71943352Y-18899057D01*
X-71943352Y-18899057D02*
X-71990971Y-18994295D01*
X-71990971Y-18994295D02*
X-71990971Y-19232390D01*
X-71990971Y-19232390D02*
X-71943352Y-19327628D01*
X-71943352Y-19327628D02*
X-71895733Y-19375247D01*
X-71895733Y-19375247D02*
X-71800495Y-19422866D01*
X-71800495Y-19422866D02*
X-71610019Y-19422866D01*
X-71610019Y-19422866D02*
X-71514781Y-19375247D01*
X-71514781Y-19375247D02*
X-71467162Y-19327628D01*
X-71467162Y-19327628D02*
X-71419543Y-19232390D01*
%TO.C,LED14*%
X-55657639Y-40803819D02*
X-56133829Y-40803819D01*
X-56133829Y-40803819D02*
X-56133829Y-39803819D01*
X-55324305Y-40280009D02*
X-54990972Y-40280009D01*
X-54848115Y-40803819D02*
X-55324305Y-40803819D01*
X-55324305Y-40803819D02*
X-55324305Y-39803819D01*
X-55324305Y-39803819D02*
X-54848115Y-39803819D01*
X-54419543Y-40803819D02*
X-54419543Y-39803819D01*
X-54419543Y-39803819D02*
X-54181448Y-39803819D01*
X-54181448Y-39803819D02*
X-54038591Y-39851438D01*
X-54038591Y-39851438D02*
X-53943353Y-39946676D01*
X-53943353Y-39946676D02*
X-53895734Y-40041914D01*
X-53895734Y-40041914D02*
X-53848115Y-40232390D01*
X-53848115Y-40232390D02*
X-53848115Y-40375247D01*
X-53848115Y-40375247D02*
X-53895734Y-40565723D01*
X-53895734Y-40565723D02*
X-53943353Y-40660961D01*
X-53943353Y-40660961D02*
X-54038591Y-40756200D01*
X-54038591Y-40756200D02*
X-54181448Y-40803819D01*
X-54181448Y-40803819D02*
X-54419543Y-40803819D01*
X-52895734Y-40803819D02*
X-53467162Y-40803819D01*
X-53181448Y-40803819D02*
X-53181448Y-39803819D01*
X-53181448Y-39803819D02*
X-53276686Y-39946676D01*
X-53276686Y-39946676D02*
X-53371924Y-40041914D01*
X-53371924Y-40041914D02*
X-53467162Y-40089533D01*
X-52038591Y-40137152D02*
X-52038591Y-40803819D01*
X-52276686Y-39756200D02*
X-52514781Y-40470485D01*
X-52514781Y-40470485D02*
X-51895734Y-40470485D01*
%TO.C,LED2*%
X-55181448Y-4803819D02*
X-55657638Y-4803819D01*
X-55657638Y-4803819D02*
X-55657638Y-3803819D01*
X-54848114Y-4280009D02*
X-54514781Y-4280009D01*
X-54371924Y-4803819D02*
X-54848114Y-4803819D01*
X-54848114Y-4803819D02*
X-54848114Y-3803819D01*
X-54848114Y-3803819D02*
X-54371924Y-3803819D01*
X-53943352Y-4803819D02*
X-53943352Y-3803819D01*
X-53943352Y-3803819D02*
X-53705257Y-3803819D01*
X-53705257Y-3803819D02*
X-53562400Y-3851438D01*
X-53562400Y-3851438D02*
X-53467162Y-3946676D01*
X-53467162Y-3946676D02*
X-53419543Y-4041914D01*
X-53419543Y-4041914D02*
X-53371924Y-4232390D01*
X-53371924Y-4232390D02*
X-53371924Y-4375247D01*
X-53371924Y-4375247D02*
X-53419543Y-4565723D01*
X-53419543Y-4565723D02*
X-53467162Y-4660961D01*
X-53467162Y-4660961D02*
X-53562400Y-4756200D01*
X-53562400Y-4756200D02*
X-53705257Y-4803819D01*
X-53705257Y-4803819D02*
X-53943352Y-4803819D01*
X-52990971Y-3899057D02*
X-52943352Y-3851438D01*
X-52943352Y-3851438D02*
X-52848114Y-3803819D01*
X-52848114Y-3803819D02*
X-52610019Y-3803819D01*
X-52610019Y-3803819D02*
X-52514781Y-3851438D01*
X-52514781Y-3851438D02*
X-52467162Y-3899057D01*
X-52467162Y-3899057D02*
X-52419543Y-3994295D01*
X-52419543Y-3994295D02*
X-52419543Y-4089533D01*
X-52419543Y-4089533D02*
X-52467162Y-4232390D01*
X-52467162Y-4232390D02*
X-53038590Y-4803819D01*
X-53038590Y-4803819D02*
X-52419543Y-4803819D01*
%TO.C,LED16*%
X-93657639Y-37803819D02*
X-94133829Y-37803819D01*
X-94133829Y-37803819D02*
X-94133829Y-36803819D01*
X-93324305Y-37280009D02*
X-92990972Y-37280009D01*
X-92848115Y-37803819D02*
X-93324305Y-37803819D01*
X-93324305Y-37803819D02*
X-93324305Y-36803819D01*
X-93324305Y-36803819D02*
X-92848115Y-36803819D01*
X-92419543Y-37803819D02*
X-92419543Y-36803819D01*
X-92419543Y-36803819D02*
X-92181448Y-36803819D01*
X-92181448Y-36803819D02*
X-92038591Y-36851438D01*
X-92038591Y-36851438D02*
X-91943353Y-36946676D01*
X-91943353Y-36946676D02*
X-91895734Y-37041914D01*
X-91895734Y-37041914D02*
X-91848115Y-37232390D01*
X-91848115Y-37232390D02*
X-91848115Y-37375247D01*
X-91848115Y-37375247D02*
X-91895734Y-37565723D01*
X-91895734Y-37565723D02*
X-91943353Y-37660961D01*
X-91943353Y-37660961D02*
X-92038591Y-37756200D01*
X-92038591Y-37756200D02*
X-92181448Y-37803819D01*
X-92181448Y-37803819D02*
X-92419543Y-37803819D01*
X-90895734Y-37803819D02*
X-91467162Y-37803819D01*
X-91181448Y-37803819D02*
X-91181448Y-36803819D01*
X-91181448Y-36803819D02*
X-91276686Y-36946676D01*
X-91276686Y-36946676D02*
X-91371924Y-37041914D01*
X-91371924Y-37041914D02*
X-91467162Y-37089533D01*
X-90038591Y-36803819D02*
X-90229067Y-36803819D01*
X-90229067Y-36803819D02*
X-90324305Y-36851438D01*
X-90324305Y-36851438D02*
X-90371924Y-36899057D01*
X-90371924Y-36899057D02*
X-90467162Y-37041914D01*
X-90467162Y-37041914D02*
X-90514781Y-37232390D01*
X-90514781Y-37232390D02*
X-90514781Y-37613342D01*
X-90514781Y-37613342D02*
X-90467162Y-37708580D01*
X-90467162Y-37708580D02*
X-90419543Y-37756200D01*
X-90419543Y-37756200D02*
X-90324305Y-37803819D01*
X-90324305Y-37803819D02*
X-90133829Y-37803819D01*
X-90133829Y-37803819D02*
X-90038591Y-37756200D01*
X-90038591Y-37756200D02*
X-89990972Y-37708580D01*
X-89990972Y-37708580D02*
X-89943353Y-37613342D01*
X-89943353Y-37613342D02*
X-89943353Y-37375247D01*
X-89943353Y-37375247D02*
X-89990972Y-37280009D01*
X-89990972Y-37280009D02*
X-90038591Y-37232390D01*
X-90038591Y-37232390D02*
X-90133829Y-37184771D01*
X-90133829Y-37184771D02*
X-90324305Y-37184771D01*
X-90324305Y-37184771D02*
X-90419543Y-37232390D01*
X-90419543Y-37232390D02*
X-90467162Y-37280009D01*
X-90467162Y-37280009D02*
X-90514781Y-37375247D01*
%TO.C,LED22*%
X-74657639Y-55803819D02*
X-75133829Y-55803819D01*
X-75133829Y-55803819D02*
X-75133829Y-54803819D01*
X-74324305Y-55280009D02*
X-73990972Y-55280009D01*
X-73848115Y-55803819D02*
X-74324305Y-55803819D01*
X-74324305Y-55803819D02*
X-74324305Y-54803819D01*
X-74324305Y-54803819D02*
X-73848115Y-54803819D01*
X-73419543Y-55803819D02*
X-73419543Y-54803819D01*
X-73419543Y-54803819D02*
X-73181448Y-54803819D01*
X-73181448Y-54803819D02*
X-73038591Y-54851438D01*
X-73038591Y-54851438D02*
X-72943353Y-54946676D01*
X-72943353Y-54946676D02*
X-72895734Y-55041914D01*
X-72895734Y-55041914D02*
X-72848115Y-55232390D01*
X-72848115Y-55232390D02*
X-72848115Y-55375247D01*
X-72848115Y-55375247D02*
X-72895734Y-55565723D01*
X-72895734Y-55565723D02*
X-72943353Y-55660961D01*
X-72943353Y-55660961D02*
X-73038591Y-55756200D01*
X-73038591Y-55756200D02*
X-73181448Y-55803819D01*
X-73181448Y-55803819D02*
X-73419543Y-55803819D01*
X-72467162Y-54899057D02*
X-72419543Y-54851438D01*
X-72419543Y-54851438D02*
X-72324305Y-54803819D01*
X-72324305Y-54803819D02*
X-72086210Y-54803819D01*
X-72086210Y-54803819D02*
X-71990972Y-54851438D01*
X-71990972Y-54851438D02*
X-71943353Y-54899057D01*
X-71943353Y-54899057D02*
X-71895734Y-54994295D01*
X-71895734Y-54994295D02*
X-71895734Y-55089533D01*
X-71895734Y-55089533D02*
X-71943353Y-55232390D01*
X-71943353Y-55232390D02*
X-72514781Y-55803819D01*
X-72514781Y-55803819D02*
X-71895734Y-55803819D01*
X-71514781Y-54899057D02*
X-71467162Y-54851438D01*
X-71467162Y-54851438D02*
X-71371924Y-54803819D01*
X-71371924Y-54803819D02*
X-71133829Y-54803819D01*
X-71133829Y-54803819D02*
X-71038591Y-54851438D01*
X-71038591Y-54851438D02*
X-70990972Y-54899057D01*
X-70990972Y-54899057D02*
X-70943353Y-54994295D01*
X-70943353Y-54994295D02*
X-70943353Y-55089533D01*
X-70943353Y-55089533D02*
X-70990972Y-55232390D01*
X-70990972Y-55232390D02*
X-71562400Y-55803819D01*
X-71562400Y-55803819D02*
X-70943353Y-55803819D01*
%TO.C,LED6*%
X-131181448Y-7803819D02*
X-131657638Y-7803819D01*
X-131657638Y-7803819D02*
X-131657638Y-6803819D01*
X-130848114Y-7280009D02*
X-130514781Y-7280009D01*
X-130371924Y-7803819D02*
X-130848114Y-7803819D01*
X-130848114Y-7803819D02*
X-130848114Y-6803819D01*
X-130848114Y-6803819D02*
X-130371924Y-6803819D01*
X-129943352Y-7803819D02*
X-129943352Y-6803819D01*
X-129943352Y-6803819D02*
X-129705257Y-6803819D01*
X-129705257Y-6803819D02*
X-129562400Y-6851438D01*
X-129562400Y-6851438D02*
X-129467162Y-6946676D01*
X-129467162Y-6946676D02*
X-129419543Y-7041914D01*
X-129419543Y-7041914D02*
X-129371924Y-7232390D01*
X-129371924Y-7232390D02*
X-129371924Y-7375247D01*
X-129371924Y-7375247D02*
X-129419543Y-7565723D01*
X-129419543Y-7565723D02*
X-129467162Y-7660961D01*
X-129467162Y-7660961D02*
X-129562400Y-7756200D01*
X-129562400Y-7756200D02*
X-129705257Y-7803819D01*
X-129705257Y-7803819D02*
X-129943352Y-7803819D01*
X-128514781Y-6803819D02*
X-128705257Y-6803819D01*
X-128705257Y-6803819D02*
X-128800495Y-6851438D01*
X-128800495Y-6851438D02*
X-128848114Y-6899057D01*
X-128848114Y-6899057D02*
X-128943352Y-7041914D01*
X-128943352Y-7041914D02*
X-128990971Y-7232390D01*
X-128990971Y-7232390D02*
X-128990971Y-7613342D01*
X-128990971Y-7613342D02*
X-128943352Y-7708580D01*
X-128943352Y-7708580D02*
X-128895733Y-7756200D01*
X-128895733Y-7756200D02*
X-128800495Y-7803819D01*
X-128800495Y-7803819D02*
X-128610019Y-7803819D01*
X-128610019Y-7803819D02*
X-128514781Y-7756200D01*
X-128514781Y-7756200D02*
X-128467162Y-7708580D01*
X-128467162Y-7708580D02*
X-128419543Y-7613342D01*
X-128419543Y-7613342D02*
X-128419543Y-7375247D01*
X-128419543Y-7375247D02*
X-128467162Y-7280009D01*
X-128467162Y-7280009D02*
X-128514781Y-7232390D01*
X-128514781Y-7232390D02*
X-128610019Y-7184771D01*
X-128610019Y-7184771D02*
X-128800495Y-7184771D01*
X-128800495Y-7184771D02*
X-128895733Y-7232390D01*
X-128895733Y-7232390D02*
X-128943352Y-7280009D01*
X-128943352Y-7280009D02*
X-128990971Y-7375247D01*
%TO.C,LED19*%
X-14747319Y-64468131D02*
X-15213104Y-64369125D01*
X-15213104Y-64369125D02*
X-15005192Y-63390978D01*
X-14312364Y-64025072D02*
X-13986314Y-64094376D01*
X-13955485Y-64636440D02*
X-14421270Y-64537435D01*
X-14421270Y-64537435D02*
X-14213358Y-63559287D01*
X-14213358Y-63559287D02*
X-13747574Y-63658293D01*
X-13536279Y-64725546D02*
X-13328367Y-63747398D01*
X-13328367Y-63747398D02*
X-13095475Y-63796901D01*
X-13095475Y-63796901D02*
X-12965640Y-63873181D01*
X-12965640Y-63873181D02*
X-12892284Y-63986139D01*
X-12892284Y-63986139D02*
X-12865507Y-64089196D01*
X-12865507Y-64089196D02*
X-12858531Y-64285411D01*
X-12858531Y-64285411D02*
X-12888233Y-64425146D01*
X-12888233Y-64425146D02*
X-12974413Y-64601559D01*
X-12974413Y-64601559D02*
X-13040793Y-64684816D01*
X-13040793Y-64684816D02*
X-13153751Y-64758172D01*
X-13153751Y-64758172D02*
X-13303387Y-64775048D01*
X-13303387Y-64775048D02*
X-13536279Y-64725546D01*
X-12045768Y-65042363D02*
X-12604710Y-64923557D01*
X-12325239Y-64982960D02*
X-12117327Y-64004812D01*
X-12117327Y-64004812D02*
X-12240186Y-64124747D01*
X-12240186Y-64124747D02*
X-12353144Y-64198102D01*
X-12353144Y-64198102D02*
X-12456202Y-64224880D01*
X-11579984Y-65141369D02*
X-11393670Y-65180971D01*
X-11393670Y-65180971D02*
X-11290612Y-65154194D01*
X-11290612Y-65154194D02*
X-11234133Y-65117516D01*
X-11234133Y-65117516D02*
X-11111275Y-64997582D01*
X-11111275Y-64997582D02*
X-11025094Y-64821168D01*
X-11025094Y-64821168D02*
X-10945890Y-64448541D01*
X-10945890Y-64448541D02*
X-10972667Y-64345483D01*
X-10972667Y-64345483D02*
X-11009345Y-64289004D01*
X-11009345Y-64289004D02*
X-11092601Y-64222625D01*
X-11092601Y-64222625D02*
X-11278915Y-64183022D01*
X-11278915Y-64183022D02*
X-11381973Y-64209800D01*
X-11381973Y-64209800D02*
X-11438452Y-64246478D01*
X-11438452Y-64246478D02*
X-11504831Y-64329734D01*
X-11504831Y-64329734D02*
X-11554334Y-64562626D01*
X-11554334Y-64562626D02*
X-11527557Y-64665684D01*
X-11527557Y-64665684D02*
X-11490879Y-64722163D01*
X-11490879Y-64722163D02*
X-11407622Y-64788542D01*
X-11407622Y-64788542D02*
X-11221309Y-64828145D01*
X-11221309Y-64828145D02*
X-11118251Y-64801367D01*
X-11118251Y-64801367D02*
X-11061772Y-64764689D01*
X-11061772Y-64764689D02*
X-10995393Y-64681433D01*
%TO.C,LED12*%
X-131657639Y-25803819D02*
X-132133829Y-25803819D01*
X-132133829Y-25803819D02*
X-132133829Y-24803819D01*
X-131324305Y-25280009D02*
X-130990972Y-25280009D01*
X-130848115Y-25803819D02*
X-131324305Y-25803819D01*
X-131324305Y-25803819D02*
X-131324305Y-24803819D01*
X-131324305Y-24803819D02*
X-130848115Y-24803819D01*
X-130419543Y-25803819D02*
X-130419543Y-24803819D01*
X-130419543Y-24803819D02*
X-130181448Y-24803819D01*
X-130181448Y-24803819D02*
X-130038591Y-24851438D01*
X-130038591Y-24851438D02*
X-129943353Y-24946676D01*
X-129943353Y-24946676D02*
X-129895734Y-25041914D01*
X-129895734Y-25041914D02*
X-129848115Y-25232390D01*
X-129848115Y-25232390D02*
X-129848115Y-25375247D01*
X-129848115Y-25375247D02*
X-129895734Y-25565723D01*
X-129895734Y-25565723D02*
X-129943353Y-25660961D01*
X-129943353Y-25660961D02*
X-130038591Y-25756200D01*
X-130038591Y-25756200D02*
X-130181448Y-25803819D01*
X-130181448Y-25803819D02*
X-130419543Y-25803819D01*
X-128895734Y-25803819D02*
X-129467162Y-25803819D01*
X-129181448Y-25803819D02*
X-129181448Y-24803819D01*
X-129181448Y-24803819D02*
X-129276686Y-24946676D01*
X-129276686Y-24946676D02*
X-129371924Y-25041914D01*
X-129371924Y-25041914D02*
X-129467162Y-25089533D01*
X-128514781Y-24899057D02*
X-128467162Y-24851438D01*
X-128467162Y-24851438D02*
X-128371924Y-24803819D01*
X-128371924Y-24803819D02*
X-128133829Y-24803819D01*
X-128133829Y-24803819D02*
X-128038591Y-24851438D01*
X-128038591Y-24851438D02*
X-127990972Y-24899057D01*
X-127990972Y-24899057D02*
X-127943353Y-24994295D01*
X-127943353Y-24994295D02*
X-127943353Y-25089533D01*
X-127943353Y-25089533D02*
X-127990972Y-25232390D01*
X-127990972Y-25232390D02*
X-128562400Y-25803819D01*
X-128562400Y-25803819D02*
X-127943353Y-25803819D01*
%TO.C,SW_B0*%
X-118082400Y-4754000D02*
X-118082400Y-3754000D01*
X-118082400Y-17754000D02*
X-118082400Y-16754000D01*
X-118082400Y-17754000D02*
X-117082400Y-17754000D01*
X-117082400Y-3754000D02*
X-118082400Y-3754000D01*
X-105082400Y-17754000D02*
X-104082400Y-17754000D01*
X-104082400Y-3754000D02*
X-105082400Y-3754000D01*
X-104082400Y-3754000D02*
X-104082400Y-4754000D01*
X-104082400Y-16754000D02*
X-104082400Y-17754000D01*
X-104082400Y-17754000D02*
X-105082400Y-17754000D01*
%TO.C,SW_B3*%
X-80082400Y-55754000D02*
X-80082400Y-54754000D01*
X-80082400Y-68754000D02*
X-80082400Y-67754000D01*
X-80082400Y-68754000D02*
X-79082400Y-68754000D01*
X-79082400Y-54754000D02*
X-80082400Y-54754000D01*
X-67082400Y-68754000D02*
X-66082400Y-68754000D01*
X-66082400Y-54754000D02*
X-67082400Y-54754000D01*
X-66082400Y-54754000D02*
X-66082400Y-55754000D01*
X-66082400Y-67754000D02*
X-66082400Y-68754000D01*
X-66082400Y-68754000D02*
X-67082400Y-68754000D01*
%TO.C,SW_B4*%
X-99082400Y-55754000D02*
X-99082400Y-54754000D01*
X-99082400Y-68754000D02*
X-99082400Y-67754000D01*
X-99082400Y-68754000D02*
X-98082400Y-68754000D01*
X-98082400Y-54754000D02*
X-99082400Y-54754000D01*
X-86082400Y-68754000D02*
X-85082400Y-68754000D01*
X-85082400Y-54754000D02*
X-86082400Y-54754000D01*
X-85082400Y-54754000D02*
X-85082400Y-55754000D01*
X-85082400Y-67754000D02*
X-85082400Y-68754000D01*
X-85082400Y-68754000D02*
X-86082400Y-68754000D01*
%TO.C,SW_C1*%
X-99082400Y-19754000D02*
X-99082400Y-18754000D01*
X-99082400Y-32754000D02*
X-99082400Y-31754000D01*
X-99082400Y-32754000D02*
X-98082400Y-32754000D01*
X-98082400Y-18754000D02*
X-99082400Y-18754000D01*
X-86082400Y-32754000D02*
X-85082400Y-32754000D01*
X-85082400Y-18754000D02*
X-86082400Y-18754000D01*
X-85082400Y-18754000D02*
X-85082400Y-19754000D01*
X-85082400Y-31754000D02*
X-85082400Y-32754000D01*
X-85082400Y-32754000D02*
X-86082400Y-32754000D01*
D13*
%TO.C,LED3*%
X-74747400Y-2039000D02*
X-74747400Y-3959000D01*
X-74747400Y-3959000D02*
X-72062400Y-3959000D01*
X-72062400Y-2039000D02*
X-74747400Y-2039000D01*
D10*
%TO.C,SW_B1*%
X-118082400Y-22754000D02*
X-118082400Y-21754000D01*
X-118082400Y-35754000D02*
X-118082400Y-34754000D01*
X-118082400Y-35754000D02*
X-117082400Y-35754000D01*
X-117082400Y-21754000D02*
X-118082400Y-21754000D01*
X-105082400Y-35754000D02*
X-104082400Y-35754000D01*
X-104082400Y-21754000D02*
X-105082400Y-21754000D01*
X-104082400Y-21754000D02*
X-104082400Y-22754000D01*
X-104082400Y-34754000D02*
X-104082400Y-35754000D01*
X-104082400Y-35754000D02*
X-105082400Y-35754000D01*
D13*
%TO.C,LED15*%
X-74747400Y-38039000D02*
X-74747400Y-39959000D01*
X-74747400Y-39959000D02*
X-72062400Y-39959000D01*
X-72062400Y-38039000D02*
X-74747400Y-38039000D01*
%TO.C,Nice!View1*%
X-4318000Y-36984000D02*
X-4318000Y-38314000D01*
X-5648000Y-36984000D02*
X-4318000Y-36984000D01*
X-6918000Y-36984000D02*
X-17138000Y-36984000D01*
X-6918000Y-36984000D02*
X-6918000Y-39644000D01*
X-17138000Y-36984000D02*
X-17138000Y-39644000D01*
X-6918000Y-39644000D02*
X-17138000Y-39644000D01*
%TO.C,LED4*%
X-93747400Y-2039000D02*
X-93747400Y-3959000D01*
X-93747400Y-3959000D02*
X-91062400Y-3959000D01*
X-91062400Y-2039000D02*
X-93747400Y-2039000D01*
%TO.C,LED1*%
X-37014500Y-8289000D02*
X-37014500Y-10209000D01*
X-37014500Y-10209000D02*
X-34329500Y-10209000D01*
X-34329500Y-8289000D02*
X-37014500Y-8289000D01*
D10*
%TO.C,SW_F0*%
X-42349500Y-8004000D02*
X-42349500Y-7004000D01*
X-42349500Y-21004000D02*
X-42349500Y-20004000D01*
X-42349500Y-21004000D02*
X-41349500Y-21004000D01*
X-41349500Y-7004000D02*
X-42349500Y-7004000D01*
X-29349500Y-21004000D02*
X-28349500Y-21004000D01*
X-28349500Y-7004000D02*
X-29349500Y-7004000D01*
X-28349500Y-7004000D02*
X-28349500Y-8004000D01*
X-28349500Y-20004000D02*
X-28349500Y-21004000D01*
X-28349500Y-21004000D02*
X-29349500Y-21004000D01*
D14*
%TO.C,RE_1*%
X-2123000Y-57714000D02*
X-2123000Y-55714000D01*
X-2123000Y-45714000D02*
X-2123000Y-43714000D01*
X-2123000Y-43714000D02*
X-17523000Y-43714000D01*
X-2723000Y-57714000D02*
X-2123000Y-57714000D01*
X-17523000Y-57714000D02*
X-6623000Y-57714000D01*
D13*
%TO.C,LED13*%
X-37014500Y-44289000D02*
X-37014500Y-46209000D01*
X-37014500Y-46209000D02*
X-34329500Y-46209000D01*
X-34329500Y-44289000D02*
X-37014500Y-44289000D01*
%TO.C,LED23*%
X-93747400Y-55939000D02*
X-93747400Y-57859000D01*
X-93747400Y-57859000D02*
X-91062400Y-57859000D01*
X-91062400Y-55939000D02*
X-93747400Y-55939000D01*
D10*
%TO.C,SW_A2*%
X-137082400Y-43754000D02*
X-137082400Y-42754000D01*
X-137082400Y-56754000D02*
X-137082400Y-55754000D01*
X-137082400Y-56754000D02*
X-136082400Y-56754000D01*
X-136082400Y-42754000D02*
X-137082400Y-42754000D01*
X-124082400Y-56754000D02*
X-123082400Y-56754000D01*
X-123082400Y-42754000D02*
X-124082400Y-42754000D01*
X-123082400Y-42754000D02*
X-123082400Y-43754000D01*
X-123082400Y-55754000D02*
X-123082400Y-56754000D01*
X-123082400Y-56754000D02*
X-124082400Y-56754000D01*
D13*
%TO.C,LED10*%
X-93747400Y-20039000D02*
X-93747400Y-21959000D01*
X-93747400Y-21959000D02*
X-91062400Y-21959000D01*
X-91062400Y-20039000D02*
X-93747400Y-20039000D01*
D10*
%TO.C,SW_D1*%
X-80082400Y-19754000D02*
X-80082400Y-18754000D01*
X-80082400Y-32754000D02*
X-80082400Y-31754000D01*
X-80082400Y-32754000D02*
X-79082400Y-32754000D01*
X-79082400Y-18754000D02*
X-80082400Y-18754000D01*
X-67082400Y-32754000D02*
X-66082400Y-32754000D01*
X-66082400Y-18754000D02*
X-67082400Y-18754000D01*
X-66082400Y-18754000D02*
X-66082400Y-19754000D01*
X-66082400Y-31754000D02*
X-66082400Y-32754000D01*
X-66082400Y-32754000D02*
X-67082400Y-32754000D01*
D13*
%TO.C,LED17*%
X-112747400Y-41039000D02*
X-112747400Y-42959000D01*
X-112747400Y-42959000D02*
X-110062400Y-42959000D01*
X-110062400Y-41039000D02*
X-112747400Y-41039000D01*
%TO.C,LED20*%
X-37014500Y-62289000D02*
X-37014500Y-64209000D01*
X-37014500Y-64209000D02*
X-34329500Y-64209000D01*
X-34329500Y-62289000D02*
X-37014500Y-62289000D01*
D10*
%TO.C,SW_E2*%
X-61082400Y-40754000D02*
X-61082400Y-39754000D01*
X-61082400Y-53754000D02*
X-61082400Y-52754000D01*
X-61082400Y-53754000D02*
X-60082400Y-53754000D01*
X-60082400Y-39754000D02*
X-61082400Y-39754000D01*
X-48082400Y-53754000D02*
X-47082400Y-53754000D01*
X-47082400Y-39754000D02*
X-48082400Y-39754000D01*
X-47082400Y-39754000D02*
X-47082400Y-40754000D01*
X-47082400Y-52754000D02*
X-47082400Y-53754000D01*
X-47082400Y-53754000D02*
X-48082400Y-53754000D01*
D13*
%TO.C,LED18*%
X-131747400Y-44039000D02*
X-131747400Y-45959000D01*
X-131747400Y-45959000D02*
X-129062400Y-45959000D01*
X-129062400Y-44039000D02*
X-131747400Y-44039000D01*
D10*
%TO.C,SW_D2*%
X-80082400Y-37754000D02*
X-80082400Y-36754000D01*
X-80082400Y-50754000D02*
X-80082400Y-49754000D01*
X-80082400Y-50754000D02*
X-79082400Y-50754000D01*
X-79082400Y-36754000D02*
X-80082400Y-36754000D01*
X-67082400Y-50754000D02*
X-66082400Y-50754000D01*
X-66082400Y-36754000D02*
X-67082400Y-36754000D01*
X-66082400Y-36754000D02*
X-66082400Y-37754000D01*
X-66082400Y-49754000D02*
X-66082400Y-50754000D01*
X-66082400Y-50754000D02*
X-67082400Y-50754000D01*
%TO.C,SW_E0*%
X-61082400Y-4754000D02*
X-61082400Y-3754000D01*
X-61082400Y-17754000D02*
X-61082400Y-16754000D01*
X-61082400Y-17754000D02*
X-60082400Y-17754000D01*
X-60082400Y-3754000D02*
X-61082400Y-3754000D01*
X-48082400Y-17754000D02*
X-47082400Y-17754000D01*
X-47082400Y-3754000D02*
X-48082400Y-3754000D01*
X-47082400Y-3754000D02*
X-47082400Y-4754000D01*
X-47082400Y-16754000D02*
X-47082400Y-17754000D01*
X-47082400Y-17754000D02*
X-48082400Y-17754000D01*
D13*
%TO.C,LED8*%
X-55747400Y-23039000D02*
X-55747400Y-24959000D01*
X-55747400Y-24959000D02*
X-53062400Y-24959000D01*
X-53062400Y-23039000D02*
X-55747400Y-23039000D01*
%TO.C,LED5*%
X-112747400Y-5039000D02*
X-112747400Y-6959000D01*
X-112747400Y-6959000D02*
X-110062400Y-6959000D01*
X-110062400Y-5039000D02*
X-112747400Y-5039000D01*
%TO.C,NICE_NANO1*%
X-19678000Y-1774000D02*
X-19678000Y-34404000D01*
D12*
X-19678000Y-34404000D02*
X-17188000Y-34404000D01*
D13*
X-17188000Y-3874000D02*
X-17188000Y-34404000D01*
X-11728000Y-3874000D02*
X-17188000Y-3874000D01*
X-4268000Y-3874000D02*
X-9728000Y-3874000D01*
X-4268000Y-34404000D02*
X-4268000Y-3874000D01*
D12*
X-4268000Y-34404000D02*
X-1778000Y-34404000D01*
D13*
X-1778000Y-1774000D02*
X-19678000Y-1774000D01*
X-1778000Y-34404000D02*
X-1778000Y-1774000D01*
%TO.C,LED21*%
X-55747400Y-59039000D02*
X-55747400Y-60959000D01*
X-55747400Y-60959000D02*
X-53062400Y-60959000D01*
X-53062400Y-59039000D02*
X-55747400Y-59039000D01*
D10*
%TO.C,SW_A1*%
X-137082400Y-25754000D02*
X-137082400Y-24754000D01*
X-137082400Y-38754000D02*
X-137082400Y-37754000D01*
X-137082400Y-38754000D02*
X-136082400Y-38754000D01*
X-136082400Y-24754000D02*
X-137082400Y-24754000D01*
X-124082400Y-38754000D02*
X-123082400Y-38754000D01*
X-123082400Y-24754000D02*
X-124082400Y-24754000D01*
X-123082400Y-24754000D02*
X-123082400Y-25754000D01*
X-123082400Y-37754000D02*
X-123082400Y-38754000D01*
X-123082400Y-38754000D02*
X-124082400Y-38754000D01*
%TO.C,SW_A0*%
X-137082400Y-7754000D02*
X-137082400Y-6754000D01*
X-137082400Y-20754000D02*
X-137082400Y-19754000D01*
X-137082400Y-20754000D02*
X-136082400Y-20754000D01*
X-136082400Y-6754000D02*
X-137082400Y-6754000D01*
X-124082400Y-20754000D02*
X-123082400Y-20754000D01*
X-123082400Y-6754000D02*
X-124082400Y-6754000D01*
X-123082400Y-6754000D02*
X-123082400Y-7754000D01*
X-123082400Y-19754000D02*
X-123082400Y-20754000D01*
X-123082400Y-20754000D02*
X-124082400Y-20754000D01*
D13*
%TO.C,LED11*%
X-112747400Y-23039000D02*
X-112747400Y-24959000D01*
X-112747400Y-24959000D02*
X-110062400Y-24959000D01*
X-110062400Y-23039000D02*
X-112747400Y-23039000D01*
D10*
%TO.C,SW_F2*%
X-42349500Y-44004000D02*
X-42349500Y-43004000D01*
X-42349500Y-57004000D02*
X-42349500Y-56004000D01*
X-42349500Y-57004000D02*
X-41349500Y-57004000D01*
X-41349500Y-43004000D02*
X-42349500Y-43004000D01*
X-29349500Y-57004000D02*
X-28349500Y-57004000D01*
X-28349500Y-43004000D02*
X-29349500Y-43004000D01*
X-28349500Y-43004000D02*
X-28349500Y-44004000D01*
X-28349500Y-56004000D02*
X-28349500Y-57004000D01*
X-28349500Y-57004000D02*
X-29349500Y-57004000D01*
%TO.C,SW_D0*%
X-80082400Y-1754000D02*
X-80082400Y-754000D01*
X-80082400Y-14754000D02*
X-80082400Y-13754000D01*
X-80082400Y-14754000D02*
X-79082400Y-14754000D01*
X-79082400Y-754000D02*
X-80082400Y-754000D01*
X-67082400Y-14754000D02*
X-66082400Y-14754000D01*
X-66082400Y-754000D02*
X-67082400Y-754000D01*
X-66082400Y-754000D02*
X-66082400Y-1754000D01*
X-66082400Y-13754000D02*
X-66082400Y-14754000D01*
X-66082400Y-14754000D02*
X-67082400Y-14754000D01*
%TO.C,SW_E3*%
X-20010399Y-63298498D02*
X-19802487Y-62320350D01*
X-22713251Y-76014416D02*
X-22505339Y-75036269D01*
X-22713251Y-76014416D02*
X-21735103Y-76222328D01*
X-18824340Y-62528262D02*
X-19802487Y-62320350D01*
X-9997332Y-78717268D02*
X-9019185Y-78925180D01*
X-6108421Y-65231114D02*
X-7086569Y-65023202D01*
X-6108421Y-65231114D02*
X-6316333Y-66209261D01*
X-8811273Y-77947032D02*
X-9019185Y-78925180D01*
X-9019185Y-78925180D02*
X-9997332Y-78717268D01*
D13*
%TO.C,LED7*%
X-37014500Y-26334000D02*
X-37014500Y-28254000D01*
X-37014500Y-28254000D02*
X-34329500Y-28254000D01*
X-34329500Y-26334000D02*
X-37014500Y-26334000D01*
D10*
%TO.C,SW_F1*%
X-42349500Y-26049000D02*
X-42349500Y-25049000D01*
X-42349500Y-39049000D02*
X-42349500Y-38049000D01*
X-42349500Y-39049000D02*
X-41349500Y-39049000D01*
X-41349500Y-25049000D02*
X-42349500Y-25049000D01*
X-29349500Y-39049000D02*
X-28349500Y-39049000D01*
X-28349500Y-25049000D02*
X-29349500Y-25049000D01*
X-28349500Y-25049000D02*
X-28349500Y-26049000D01*
X-28349500Y-38049000D02*
X-28349500Y-39049000D01*
X-28349500Y-39049000D02*
X-29349500Y-39049000D01*
%TO.C,SW_C2*%
X-99082400Y-37754000D02*
X-99082400Y-36754000D01*
X-99082400Y-50754000D02*
X-99082400Y-49754000D01*
X-99082400Y-50754000D02*
X-98082400Y-50754000D01*
X-98082400Y-36754000D02*
X-99082400Y-36754000D01*
X-86082400Y-50754000D02*
X-85082400Y-50754000D01*
X-85082400Y-36754000D02*
X-86082400Y-36754000D01*
X-85082400Y-36754000D02*
X-85082400Y-37754000D01*
X-85082400Y-49754000D02*
X-85082400Y-50754000D01*
X-85082400Y-50754000D02*
X-86082400Y-50754000D01*
D13*
%TO.C,BATT1*%
X-27652197Y-11520000D02*
X-26592197Y-11520000D01*
X-27652197Y-12580000D02*
X-27652197Y-11520000D01*
X-27652197Y-13580000D02*
X-27652197Y-15640000D01*
X-27652197Y-13580000D02*
X-25532197Y-13580000D01*
X-27652197Y-15640000D02*
X-25532197Y-15640000D01*
X-25532197Y-13580000D02*
X-25532197Y-15640000D01*
%TO.C,LED9*%
X-74747400Y-20039000D02*
X-74747400Y-21959000D01*
X-74747400Y-21959000D02*
X-72062400Y-21959000D01*
X-72062400Y-20039000D02*
X-74747400Y-20039000D01*
%TO.C,LED14*%
X-55747400Y-41039000D02*
X-55747400Y-42959000D01*
X-55747400Y-42959000D02*
X-53062400Y-42959000D01*
X-53062400Y-41039000D02*
X-55747400Y-41039000D01*
D10*
%TO.C,SW_E1*%
X-61082400Y-22754000D02*
X-61082400Y-21754000D01*
X-61082400Y-35754000D02*
X-61082400Y-34754000D01*
X-61082400Y-35754000D02*
X-60082400Y-35754000D01*
X-60082400Y-21754000D02*
X-61082400Y-21754000D01*
X-48082400Y-35754000D02*
X-47082400Y-35754000D01*
X-47082400Y-21754000D02*
X-48082400Y-21754000D01*
X-47082400Y-21754000D02*
X-47082400Y-22754000D01*
X-47082400Y-34754000D02*
X-47082400Y-35754000D01*
X-47082400Y-35754000D02*
X-48082400Y-35754000D01*
D13*
%TO.C,LED2*%
X-55747400Y-5039000D02*
X-55747400Y-6959000D01*
X-55747400Y-6959000D02*
X-53062400Y-6959000D01*
X-53062400Y-5039000D02*
X-55747400Y-5039000D01*
D10*
%TO.C,SW_C0*%
X-99082400Y-1754000D02*
X-99082400Y-754000D01*
X-99082400Y-14754000D02*
X-99082400Y-13754000D01*
X-99082400Y-14754000D02*
X-98082400Y-14754000D01*
X-98082400Y-754000D02*
X-99082400Y-754000D01*
X-86082400Y-14754000D02*
X-85082400Y-14754000D01*
X-85082400Y-754000D02*
X-86082400Y-754000D01*
X-85082400Y-754000D02*
X-85082400Y-1754000D01*
X-85082400Y-13754000D02*
X-85082400Y-14754000D01*
X-85082400Y-14754000D02*
X-86082400Y-14754000D01*
D13*
%TO.C,LED16*%
X-93747400Y-38039000D02*
X-93747400Y-39959000D01*
X-93747400Y-39959000D02*
X-91062400Y-39959000D01*
X-91062400Y-38039000D02*
X-93747400Y-38039000D01*
%TO.C,LED22*%
X-74747400Y-56039000D02*
X-74747400Y-57959000D01*
X-74747400Y-57959000D02*
X-72062400Y-57959000D01*
X-72062400Y-56039000D02*
X-74747400Y-56039000D01*
D10*
%TO.C,SW_C3*%
X-61082400Y-58754000D02*
X-61082400Y-57754000D01*
X-61082400Y-71754000D02*
X-61082400Y-70754000D01*
X-61082400Y-71754000D02*
X-60082400Y-71754000D01*
X-60082400Y-57754000D02*
X-61082400Y-57754000D01*
X-48082400Y-71754000D02*
X-47082400Y-71754000D01*
X-47082400Y-57754000D02*
X-48082400Y-57754000D01*
X-47082400Y-57754000D02*
X-47082400Y-58754000D01*
X-47082400Y-70754000D02*
X-47082400Y-71754000D01*
X-47082400Y-71754000D02*
X-48082400Y-71754000D01*
%TO.C,SW_B2*%
X-118082400Y-40754000D02*
X-118082400Y-39754000D01*
X-118082400Y-53754000D02*
X-118082400Y-52754000D01*
X-118082400Y-53754000D02*
X-117082400Y-53754000D01*
X-117082400Y-39754000D02*
X-118082400Y-39754000D01*
X-105082400Y-53754000D02*
X-104082400Y-53754000D01*
X-104082400Y-39754000D02*
X-105082400Y-39754000D01*
X-104082400Y-39754000D02*
X-104082400Y-40754000D01*
X-104082400Y-52754000D02*
X-104082400Y-53754000D01*
X-104082400Y-53754000D02*
X-105082400Y-53754000D01*
%TO.C,SW_F3*%
X-42349500Y-62004000D02*
X-42349500Y-61004000D01*
X-42349500Y-75004000D02*
X-42349500Y-74004000D01*
X-42349500Y-75004000D02*
X-41349500Y-75004000D01*
X-41349500Y-61004000D02*
X-42349500Y-61004000D01*
X-29349500Y-75004000D02*
X-28349500Y-75004000D01*
X-28349500Y-61004000D02*
X-29349500Y-61004000D01*
X-28349500Y-61004000D02*
X-28349500Y-62004000D01*
X-28349500Y-74004000D02*
X-28349500Y-75004000D01*
X-28349500Y-75004000D02*
X-29349500Y-75004000D01*
D13*
%TO.C,LED6*%
X-131747400Y-8039000D02*
X-131747400Y-9959000D01*
X-131747400Y-9959000D02*
X-129062400Y-9959000D01*
X-129062400Y-8039000D02*
X-131747400Y-8039000D01*
%TO.C,LED19*%
X-14884015Y-64679511D02*
X-15283206Y-66557554D01*
X-15283206Y-66557554D02*
X-12656880Y-67115797D01*
X-12257689Y-65237754D02*
X-14884015Y-64679511D01*
%TO.C,LED12*%
X-131747400Y-26039000D02*
X-131747400Y-27959000D01*
X-131747400Y-27959000D02*
X-129062400Y-27959000D01*
X-129062400Y-26039000D02*
X-131747400Y-26039000D01*
%TD*%
%LPC*%
D15*
%TO.C,SW_B0*%
X-116582400Y-10754000D03*
D16*
X-116082400Y-14504000D03*
D17*
X-111082400Y-10754000D03*
D16*
X-111082400Y-16704000D03*
D18*
X-105862400Y-6554000D03*
D15*
X-105582400Y-10754000D03*
%TD*%
%TO.C,SW_B3*%
X-78582400Y-61754000D03*
D16*
X-78082400Y-65504000D03*
D17*
X-73082400Y-61754000D03*
D16*
X-73082400Y-67704000D03*
D18*
X-67862400Y-57554000D03*
D15*
X-67582400Y-61754000D03*
%TD*%
D19*
%TO.C,H3*%
X-25364400Y-23066000D03*
%TD*%
D15*
%TO.C,SW_B4*%
X-97582400Y-61754000D03*
D16*
X-97082400Y-65504000D03*
D17*
X-92082400Y-61754000D03*
D16*
X-92082400Y-67704000D03*
D18*
X-86862400Y-57554000D03*
D15*
X-86582400Y-61754000D03*
%TD*%
%TO.C,SW_C1*%
X-97582400Y-25754000D03*
D16*
X-97082400Y-29504000D03*
D17*
X-92082400Y-25754000D03*
D16*
X-92082400Y-31704000D03*
D18*
X-86862400Y-21554000D03*
D15*
X-86582400Y-25754000D03*
%TD*%
D20*
%TO.C,LED3*%
X-73999900Y-2999000D03*
X-72124900Y-2999000D03*
%TD*%
D15*
%TO.C,SW_B1*%
X-116582400Y-28754000D03*
D16*
X-116082400Y-32504000D03*
D17*
X-111082400Y-28754000D03*
D16*
X-111082400Y-34704000D03*
D18*
X-105862400Y-24554000D03*
D15*
X-105582400Y-28754000D03*
%TD*%
D20*
%TO.C,LED15*%
X-73999900Y-38999000D03*
X-72124900Y-38999000D03*
%TD*%
D21*
%TO.C,Nice!View1*%
X-5648000Y-38314000D03*
D22*
X-8188000Y-38314000D03*
X-10728000Y-38314000D03*
X-13268000Y-38314000D03*
X-15808000Y-38314000D03*
%TD*%
D19*
%TO.C,H4*%
X-26012400Y-59004000D03*
%TD*%
D20*
%TO.C,LED4*%
X-92999900Y-2999000D03*
X-91124900Y-2999000D03*
%TD*%
%TO.C,LED1*%
X-36267000Y-9249000D03*
X-34392000Y-9249000D03*
%TD*%
D15*
%TO.C,SW_F0*%
X-40849500Y-14004000D03*
D16*
X-40349500Y-17754000D03*
D17*
X-35349500Y-14004000D03*
D16*
X-35349500Y-19954000D03*
D18*
X-30129500Y-9804000D03*
D15*
X-29849500Y-14004000D03*
%TD*%
D23*
%TO.C,RE_1*%
X-4998000Y-44914000D03*
D24*
X-4998000Y-55024000D03*
X-4998000Y-52484000D03*
X-4998000Y-49944000D03*
X-4998000Y-47404000D03*
X-3773000Y-57414000D03*
X-5623000Y-57414000D03*
%TD*%
D19*
%TO.C,H1*%
X-121302400Y-22822000D03*
%TD*%
D20*
%TO.C,LED13*%
X-36267000Y-45249000D03*
X-34392000Y-45249000D03*
%TD*%
%TO.C,LED23*%
X-92999900Y-56899000D03*
X-91124900Y-56899000D03*
%TD*%
D15*
%TO.C,SW_A2*%
X-135582400Y-49754000D03*
D16*
X-135082400Y-53504000D03*
D17*
X-130082400Y-49754000D03*
D16*
X-130082400Y-55704000D03*
D18*
X-124862400Y-45554000D03*
D15*
X-124582400Y-49754000D03*
%TD*%
D20*
%TO.C,LED10*%
X-92999900Y-20999000D03*
X-91124900Y-20999000D03*
%TD*%
D15*
%TO.C,SW_D1*%
X-78582400Y-25754000D03*
D16*
X-78082400Y-29504000D03*
D17*
X-73082400Y-25754000D03*
D16*
X-73082400Y-31704000D03*
D18*
X-67862400Y-21554000D03*
D15*
X-67582400Y-25754000D03*
%TD*%
D20*
%TO.C,LED17*%
X-111999900Y-41999000D03*
X-110124900Y-41999000D03*
%TD*%
D25*
%TO.C,TP1*%
X-109762400Y-56474000D03*
X-112162400Y-56474000D03*
%TD*%
D20*
%TO.C,LED20*%
X-36267000Y-63249000D03*
X-34392000Y-63249000D03*
%TD*%
D15*
%TO.C,SW_E2*%
X-59582400Y-46754000D03*
D16*
X-59082400Y-50504000D03*
D17*
X-54082400Y-46754000D03*
D16*
X-54082400Y-52704000D03*
D18*
X-48862400Y-42554000D03*
D15*
X-48582400Y-46754000D03*
%TD*%
D20*
%TO.C,LED18*%
X-130999900Y-44999000D03*
X-129124900Y-44999000D03*
%TD*%
D15*
%TO.C,SW_D2*%
X-78582400Y-43754000D03*
D16*
X-78082400Y-47504000D03*
D17*
X-73082400Y-43754000D03*
D16*
X-73082400Y-49704000D03*
D18*
X-67862400Y-39554000D03*
D15*
X-67582400Y-43754000D03*
%TD*%
%TO.C,SW_E0*%
X-59582400Y-10754000D03*
D16*
X-59082400Y-14504000D03*
D17*
X-54082400Y-10754000D03*
D16*
X-54082400Y-16704000D03*
D18*
X-48862400Y-6554000D03*
D15*
X-48582400Y-10754000D03*
%TD*%
D20*
%TO.C,LED8*%
X-54999900Y-23999000D03*
X-53124900Y-23999000D03*
%TD*%
%TO.C,LED5*%
X-111999900Y-5999000D03*
X-110124900Y-5999000D03*
%TD*%
D26*
%TO.C,NICE_NANO1*%
X-18348000Y-5204000D03*
D27*
X-18348000Y-7744000D03*
X-18348000Y-10284000D03*
X-18348000Y-12824000D03*
X-18348000Y-15364000D03*
X-18348000Y-17904000D03*
X-18348000Y-20444000D03*
X-18348000Y-22984000D03*
X-18348000Y-25524000D03*
X-18348000Y-28064000D03*
X-18348000Y-30604000D03*
X-18348000Y-33144000D03*
X-3108000Y-33144000D03*
X-3108000Y-30604000D03*
X-3108000Y-28064000D03*
X-3108000Y-25524000D03*
X-3108000Y-22984000D03*
X-3108000Y-20444000D03*
X-3108000Y-17904000D03*
X-3108000Y-15364000D03*
X-3108000Y-12824000D03*
X-3108000Y-10284000D03*
X-3108000Y-7744000D03*
X-3108000Y-5204000D03*
%TD*%
D20*
%TO.C,LED21*%
X-54999900Y-59999000D03*
X-53124900Y-59999000D03*
%TD*%
D19*
%TO.C,H5*%
X-82210400Y-34750000D03*
%TD*%
D15*
%TO.C,SW_A1*%
X-135582400Y-31754000D03*
D16*
X-135082400Y-35504000D03*
D17*
X-130082400Y-31754000D03*
D16*
X-130082400Y-37704000D03*
D18*
X-124862400Y-27554000D03*
D15*
X-124582400Y-31754000D03*
%TD*%
%TO.C,SW_A0*%
X-135582400Y-13754000D03*
D16*
X-135082400Y-17504000D03*
D17*
X-130082400Y-13754000D03*
D16*
X-130082400Y-19704000D03*
D18*
X-124862400Y-9554000D03*
D15*
X-124582400Y-13754000D03*
%TD*%
D20*
%TO.C,LED11*%
X-111999900Y-23999000D03*
X-110124900Y-23999000D03*
%TD*%
D15*
%TO.C,SW_F2*%
X-40849500Y-50004000D03*
D16*
X-40349500Y-53754000D03*
D17*
X-35349500Y-50004000D03*
D16*
X-35349500Y-55954000D03*
D18*
X-30129500Y-45804000D03*
D15*
X-29849500Y-50004000D03*
%TD*%
%TO.C,SW_D0*%
X-78582400Y-7754000D03*
D16*
X-78082400Y-11504000D03*
D17*
X-73082400Y-7754000D03*
D16*
X-73082400Y-13704000D03*
D18*
X-67862400Y-3554000D03*
D15*
X-67582400Y-7754000D03*
%TD*%
%TO.C,SW_E3*%
X-19790648Y-69479251D03*
D16*
X-20081243Y-73251260D03*
D17*
X-14410836Y-70622765D03*
D16*
X-15647911Y-76442743D03*
D18*
X-8431676Y-67599844D03*
D15*
X-9031024Y-71766279D03*
%TD*%
D20*
%TO.C,LED7*%
X-36267000Y-27294000D03*
X-34392000Y-27294000D03*
%TD*%
D15*
%TO.C,SW_F1*%
X-40849500Y-32049000D03*
D16*
X-40349500Y-35799000D03*
D17*
X-35349500Y-32049000D03*
D16*
X-35349500Y-37999000D03*
D18*
X-30129500Y-27849000D03*
D15*
X-29849500Y-32049000D03*
%TD*%
%TO.C,SW_C2*%
X-97582400Y-43754000D03*
D16*
X-97082400Y-47504000D03*
D17*
X-92082400Y-43754000D03*
D16*
X-92082400Y-49704000D03*
D18*
X-86862400Y-39554000D03*
D15*
X-86582400Y-43754000D03*
%TD*%
D28*
%TO.C,BATT1*%
X-26592197Y-12580000D03*
D29*
X-26592197Y-14580000D03*
%TD*%
D20*
%TO.C,LED9*%
X-73999900Y-20999000D03*
X-72124900Y-20999000D03*
%TD*%
%TO.C,LED14*%
X-54999900Y-41999000D03*
X-53124900Y-41999000D03*
%TD*%
D15*
%TO.C,SW_E1*%
X-59582400Y-28754000D03*
D16*
X-59082400Y-32504000D03*
D17*
X-54082400Y-28754000D03*
D16*
X-54082400Y-34704000D03*
D18*
X-48862400Y-24554000D03*
D15*
X-48582400Y-28754000D03*
%TD*%
D20*
%TO.C,LED2*%
X-54999900Y-5999000D03*
X-53124900Y-5999000D03*
%TD*%
D15*
%TO.C,SW_C0*%
X-97582400Y-7754000D03*
D16*
X-97082400Y-11504000D03*
D17*
X-92082400Y-7754000D03*
D16*
X-92082400Y-13704000D03*
D18*
X-86862400Y-3554000D03*
D15*
X-86582400Y-7754000D03*
%TD*%
D19*
%TO.C,H2*%
X-120052400Y-59014000D03*
%TD*%
D20*
%TO.C,LED16*%
X-92999900Y-38999000D03*
X-91124900Y-38999000D03*
%TD*%
%TO.C,LED22*%
X-73999900Y-56999000D03*
X-72124900Y-56999000D03*
%TD*%
D15*
%TO.C,SW_C3*%
X-59582400Y-64754000D03*
D16*
X-59082400Y-68504000D03*
D17*
X-54082400Y-64754000D03*
D16*
X-54082400Y-70704000D03*
D18*
X-48862400Y-60554000D03*
D15*
X-48582400Y-64754000D03*
%TD*%
%TO.C,SW_B2*%
X-116582400Y-46754000D03*
D16*
X-116082400Y-50504000D03*
D17*
X-111082400Y-46754000D03*
D16*
X-111082400Y-52704000D03*
D18*
X-105862400Y-42554000D03*
D15*
X-105582400Y-46754000D03*
%TD*%
%TO.C,SW_F3*%
X-40849500Y-68004000D03*
D16*
X-40349500Y-71754000D03*
D17*
X-35349500Y-68004000D03*
D16*
X-35349500Y-73954000D03*
D18*
X-30129500Y-63804000D03*
D15*
X-29849500Y-68004000D03*
%TD*%
D20*
%TO.C,LED6*%
X-130999900Y-8999000D03*
X-129124900Y-8999000D03*
%TD*%
D30*
%TO.C,LED19*%
X-14352445Y-65773947D03*
X-12518419Y-66163781D03*
%TD*%
D20*
%TO.C,LED12*%
X-130999900Y-26999000D03*
X-129124900Y-26999000D03*
%TD*%
D31*
%TO.C,SW4*%
X-25881400Y-4194000D03*
X-25881400Y-7194000D03*
%TD*%
%LPD*%
M02*
