G04 #@! TF.GenerationSoftware,KiCad,Pcbnew,7.0.5-0*
G04 #@! TF.CreationDate,2023-09-10T21:21:40+09:30*
G04 #@! TF.ProjectId,Rolio,526f6c69-6f2e-46b6-9963-61645f706362,rev?*
G04 #@! TF.SameCoordinates,Original*
G04 #@! TF.FileFunction,Legend,Bot*
G04 #@! TF.FilePolarity,Positive*
%FSLAX46Y46*%
G04 Gerber Fmt 4.6, Leading zero omitted, Abs format (unit mm)*
G04 Created by KiCad (PCBNEW 7.0.5-0) date 2023-09-10 21:21:40*
%MOMM*%
%LPD*%
G01*
G04 APERTURE LIST*
G04 Aperture macros list*
%AMRoundRect*
0 Rectangle with rounded corners*
0 $1 Rounding radius*
0 $2 $3 $4 $5 $6 $7 $8 $9 X,Y pos of 4 corners*
0 Add a 4 corners polygon primitive as box body*
4,1,4,$2,$3,$4,$5,$6,$7,$8,$9,$2,$3,0*
0 Add four circle primitives for the rounded corners*
1,1,$1+$1,$2,$3*
1,1,$1+$1,$4,$5*
1,1,$1+$1,$6,$7*
1,1,$1+$1,$8,$9*
0 Add four rect primitives between the rounded corners*
20,1,$1+$1,$2,$3,$4,$5,0*
20,1,$1+$1,$4,$5,$6,$7,0*
20,1,$1+$1,$6,$7,$8,$9,0*
20,1,$1+$1,$8,$9,$2,$3,0*%
%AMRotRect*
0 Rectangle, with rotation*
0 The origin of the aperture is its center*
0 $1 length*
0 $2 width*
0 $3 Rotation angle, in degrees counterclockwise*
0 Add horizontal line*
21,1,$1,$2,0,0,$3*%
G04 Aperture macros list end*
%ADD10C,0.150000*%
%ADD11C,0.120000*%
%ADD12C,1.701800*%
%ADD13C,3.000000*%
%ADD14C,3.429000*%
%ADD15C,0.990600*%
%ADD16R,2.600000X2.600000*%
%ADD17C,4.300000*%
%ADD18R,1.700000X1.700000*%
%ADD19O,1.700000X1.700000*%
%ADD20C,1.500000*%
%ADD21C,1.600000*%
%ADD22R,1.600000X1.600000*%
%ADD23O,1.600000X1.600000*%
%ADD24RotRect,2.600000X2.600000X348.000000*%
%ADD25R,1.350000X1.350000*%
%ADD26O,1.350000X1.350000*%
%ADD27RoundRect,0.250000X0.262500X0.450000X-0.262500X0.450000X-0.262500X-0.450000X0.262500X-0.450000X0*%
%ADD28RoundRect,0.225000X-0.375000X0.225000X-0.375000X-0.225000X0.375000X-0.225000X0.375000X0.225000X0*%
%ADD29RoundRect,0.250000X-0.337500X-0.475000X0.337500X-0.475000X0.337500X0.475000X-0.337500X0.475000X0*%
%ADD30RoundRect,0.250000X0.450000X-0.262500X0.450000X0.262500X-0.450000X0.262500X-0.450000X-0.262500X0*%
%ADD31R,0.800000X1.000000*%
%ADD32C,0.900000*%
%ADD33R,1.500000X0.700000*%
%ADD34R,1.000000X1.250000*%
%ADD35RoundRect,0.225000X-0.225000X-0.375000X0.225000X-0.375000X0.225000X0.375000X-0.225000X0.375000X0*%
%ADD36RoundRect,0.150000X0.150000X-0.587500X0.150000X0.587500X-0.150000X0.587500X-0.150000X-0.587500X0*%
G04 APERTURE END LIST*
D10*
X166541220Y-44610866D02*
X165779316Y-44610866D01*
X166160268Y-44991819D02*
X166160268Y-44229914D01*
X166541220Y-51050866D02*
X165779316Y-51050866D01*
X59143356Y-42658819D02*
X59476689Y-42182628D01*
X59714784Y-42658819D02*
X59714784Y-41658819D01*
X59714784Y-41658819D02*
X59333832Y-41658819D01*
X59333832Y-41658819D02*
X59238594Y-41706438D01*
X59238594Y-41706438D02*
X59190975Y-41754057D01*
X59190975Y-41754057D02*
X59143356Y-41849295D01*
X59143356Y-41849295D02*
X59143356Y-41992152D01*
X59143356Y-41992152D02*
X59190975Y-42087390D01*
X59190975Y-42087390D02*
X59238594Y-42135009D01*
X59238594Y-42135009D02*
X59333832Y-42182628D01*
X59333832Y-42182628D02*
X59714784Y-42182628D01*
X58571927Y-42087390D02*
X58667165Y-42039771D01*
X58667165Y-42039771D02*
X58714784Y-41992152D01*
X58714784Y-41992152D02*
X58762403Y-41896914D01*
X58762403Y-41896914D02*
X58762403Y-41849295D01*
X58762403Y-41849295D02*
X58714784Y-41754057D01*
X58714784Y-41754057D02*
X58667165Y-41706438D01*
X58667165Y-41706438D02*
X58571927Y-41658819D01*
X58571927Y-41658819D02*
X58381451Y-41658819D01*
X58381451Y-41658819D02*
X58286213Y-41706438D01*
X58286213Y-41706438D02*
X58238594Y-41754057D01*
X58238594Y-41754057D02*
X58190975Y-41849295D01*
X58190975Y-41849295D02*
X58190975Y-41896914D01*
X58190975Y-41896914D02*
X58238594Y-41992152D01*
X58238594Y-41992152D02*
X58286213Y-42039771D01*
X58286213Y-42039771D02*
X58381451Y-42087390D01*
X58381451Y-42087390D02*
X58571927Y-42087390D01*
X58571927Y-42087390D02*
X58667165Y-42135009D01*
X58667165Y-42135009D02*
X58714784Y-42182628D01*
X58714784Y-42182628D02*
X58762403Y-42277866D01*
X58762403Y-42277866D02*
X58762403Y-42468342D01*
X58762403Y-42468342D02*
X58714784Y-42563580D01*
X58714784Y-42563580D02*
X58667165Y-42611200D01*
X58667165Y-42611200D02*
X58571927Y-42658819D01*
X58571927Y-42658819D02*
X58381451Y-42658819D01*
X58381451Y-42658819D02*
X58286213Y-42611200D01*
X58286213Y-42611200D02*
X58238594Y-42563580D01*
X58238594Y-42563580D02*
X58190975Y-42468342D01*
X58190975Y-42468342D02*
X58190975Y-42277866D01*
X58190975Y-42277866D02*
X58238594Y-42182628D01*
X58238594Y-42182628D02*
X58286213Y-42135009D01*
X58286213Y-42135009D02*
X58381451Y-42087390D01*
X74400819Y-75873714D02*
X73400819Y-75873714D01*
X73400819Y-75873714D02*
X73400819Y-76111809D01*
X73400819Y-76111809D02*
X73448438Y-76254666D01*
X73448438Y-76254666D02*
X73543676Y-76349904D01*
X73543676Y-76349904D02*
X73638914Y-76397523D01*
X73638914Y-76397523D02*
X73829390Y-76445142D01*
X73829390Y-76445142D02*
X73972247Y-76445142D01*
X73972247Y-76445142D02*
X74162723Y-76397523D01*
X74162723Y-76397523D02*
X74257961Y-76349904D01*
X74257961Y-76349904D02*
X74353200Y-76254666D01*
X74353200Y-76254666D02*
X74400819Y-76111809D01*
X74400819Y-76111809D02*
X74400819Y-75873714D01*
X74400819Y-77397523D02*
X74400819Y-76826095D01*
X74400819Y-77111809D02*
X73400819Y-77111809D01*
X73400819Y-77111809D02*
X73543676Y-77016571D01*
X73543676Y-77016571D02*
X73638914Y-76921333D01*
X73638914Y-76921333D02*
X73686533Y-76826095D01*
X73400819Y-77730857D02*
X73400819Y-78397523D01*
X73400819Y-78397523D02*
X74400819Y-77968952D01*
X182538666Y-86888580D02*
X182586285Y-86936200D01*
X182586285Y-86936200D02*
X182729142Y-86983819D01*
X182729142Y-86983819D02*
X182824380Y-86983819D01*
X182824380Y-86983819D02*
X182967237Y-86936200D01*
X182967237Y-86936200D02*
X183062475Y-86840961D01*
X183062475Y-86840961D02*
X183110094Y-86745723D01*
X183110094Y-86745723D02*
X183157713Y-86555247D01*
X183157713Y-86555247D02*
X183157713Y-86412390D01*
X183157713Y-86412390D02*
X183110094Y-86221914D01*
X183110094Y-86221914D02*
X183062475Y-86126676D01*
X183062475Y-86126676D02*
X182967237Y-86031438D01*
X182967237Y-86031438D02*
X182824380Y-85983819D01*
X182824380Y-85983819D02*
X182729142Y-85983819D01*
X182729142Y-85983819D02*
X182586285Y-86031438D01*
X182586285Y-86031438D02*
X182538666Y-86079057D01*
X181586285Y-86983819D02*
X182157713Y-86983819D01*
X181871999Y-86983819D02*
X181871999Y-85983819D01*
X181871999Y-85983819D02*
X181967237Y-86126676D01*
X181967237Y-86126676D02*
X182062475Y-86221914D01*
X182062475Y-86221914D02*
X182157713Y-86269533D01*
X93450819Y-55045714D02*
X92450819Y-55045714D01*
X92450819Y-55045714D02*
X92450819Y-55283809D01*
X92450819Y-55283809D02*
X92498438Y-55426666D01*
X92498438Y-55426666D02*
X92593676Y-55521904D01*
X92593676Y-55521904D02*
X92688914Y-55569523D01*
X92688914Y-55569523D02*
X92879390Y-55617142D01*
X92879390Y-55617142D02*
X93022247Y-55617142D01*
X93022247Y-55617142D02*
X93212723Y-55569523D01*
X93212723Y-55569523D02*
X93307961Y-55521904D01*
X93307961Y-55521904D02*
X93403200Y-55426666D01*
X93403200Y-55426666D02*
X93450819Y-55283809D01*
X93450819Y-55283809D02*
X93450819Y-55045714D01*
X93450819Y-56569523D02*
X93450819Y-55998095D01*
X93450819Y-56283809D02*
X92450819Y-56283809D01*
X92450819Y-56283809D02*
X92593676Y-56188571D01*
X92593676Y-56188571D02*
X92688914Y-56093333D01*
X92688914Y-56093333D02*
X92736533Y-55998095D01*
X92450819Y-57188571D02*
X92450819Y-57283809D01*
X92450819Y-57283809D02*
X92498438Y-57379047D01*
X92498438Y-57379047D02*
X92546057Y-57426666D01*
X92546057Y-57426666D02*
X92641295Y-57474285D01*
X92641295Y-57474285D02*
X92831771Y-57521904D01*
X92831771Y-57521904D02*
X93069866Y-57521904D01*
X93069866Y-57521904D02*
X93260342Y-57474285D01*
X93260342Y-57474285D02*
X93355580Y-57426666D01*
X93355580Y-57426666D02*
X93403200Y-57379047D01*
X93403200Y-57379047D02*
X93450819Y-57283809D01*
X93450819Y-57283809D02*
X93450819Y-57188571D01*
X93450819Y-57188571D02*
X93403200Y-57093333D01*
X93403200Y-57093333D02*
X93355580Y-57045714D01*
X93355580Y-57045714D02*
X93260342Y-56998095D01*
X93260342Y-56998095D02*
X93069866Y-56950476D01*
X93069866Y-56950476D02*
X92831771Y-56950476D01*
X92831771Y-56950476D02*
X92641295Y-56998095D01*
X92641295Y-56998095D02*
X92546057Y-57045714D01*
X92546057Y-57045714D02*
X92498438Y-57093333D01*
X92498438Y-57093333D02*
X92450819Y-57188571D01*
X150092819Y-79175714D02*
X149092819Y-79175714D01*
X149092819Y-79175714D02*
X149092819Y-79413809D01*
X149092819Y-79413809D02*
X149140438Y-79556666D01*
X149140438Y-79556666D02*
X149235676Y-79651904D01*
X149235676Y-79651904D02*
X149330914Y-79699523D01*
X149330914Y-79699523D02*
X149521390Y-79747142D01*
X149521390Y-79747142D02*
X149664247Y-79747142D01*
X149664247Y-79747142D02*
X149854723Y-79699523D01*
X149854723Y-79699523D02*
X149949961Y-79651904D01*
X149949961Y-79651904D02*
X150045200Y-79556666D01*
X150045200Y-79556666D02*
X150092819Y-79413809D01*
X150092819Y-79413809D02*
X150092819Y-79175714D01*
X150092819Y-80699523D02*
X150092819Y-80128095D01*
X150092819Y-80413809D02*
X149092819Y-80413809D01*
X149092819Y-80413809D02*
X149235676Y-80318571D01*
X149235676Y-80318571D02*
X149330914Y-80223333D01*
X149330914Y-80223333D02*
X149378533Y-80128095D01*
X149092819Y-81032857D02*
X149092819Y-81651904D01*
X149092819Y-81651904D02*
X149473771Y-81318571D01*
X149473771Y-81318571D02*
X149473771Y-81461428D01*
X149473771Y-81461428D02*
X149521390Y-81556666D01*
X149521390Y-81556666D02*
X149569009Y-81604285D01*
X149569009Y-81604285D02*
X149664247Y-81651904D01*
X149664247Y-81651904D02*
X149902342Y-81651904D01*
X149902342Y-81651904D02*
X149997580Y-81604285D01*
X149997580Y-81604285D02*
X150045200Y-81556666D01*
X150045200Y-81556666D02*
X150092819Y-81461428D01*
X150092819Y-81461428D02*
X150092819Y-81175714D01*
X150092819Y-81175714D02*
X150045200Y-81080476D01*
X150045200Y-81080476D02*
X149997580Y-81032857D01*
X99806357Y-52974819D02*
X100139690Y-52498628D01*
X100377785Y-52974819D02*
X100377785Y-51974819D01*
X100377785Y-51974819D02*
X99996833Y-51974819D01*
X99996833Y-51974819D02*
X99901595Y-52022438D01*
X99901595Y-52022438D02*
X99853976Y-52070057D01*
X99853976Y-52070057D02*
X99806357Y-52165295D01*
X99806357Y-52165295D02*
X99806357Y-52308152D01*
X99806357Y-52308152D02*
X99853976Y-52403390D01*
X99853976Y-52403390D02*
X99901595Y-52451009D01*
X99901595Y-52451009D02*
X99996833Y-52498628D01*
X99996833Y-52498628D02*
X100377785Y-52498628D01*
X98853976Y-52974819D02*
X99425404Y-52974819D01*
X99139690Y-52974819D02*
X99139690Y-51974819D01*
X99139690Y-51974819D02*
X99234928Y-52117676D01*
X99234928Y-52117676D02*
X99330166Y-52212914D01*
X99330166Y-52212914D02*
X99425404Y-52260533D01*
X98473023Y-52070057D02*
X98425404Y-52022438D01*
X98425404Y-52022438D02*
X98330166Y-51974819D01*
X98330166Y-51974819D02*
X98092071Y-51974819D01*
X98092071Y-51974819D02*
X97996833Y-52022438D01*
X97996833Y-52022438D02*
X97949214Y-52070057D01*
X97949214Y-52070057D02*
X97901595Y-52165295D01*
X97901595Y-52165295D02*
X97901595Y-52260533D01*
X97901595Y-52260533D02*
X97949214Y-52403390D01*
X97949214Y-52403390D02*
X98520642Y-52974819D01*
X98520642Y-52974819D02*
X97901595Y-52974819D01*
X150092819Y-43837905D02*
X149092819Y-43837905D01*
X149092819Y-43837905D02*
X149092819Y-44076000D01*
X149092819Y-44076000D02*
X149140438Y-44218857D01*
X149140438Y-44218857D02*
X149235676Y-44314095D01*
X149235676Y-44314095D02*
X149330914Y-44361714D01*
X149330914Y-44361714D02*
X149521390Y-44409333D01*
X149521390Y-44409333D02*
X149664247Y-44409333D01*
X149664247Y-44409333D02*
X149854723Y-44361714D01*
X149854723Y-44361714D02*
X149949961Y-44314095D01*
X149949961Y-44314095D02*
X150045200Y-44218857D01*
X150045200Y-44218857D02*
X150092819Y-44076000D01*
X150092819Y-44076000D02*
X150092819Y-43837905D01*
X150092819Y-45361714D02*
X150092819Y-44790286D01*
X150092819Y-45076000D02*
X149092819Y-45076000D01*
X149092819Y-45076000D02*
X149235676Y-44980762D01*
X149235676Y-44980762D02*
X149330914Y-44885524D01*
X149330914Y-44885524D02*
X149378533Y-44790286D01*
X138310857Y-56208819D02*
X138644190Y-55732628D01*
X138882285Y-56208819D02*
X138882285Y-55208819D01*
X138882285Y-55208819D02*
X138501333Y-55208819D01*
X138501333Y-55208819D02*
X138406095Y-55256438D01*
X138406095Y-55256438D02*
X138358476Y-55304057D01*
X138358476Y-55304057D02*
X138310857Y-55399295D01*
X138310857Y-55399295D02*
X138310857Y-55542152D01*
X138310857Y-55542152D02*
X138358476Y-55637390D01*
X138358476Y-55637390D02*
X138406095Y-55685009D01*
X138406095Y-55685009D02*
X138501333Y-55732628D01*
X138501333Y-55732628D02*
X138882285Y-55732628D01*
X137358476Y-56208819D02*
X137929904Y-56208819D01*
X137644190Y-56208819D02*
X137644190Y-55208819D01*
X137644190Y-55208819D02*
X137739428Y-55351676D01*
X137739428Y-55351676D02*
X137834666Y-55446914D01*
X137834666Y-55446914D02*
X137929904Y-55494533D01*
X136739428Y-55208819D02*
X136644190Y-55208819D01*
X136644190Y-55208819D02*
X136548952Y-55256438D01*
X136548952Y-55256438D02*
X136501333Y-55304057D01*
X136501333Y-55304057D02*
X136453714Y-55399295D01*
X136453714Y-55399295D02*
X136406095Y-55589771D01*
X136406095Y-55589771D02*
X136406095Y-55827866D01*
X136406095Y-55827866D02*
X136453714Y-56018342D01*
X136453714Y-56018342D02*
X136501333Y-56113580D01*
X136501333Y-56113580D02*
X136548952Y-56161200D01*
X136548952Y-56161200D02*
X136644190Y-56208819D01*
X136644190Y-56208819D02*
X136739428Y-56208819D01*
X136739428Y-56208819D02*
X136834666Y-56161200D01*
X136834666Y-56161200D02*
X136882285Y-56113580D01*
X136882285Y-56113580D02*
X136929904Y-56018342D01*
X136929904Y-56018342D02*
X136977523Y-55827866D01*
X136977523Y-55827866D02*
X136977523Y-55589771D01*
X136977523Y-55589771D02*
X136929904Y-55399295D01*
X136929904Y-55399295D02*
X136882285Y-55304057D01*
X136882285Y-55304057D02*
X136834666Y-55256438D01*
X136834666Y-55256438D02*
X136739428Y-55208819D01*
X59163219Y-60627714D02*
X58163219Y-60627714D01*
X58163219Y-60627714D02*
X58163219Y-60865809D01*
X58163219Y-60865809D02*
X58210838Y-61008666D01*
X58210838Y-61008666D02*
X58306076Y-61103904D01*
X58306076Y-61103904D02*
X58401314Y-61151523D01*
X58401314Y-61151523D02*
X58591790Y-61199142D01*
X58591790Y-61199142D02*
X58734647Y-61199142D01*
X58734647Y-61199142D02*
X58925123Y-61151523D01*
X58925123Y-61151523D02*
X59020361Y-61103904D01*
X59020361Y-61103904D02*
X59115600Y-61008666D01*
X59115600Y-61008666D02*
X59163219Y-60865809D01*
X59163219Y-60865809D02*
X59163219Y-60627714D01*
X59163219Y-62151523D02*
X59163219Y-61580095D01*
X59163219Y-61865809D02*
X58163219Y-61865809D01*
X58163219Y-61865809D02*
X58306076Y-61770571D01*
X58306076Y-61770571D02*
X58401314Y-61675333D01*
X58401314Y-61675333D02*
X58448933Y-61580095D01*
X58258457Y-62532476D02*
X58210838Y-62580095D01*
X58210838Y-62580095D02*
X58163219Y-62675333D01*
X58163219Y-62675333D02*
X58163219Y-62913428D01*
X58163219Y-62913428D02*
X58210838Y-63008666D01*
X58210838Y-63008666D02*
X58258457Y-63056285D01*
X58258457Y-63056285D02*
X58353695Y-63103904D01*
X58353695Y-63103904D02*
X58448933Y-63103904D01*
X58448933Y-63103904D02*
X58591790Y-63056285D01*
X58591790Y-63056285D02*
X59163219Y-62484857D01*
X59163219Y-62484857D02*
X59163219Y-63103904D01*
X182581666Y-83417580D02*
X182629285Y-83465200D01*
X182629285Y-83465200D02*
X182772142Y-83512819D01*
X182772142Y-83512819D02*
X182867380Y-83512819D01*
X182867380Y-83512819D02*
X183010237Y-83465200D01*
X183010237Y-83465200D02*
X183105475Y-83369961D01*
X183105475Y-83369961D02*
X183153094Y-83274723D01*
X183153094Y-83274723D02*
X183200713Y-83084247D01*
X183200713Y-83084247D02*
X183200713Y-82941390D01*
X183200713Y-82941390D02*
X183153094Y-82750914D01*
X183153094Y-82750914D02*
X183105475Y-82655676D01*
X183105475Y-82655676D02*
X183010237Y-82560438D01*
X183010237Y-82560438D02*
X182867380Y-82512819D01*
X182867380Y-82512819D02*
X182772142Y-82512819D01*
X182772142Y-82512819D02*
X182629285Y-82560438D01*
X182629285Y-82560438D02*
X182581666Y-82608057D01*
X182200713Y-82608057D02*
X182153094Y-82560438D01*
X182153094Y-82560438D02*
X182057856Y-82512819D01*
X182057856Y-82512819D02*
X181819761Y-82512819D01*
X181819761Y-82512819D02*
X181724523Y-82560438D01*
X181724523Y-82560438D02*
X181676904Y-82608057D01*
X181676904Y-82608057D02*
X181629285Y-82703295D01*
X181629285Y-82703295D02*
X181629285Y-82798533D01*
X181629285Y-82798533D02*
X181676904Y-82941390D01*
X181676904Y-82941390D02*
X182248332Y-83512819D01*
X182248332Y-83512819D02*
X181629285Y-83512819D01*
X131296819Y-75873714D02*
X130296819Y-75873714D01*
X130296819Y-75873714D02*
X130296819Y-76111809D01*
X130296819Y-76111809D02*
X130344438Y-76254666D01*
X130344438Y-76254666D02*
X130439676Y-76349904D01*
X130439676Y-76349904D02*
X130534914Y-76397523D01*
X130534914Y-76397523D02*
X130725390Y-76445142D01*
X130725390Y-76445142D02*
X130868247Y-76445142D01*
X130868247Y-76445142D02*
X131058723Y-76397523D01*
X131058723Y-76397523D02*
X131153961Y-76349904D01*
X131153961Y-76349904D02*
X131249200Y-76254666D01*
X131249200Y-76254666D02*
X131296819Y-76111809D01*
X131296819Y-76111809D02*
X131296819Y-75873714D01*
X131296819Y-77397523D02*
X131296819Y-76826095D01*
X131296819Y-77111809D02*
X130296819Y-77111809D01*
X130296819Y-77111809D02*
X130439676Y-77016571D01*
X130439676Y-77016571D02*
X130534914Y-76921333D01*
X130534914Y-76921333D02*
X130582533Y-76826095D01*
X130630152Y-78254666D02*
X131296819Y-78254666D01*
X130249200Y-78016571D02*
X130963485Y-77778476D01*
X130963485Y-77778476D02*
X130963485Y-78397523D01*
X87068819Y-100733333D02*
X86592628Y-100400000D01*
X87068819Y-100161905D02*
X86068819Y-100161905D01*
X86068819Y-100161905D02*
X86068819Y-100542857D01*
X86068819Y-100542857D02*
X86116438Y-100638095D01*
X86116438Y-100638095D02*
X86164057Y-100685714D01*
X86164057Y-100685714D02*
X86259295Y-100733333D01*
X86259295Y-100733333D02*
X86402152Y-100733333D01*
X86402152Y-100733333D02*
X86497390Y-100685714D01*
X86497390Y-100685714D02*
X86545009Y-100638095D01*
X86545009Y-100638095D02*
X86592628Y-100542857D01*
X86592628Y-100542857D02*
X86592628Y-100161905D01*
X86164057Y-101114286D02*
X86116438Y-101161905D01*
X86116438Y-101161905D02*
X86068819Y-101257143D01*
X86068819Y-101257143D02*
X86068819Y-101495238D01*
X86068819Y-101495238D02*
X86116438Y-101590476D01*
X86116438Y-101590476D02*
X86164057Y-101638095D01*
X86164057Y-101638095D02*
X86259295Y-101685714D01*
X86259295Y-101685714D02*
X86354533Y-101685714D01*
X86354533Y-101685714D02*
X86497390Y-101638095D01*
X86497390Y-101638095D02*
X87068819Y-101066667D01*
X87068819Y-101066667D02*
X87068819Y-101685714D01*
X179308357Y-97864819D02*
X179641690Y-97388628D01*
X179879785Y-97864819D02*
X179879785Y-96864819D01*
X179879785Y-96864819D02*
X179498833Y-96864819D01*
X179498833Y-96864819D02*
X179403595Y-96912438D01*
X179403595Y-96912438D02*
X179355976Y-96960057D01*
X179355976Y-96960057D02*
X179308357Y-97055295D01*
X179308357Y-97055295D02*
X179308357Y-97198152D01*
X179308357Y-97198152D02*
X179355976Y-97293390D01*
X179355976Y-97293390D02*
X179403595Y-97341009D01*
X179403595Y-97341009D02*
X179498833Y-97388628D01*
X179498833Y-97388628D02*
X179879785Y-97388628D01*
X178927404Y-96960057D02*
X178879785Y-96912438D01*
X178879785Y-96912438D02*
X178784547Y-96864819D01*
X178784547Y-96864819D02*
X178546452Y-96864819D01*
X178546452Y-96864819D02*
X178451214Y-96912438D01*
X178451214Y-96912438D02*
X178403595Y-96960057D01*
X178403595Y-96960057D02*
X178355976Y-97055295D01*
X178355976Y-97055295D02*
X178355976Y-97150533D01*
X178355976Y-97150533D02*
X178403595Y-97293390D01*
X178403595Y-97293390D02*
X178975023Y-97864819D01*
X178975023Y-97864819D02*
X178355976Y-97864819D01*
X177403595Y-97864819D02*
X177975023Y-97864819D01*
X177689309Y-97864819D02*
X177689309Y-96864819D01*
X177689309Y-96864819D02*
X177784547Y-97007676D01*
X177784547Y-97007676D02*
X177879785Y-97102914D01*
X177879785Y-97102914D02*
X177975023Y-97150533D01*
X113262819Y-73461714D02*
X112262819Y-73461714D01*
X112262819Y-73461714D02*
X112262819Y-73699809D01*
X112262819Y-73699809D02*
X112310438Y-73842666D01*
X112310438Y-73842666D02*
X112405676Y-73937904D01*
X112405676Y-73937904D02*
X112500914Y-73985523D01*
X112500914Y-73985523D02*
X112691390Y-74033142D01*
X112691390Y-74033142D02*
X112834247Y-74033142D01*
X112834247Y-74033142D02*
X113024723Y-73985523D01*
X113024723Y-73985523D02*
X113119961Y-73937904D01*
X113119961Y-73937904D02*
X113215200Y-73842666D01*
X113215200Y-73842666D02*
X113262819Y-73699809D01*
X113262819Y-73699809D02*
X113262819Y-73461714D01*
X113262819Y-74985523D02*
X113262819Y-74414095D01*
X113262819Y-74699809D02*
X112262819Y-74699809D01*
X112262819Y-74699809D02*
X112405676Y-74604571D01*
X112405676Y-74604571D02*
X112500914Y-74509333D01*
X112500914Y-74509333D02*
X112548533Y-74414095D01*
X112262819Y-75890285D02*
X112262819Y-75414095D01*
X112262819Y-75414095D02*
X112739009Y-75366476D01*
X112739009Y-75366476D02*
X112691390Y-75414095D01*
X112691390Y-75414095D02*
X112643771Y-75509333D01*
X112643771Y-75509333D02*
X112643771Y-75747428D01*
X112643771Y-75747428D02*
X112691390Y-75842666D01*
X112691390Y-75842666D02*
X112739009Y-75890285D01*
X112739009Y-75890285D02*
X112834247Y-75937904D01*
X112834247Y-75937904D02*
X113072342Y-75937904D01*
X113072342Y-75937904D02*
X113167580Y-75890285D01*
X113167580Y-75890285D02*
X113215200Y-75842666D01*
X113215200Y-75842666D02*
X113262819Y-75747428D01*
X113262819Y-75747428D02*
X113262819Y-75509333D01*
X113262819Y-75509333D02*
X113215200Y-75414095D01*
X113215200Y-75414095D02*
X113167580Y-75366476D01*
X99806357Y-70974819D02*
X100139690Y-70498628D01*
X100377785Y-70974819D02*
X100377785Y-69974819D01*
X100377785Y-69974819D02*
X99996833Y-69974819D01*
X99996833Y-69974819D02*
X99901595Y-70022438D01*
X99901595Y-70022438D02*
X99853976Y-70070057D01*
X99853976Y-70070057D02*
X99806357Y-70165295D01*
X99806357Y-70165295D02*
X99806357Y-70308152D01*
X99806357Y-70308152D02*
X99853976Y-70403390D01*
X99853976Y-70403390D02*
X99901595Y-70451009D01*
X99901595Y-70451009D02*
X99996833Y-70498628D01*
X99996833Y-70498628D02*
X100377785Y-70498628D01*
X98853976Y-70974819D02*
X99425404Y-70974819D01*
X99139690Y-70974819D02*
X99139690Y-69974819D01*
X99139690Y-69974819D02*
X99234928Y-70117676D01*
X99234928Y-70117676D02*
X99330166Y-70212914D01*
X99330166Y-70212914D02*
X99425404Y-70260533D01*
X98282547Y-70403390D02*
X98377785Y-70355771D01*
X98377785Y-70355771D02*
X98425404Y-70308152D01*
X98425404Y-70308152D02*
X98473023Y-70212914D01*
X98473023Y-70212914D02*
X98473023Y-70165295D01*
X98473023Y-70165295D02*
X98425404Y-70070057D01*
X98425404Y-70070057D02*
X98377785Y-70022438D01*
X98377785Y-70022438D02*
X98282547Y-69974819D01*
X98282547Y-69974819D02*
X98092071Y-69974819D01*
X98092071Y-69974819D02*
X97996833Y-70022438D01*
X97996833Y-70022438D02*
X97949214Y-70070057D01*
X97949214Y-70070057D02*
X97901595Y-70165295D01*
X97901595Y-70165295D02*
X97901595Y-70212914D01*
X97901595Y-70212914D02*
X97949214Y-70308152D01*
X97949214Y-70308152D02*
X97996833Y-70355771D01*
X97996833Y-70355771D02*
X98092071Y-70403390D01*
X98092071Y-70403390D02*
X98282547Y-70403390D01*
X98282547Y-70403390D02*
X98377785Y-70451009D01*
X98377785Y-70451009D02*
X98425404Y-70498628D01*
X98425404Y-70498628D02*
X98473023Y-70593866D01*
X98473023Y-70593866D02*
X98473023Y-70784342D01*
X98473023Y-70784342D02*
X98425404Y-70879580D01*
X98425404Y-70879580D02*
X98377785Y-70927200D01*
X98377785Y-70927200D02*
X98282547Y-70974819D01*
X98282547Y-70974819D02*
X98092071Y-70974819D01*
X98092071Y-70974819D02*
X97996833Y-70927200D01*
X97996833Y-70927200D02*
X97949214Y-70879580D01*
X97949214Y-70879580D02*
X97901595Y-70784342D01*
X97901595Y-70784342D02*
X97901595Y-70593866D01*
X97901595Y-70593866D02*
X97949214Y-70498628D01*
X97949214Y-70498628D02*
X97996833Y-70451009D01*
X97996833Y-70451009D02*
X98092071Y-70403390D01*
X81639547Y-73974819D02*
X81972880Y-73498628D01*
X82210975Y-73974819D02*
X82210975Y-72974819D01*
X82210975Y-72974819D02*
X81830023Y-72974819D01*
X81830023Y-72974819D02*
X81734785Y-73022438D01*
X81734785Y-73022438D02*
X81687166Y-73070057D01*
X81687166Y-73070057D02*
X81639547Y-73165295D01*
X81639547Y-73165295D02*
X81639547Y-73308152D01*
X81639547Y-73308152D02*
X81687166Y-73403390D01*
X81687166Y-73403390D02*
X81734785Y-73451009D01*
X81734785Y-73451009D02*
X81830023Y-73498628D01*
X81830023Y-73498628D02*
X82210975Y-73498628D01*
X80687166Y-73974819D02*
X81258594Y-73974819D01*
X80972880Y-73974819D02*
X80972880Y-72974819D01*
X80972880Y-72974819D02*
X81068118Y-73117676D01*
X81068118Y-73117676D02*
X81163356Y-73212914D01*
X81163356Y-73212914D02*
X81258594Y-73260533D01*
X80210975Y-73974819D02*
X80020499Y-73974819D01*
X80020499Y-73974819D02*
X79925261Y-73927200D01*
X79925261Y-73927200D02*
X79877642Y-73879580D01*
X79877642Y-73879580D02*
X79782404Y-73736723D01*
X79782404Y-73736723D02*
X79734785Y-73546247D01*
X79734785Y-73546247D02*
X79734785Y-73165295D01*
X79734785Y-73165295D02*
X79782404Y-73070057D01*
X79782404Y-73070057D02*
X79830023Y-73022438D01*
X79830023Y-73022438D02*
X79925261Y-72974819D01*
X79925261Y-72974819D02*
X80115737Y-72974819D01*
X80115737Y-72974819D02*
X80210975Y-73022438D01*
X80210975Y-73022438D02*
X80258594Y-73070057D01*
X80258594Y-73070057D02*
X80306213Y-73165295D01*
X80306213Y-73165295D02*
X80306213Y-73403390D01*
X80306213Y-73403390D02*
X80258594Y-73498628D01*
X80258594Y-73498628D02*
X80210975Y-73546247D01*
X80210975Y-73546247D02*
X80115737Y-73593866D01*
X80115737Y-73593866D02*
X79925261Y-73593866D01*
X79925261Y-73593866D02*
X79830023Y-73546247D01*
X79830023Y-73546247D02*
X79782404Y-73498628D01*
X79782404Y-73498628D02*
X79734785Y-73403390D01*
X62335547Y-58974819D02*
X62668880Y-58498628D01*
X62906975Y-58974819D02*
X62906975Y-57974819D01*
X62906975Y-57974819D02*
X62526023Y-57974819D01*
X62526023Y-57974819D02*
X62430785Y-58022438D01*
X62430785Y-58022438D02*
X62383166Y-58070057D01*
X62383166Y-58070057D02*
X62335547Y-58165295D01*
X62335547Y-58165295D02*
X62335547Y-58308152D01*
X62335547Y-58308152D02*
X62383166Y-58403390D01*
X62383166Y-58403390D02*
X62430785Y-58451009D01*
X62430785Y-58451009D02*
X62526023Y-58498628D01*
X62526023Y-58498628D02*
X62906975Y-58498628D01*
X61383166Y-58974819D02*
X61954594Y-58974819D01*
X61668880Y-58974819D02*
X61668880Y-57974819D01*
X61668880Y-57974819D02*
X61764118Y-58117676D01*
X61764118Y-58117676D02*
X61859356Y-58212914D01*
X61859356Y-58212914D02*
X61954594Y-58260533D01*
X60526023Y-58308152D02*
X60526023Y-58974819D01*
X60764118Y-57927200D02*
X61002213Y-58641485D01*
X61002213Y-58641485D02*
X60383166Y-58641485D01*
X112246819Y-37361905D02*
X111246819Y-37361905D01*
X111246819Y-37361905D02*
X111246819Y-37600000D01*
X111246819Y-37600000D02*
X111294438Y-37742857D01*
X111294438Y-37742857D02*
X111389676Y-37838095D01*
X111389676Y-37838095D02*
X111484914Y-37885714D01*
X111484914Y-37885714D02*
X111675390Y-37933333D01*
X111675390Y-37933333D02*
X111818247Y-37933333D01*
X111818247Y-37933333D02*
X112008723Y-37885714D01*
X112008723Y-37885714D02*
X112103961Y-37838095D01*
X112103961Y-37838095D02*
X112199200Y-37742857D01*
X112199200Y-37742857D02*
X112246819Y-37600000D01*
X112246819Y-37600000D02*
X112246819Y-37361905D01*
X111246819Y-38266667D02*
X111246819Y-38885714D01*
X111246819Y-38885714D02*
X111627771Y-38552381D01*
X111627771Y-38552381D02*
X111627771Y-38695238D01*
X111627771Y-38695238D02*
X111675390Y-38790476D01*
X111675390Y-38790476D02*
X111723009Y-38838095D01*
X111723009Y-38838095D02*
X111818247Y-38885714D01*
X111818247Y-38885714D02*
X112056342Y-38885714D01*
X112056342Y-38885714D02*
X112151580Y-38838095D01*
X112151580Y-38838095D02*
X112199200Y-38790476D01*
X112199200Y-38790476D02*
X112246819Y-38695238D01*
X112246819Y-38695238D02*
X112246819Y-38409524D01*
X112246819Y-38409524D02*
X112199200Y-38314286D01*
X112199200Y-38314286D02*
X112151580Y-38266667D01*
X119364357Y-88906819D02*
X119697690Y-88430628D01*
X119935785Y-88906819D02*
X119935785Y-87906819D01*
X119935785Y-87906819D02*
X119554833Y-87906819D01*
X119554833Y-87906819D02*
X119459595Y-87954438D01*
X119459595Y-87954438D02*
X119411976Y-88002057D01*
X119411976Y-88002057D02*
X119364357Y-88097295D01*
X119364357Y-88097295D02*
X119364357Y-88240152D01*
X119364357Y-88240152D02*
X119411976Y-88335390D01*
X119411976Y-88335390D02*
X119459595Y-88383009D01*
X119459595Y-88383009D02*
X119554833Y-88430628D01*
X119554833Y-88430628D02*
X119935785Y-88430628D01*
X118983404Y-88002057D02*
X118935785Y-87954438D01*
X118935785Y-87954438D02*
X118840547Y-87906819D01*
X118840547Y-87906819D02*
X118602452Y-87906819D01*
X118602452Y-87906819D02*
X118507214Y-87954438D01*
X118507214Y-87954438D02*
X118459595Y-88002057D01*
X118459595Y-88002057D02*
X118411976Y-88097295D01*
X118411976Y-88097295D02*
X118411976Y-88192533D01*
X118411976Y-88192533D02*
X118459595Y-88335390D01*
X118459595Y-88335390D02*
X119031023Y-88906819D01*
X119031023Y-88906819D02*
X118411976Y-88906819D01*
X117554833Y-88240152D02*
X117554833Y-88906819D01*
X117792928Y-87859200D02*
X118031023Y-88573485D01*
X118031023Y-88573485D02*
X117411976Y-88573485D01*
X84782819Y-100733333D02*
X84306628Y-100400000D01*
X84782819Y-100161905D02*
X83782819Y-100161905D01*
X83782819Y-100161905D02*
X83782819Y-100542857D01*
X83782819Y-100542857D02*
X83830438Y-100638095D01*
X83830438Y-100638095D02*
X83878057Y-100685714D01*
X83878057Y-100685714D02*
X83973295Y-100733333D01*
X83973295Y-100733333D02*
X84116152Y-100733333D01*
X84116152Y-100733333D02*
X84211390Y-100685714D01*
X84211390Y-100685714D02*
X84259009Y-100638095D01*
X84259009Y-100638095D02*
X84306628Y-100542857D01*
X84306628Y-100542857D02*
X84306628Y-100161905D01*
X84782819Y-101685714D02*
X84782819Y-101114286D01*
X84782819Y-101400000D02*
X83782819Y-101400000D01*
X83782819Y-101400000D02*
X83925676Y-101304762D01*
X83925676Y-101304762D02*
X84020914Y-101209524D01*
X84020914Y-101209524D02*
X84068533Y-101114286D01*
X131296819Y-93911714D02*
X130296819Y-93911714D01*
X130296819Y-93911714D02*
X130296819Y-94149809D01*
X130296819Y-94149809D02*
X130344438Y-94292666D01*
X130344438Y-94292666D02*
X130439676Y-94387904D01*
X130439676Y-94387904D02*
X130534914Y-94435523D01*
X130534914Y-94435523D02*
X130725390Y-94483142D01*
X130725390Y-94483142D02*
X130868247Y-94483142D01*
X130868247Y-94483142D02*
X131058723Y-94435523D01*
X131058723Y-94435523D02*
X131153961Y-94387904D01*
X131153961Y-94387904D02*
X131249200Y-94292666D01*
X131249200Y-94292666D02*
X131296819Y-94149809D01*
X131296819Y-94149809D02*
X131296819Y-93911714D01*
X130392057Y-94864095D02*
X130344438Y-94911714D01*
X130344438Y-94911714D02*
X130296819Y-95006952D01*
X130296819Y-95006952D02*
X130296819Y-95245047D01*
X130296819Y-95245047D02*
X130344438Y-95340285D01*
X130344438Y-95340285D02*
X130392057Y-95387904D01*
X130392057Y-95387904D02*
X130487295Y-95435523D01*
X130487295Y-95435523D02*
X130582533Y-95435523D01*
X130582533Y-95435523D02*
X130725390Y-95387904D01*
X130725390Y-95387904D02*
X131296819Y-94816476D01*
X131296819Y-94816476D02*
X131296819Y-95435523D01*
X130392057Y-95816476D02*
X130344438Y-95864095D01*
X130344438Y-95864095D02*
X130296819Y-95959333D01*
X130296819Y-95959333D02*
X130296819Y-96197428D01*
X130296819Y-96197428D02*
X130344438Y-96292666D01*
X130344438Y-96292666D02*
X130392057Y-96340285D01*
X130392057Y-96340285D02*
X130487295Y-96387904D01*
X130487295Y-96387904D02*
X130582533Y-96387904D01*
X130582533Y-96387904D02*
X130725390Y-96340285D01*
X130725390Y-96340285D02*
X131296819Y-95768857D01*
X131296819Y-95768857D02*
X131296819Y-96387904D01*
X112246819Y-90859714D02*
X111246819Y-90859714D01*
X111246819Y-90859714D02*
X111246819Y-91097809D01*
X111246819Y-91097809D02*
X111294438Y-91240666D01*
X111294438Y-91240666D02*
X111389676Y-91335904D01*
X111389676Y-91335904D02*
X111484914Y-91383523D01*
X111484914Y-91383523D02*
X111675390Y-91431142D01*
X111675390Y-91431142D02*
X111818247Y-91431142D01*
X111818247Y-91431142D02*
X112008723Y-91383523D01*
X112008723Y-91383523D02*
X112103961Y-91335904D01*
X112103961Y-91335904D02*
X112199200Y-91240666D01*
X112199200Y-91240666D02*
X112246819Y-91097809D01*
X112246819Y-91097809D02*
X112246819Y-90859714D01*
X111342057Y-91812095D02*
X111294438Y-91859714D01*
X111294438Y-91859714D02*
X111246819Y-91954952D01*
X111246819Y-91954952D02*
X111246819Y-92193047D01*
X111246819Y-92193047D02*
X111294438Y-92288285D01*
X111294438Y-92288285D02*
X111342057Y-92335904D01*
X111342057Y-92335904D02*
X111437295Y-92383523D01*
X111437295Y-92383523D02*
X111532533Y-92383523D01*
X111532533Y-92383523D02*
X111675390Y-92335904D01*
X111675390Y-92335904D02*
X112246819Y-91764476D01*
X112246819Y-91764476D02*
X112246819Y-92383523D01*
X111246819Y-92716857D02*
X111246819Y-93335904D01*
X111246819Y-93335904D02*
X111627771Y-93002571D01*
X111627771Y-93002571D02*
X111627771Y-93145428D01*
X111627771Y-93145428D02*
X111675390Y-93240666D01*
X111675390Y-93240666D02*
X111723009Y-93288285D01*
X111723009Y-93288285D02*
X111818247Y-93335904D01*
X111818247Y-93335904D02*
X112056342Y-93335904D01*
X112056342Y-93335904D02*
X112151580Y-93288285D01*
X112151580Y-93288285D02*
X112199200Y-93240666D01*
X112199200Y-93240666D02*
X112246819Y-93145428D01*
X112246819Y-93145428D02*
X112246819Y-92859714D01*
X112246819Y-92859714D02*
X112199200Y-92764476D01*
X112199200Y-92764476D02*
X112151580Y-92716857D01*
X75162819Y-57967714D02*
X74162819Y-57967714D01*
X74162819Y-57967714D02*
X74162819Y-58205809D01*
X74162819Y-58205809D02*
X74210438Y-58348666D01*
X74210438Y-58348666D02*
X74305676Y-58443904D01*
X74305676Y-58443904D02*
X74400914Y-58491523D01*
X74400914Y-58491523D02*
X74591390Y-58539142D01*
X74591390Y-58539142D02*
X74734247Y-58539142D01*
X74734247Y-58539142D02*
X74924723Y-58491523D01*
X74924723Y-58491523D02*
X75019961Y-58443904D01*
X75019961Y-58443904D02*
X75115200Y-58348666D01*
X75115200Y-58348666D02*
X75162819Y-58205809D01*
X75162819Y-58205809D02*
X75162819Y-57967714D01*
X75162819Y-59491523D02*
X75162819Y-58920095D01*
X75162819Y-59205809D02*
X74162819Y-59205809D01*
X74162819Y-59205809D02*
X74305676Y-59110571D01*
X74305676Y-59110571D02*
X74400914Y-59015333D01*
X74400914Y-59015333D02*
X74448533Y-58920095D01*
X75162819Y-60443904D02*
X75162819Y-59872476D01*
X75162819Y-60158190D02*
X74162819Y-60158190D01*
X74162819Y-60158190D02*
X74305676Y-60062952D01*
X74305676Y-60062952D02*
X74400914Y-59967714D01*
X74400914Y-59967714D02*
X74448533Y-59872476D01*
X150092819Y-61871905D02*
X149092819Y-61871905D01*
X149092819Y-61871905D02*
X149092819Y-62110000D01*
X149092819Y-62110000D02*
X149140438Y-62252857D01*
X149140438Y-62252857D02*
X149235676Y-62348095D01*
X149235676Y-62348095D02*
X149330914Y-62395714D01*
X149330914Y-62395714D02*
X149521390Y-62443333D01*
X149521390Y-62443333D02*
X149664247Y-62443333D01*
X149664247Y-62443333D02*
X149854723Y-62395714D01*
X149854723Y-62395714D02*
X149949961Y-62348095D01*
X149949961Y-62348095D02*
X150045200Y-62252857D01*
X150045200Y-62252857D02*
X150092819Y-62110000D01*
X150092819Y-62110000D02*
X150092819Y-61871905D01*
X149092819Y-62776667D02*
X149092819Y-63443333D01*
X149092819Y-63443333D02*
X150092819Y-63014762D01*
X62335547Y-76974819D02*
X62668880Y-76498628D01*
X62906975Y-76974819D02*
X62906975Y-75974819D01*
X62906975Y-75974819D02*
X62526023Y-75974819D01*
X62526023Y-75974819D02*
X62430785Y-76022438D01*
X62430785Y-76022438D02*
X62383166Y-76070057D01*
X62383166Y-76070057D02*
X62335547Y-76165295D01*
X62335547Y-76165295D02*
X62335547Y-76308152D01*
X62335547Y-76308152D02*
X62383166Y-76403390D01*
X62383166Y-76403390D02*
X62430785Y-76451009D01*
X62430785Y-76451009D02*
X62526023Y-76498628D01*
X62526023Y-76498628D02*
X62906975Y-76498628D01*
X61954594Y-76070057D02*
X61906975Y-76022438D01*
X61906975Y-76022438D02*
X61811737Y-75974819D01*
X61811737Y-75974819D02*
X61573642Y-75974819D01*
X61573642Y-75974819D02*
X61478404Y-76022438D01*
X61478404Y-76022438D02*
X61430785Y-76070057D01*
X61430785Y-76070057D02*
X61383166Y-76165295D01*
X61383166Y-76165295D02*
X61383166Y-76260533D01*
X61383166Y-76260533D02*
X61430785Y-76403390D01*
X61430785Y-76403390D02*
X62002213Y-76974819D01*
X62002213Y-76974819D02*
X61383166Y-76974819D01*
X60764118Y-75974819D02*
X60668880Y-75974819D01*
X60668880Y-75974819D02*
X60573642Y-76022438D01*
X60573642Y-76022438D02*
X60526023Y-76070057D01*
X60526023Y-76070057D02*
X60478404Y-76165295D01*
X60478404Y-76165295D02*
X60430785Y-76355771D01*
X60430785Y-76355771D02*
X60430785Y-76593866D01*
X60430785Y-76593866D02*
X60478404Y-76784342D01*
X60478404Y-76784342D02*
X60526023Y-76879580D01*
X60526023Y-76879580D02*
X60573642Y-76927200D01*
X60573642Y-76927200D02*
X60668880Y-76974819D01*
X60668880Y-76974819D02*
X60764118Y-76974819D01*
X60764118Y-76974819D02*
X60859356Y-76927200D01*
X60859356Y-76927200D02*
X60906975Y-76879580D01*
X60906975Y-76879580D02*
X60954594Y-76784342D01*
X60954594Y-76784342D02*
X61002213Y-76593866D01*
X61002213Y-76593866D02*
X61002213Y-76355771D01*
X61002213Y-76355771D02*
X60954594Y-76165295D01*
X60954594Y-76165295D02*
X60906975Y-76070057D01*
X60906975Y-76070057D02*
X60859356Y-76022438D01*
X60859356Y-76022438D02*
X60764118Y-75974819D01*
X172101765Y-98697658D02*
X171101765Y-98697658D01*
X171101765Y-98697658D02*
X171101765Y-98935753D01*
X171101765Y-98935753D02*
X171149384Y-99078610D01*
X171149384Y-99078610D02*
X171244622Y-99173848D01*
X171244622Y-99173848D02*
X171339860Y-99221467D01*
X171339860Y-99221467D02*
X171530336Y-99269086D01*
X171530336Y-99269086D02*
X171673193Y-99269086D01*
X171673193Y-99269086D02*
X171863669Y-99221467D01*
X171863669Y-99221467D02*
X171958907Y-99173848D01*
X171958907Y-99173848D02*
X172054146Y-99078610D01*
X172054146Y-99078610D02*
X172101765Y-98935753D01*
X172101765Y-98935753D02*
X172101765Y-98697658D01*
X171197003Y-99650039D02*
X171149384Y-99697658D01*
X171149384Y-99697658D02*
X171101765Y-99792896D01*
X171101765Y-99792896D02*
X171101765Y-100030991D01*
X171101765Y-100030991D02*
X171149384Y-100126229D01*
X171149384Y-100126229D02*
X171197003Y-100173848D01*
X171197003Y-100173848D02*
X171292241Y-100221467D01*
X171292241Y-100221467D02*
X171387479Y-100221467D01*
X171387479Y-100221467D02*
X171530336Y-100173848D01*
X171530336Y-100173848D02*
X172101765Y-99602420D01*
X172101765Y-99602420D02*
X172101765Y-100221467D01*
X171101765Y-100840515D02*
X171101765Y-100935753D01*
X171101765Y-100935753D02*
X171149384Y-101030991D01*
X171149384Y-101030991D02*
X171197003Y-101078610D01*
X171197003Y-101078610D02*
X171292241Y-101126229D01*
X171292241Y-101126229D02*
X171482717Y-101173848D01*
X171482717Y-101173848D02*
X171720812Y-101173848D01*
X171720812Y-101173848D02*
X171911288Y-101126229D01*
X171911288Y-101126229D02*
X172006526Y-101078610D01*
X172006526Y-101078610D02*
X172054146Y-101030991D01*
X172054146Y-101030991D02*
X172101765Y-100935753D01*
X172101765Y-100935753D02*
X172101765Y-100840515D01*
X172101765Y-100840515D02*
X172054146Y-100745277D01*
X172054146Y-100745277D02*
X172006526Y-100697658D01*
X172006526Y-100697658D02*
X171911288Y-100650039D01*
X171911288Y-100650039D02*
X171720812Y-100602420D01*
X171720812Y-100602420D02*
X171482717Y-100602420D01*
X171482717Y-100602420D02*
X171292241Y-100650039D01*
X171292241Y-100650039D02*
X171197003Y-100697658D01*
X171197003Y-100697658D02*
X171149384Y-100745277D01*
X171149384Y-100745277D02*
X171101765Y-100840515D01*
X97092166Y-36856819D02*
X97425499Y-36380628D01*
X97663594Y-36856819D02*
X97663594Y-35856819D01*
X97663594Y-35856819D02*
X97282642Y-35856819D01*
X97282642Y-35856819D02*
X97187404Y-35904438D01*
X97187404Y-35904438D02*
X97139785Y-35952057D01*
X97139785Y-35952057D02*
X97092166Y-36047295D01*
X97092166Y-36047295D02*
X97092166Y-36190152D01*
X97092166Y-36190152D02*
X97139785Y-36285390D01*
X97139785Y-36285390D02*
X97187404Y-36333009D01*
X97187404Y-36333009D02*
X97282642Y-36380628D01*
X97282642Y-36380628D02*
X97663594Y-36380628D01*
X96235023Y-35856819D02*
X96425499Y-35856819D01*
X96425499Y-35856819D02*
X96520737Y-35904438D01*
X96520737Y-35904438D02*
X96568356Y-35952057D01*
X96568356Y-35952057D02*
X96663594Y-36094914D01*
X96663594Y-36094914D02*
X96711213Y-36285390D01*
X96711213Y-36285390D02*
X96711213Y-36666342D01*
X96711213Y-36666342D02*
X96663594Y-36761580D01*
X96663594Y-36761580D02*
X96615975Y-36809200D01*
X96615975Y-36809200D02*
X96520737Y-36856819D01*
X96520737Y-36856819D02*
X96330261Y-36856819D01*
X96330261Y-36856819D02*
X96235023Y-36809200D01*
X96235023Y-36809200D02*
X96187404Y-36761580D01*
X96187404Y-36761580D02*
X96139785Y-36666342D01*
X96139785Y-36666342D02*
X96139785Y-36428247D01*
X96139785Y-36428247D02*
X96187404Y-36333009D01*
X96187404Y-36333009D02*
X96235023Y-36285390D01*
X96235023Y-36285390D02*
X96330261Y-36237771D01*
X96330261Y-36237771D02*
X96520737Y-36237771D01*
X96520737Y-36237771D02*
X96615975Y-36285390D01*
X96615975Y-36285390D02*
X96663594Y-36333009D01*
X96663594Y-36333009D02*
X96711213Y-36428247D01*
X93196819Y-90859714D02*
X92196819Y-90859714D01*
X92196819Y-90859714D02*
X92196819Y-91097809D01*
X92196819Y-91097809D02*
X92244438Y-91240666D01*
X92244438Y-91240666D02*
X92339676Y-91335904D01*
X92339676Y-91335904D02*
X92434914Y-91383523D01*
X92434914Y-91383523D02*
X92625390Y-91431142D01*
X92625390Y-91431142D02*
X92768247Y-91431142D01*
X92768247Y-91431142D02*
X92958723Y-91383523D01*
X92958723Y-91383523D02*
X93053961Y-91335904D01*
X93053961Y-91335904D02*
X93149200Y-91240666D01*
X93149200Y-91240666D02*
X93196819Y-91097809D01*
X93196819Y-91097809D02*
X93196819Y-90859714D01*
X92292057Y-91812095D02*
X92244438Y-91859714D01*
X92244438Y-91859714D02*
X92196819Y-91954952D01*
X92196819Y-91954952D02*
X92196819Y-92193047D01*
X92196819Y-92193047D02*
X92244438Y-92288285D01*
X92244438Y-92288285D02*
X92292057Y-92335904D01*
X92292057Y-92335904D02*
X92387295Y-92383523D01*
X92387295Y-92383523D02*
X92482533Y-92383523D01*
X92482533Y-92383523D02*
X92625390Y-92335904D01*
X92625390Y-92335904D02*
X93196819Y-91764476D01*
X93196819Y-91764476D02*
X93196819Y-92383523D01*
X93196819Y-92859714D02*
X93196819Y-93050190D01*
X93196819Y-93050190D02*
X93149200Y-93145428D01*
X93149200Y-93145428D02*
X93101580Y-93193047D01*
X93101580Y-93193047D02*
X92958723Y-93288285D01*
X92958723Y-93288285D02*
X92768247Y-93335904D01*
X92768247Y-93335904D02*
X92387295Y-93335904D01*
X92387295Y-93335904D02*
X92292057Y-93288285D01*
X92292057Y-93288285D02*
X92244438Y-93240666D01*
X92244438Y-93240666D02*
X92196819Y-93145428D01*
X92196819Y-93145428D02*
X92196819Y-92954952D01*
X92196819Y-92954952D02*
X92244438Y-92859714D01*
X92244438Y-92859714D02*
X92292057Y-92812095D01*
X92292057Y-92812095D02*
X92387295Y-92764476D01*
X92387295Y-92764476D02*
X92625390Y-92764476D01*
X92625390Y-92764476D02*
X92720628Y-92812095D01*
X92720628Y-92812095D02*
X92768247Y-92859714D01*
X92768247Y-92859714D02*
X92815866Y-92954952D01*
X92815866Y-92954952D02*
X92815866Y-93145428D01*
X92815866Y-93145428D02*
X92768247Y-93240666D01*
X92768247Y-93240666D02*
X92720628Y-93288285D01*
X92720628Y-93288285D02*
X92625390Y-93335904D01*
X93450819Y-37487905D02*
X92450819Y-37487905D01*
X92450819Y-37487905D02*
X92450819Y-37726000D01*
X92450819Y-37726000D02*
X92498438Y-37868857D01*
X92498438Y-37868857D02*
X92593676Y-37964095D01*
X92593676Y-37964095D02*
X92688914Y-38011714D01*
X92688914Y-38011714D02*
X92879390Y-38059333D01*
X92879390Y-38059333D02*
X93022247Y-38059333D01*
X93022247Y-38059333D02*
X93212723Y-38011714D01*
X93212723Y-38011714D02*
X93307961Y-37964095D01*
X93307961Y-37964095D02*
X93403200Y-37868857D01*
X93403200Y-37868857D02*
X93450819Y-37726000D01*
X93450819Y-37726000D02*
X93450819Y-37487905D01*
X92784152Y-38916476D02*
X93450819Y-38916476D01*
X92403200Y-38678381D02*
X93117485Y-38440286D01*
X93117485Y-38440286D02*
X93117485Y-39059333D01*
X140779166Y-39790819D02*
X141112499Y-39314628D01*
X141350594Y-39790819D02*
X141350594Y-38790819D01*
X141350594Y-38790819D02*
X140969642Y-38790819D01*
X140969642Y-38790819D02*
X140874404Y-38838438D01*
X140874404Y-38838438D02*
X140826785Y-38886057D01*
X140826785Y-38886057D02*
X140779166Y-38981295D01*
X140779166Y-38981295D02*
X140779166Y-39124152D01*
X140779166Y-39124152D02*
X140826785Y-39219390D01*
X140826785Y-39219390D02*
X140874404Y-39267009D01*
X140874404Y-39267009D02*
X140969642Y-39314628D01*
X140969642Y-39314628D02*
X141350594Y-39314628D01*
X139922023Y-39124152D02*
X139922023Y-39790819D01*
X140160118Y-38743200D02*
X140398213Y-39457485D01*
X140398213Y-39457485D02*
X139779166Y-39457485D01*
X169325180Y-50665971D02*
X169801371Y-50999304D01*
X169325180Y-51237399D02*
X170325180Y-51237399D01*
X170325180Y-51237399D02*
X170325180Y-50856447D01*
X170325180Y-50856447D02*
X170277561Y-50761209D01*
X170277561Y-50761209D02*
X170229942Y-50713590D01*
X170229942Y-50713590D02*
X170134704Y-50665971D01*
X170134704Y-50665971D02*
X169991847Y-50665971D01*
X169991847Y-50665971D02*
X169896609Y-50713590D01*
X169896609Y-50713590D02*
X169848990Y-50761209D01*
X169848990Y-50761209D02*
X169801371Y-50856447D01*
X169801371Y-50856447D02*
X169801371Y-51237399D01*
X169848990Y-50237399D02*
X169848990Y-49904066D01*
X169325180Y-49761209D02*
X169325180Y-50237399D01*
X169325180Y-50237399D02*
X170325180Y-50237399D01*
X170325180Y-50237399D02*
X170325180Y-49761209D01*
X169372800Y-49380256D02*
X169325180Y-49237399D01*
X169325180Y-49237399D02*
X169325180Y-48999304D01*
X169325180Y-48999304D02*
X169372800Y-48904066D01*
X169372800Y-48904066D02*
X169420419Y-48856447D01*
X169420419Y-48856447D02*
X169515657Y-48808828D01*
X169515657Y-48808828D02*
X169610895Y-48808828D01*
X169610895Y-48808828D02*
X169706133Y-48856447D01*
X169706133Y-48856447D02*
X169753752Y-48904066D01*
X169753752Y-48904066D02*
X169801371Y-48999304D01*
X169801371Y-48999304D02*
X169848990Y-49189780D01*
X169848990Y-49189780D02*
X169896609Y-49285018D01*
X169896609Y-49285018D02*
X169944228Y-49332637D01*
X169944228Y-49332637D02*
X170039466Y-49380256D01*
X170039466Y-49380256D02*
X170134704Y-49380256D01*
X170134704Y-49380256D02*
X170229942Y-49332637D01*
X170229942Y-49332637D02*
X170277561Y-49285018D01*
X170277561Y-49285018D02*
X170325180Y-49189780D01*
X170325180Y-49189780D02*
X170325180Y-48951685D01*
X170325180Y-48951685D02*
X170277561Y-48808828D01*
X169848990Y-48380256D02*
X169848990Y-48046923D01*
X169325180Y-47904066D02*
X169325180Y-48380256D01*
X169325180Y-48380256D02*
X170325180Y-48380256D01*
X170325180Y-48380256D02*
X170325180Y-47904066D01*
X170325180Y-47618351D02*
X170325180Y-47046923D01*
X169325180Y-47332637D02*
X170325180Y-47332637D01*
X169325180Y-46189780D02*
X169325180Y-46761208D01*
X169325180Y-46475494D02*
X170325180Y-46475494D01*
X170325180Y-46475494D02*
X170182323Y-46570732D01*
X170182323Y-46570732D02*
X170087085Y-46665970D01*
X170087085Y-46665970D02*
X170039466Y-46761208D01*
X131296819Y-40535905D02*
X130296819Y-40535905D01*
X130296819Y-40535905D02*
X130296819Y-40774000D01*
X130296819Y-40774000D02*
X130344438Y-40916857D01*
X130344438Y-40916857D02*
X130439676Y-41012095D01*
X130439676Y-41012095D02*
X130534914Y-41059714D01*
X130534914Y-41059714D02*
X130725390Y-41107333D01*
X130725390Y-41107333D02*
X130868247Y-41107333D01*
X130868247Y-41107333D02*
X131058723Y-41059714D01*
X131058723Y-41059714D02*
X131153961Y-41012095D01*
X131153961Y-41012095D02*
X131249200Y-40916857D01*
X131249200Y-40916857D02*
X131296819Y-40774000D01*
X131296819Y-40774000D02*
X131296819Y-40535905D01*
X130392057Y-41488286D02*
X130344438Y-41535905D01*
X130344438Y-41535905D02*
X130296819Y-41631143D01*
X130296819Y-41631143D02*
X130296819Y-41869238D01*
X130296819Y-41869238D02*
X130344438Y-41964476D01*
X130344438Y-41964476D02*
X130392057Y-42012095D01*
X130392057Y-42012095D02*
X130487295Y-42059714D01*
X130487295Y-42059714D02*
X130582533Y-42059714D01*
X130582533Y-42059714D02*
X130725390Y-42012095D01*
X130725390Y-42012095D02*
X131296819Y-41440667D01*
X131296819Y-41440667D02*
X131296819Y-42059714D01*
X131296819Y-58315905D02*
X130296819Y-58315905D01*
X130296819Y-58315905D02*
X130296819Y-58554000D01*
X130296819Y-58554000D02*
X130344438Y-58696857D01*
X130344438Y-58696857D02*
X130439676Y-58792095D01*
X130439676Y-58792095D02*
X130534914Y-58839714D01*
X130534914Y-58839714D02*
X130725390Y-58887333D01*
X130725390Y-58887333D02*
X130868247Y-58887333D01*
X130868247Y-58887333D02*
X131058723Y-58839714D01*
X131058723Y-58839714D02*
X131153961Y-58792095D01*
X131153961Y-58792095D02*
X131249200Y-58696857D01*
X131249200Y-58696857D02*
X131296819Y-58554000D01*
X131296819Y-58554000D02*
X131296819Y-58315905D01*
X130725390Y-59458762D02*
X130677771Y-59363524D01*
X130677771Y-59363524D02*
X130630152Y-59315905D01*
X130630152Y-59315905D02*
X130534914Y-59268286D01*
X130534914Y-59268286D02*
X130487295Y-59268286D01*
X130487295Y-59268286D02*
X130392057Y-59315905D01*
X130392057Y-59315905D02*
X130344438Y-59363524D01*
X130344438Y-59363524D02*
X130296819Y-59458762D01*
X130296819Y-59458762D02*
X130296819Y-59649238D01*
X130296819Y-59649238D02*
X130344438Y-59744476D01*
X130344438Y-59744476D02*
X130392057Y-59792095D01*
X130392057Y-59792095D02*
X130487295Y-59839714D01*
X130487295Y-59839714D02*
X130534914Y-59839714D01*
X130534914Y-59839714D02*
X130630152Y-59792095D01*
X130630152Y-59792095D02*
X130677771Y-59744476D01*
X130677771Y-59744476D02*
X130725390Y-59649238D01*
X130725390Y-59649238D02*
X130725390Y-59458762D01*
X130725390Y-59458762D02*
X130773009Y-59363524D01*
X130773009Y-59363524D02*
X130820628Y-59315905D01*
X130820628Y-59315905D02*
X130915866Y-59268286D01*
X130915866Y-59268286D02*
X131106342Y-59268286D01*
X131106342Y-59268286D02*
X131201580Y-59315905D01*
X131201580Y-59315905D02*
X131249200Y-59363524D01*
X131249200Y-59363524D02*
X131296819Y-59458762D01*
X131296819Y-59458762D02*
X131296819Y-59649238D01*
X131296819Y-59649238D02*
X131249200Y-59744476D01*
X131249200Y-59744476D02*
X131201580Y-59792095D01*
X131201580Y-59792095D02*
X131106342Y-59839714D01*
X131106342Y-59839714D02*
X130915866Y-59839714D01*
X130915866Y-59839714D02*
X130820628Y-59792095D01*
X130820628Y-59792095D02*
X130773009Y-59744476D01*
X130773009Y-59744476D02*
X130725390Y-59649238D01*
X119364357Y-52906819D02*
X119697690Y-52430628D01*
X119935785Y-52906819D02*
X119935785Y-51906819D01*
X119935785Y-51906819D02*
X119554833Y-51906819D01*
X119554833Y-51906819D02*
X119459595Y-51954438D01*
X119459595Y-51954438D02*
X119411976Y-52002057D01*
X119411976Y-52002057D02*
X119364357Y-52097295D01*
X119364357Y-52097295D02*
X119364357Y-52240152D01*
X119364357Y-52240152D02*
X119411976Y-52335390D01*
X119411976Y-52335390D02*
X119459595Y-52383009D01*
X119459595Y-52383009D02*
X119554833Y-52430628D01*
X119554833Y-52430628D02*
X119935785Y-52430628D01*
X118411976Y-52906819D02*
X118983404Y-52906819D01*
X118697690Y-52906819D02*
X118697690Y-51906819D01*
X118697690Y-51906819D02*
X118792928Y-52049676D01*
X118792928Y-52049676D02*
X118888166Y-52144914D01*
X118888166Y-52144914D02*
X118983404Y-52192533D01*
X117459595Y-52906819D02*
X118031023Y-52906819D01*
X117745309Y-52906819D02*
X117745309Y-51906819D01*
X117745309Y-51906819D02*
X117840547Y-52049676D01*
X117840547Y-52049676D02*
X117935785Y-52144914D01*
X117935785Y-52144914D02*
X118031023Y-52192533D01*
X59163219Y-78788214D02*
X58163219Y-78788214D01*
X58163219Y-78788214D02*
X58163219Y-79026309D01*
X58163219Y-79026309D02*
X58210838Y-79169166D01*
X58210838Y-79169166D02*
X58306076Y-79264404D01*
X58306076Y-79264404D02*
X58401314Y-79312023D01*
X58401314Y-79312023D02*
X58591790Y-79359642D01*
X58591790Y-79359642D02*
X58734647Y-79359642D01*
X58734647Y-79359642D02*
X58925123Y-79312023D01*
X58925123Y-79312023D02*
X59020361Y-79264404D01*
X59020361Y-79264404D02*
X59115600Y-79169166D01*
X59115600Y-79169166D02*
X59163219Y-79026309D01*
X59163219Y-79026309D02*
X59163219Y-78788214D01*
X59163219Y-80312023D02*
X59163219Y-79740595D01*
X59163219Y-80026309D02*
X58163219Y-80026309D01*
X58163219Y-80026309D02*
X58306076Y-79931071D01*
X58306076Y-79931071D02*
X58401314Y-79835833D01*
X58401314Y-79835833D02*
X58448933Y-79740595D01*
X58591790Y-80883452D02*
X58544171Y-80788214D01*
X58544171Y-80788214D02*
X58496552Y-80740595D01*
X58496552Y-80740595D02*
X58401314Y-80692976D01*
X58401314Y-80692976D02*
X58353695Y-80692976D01*
X58353695Y-80692976D02*
X58258457Y-80740595D01*
X58258457Y-80740595D02*
X58210838Y-80788214D01*
X58210838Y-80788214D02*
X58163219Y-80883452D01*
X58163219Y-80883452D02*
X58163219Y-81073928D01*
X58163219Y-81073928D02*
X58210838Y-81169166D01*
X58210838Y-81169166D02*
X58258457Y-81216785D01*
X58258457Y-81216785D02*
X58353695Y-81264404D01*
X58353695Y-81264404D02*
X58401314Y-81264404D01*
X58401314Y-81264404D02*
X58496552Y-81216785D01*
X58496552Y-81216785D02*
X58544171Y-81169166D01*
X58544171Y-81169166D02*
X58591790Y-81073928D01*
X58591790Y-81073928D02*
X58591790Y-80883452D01*
X58591790Y-80883452D02*
X58639409Y-80788214D01*
X58639409Y-80788214D02*
X58687028Y-80740595D01*
X58687028Y-80740595D02*
X58782266Y-80692976D01*
X58782266Y-80692976D02*
X58972742Y-80692976D01*
X58972742Y-80692976D02*
X59067980Y-80740595D01*
X59067980Y-80740595D02*
X59115600Y-80788214D01*
X59115600Y-80788214D02*
X59163219Y-80883452D01*
X59163219Y-80883452D02*
X59163219Y-81073928D01*
X59163219Y-81073928D02*
X59115600Y-81169166D01*
X59115600Y-81169166D02*
X59067980Y-81216785D01*
X59067980Y-81216785D02*
X58972742Y-81264404D01*
X58972742Y-81264404D02*
X58782266Y-81264404D01*
X58782266Y-81264404D02*
X58687028Y-81216785D01*
X58687028Y-81216785D02*
X58639409Y-81169166D01*
X58639409Y-81169166D02*
X58591790Y-81073928D01*
X157106857Y-77324819D02*
X157440190Y-76848628D01*
X157678285Y-77324819D02*
X157678285Y-76324819D01*
X157678285Y-76324819D02*
X157297333Y-76324819D01*
X157297333Y-76324819D02*
X157202095Y-76372438D01*
X157202095Y-76372438D02*
X157154476Y-76420057D01*
X157154476Y-76420057D02*
X157106857Y-76515295D01*
X157106857Y-76515295D02*
X157106857Y-76658152D01*
X157106857Y-76658152D02*
X157154476Y-76753390D01*
X157154476Y-76753390D02*
X157202095Y-76801009D01*
X157202095Y-76801009D02*
X157297333Y-76848628D01*
X157297333Y-76848628D02*
X157678285Y-76848628D01*
X156154476Y-77324819D02*
X156725904Y-77324819D01*
X156440190Y-77324819D02*
X156440190Y-76324819D01*
X156440190Y-76324819D02*
X156535428Y-76467676D01*
X156535428Y-76467676D02*
X156630666Y-76562914D01*
X156630666Y-76562914D02*
X156725904Y-76610533D01*
X155249714Y-76324819D02*
X155725904Y-76324819D01*
X155725904Y-76324819D02*
X155773523Y-76801009D01*
X155773523Y-76801009D02*
X155725904Y-76753390D01*
X155725904Y-76753390D02*
X155630666Y-76705771D01*
X155630666Y-76705771D02*
X155392571Y-76705771D01*
X155392571Y-76705771D02*
X155297333Y-76753390D01*
X155297333Y-76753390D02*
X155249714Y-76801009D01*
X155249714Y-76801009D02*
X155202095Y-76896247D01*
X155202095Y-76896247D02*
X155202095Y-77134342D01*
X155202095Y-77134342D02*
X155249714Y-77229580D01*
X155249714Y-77229580D02*
X155297333Y-77277200D01*
X155297333Y-77277200D02*
X155392571Y-77324819D01*
X155392571Y-77324819D02*
X155630666Y-77324819D01*
X155630666Y-77324819D02*
X155725904Y-77277200D01*
X155725904Y-77277200D02*
X155773523Y-77229580D01*
X157106857Y-95324819D02*
X157440190Y-94848628D01*
X157678285Y-95324819D02*
X157678285Y-94324819D01*
X157678285Y-94324819D02*
X157297333Y-94324819D01*
X157297333Y-94324819D02*
X157202095Y-94372438D01*
X157202095Y-94372438D02*
X157154476Y-94420057D01*
X157154476Y-94420057D02*
X157106857Y-94515295D01*
X157106857Y-94515295D02*
X157106857Y-94658152D01*
X157106857Y-94658152D02*
X157154476Y-94753390D01*
X157154476Y-94753390D02*
X157202095Y-94801009D01*
X157202095Y-94801009D02*
X157297333Y-94848628D01*
X157297333Y-94848628D02*
X157678285Y-94848628D01*
X156725904Y-94420057D02*
X156678285Y-94372438D01*
X156678285Y-94372438D02*
X156583047Y-94324819D01*
X156583047Y-94324819D02*
X156344952Y-94324819D01*
X156344952Y-94324819D02*
X156249714Y-94372438D01*
X156249714Y-94372438D02*
X156202095Y-94420057D01*
X156202095Y-94420057D02*
X156154476Y-94515295D01*
X156154476Y-94515295D02*
X156154476Y-94610533D01*
X156154476Y-94610533D02*
X156202095Y-94753390D01*
X156202095Y-94753390D02*
X156773523Y-95324819D01*
X156773523Y-95324819D02*
X156154476Y-95324819D01*
X155773523Y-94420057D02*
X155725904Y-94372438D01*
X155725904Y-94372438D02*
X155630666Y-94324819D01*
X155630666Y-94324819D02*
X155392571Y-94324819D01*
X155392571Y-94324819D02*
X155297333Y-94372438D01*
X155297333Y-94372438D02*
X155249714Y-94420057D01*
X155249714Y-94420057D02*
X155202095Y-94515295D01*
X155202095Y-94515295D02*
X155202095Y-94610533D01*
X155202095Y-94610533D02*
X155249714Y-94753390D01*
X155249714Y-94753390D02*
X155821142Y-95324819D01*
X155821142Y-95324819D02*
X155202095Y-95324819D01*
X74400819Y-40535905D02*
X73400819Y-40535905D01*
X73400819Y-40535905D02*
X73400819Y-40774000D01*
X73400819Y-40774000D02*
X73448438Y-40916857D01*
X73448438Y-40916857D02*
X73543676Y-41012095D01*
X73543676Y-41012095D02*
X73638914Y-41059714D01*
X73638914Y-41059714D02*
X73829390Y-41107333D01*
X73829390Y-41107333D02*
X73972247Y-41107333D01*
X73972247Y-41107333D02*
X74162723Y-41059714D01*
X74162723Y-41059714D02*
X74257961Y-41012095D01*
X74257961Y-41012095D02*
X74353200Y-40916857D01*
X74353200Y-40916857D02*
X74400819Y-40774000D01*
X74400819Y-40774000D02*
X74400819Y-40535905D01*
X73400819Y-42012095D02*
X73400819Y-41535905D01*
X73400819Y-41535905D02*
X73877009Y-41488286D01*
X73877009Y-41488286D02*
X73829390Y-41535905D01*
X73829390Y-41535905D02*
X73781771Y-41631143D01*
X73781771Y-41631143D02*
X73781771Y-41869238D01*
X73781771Y-41869238D02*
X73829390Y-41964476D01*
X73829390Y-41964476D02*
X73877009Y-42012095D01*
X73877009Y-42012095D02*
X73972247Y-42059714D01*
X73972247Y-42059714D02*
X74210342Y-42059714D01*
X74210342Y-42059714D02*
X74305580Y-42012095D01*
X74305580Y-42012095D02*
X74353200Y-41964476D01*
X74353200Y-41964476D02*
X74400819Y-41869238D01*
X74400819Y-41869238D02*
X74400819Y-41631143D01*
X74400819Y-41631143D02*
X74353200Y-41535905D01*
X74353200Y-41535905D02*
X74305580Y-41488286D01*
X78143356Y-39658819D02*
X78476689Y-39182628D01*
X78714784Y-39658819D02*
X78714784Y-38658819D01*
X78714784Y-38658819D02*
X78333832Y-38658819D01*
X78333832Y-38658819D02*
X78238594Y-38706438D01*
X78238594Y-38706438D02*
X78190975Y-38754057D01*
X78190975Y-38754057D02*
X78143356Y-38849295D01*
X78143356Y-38849295D02*
X78143356Y-38992152D01*
X78143356Y-38992152D02*
X78190975Y-39087390D01*
X78190975Y-39087390D02*
X78238594Y-39135009D01*
X78238594Y-39135009D02*
X78333832Y-39182628D01*
X78333832Y-39182628D02*
X78714784Y-39182628D01*
X77810022Y-38658819D02*
X77143356Y-38658819D01*
X77143356Y-38658819D02*
X77571927Y-39658819D01*
X59417219Y-43069905D02*
X58417219Y-43069905D01*
X58417219Y-43069905D02*
X58417219Y-43308000D01*
X58417219Y-43308000D02*
X58464838Y-43450857D01*
X58464838Y-43450857D02*
X58560076Y-43546095D01*
X58560076Y-43546095D02*
X58655314Y-43593714D01*
X58655314Y-43593714D02*
X58845790Y-43641333D01*
X58845790Y-43641333D02*
X58988647Y-43641333D01*
X58988647Y-43641333D02*
X59179123Y-43593714D01*
X59179123Y-43593714D02*
X59274361Y-43546095D01*
X59274361Y-43546095D02*
X59369600Y-43450857D01*
X59369600Y-43450857D02*
X59417219Y-43308000D01*
X59417219Y-43308000D02*
X59417219Y-43069905D01*
X58417219Y-44498476D02*
X58417219Y-44308000D01*
X58417219Y-44308000D02*
X58464838Y-44212762D01*
X58464838Y-44212762D02*
X58512457Y-44165143D01*
X58512457Y-44165143D02*
X58655314Y-44069905D01*
X58655314Y-44069905D02*
X58845790Y-44022286D01*
X58845790Y-44022286D02*
X59226742Y-44022286D01*
X59226742Y-44022286D02*
X59321980Y-44069905D01*
X59321980Y-44069905D02*
X59369600Y-44117524D01*
X59369600Y-44117524D02*
X59417219Y-44212762D01*
X59417219Y-44212762D02*
X59417219Y-44403238D01*
X59417219Y-44403238D02*
X59369600Y-44498476D01*
X59369600Y-44498476D02*
X59321980Y-44546095D01*
X59321980Y-44546095D02*
X59226742Y-44593714D01*
X59226742Y-44593714D02*
X58988647Y-44593714D01*
X58988647Y-44593714D02*
X58893409Y-44546095D01*
X58893409Y-44546095D02*
X58845790Y-44498476D01*
X58845790Y-44498476D02*
X58798171Y-44403238D01*
X58798171Y-44403238D02*
X58798171Y-44212762D01*
X58798171Y-44212762D02*
X58845790Y-44117524D01*
X58845790Y-44117524D02*
X58893409Y-44069905D01*
X58893409Y-44069905D02*
X58988647Y-44022286D01*
X112246819Y-55521905D02*
X111246819Y-55521905D01*
X111246819Y-55521905D02*
X111246819Y-55760000D01*
X111246819Y-55760000D02*
X111294438Y-55902857D01*
X111294438Y-55902857D02*
X111389676Y-55998095D01*
X111389676Y-55998095D02*
X111484914Y-56045714D01*
X111484914Y-56045714D02*
X111675390Y-56093333D01*
X111675390Y-56093333D02*
X111818247Y-56093333D01*
X111818247Y-56093333D02*
X112008723Y-56045714D01*
X112008723Y-56045714D02*
X112103961Y-55998095D01*
X112103961Y-55998095D02*
X112199200Y-55902857D01*
X112199200Y-55902857D02*
X112246819Y-55760000D01*
X112246819Y-55760000D02*
X112246819Y-55521905D01*
X112246819Y-56569524D02*
X112246819Y-56760000D01*
X112246819Y-56760000D02*
X112199200Y-56855238D01*
X112199200Y-56855238D02*
X112151580Y-56902857D01*
X112151580Y-56902857D02*
X112008723Y-56998095D01*
X112008723Y-56998095D02*
X111818247Y-57045714D01*
X111818247Y-57045714D02*
X111437295Y-57045714D01*
X111437295Y-57045714D02*
X111342057Y-56998095D01*
X111342057Y-56998095D02*
X111294438Y-56950476D01*
X111294438Y-56950476D02*
X111246819Y-56855238D01*
X111246819Y-56855238D02*
X111246819Y-56664762D01*
X111246819Y-56664762D02*
X111294438Y-56569524D01*
X111294438Y-56569524D02*
X111342057Y-56521905D01*
X111342057Y-56521905D02*
X111437295Y-56474286D01*
X111437295Y-56474286D02*
X111675390Y-56474286D01*
X111675390Y-56474286D02*
X111770628Y-56521905D01*
X111770628Y-56521905D02*
X111818247Y-56569524D01*
X111818247Y-56569524D02*
X111865866Y-56664762D01*
X111865866Y-56664762D02*
X111865866Y-56855238D01*
X111865866Y-56855238D02*
X111818247Y-56950476D01*
X111818247Y-56950476D02*
X111770628Y-56998095D01*
X111770628Y-56998095D02*
X111675390Y-57045714D01*
X99686357Y-88974819D02*
X100019690Y-88498628D01*
X100257785Y-88974819D02*
X100257785Y-87974819D01*
X100257785Y-87974819D02*
X99876833Y-87974819D01*
X99876833Y-87974819D02*
X99781595Y-88022438D01*
X99781595Y-88022438D02*
X99733976Y-88070057D01*
X99733976Y-88070057D02*
X99686357Y-88165295D01*
X99686357Y-88165295D02*
X99686357Y-88308152D01*
X99686357Y-88308152D02*
X99733976Y-88403390D01*
X99733976Y-88403390D02*
X99781595Y-88451009D01*
X99781595Y-88451009D02*
X99876833Y-88498628D01*
X99876833Y-88498628D02*
X100257785Y-88498628D01*
X99305404Y-88070057D02*
X99257785Y-88022438D01*
X99257785Y-88022438D02*
X99162547Y-87974819D01*
X99162547Y-87974819D02*
X98924452Y-87974819D01*
X98924452Y-87974819D02*
X98829214Y-88022438D01*
X98829214Y-88022438D02*
X98781595Y-88070057D01*
X98781595Y-88070057D02*
X98733976Y-88165295D01*
X98733976Y-88165295D02*
X98733976Y-88260533D01*
X98733976Y-88260533D02*
X98781595Y-88403390D01*
X98781595Y-88403390D02*
X99353023Y-88974819D01*
X99353023Y-88974819D02*
X98733976Y-88974819D01*
X97829214Y-87974819D02*
X98305404Y-87974819D01*
X98305404Y-87974819D02*
X98353023Y-88451009D01*
X98353023Y-88451009D02*
X98305404Y-88403390D01*
X98305404Y-88403390D02*
X98210166Y-88355771D01*
X98210166Y-88355771D02*
X97972071Y-88355771D01*
X97972071Y-88355771D02*
X97876833Y-88403390D01*
X97876833Y-88403390D02*
X97829214Y-88451009D01*
X97829214Y-88451009D02*
X97781595Y-88546247D01*
X97781595Y-88546247D02*
X97781595Y-88784342D01*
X97781595Y-88784342D02*
X97829214Y-88879580D01*
X97829214Y-88879580D02*
X97876833Y-88927200D01*
X97876833Y-88927200D02*
X97972071Y-88974819D01*
X97972071Y-88974819D02*
X98210166Y-88974819D01*
X98210166Y-88974819D02*
X98305404Y-88927200D01*
X98305404Y-88927200D02*
X98353023Y-88879580D01*
X184602285Y-90624819D02*
X184602285Y-89624819D01*
X184602285Y-89624819D02*
X184364190Y-89624819D01*
X184364190Y-89624819D02*
X184221333Y-89672438D01*
X184221333Y-89672438D02*
X184126095Y-89767676D01*
X184126095Y-89767676D02*
X184078476Y-89862914D01*
X184078476Y-89862914D02*
X184030857Y-90053390D01*
X184030857Y-90053390D02*
X184030857Y-90196247D01*
X184030857Y-90196247D02*
X184078476Y-90386723D01*
X184078476Y-90386723D02*
X184126095Y-90481961D01*
X184126095Y-90481961D02*
X184221333Y-90577200D01*
X184221333Y-90577200D02*
X184364190Y-90624819D01*
X184364190Y-90624819D02*
X184602285Y-90624819D01*
X183078476Y-90624819D02*
X183649904Y-90624819D01*
X183364190Y-90624819D02*
X183364190Y-89624819D01*
X183364190Y-89624819D02*
X183459428Y-89767676D01*
X183459428Y-89767676D02*
X183554666Y-89862914D01*
X183554666Y-89862914D02*
X183649904Y-89910533D01*
X182602285Y-90624819D02*
X182411809Y-90624819D01*
X182411809Y-90624819D02*
X182316571Y-90577200D01*
X182316571Y-90577200D02*
X182268952Y-90529580D01*
X182268952Y-90529580D02*
X182173714Y-90386723D01*
X182173714Y-90386723D02*
X182126095Y-90196247D01*
X182126095Y-90196247D02*
X182126095Y-89815295D01*
X182126095Y-89815295D02*
X182173714Y-89720057D01*
X182173714Y-89720057D02*
X182221333Y-89672438D01*
X182221333Y-89672438D02*
X182316571Y-89624819D01*
X182316571Y-89624819D02*
X182507047Y-89624819D01*
X182507047Y-89624819D02*
X182602285Y-89672438D01*
X182602285Y-89672438D02*
X182649904Y-89720057D01*
X182649904Y-89720057D02*
X182697523Y-89815295D01*
X182697523Y-89815295D02*
X182697523Y-90053390D01*
X182697523Y-90053390D02*
X182649904Y-90148628D01*
X182649904Y-90148628D02*
X182602285Y-90196247D01*
X182602285Y-90196247D02*
X182507047Y-90243866D01*
X182507047Y-90243866D02*
X182316571Y-90243866D01*
X182316571Y-90243866D02*
X182221333Y-90196247D01*
X182221333Y-90196247D02*
X182173714Y-90148628D01*
X182173714Y-90148628D02*
X182126095Y-90053390D01*
X83354057Y-93884761D02*
X83306438Y-93789523D01*
X83306438Y-93789523D02*
X83211200Y-93694285D01*
X83211200Y-93694285D02*
X83068342Y-93551428D01*
X83068342Y-93551428D02*
X83020723Y-93456190D01*
X83020723Y-93456190D02*
X83020723Y-93360952D01*
X83258819Y-93408571D02*
X83211200Y-93313333D01*
X83211200Y-93313333D02*
X83115961Y-93218095D01*
X83115961Y-93218095D02*
X82925485Y-93170476D01*
X82925485Y-93170476D02*
X82592152Y-93170476D01*
X82592152Y-93170476D02*
X82401676Y-93218095D01*
X82401676Y-93218095D02*
X82306438Y-93313333D01*
X82306438Y-93313333D02*
X82258819Y-93408571D01*
X82258819Y-93408571D02*
X82258819Y-93599047D01*
X82258819Y-93599047D02*
X82306438Y-93694285D01*
X82306438Y-93694285D02*
X82401676Y-93789523D01*
X82401676Y-93789523D02*
X82592152Y-93837142D01*
X82592152Y-93837142D02*
X82925485Y-93837142D01*
X82925485Y-93837142D02*
X83115961Y-93789523D01*
X83115961Y-93789523D02*
X83211200Y-93694285D01*
X83211200Y-93694285D02*
X83258819Y-93599047D01*
X83258819Y-93599047D02*
X83258819Y-93408571D01*
X83258819Y-94789523D02*
X83258819Y-94218095D01*
X83258819Y-94503809D02*
X82258819Y-94503809D01*
X82258819Y-94503809D02*
X82401676Y-94408571D01*
X82401676Y-94408571D02*
X82496914Y-94313333D01*
X82496914Y-94313333D02*
X82544533Y-94218095D01*
X138310857Y-92458819D02*
X138644190Y-91982628D01*
X138882285Y-92458819D02*
X138882285Y-91458819D01*
X138882285Y-91458819D02*
X138501333Y-91458819D01*
X138501333Y-91458819D02*
X138406095Y-91506438D01*
X138406095Y-91506438D02*
X138358476Y-91554057D01*
X138358476Y-91554057D02*
X138310857Y-91649295D01*
X138310857Y-91649295D02*
X138310857Y-91792152D01*
X138310857Y-91792152D02*
X138358476Y-91887390D01*
X138358476Y-91887390D02*
X138406095Y-91935009D01*
X138406095Y-91935009D02*
X138501333Y-91982628D01*
X138501333Y-91982628D02*
X138882285Y-91982628D01*
X137929904Y-91554057D02*
X137882285Y-91506438D01*
X137882285Y-91506438D02*
X137787047Y-91458819D01*
X137787047Y-91458819D02*
X137548952Y-91458819D01*
X137548952Y-91458819D02*
X137453714Y-91506438D01*
X137453714Y-91506438D02*
X137406095Y-91554057D01*
X137406095Y-91554057D02*
X137358476Y-91649295D01*
X137358476Y-91649295D02*
X137358476Y-91744533D01*
X137358476Y-91744533D02*
X137406095Y-91887390D01*
X137406095Y-91887390D02*
X137977523Y-92458819D01*
X137977523Y-92458819D02*
X137358476Y-92458819D01*
X137025142Y-91458819D02*
X136406095Y-91458819D01*
X136406095Y-91458819D02*
X136739428Y-91839771D01*
X136739428Y-91839771D02*
X136596571Y-91839771D01*
X136596571Y-91839771D02*
X136501333Y-91887390D01*
X136501333Y-91887390D02*
X136453714Y-91935009D01*
X136453714Y-91935009D02*
X136406095Y-92030247D01*
X136406095Y-92030247D02*
X136406095Y-92268342D01*
X136406095Y-92268342D02*
X136453714Y-92363580D01*
X136453714Y-92363580D02*
X136501333Y-92411200D01*
X136501333Y-92411200D02*
X136596571Y-92458819D01*
X136596571Y-92458819D02*
X136882285Y-92458819D01*
X136882285Y-92458819D02*
X136977523Y-92411200D01*
X136977523Y-92411200D02*
X137025142Y-92363580D01*
X150092819Y-97209714D02*
X149092819Y-97209714D01*
X149092819Y-97209714D02*
X149092819Y-97447809D01*
X149092819Y-97447809D02*
X149140438Y-97590666D01*
X149140438Y-97590666D02*
X149235676Y-97685904D01*
X149235676Y-97685904D02*
X149330914Y-97733523D01*
X149330914Y-97733523D02*
X149521390Y-97781142D01*
X149521390Y-97781142D02*
X149664247Y-97781142D01*
X149664247Y-97781142D02*
X149854723Y-97733523D01*
X149854723Y-97733523D02*
X149949961Y-97685904D01*
X149949961Y-97685904D02*
X150045200Y-97590666D01*
X150045200Y-97590666D02*
X150092819Y-97447809D01*
X150092819Y-97447809D02*
X150092819Y-97209714D01*
X149188057Y-98162095D02*
X149140438Y-98209714D01*
X149140438Y-98209714D02*
X149092819Y-98304952D01*
X149092819Y-98304952D02*
X149092819Y-98543047D01*
X149092819Y-98543047D02*
X149140438Y-98638285D01*
X149140438Y-98638285D02*
X149188057Y-98685904D01*
X149188057Y-98685904D02*
X149283295Y-98733523D01*
X149283295Y-98733523D02*
X149378533Y-98733523D01*
X149378533Y-98733523D02*
X149521390Y-98685904D01*
X149521390Y-98685904D02*
X150092819Y-98114476D01*
X150092819Y-98114476D02*
X150092819Y-98733523D01*
X150092819Y-99685904D02*
X150092819Y-99114476D01*
X150092819Y-99400190D02*
X149092819Y-99400190D01*
X149092819Y-99400190D02*
X149235676Y-99304952D01*
X149235676Y-99304952D02*
X149330914Y-99209714D01*
X149330914Y-99209714D02*
X149378533Y-99114476D01*
X115938166Y-36856819D02*
X116271499Y-36380628D01*
X116509594Y-36856819D02*
X116509594Y-35856819D01*
X116509594Y-35856819D02*
X116128642Y-35856819D01*
X116128642Y-35856819D02*
X116033404Y-35904438D01*
X116033404Y-35904438D02*
X115985785Y-35952057D01*
X115985785Y-35952057D02*
X115938166Y-36047295D01*
X115938166Y-36047295D02*
X115938166Y-36190152D01*
X115938166Y-36190152D02*
X115985785Y-36285390D01*
X115985785Y-36285390D02*
X116033404Y-36333009D01*
X116033404Y-36333009D02*
X116128642Y-36380628D01*
X116128642Y-36380628D02*
X116509594Y-36380628D01*
X115033404Y-35856819D02*
X115509594Y-35856819D01*
X115509594Y-35856819D02*
X115557213Y-36333009D01*
X115557213Y-36333009D02*
X115509594Y-36285390D01*
X115509594Y-36285390D02*
X115414356Y-36237771D01*
X115414356Y-36237771D02*
X115176261Y-36237771D01*
X115176261Y-36237771D02*
X115081023Y-36285390D01*
X115081023Y-36285390D02*
X115033404Y-36333009D01*
X115033404Y-36333009D02*
X114985785Y-36428247D01*
X114985785Y-36428247D02*
X114985785Y-36666342D01*
X114985785Y-36666342D02*
X115033404Y-36761580D01*
X115033404Y-36761580D02*
X115081023Y-36809200D01*
X115081023Y-36809200D02*
X115176261Y-36856819D01*
X115176261Y-36856819D02*
X115414356Y-36856819D01*
X115414356Y-36856819D02*
X115509594Y-36809200D01*
X115509594Y-36809200D02*
X115557213Y-36761580D01*
X93196819Y-72825714D02*
X92196819Y-72825714D01*
X92196819Y-72825714D02*
X92196819Y-73063809D01*
X92196819Y-73063809D02*
X92244438Y-73206666D01*
X92244438Y-73206666D02*
X92339676Y-73301904D01*
X92339676Y-73301904D02*
X92434914Y-73349523D01*
X92434914Y-73349523D02*
X92625390Y-73397142D01*
X92625390Y-73397142D02*
X92768247Y-73397142D01*
X92768247Y-73397142D02*
X92958723Y-73349523D01*
X92958723Y-73349523D02*
X93053961Y-73301904D01*
X93053961Y-73301904D02*
X93149200Y-73206666D01*
X93149200Y-73206666D02*
X93196819Y-73063809D01*
X93196819Y-73063809D02*
X93196819Y-72825714D01*
X93196819Y-74349523D02*
X93196819Y-73778095D01*
X93196819Y-74063809D02*
X92196819Y-74063809D01*
X92196819Y-74063809D02*
X92339676Y-73968571D01*
X92339676Y-73968571D02*
X92434914Y-73873333D01*
X92434914Y-73873333D02*
X92482533Y-73778095D01*
X92196819Y-75206666D02*
X92196819Y-75016190D01*
X92196819Y-75016190D02*
X92244438Y-74920952D01*
X92244438Y-74920952D02*
X92292057Y-74873333D01*
X92292057Y-74873333D02*
X92434914Y-74778095D01*
X92434914Y-74778095D02*
X92625390Y-74730476D01*
X92625390Y-74730476D02*
X93006342Y-74730476D01*
X93006342Y-74730476D02*
X93101580Y-74778095D01*
X93101580Y-74778095D02*
X93149200Y-74825714D01*
X93149200Y-74825714D02*
X93196819Y-74920952D01*
X93196819Y-74920952D02*
X93196819Y-75111428D01*
X93196819Y-75111428D02*
X93149200Y-75206666D01*
X93149200Y-75206666D02*
X93101580Y-75254285D01*
X93101580Y-75254285D02*
X93006342Y-75301904D01*
X93006342Y-75301904D02*
X92768247Y-75301904D01*
X92768247Y-75301904D02*
X92673009Y-75254285D01*
X92673009Y-75254285D02*
X92625390Y-75206666D01*
X92625390Y-75206666D02*
X92577771Y-75111428D01*
X92577771Y-75111428D02*
X92577771Y-74920952D01*
X92577771Y-74920952D02*
X92625390Y-74825714D01*
X92625390Y-74825714D02*
X92673009Y-74778095D01*
X92673009Y-74778095D02*
X92768247Y-74730476D01*
X118856357Y-70840819D02*
X119189690Y-70364628D01*
X119427785Y-70840819D02*
X119427785Y-69840819D01*
X119427785Y-69840819D02*
X119046833Y-69840819D01*
X119046833Y-69840819D02*
X118951595Y-69888438D01*
X118951595Y-69888438D02*
X118903976Y-69936057D01*
X118903976Y-69936057D02*
X118856357Y-70031295D01*
X118856357Y-70031295D02*
X118856357Y-70174152D01*
X118856357Y-70174152D02*
X118903976Y-70269390D01*
X118903976Y-70269390D02*
X118951595Y-70317009D01*
X118951595Y-70317009D02*
X119046833Y-70364628D01*
X119046833Y-70364628D02*
X119427785Y-70364628D01*
X117903976Y-70840819D02*
X118475404Y-70840819D01*
X118189690Y-70840819D02*
X118189690Y-69840819D01*
X118189690Y-69840819D02*
X118284928Y-69983676D01*
X118284928Y-69983676D02*
X118380166Y-70078914D01*
X118380166Y-70078914D02*
X118475404Y-70126533D01*
X117570642Y-69840819D02*
X116903976Y-69840819D01*
X116903976Y-69840819D02*
X117332547Y-70840819D01*
X138310857Y-74208819D02*
X138644190Y-73732628D01*
X138882285Y-74208819D02*
X138882285Y-73208819D01*
X138882285Y-73208819D02*
X138501333Y-73208819D01*
X138501333Y-73208819D02*
X138406095Y-73256438D01*
X138406095Y-73256438D02*
X138358476Y-73304057D01*
X138358476Y-73304057D02*
X138310857Y-73399295D01*
X138310857Y-73399295D02*
X138310857Y-73542152D01*
X138310857Y-73542152D02*
X138358476Y-73637390D01*
X138358476Y-73637390D02*
X138406095Y-73685009D01*
X138406095Y-73685009D02*
X138501333Y-73732628D01*
X138501333Y-73732628D02*
X138882285Y-73732628D01*
X137358476Y-74208819D02*
X137929904Y-74208819D01*
X137644190Y-74208819D02*
X137644190Y-73208819D01*
X137644190Y-73208819D02*
X137739428Y-73351676D01*
X137739428Y-73351676D02*
X137834666Y-73446914D01*
X137834666Y-73446914D02*
X137929904Y-73494533D01*
X136501333Y-73208819D02*
X136691809Y-73208819D01*
X136691809Y-73208819D02*
X136787047Y-73256438D01*
X136787047Y-73256438D02*
X136834666Y-73304057D01*
X136834666Y-73304057D02*
X136929904Y-73446914D01*
X136929904Y-73446914D02*
X136977523Y-73637390D01*
X136977523Y-73637390D02*
X136977523Y-74018342D01*
X136977523Y-74018342D02*
X136929904Y-74113580D01*
X136929904Y-74113580D02*
X136882285Y-74161200D01*
X136882285Y-74161200D02*
X136787047Y-74208819D01*
X136787047Y-74208819D02*
X136596571Y-74208819D01*
X136596571Y-74208819D02*
X136501333Y-74161200D01*
X136501333Y-74161200D02*
X136453714Y-74113580D01*
X136453714Y-74113580D02*
X136406095Y-74018342D01*
X136406095Y-74018342D02*
X136406095Y-73780247D01*
X136406095Y-73780247D02*
X136453714Y-73685009D01*
X136453714Y-73685009D02*
X136501333Y-73637390D01*
X136501333Y-73637390D02*
X136596571Y-73589771D01*
X136596571Y-73589771D02*
X136787047Y-73589771D01*
X136787047Y-73589771D02*
X136882285Y-73637390D01*
X136882285Y-73637390D02*
X136929904Y-73685009D01*
X136929904Y-73685009D02*
X136977523Y-73780247D01*
X156527166Y-59369819D02*
X156860499Y-58893628D01*
X157098594Y-59369819D02*
X157098594Y-58369819D01*
X157098594Y-58369819D02*
X156717642Y-58369819D01*
X156717642Y-58369819D02*
X156622404Y-58417438D01*
X156622404Y-58417438D02*
X156574785Y-58465057D01*
X156574785Y-58465057D02*
X156527166Y-58560295D01*
X156527166Y-58560295D02*
X156527166Y-58703152D01*
X156527166Y-58703152D02*
X156574785Y-58798390D01*
X156574785Y-58798390D02*
X156622404Y-58846009D01*
X156622404Y-58846009D02*
X156717642Y-58893628D01*
X156717642Y-58893628D02*
X157098594Y-58893628D01*
X156050975Y-59369819D02*
X155860499Y-59369819D01*
X155860499Y-59369819D02*
X155765261Y-59322200D01*
X155765261Y-59322200D02*
X155717642Y-59274580D01*
X155717642Y-59274580D02*
X155622404Y-59131723D01*
X155622404Y-59131723D02*
X155574785Y-58941247D01*
X155574785Y-58941247D02*
X155574785Y-58560295D01*
X155574785Y-58560295D02*
X155622404Y-58465057D01*
X155622404Y-58465057D02*
X155670023Y-58417438D01*
X155670023Y-58417438D02*
X155765261Y-58369819D01*
X155765261Y-58369819D02*
X155955737Y-58369819D01*
X155955737Y-58369819D02*
X156050975Y-58417438D01*
X156050975Y-58417438D02*
X156098594Y-58465057D01*
X156098594Y-58465057D02*
X156146213Y-58560295D01*
X156146213Y-58560295D02*
X156146213Y-58798390D01*
X156146213Y-58798390D02*
X156098594Y-58893628D01*
X156098594Y-58893628D02*
X156050975Y-58941247D01*
X156050975Y-58941247D02*
X155955737Y-58988866D01*
X155955737Y-58988866D02*
X155765261Y-58988866D01*
X155765261Y-58988866D02*
X155670023Y-58941247D01*
X155670023Y-58941247D02*
X155622404Y-58893628D01*
X155622404Y-58893628D02*
X155574785Y-58798390D01*
X156480166Y-41476819D02*
X156813499Y-41000628D01*
X157051594Y-41476819D02*
X157051594Y-40476819D01*
X157051594Y-40476819D02*
X156670642Y-40476819D01*
X156670642Y-40476819D02*
X156575404Y-40524438D01*
X156575404Y-40524438D02*
X156527785Y-40572057D01*
X156527785Y-40572057D02*
X156480166Y-40667295D01*
X156480166Y-40667295D02*
X156480166Y-40810152D01*
X156480166Y-40810152D02*
X156527785Y-40905390D01*
X156527785Y-40905390D02*
X156575404Y-40953009D01*
X156575404Y-40953009D02*
X156670642Y-41000628D01*
X156670642Y-41000628D02*
X157051594Y-41000628D01*
X156146832Y-40476819D02*
X155527785Y-40476819D01*
X155527785Y-40476819D02*
X155861118Y-40857771D01*
X155861118Y-40857771D02*
X155718261Y-40857771D01*
X155718261Y-40857771D02*
X155623023Y-40905390D01*
X155623023Y-40905390D02*
X155575404Y-40953009D01*
X155575404Y-40953009D02*
X155527785Y-41048247D01*
X155527785Y-41048247D02*
X155527785Y-41286342D01*
X155527785Y-41286342D02*
X155575404Y-41381580D01*
X155575404Y-41381580D02*
X155623023Y-41429200D01*
X155623023Y-41429200D02*
X155718261Y-41476819D01*
X155718261Y-41476819D02*
X156003975Y-41476819D01*
X156003975Y-41476819D02*
X156099213Y-41429200D01*
X156099213Y-41429200D02*
X156146832Y-41381580D01*
X80771547Y-55974819D02*
X81104880Y-55498628D01*
X81342975Y-55974819D02*
X81342975Y-54974819D01*
X81342975Y-54974819D02*
X80962023Y-54974819D01*
X80962023Y-54974819D02*
X80866785Y-55022438D01*
X80866785Y-55022438D02*
X80819166Y-55070057D01*
X80819166Y-55070057D02*
X80771547Y-55165295D01*
X80771547Y-55165295D02*
X80771547Y-55308152D01*
X80771547Y-55308152D02*
X80819166Y-55403390D01*
X80819166Y-55403390D02*
X80866785Y-55451009D01*
X80866785Y-55451009D02*
X80962023Y-55498628D01*
X80962023Y-55498628D02*
X81342975Y-55498628D01*
X79819166Y-55974819D02*
X80390594Y-55974819D01*
X80104880Y-55974819D02*
X80104880Y-54974819D01*
X80104880Y-54974819D02*
X80200118Y-55117676D01*
X80200118Y-55117676D02*
X80295356Y-55212914D01*
X80295356Y-55212914D02*
X80390594Y-55260533D01*
X79485832Y-54974819D02*
X78866785Y-54974819D01*
X78866785Y-54974819D02*
X79200118Y-55355771D01*
X79200118Y-55355771D02*
X79057261Y-55355771D01*
X79057261Y-55355771D02*
X78962023Y-55403390D01*
X78962023Y-55403390D02*
X78914404Y-55451009D01*
X78914404Y-55451009D02*
X78866785Y-55546247D01*
X78866785Y-55546247D02*
X78866785Y-55784342D01*
X78866785Y-55784342D02*
X78914404Y-55879580D01*
X78914404Y-55879580D02*
X78962023Y-55927200D01*
X78962023Y-55927200D02*
X79057261Y-55974819D01*
X79057261Y-55974819D02*
X79342975Y-55974819D01*
X79342975Y-55974819D02*
X79438213Y-55927200D01*
X79438213Y-55927200D02*
X79485832Y-55879580D01*
X74738000Y-47220000D02*
X74738000Y-47720000D01*
X74738000Y-51320000D02*
X74738000Y-51920000D01*
X74738000Y-51920000D02*
X79238000Y-51920000D01*
X79238000Y-47220000D02*
X74738000Y-47220000D01*
X79238000Y-47920000D02*
X79238000Y-47220000D01*
X79738000Y-52420000D02*
X79738000Y-53420000D01*
X80238000Y-53920000D02*
X79738000Y-53420000D01*
X83238000Y-49420000D02*
X80738000Y-49420000D01*
X83238000Y-53920000D02*
X80238000Y-53920000D01*
X83738000Y-49920000D02*
X83238000Y-49420000D01*
X83738000Y-53420000D02*
X83238000Y-53920000D01*
X79738000Y-52420000D02*
G75*
G03*
X79238000Y-51920000I-500001J-1D01*
G01*
X79238000Y-47920000D02*
G75*
G03*
X80738000Y-49420000I1500001J1D01*
G01*
X112738000Y-98220000D02*
X112738000Y-98720000D01*
X112738000Y-102320000D02*
X112738000Y-102920000D01*
X112738000Y-102920000D02*
X117238000Y-102920000D01*
X117238000Y-98220000D02*
X112738000Y-98220000D01*
X117238000Y-98920000D02*
X117238000Y-98220000D01*
X117738000Y-103420000D02*
X117738000Y-104420000D01*
X118238000Y-104920000D02*
X117738000Y-104420000D01*
X121238000Y-100420000D02*
X118738000Y-100420000D01*
X121238000Y-104920000D02*
X118238000Y-104920000D01*
X121738000Y-100920000D02*
X121238000Y-100420000D01*
X121738000Y-104420000D02*
X121238000Y-104920000D01*
X117738000Y-103420000D02*
G75*
G03*
X117238000Y-102920000I-500001J-1D01*
G01*
X117238000Y-98920000D02*
G75*
G03*
X118738000Y-100420000I1500001J1D01*
G01*
X93738000Y-98220000D02*
X93738000Y-98720000D01*
X93738000Y-102320000D02*
X93738000Y-102920000D01*
X93738000Y-102920000D02*
X98238000Y-102920000D01*
X98238000Y-98220000D02*
X93738000Y-98220000D01*
X98238000Y-98920000D02*
X98238000Y-98220000D01*
X98738000Y-103420000D02*
X98738000Y-104420000D01*
X99238000Y-104920000D02*
X98738000Y-104420000D01*
X102238000Y-100420000D02*
X99738000Y-100420000D01*
X102238000Y-104920000D02*
X99238000Y-104920000D01*
X102738000Y-100920000D02*
X102238000Y-100420000D01*
X102738000Y-104420000D02*
X102238000Y-104920000D01*
X98738000Y-103420000D02*
G75*
G03*
X98238000Y-102920000I-500001J-1D01*
G01*
X98238000Y-98920000D02*
G75*
G03*
X99738000Y-100420000I1500001J1D01*
G01*
X93738000Y-62220000D02*
X93738000Y-62720000D01*
X93738000Y-66320000D02*
X93738000Y-66920000D01*
X93738000Y-66920000D02*
X98238000Y-66920000D01*
X98238000Y-62220000D02*
X93738000Y-62220000D01*
X98238000Y-62920000D02*
X98238000Y-62220000D01*
X98738000Y-67420000D02*
X98738000Y-68420000D01*
X99238000Y-68920000D02*
X98738000Y-68420000D01*
X102238000Y-64420000D02*
X99738000Y-64420000D01*
X102238000Y-68920000D02*
X99238000Y-68920000D01*
X102738000Y-64920000D02*
X102238000Y-64420000D01*
X102738000Y-68420000D02*
X102238000Y-68920000D01*
X98738000Y-67420000D02*
G75*
G03*
X98238000Y-66920000I-500001J-1D01*
G01*
X98238000Y-62920000D02*
G75*
G03*
X99738000Y-64420000I1500001J1D01*
G01*
X74738000Y-65220000D02*
X74738000Y-65720000D01*
X74738000Y-69320000D02*
X74738000Y-69920000D01*
X74738000Y-69920000D02*
X79238000Y-69920000D01*
X79238000Y-65220000D02*
X74738000Y-65220000D01*
X79238000Y-65920000D02*
X79238000Y-65220000D01*
X79738000Y-70420000D02*
X79738000Y-71420000D01*
X80238000Y-71920000D02*
X79738000Y-71420000D01*
X83238000Y-67420000D02*
X80738000Y-67420000D01*
X83238000Y-71920000D02*
X80238000Y-71920000D01*
X83738000Y-67920000D02*
X83238000Y-67420000D01*
X83738000Y-71420000D02*
X83238000Y-71920000D01*
X79738000Y-70420000D02*
G75*
G03*
X79238000Y-69920000I-500001J-1D01*
G01*
X79238000Y-65920000D02*
G75*
G03*
X80738000Y-67420000I1500001J1D01*
G01*
X150470900Y-50470000D02*
X150470900Y-50970000D01*
X150470900Y-54570000D02*
X150470900Y-55170000D01*
X150470900Y-55170000D02*
X154970900Y-55170000D01*
X154970900Y-50470000D02*
X150470900Y-50470000D01*
X154970900Y-51170000D02*
X154970900Y-50470000D01*
X155470900Y-55670000D02*
X155470900Y-56670000D01*
X155970900Y-57170000D02*
X155470900Y-56670000D01*
X158970900Y-52670000D02*
X156470900Y-52670000D01*
X158970900Y-57170000D02*
X155970900Y-57170000D01*
X159470900Y-53170000D02*
X158970900Y-52670000D01*
X159470900Y-56670000D02*
X158970900Y-57170000D01*
X155470900Y-55670000D02*
G75*
G03*
X154970900Y-55170000I-500001J-1D01*
G01*
X154970900Y-51170000D02*
G75*
G03*
X156470900Y-52670000I1500001J1D01*
G01*
X55738000Y-86220000D02*
X55738000Y-86720000D01*
X55738000Y-90320000D02*
X55738000Y-90920000D01*
X55738000Y-90920000D02*
X60238000Y-90920000D01*
X60238000Y-86220000D02*
X55738000Y-86220000D01*
X60238000Y-86920000D02*
X60238000Y-86220000D01*
X60738000Y-91420000D02*
X60738000Y-92420000D01*
X61238000Y-92920000D02*
X60738000Y-92420000D01*
X64238000Y-88420000D02*
X61738000Y-88420000D01*
X64238000Y-92920000D02*
X61238000Y-92920000D01*
X64738000Y-88920000D02*
X64238000Y-88420000D01*
X64738000Y-92420000D02*
X64238000Y-92920000D01*
X60738000Y-91420000D02*
G75*
G03*
X60238000Y-90920000I-500001J-1D01*
G01*
X60238000Y-86920000D02*
G75*
G03*
X61738000Y-88420000I1500001J1D01*
G01*
X112738000Y-62220000D02*
X112738000Y-62720000D01*
X112738000Y-66320000D02*
X112738000Y-66920000D01*
X112738000Y-66920000D02*
X117238000Y-66920000D01*
X117238000Y-62220000D02*
X112738000Y-62220000D01*
X117238000Y-62920000D02*
X117238000Y-62220000D01*
X117738000Y-67420000D02*
X117738000Y-68420000D01*
X118238000Y-68920000D02*
X117738000Y-68420000D01*
X121238000Y-64420000D02*
X118738000Y-64420000D01*
X121238000Y-68920000D02*
X118238000Y-68920000D01*
X121738000Y-64920000D02*
X121238000Y-64420000D01*
X121738000Y-68420000D02*
X121238000Y-68920000D01*
X117738000Y-67420000D02*
G75*
G03*
X117238000Y-66920000I-500001J-1D01*
G01*
X117238000Y-62920000D02*
G75*
G03*
X118738000Y-64420000I1500001J1D01*
G01*
X131738000Y-83220000D02*
X131738000Y-83720000D01*
X131738000Y-87320000D02*
X131738000Y-87920000D01*
X131738000Y-87920000D02*
X136238000Y-87920000D01*
X136238000Y-83220000D02*
X131738000Y-83220000D01*
X136238000Y-83920000D02*
X136238000Y-83220000D01*
X136738000Y-88420000D02*
X136738000Y-89420000D01*
X137238000Y-89920000D02*
X136738000Y-89420000D01*
X140238000Y-85420000D02*
X137738000Y-85420000D01*
X140238000Y-89920000D02*
X137238000Y-89920000D01*
X140738000Y-85920000D02*
X140238000Y-85420000D01*
X140738000Y-89420000D02*
X140238000Y-89920000D01*
X136738000Y-88420000D02*
G75*
G03*
X136238000Y-87920000I-500001J-1D01*
G01*
X136238000Y-83920000D02*
G75*
G03*
X137738000Y-85420000I1500001J1D01*
G01*
X112738000Y-80220000D02*
X112738000Y-80720000D01*
X112738000Y-84320000D02*
X112738000Y-84920000D01*
X112738000Y-84920000D02*
X117238000Y-84920000D01*
X117238000Y-80220000D02*
X112738000Y-80220000D01*
X117238000Y-80920000D02*
X117238000Y-80220000D01*
X117738000Y-85420000D02*
X117738000Y-86420000D01*
X118238000Y-86920000D02*
X117738000Y-86420000D01*
X121238000Y-82420000D02*
X118738000Y-82420000D01*
X121238000Y-86920000D02*
X118238000Y-86920000D01*
X121738000Y-82920000D02*
X121238000Y-82420000D01*
X121738000Y-86420000D02*
X121238000Y-86920000D01*
X117738000Y-85420000D02*
G75*
G03*
X117238000Y-84920000I-500001J-1D01*
G01*
X117238000Y-80920000D02*
G75*
G03*
X118738000Y-82420000I1500001J1D01*
G01*
X131738000Y-47220000D02*
X131738000Y-47720000D01*
X131738000Y-51320000D02*
X131738000Y-51920000D01*
X131738000Y-51920000D02*
X136238000Y-51920000D01*
X136238000Y-47220000D02*
X131738000Y-47220000D01*
X136238000Y-47920000D02*
X136238000Y-47220000D01*
X136738000Y-52420000D02*
X136738000Y-53420000D01*
X137238000Y-53920000D02*
X136738000Y-53420000D01*
X140238000Y-49420000D02*
X137738000Y-49420000D01*
X140238000Y-53920000D02*
X137238000Y-53920000D01*
X140738000Y-49920000D02*
X140238000Y-49420000D01*
X140738000Y-53420000D02*
X140238000Y-53920000D01*
X136738000Y-52420000D02*
G75*
G03*
X136238000Y-51920000I-500001J-1D01*
G01*
X136238000Y-47920000D02*
G75*
G03*
X137738000Y-49420000I1500001J1D01*
G01*
X55738000Y-68220000D02*
X55738000Y-68720000D01*
X55738000Y-72320000D02*
X55738000Y-72920000D01*
X55738000Y-72920000D02*
X60238000Y-72920000D01*
X60238000Y-68220000D02*
X55738000Y-68220000D01*
X60238000Y-68920000D02*
X60238000Y-68220000D01*
X60738000Y-73420000D02*
X60738000Y-74420000D01*
X61238000Y-74920000D02*
X60738000Y-74420000D01*
X64238000Y-70420000D02*
X61738000Y-70420000D01*
X64238000Y-74920000D02*
X61238000Y-74920000D01*
X64738000Y-70920000D02*
X64238000Y-70420000D01*
X64738000Y-74420000D02*
X64238000Y-74920000D01*
X60738000Y-73420000D02*
G75*
G03*
X60238000Y-72920000I-500001J-1D01*
G01*
X60238000Y-68920000D02*
G75*
G03*
X61738000Y-70420000I1500001J1D01*
G01*
X55738000Y-50220000D02*
X55738000Y-50720000D01*
X55738000Y-54320000D02*
X55738000Y-54920000D01*
X55738000Y-54920000D02*
X60238000Y-54920000D01*
X60238000Y-50220000D02*
X55738000Y-50220000D01*
X60238000Y-50920000D02*
X60238000Y-50220000D01*
X60738000Y-55420000D02*
X60738000Y-56420000D01*
X61238000Y-56920000D02*
X60738000Y-56420000D01*
X64238000Y-52420000D02*
X61738000Y-52420000D01*
X64238000Y-56920000D02*
X61238000Y-56920000D01*
X64738000Y-52920000D02*
X64238000Y-52420000D01*
X64738000Y-56420000D02*
X64238000Y-56920000D01*
X60738000Y-55420000D02*
G75*
G03*
X60238000Y-54920000I-500001J-1D01*
G01*
X60238000Y-50920000D02*
G75*
G03*
X61738000Y-52420000I1500001J1D01*
G01*
X150470900Y-86470000D02*
X150470900Y-86970000D01*
X150470900Y-90570000D02*
X150470900Y-91170000D01*
X150470900Y-91170000D02*
X154970900Y-91170000D01*
X154970900Y-86470000D02*
X150470900Y-86470000D01*
X154970900Y-87170000D02*
X154970900Y-86470000D01*
X155470900Y-91670000D02*
X155470900Y-92670000D01*
X155970900Y-93170000D02*
X155470900Y-92670000D01*
X158970900Y-88670000D02*
X156470900Y-88670000D01*
X158970900Y-93170000D02*
X155970900Y-93170000D01*
X159470900Y-89170000D02*
X158970900Y-88670000D01*
X159470900Y-92670000D02*
X158970900Y-93170000D01*
X155470900Y-91670000D02*
G75*
G03*
X154970900Y-91170000I-500001J-1D01*
G01*
X154970900Y-87170000D02*
G75*
G03*
X156470900Y-88670000I1500001J1D01*
G01*
X112738000Y-44220000D02*
X112738000Y-44720000D01*
X112738000Y-48320000D02*
X112738000Y-48920000D01*
X112738000Y-48920000D02*
X117238000Y-48920000D01*
X117238000Y-44220000D02*
X112738000Y-44220000D01*
X117238000Y-44920000D02*
X117238000Y-44220000D01*
X117738000Y-49420000D02*
X117738000Y-50420000D01*
X118238000Y-50920000D02*
X117738000Y-50420000D01*
X121238000Y-46420000D02*
X118738000Y-46420000D01*
X121238000Y-50920000D02*
X118238000Y-50920000D01*
X121738000Y-46920000D02*
X121238000Y-46420000D01*
X121738000Y-50420000D02*
X121238000Y-50920000D01*
X117738000Y-49420000D02*
G75*
G03*
X117238000Y-48920000I-500001J-1D01*
G01*
X117238000Y-44920000D02*
G75*
G03*
X118738000Y-46420000I1500001J1D01*
G01*
X171250663Y-105600605D02*
X171146707Y-106089678D01*
X170398225Y-109611010D02*
X170273478Y-110197898D01*
X170273478Y-110197898D02*
X174675143Y-111133501D01*
X175652327Y-106536207D02*
X171250663Y-105600605D01*
X175506789Y-107220910D02*
X175652327Y-106536207D01*
X175060260Y-111726531D02*
X174852349Y-112704678D01*
X175237467Y-113297708D02*
X174852349Y-112704678D01*
X179107512Y-109519779D02*
X176662143Y-108999999D01*
X178171910Y-113921443D02*
X175237467Y-113297708D01*
X179492630Y-110112808D02*
X179107512Y-109519779D01*
X178764939Y-113536325D02*
X178171910Y-113921443D01*
X175060259Y-111726531D02*
G75*
G03*
X174675143Y-111133502I-489074J103956D01*
G01*
X175506790Y-107220910D02*
G75*
G03*
X176662143Y-108999998I1467222J-311867D01*
G01*
X150470900Y-68515000D02*
X150470900Y-69015000D01*
X150470900Y-72615000D02*
X150470900Y-73215000D01*
X150470900Y-73215000D02*
X154970900Y-73215000D01*
X154970900Y-68515000D02*
X150470900Y-68515000D01*
X154970900Y-69215000D02*
X154970900Y-68515000D01*
X155470900Y-73715000D02*
X155470900Y-74715000D01*
X155970900Y-75215000D02*
X155470900Y-74715000D01*
X158970900Y-70715000D02*
X156470900Y-70715000D01*
X158970900Y-75215000D02*
X155970900Y-75215000D01*
X159470900Y-71215000D02*
X158970900Y-70715000D01*
X159470900Y-74715000D02*
X158970900Y-75215000D01*
X155470900Y-73715000D02*
G75*
G03*
X154970900Y-73215000I-500001J-1D01*
G01*
X154970900Y-69215000D02*
G75*
G03*
X156470900Y-70715000I1500001J1D01*
G01*
X93738000Y-80220000D02*
X93738000Y-80720000D01*
X93738000Y-84320000D02*
X93738000Y-84920000D01*
X93738000Y-84920000D02*
X98238000Y-84920000D01*
X98238000Y-80220000D02*
X93738000Y-80220000D01*
X98238000Y-80920000D02*
X98238000Y-80220000D01*
X98738000Y-85420000D02*
X98738000Y-86420000D01*
X99238000Y-86920000D02*
X98738000Y-86420000D01*
X102238000Y-82420000D02*
X99738000Y-82420000D01*
X102238000Y-86920000D02*
X99238000Y-86920000D01*
X102738000Y-82920000D02*
X102238000Y-82420000D01*
X102738000Y-86420000D02*
X102238000Y-86920000D01*
X98738000Y-85420000D02*
G75*
G03*
X98238000Y-84920000I-500001J-1D01*
G01*
X98238000Y-80920000D02*
G75*
G03*
X99738000Y-82420000I1500001J1D01*
G01*
X131738000Y-65220000D02*
X131738000Y-65720000D01*
X131738000Y-69320000D02*
X131738000Y-69920000D01*
X131738000Y-69920000D02*
X136238000Y-69920000D01*
X136238000Y-65220000D02*
X131738000Y-65220000D01*
X136238000Y-65920000D02*
X136238000Y-65220000D01*
X136738000Y-70420000D02*
X136738000Y-71420000D01*
X137238000Y-71920000D02*
X136738000Y-71420000D01*
X140238000Y-67420000D02*
X137738000Y-67420000D01*
X140238000Y-71920000D02*
X137238000Y-71920000D01*
X140738000Y-67920000D02*
X140238000Y-67420000D01*
X140738000Y-71420000D02*
X140238000Y-71920000D01*
X136738000Y-70420000D02*
G75*
G03*
X136238000Y-69920000I-500001J-1D01*
G01*
X136238000Y-65920000D02*
G75*
G03*
X137738000Y-67420000I1500001J1D01*
G01*
X93738000Y-44220000D02*
X93738000Y-44720000D01*
X93738000Y-48320000D02*
X93738000Y-48920000D01*
X93738000Y-48920000D02*
X98238000Y-48920000D01*
X98238000Y-44220000D02*
X93738000Y-44220000D01*
X98238000Y-44920000D02*
X98238000Y-44220000D01*
X98738000Y-49420000D02*
X98738000Y-50420000D01*
X99238000Y-50920000D02*
X98738000Y-50420000D01*
X102238000Y-46420000D02*
X99738000Y-46420000D01*
X102238000Y-50920000D02*
X99238000Y-50920000D01*
X102738000Y-46920000D02*
X102238000Y-46420000D01*
X102738000Y-50420000D02*
X102238000Y-50920000D01*
X98738000Y-49420000D02*
G75*
G03*
X98238000Y-48920000I-500001J-1D01*
G01*
X98238000Y-44920000D02*
G75*
G03*
X99738000Y-46420000I1500001J1D01*
G01*
X131738000Y-101220000D02*
X131738000Y-101720000D01*
X131738000Y-105320000D02*
X131738000Y-105920000D01*
X131738000Y-105920000D02*
X136238000Y-105920000D01*
X136238000Y-101220000D02*
X131738000Y-101220000D01*
X136238000Y-101920000D02*
X136238000Y-101220000D01*
X136738000Y-106420000D02*
X136738000Y-107420000D01*
X137238000Y-107920000D02*
X136738000Y-107420000D01*
X140238000Y-103420000D02*
X137738000Y-103420000D01*
X140238000Y-107920000D02*
X137238000Y-107920000D01*
X140738000Y-103920000D02*
X140238000Y-103420000D01*
X140738000Y-107420000D02*
X140238000Y-107920000D01*
X136738000Y-106420000D02*
G75*
G03*
X136238000Y-105920000I-500001J-1D01*
G01*
X136238000Y-101920000D02*
G75*
G03*
X137738000Y-103420000I1500001J1D01*
G01*
X74738000Y-83220000D02*
X74738000Y-83720000D01*
X74738000Y-87320000D02*
X74738000Y-87920000D01*
X74738000Y-87920000D02*
X79238000Y-87920000D01*
X79238000Y-83220000D02*
X74738000Y-83220000D01*
X79238000Y-83920000D02*
X79238000Y-83220000D01*
X79738000Y-88420000D02*
X79738000Y-89420000D01*
X80238000Y-89920000D02*
X79738000Y-89420000D01*
X83238000Y-85420000D02*
X80738000Y-85420000D01*
X83238000Y-89920000D02*
X80238000Y-89920000D01*
X83738000Y-85920000D02*
X83238000Y-85420000D01*
X83738000Y-89420000D02*
X83238000Y-89920000D01*
X79738000Y-88420000D02*
G75*
G03*
X79238000Y-87920000I-500001J-1D01*
G01*
X79238000Y-83920000D02*
G75*
G03*
X80738000Y-85420000I1500001J1D01*
G01*
X150470900Y-104470000D02*
X150470900Y-104970000D01*
X150470900Y-108570000D02*
X150470900Y-109170000D01*
X150470900Y-109170000D02*
X154970900Y-109170000D01*
X154970900Y-104470000D02*
X150470900Y-104470000D01*
X154970900Y-105170000D02*
X154970900Y-104470000D01*
X155470900Y-109670000D02*
X155470900Y-110670000D01*
X155970900Y-111170000D02*
X155470900Y-110670000D01*
X158970900Y-106670000D02*
X156470900Y-106670000D01*
X158970900Y-111170000D02*
X155970900Y-111170000D01*
X159470900Y-107170000D02*
X158970900Y-106670000D01*
X159470900Y-110670000D02*
X158970900Y-111170000D01*
X155470900Y-109670000D02*
G75*
G03*
X154970900Y-109170000I-500001J-1D01*
G01*
X154970900Y-105170000D02*
G75*
G03*
X156470900Y-106670000I1500001J1D01*
G01*
D11*
X61919754Y-42905000D02*
X61465626Y-42905000D01*
X61919754Y-41435000D02*
X61465626Y-41435000D01*
X76946000Y-74728000D02*
X76946000Y-78738000D01*
X74946000Y-74728000D02*
X76946000Y-74728000D01*
X74946000Y-74728000D02*
X74946000Y-78738000D01*
X179084248Y-85794000D02*
X179606752Y-85794000D01*
X179084248Y-87264000D02*
X179606752Y-87264000D01*
X95996000Y-53900000D02*
X95996000Y-57910000D01*
X93996000Y-53900000D02*
X95996000Y-53900000D01*
X93996000Y-53900000D02*
X93996000Y-57910000D01*
X152638000Y-78030000D02*
X152638000Y-82040000D01*
X150638000Y-78030000D02*
X152638000Y-78030000D01*
X150638000Y-78030000D02*
X150638000Y-82040000D01*
X99390564Y-54905000D02*
X98936436Y-54905000D01*
X99390564Y-53435000D02*
X98936436Y-53435000D01*
X152638000Y-42216000D02*
X152638000Y-46226000D01*
X150638000Y-42216000D02*
X152638000Y-42216000D01*
X150638000Y-42216000D02*
X150638000Y-46226000D01*
X137895064Y-58139000D02*
X137440936Y-58139000D01*
X137895064Y-56669000D02*
X137440936Y-56669000D01*
X57676400Y-59642500D02*
X57676400Y-63652500D01*
X55676400Y-59642500D02*
X57676400Y-59642500D01*
X55676400Y-59642500D02*
X55676400Y-63652500D01*
X179084248Y-82323000D02*
X179606752Y-82323000D01*
X179084248Y-83793000D02*
X179606752Y-83793000D01*
X133842000Y-74728000D02*
X133842000Y-78738000D01*
X131842000Y-74728000D02*
X133842000Y-74728000D01*
X131842000Y-74728000D02*
X131842000Y-78738000D01*
X85879000Y-98525064D02*
X85879000Y-98070936D01*
X87349000Y-98525064D02*
X87349000Y-98070936D01*
X178892564Y-99795000D02*
X178438436Y-99795000D01*
X178892564Y-98325000D02*
X178438436Y-98325000D01*
X115808000Y-72316000D02*
X115808000Y-76326000D01*
X113808000Y-72316000D02*
X115808000Y-72316000D01*
X113808000Y-72316000D02*
X113808000Y-76326000D01*
X99390564Y-72905000D02*
X98936436Y-72905000D01*
X99390564Y-71435000D02*
X98936436Y-71435000D01*
X81223754Y-75905000D02*
X80769626Y-75905000D01*
X81223754Y-74435000D02*
X80769626Y-74435000D01*
X61919754Y-60905000D02*
X61465626Y-60905000D01*
X61919754Y-59435000D02*
X61465626Y-59435000D01*
X114792000Y-35740000D02*
X114792000Y-39750000D01*
X112792000Y-35740000D02*
X114792000Y-35740000D01*
X112792000Y-35740000D02*
X112792000Y-39750000D01*
X118948564Y-90837000D02*
X118494436Y-90837000D01*
X118948564Y-89367000D02*
X118494436Y-89367000D01*
X83593000Y-98525064D02*
X83593000Y-98070936D01*
X85063000Y-98525064D02*
X85063000Y-98070936D01*
X133842000Y-92766000D02*
X133842000Y-96776000D01*
X131842000Y-92766000D02*
X133842000Y-92766000D01*
X131842000Y-92766000D02*
X131842000Y-96776000D01*
X114792000Y-89714000D02*
X114792000Y-93724000D01*
X112792000Y-89714000D02*
X114792000Y-89714000D01*
X112792000Y-89714000D02*
X112792000Y-93724000D01*
X77708000Y-56822000D02*
X77708000Y-60832000D01*
X75708000Y-56822000D02*
X77708000Y-56822000D01*
X75708000Y-56822000D02*
X75708000Y-60832000D01*
X152638000Y-60250000D02*
X152638000Y-64260000D01*
X150638000Y-60250000D02*
X152638000Y-60250000D01*
X150638000Y-60250000D02*
X150638000Y-64260000D01*
X166539000Y-36350000D02*
X167329000Y-36350000D01*
X168339000Y-36950000D02*
X168339000Y-42650000D01*
X165489000Y-38200000D02*
X165489000Y-39900000D01*
X169629000Y-38400000D02*
X169839000Y-38600000D01*
X168339000Y-38400000D02*
X169629000Y-38400000D01*
X169839000Y-38600000D02*
X169839000Y-39500000D01*
X169629000Y-39700000D02*
X169839000Y-39500000D01*
X169629000Y-39700000D02*
X168339000Y-39700000D01*
X165489000Y-41200000D02*
X165489000Y-41400000D01*
X167329000Y-43250000D02*
X166539000Y-43250000D01*
X61919754Y-78905000D02*
X61465626Y-78905000D01*
X61919754Y-77435000D02*
X61465626Y-77435000D01*
X174646946Y-97551944D02*
X174646946Y-101561944D01*
X172646946Y-97551944D02*
X174646946Y-97551944D01*
X172646946Y-97551944D02*
X172646946Y-101561944D01*
X100152564Y-37057000D02*
X99698436Y-37057000D01*
X100152564Y-35587000D02*
X99698436Y-35587000D01*
X95742000Y-89714000D02*
X95742000Y-93724000D01*
X93742000Y-89714000D02*
X95742000Y-89714000D01*
X93742000Y-89714000D02*
X93742000Y-93724000D01*
X95996000Y-35866000D02*
X95996000Y-39876000D01*
X93996000Y-35866000D02*
X95996000Y-35866000D01*
X93996000Y-35866000D02*
X93996000Y-39876000D01*
X137895064Y-40105000D02*
X137440936Y-40105000D01*
X137895064Y-38635000D02*
X137440936Y-38635000D01*
X171694000Y-45568000D02*
X171694000Y-51968000D01*
X170494000Y-45568000D02*
X171694000Y-45568000D01*
X167694000Y-45568000D02*
X168894000Y-45568000D01*
X171694000Y-51968000D02*
X170494000Y-51968000D01*
X168894000Y-51968000D02*
X167694000Y-51968000D01*
X167694000Y-51968000D02*
X167694000Y-45568000D01*
X133842000Y-38914000D02*
X133842000Y-42924000D01*
X131842000Y-38914000D02*
X133842000Y-38914000D01*
X131842000Y-38914000D02*
X131842000Y-42924000D01*
X133842000Y-56694000D02*
X133842000Y-60704000D01*
X131842000Y-56694000D02*
X133842000Y-56694000D01*
X131842000Y-56694000D02*
X131842000Y-60704000D01*
X118948564Y-54837000D02*
X118494436Y-54837000D01*
X118948564Y-53367000D02*
X118494436Y-53367000D01*
X57676400Y-77642500D02*
X57676400Y-81652500D01*
X55676400Y-77642500D02*
X57676400Y-77642500D01*
X55676400Y-77642500D02*
X55676400Y-81652500D01*
X156691064Y-79255000D02*
X156236936Y-79255000D01*
X156691064Y-77785000D02*
X156236936Y-77785000D01*
X156691064Y-97255000D02*
X156236936Y-97255000D01*
X156691064Y-95785000D02*
X156236936Y-95785000D01*
X76946000Y-38914000D02*
X76946000Y-42924000D01*
X74946000Y-38914000D02*
X76946000Y-38914000D01*
X74946000Y-38914000D02*
X74946000Y-42924000D01*
X81223754Y-39905000D02*
X80769626Y-39905000D01*
X81223754Y-38435000D02*
X80769626Y-38435000D01*
X57676400Y-41642500D02*
X57676400Y-45652500D01*
X55676400Y-41642500D02*
X57676400Y-41642500D01*
X55676400Y-41642500D02*
X55676400Y-45652500D01*
X114792000Y-53900000D02*
X114792000Y-57910000D01*
X112792000Y-53900000D02*
X114792000Y-53900000D01*
X112792000Y-53900000D02*
X112792000Y-57910000D01*
X99270564Y-90905000D02*
X98816436Y-90905000D01*
X99270564Y-89435000D02*
X98816436Y-89435000D01*
X176963000Y-89170000D02*
X180973000Y-89170000D01*
X176963000Y-91170000D02*
X176963000Y-89170000D01*
X176963000Y-91170000D02*
X180973000Y-91170000D01*
X84038000Y-94155500D02*
X84038000Y-94805500D01*
X84038000Y-94155500D02*
X84038000Y-93505500D01*
X87158000Y-94155500D02*
X87158000Y-95830500D01*
X87158000Y-94155500D02*
X87158000Y-93505500D01*
X137895064Y-94389000D02*
X137440936Y-94389000D01*
X137895064Y-92919000D02*
X137440936Y-92919000D01*
X152638000Y-96064000D02*
X152638000Y-100074000D01*
X150638000Y-96064000D02*
X152638000Y-96064000D01*
X150638000Y-96064000D02*
X150638000Y-100074000D01*
X118948564Y-37057000D02*
X118494436Y-37057000D01*
X118948564Y-35587000D02*
X118494436Y-35587000D01*
X95742000Y-71680000D02*
X95742000Y-75690000D01*
X93742000Y-71680000D02*
X95742000Y-71680000D01*
X93742000Y-71680000D02*
X93742000Y-75690000D01*
X118440564Y-72771000D02*
X117986436Y-72771000D01*
X118440564Y-71301000D02*
X117986436Y-71301000D01*
X137895064Y-76139000D02*
X137440936Y-76139000D01*
X137895064Y-74669000D02*
X137440936Y-74669000D01*
X156587564Y-61300000D02*
X156133436Y-61300000D01*
X156587564Y-59830000D02*
X156133436Y-59830000D01*
X156540564Y-43407000D02*
X156086436Y-43407000D01*
X156540564Y-41937000D02*
X156086436Y-41937000D01*
X80355754Y-57905000D02*
X79901626Y-57905000D01*
X80355754Y-56435000D02*
X79901626Y-56435000D01*
%LPC*%
D12*
X76238000Y-45720000D03*
D13*
X76738000Y-49470000D03*
D14*
X81738000Y-45720000D03*
D13*
X81738000Y-51670000D03*
D15*
X86958000Y-41520000D03*
D12*
X87238000Y-45720000D03*
D16*
X85013000Y-51670000D03*
X73463000Y-49470000D03*
D12*
X114238000Y-96720000D03*
D13*
X114738000Y-100470000D03*
D14*
X119738000Y-96720000D03*
D13*
X119738000Y-102670000D03*
D15*
X124958000Y-92520000D03*
D12*
X125238000Y-96720000D03*
D16*
X123013000Y-102670000D03*
X111463000Y-100470000D03*
D17*
X167456000Y-58032000D03*
D12*
X95238000Y-96720000D03*
D13*
X95738000Y-100470000D03*
D14*
X100738000Y-96720000D03*
D13*
X100738000Y-102670000D03*
D15*
X105958000Y-92520000D03*
D12*
X106238000Y-96720000D03*
D16*
X104013000Y-102670000D03*
X92463000Y-100470000D03*
D12*
X95238000Y-60720000D03*
D13*
X95738000Y-64470000D03*
D14*
X100738000Y-60720000D03*
D13*
X100738000Y-66670000D03*
D15*
X105958000Y-56520000D03*
D12*
X106238000Y-60720000D03*
D16*
X104013000Y-66670000D03*
X92463000Y-64470000D03*
D12*
X76238000Y-63720000D03*
D13*
X76738000Y-67470000D03*
D14*
X81738000Y-63720000D03*
D13*
X81738000Y-69670000D03*
D15*
X86958000Y-59520000D03*
D12*
X87238000Y-63720000D03*
D16*
X85013000Y-69670000D03*
X73463000Y-67470000D03*
D18*
X187172400Y-72470000D03*
D19*
X184632400Y-72470000D03*
X182092400Y-72470000D03*
X179552400Y-72470000D03*
X177012400Y-72470000D03*
D17*
X166808000Y-93970000D03*
D12*
X151970900Y-48970000D03*
D13*
X152470900Y-52720000D03*
D14*
X157470900Y-48970000D03*
D13*
X157470900Y-54920000D03*
D15*
X162690900Y-44770000D03*
D12*
X162970900Y-48970000D03*
D16*
X160745900Y-54920000D03*
X149195900Y-52720000D03*
D20*
X187822400Y-79070000D03*
D21*
X187822400Y-89180000D03*
X187822400Y-86640000D03*
X187822400Y-84100000D03*
X187822400Y-81560000D03*
X189047400Y-91570000D03*
X187197400Y-91570000D03*
D17*
X71518000Y-57788000D03*
D12*
X57238000Y-84720000D03*
D13*
X57738000Y-88470000D03*
D14*
X62738000Y-84720000D03*
D13*
X62738000Y-90670000D03*
D15*
X67958000Y-80520000D03*
D12*
X68238000Y-84720000D03*
D16*
X66013000Y-90670000D03*
X54463000Y-88470000D03*
D12*
X114238000Y-60720000D03*
D13*
X114738000Y-64470000D03*
D14*
X119738000Y-60720000D03*
D13*
X119738000Y-66670000D03*
D15*
X124958000Y-56520000D03*
D12*
X125238000Y-60720000D03*
D16*
X123013000Y-66670000D03*
X111463000Y-64470000D03*
D12*
X133238000Y-81720000D03*
D13*
X133738000Y-85470000D03*
D14*
X138738000Y-81720000D03*
D13*
X138738000Y-87670000D03*
D15*
X143958000Y-77520000D03*
D12*
X144238000Y-81720000D03*
D16*
X142013000Y-87670000D03*
X130463000Y-85470000D03*
D12*
X114238000Y-78720000D03*
D13*
X114738000Y-82470000D03*
D14*
X119738000Y-78720000D03*
D13*
X119738000Y-84670000D03*
D15*
X124958000Y-74520000D03*
D12*
X125238000Y-78720000D03*
D16*
X123013000Y-84670000D03*
X111463000Y-82470000D03*
D12*
X133238000Y-45720000D03*
D13*
X133738000Y-49470000D03*
D14*
X138738000Y-45720000D03*
D13*
X138738000Y-51670000D03*
D15*
X143958000Y-41520000D03*
D12*
X144238000Y-45720000D03*
D16*
X142013000Y-51670000D03*
X130463000Y-49470000D03*
D22*
X174472400Y-39360000D03*
D23*
X174472400Y-41900000D03*
X174472400Y-44440000D03*
X174472400Y-46980000D03*
X174472400Y-49520000D03*
X174472400Y-52060000D03*
X174472400Y-54600000D03*
X174472400Y-57140000D03*
X174472400Y-59680000D03*
X174472400Y-62220000D03*
X174472400Y-64760000D03*
X174472400Y-67300000D03*
X189712400Y-67300000D03*
X189712400Y-64760000D03*
X189712400Y-62220000D03*
X189712400Y-59680000D03*
X189712400Y-57140000D03*
X189712400Y-54600000D03*
X189712400Y-52060000D03*
X189712400Y-49520000D03*
X189712400Y-46980000D03*
X189712400Y-44440000D03*
X189712400Y-41900000D03*
X189712400Y-39360000D03*
D17*
X110610000Y-69716000D03*
D12*
X57238000Y-66720000D03*
D13*
X57738000Y-70470000D03*
D14*
X62738000Y-66720000D03*
D13*
X62738000Y-72670000D03*
D15*
X67958000Y-62520000D03*
D12*
X68238000Y-66720000D03*
D16*
X66013000Y-72670000D03*
X54463000Y-70470000D03*
D12*
X57238000Y-48720000D03*
D13*
X57738000Y-52470000D03*
D14*
X62738000Y-48720000D03*
D13*
X62738000Y-54670000D03*
D15*
X67958000Y-44520000D03*
D12*
X68238000Y-48720000D03*
D16*
X66013000Y-54670000D03*
X54463000Y-52470000D03*
D12*
X151970900Y-84970000D03*
D13*
X152470900Y-88720000D03*
D14*
X157470900Y-84970000D03*
D13*
X157470900Y-90920000D03*
D15*
X162690900Y-80770000D03*
D12*
X162970900Y-84970000D03*
D16*
X160745900Y-90920000D03*
X149195900Y-88720000D03*
D12*
X114238000Y-42720000D03*
D13*
X114738000Y-46470000D03*
D14*
X119738000Y-42720000D03*
D13*
X119738000Y-48670000D03*
D15*
X124958000Y-38520000D03*
D12*
X125238000Y-42720000D03*
D16*
X123013000Y-48670000D03*
X111463000Y-46470000D03*
D12*
X173029752Y-104445251D03*
D13*
X172739157Y-108217260D03*
D14*
X178409564Y-105588765D03*
D13*
X177172489Y-111408743D03*
D15*
X184388724Y-102565844D03*
D12*
X183789376Y-106732279D03*
D24*
X180375923Y-112089654D03*
X169535724Y-107536349D03*
D12*
X151970900Y-67015000D03*
D13*
X152470900Y-70765000D03*
D14*
X157470900Y-67015000D03*
D13*
X157470900Y-72965000D03*
D15*
X162690900Y-62815000D03*
D12*
X162970900Y-67015000D03*
D16*
X160745900Y-72965000D03*
X149195900Y-70765000D03*
D12*
X95238000Y-78720000D03*
D13*
X95738000Y-82470000D03*
D14*
X100738000Y-78720000D03*
D13*
X100738000Y-84670000D03*
D15*
X105958000Y-74520000D03*
D12*
X106238000Y-78720000D03*
D16*
X104013000Y-84670000D03*
X92463000Y-82470000D03*
D25*
X166228203Y-46736000D03*
D26*
X166228203Y-48736000D03*
D12*
X133238000Y-63720000D03*
D13*
X133738000Y-67470000D03*
D14*
X138738000Y-63720000D03*
D13*
X138738000Y-69670000D03*
D15*
X143958000Y-59520000D03*
D12*
X144238000Y-63720000D03*
D16*
X142013000Y-69670000D03*
X130463000Y-67470000D03*
D12*
X95238000Y-42720000D03*
D13*
X95738000Y-46470000D03*
D14*
X100738000Y-42720000D03*
D13*
X100738000Y-48670000D03*
D15*
X105958000Y-38520000D03*
D12*
X106238000Y-42720000D03*
D16*
X104013000Y-48670000D03*
X92463000Y-46470000D03*
D17*
X72768000Y-93980000D03*
D12*
X133238000Y-99720000D03*
D13*
X133738000Y-103470000D03*
D14*
X138738000Y-99720000D03*
D13*
X138738000Y-105670000D03*
D15*
X143958000Y-95520000D03*
D12*
X144238000Y-99720000D03*
D16*
X142013000Y-105670000D03*
X130463000Y-103470000D03*
D12*
X76238000Y-81720000D03*
D13*
X76738000Y-85470000D03*
D14*
X81738000Y-81720000D03*
D13*
X81738000Y-87670000D03*
D15*
X86958000Y-77520000D03*
D12*
X87238000Y-81720000D03*
D16*
X85013000Y-87670000D03*
X73463000Y-85470000D03*
D12*
X151970900Y-102970000D03*
D13*
X152470900Y-106720000D03*
D14*
X157470900Y-102970000D03*
D13*
X157470900Y-108920000D03*
D15*
X162690900Y-98770000D03*
D12*
X162970900Y-102970000D03*
D16*
X160745900Y-108920000D03*
X149195900Y-106720000D03*
D27*
X62605190Y-42170000D03*
X60780190Y-42170000D03*
D28*
X75946000Y-75438000D03*
X75946000Y-78738000D03*
D29*
X178308000Y-86529000D03*
X180383000Y-86529000D03*
D28*
X94996000Y-54610000D03*
X94996000Y-57910000D03*
X151638000Y-78740000D03*
X151638000Y-82040000D03*
D27*
X100076000Y-54170000D03*
X98251000Y-54170000D03*
D28*
X151638000Y-42926000D03*
X151638000Y-46226000D03*
D27*
X138580500Y-57404000D03*
X136755500Y-57404000D03*
D28*
X56676400Y-60352500D03*
X56676400Y-63652500D03*
D29*
X178308000Y-83058000D03*
X180383000Y-83058000D03*
D28*
X132842000Y-75438000D03*
X132842000Y-78738000D03*
D30*
X86614000Y-99210500D03*
X86614000Y-97385500D03*
D27*
X179578000Y-99060000D03*
X177753000Y-99060000D03*
D28*
X114808000Y-73026000D03*
X114808000Y-76326000D03*
D27*
X100076000Y-72170000D03*
X98251000Y-72170000D03*
X81909190Y-75170000D03*
X80084190Y-75170000D03*
X62605190Y-60170000D03*
X60780190Y-60170000D03*
D28*
X113792000Y-36450000D03*
X113792000Y-39750000D03*
D27*
X119634000Y-90102000D03*
X117809000Y-90102000D03*
D30*
X84328000Y-99210500D03*
X84328000Y-97385500D03*
D28*
X132842000Y-93476000D03*
X132842000Y-96776000D03*
X113792000Y-90424000D03*
X113792000Y-93724000D03*
X76708000Y-57532000D03*
X76708000Y-60832000D03*
X151638000Y-60960000D03*
X151638000Y-64260000D03*
D31*
X168039000Y-36150000D03*
X165829000Y-36150000D03*
D32*
X166939000Y-38300000D03*
X166939000Y-41300000D03*
D31*
X168039000Y-43450000D03*
X165829000Y-43450000D03*
D33*
X165179000Y-37550000D03*
X165179000Y-40550000D03*
X165179000Y-42050000D03*
D27*
X62605190Y-78170000D03*
X60780190Y-78170000D03*
D28*
X173646946Y-98261944D03*
X173646946Y-101561944D03*
D27*
X100838000Y-36322000D03*
X99013000Y-36322000D03*
D28*
X94742000Y-90424000D03*
X94742000Y-93724000D03*
X94996000Y-36576000D03*
X94996000Y-39876000D03*
D27*
X138580500Y-39370000D03*
X136755500Y-39370000D03*
D34*
X169694000Y-44893000D03*
X169694000Y-52643000D03*
D28*
X132842000Y-39624000D03*
X132842000Y-42924000D03*
X132842000Y-57404000D03*
X132842000Y-60704000D03*
D27*
X119634000Y-54102000D03*
X117809000Y-54102000D03*
D28*
X56676400Y-78352500D03*
X56676400Y-81652500D03*
D27*
X157376500Y-78520000D03*
X155551500Y-78520000D03*
X157376500Y-96520000D03*
X155551500Y-96520000D03*
D28*
X75946000Y-39624000D03*
X75946000Y-42924000D03*
D27*
X81909190Y-39170000D03*
X80084190Y-39170000D03*
D28*
X56676400Y-42352500D03*
X56676400Y-45652500D03*
X113792000Y-54610000D03*
X113792000Y-57910000D03*
D27*
X99956000Y-90170000D03*
X98131000Y-90170000D03*
D35*
X177673000Y-90170000D03*
X180973000Y-90170000D03*
D36*
X86548000Y-95093000D03*
X84648000Y-95093000D03*
X85598000Y-93218000D03*
D27*
X138580500Y-93654000D03*
X136755500Y-93654000D03*
D28*
X151638000Y-96774000D03*
X151638000Y-100074000D03*
D27*
X119634000Y-36322000D03*
X117809000Y-36322000D03*
D28*
X94742000Y-72390000D03*
X94742000Y-75690000D03*
D27*
X119126000Y-72036000D03*
X117301000Y-72036000D03*
X138580500Y-75404000D03*
X136755500Y-75404000D03*
X157273000Y-60565000D03*
X155448000Y-60565000D03*
X157226000Y-42672000D03*
X155401000Y-42672000D03*
X81041190Y-57170000D03*
X79216190Y-57170000D03*
%LPD*%
M02*
