%TF.GenerationSoftware,KiCad,Pcbnew,7.0.5-0*%
%TF.CreationDate,2023-10-18T13:26:08+10:30*%
%TF.ProjectId,Rolio,526f6c69-6f2e-46b6-9963-61645f706362,rev?*%
%TF.SameCoordinates,Original*%
%TF.FileFunction,Legend,Bot*%
%TF.FilePolarity,Positive*%
%FSLAX46Y46*%
G04 Gerber Fmt 4.6, Leading zero omitted, Abs format (unit mm)*
G04 Created by KiCad (PCBNEW 7.0.5-0) date 2023-10-18 13:26:08*
%MOMM*%
%LPD*%
G01*
G04 APERTURE LIST*
G04 Aperture macros list*
%AMRoundRect*
0 Rectangle with rounded corners*
0 $1 Rounding radius*
0 $2 $3 $4 $5 $6 $7 $8 $9 X,Y pos of 4 corners*
0 Add a 4 corners polygon primitive as box body*
4,1,4,$2,$3,$4,$5,$6,$7,$8,$9,$2,$3,0*
0 Add four circle primitives for the rounded corners*
1,1,$1+$1,$2,$3*
1,1,$1+$1,$4,$5*
1,1,$1+$1,$6,$7*
1,1,$1+$1,$8,$9*
0 Add four rect primitives between the rounded corners*
20,1,$1+$1,$2,$3,$4,$5,0*
20,1,$1+$1,$4,$5,$6,$7,0*
20,1,$1+$1,$6,$7,$8,$9,0*
20,1,$1+$1,$8,$9,$2,$3,0*%
%AMRotRect*
0 Rectangle, with rotation*
0 The origin of the aperture is its center*
0 $1 length*
0 $2 width*
0 $3 Rotation angle, in degrees counterclockwise*
0 Add horizontal line*
21,1,$1,$2,0,0,$3*%
G04 Aperture macros list end*
%ADD10C,0.150000*%
%ADD11C,0.120000*%
%ADD12C,1.701800*%
%ADD13C,3.000000*%
%ADD14C,3.429000*%
%ADD15C,0.990600*%
%ADD16R,2.600000X2.600000*%
%ADD17C,4.300000*%
%ADD18R,1.700000X1.700000*%
%ADD19O,1.700000X1.700000*%
%ADD20C,1.500000*%
%ADD21C,1.600000*%
%ADD22R,1.600000X1.600000*%
%ADD23O,1.600000X1.600000*%
%ADD24RotRect,2.600000X2.600000X348.000000*%
%ADD25R,1.350000X1.350000*%
%ADD26O,1.350000X1.350000*%
%ADD27RoundRect,0.250000X0.262500X0.450000X-0.262500X0.450000X-0.262500X-0.450000X0.262500X-0.450000X0*%
%ADD28RoundRect,0.225000X-0.375000X0.225000X-0.375000X-0.225000X0.375000X-0.225000X0.375000X0.225000X0*%
%ADD29RoundRect,0.250000X-0.337500X-0.475000X0.337500X-0.475000X0.337500X0.475000X-0.337500X0.475000X0*%
%ADD30RoundRect,0.250000X0.450000X-0.262500X0.450000X0.262500X-0.450000X0.262500X-0.450000X-0.262500X0*%
%ADD31R,0.800000X1.000000*%
%ADD32C,0.900000*%
%ADD33R,1.500000X0.700000*%
%ADD34R,1.000000X1.250000*%
%ADD35RoundRect,0.225000X-0.225000X-0.375000X0.225000X-0.375000X0.225000X0.375000X-0.225000X0.375000X0*%
%ADD36RoundRect,0.150000X0.150000X-0.587500X0.150000X0.587500X-0.150000X0.587500X-0.150000X-0.587500X0*%
G04 APERTURE END LIST*
D10*
X-26279180Y-10406866D02*
X-27041084Y-10406866D01*
X-26660132Y-10787819D02*
X-26660132Y-10025914D01*
X-26279180Y-16846866D02*
X-27041084Y-16846866D01*
%TO.C,R8*%
X-133677044Y-7692819D02*
X-133343711Y-7216628D01*
X-133105616Y-7692819D02*
X-133105616Y-6692819D01*
X-133105616Y-6692819D02*
X-133486568Y-6692819D01*
X-133486568Y-6692819D02*
X-133581806Y-6740438D01*
X-133581806Y-6740438D02*
X-133629425Y-6788057D01*
X-133629425Y-6788057D02*
X-133677044Y-6883295D01*
X-133677044Y-6883295D02*
X-133677044Y-7026152D01*
X-133677044Y-7026152D02*
X-133629425Y-7121390D01*
X-133629425Y-7121390D02*
X-133581806Y-7169009D01*
X-133581806Y-7169009D02*
X-133486568Y-7216628D01*
X-133486568Y-7216628D02*
X-133105616Y-7216628D01*
X-134248473Y-7121390D02*
X-134153235Y-7073771D01*
X-134153235Y-7073771D02*
X-134105616Y-7026152D01*
X-134105616Y-7026152D02*
X-134057997Y-6930914D01*
X-134057997Y-6930914D02*
X-134057997Y-6883295D01*
X-134057997Y-6883295D02*
X-134105616Y-6788057D01*
X-134105616Y-6788057D02*
X-134153235Y-6740438D01*
X-134153235Y-6740438D02*
X-134248473Y-6692819D01*
X-134248473Y-6692819D02*
X-134438949Y-6692819D01*
X-134438949Y-6692819D02*
X-134534187Y-6740438D01*
X-134534187Y-6740438D02*
X-134581806Y-6788057D01*
X-134581806Y-6788057D02*
X-134629425Y-6883295D01*
X-134629425Y-6883295D02*
X-134629425Y-6930914D01*
X-134629425Y-6930914D02*
X-134581806Y-7026152D01*
X-134581806Y-7026152D02*
X-134534187Y-7073771D01*
X-134534187Y-7073771D02*
X-134438949Y-7121390D01*
X-134438949Y-7121390D02*
X-134248473Y-7121390D01*
X-134248473Y-7121390D02*
X-134153235Y-7169009D01*
X-134153235Y-7169009D02*
X-134105616Y-7216628D01*
X-134105616Y-7216628D02*
X-134057997Y-7311866D01*
X-134057997Y-7311866D02*
X-134057997Y-7502342D01*
X-134057997Y-7502342D02*
X-134105616Y-7597580D01*
X-134105616Y-7597580D02*
X-134153235Y-7645200D01*
X-134153235Y-7645200D02*
X-134248473Y-7692819D01*
X-134248473Y-7692819D02*
X-134438949Y-7692819D01*
X-134438949Y-7692819D02*
X-134534187Y-7645200D01*
X-134534187Y-7645200D02*
X-134581806Y-7597580D01*
X-134581806Y-7597580D02*
X-134629425Y-7502342D01*
X-134629425Y-7502342D02*
X-134629425Y-7311866D01*
X-134629425Y-7311866D02*
X-134581806Y-7216628D01*
X-134581806Y-7216628D02*
X-134534187Y-7169009D01*
X-134534187Y-7169009D02*
X-134438949Y-7121390D01*
%TO.C,D17*%
X-118419581Y-40907714D02*
X-119419581Y-40907714D01*
X-119419581Y-40907714D02*
X-119419581Y-41145809D01*
X-119419581Y-41145809D02*
X-119371962Y-41288666D01*
X-119371962Y-41288666D02*
X-119276724Y-41383904D01*
X-119276724Y-41383904D02*
X-119181486Y-41431523D01*
X-119181486Y-41431523D02*
X-118991010Y-41479142D01*
X-118991010Y-41479142D02*
X-118848153Y-41479142D01*
X-118848153Y-41479142D02*
X-118657677Y-41431523D01*
X-118657677Y-41431523D02*
X-118562439Y-41383904D01*
X-118562439Y-41383904D02*
X-118467200Y-41288666D01*
X-118467200Y-41288666D02*
X-118419581Y-41145809D01*
X-118419581Y-41145809D02*
X-118419581Y-40907714D01*
X-118419581Y-42431523D02*
X-118419581Y-41860095D01*
X-118419581Y-42145809D02*
X-119419581Y-42145809D01*
X-119419581Y-42145809D02*
X-119276724Y-42050571D01*
X-119276724Y-42050571D02*
X-119181486Y-41955333D01*
X-119181486Y-41955333D02*
X-119133867Y-41860095D01*
X-119419581Y-42764857D02*
X-119419581Y-43431523D01*
X-119419581Y-43431523D02*
X-118419581Y-43002952D01*
%TO.C,C1*%
X-10281734Y-52732580D02*
X-10234115Y-52780200D01*
X-10234115Y-52780200D02*
X-10091258Y-52827819D01*
X-10091258Y-52827819D02*
X-9996020Y-52827819D01*
X-9996020Y-52827819D02*
X-9853163Y-52780200D01*
X-9853163Y-52780200D02*
X-9757925Y-52684961D01*
X-9757925Y-52684961D02*
X-9710306Y-52589723D01*
X-9710306Y-52589723D02*
X-9662687Y-52399247D01*
X-9662687Y-52399247D02*
X-9662687Y-52256390D01*
X-9662687Y-52256390D02*
X-9710306Y-52065914D01*
X-9710306Y-52065914D02*
X-9757925Y-51970676D01*
X-9757925Y-51970676D02*
X-9853163Y-51875438D01*
X-9853163Y-51875438D02*
X-9996020Y-51827819D01*
X-9996020Y-51827819D02*
X-10091258Y-51827819D01*
X-10091258Y-51827819D02*
X-10234115Y-51875438D01*
X-10234115Y-51875438D02*
X-10281734Y-51923057D01*
X-11234115Y-52827819D02*
X-10662687Y-52827819D01*
X-10948401Y-52827819D02*
X-10948401Y-51827819D01*
X-10948401Y-51827819D02*
X-10853163Y-51970676D01*
X-10853163Y-51970676D02*
X-10757925Y-52065914D01*
X-10757925Y-52065914D02*
X-10662687Y-52113533D01*
%TO.C,D10*%
X-99369581Y-20079714D02*
X-100369581Y-20079714D01*
X-100369581Y-20079714D02*
X-100369581Y-20317809D01*
X-100369581Y-20317809D02*
X-100321962Y-20460666D01*
X-100321962Y-20460666D02*
X-100226724Y-20555904D01*
X-100226724Y-20555904D02*
X-100131486Y-20603523D01*
X-100131486Y-20603523D02*
X-99941010Y-20651142D01*
X-99941010Y-20651142D02*
X-99798153Y-20651142D01*
X-99798153Y-20651142D02*
X-99607677Y-20603523D01*
X-99607677Y-20603523D02*
X-99512439Y-20555904D01*
X-99512439Y-20555904D02*
X-99417200Y-20460666D01*
X-99417200Y-20460666D02*
X-99369581Y-20317809D01*
X-99369581Y-20317809D02*
X-99369581Y-20079714D01*
X-99369581Y-21603523D02*
X-99369581Y-21032095D01*
X-99369581Y-21317809D02*
X-100369581Y-21317809D01*
X-100369581Y-21317809D02*
X-100226724Y-21222571D01*
X-100226724Y-21222571D02*
X-100131486Y-21127333D01*
X-100131486Y-21127333D02*
X-100083867Y-21032095D01*
X-100369581Y-22222571D02*
X-100369581Y-22317809D01*
X-100369581Y-22317809D02*
X-100321962Y-22413047D01*
X-100321962Y-22413047D02*
X-100274343Y-22460666D01*
X-100274343Y-22460666D02*
X-100179105Y-22508285D01*
X-100179105Y-22508285D02*
X-99988629Y-22555904D01*
X-99988629Y-22555904D02*
X-99750534Y-22555904D01*
X-99750534Y-22555904D02*
X-99560058Y-22508285D01*
X-99560058Y-22508285D02*
X-99464820Y-22460666D01*
X-99464820Y-22460666D02*
X-99417200Y-22413047D01*
X-99417200Y-22413047D02*
X-99369581Y-22317809D01*
X-99369581Y-22317809D02*
X-99369581Y-22222571D01*
X-99369581Y-22222571D02*
X-99417200Y-22127333D01*
X-99417200Y-22127333D02*
X-99464820Y-22079714D01*
X-99464820Y-22079714D02*
X-99560058Y-22032095D01*
X-99560058Y-22032095D02*
X-99750534Y-21984476D01*
X-99750534Y-21984476D02*
X-99988629Y-21984476D01*
X-99988629Y-21984476D02*
X-100179105Y-22032095D01*
X-100179105Y-22032095D02*
X-100274343Y-22079714D01*
X-100274343Y-22079714D02*
X-100321962Y-22127333D01*
X-100321962Y-22127333D02*
X-100369581Y-22222571D01*
%TO.C,D13*%
X-42727581Y-44209714D02*
X-43727581Y-44209714D01*
X-43727581Y-44209714D02*
X-43727581Y-44447809D01*
X-43727581Y-44447809D02*
X-43679962Y-44590666D01*
X-43679962Y-44590666D02*
X-43584724Y-44685904D01*
X-43584724Y-44685904D02*
X-43489486Y-44733523D01*
X-43489486Y-44733523D02*
X-43299010Y-44781142D01*
X-43299010Y-44781142D02*
X-43156153Y-44781142D01*
X-43156153Y-44781142D02*
X-42965677Y-44733523D01*
X-42965677Y-44733523D02*
X-42870439Y-44685904D01*
X-42870439Y-44685904D02*
X-42775200Y-44590666D01*
X-42775200Y-44590666D02*
X-42727581Y-44447809D01*
X-42727581Y-44447809D02*
X-42727581Y-44209714D01*
X-42727581Y-45733523D02*
X-42727581Y-45162095D01*
X-42727581Y-45447809D02*
X-43727581Y-45447809D01*
X-43727581Y-45447809D02*
X-43584724Y-45352571D01*
X-43584724Y-45352571D02*
X-43489486Y-45257333D01*
X-43489486Y-45257333D02*
X-43441867Y-45162095D01*
X-43727581Y-46066857D02*
X-43727581Y-46685904D01*
X-43727581Y-46685904D02*
X-43346629Y-46352571D01*
X-43346629Y-46352571D02*
X-43346629Y-46495428D01*
X-43346629Y-46495428D02*
X-43299010Y-46590666D01*
X-43299010Y-46590666D02*
X-43251391Y-46638285D01*
X-43251391Y-46638285D02*
X-43156153Y-46685904D01*
X-43156153Y-46685904D02*
X-42918058Y-46685904D01*
X-42918058Y-46685904D02*
X-42822820Y-46638285D01*
X-42822820Y-46638285D02*
X-42775200Y-46590666D01*
X-42775200Y-46590666D02*
X-42727581Y-46495428D01*
X-42727581Y-46495428D02*
X-42727581Y-46209714D01*
X-42727581Y-46209714D02*
X-42775200Y-46114476D01*
X-42775200Y-46114476D02*
X-42822820Y-46066857D01*
%TO.C,R12*%
X-93014043Y-18008819D02*
X-92680710Y-17532628D01*
X-92442615Y-18008819D02*
X-92442615Y-17008819D01*
X-92442615Y-17008819D02*
X-92823567Y-17008819D01*
X-92823567Y-17008819D02*
X-92918805Y-17056438D01*
X-92918805Y-17056438D02*
X-92966424Y-17104057D01*
X-92966424Y-17104057D02*
X-93014043Y-17199295D01*
X-93014043Y-17199295D02*
X-93014043Y-17342152D01*
X-93014043Y-17342152D02*
X-92966424Y-17437390D01*
X-92966424Y-17437390D02*
X-92918805Y-17485009D01*
X-92918805Y-17485009D02*
X-92823567Y-17532628D01*
X-92823567Y-17532628D02*
X-92442615Y-17532628D01*
X-93966424Y-18008819D02*
X-93394996Y-18008819D01*
X-93680710Y-18008819D02*
X-93680710Y-17008819D01*
X-93680710Y-17008819D02*
X-93585472Y-17151676D01*
X-93585472Y-17151676D02*
X-93490234Y-17246914D01*
X-93490234Y-17246914D02*
X-93394996Y-17294533D01*
X-94347377Y-17104057D02*
X-94394996Y-17056438D01*
X-94394996Y-17056438D02*
X-94490234Y-17008819D01*
X-94490234Y-17008819D02*
X-94728329Y-17008819D01*
X-94728329Y-17008819D02*
X-94823567Y-17056438D01*
X-94823567Y-17056438D02*
X-94871186Y-17104057D01*
X-94871186Y-17104057D02*
X-94918805Y-17199295D01*
X-94918805Y-17199295D02*
X-94918805Y-17294533D01*
X-94918805Y-17294533D02*
X-94871186Y-17437390D01*
X-94871186Y-17437390D02*
X-94299758Y-18008819D01*
X-94299758Y-18008819D02*
X-94918805Y-18008819D01*
%TO.C,D1*%
X-42727581Y-8871905D02*
X-43727581Y-8871905D01*
X-43727581Y-8871905D02*
X-43727581Y-9110000D01*
X-43727581Y-9110000D02*
X-43679962Y-9252857D01*
X-43679962Y-9252857D02*
X-43584724Y-9348095D01*
X-43584724Y-9348095D02*
X-43489486Y-9395714D01*
X-43489486Y-9395714D02*
X-43299010Y-9443333D01*
X-43299010Y-9443333D02*
X-43156153Y-9443333D01*
X-43156153Y-9443333D02*
X-42965677Y-9395714D01*
X-42965677Y-9395714D02*
X-42870439Y-9348095D01*
X-42870439Y-9348095D02*
X-42775200Y-9252857D01*
X-42775200Y-9252857D02*
X-42727581Y-9110000D01*
X-42727581Y-9110000D02*
X-42727581Y-8871905D01*
X-42727581Y-10395714D02*
X-42727581Y-9824286D01*
X-42727581Y-10110000D02*
X-43727581Y-10110000D01*
X-43727581Y-10110000D02*
X-43584724Y-10014762D01*
X-43584724Y-10014762D02*
X-43489486Y-9919524D01*
X-43489486Y-9919524D02*
X-43441867Y-9824286D01*
%TO.C,R10*%
X-54509543Y-21242819D02*
X-54176210Y-20766628D01*
X-53938115Y-21242819D02*
X-53938115Y-20242819D01*
X-53938115Y-20242819D02*
X-54319067Y-20242819D01*
X-54319067Y-20242819D02*
X-54414305Y-20290438D01*
X-54414305Y-20290438D02*
X-54461924Y-20338057D01*
X-54461924Y-20338057D02*
X-54509543Y-20433295D01*
X-54509543Y-20433295D02*
X-54509543Y-20576152D01*
X-54509543Y-20576152D02*
X-54461924Y-20671390D01*
X-54461924Y-20671390D02*
X-54414305Y-20719009D01*
X-54414305Y-20719009D02*
X-54319067Y-20766628D01*
X-54319067Y-20766628D02*
X-53938115Y-20766628D01*
X-55461924Y-21242819D02*
X-54890496Y-21242819D01*
X-55176210Y-21242819D02*
X-55176210Y-20242819D01*
X-55176210Y-20242819D02*
X-55080972Y-20385676D01*
X-55080972Y-20385676D02*
X-54985734Y-20480914D01*
X-54985734Y-20480914D02*
X-54890496Y-20528533D01*
X-56080972Y-20242819D02*
X-56176210Y-20242819D01*
X-56176210Y-20242819D02*
X-56271448Y-20290438D01*
X-56271448Y-20290438D02*
X-56319067Y-20338057D01*
X-56319067Y-20338057D02*
X-56366686Y-20433295D01*
X-56366686Y-20433295D02*
X-56414305Y-20623771D01*
X-56414305Y-20623771D02*
X-56414305Y-20861866D01*
X-56414305Y-20861866D02*
X-56366686Y-21052342D01*
X-56366686Y-21052342D02*
X-56319067Y-21147580D01*
X-56319067Y-21147580D02*
X-56271448Y-21195200D01*
X-56271448Y-21195200D02*
X-56176210Y-21242819D01*
X-56176210Y-21242819D02*
X-56080972Y-21242819D01*
X-56080972Y-21242819D02*
X-55985734Y-21195200D01*
X-55985734Y-21195200D02*
X-55938115Y-21147580D01*
X-55938115Y-21147580D02*
X-55890496Y-21052342D01*
X-55890496Y-21052342D02*
X-55842877Y-20861866D01*
X-55842877Y-20861866D02*
X-55842877Y-20623771D01*
X-55842877Y-20623771D02*
X-55890496Y-20433295D01*
X-55890496Y-20433295D02*
X-55938115Y-20338057D01*
X-55938115Y-20338057D02*
X-55985734Y-20290438D01*
X-55985734Y-20290438D02*
X-56080972Y-20242819D01*
%TO.C,D12*%
X-133657181Y-25661714D02*
X-134657181Y-25661714D01*
X-134657181Y-25661714D02*
X-134657181Y-25899809D01*
X-134657181Y-25899809D02*
X-134609562Y-26042666D01*
X-134609562Y-26042666D02*
X-134514324Y-26137904D01*
X-134514324Y-26137904D02*
X-134419086Y-26185523D01*
X-134419086Y-26185523D02*
X-134228610Y-26233142D01*
X-134228610Y-26233142D02*
X-134085753Y-26233142D01*
X-134085753Y-26233142D02*
X-133895277Y-26185523D01*
X-133895277Y-26185523D02*
X-133800039Y-26137904D01*
X-133800039Y-26137904D02*
X-133704800Y-26042666D01*
X-133704800Y-26042666D02*
X-133657181Y-25899809D01*
X-133657181Y-25899809D02*
X-133657181Y-25661714D01*
X-133657181Y-27185523D02*
X-133657181Y-26614095D01*
X-133657181Y-26899809D02*
X-134657181Y-26899809D01*
X-134657181Y-26899809D02*
X-134514324Y-26804571D01*
X-134514324Y-26804571D02*
X-134419086Y-26709333D01*
X-134419086Y-26709333D02*
X-134371467Y-26614095D01*
X-134561943Y-27566476D02*
X-134609562Y-27614095D01*
X-134609562Y-27614095D02*
X-134657181Y-27709333D01*
X-134657181Y-27709333D02*
X-134657181Y-27947428D01*
X-134657181Y-27947428D02*
X-134609562Y-28042666D01*
X-134609562Y-28042666D02*
X-134561943Y-28090285D01*
X-134561943Y-28090285D02*
X-134466705Y-28137904D01*
X-134466705Y-28137904D02*
X-134371467Y-28137904D01*
X-134371467Y-28137904D02*
X-134228610Y-28090285D01*
X-134228610Y-28090285D02*
X-133657181Y-27518857D01*
X-133657181Y-27518857D02*
X-133657181Y-28137904D01*
%TO.C,C2*%
X-10238734Y-49261580D02*
X-10191115Y-49309200D01*
X-10191115Y-49309200D02*
X-10048258Y-49356819D01*
X-10048258Y-49356819D02*
X-9953020Y-49356819D01*
X-9953020Y-49356819D02*
X-9810163Y-49309200D01*
X-9810163Y-49309200D02*
X-9714925Y-49213961D01*
X-9714925Y-49213961D02*
X-9667306Y-49118723D01*
X-9667306Y-49118723D02*
X-9619687Y-48928247D01*
X-9619687Y-48928247D02*
X-9619687Y-48785390D01*
X-9619687Y-48785390D02*
X-9667306Y-48594914D01*
X-9667306Y-48594914D02*
X-9714925Y-48499676D01*
X-9714925Y-48499676D02*
X-9810163Y-48404438D01*
X-9810163Y-48404438D02*
X-9953020Y-48356819D01*
X-9953020Y-48356819D02*
X-10048258Y-48356819D01*
X-10048258Y-48356819D02*
X-10191115Y-48404438D01*
X-10191115Y-48404438D02*
X-10238734Y-48452057D01*
X-10619687Y-48452057D02*
X-10667306Y-48404438D01*
X-10667306Y-48404438D02*
X-10762544Y-48356819D01*
X-10762544Y-48356819D02*
X-11000639Y-48356819D01*
X-11000639Y-48356819D02*
X-11095877Y-48404438D01*
X-11095877Y-48404438D02*
X-11143496Y-48452057D01*
X-11143496Y-48452057D02*
X-11191115Y-48547295D01*
X-11191115Y-48547295D02*
X-11191115Y-48642533D01*
X-11191115Y-48642533D02*
X-11143496Y-48785390D01*
X-11143496Y-48785390D02*
X-10572068Y-49356819D01*
X-10572068Y-49356819D02*
X-11191115Y-49356819D01*
%TO.C,D14*%
X-61523581Y-40907714D02*
X-62523581Y-40907714D01*
X-62523581Y-40907714D02*
X-62523581Y-41145809D01*
X-62523581Y-41145809D02*
X-62475962Y-41288666D01*
X-62475962Y-41288666D02*
X-62380724Y-41383904D01*
X-62380724Y-41383904D02*
X-62285486Y-41431523D01*
X-62285486Y-41431523D02*
X-62095010Y-41479142D01*
X-62095010Y-41479142D02*
X-61952153Y-41479142D01*
X-61952153Y-41479142D02*
X-61761677Y-41431523D01*
X-61761677Y-41431523D02*
X-61666439Y-41383904D01*
X-61666439Y-41383904D02*
X-61571200Y-41288666D01*
X-61571200Y-41288666D02*
X-61523581Y-41145809D01*
X-61523581Y-41145809D02*
X-61523581Y-40907714D01*
X-61523581Y-42431523D02*
X-61523581Y-41860095D01*
X-61523581Y-42145809D02*
X-62523581Y-42145809D01*
X-62523581Y-42145809D02*
X-62380724Y-42050571D01*
X-62380724Y-42050571D02*
X-62285486Y-41955333D01*
X-62285486Y-41955333D02*
X-62237867Y-41860095D01*
X-62190248Y-43288666D02*
X-61523581Y-43288666D01*
X-62571200Y-43050571D02*
X-61856915Y-42812476D01*
X-61856915Y-42812476D02*
X-61856915Y-43431523D01*
%TO.C,R2*%
X-105751581Y-65767333D02*
X-106227772Y-65434000D01*
X-105751581Y-65195905D02*
X-106751581Y-65195905D01*
X-106751581Y-65195905D02*
X-106751581Y-65576857D01*
X-106751581Y-65576857D02*
X-106703962Y-65672095D01*
X-106703962Y-65672095D02*
X-106656343Y-65719714D01*
X-106656343Y-65719714D02*
X-106561105Y-65767333D01*
X-106561105Y-65767333D02*
X-106418248Y-65767333D01*
X-106418248Y-65767333D02*
X-106323010Y-65719714D01*
X-106323010Y-65719714D02*
X-106275391Y-65672095D01*
X-106275391Y-65672095D02*
X-106227772Y-65576857D01*
X-106227772Y-65576857D02*
X-106227772Y-65195905D01*
X-106656343Y-66148286D02*
X-106703962Y-66195905D01*
X-106703962Y-66195905D02*
X-106751581Y-66291143D01*
X-106751581Y-66291143D02*
X-106751581Y-66529238D01*
X-106751581Y-66529238D02*
X-106703962Y-66624476D01*
X-106703962Y-66624476D02*
X-106656343Y-66672095D01*
X-106656343Y-66672095D02*
X-106561105Y-66719714D01*
X-106561105Y-66719714D02*
X-106465867Y-66719714D01*
X-106465867Y-66719714D02*
X-106323010Y-66672095D01*
X-106323010Y-66672095D02*
X-105751581Y-66100667D01*
X-105751581Y-66100667D02*
X-105751581Y-66719714D01*
%TO.C,R21*%
X-13512043Y-62898819D02*
X-13178710Y-62422628D01*
X-12940615Y-62898819D02*
X-12940615Y-61898819D01*
X-12940615Y-61898819D02*
X-13321567Y-61898819D01*
X-13321567Y-61898819D02*
X-13416805Y-61946438D01*
X-13416805Y-61946438D02*
X-13464424Y-61994057D01*
X-13464424Y-61994057D02*
X-13512043Y-62089295D01*
X-13512043Y-62089295D02*
X-13512043Y-62232152D01*
X-13512043Y-62232152D02*
X-13464424Y-62327390D01*
X-13464424Y-62327390D02*
X-13416805Y-62375009D01*
X-13416805Y-62375009D02*
X-13321567Y-62422628D01*
X-13321567Y-62422628D02*
X-12940615Y-62422628D01*
X-13892996Y-61994057D02*
X-13940615Y-61946438D01*
X-13940615Y-61946438D02*
X-14035853Y-61898819D01*
X-14035853Y-61898819D02*
X-14273948Y-61898819D01*
X-14273948Y-61898819D02*
X-14369186Y-61946438D01*
X-14369186Y-61946438D02*
X-14416805Y-61994057D01*
X-14416805Y-61994057D02*
X-14464424Y-62089295D01*
X-14464424Y-62089295D02*
X-14464424Y-62184533D01*
X-14464424Y-62184533D02*
X-14416805Y-62327390D01*
X-14416805Y-62327390D02*
X-13845377Y-62898819D01*
X-13845377Y-62898819D02*
X-14464424Y-62898819D01*
X-15416805Y-62898819D02*
X-14845377Y-62898819D01*
X-15131091Y-62898819D02*
X-15131091Y-61898819D01*
X-15131091Y-61898819D02*
X-15035853Y-62041676D01*
X-15035853Y-62041676D02*
X-14940615Y-62136914D01*
X-14940615Y-62136914D02*
X-14845377Y-62184533D01*
%TO.C,D15*%
X-79557581Y-38495714D02*
X-80557581Y-38495714D01*
X-80557581Y-38495714D02*
X-80557581Y-38733809D01*
X-80557581Y-38733809D02*
X-80509962Y-38876666D01*
X-80509962Y-38876666D02*
X-80414724Y-38971904D01*
X-80414724Y-38971904D02*
X-80319486Y-39019523D01*
X-80319486Y-39019523D02*
X-80129010Y-39067142D01*
X-80129010Y-39067142D02*
X-79986153Y-39067142D01*
X-79986153Y-39067142D02*
X-79795677Y-39019523D01*
X-79795677Y-39019523D02*
X-79700439Y-38971904D01*
X-79700439Y-38971904D02*
X-79605200Y-38876666D01*
X-79605200Y-38876666D02*
X-79557581Y-38733809D01*
X-79557581Y-38733809D02*
X-79557581Y-38495714D01*
X-79557581Y-40019523D02*
X-79557581Y-39448095D01*
X-79557581Y-39733809D02*
X-80557581Y-39733809D01*
X-80557581Y-39733809D02*
X-80414724Y-39638571D01*
X-80414724Y-39638571D02*
X-80319486Y-39543333D01*
X-80319486Y-39543333D02*
X-80271867Y-39448095D01*
X-80557581Y-40924285D02*
X-80557581Y-40448095D01*
X-80557581Y-40448095D02*
X-80081391Y-40400476D01*
X-80081391Y-40400476D02*
X-80129010Y-40448095D01*
X-80129010Y-40448095D02*
X-80176629Y-40543333D01*
X-80176629Y-40543333D02*
X-80176629Y-40781428D01*
X-80176629Y-40781428D02*
X-80129010Y-40876666D01*
X-80129010Y-40876666D02*
X-80081391Y-40924285D01*
X-80081391Y-40924285D02*
X-79986153Y-40971904D01*
X-79986153Y-40971904D02*
X-79748058Y-40971904D01*
X-79748058Y-40971904D02*
X-79652820Y-40924285D01*
X-79652820Y-40924285D02*
X-79605200Y-40876666D01*
X-79605200Y-40876666D02*
X-79557581Y-40781428D01*
X-79557581Y-40781428D02*
X-79557581Y-40543333D01*
X-79557581Y-40543333D02*
X-79605200Y-40448095D01*
X-79605200Y-40448095D02*
X-79652820Y-40400476D01*
%TO.C,R18*%
X-93014043Y-36008819D02*
X-92680710Y-35532628D01*
X-92442615Y-36008819D02*
X-92442615Y-35008819D01*
X-92442615Y-35008819D02*
X-92823567Y-35008819D01*
X-92823567Y-35008819D02*
X-92918805Y-35056438D01*
X-92918805Y-35056438D02*
X-92966424Y-35104057D01*
X-92966424Y-35104057D02*
X-93014043Y-35199295D01*
X-93014043Y-35199295D02*
X-93014043Y-35342152D01*
X-93014043Y-35342152D02*
X-92966424Y-35437390D01*
X-92966424Y-35437390D02*
X-92918805Y-35485009D01*
X-92918805Y-35485009D02*
X-92823567Y-35532628D01*
X-92823567Y-35532628D02*
X-92442615Y-35532628D01*
X-93966424Y-36008819D02*
X-93394996Y-36008819D01*
X-93680710Y-36008819D02*
X-93680710Y-35008819D01*
X-93680710Y-35008819D02*
X-93585472Y-35151676D01*
X-93585472Y-35151676D02*
X-93490234Y-35246914D01*
X-93490234Y-35246914D02*
X-93394996Y-35294533D01*
X-94537853Y-35437390D02*
X-94442615Y-35389771D01*
X-94442615Y-35389771D02*
X-94394996Y-35342152D01*
X-94394996Y-35342152D02*
X-94347377Y-35246914D01*
X-94347377Y-35246914D02*
X-94347377Y-35199295D01*
X-94347377Y-35199295D02*
X-94394996Y-35104057D01*
X-94394996Y-35104057D02*
X-94442615Y-35056438D01*
X-94442615Y-35056438D02*
X-94537853Y-35008819D01*
X-94537853Y-35008819D02*
X-94728329Y-35008819D01*
X-94728329Y-35008819D02*
X-94823567Y-35056438D01*
X-94823567Y-35056438D02*
X-94871186Y-35104057D01*
X-94871186Y-35104057D02*
X-94918805Y-35199295D01*
X-94918805Y-35199295D02*
X-94918805Y-35246914D01*
X-94918805Y-35246914D02*
X-94871186Y-35342152D01*
X-94871186Y-35342152D02*
X-94823567Y-35389771D01*
X-94823567Y-35389771D02*
X-94728329Y-35437390D01*
X-94728329Y-35437390D02*
X-94537853Y-35437390D01*
X-94537853Y-35437390D02*
X-94442615Y-35485009D01*
X-94442615Y-35485009D02*
X-94394996Y-35532628D01*
X-94394996Y-35532628D02*
X-94347377Y-35627866D01*
X-94347377Y-35627866D02*
X-94347377Y-35818342D01*
X-94347377Y-35818342D02*
X-94394996Y-35913580D01*
X-94394996Y-35913580D02*
X-94442615Y-35961200D01*
X-94442615Y-35961200D02*
X-94537853Y-36008819D01*
X-94537853Y-36008819D02*
X-94728329Y-36008819D01*
X-94728329Y-36008819D02*
X-94823567Y-35961200D01*
X-94823567Y-35961200D02*
X-94871186Y-35913580D01*
X-94871186Y-35913580D02*
X-94918805Y-35818342D01*
X-94918805Y-35818342D02*
X-94918805Y-35627866D01*
X-94918805Y-35627866D02*
X-94871186Y-35532628D01*
X-94871186Y-35532628D02*
X-94823567Y-35485009D01*
X-94823567Y-35485009D02*
X-94728329Y-35437390D01*
%TO.C,R19*%
X-111180853Y-39008819D02*
X-110847520Y-38532628D01*
X-110609425Y-39008819D02*
X-110609425Y-38008819D01*
X-110609425Y-38008819D02*
X-110990377Y-38008819D01*
X-110990377Y-38008819D02*
X-111085615Y-38056438D01*
X-111085615Y-38056438D02*
X-111133234Y-38104057D01*
X-111133234Y-38104057D02*
X-111180853Y-38199295D01*
X-111180853Y-38199295D02*
X-111180853Y-38342152D01*
X-111180853Y-38342152D02*
X-111133234Y-38437390D01*
X-111133234Y-38437390D02*
X-111085615Y-38485009D01*
X-111085615Y-38485009D02*
X-110990377Y-38532628D01*
X-110990377Y-38532628D02*
X-110609425Y-38532628D01*
X-112133234Y-39008819D02*
X-111561806Y-39008819D01*
X-111847520Y-39008819D02*
X-111847520Y-38008819D01*
X-111847520Y-38008819D02*
X-111752282Y-38151676D01*
X-111752282Y-38151676D02*
X-111657044Y-38246914D01*
X-111657044Y-38246914D02*
X-111561806Y-38294533D01*
X-112609425Y-39008819D02*
X-112799901Y-39008819D01*
X-112799901Y-39008819D02*
X-112895139Y-38961200D01*
X-112895139Y-38961200D02*
X-112942758Y-38913580D01*
X-112942758Y-38913580D02*
X-113037996Y-38770723D01*
X-113037996Y-38770723D02*
X-113085615Y-38580247D01*
X-113085615Y-38580247D02*
X-113085615Y-38199295D01*
X-113085615Y-38199295D02*
X-113037996Y-38104057D01*
X-113037996Y-38104057D02*
X-112990377Y-38056438D01*
X-112990377Y-38056438D02*
X-112895139Y-38008819D01*
X-112895139Y-38008819D02*
X-112704663Y-38008819D01*
X-112704663Y-38008819D02*
X-112609425Y-38056438D01*
X-112609425Y-38056438D02*
X-112561806Y-38104057D01*
X-112561806Y-38104057D02*
X-112514187Y-38199295D01*
X-112514187Y-38199295D02*
X-112514187Y-38437390D01*
X-112514187Y-38437390D02*
X-112561806Y-38532628D01*
X-112561806Y-38532628D02*
X-112609425Y-38580247D01*
X-112609425Y-38580247D02*
X-112704663Y-38627866D01*
X-112704663Y-38627866D02*
X-112895139Y-38627866D01*
X-112895139Y-38627866D02*
X-112990377Y-38580247D01*
X-112990377Y-38580247D02*
X-113037996Y-38532628D01*
X-113037996Y-38532628D02*
X-113085615Y-38437390D01*
%TO.C,R14*%
X-130484853Y-24008819D02*
X-130151520Y-23532628D01*
X-129913425Y-24008819D02*
X-129913425Y-23008819D01*
X-129913425Y-23008819D02*
X-130294377Y-23008819D01*
X-130294377Y-23008819D02*
X-130389615Y-23056438D01*
X-130389615Y-23056438D02*
X-130437234Y-23104057D01*
X-130437234Y-23104057D02*
X-130484853Y-23199295D01*
X-130484853Y-23199295D02*
X-130484853Y-23342152D01*
X-130484853Y-23342152D02*
X-130437234Y-23437390D01*
X-130437234Y-23437390D02*
X-130389615Y-23485009D01*
X-130389615Y-23485009D02*
X-130294377Y-23532628D01*
X-130294377Y-23532628D02*
X-129913425Y-23532628D01*
X-131437234Y-24008819D02*
X-130865806Y-24008819D01*
X-131151520Y-24008819D02*
X-131151520Y-23008819D01*
X-131151520Y-23008819D02*
X-131056282Y-23151676D01*
X-131056282Y-23151676D02*
X-130961044Y-23246914D01*
X-130961044Y-23246914D02*
X-130865806Y-23294533D01*
X-132294377Y-23342152D02*
X-132294377Y-24008819D01*
X-132056282Y-22961200D02*
X-131818187Y-23675485D01*
X-131818187Y-23675485D02*
X-132437234Y-23675485D01*
%TO.C,D3*%
X-80573581Y-2395905D02*
X-81573581Y-2395905D01*
X-81573581Y-2395905D02*
X-81573581Y-2634000D01*
X-81573581Y-2634000D02*
X-81525962Y-2776857D01*
X-81525962Y-2776857D02*
X-81430724Y-2872095D01*
X-81430724Y-2872095D02*
X-81335486Y-2919714D01*
X-81335486Y-2919714D02*
X-81145010Y-2967333D01*
X-81145010Y-2967333D02*
X-81002153Y-2967333D01*
X-81002153Y-2967333D02*
X-80811677Y-2919714D01*
X-80811677Y-2919714D02*
X-80716439Y-2872095D01*
X-80716439Y-2872095D02*
X-80621200Y-2776857D01*
X-80621200Y-2776857D02*
X-80573581Y-2634000D01*
X-80573581Y-2634000D02*
X-80573581Y-2395905D01*
X-81573581Y-3300667D02*
X-81573581Y-3919714D01*
X-81573581Y-3919714D02*
X-81192629Y-3586381D01*
X-81192629Y-3586381D02*
X-81192629Y-3729238D01*
X-81192629Y-3729238D02*
X-81145010Y-3824476D01*
X-81145010Y-3824476D02*
X-81097391Y-3872095D01*
X-81097391Y-3872095D02*
X-81002153Y-3919714D01*
X-81002153Y-3919714D02*
X-80764058Y-3919714D01*
X-80764058Y-3919714D02*
X-80668820Y-3872095D01*
X-80668820Y-3872095D02*
X-80621200Y-3824476D01*
X-80621200Y-3824476D02*
X-80573581Y-3729238D01*
X-80573581Y-3729238D02*
X-80573581Y-3443524D01*
X-80573581Y-3443524D02*
X-80621200Y-3348286D01*
X-80621200Y-3348286D02*
X-80668820Y-3300667D01*
%TO.C,R24*%
X-73456043Y-53940819D02*
X-73122710Y-53464628D01*
X-72884615Y-53940819D02*
X-72884615Y-52940819D01*
X-72884615Y-52940819D02*
X-73265567Y-52940819D01*
X-73265567Y-52940819D02*
X-73360805Y-52988438D01*
X-73360805Y-52988438D02*
X-73408424Y-53036057D01*
X-73408424Y-53036057D02*
X-73456043Y-53131295D01*
X-73456043Y-53131295D02*
X-73456043Y-53274152D01*
X-73456043Y-53274152D02*
X-73408424Y-53369390D01*
X-73408424Y-53369390D02*
X-73360805Y-53417009D01*
X-73360805Y-53417009D02*
X-73265567Y-53464628D01*
X-73265567Y-53464628D02*
X-72884615Y-53464628D01*
X-73836996Y-53036057D02*
X-73884615Y-52988438D01*
X-73884615Y-52988438D02*
X-73979853Y-52940819D01*
X-73979853Y-52940819D02*
X-74217948Y-52940819D01*
X-74217948Y-52940819D02*
X-74313186Y-52988438D01*
X-74313186Y-52988438D02*
X-74360805Y-53036057D01*
X-74360805Y-53036057D02*
X-74408424Y-53131295D01*
X-74408424Y-53131295D02*
X-74408424Y-53226533D01*
X-74408424Y-53226533D02*
X-74360805Y-53369390D01*
X-74360805Y-53369390D02*
X-73789377Y-53940819D01*
X-73789377Y-53940819D02*
X-74408424Y-53940819D01*
X-75265567Y-53274152D02*
X-75265567Y-53940819D01*
X-75027472Y-52893200D02*
X-74789377Y-53607485D01*
X-74789377Y-53607485D02*
X-75408424Y-53607485D01*
%TO.C,R1*%
X-108037581Y-65767333D02*
X-108513772Y-65434000D01*
X-108037581Y-65195905D02*
X-109037581Y-65195905D01*
X-109037581Y-65195905D02*
X-109037581Y-65576857D01*
X-109037581Y-65576857D02*
X-108989962Y-65672095D01*
X-108989962Y-65672095D02*
X-108942343Y-65719714D01*
X-108942343Y-65719714D02*
X-108847105Y-65767333D01*
X-108847105Y-65767333D02*
X-108704248Y-65767333D01*
X-108704248Y-65767333D02*
X-108609010Y-65719714D01*
X-108609010Y-65719714D02*
X-108561391Y-65672095D01*
X-108561391Y-65672095D02*
X-108513772Y-65576857D01*
X-108513772Y-65576857D02*
X-108513772Y-65195905D01*
X-108037581Y-66719714D02*
X-108037581Y-66148286D01*
X-108037581Y-66434000D02*
X-109037581Y-66434000D01*
X-109037581Y-66434000D02*
X-108894724Y-66338762D01*
X-108894724Y-66338762D02*
X-108799486Y-66243524D01*
X-108799486Y-66243524D02*
X-108751867Y-66148286D01*
%TO.C,D22*%
X-61523581Y-58945714D02*
X-62523581Y-58945714D01*
X-62523581Y-58945714D02*
X-62523581Y-59183809D01*
X-62523581Y-59183809D02*
X-62475962Y-59326666D01*
X-62475962Y-59326666D02*
X-62380724Y-59421904D01*
X-62380724Y-59421904D02*
X-62285486Y-59469523D01*
X-62285486Y-59469523D02*
X-62095010Y-59517142D01*
X-62095010Y-59517142D02*
X-61952153Y-59517142D01*
X-61952153Y-59517142D02*
X-61761677Y-59469523D01*
X-61761677Y-59469523D02*
X-61666439Y-59421904D01*
X-61666439Y-59421904D02*
X-61571200Y-59326666D01*
X-61571200Y-59326666D02*
X-61523581Y-59183809D01*
X-61523581Y-59183809D02*
X-61523581Y-58945714D01*
X-62428343Y-59898095D02*
X-62475962Y-59945714D01*
X-62475962Y-59945714D02*
X-62523581Y-60040952D01*
X-62523581Y-60040952D02*
X-62523581Y-60279047D01*
X-62523581Y-60279047D02*
X-62475962Y-60374285D01*
X-62475962Y-60374285D02*
X-62428343Y-60421904D01*
X-62428343Y-60421904D02*
X-62333105Y-60469523D01*
X-62333105Y-60469523D02*
X-62237867Y-60469523D01*
X-62237867Y-60469523D02*
X-62095010Y-60421904D01*
X-62095010Y-60421904D02*
X-61523581Y-59850476D01*
X-61523581Y-59850476D02*
X-61523581Y-60469523D01*
X-62428343Y-60850476D02*
X-62475962Y-60898095D01*
X-62475962Y-60898095D02*
X-62523581Y-60993333D01*
X-62523581Y-60993333D02*
X-62523581Y-61231428D01*
X-62523581Y-61231428D02*
X-62475962Y-61326666D01*
X-62475962Y-61326666D02*
X-62428343Y-61374285D01*
X-62428343Y-61374285D02*
X-62333105Y-61421904D01*
X-62333105Y-61421904D02*
X-62237867Y-61421904D01*
X-62237867Y-61421904D02*
X-62095010Y-61374285D01*
X-62095010Y-61374285D02*
X-61523581Y-60802857D01*
X-61523581Y-60802857D02*
X-61523581Y-61421904D01*
%TO.C,D23*%
X-80573581Y-55893714D02*
X-81573581Y-55893714D01*
X-81573581Y-55893714D02*
X-81573581Y-56131809D01*
X-81573581Y-56131809D02*
X-81525962Y-56274666D01*
X-81525962Y-56274666D02*
X-81430724Y-56369904D01*
X-81430724Y-56369904D02*
X-81335486Y-56417523D01*
X-81335486Y-56417523D02*
X-81145010Y-56465142D01*
X-81145010Y-56465142D02*
X-81002153Y-56465142D01*
X-81002153Y-56465142D02*
X-80811677Y-56417523D01*
X-80811677Y-56417523D02*
X-80716439Y-56369904D01*
X-80716439Y-56369904D02*
X-80621200Y-56274666D01*
X-80621200Y-56274666D02*
X-80573581Y-56131809D01*
X-80573581Y-56131809D02*
X-80573581Y-55893714D01*
X-81478343Y-56846095D02*
X-81525962Y-56893714D01*
X-81525962Y-56893714D02*
X-81573581Y-56988952D01*
X-81573581Y-56988952D02*
X-81573581Y-57227047D01*
X-81573581Y-57227047D02*
X-81525962Y-57322285D01*
X-81525962Y-57322285D02*
X-81478343Y-57369904D01*
X-81478343Y-57369904D02*
X-81383105Y-57417523D01*
X-81383105Y-57417523D02*
X-81287867Y-57417523D01*
X-81287867Y-57417523D02*
X-81145010Y-57369904D01*
X-81145010Y-57369904D02*
X-80573581Y-56798476D01*
X-80573581Y-56798476D02*
X-80573581Y-57417523D01*
X-81573581Y-57750857D02*
X-81573581Y-58369904D01*
X-81573581Y-58369904D02*
X-81192629Y-58036571D01*
X-81192629Y-58036571D02*
X-81192629Y-58179428D01*
X-81192629Y-58179428D02*
X-81145010Y-58274666D01*
X-81145010Y-58274666D02*
X-81097391Y-58322285D01*
X-81097391Y-58322285D02*
X-81002153Y-58369904D01*
X-81002153Y-58369904D02*
X-80764058Y-58369904D01*
X-80764058Y-58369904D02*
X-80668820Y-58322285D01*
X-80668820Y-58322285D02*
X-80621200Y-58274666D01*
X-80621200Y-58274666D02*
X-80573581Y-58179428D01*
X-80573581Y-58179428D02*
X-80573581Y-57893714D01*
X-80573581Y-57893714D02*
X-80621200Y-57798476D01*
X-80621200Y-57798476D02*
X-80668820Y-57750857D01*
%TO.C,D11*%
X-117657581Y-23001714D02*
X-118657581Y-23001714D01*
X-118657581Y-23001714D02*
X-118657581Y-23239809D01*
X-118657581Y-23239809D02*
X-118609962Y-23382666D01*
X-118609962Y-23382666D02*
X-118514724Y-23477904D01*
X-118514724Y-23477904D02*
X-118419486Y-23525523D01*
X-118419486Y-23525523D02*
X-118229010Y-23573142D01*
X-118229010Y-23573142D02*
X-118086153Y-23573142D01*
X-118086153Y-23573142D02*
X-117895677Y-23525523D01*
X-117895677Y-23525523D02*
X-117800439Y-23477904D01*
X-117800439Y-23477904D02*
X-117705200Y-23382666D01*
X-117705200Y-23382666D02*
X-117657581Y-23239809D01*
X-117657581Y-23239809D02*
X-117657581Y-23001714D01*
X-117657581Y-24525523D02*
X-117657581Y-23954095D01*
X-117657581Y-24239809D02*
X-118657581Y-24239809D01*
X-118657581Y-24239809D02*
X-118514724Y-24144571D01*
X-118514724Y-24144571D02*
X-118419486Y-24049333D01*
X-118419486Y-24049333D02*
X-118371867Y-23954095D01*
X-117657581Y-25477904D02*
X-117657581Y-24906476D01*
X-117657581Y-25192190D02*
X-118657581Y-25192190D01*
X-118657581Y-25192190D02*
X-118514724Y-25096952D01*
X-118514724Y-25096952D02*
X-118419486Y-25001714D01*
X-118419486Y-25001714D02*
X-118371867Y-24906476D01*
%TO.C,D7*%
X-42727581Y-26905905D02*
X-43727581Y-26905905D01*
X-43727581Y-26905905D02*
X-43727581Y-27144000D01*
X-43727581Y-27144000D02*
X-43679962Y-27286857D01*
X-43679962Y-27286857D02*
X-43584724Y-27382095D01*
X-43584724Y-27382095D02*
X-43489486Y-27429714D01*
X-43489486Y-27429714D02*
X-43299010Y-27477333D01*
X-43299010Y-27477333D02*
X-43156153Y-27477333D01*
X-43156153Y-27477333D02*
X-42965677Y-27429714D01*
X-42965677Y-27429714D02*
X-42870439Y-27382095D01*
X-42870439Y-27382095D02*
X-42775200Y-27286857D01*
X-42775200Y-27286857D02*
X-42727581Y-27144000D01*
X-42727581Y-27144000D02*
X-42727581Y-26905905D01*
X-43727581Y-27810667D02*
X-43727581Y-28477333D01*
X-43727581Y-28477333D02*
X-42727581Y-28048762D01*
%TO.C,R20*%
X-130484853Y-42008819D02*
X-130151520Y-41532628D01*
X-129913425Y-42008819D02*
X-129913425Y-41008819D01*
X-129913425Y-41008819D02*
X-130294377Y-41008819D01*
X-130294377Y-41008819D02*
X-130389615Y-41056438D01*
X-130389615Y-41056438D02*
X-130437234Y-41104057D01*
X-130437234Y-41104057D02*
X-130484853Y-41199295D01*
X-130484853Y-41199295D02*
X-130484853Y-41342152D01*
X-130484853Y-41342152D02*
X-130437234Y-41437390D01*
X-130437234Y-41437390D02*
X-130389615Y-41485009D01*
X-130389615Y-41485009D02*
X-130294377Y-41532628D01*
X-130294377Y-41532628D02*
X-129913425Y-41532628D01*
X-130865806Y-41104057D02*
X-130913425Y-41056438D01*
X-130913425Y-41056438D02*
X-131008663Y-41008819D01*
X-131008663Y-41008819D02*
X-131246758Y-41008819D01*
X-131246758Y-41008819D02*
X-131341996Y-41056438D01*
X-131341996Y-41056438D02*
X-131389615Y-41104057D01*
X-131389615Y-41104057D02*
X-131437234Y-41199295D01*
X-131437234Y-41199295D02*
X-131437234Y-41294533D01*
X-131437234Y-41294533D02*
X-131389615Y-41437390D01*
X-131389615Y-41437390D02*
X-130818187Y-42008819D01*
X-130818187Y-42008819D02*
X-131437234Y-42008819D01*
X-132056282Y-41008819D02*
X-132151520Y-41008819D01*
X-132151520Y-41008819D02*
X-132246758Y-41056438D01*
X-132246758Y-41056438D02*
X-132294377Y-41104057D01*
X-132294377Y-41104057D02*
X-132341996Y-41199295D01*
X-132341996Y-41199295D02*
X-132389615Y-41389771D01*
X-132389615Y-41389771D02*
X-132389615Y-41627866D01*
X-132389615Y-41627866D02*
X-132341996Y-41818342D01*
X-132341996Y-41818342D02*
X-132294377Y-41913580D01*
X-132294377Y-41913580D02*
X-132246758Y-41961200D01*
X-132246758Y-41961200D02*
X-132151520Y-42008819D01*
X-132151520Y-42008819D02*
X-132056282Y-42008819D01*
X-132056282Y-42008819D02*
X-131961044Y-41961200D01*
X-131961044Y-41961200D02*
X-131913425Y-41913580D01*
X-131913425Y-41913580D02*
X-131865806Y-41818342D01*
X-131865806Y-41818342D02*
X-131818187Y-41627866D01*
X-131818187Y-41627866D02*
X-131818187Y-41389771D01*
X-131818187Y-41389771D02*
X-131865806Y-41199295D01*
X-131865806Y-41199295D02*
X-131913425Y-41104057D01*
X-131913425Y-41104057D02*
X-131961044Y-41056438D01*
X-131961044Y-41056438D02*
X-132056282Y-41008819D01*
%TO.C,D20*%
X-20718635Y-63731658D02*
X-21718635Y-63731658D01*
X-21718635Y-63731658D02*
X-21718635Y-63969753D01*
X-21718635Y-63969753D02*
X-21671016Y-64112610D01*
X-21671016Y-64112610D02*
X-21575778Y-64207848D01*
X-21575778Y-64207848D02*
X-21480540Y-64255467D01*
X-21480540Y-64255467D02*
X-21290064Y-64303086D01*
X-21290064Y-64303086D02*
X-21147207Y-64303086D01*
X-21147207Y-64303086D02*
X-20956731Y-64255467D01*
X-20956731Y-64255467D02*
X-20861493Y-64207848D01*
X-20861493Y-64207848D02*
X-20766254Y-64112610D01*
X-20766254Y-64112610D02*
X-20718635Y-63969753D01*
X-20718635Y-63969753D02*
X-20718635Y-63731658D01*
X-21623397Y-64684039D02*
X-21671016Y-64731658D01*
X-21671016Y-64731658D02*
X-21718635Y-64826896D01*
X-21718635Y-64826896D02*
X-21718635Y-65064991D01*
X-21718635Y-65064991D02*
X-21671016Y-65160229D01*
X-21671016Y-65160229D02*
X-21623397Y-65207848D01*
X-21623397Y-65207848D02*
X-21528159Y-65255467D01*
X-21528159Y-65255467D02*
X-21432921Y-65255467D01*
X-21432921Y-65255467D02*
X-21290064Y-65207848D01*
X-21290064Y-65207848D02*
X-20718635Y-64636420D01*
X-20718635Y-64636420D02*
X-20718635Y-65255467D01*
X-21718635Y-65874515D02*
X-21718635Y-65969753D01*
X-21718635Y-65969753D02*
X-21671016Y-66064991D01*
X-21671016Y-66064991D02*
X-21623397Y-66112610D01*
X-21623397Y-66112610D02*
X-21528159Y-66160229D01*
X-21528159Y-66160229D02*
X-21337683Y-66207848D01*
X-21337683Y-66207848D02*
X-21099588Y-66207848D01*
X-21099588Y-66207848D02*
X-20909112Y-66160229D01*
X-20909112Y-66160229D02*
X-20813874Y-66112610D01*
X-20813874Y-66112610D02*
X-20766254Y-66064991D01*
X-20766254Y-66064991D02*
X-20718635Y-65969753D01*
X-20718635Y-65969753D02*
X-20718635Y-65874515D01*
X-20718635Y-65874515D02*
X-20766254Y-65779277D01*
X-20766254Y-65779277D02*
X-20813874Y-65731658D01*
X-20813874Y-65731658D02*
X-20909112Y-65684039D01*
X-20909112Y-65684039D02*
X-21099588Y-65636420D01*
X-21099588Y-65636420D02*
X-21337683Y-65636420D01*
X-21337683Y-65636420D02*
X-21528159Y-65684039D01*
X-21528159Y-65684039D02*
X-21623397Y-65731658D01*
X-21623397Y-65731658D02*
X-21671016Y-65779277D01*
X-21671016Y-65779277D02*
X-21718635Y-65874515D01*
%TO.C,R6*%
X-95728234Y-1890819D02*
X-95394901Y-1414628D01*
X-95156806Y-1890819D02*
X-95156806Y-890819D01*
X-95156806Y-890819D02*
X-95537758Y-890819D01*
X-95537758Y-890819D02*
X-95632996Y-938438D01*
X-95632996Y-938438D02*
X-95680615Y-986057D01*
X-95680615Y-986057D02*
X-95728234Y-1081295D01*
X-95728234Y-1081295D02*
X-95728234Y-1224152D01*
X-95728234Y-1224152D02*
X-95680615Y-1319390D01*
X-95680615Y-1319390D02*
X-95632996Y-1367009D01*
X-95632996Y-1367009D02*
X-95537758Y-1414628D01*
X-95537758Y-1414628D02*
X-95156806Y-1414628D01*
X-96585377Y-890819D02*
X-96394901Y-890819D01*
X-96394901Y-890819D02*
X-96299663Y-938438D01*
X-96299663Y-938438D02*
X-96252044Y-986057D01*
X-96252044Y-986057D02*
X-96156806Y-1128914D01*
X-96156806Y-1128914D02*
X-96109187Y-1319390D01*
X-96109187Y-1319390D02*
X-96109187Y-1700342D01*
X-96109187Y-1700342D02*
X-96156806Y-1795580D01*
X-96156806Y-1795580D02*
X-96204425Y-1843200D01*
X-96204425Y-1843200D02*
X-96299663Y-1890819D01*
X-96299663Y-1890819D02*
X-96490139Y-1890819D01*
X-96490139Y-1890819D02*
X-96585377Y-1843200D01*
X-96585377Y-1843200D02*
X-96632996Y-1795580D01*
X-96632996Y-1795580D02*
X-96680615Y-1700342D01*
X-96680615Y-1700342D02*
X-96680615Y-1462247D01*
X-96680615Y-1462247D02*
X-96632996Y-1367009D01*
X-96632996Y-1367009D02*
X-96585377Y-1319390D01*
X-96585377Y-1319390D02*
X-96490139Y-1271771D01*
X-96490139Y-1271771D02*
X-96299663Y-1271771D01*
X-96299663Y-1271771D02*
X-96204425Y-1319390D01*
X-96204425Y-1319390D02*
X-96156806Y-1367009D01*
X-96156806Y-1367009D02*
X-96109187Y-1462247D01*
%TO.C,D29*%
X-99623581Y-55893714D02*
X-100623581Y-55893714D01*
X-100623581Y-55893714D02*
X-100623581Y-56131809D01*
X-100623581Y-56131809D02*
X-100575962Y-56274666D01*
X-100575962Y-56274666D02*
X-100480724Y-56369904D01*
X-100480724Y-56369904D02*
X-100385486Y-56417523D01*
X-100385486Y-56417523D02*
X-100195010Y-56465142D01*
X-100195010Y-56465142D02*
X-100052153Y-56465142D01*
X-100052153Y-56465142D02*
X-99861677Y-56417523D01*
X-99861677Y-56417523D02*
X-99766439Y-56369904D01*
X-99766439Y-56369904D02*
X-99671200Y-56274666D01*
X-99671200Y-56274666D02*
X-99623581Y-56131809D01*
X-99623581Y-56131809D02*
X-99623581Y-55893714D01*
X-100528343Y-56846095D02*
X-100575962Y-56893714D01*
X-100575962Y-56893714D02*
X-100623581Y-56988952D01*
X-100623581Y-56988952D02*
X-100623581Y-57227047D01*
X-100623581Y-57227047D02*
X-100575962Y-57322285D01*
X-100575962Y-57322285D02*
X-100528343Y-57369904D01*
X-100528343Y-57369904D02*
X-100433105Y-57417523D01*
X-100433105Y-57417523D02*
X-100337867Y-57417523D01*
X-100337867Y-57417523D02*
X-100195010Y-57369904D01*
X-100195010Y-57369904D02*
X-99623581Y-56798476D01*
X-99623581Y-56798476D02*
X-99623581Y-57417523D01*
X-99623581Y-57893714D02*
X-99623581Y-58084190D01*
X-99623581Y-58084190D02*
X-99671200Y-58179428D01*
X-99671200Y-58179428D02*
X-99718820Y-58227047D01*
X-99718820Y-58227047D02*
X-99861677Y-58322285D01*
X-99861677Y-58322285D02*
X-100052153Y-58369904D01*
X-100052153Y-58369904D02*
X-100433105Y-58369904D01*
X-100433105Y-58369904D02*
X-100528343Y-58322285D01*
X-100528343Y-58322285D02*
X-100575962Y-58274666D01*
X-100575962Y-58274666D02*
X-100623581Y-58179428D01*
X-100623581Y-58179428D02*
X-100623581Y-57988952D01*
X-100623581Y-57988952D02*
X-100575962Y-57893714D01*
X-100575962Y-57893714D02*
X-100528343Y-57846095D01*
X-100528343Y-57846095D02*
X-100433105Y-57798476D01*
X-100433105Y-57798476D02*
X-100195010Y-57798476D01*
X-100195010Y-57798476D02*
X-100099772Y-57846095D01*
X-100099772Y-57846095D02*
X-100052153Y-57893714D01*
X-100052153Y-57893714D02*
X-100004534Y-57988952D01*
X-100004534Y-57988952D02*
X-100004534Y-58179428D01*
X-100004534Y-58179428D02*
X-100052153Y-58274666D01*
X-100052153Y-58274666D02*
X-100099772Y-58322285D01*
X-100099772Y-58322285D02*
X-100195010Y-58369904D01*
%TO.C,D4*%
X-99369581Y-2521905D02*
X-100369581Y-2521905D01*
X-100369581Y-2521905D02*
X-100369581Y-2760000D01*
X-100369581Y-2760000D02*
X-100321962Y-2902857D01*
X-100321962Y-2902857D02*
X-100226724Y-2998095D01*
X-100226724Y-2998095D02*
X-100131486Y-3045714D01*
X-100131486Y-3045714D02*
X-99941010Y-3093333D01*
X-99941010Y-3093333D02*
X-99798153Y-3093333D01*
X-99798153Y-3093333D02*
X-99607677Y-3045714D01*
X-99607677Y-3045714D02*
X-99512439Y-2998095D01*
X-99512439Y-2998095D02*
X-99417200Y-2902857D01*
X-99417200Y-2902857D02*
X-99369581Y-2760000D01*
X-99369581Y-2760000D02*
X-99369581Y-2521905D01*
X-100036248Y-3950476D02*
X-99369581Y-3950476D01*
X-100417200Y-3712381D02*
X-99702915Y-3474286D01*
X-99702915Y-3474286D02*
X-99702915Y-4093333D01*
%TO.C,R4*%
X-52041234Y-4824819D02*
X-51707901Y-4348628D01*
X-51469806Y-4824819D02*
X-51469806Y-3824819D01*
X-51469806Y-3824819D02*
X-51850758Y-3824819D01*
X-51850758Y-3824819D02*
X-51945996Y-3872438D01*
X-51945996Y-3872438D02*
X-51993615Y-3920057D01*
X-51993615Y-3920057D02*
X-52041234Y-4015295D01*
X-52041234Y-4015295D02*
X-52041234Y-4158152D01*
X-52041234Y-4158152D02*
X-51993615Y-4253390D01*
X-51993615Y-4253390D02*
X-51945996Y-4301009D01*
X-51945996Y-4301009D02*
X-51850758Y-4348628D01*
X-51850758Y-4348628D02*
X-51469806Y-4348628D01*
X-52898377Y-4158152D02*
X-52898377Y-4824819D01*
X-52660282Y-3777200D02*
X-52422187Y-4491485D01*
X-52422187Y-4491485D02*
X-53041234Y-4491485D01*
%TO.C,RESET1*%
X-23495220Y-16509971D02*
X-23019029Y-16843304D01*
X-23495220Y-17081399D02*
X-22495220Y-17081399D01*
X-22495220Y-17081399D02*
X-22495220Y-16700447D01*
X-22495220Y-16700447D02*
X-22542839Y-16605209D01*
X-22542839Y-16605209D02*
X-22590458Y-16557590D01*
X-22590458Y-16557590D02*
X-22685696Y-16509971D01*
X-22685696Y-16509971D02*
X-22828553Y-16509971D01*
X-22828553Y-16509971D02*
X-22923791Y-16557590D01*
X-22923791Y-16557590D02*
X-22971410Y-16605209D01*
X-22971410Y-16605209D02*
X-23019029Y-16700447D01*
X-23019029Y-16700447D02*
X-23019029Y-17081399D01*
X-22971410Y-16081399D02*
X-22971410Y-15748066D01*
X-23495220Y-15605209D02*
X-23495220Y-16081399D01*
X-23495220Y-16081399D02*
X-22495220Y-16081399D01*
X-22495220Y-16081399D02*
X-22495220Y-15605209D01*
X-23447600Y-15224256D02*
X-23495220Y-15081399D01*
X-23495220Y-15081399D02*
X-23495220Y-14843304D01*
X-23495220Y-14843304D02*
X-23447600Y-14748066D01*
X-23447600Y-14748066D02*
X-23399981Y-14700447D01*
X-23399981Y-14700447D02*
X-23304743Y-14652828D01*
X-23304743Y-14652828D02*
X-23209505Y-14652828D01*
X-23209505Y-14652828D02*
X-23114267Y-14700447D01*
X-23114267Y-14700447D02*
X-23066648Y-14748066D01*
X-23066648Y-14748066D02*
X-23019029Y-14843304D01*
X-23019029Y-14843304D02*
X-22971410Y-15033780D01*
X-22971410Y-15033780D02*
X-22923791Y-15129018D01*
X-22923791Y-15129018D02*
X-22876172Y-15176637D01*
X-22876172Y-15176637D02*
X-22780934Y-15224256D01*
X-22780934Y-15224256D02*
X-22685696Y-15224256D01*
X-22685696Y-15224256D02*
X-22590458Y-15176637D01*
X-22590458Y-15176637D02*
X-22542839Y-15129018D01*
X-22542839Y-15129018D02*
X-22495220Y-15033780D01*
X-22495220Y-15033780D02*
X-22495220Y-14795685D01*
X-22495220Y-14795685D02*
X-22542839Y-14652828D01*
X-22971410Y-14224256D02*
X-22971410Y-13890923D01*
X-23495220Y-13748066D02*
X-23495220Y-14224256D01*
X-23495220Y-14224256D02*
X-22495220Y-14224256D01*
X-22495220Y-14224256D02*
X-22495220Y-13748066D01*
X-22495220Y-13462351D02*
X-22495220Y-12890923D01*
X-23495220Y-13176637D02*
X-22495220Y-13176637D01*
X-23495220Y-12033780D02*
X-23495220Y-12605208D01*
X-23495220Y-12319494D02*
X-22495220Y-12319494D01*
X-22495220Y-12319494D02*
X-22638077Y-12414732D01*
X-22638077Y-12414732D02*
X-22733315Y-12509970D01*
X-22733315Y-12509970D02*
X-22780934Y-12605208D01*
%TO.C,D2*%
X-61523581Y-5569905D02*
X-62523581Y-5569905D01*
X-62523581Y-5569905D02*
X-62523581Y-5808000D01*
X-62523581Y-5808000D02*
X-62475962Y-5950857D01*
X-62475962Y-5950857D02*
X-62380724Y-6046095D01*
X-62380724Y-6046095D02*
X-62285486Y-6093714D01*
X-62285486Y-6093714D02*
X-62095010Y-6141333D01*
X-62095010Y-6141333D02*
X-61952153Y-6141333D01*
X-61952153Y-6141333D02*
X-61761677Y-6093714D01*
X-61761677Y-6093714D02*
X-61666439Y-6046095D01*
X-61666439Y-6046095D02*
X-61571200Y-5950857D01*
X-61571200Y-5950857D02*
X-61523581Y-5808000D01*
X-61523581Y-5808000D02*
X-61523581Y-5569905D01*
X-62428343Y-6522286D02*
X-62475962Y-6569905D01*
X-62475962Y-6569905D02*
X-62523581Y-6665143D01*
X-62523581Y-6665143D02*
X-62523581Y-6903238D01*
X-62523581Y-6903238D02*
X-62475962Y-6998476D01*
X-62475962Y-6998476D02*
X-62428343Y-7046095D01*
X-62428343Y-7046095D02*
X-62333105Y-7093714D01*
X-62333105Y-7093714D02*
X-62237867Y-7093714D01*
X-62237867Y-7093714D02*
X-62095010Y-7046095D01*
X-62095010Y-7046095D02*
X-61523581Y-6474667D01*
X-61523581Y-6474667D02*
X-61523581Y-7093714D01*
%TO.C,D8*%
X-61523581Y-23349905D02*
X-62523581Y-23349905D01*
X-62523581Y-23349905D02*
X-62523581Y-23588000D01*
X-62523581Y-23588000D02*
X-62475962Y-23730857D01*
X-62475962Y-23730857D02*
X-62380724Y-23826095D01*
X-62380724Y-23826095D02*
X-62285486Y-23873714D01*
X-62285486Y-23873714D02*
X-62095010Y-23921333D01*
X-62095010Y-23921333D02*
X-61952153Y-23921333D01*
X-61952153Y-23921333D02*
X-61761677Y-23873714D01*
X-61761677Y-23873714D02*
X-61666439Y-23826095D01*
X-61666439Y-23826095D02*
X-61571200Y-23730857D01*
X-61571200Y-23730857D02*
X-61523581Y-23588000D01*
X-61523581Y-23588000D02*
X-61523581Y-23349905D01*
X-62095010Y-24492762D02*
X-62142629Y-24397524D01*
X-62142629Y-24397524D02*
X-62190248Y-24349905D01*
X-62190248Y-24349905D02*
X-62285486Y-24302286D01*
X-62285486Y-24302286D02*
X-62333105Y-24302286D01*
X-62333105Y-24302286D02*
X-62428343Y-24349905D01*
X-62428343Y-24349905D02*
X-62475962Y-24397524D01*
X-62475962Y-24397524D02*
X-62523581Y-24492762D01*
X-62523581Y-24492762D02*
X-62523581Y-24683238D01*
X-62523581Y-24683238D02*
X-62475962Y-24778476D01*
X-62475962Y-24778476D02*
X-62428343Y-24826095D01*
X-62428343Y-24826095D02*
X-62333105Y-24873714D01*
X-62333105Y-24873714D02*
X-62285486Y-24873714D01*
X-62285486Y-24873714D02*
X-62190248Y-24826095D01*
X-62190248Y-24826095D02*
X-62142629Y-24778476D01*
X-62142629Y-24778476D02*
X-62095010Y-24683238D01*
X-62095010Y-24683238D02*
X-62095010Y-24492762D01*
X-62095010Y-24492762D02*
X-62047391Y-24397524D01*
X-62047391Y-24397524D02*
X-61999772Y-24349905D01*
X-61999772Y-24349905D02*
X-61904534Y-24302286D01*
X-61904534Y-24302286D02*
X-61714058Y-24302286D01*
X-61714058Y-24302286D02*
X-61618820Y-24349905D01*
X-61618820Y-24349905D02*
X-61571200Y-24397524D01*
X-61571200Y-24397524D02*
X-61523581Y-24492762D01*
X-61523581Y-24492762D02*
X-61523581Y-24683238D01*
X-61523581Y-24683238D02*
X-61571200Y-24778476D01*
X-61571200Y-24778476D02*
X-61618820Y-24826095D01*
X-61618820Y-24826095D02*
X-61714058Y-24873714D01*
X-61714058Y-24873714D02*
X-61904534Y-24873714D01*
X-61904534Y-24873714D02*
X-61999772Y-24826095D01*
X-61999772Y-24826095D02*
X-62047391Y-24778476D01*
X-62047391Y-24778476D02*
X-62095010Y-24683238D01*
%TO.C,R11*%
X-73456043Y-17940819D02*
X-73122710Y-17464628D01*
X-72884615Y-17940819D02*
X-72884615Y-16940819D01*
X-72884615Y-16940819D02*
X-73265567Y-16940819D01*
X-73265567Y-16940819D02*
X-73360805Y-16988438D01*
X-73360805Y-16988438D02*
X-73408424Y-17036057D01*
X-73408424Y-17036057D02*
X-73456043Y-17131295D01*
X-73456043Y-17131295D02*
X-73456043Y-17274152D01*
X-73456043Y-17274152D02*
X-73408424Y-17369390D01*
X-73408424Y-17369390D02*
X-73360805Y-17417009D01*
X-73360805Y-17417009D02*
X-73265567Y-17464628D01*
X-73265567Y-17464628D02*
X-72884615Y-17464628D01*
X-74408424Y-17940819D02*
X-73836996Y-17940819D01*
X-74122710Y-17940819D02*
X-74122710Y-16940819D01*
X-74122710Y-16940819D02*
X-74027472Y-17083676D01*
X-74027472Y-17083676D02*
X-73932234Y-17178914D01*
X-73932234Y-17178914D02*
X-73836996Y-17226533D01*
X-75360805Y-17940819D02*
X-74789377Y-17940819D01*
X-75075091Y-17940819D02*
X-75075091Y-16940819D01*
X-75075091Y-16940819D02*
X-74979853Y-17083676D01*
X-74979853Y-17083676D02*
X-74884615Y-17178914D01*
X-74884615Y-17178914D02*
X-74789377Y-17226533D01*
%TO.C,D18*%
X-133657181Y-43822214D02*
X-134657181Y-43822214D01*
X-134657181Y-43822214D02*
X-134657181Y-44060309D01*
X-134657181Y-44060309D02*
X-134609562Y-44203166D01*
X-134609562Y-44203166D02*
X-134514324Y-44298404D01*
X-134514324Y-44298404D02*
X-134419086Y-44346023D01*
X-134419086Y-44346023D02*
X-134228610Y-44393642D01*
X-134228610Y-44393642D02*
X-134085753Y-44393642D01*
X-134085753Y-44393642D02*
X-133895277Y-44346023D01*
X-133895277Y-44346023D02*
X-133800039Y-44298404D01*
X-133800039Y-44298404D02*
X-133704800Y-44203166D01*
X-133704800Y-44203166D02*
X-133657181Y-44060309D01*
X-133657181Y-44060309D02*
X-133657181Y-43822214D01*
X-133657181Y-45346023D02*
X-133657181Y-44774595D01*
X-133657181Y-45060309D02*
X-134657181Y-45060309D01*
X-134657181Y-45060309D02*
X-134514324Y-44965071D01*
X-134514324Y-44965071D02*
X-134419086Y-44869833D01*
X-134419086Y-44869833D02*
X-134371467Y-44774595D01*
X-134228610Y-45917452D02*
X-134276229Y-45822214D01*
X-134276229Y-45822214D02*
X-134323848Y-45774595D01*
X-134323848Y-45774595D02*
X-134419086Y-45726976D01*
X-134419086Y-45726976D02*
X-134466705Y-45726976D01*
X-134466705Y-45726976D02*
X-134561943Y-45774595D01*
X-134561943Y-45774595D02*
X-134609562Y-45822214D01*
X-134609562Y-45822214D02*
X-134657181Y-45917452D01*
X-134657181Y-45917452D02*
X-134657181Y-46107928D01*
X-134657181Y-46107928D02*
X-134609562Y-46203166D01*
X-134609562Y-46203166D02*
X-134561943Y-46250785D01*
X-134561943Y-46250785D02*
X-134466705Y-46298404D01*
X-134466705Y-46298404D02*
X-134419086Y-46298404D01*
X-134419086Y-46298404D02*
X-134323848Y-46250785D01*
X-134323848Y-46250785D02*
X-134276229Y-46203166D01*
X-134276229Y-46203166D02*
X-134228610Y-46107928D01*
X-134228610Y-46107928D02*
X-134228610Y-45917452D01*
X-134228610Y-45917452D02*
X-134180991Y-45822214D01*
X-134180991Y-45822214D02*
X-134133372Y-45774595D01*
X-134133372Y-45774595D02*
X-134038134Y-45726976D01*
X-134038134Y-45726976D02*
X-133847658Y-45726976D01*
X-133847658Y-45726976D02*
X-133752420Y-45774595D01*
X-133752420Y-45774595D02*
X-133704800Y-45822214D01*
X-133704800Y-45822214D02*
X-133657181Y-45917452D01*
X-133657181Y-45917452D02*
X-133657181Y-46107928D01*
X-133657181Y-46107928D02*
X-133704800Y-46203166D01*
X-133704800Y-46203166D02*
X-133752420Y-46250785D01*
X-133752420Y-46250785D02*
X-133847658Y-46298404D01*
X-133847658Y-46298404D02*
X-134038134Y-46298404D01*
X-134038134Y-46298404D02*
X-134133372Y-46250785D01*
X-134133372Y-46250785D02*
X-134180991Y-46203166D01*
X-134180991Y-46203166D02*
X-134228610Y-46107928D01*
%TO.C,R15*%
X-35713543Y-42358819D02*
X-35380210Y-41882628D01*
X-35142115Y-42358819D02*
X-35142115Y-41358819D01*
X-35142115Y-41358819D02*
X-35523067Y-41358819D01*
X-35523067Y-41358819D02*
X-35618305Y-41406438D01*
X-35618305Y-41406438D02*
X-35665924Y-41454057D01*
X-35665924Y-41454057D02*
X-35713543Y-41549295D01*
X-35713543Y-41549295D02*
X-35713543Y-41692152D01*
X-35713543Y-41692152D02*
X-35665924Y-41787390D01*
X-35665924Y-41787390D02*
X-35618305Y-41835009D01*
X-35618305Y-41835009D02*
X-35523067Y-41882628D01*
X-35523067Y-41882628D02*
X-35142115Y-41882628D01*
X-36665924Y-42358819D02*
X-36094496Y-42358819D01*
X-36380210Y-42358819D02*
X-36380210Y-41358819D01*
X-36380210Y-41358819D02*
X-36284972Y-41501676D01*
X-36284972Y-41501676D02*
X-36189734Y-41596914D01*
X-36189734Y-41596914D02*
X-36094496Y-41644533D01*
X-37570686Y-41358819D02*
X-37094496Y-41358819D01*
X-37094496Y-41358819D02*
X-37046877Y-41835009D01*
X-37046877Y-41835009D02*
X-37094496Y-41787390D01*
X-37094496Y-41787390D02*
X-37189734Y-41739771D01*
X-37189734Y-41739771D02*
X-37427829Y-41739771D01*
X-37427829Y-41739771D02*
X-37523067Y-41787390D01*
X-37523067Y-41787390D02*
X-37570686Y-41835009D01*
X-37570686Y-41835009D02*
X-37618305Y-41930247D01*
X-37618305Y-41930247D02*
X-37618305Y-42168342D01*
X-37618305Y-42168342D02*
X-37570686Y-42263580D01*
X-37570686Y-42263580D02*
X-37523067Y-42311200D01*
X-37523067Y-42311200D02*
X-37427829Y-42358819D01*
X-37427829Y-42358819D02*
X-37189734Y-42358819D01*
X-37189734Y-42358819D02*
X-37094496Y-42311200D01*
X-37094496Y-42311200D02*
X-37046877Y-42263580D01*
%TO.C,R22*%
X-35713543Y-60358819D02*
X-35380210Y-59882628D01*
X-35142115Y-60358819D02*
X-35142115Y-59358819D01*
X-35142115Y-59358819D02*
X-35523067Y-59358819D01*
X-35523067Y-59358819D02*
X-35618305Y-59406438D01*
X-35618305Y-59406438D02*
X-35665924Y-59454057D01*
X-35665924Y-59454057D02*
X-35713543Y-59549295D01*
X-35713543Y-59549295D02*
X-35713543Y-59692152D01*
X-35713543Y-59692152D02*
X-35665924Y-59787390D01*
X-35665924Y-59787390D02*
X-35618305Y-59835009D01*
X-35618305Y-59835009D02*
X-35523067Y-59882628D01*
X-35523067Y-59882628D02*
X-35142115Y-59882628D01*
X-36094496Y-59454057D02*
X-36142115Y-59406438D01*
X-36142115Y-59406438D02*
X-36237353Y-59358819D01*
X-36237353Y-59358819D02*
X-36475448Y-59358819D01*
X-36475448Y-59358819D02*
X-36570686Y-59406438D01*
X-36570686Y-59406438D02*
X-36618305Y-59454057D01*
X-36618305Y-59454057D02*
X-36665924Y-59549295D01*
X-36665924Y-59549295D02*
X-36665924Y-59644533D01*
X-36665924Y-59644533D02*
X-36618305Y-59787390D01*
X-36618305Y-59787390D02*
X-36046877Y-60358819D01*
X-36046877Y-60358819D02*
X-36665924Y-60358819D01*
X-37046877Y-59454057D02*
X-37094496Y-59406438D01*
X-37094496Y-59406438D02*
X-37189734Y-59358819D01*
X-37189734Y-59358819D02*
X-37427829Y-59358819D01*
X-37427829Y-59358819D02*
X-37523067Y-59406438D01*
X-37523067Y-59406438D02*
X-37570686Y-59454057D01*
X-37570686Y-59454057D02*
X-37618305Y-59549295D01*
X-37618305Y-59549295D02*
X-37618305Y-59644533D01*
X-37618305Y-59644533D02*
X-37570686Y-59787390D01*
X-37570686Y-59787390D02*
X-36999258Y-60358819D01*
X-36999258Y-60358819D02*
X-37618305Y-60358819D01*
%TO.C,D5*%
X-118419581Y-5569905D02*
X-119419581Y-5569905D01*
X-119419581Y-5569905D02*
X-119419581Y-5808000D01*
X-119419581Y-5808000D02*
X-119371962Y-5950857D01*
X-119371962Y-5950857D02*
X-119276724Y-6046095D01*
X-119276724Y-6046095D02*
X-119181486Y-6093714D01*
X-119181486Y-6093714D02*
X-118991010Y-6141333D01*
X-118991010Y-6141333D02*
X-118848153Y-6141333D01*
X-118848153Y-6141333D02*
X-118657677Y-6093714D01*
X-118657677Y-6093714D02*
X-118562439Y-6046095D01*
X-118562439Y-6046095D02*
X-118467200Y-5950857D01*
X-118467200Y-5950857D02*
X-118419581Y-5808000D01*
X-118419581Y-5808000D02*
X-118419581Y-5569905D01*
X-119419581Y-7046095D02*
X-119419581Y-6569905D01*
X-119419581Y-6569905D02*
X-118943391Y-6522286D01*
X-118943391Y-6522286D02*
X-118991010Y-6569905D01*
X-118991010Y-6569905D02*
X-119038629Y-6665143D01*
X-119038629Y-6665143D02*
X-119038629Y-6903238D01*
X-119038629Y-6903238D02*
X-118991010Y-6998476D01*
X-118991010Y-6998476D02*
X-118943391Y-7046095D01*
X-118943391Y-7046095D02*
X-118848153Y-7093714D01*
X-118848153Y-7093714D02*
X-118610058Y-7093714D01*
X-118610058Y-7093714D02*
X-118514820Y-7046095D01*
X-118514820Y-7046095D02*
X-118467200Y-6998476D01*
X-118467200Y-6998476D02*
X-118419581Y-6903238D01*
X-118419581Y-6903238D02*
X-118419581Y-6665143D01*
X-118419581Y-6665143D02*
X-118467200Y-6569905D01*
X-118467200Y-6569905D02*
X-118514820Y-6522286D01*
%TO.C,R7*%
X-114677044Y-4692819D02*
X-114343711Y-4216628D01*
X-114105616Y-4692819D02*
X-114105616Y-3692819D01*
X-114105616Y-3692819D02*
X-114486568Y-3692819D01*
X-114486568Y-3692819D02*
X-114581806Y-3740438D01*
X-114581806Y-3740438D02*
X-114629425Y-3788057D01*
X-114629425Y-3788057D02*
X-114677044Y-3883295D01*
X-114677044Y-3883295D02*
X-114677044Y-4026152D01*
X-114677044Y-4026152D02*
X-114629425Y-4121390D01*
X-114629425Y-4121390D02*
X-114581806Y-4169009D01*
X-114581806Y-4169009D02*
X-114486568Y-4216628D01*
X-114486568Y-4216628D02*
X-114105616Y-4216628D01*
X-115010378Y-3692819D02*
X-115677044Y-3692819D01*
X-115677044Y-3692819D02*
X-115248473Y-4692819D01*
%TO.C,D6*%
X-133403181Y-8103905D02*
X-134403181Y-8103905D01*
X-134403181Y-8103905D02*
X-134403181Y-8342000D01*
X-134403181Y-8342000D02*
X-134355562Y-8484857D01*
X-134355562Y-8484857D02*
X-134260324Y-8580095D01*
X-134260324Y-8580095D02*
X-134165086Y-8627714D01*
X-134165086Y-8627714D02*
X-133974610Y-8675333D01*
X-133974610Y-8675333D02*
X-133831753Y-8675333D01*
X-133831753Y-8675333D02*
X-133641277Y-8627714D01*
X-133641277Y-8627714D02*
X-133546039Y-8580095D01*
X-133546039Y-8580095D02*
X-133450800Y-8484857D01*
X-133450800Y-8484857D02*
X-133403181Y-8342000D01*
X-133403181Y-8342000D02*
X-133403181Y-8103905D01*
X-134403181Y-9532476D02*
X-134403181Y-9342000D01*
X-134403181Y-9342000D02*
X-134355562Y-9246762D01*
X-134355562Y-9246762D02*
X-134307943Y-9199143D01*
X-134307943Y-9199143D02*
X-134165086Y-9103905D01*
X-134165086Y-9103905D02*
X-133974610Y-9056286D01*
X-133974610Y-9056286D02*
X-133593658Y-9056286D01*
X-133593658Y-9056286D02*
X-133498420Y-9103905D01*
X-133498420Y-9103905D02*
X-133450800Y-9151524D01*
X-133450800Y-9151524D02*
X-133403181Y-9246762D01*
X-133403181Y-9246762D02*
X-133403181Y-9437238D01*
X-133403181Y-9437238D02*
X-133450800Y-9532476D01*
X-133450800Y-9532476D02*
X-133498420Y-9580095D01*
X-133498420Y-9580095D02*
X-133593658Y-9627714D01*
X-133593658Y-9627714D02*
X-133831753Y-9627714D01*
X-133831753Y-9627714D02*
X-133926991Y-9580095D01*
X-133926991Y-9580095D02*
X-133974610Y-9532476D01*
X-133974610Y-9532476D02*
X-134022229Y-9437238D01*
X-134022229Y-9437238D02*
X-134022229Y-9246762D01*
X-134022229Y-9246762D02*
X-133974610Y-9151524D01*
X-133974610Y-9151524D02*
X-133926991Y-9103905D01*
X-133926991Y-9103905D02*
X-133831753Y-9056286D01*
%TO.C,D9*%
X-80573581Y-20555905D02*
X-81573581Y-20555905D01*
X-81573581Y-20555905D02*
X-81573581Y-20794000D01*
X-81573581Y-20794000D02*
X-81525962Y-20936857D01*
X-81525962Y-20936857D02*
X-81430724Y-21032095D01*
X-81430724Y-21032095D02*
X-81335486Y-21079714D01*
X-81335486Y-21079714D02*
X-81145010Y-21127333D01*
X-81145010Y-21127333D02*
X-81002153Y-21127333D01*
X-81002153Y-21127333D02*
X-80811677Y-21079714D01*
X-80811677Y-21079714D02*
X-80716439Y-21032095D01*
X-80716439Y-21032095D02*
X-80621200Y-20936857D01*
X-80621200Y-20936857D02*
X-80573581Y-20794000D01*
X-80573581Y-20794000D02*
X-80573581Y-20555905D01*
X-80573581Y-21603524D02*
X-80573581Y-21794000D01*
X-80573581Y-21794000D02*
X-80621200Y-21889238D01*
X-80621200Y-21889238D02*
X-80668820Y-21936857D01*
X-80668820Y-21936857D02*
X-80811677Y-22032095D01*
X-80811677Y-22032095D02*
X-81002153Y-22079714D01*
X-81002153Y-22079714D02*
X-81383105Y-22079714D01*
X-81383105Y-22079714D02*
X-81478343Y-22032095D01*
X-81478343Y-22032095D02*
X-81525962Y-21984476D01*
X-81525962Y-21984476D02*
X-81573581Y-21889238D01*
X-81573581Y-21889238D02*
X-81573581Y-21698762D01*
X-81573581Y-21698762D02*
X-81525962Y-21603524D01*
X-81525962Y-21603524D02*
X-81478343Y-21555905D01*
X-81478343Y-21555905D02*
X-81383105Y-21508286D01*
X-81383105Y-21508286D02*
X-81145010Y-21508286D01*
X-81145010Y-21508286D02*
X-81049772Y-21555905D01*
X-81049772Y-21555905D02*
X-81002153Y-21603524D01*
X-81002153Y-21603524D02*
X-80954534Y-21698762D01*
X-80954534Y-21698762D02*
X-80954534Y-21889238D01*
X-80954534Y-21889238D02*
X-81002153Y-21984476D01*
X-81002153Y-21984476D02*
X-81049772Y-22032095D01*
X-81049772Y-22032095D02*
X-81145010Y-22079714D01*
%TO.C,R25*%
X-93134043Y-54008819D02*
X-92800710Y-53532628D01*
X-92562615Y-54008819D02*
X-92562615Y-53008819D01*
X-92562615Y-53008819D02*
X-92943567Y-53008819D01*
X-92943567Y-53008819D02*
X-93038805Y-53056438D01*
X-93038805Y-53056438D02*
X-93086424Y-53104057D01*
X-93086424Y-53104057D02*
X-93134043Y-53199295D01*
X-93134043Y-53199295D02*
X-93134043Y-53342152D01*
X-93134043Y-53342152D02*
X-93086424Y-53437390D01*
X-93086424Y-53437390D02*
X-93038805Y-53485009D01*
X-93038805Y-53485009D02*
X-92943567Y-53532628D01*
X-92943567Y-53532628D02*
X-92562615Y-53532628D01*
X-93514996Y-53104057D02*
X-93562615Y-53056438D01*
X-93562615Y-53056438D02*
X-93657853Y-53008819D01*
X-93657853Y-53008819D02*
X-93895948Y-53008819D01*
X-93895948Y-53008819D02*
X-93991186Y-53056438D01*
X-93991186Y-53056438D02*
X-94038805Y-53104057D01*
X-94038805Y-53104057D02*
X-94086424Y-53199295D01*
X-94086424Y-53199295D02*
X-94086424Y-53294533D01*
X-94086424Y-53294533D02*
X-94038805Y-53437390D01*
X-94038805Y-53437390D02*
X-93467377Y-54008819D01*
X-93467377Y-54008819D02*
X-94086424Y-54008819D01*
X-94991186Y-53008819D02*
X-94514996Y-53008819D01*
X-94514996Y-53008819D02*
X-94467377Y-53485009D01*
X-94467377Y-53485009D02*
X-94514996Y-53437390D01*
X-94514996Y-53437390D02*
X-94610234Y-53389771D01*
X-94610234Y-53389771D02*
X-94848329Y-53389771D01*
X-94848329Y-53389771D02*
X-94943567Y-53437390D01*
X-94943567Y-53437390D02*
X-94991186Y-53485009D01*
X-94991186Y-53485009D02*
X-95038805Y-53580247D01*
X-95038805Y-53580247D02*
X-95038805Y-53818342D01*
X-95038805Y-53818342D02*
X-94991186Y-53913580D01*
X-94991186Y-53913580D02*
X-94943567Y-53961200D01*
X-94943567Y-53961200D02*
X-94848329Y-54008819D01*
X-94848329Y-54008819D02*
X-94610234Y-54008819D01*
X-94610234Y-54008819D02*
X-94514996Y-53961200D01*
X-94514996Y-53961200D02*
X-94467377Y-53913580D01*
%TO.C,D19*%
X-8218115Y-56468819D02*
X-8218115Y-55468819D01*
X-8218115Y-55468819D02*
X-8456210Y-55468819D01*
X-8456210Y-55468819D02*
X-8599067Y-55516438D01*
X-8599067Y-55516438D02*
X-8694305Y-55611676D01*
X-8694305Y-55611676D02*
X-8741924Y-55706914D01*
X-8741924Y-55706914D02*
X-8789543Y-55897390D01*
X-8789543Y-55897390D02*
X-8789543Y-56040247D01*
X-8789543Y-56040247D02*
X-8741924Y-56230723D01*
X-8741924Y-56230723D02*
X-8694305Y-56325961D01*
X-8694305Y-56325961D02*
X-8599067Y-56421200D01*
X-8599067Y-56421200D02*
X-8456210Y-56468819D01*
X-8456210Y-56468819D02*
X-8218115Y-56468819D01*
X-9741924Y-56468819D02*
X-9170496Y-56468819D01*
X-9456210Y-56468819D02*
X-9456210Y-55468819D01*
X-9456210Y-55468819D02*
X-9360972Y-55611676D01*
X-9360972Y-55611676D02*
X-9265734Y-55706914D01*
X-9265734Y-55706914D02*
X-9170496Y-55754533D01*
X-10218115Y-56468819D02*
X-10408591Y-56468819D01*
X-10408591Y-56468819D02*
X-10503829Y-56421200D01*
X-10503829Y-56421200D02*
X-10551448Y-56373580D01*
X-10551448Y-56373580D02*
X-10646686Y-56230723D01*
X-10646686Y-56230723D02*
X-10694305Y-56040247D01*
X-10694305Y-56040247D02*
X-10694305Y-55659295D01*
X-10694305Y-55659295D02*
X-10646686Y-55564057D01*
X-10646686Y-55564057D02*
X-10599067Y-55516438D01*
X-10599067Y-55516438D02*
X-10503829Y-55468819D01*
X-10503829Y-55468819D02*
X-10313353Y-55468819D01*
X-10313353Y-55468819D02*
X-10218115Y-55516438D01*
X-10218115Y-55516438D02*
X-10170496Y-55564057D01*
X-10170496Y-55564057D02*
X-10122877Y-55659295D01*
X-10122877Y-55659295D02*
X-10122877Y-55897390D01*
X-10122877Y-55897390D02*
X-10170496Y-55992628D01*
X-10170496Y-55992628D02*
X-10218115Y-56040247D01*
X-10218115Y-56040247D02*
X-10313353Y-56087866D01*
X-10313353Y-56087866D02*
X-10503829Y-56087866D01*
X-10503829Y-56087866D02*
X-10599067Y-56040247D01*
X-10599067Y-56040247D02*
X-10646686Y-55992628D01*
X-10646686Y-55992628D02*
X-10694305Y-55897390D01*
%TO.C,Q1*%
X-109466343Y-58918761D02*
X-109513962Y-58823523D01*
X-109513962Y-58823523D02*
X-109609200Y-58728285D01*
X-109609200Y-58728285D02*
X-109752058Y-58585428D01*
X-109752058Y-58585428D02*
X-109799677Y-58490190D01*
X-109799677Y-58490190D02*
X-109799677Y-58394952D01*
X-109561581Y-58442571D02*
X-109609200Y-58347333D01*
X-109609200Y-58347333D02*
X-109704439Y-58252095D01*
X-109704439Y-58252095D02*
X-109894915Y-58204476D01*
X-109894915Y-58204476D02*
X-110228248Y-58204476D01*
X-110228248Y-58204476D02*
X-110418724Y-58252095D01*
X-110418724Y-58252095D02*
X-110513962Y-58347333D01*
X-110513962Y-58347333D02*
X-110561581Y-58442571D01*
X-110561581Y-58442571D02*
X-110561581Y-58633047D01*
X-110561581Y-58633047D02*
X-110513962Y-58728285D01*
X-110513962Y-58728285D02*
X-110418724Y-58823523D01*
X-110418724Y-58823523D02*
X-110228248Y-58871142D01*
X-110228248Y-58871142D02*
X-109894915Y-58871142D01*
X-109894915Y-58871142D02*
X-109704439Y-58823523D01*
X-109704439Y-58823523D02*
X-109609200Y-58728285D01*
X-109609200Y-58728285D02*
X-109561581Y-58633047D01*
X-109561581Y-58633047D02*
X-109561581Y-58442571D01*
X-109561581Y-59823523D02*
X-109561581Y-59252095D01*
X-109561581Y-59537809D02*
X-110561581Y-59537809D01*
X-110561581Y-59537809D02*
X-110418724Y-59442571D01*
X-110418724Y-59442571D02*
X-110323486Y-59347333D01*
X-110323486Y-59347333D02*
X-110275867Y-59252095D01*
%TO.C,R23*%
X-54509543Y-57492819D02*
X-54176210Y-57016628D01*
X-53938115Y-57492819D02*
X-53938115Y-56492819D01*
X-53938115Y-56492819D02*
X-54319067Y-56492819D01*
X-54319067Y-56492819D02*
X-54414305Y-56540438D01*
X-54414305Y-56540438D02*
X-54461924Y-56588057D01*
X-54461924Y-56588057D02*
X-54509543Y-56683295D01*
X-54509543Y-56683295D02*
X-54509543Y-56826152D01*
X-54509543Y-56826152D02*
X-54461924Y-56921390D01*
X-54461924Y-56921390D02*
X-54414305Y-56969009D01*
X-54414305Y-56969009D02*
X-54319067Y-57016628D01*
X-54319067Y-57016628D02*
X-53938115Y-57016628D01*
X-54890496Y-56588057D02*
X-54938115Y-56540438D01*
X-54938115Y-56540438D02*
X-55033353Y-56492819D01*
X-55033353Y-56492819D02*
X-55271448Y-56492819D01*
X-55271448Y-56492819D02*
X-55366686Y-56540438D01*
X-55366686Y-56540438D02*
X-55414305Y-56588057D01*
X-55414305Y-56588057D02*
X-55461924Y-56683295D01*
X-55461924Y-56683295D02*
X-55461924Y-56778533D01*
X-55461924Y-56778533D02*
X-55414305Y-56921390D01*
X-55414305Y-56921390D02*
X-54842877Y-57492819D01*
X-54842877Y-57492819D02*
X-55461924Y-57492819D01*
X-55795258Y-56492819D02*
X-56414305Y-56492819D01*
X-56414305Y-56492819D02*
X-56080972Y-56873771D01*
X-56080972Y-56873771D02*
X-56223829Y-56873771D01*
X-56223829Y-56873771D02*
X-56319067Y-56921390D01*
X-56319067Y-56921390D02*
X-56366686Y-56969009D01*
X-56366686Y-56969009D02*
X-56414305Y-57064247D01*
X-56414305Y-57064247D02*
X-56414305Y-57302342D01*
X-56414305Y-57302342D02*
X-56366686Y-57397580D01*
X-56366686Y-57397580D02*
X-56319067Y-57445200D01*
X-56319067Y-57445200D02*
X-56223829Y-57492819D01*
X-56223829Y-57492819D02*
X-55938115Y-57492819D01*
X-55938115Y-57492819D02*
X-55842877Y-57445200D01*
X-55842877Y-57445200D02*
X-55795258Y-57397580D01*
%TO.C,D21*%
X-42727581Y-62243714D02*
X-43727581Y-62243714D01*
X-43727581Y-62243714D02*
X-43727581Y-62481809D01*
X-43727581Y-62481809D02*
X-43679962Y-62624666D01*
X-43679962Y-62624666D02*
X-43584724Y-62719904D01*
X-43584724Y-62719904D02*
X-43489486Y-62767523D01*
X-43489486Y-62767523D02*
X-43299010Y-62815142D01*
X-43299010Y-62815142D02*
X-43156153Y-62815142D01*
X-43156153Y-62815142D02*
X-42965677Y-62767523D01*
X-42965677Y-62767523D02*
X-42870439Y-62719904D01*
X-42870439Y-62719904D02*
X-42775200Y-62624666D01*
X-42775200Y-62624666D02*
X-42727581Y-62481809D01*
X-42727581Y-62481809D02*
X-42727581Y-62243714D01*
X-43632343Y-63196095D02*
X-43679962Y-63243714D01*
X-43679962Y-63243714D02*
X-43727581Y-63338952D01*
X-43727581Y-63338952D02*
X-43727581Y-63577047D01*
X-43727581Y-63577047D02*
X-43679962Y-63672285D01*
X-43679962Y-63672285D02*
X-43632343Y-63719904D01*
X-43632343Y-63719904D02*
X-43537105Y-63767523D01*
X-43537105Y-63767523D02*
X-43441867Y-63767523D01*
X-43441867Y-63767523D02*
X-43299010Y-63719904D01*
X-43299010Y-63719904D02*
X-42727581Y-63148476D01*
X-42727581Y-63148476D02*
X-42727581Y-63767523D01*
X-42727581Y-64719904D02*
X-42727581Y-64148476D01*
X-42727581Y-64434190D02*
X-43727581Y-64434190D01*
X-43727581Y-64434190D02*
X-43584724Y-64338952D01*
X-43584724Y-64338952D02*
X-43489486Y-64243714D01*
X-43489486Y-64243714D02*
X-43441867Y-64148476D01*
%TO.C,R5*%
X-76882234Y-1890819D02*
X-76548901Y-1414628D01*
X-76310806Y-1890819D02*
X-76310806Y-890819D01*
X-76310806Y-890819D02*
X-76691758Y-890819D01*
X-76691758Y-890819D02*
X-76786996Y-938438D01*
X-76786996Y-938438D02*
X-76834615Y-986057D01*
X-76834615Y-986057D02*
X-76882234Y-1081295D01*
X-76882234Y-1081295D02*
X-76882234Y-1224152D01*
X-76882234Y-1224152D02*
X-76834615Y-1319390D01*
X-76834615Y-1319390D02*
X-76786996Y-1367009D01*
X-76786996Y-1367009D02*
X-76691758Y-1414628D01*
X-76691758Y-1414628D02*
X-76310806Y-1414628D01*
X-77786996Y-890819D02*
X-77310806Y-890819D01*
X-77310806Y-890819D02*
X-77263187Y-1367009D01*
X-77263187Y-1367009D02*
X-77310806Y-1319390D01*
X-77310806Y-1319390D02*
X-77406044Y-1271771D01*
X-77406044Y-1271771D02*
X-77644139Y-1271771D01*
X-77644139Y-1271771D02*
X-77739377Y-1319390D01*
X-77739377Y-1319390D02*
X-77786996Y-1367009D01*
X-77786996Y-1367009D02*
X-77834615Y-1462247D01*
X-77834615Y-1462247D02*
X-77834615Y-1700342D01*
X-77834615Y-1700342D02*
X-77786996Y-1795580D01*
X-77786996Y-1795580D02*
X-77739377Y-1843200D01*
X-77739377Y-1843200D02*
X-77644139Y-1890819D01*
X-77644139Y-1890819D02*
X-77406044Y-1890819D01*
X-77406044Y-1890819D02*
X-77310806Y-1843200D01*
X-77310806Y-1843200D02*
X-77263187Y-1795580D01*
%TO.C,D16*%
X-99623581Y-37859714D02*
X-100623581Y-37859714D01*
X-100623581Y-37859714D02*
X-100623581Y-38097809D01*
X-100623581Y-38097809D02*
X-100575962Y-38240666D01*
X-100575962Y-38240666D02*
X-100480724Y-38335904D01*
X-100480724Y-38335904D02*
X-100385486Y-38383523D01*
X-100385486Y-38383523D02*
X-100195010Y-38431142D01*
X-100195010Y-38431142D02*
X-100052153Y-38431142D01*
X-100052153Y-38431142D02*
X-99861677Y-38383523D01*
X-99861677Y-38383523D02*
X-99766439Y-38335904D01*
X-99766439Y-38335904D02*
X-99671200Y-38240666D01*
X-99671200Y-38240666D02*
X-99623581Y-38097809D01*
X-99623581Y-38097809D02*
X-99623581Y-37859714D01*
X-99623581Y-39383523D02*
X-99623581Y-38812095D01*
X-99623581Y-39097809D02*
X-100623581Y-39097809D01*
X-100623581Y-39097809D02*
X-100480724Y-39002571D01*
X-100480724Y-39002571D02*
X-100385486Y-38907333D01*
X-100385486Y-38907333D02*
X-100337867Y-38812095D01*
X-100623581Y-40240666D02*
X-100623581Y-40050190D01*
X-100623581Y-40050190D02*
X-100575962Y-39954952D01*
X-100575962Y-39954952D02*
X-100528343Y-39907333D01*
X-100528343Y-39907333D02*
X-100385486Y-39812095D01*
X-100385486Y-39812095D02*
X-100195010Y-39764476D01*
X-100195010Y-39764476D02*
X-99814058Y-39764476D01*
X-99814058Y-39764476D02*
X-99718820Y-39812095D01*
X-99718820Y-39812095D02*
X-99671200Y-39859714D01*
X-99671200Y-39859714D02*
X-99623581Y-39954952D01*
X-99623581Y-39954952D02*
X-99623581Y-40145428D01*
X-99623581Y-40145428D02*
X-99671200Y-40240666D01*
X-99671200Y-40240666D02*
X-99718820Y-40288285D01*
X-99718820Y-40288285D02*
X-99814058Y-40335904D01*
X-99814058Y-40335904D02*
X-100052153Y-40335904D01*
X-100052153Y-40335904D02*
X-100147391Y-40288285D01*
X-100147391Y-40288285D02*
X-100195010Y-40240666D01*
X-100195010Y-40240666D02*
X-100242629Y-40145428D01*
X-100242629Y-40145428D02*
X-100242629Y-39954952D01*
X-100242629Y-39954952D02*
X-100195010Y-39859714D01*
X-100195010Y-39859714D02*
X-100147391Y-39812095D01*
X-100147391Y-39812095D02*
X-100052153Y-39764476D01*
%TO.C,R17*%
X-73964043Y-35874819D02*
X-73630710Y-35398628D01*
X-73392615Y-35874819D02*
X-73392615Y-34874819D01*
X-73392615Y-34874819D02*
X-73773567Y-34874819D01*
X-73773567Y-34874819D02*
X-73868805Y-34922438D01*
X-73868805Y-34922438D02*
X-73916424Y-34970057D01*
X-73916424Y-34970057D02*
X-73964043Y-35065295D01*
X-73964043Y-35065295D02*
X-73964043Y-35208152D01*
X-73964043Y-35208152D02*
X-73916424Y-35303390D01*
X-73916424Y-35303390D02*
X-73868805Y-35351009D01*
X-73868805Y-35351009D02*
X-73773567Y-35398628D01*
X-73773567Y-35398628D02*
X-73392615Y-35398628D01*
X-74916424Y-35874819D02*
X-74344996Y-35874819D01*
X-74630710Y-35874819D02*
X-74630710Y-34874819D01*
X-74630710Y-34874819D02*
X-74535472Y-35017676D01*
X-74535472Y-35017676D02*
X-74440234Y-35112914D01*
X-74440234Y-35112914D02*
X-74344996Y-35160533D01*
X-75249758Y-34874819D02*
X-75916424Y-34874819D01*
X-75916424Y-34874819D02*
X-75487853Y-35874819D01*
%TO.C,R16*%
X-54509543Y-39242819D02*
X-54176210Y-38766628D01*
X-53938115Y-39242819D02*
X-53938115Y-38242819D01*
X-53938115Y-38242819D02*
X-54319067Y-38242819D01*
X-54319067Y-38242819D02*
X-54414305Y-38290438D01*
X-54414305Y-38290438D02*
X-54461924Y-38338057D01*
X-54461924Y-38338057D02*
X-54509543Y-38433295D01*
X-54509543Y-38433295D02*
X-54509543Y-38576152D01*
X-54509543Y-38576152D02*
X-54461924Y-38671390D01*
X-54461924Y-38671390D02*
X-54414305Y-38719009D01*
X-54414305Y-38719009D02*
X-54319067Y-38766628D01*
X-54319067Y-38766628D02*
X-53938115Y-38766628D01*
X-55461924Y-39242819D02*
X-54890496Y-39242819D01*
X-55176210Y-39242819D02*
X-55176210Y-38242819D01*
X-55176210Y-38242819D02*
X-55080972Y-38385676D01*
X-55080972Y-38385676D02*
X-54985734Y-38480914D01*
X-54985734Y-38480914D02*
X-54890496Y-38528533D01*
X-56319067Y-38242819D02*
X-56128591Y-38242819D01*
X-56128591Y-38242819D02*
X-56033353Y-38290438D01*
X-56033353Y-38290438D02*
X-55985734Y-38338057D01*
X-55985734Y-38338057D02*
X-55890496Y-38480914D01*
X-55890496Y-38480914D02*
X-55842877Y-38671390D01*
X-55842877Y-38671390D02*
X-55842877Y-39052342D01*
X-55842877Y-39052342D02*
X-55890496Y-39147580D01*
X-55890496Y-39147580D02*
X-55938115Y-39195200D01*
X-55938115Y-39195200D02*
X-56033353Y-39242819D01*
X-56033353Y-39242819D02*
X-56223829Y-39242819D01*
X-56223829Y-39242819D02*
X-56319067Y-39195200D01*
X-56319067Y-39195200D02*
X-56366686Y-39147580D01*
X-56366686Y-39147580D02*
X-56414305Y-39052342D01*
X-56414305Y-39052342D02*
X-56414305Y-38814247D01*
X-56414305Y-38814247D02*
X-56366686Y-38719009D01*
X-56366686Y-38719009D02*
X-56319067Y-38671390D01*
X-56319067Y-38671390D02*
X-56223829Y-38623771D01*
X-56223829Y-38623771D02*
X-56033353Y-38623771D01*
X-56033353Y-38623771D02*
X-55938115Y-38671390D01*
X-55938115Y-38671390D02*
X-55890496Y-38719009D01*
X-55890496Y-38719009D02*
X-55842877Y-38814247D01*
%TO.C,R9*%
X-36293234Y-24403819D02*
X-35959901Y-23927628D01*
X-35721806Y-24403819D02*
X-35721806Y-23403819D01*
X-35721806Y-23403819D02*
X-36102758Y-23403819D01*
X-36102758Y-23403819D02*
X-36197996Y-23451438D01*
X-36197996Y-23451438D02*
X-36245615Y-23499057D01*
X-36245615Y-23499057D02*
X-36293234Y-23594295D01*
X-36293234Y-23594295D02*
X-36293234Y-23737152D01*
X-36293234Y-23737152D02*
X-36245615Y-23832390D01*
X-36245615Y-23832390D02*
X-36197996Y-23880009D01*
X-36197996Y-23880009D02*
X-36102758Y-23927628D01*
X-36102758Y-23927628D02*
X-35721806Y-23927628D01*
X-36769425Y-24403819D02*
X-36959901Y-24403819D01*
X-36959901Y-24403819D02*
X-37055139Y-24356200D01*
X-37055139Y-24356200D02*
X-37102758Y-24308580D01*
X-37102758Y-24308580D02*
X-37197996Y-24165723D01*
X-37197996Y-24165723D02*
X-37245615Y-23975247D01*
X-37245615Y-23975247D02*
X-37245615Y-23594295D01*
X-37245615Y-23594295D02*
X-37197996Y-23499057D01*
X-37197996Y-23499057D02*
X-37150377Y-23451438D01*
X-37150377Y-23451438D02*
X-37055139Y-23403819D01*
X-37055139Y-23403819D02*
X-36864663Y-23403819D01*
X-36864663Y-23403819D02*
X-36769425Y-23451438D01*
X-36769425Y-23451438D02*
X-36721806Y-23499057D01*
X-36721806Y-23499057D02*
X-36674187Y-23594295D01*
X-36674187Y-23594295D02*
X-36674187Y-23832390D01*
X-36674187Y-23832390D02*
X-36721806Y-23927628D01*
X-36721806Y-23927628D02*
X-36769425Y-23975247D01*
X-36769425Y-23975247D02*
X-36864663Y-24022866D01*
X-36864663Y-24022866D02*
X-37055139Y-24022866D01*
X-37055139Y-24022866D02*
X-37150377Y-23975247D01*
X-37150377Y-23975247D02*
X-37197996Y-23927628D01*
X-37197996Y-23927628D02*
X-37245615Y-23832390D01*
%TO.C,R3*%
X-36340234Y-6510819D02*
X-36006901Y-6034628D01*
X-35768806Y-6510819D02*
X-35768806Y-5510819D01*
X-35768806Y-5510819D02*
X-36149758Y-5510819D01*
X-36149758Y-5510819D02*
X-36244996Y-5558438D01*
X-36244996Y-5558438D02*
X-36292615Y-5606057D01*
X-36292615Y-5606057D02*
X-36340234Y-5701295D01*
X-36340234Y-5701295D02*
X-36340234Y-5844152D01*
X-36340234Y-5844152D02*
X-36292615Y-5939390D01*
X-36292615Y-5939390D02*
X-36244996Y-5987009D01*
X-36244996Y-5987009D02*
X-36149758Y-6034628D01*
X-36149758Y-6034628D02*
X-35768806Y-6034628D01*
X-36673568Y-5510819D02*
X-37292615Y-5510819D01*
X-37292615Y-5510819D02*
X-36959282Y-5891771D01*
X-36959282Y-5891771D02*
X-37102139Y-5891771D01*
X-37102139Y-5891771D02*
X-37197377Y-5939390D01*
X-37197377Y-5939390D02*
X-37244996Y-5987009D01*
X-37244996Y-5987009D02*
X-37292615Y-6082247D01*
X-37292615Y-6082247D02*
X-37292615Y-6320342D01*
X-37292615Y-6320342D02*
X-37244996Y-6415580D01*
X-37244996Y-6415580D02*
X-37197377Y-6463200D01*
X-37197377Y-6463200D02*
X-37102139Y-6510819D01*
X-37102139Y-6510819D02*
X-36816425Y-6510819D01*
X-36816425Y-6510819D02*
X-36721187Y-6463200D01*
X-36721187Y-6463200D02*
X-36673568Y-6415580D01*
%TO.C,R13*%
X-112048853Y-21008819D02*
X-111715520Y-20532628D01*
X-111477425Y-21008819D02*
X-111477425Y-20008819D01*
X-111477425Y-20008819D02*
X-111858377Y-20008819D01*
X-111858377Y-20008819D02*
X-111953615Y-20056438D01*
X-111953615Y-20056438D02*
X-112001234Y-20104057D01*
X-112001234Y-20104057D02*
X-112048853Y-20199295D01*
X-112048853Y-20199295D02*
X-112048853Y-20342152D01*
X-112048853Y-20342152D02*
X-112001234Y-20437390D01*
X-112001234Y-20437390D02*
X-111953615Y-20485009D01*
X-111953615Y-20485009D02*
X-111858377Y-20532628D01*
X-111858377Y-20532628D02*
X-111477425Y-20532628D01*
X-113001234Y-21008819D02*
X-112429806Y-21008819D01*
X-112715520Y-21008819D02*
X-112715520Y-20008819D01*
X-112715520Y-20008819D02*
X-112620282Y-20151676D01*
X-112620282Y-20151676D02*
X-112525044Y-20246914D01*
X-112525044Y-20246914D02*
X-112429806Y-20294533D01*
X-113334568Y-20008819D02*
X-113953615Y-20008819D01*
X-113953615Y-20008819D02*
X-113620282Y-20389771D01*
X-113620282Y-20389771D02*
X-113763139Y-20389771D01*
X-113763139Y-20389771D02*
X-113858377Y-20437390D01*
X-113858377Y-20437390D02*
X-113905996Y-20485009D01*
X-113905996Y-20485009D02*
X-113953615Y-20580247D01*
X-113953615Y-20580247D02*
X-113953615Y-20818342D01*
X-113953615Y-20818342D02*
X-113905996Y-20913580D01*
X-113905996Y-20913580D02*
X-113858377Y-20961200D01*
X-113858377Y-20961200D02*
X-113763139Y-21008819D01*
X-113763139Y-21008819D02*
X-113477425Y-21008819D01*
X-113477425Y-21008819D02*
X-113382187Y-20961200D01*
X-113382187Y-20961200D02*
X-113334568Y-20913580D01*
%TO.C,SW_B0*%
X-118082400Y-12254000D02*
X-118082400Y-12754000D01*
X-118082400Y-16354000D02*
X-118082400Y-16954000D01*
X-118082400Y-16954000D02*
X-113582400Y-16954000D01*
X-113582400Y-12254000D02*
X-118082400Y-12254000D01*
X-113582400Y-12954000D02*
X-113582400Y-12254000D01*
X-113082400Y-17454000D02*
X-113082400Y-18454000D01*
X-112582400Y-18954000D02*
X-113082400Y-18454000D01*
X-109582400Y-14454000D02*
X-112082400Y-14454000D01*
X-109582400Y-18954000D02*
X-112582400Y-18954000D01*
X-109082400Y-14954000D02*
X-109582400Y-14454000D01*
X-109082400Y-18454000D02*
X-109582400Y-18954000D01*
X-113082400Y-17454000D02*
G75*
G03*
X-113582400Y-16954000I-500001J-1D01*
G01*
X-113582400Y-12954000D02*
G75*
G03*
X-112082400Y-14454000I1500001J1D01*
G01*
%TO.C,SW_B3*%
X-80082400Y-63254000D02*
X-80082400Y-63754000D01*
X-80082400Y-67354000D02*
X-80082400Y-67954000D01*
X-80082400Y-67954000D02*
X-75582400Y-67954000D01*
X-75582400Y-63254000D02*
X-80082400Y-63254000D01*
X-75582400Y-63954000D02*
X-75582400Y-63254000D01*
X-75082400Y-68454000D02*
X-75082400Y-69454000D01*
X-74582400Y-69954000D02*
X-75082400Y-69454000D01*
X-71582400Y-65454000D02*
X-74082400Y-65454000D01*
X-71582400Y-69954000D02*
X-74582400Y-69954000D01*
X-71082400Y-65954000D02*
X-71582400Y-65454000D01*
X-71082400Y-69454000D02*
X-71582400Y-69954000D01*
X-75082400Y-68454000D02*
G75*
G03*
X-75582400Y-67954000I-500001J-1D01*
G01*
X-75582400Y-63954000D02*
G75*
G03*
X-74082400Y-65454000I1500001J1D01*
G01*
%TO.C,SW_B4*%
X-99082400Y-63254000D02*
X-99082400Y-63754000D01*
X-99082400Y-67354000D02*
X-99082400Y-67954000D01*
X-99082400Y-67954000D02*
X-94582400Y-67954000D01*
X-94582400Y-63254000D02*
X-99082400Y-63254000D01*
X-94582400Y-63954000D02*
X-94582400Y-63254000D01*
X-94082400Y-68454000D02*
X-94082400Y-69454000D01*
X-93582400Y-69954000D02*
X-94082400Y-69454000D01*
X-90582400Y-65454000D02*
X-93082400Y-65454000D01*
X-90582400Y-69954000D02*
X-93582400Y-69954000D01*
X-90082400Y-65954000D02*
X-90582400Y-65454000D01*
X-90082400Y-69454000D02*
X-90582400Y-69954000D01*
X-94082400Y-68454000D02*
G75*
G03*
X-94582400Y-67954000I-500001J-1D01*
G01*
X-94582400Y-63954000D02*
G75*
G03*
X-93082400Y-65454000I1500001J1D01*
G01*
%TO.C,SW_C1*%
X-99082400Y-27254000D02*
X-99082400Y-27754000D01*
X-99082400Y-31354000D02*
X-99082400Y-31954000D01*
X-99082400Y-31954000D02*
X-94582400Y-31954000D01*
X-94582400Y-27254000D02*
X-99082400Y-27254000D01*
X-94582400Y-27954000D02*
X-94582400Y-27254000D01*
X-94082400Y-32454000D02*
X-94082400Y-33454000D01*
X-93582400Y-33954000D02*
X-94082400Y-33454000D01*
X-90582400Y-29454000D02*
X-93082400Y-29454000D01*
X-90582400Y-33954000D02*
X-93582400Y-33954000D01*
X-90082400Y-29954000D02*
X-90582400Y-29454000D01*
X-90082400Y-33454000D02*
X-90582400Y-33954000D01*
X-94082400Y-32454000D02*
G75*
G03*
X-94582400Y-31954000I-500001J-1D01*
G01*
X-94582400Y-27954000D02*
G75*
G03*
X-93082400Y-29454000I1500001J1D01*
G01*
%TO.C,SW_B1*%
X-118082400Y-30254000D02*
X-118082400Y-30754000D01*
X-118082400Y-34354000D02*
X-118082400Y-34954000D01*
X-118082400Y-34954000D02*
X-113582400Y-34954000D01*
X-113582400Y-30254000D02*
X-118082400Y-30254000D01*
X-113582400Y-30954000D02*
X-113582400Y-30254000D01*
X-113082400Y-35454000D02*
X-113082400Y-36454000D01*
X-112582400Y-36954000D02*
X-113082400Y-36454000D01*
X-109582400Y-32454000D02*
X-112082400Y-32454000D01*
X-109582400Y-36954000D02*
X-112582400Y-36954000D01*
X-109082400Y-32954000D02*
X-109582400Y-32454000D01*
X-109082400Y-36454000D02*
X-109582400Y-36954000D01*
X-113082400Y-35454000D02*
G75*
G03*
X-113582400Y-34954000I-500001J-1D01*
G01*
X-113582400Y-30954000D02*
G75*
G03*
X-112082400Y-32454000I1500001J1D01*
G01*
%TO.C,SW_F0*%
X-42349500Y-15504000D02*
X-42349500Y-16004000D01*
X-42349500Y-19604000D02*
X-42349500Y-20204000D01*
X-42349500Y-20204000D02*
X-37849500Y-20204000D01*
X-37849500Y-15504000D02*
X-42349500Y-15504000D01*
X-37849500Y-16204000D02*
X-37849500Y-15504000D01*
X-37349500Y-20704000D02*
X-37349500Y-21704000D01*
X-36849500Y-22204000D02*
X-37349500Y-21704000D01*
X-33849500Y-17704000D02*
X-36349500Y-17704000D01*
X-33849500Y-22204000D02*
X-36849500Y-22204000D01*
X-33349500Y-18204000D02*
X-33849500Y-17704000D01*
X-33349500Y-21704000D02*
X-33849500Y-22204000D01*
X-37349500Y-20704000D02*
G75*
G03*
X-37849500Y-20204000I-500001J-1D01*
G01*
X-37849500Y-16204000D02*
G75*
G03*
X-36349500Y-17704000I1500001J1D01*
G01*
%TO.C,SW_A2*%
X-137082400Y-51254000D02*
X-137082400Y-51754000D01*
X-137082400Y-55354000D02*
X-137082400Y-55954000D01*
X-137082400Y-55954000D02*
X-132582400Y-55954000D01*
X-132582400Y-51254000D02*
X-137082400Y-51254000D01*
X-132582400Y-51954000D02*
X-132582400Y-51254000D01*
X-132082400Y-56454000D02*
X-132082400Y-57454000D01*
X-131582400Y-57954000D02*
X-132082400Y-57454000D01*
X-128582400Y-53454000D02*
X-131082400Y-53454000D01*
X-128582400Y-57954000D02*
X-131582400Y-57954000D01*
X-128082400Y-53954000D02*
X-128582400Y-53454000D01*
X-128082400Y-57454000D02*
X-128582400Y-57954000D01*
X-132082400Y-56454000D02*
G75*
G03*
X-132582400Y-55954000I-500001J-1D01*
G01*
X-132582400Y-51954000D02*
G75*
G03*
X-131082400Y-53454000I1500001J1D01*
G01*
%TO.C,SW_D1*%
X-80082400Y-27254000D02*
X-80082400Y-27754000D01*
X-80082400Y-31354000D02*
X-80082400Y-31954000D01*
X-80082400Y-31954000D02*
X-75582400Y-31954000D01*
X-75582400Y-27254000D02*
X-80082400Y-27254000D01*
X-75582400Y-27954000D02*
X-75582400Y-27254000D01*
X-75082400Y-32454000D02*
X-75082400Y-33454000D01*
X-74582400Y-33954000D02*
X-75082400Y-33454000D01*
X-71582400Y-29454000D02*
X-74082400Y-29454000D01*
X-71582400Y-33954000D02*
X-74582400Y-33954000D01*
X-71082400Y-29954000D02*
X-71582400Y-29454000D01*
X-71082400Y-33454000D02*
X-71582400Y-33954000D01*
X-75082400Y-32454000D02*
G75*
G03*
X-75582400Y-31954000I-500001J-1D01*
G01*
X-75582400Y-27954000D02*
G75*
G03*
X-74082400Y-29454000I1500001J1D01*
G01*
%TO.C,SW_E2*%
X-61082400Y-48254000D02*
X-61082400Y-48754000D01*
X-61082400Y-52354000D02*
X-61082400Y-52954000D01*
X-61082400Y-52954000D02*
X-56582400Y-52954000D01*
X-56582400Y-48254000D02*
X-61082400Y-48254000D01*
X-56582400Y-48954000D02*
X-56582400Y-48254000D01*
X-56082400Y-53454000D02*
X-56082400Y-54454000D01*
X-55582400Y-54954000D02*
X-56082400Y-54454000D01*
X-52582400Y-50454000D02*
X-55082400Y-50454000D01*
X-52582400Y-54954000D02*
X-55582400Y-54954000D01*
X-52082400Y-50954000D02*
X-52582400Y-50454000D01*
X-52082400Y-54454000D02*
X-52582400Y-54954000D01*
X-56082400Y-53454000D02*
G75*
G03*
X-56582400Y-52954000I-500001J-1D01*
G01*
X-56582400Y-48954000D02*
G75*
G03*
X-55082400Y-50454000I1500001J1D01*
G01*
%TO.C,SW_D2*%
X-80082400Y-45254000D02*
X-80082400Y-45754000D01*
X-80082400Y-49354000D02*
X-80082400Y-49954000D01*
X-80082400Y-49954000D02*
X-75582400Y-49954000D01*
X-75582400Y-45254000D02*
X-80082400Y-45254000D01*
X-75582400Y-45954000D02*
X-75582400Y-45254000D01*
X-75082400Y-50454000D02*
X-75082400Y-51454000D01*
X-74582400Y-51954000D02*
X-75082400Y-51454000D01*
X-71582400Y-47454000D02*
X-74082400Y-47454000D01*
X-71582400Y-51954000D02*
X-74582400Y-51954000D01*
X-71082400Y-47954000D02*
X-71582400Y-47454000D01*
X-71082400Y-51454000D02*
X-71582400Y-51954000D01*
X-75082400Y-50454000D02*
G75*
G03*
X-75582400Y-49954000I-500001J-1D01*
G01*
X-75582400Y-45954000D02*
G75*
G03*
X-74082400Y-47454000I1500001J1D01*
G01*
%TO.C,SW_E0*%
X-61082400Y-12254000D02*
X-61082400Y-12754000D01*
X-61082400Y-16354000D02*
X-61082400Y-16954000D01*
X-61082400Y-16954000D02*
X-56582400Y-16954000D01*
X-56582400Y-12254000D02*
X-61082400Y-12254000D01*
X-56582400Y-12954000D02*
X-56582400Y-12254000D01*
X-56082400Y-17454000D02*
X-56082400Y-18454000D01*
X-55582400Y-18954000D02*
X-56082400Y-18454000D01*
X-52582400Y-14454000D02*
X-55082400Y-14454000D01*
X-52582400Y-18954000D02*
X-55582400Y-18954000D01*
X-52082400Y-14954000D02*
X-52582400Y-14454000D01*
X-52082400Y-18454000D02*
X-52582400Y-18954000D01*
X-56082400Y-17454000D02*
G75*
G03*
X-56582400Y-16954000I-500001J-1D01*
G01*
X-56582400Y-12954000D02*
G75*
G03*
X-55082400Y-14454000I1500001J1D01*
G01*
%TO.C,SW_A1*%
X-137082400Y-33254000D02*
X-137082400Y-33754000D01*
X-137082400Y-37354000D02*
X-137082400Y-37954000D01*
X-137082400Y-37954000D02*
X-132582400Y-37954000D01*
X-132582400Y-33254000D02*
X-137082400Y-33254000D01*
X-132582400Y-33954000D02*
X-132582400Y-33254000D01*
X-132082400Y-38454000D02*
X-132082400Y-39454000D01*
X-131582400Y-39954000D02*
X-132082400Y-39454000D01*
X-128582400Y-35454000D02*
X-131082400Y-35454000D01*
X-128582400Y-39954000D02*
X-131582400Y-39954000D01*
X-128082400Y-35954000D02*
X-128582400Y-35454000D01*
X-128082400Y-39454000D02*
X-128582400Y-39954000D01*
X-132082400Y-38454000D02*
G75*
G03*
X-132582400Y-37954000I-500001J-1D01*
G01*
X-132582400Y-33954000D02*
G75*
G03*
X-131082400Y-35454000I1500001J1D01*
G01*
%TO.C,SW_A0*%
X-137082400Y-15254000D02*
X-137082400Y-15754000D01*
X-137082400Y-19354000D02*
X-137082400Y-19954000D01*
X-137082400Y-19954000D02*
X-132582400Y-19954000D01*
X-132582400Y-15254000D02*
X-137082400Y-15254000D01*
X-132582400Y-15954000D02*
X-132582400Y-15254000D01*
X-132082400Y-20454000D02*
X-132082400Y-21454000D01*
X-131582400Y-21954000D02*
X-132082400Y-21454000D01*
X-128582400Y-17454000D02*
X-131082400Y-17454000D01*
X-128582400Y-21954000D02*
X-131582400Y-21954000D01*
X-128082400Y-17954000D02*
X-128582400Y-17454000D01*
X-128082400Y-21454000D02*
X-128582400Y-21954000D01*
X-132082400Y-20454000D02*
G75*
G03*
X-132582400Y-19954000I-500001J-1D01*
G01*
X-132582400Y-15954000D02*
G75*
G03*
X-131082400Y-17454000I1500001J1D01*
G01*
%TO.C,SW_F2*%
X-42349500Y-51504000D02*
X-42349500Y-52004000D01*
X-42349500Y-55604000D02*
X-42349500Y-56204000D01*
X-42349500Y-56204000D02*
X-37849500Y-56204000D01*
X-37849500Y-51504000D02*
X-42349500Y-51504000D01*
X-37849500Y-52204000D02*
X-37849500Y-51504000D01*
X-37349500Y-56704000D02*
X-37349500Y-57704000D01*
X-36849500Y-58204000D02*
X-37349500Y-57704000D01*
X-33849500Y-53704000D02*
X-36349500Y-53704000D01*
X-33849500Y-58204000D02*
X-36849500Y-58204000D01*
X-33349500Y-54204000D02*
X-33849500Y-53704000D01*
X-33349500Y-57704000D02*
X-33849500Y-58204000D01*
X-37349500Y-56704000D02*
G75*
G03*
X-37849500Y-56204000I-500001J-1D01*
G01*
X-37849500Y-52204000D02*
G75*
G03*
X-36349500Y-53704000I1500001J1D01*
G01*
%TO.C,SW_D0*%
X-80082400Y-9254000D02*
X-80082400Y-9754000D01*
X-80082400Y-13354000D02*
X-80082400Y-13954000D01*
X-80082400Y-13954000D02*
X-75582400Y-13954000D01*
X-75582400Y-9254000D02*
X-80082400Y-9254000D01*
X-75582400Y-9954000D02*
X-75582400Y-9254000D01*
X-75082400Y-14454000D02*
X-75082400Y-15454000D01*
X-74582400Y-15954000D02*
X-75082400Y-15454000D01*
X-71582400Y-11454000D02*
X-74082400Y-11454000D01*
X-71582400Y-15954000D02*
X-74582400Y-15954000D01*
X-71082400Y-11954000D02*
X-71582400Y-11454000D01*
X-71082400Y-15454000D02*
X-71582400Y-15954000D01*
X-75082400Y-14454000D02*
G75*
G03*
X-75582400Y-13954000I-500001J-1D01*
G01*
X-75582400Y-9954000D02*
G75*
G03*
X-74082400Y-11454000I1500001J1D01*
G01*
%TO.C,SW_E3*%
X-21569737Y-70634605D02*
X-21673693Y-71123678D01*
X-22422175Y-74645010D02*
X-22546922Y-75231898D01*
X-22546922Y-75231898D02*
X-18145257Y-76167501D01*
X-17168073Y-71570207D02*
X-21569737Y-70634605D01*
X-17313611Y-72254910D02*
X-17168073Y-71570207D01*
X-17760140Y-76760531D02*
X-17968051Y-77738678D01*
X-17582933Y-78331708D02*
X-17968051Y-77738678D01*
X-13712888Y-74553779D02*
X-16158257Y-74033999D01*
X-14648490Y-78955443D02*
X-17582933Y-78331708D01*
X-13327770Y-75146808D02*
X-13712888Y-74553779D01*
X-14055461Y-78570325D02*
X-14648490Y-78955443D01*
X-17760141Y-76760531D02*
G75*
G03*
X-18145257Y-76167502I-489074J103956D01*
G01*
X-17313610Y-72254910D02*
G75*
G03*
X-16158257Y-74033998I1467222J-311867D01*
G01*
%TO.C,SW_F1*%
X-42349500Y-33549000D02*
X-42349500Y-34049000D01*
X-42349500Y-37649000D02*
X-42349500Y-38249000D01*
X-42349500Y-38249000D02*
X-37849500Y-38249000D01*
X-37849500Y-33549000D02*
X-42349500Y-33549000D01*
X-37849500Y-34249000D02*
X-37849500Y-33549000D01*
X-37349500Y-38749000D02*
X-37349500Y-39749000D01*
X-36849500Y-40249000D02*
X-37349500Y-39749000D01*
X-33849500Y-35749000D02*
X-36349500Y-35749000D01*
X-33849500Y-40249000D02*
X-36849500Y-40249000D01*
X-33349500Y-36249000D02*
X-33849500Y-35749000D01*
X-33349500Y-39749000D02*
X-33849500Y-40249000D01*
X-37349500Y-38749000D02*
G75*
G03*
X-37849500Y-38249000I-500001J-1D01*
G01*
X-37849500Y-34249000D02*
G75*
G03*
X-36349500Y-35749000I1500001J1D01*
G01*
%TO.C,SW_C2*%
X-99082400Y-45254000D02*
X-99082400Y-45754000D01*
X-99082400Y-49354000D02*
X-99082400Y-49954000D01*
X-99082400Y-49954000D02*
X-94582400Y-49954000D01*
X-94582400Y-45254000D02*
X-99082400Y-45254000D01*
X-94582400Y-45954000D02*
X-94582400Y-45254000D01*
X-94082400Y-50454000D02*
X-94082400Y-51454000D01*
X-93582400Y-51954000D02*
X-94082400Y-51454000D01*
X-90582400Y-47454000D02*
X-93082400Y-47454000D01*
X-90582400Y-51954000D02*
X-93582400Y-51954000D01*
X-90082400Y-47954000D02*
X-90582400Y-47454000D01*
X-90082400Y-51454000D02*
X-90582400Y-51954000D01*
X-94082400Y-50454000D02*
G75*
G03*
X-94582400Y-49954000I-500001J-1D01*
G01*
X-94582400Y-45954000D02*
G75*
G03*
X-93082400Y-47454000I1500001J1D01*
G01*
%TO.C,SW_E1*%
X-61082400Y-30254000D02*
X-61082400Y-30754000D01*
X-61082400Y-34354000D02*
X-61082400Y-34954000D01*
X-61082400Y-34954000D02*
X-56582400Y-34954000D01*
X-56582400Y-30254000D02*
X-61082400Y-30254000D01*
X-56582400Y-30954000D02*
X-56582400Y-30254000D01*
X-56082400Y-35454000D02*
X-56082400Y-36454000D01*
X-55582400Y-36954000D02*
X-56082400Y-36454000D01*
X-52582400Y-32454000D02*
X-55082400Y-32454000D01*
X-52582400Y-36954000D02*
X-55582400Y-36954000D01*
X-52082400Y-32954000D02*
X-52582400Y-32454000D01*
X-52082400Y-36454000D02*
X-52582400Y-36954000D01*
X-56082400Y-35454000D02*
G75*
G03*
X-56582400Y-34954000I-500001J-1D01*
G01*
X-56582400Y-30954000D02*
G75*
G03*
X-55082400Y-32454000I1500001J1D01*
G01*
%TO.C,SW_C0*%
X-99082400Y-9254000D02*
X-99082400Y-9754000D01*
X-99082400Y-13354000D02*
X-99082400Y-13954000D01*
X-99082400Y-13954000D02*
X-94582400Y-13954000D01*
X-94582400Y-9254000D02*
X-99082400Y-9254000D01*
X-94582400Y-9954000D02*
X-94582400Y-9254000D01*
X-94082400Y-14454000D02*
X-94082400Y-15454000D01*
X-93582400Y-15954000D02*
X-94082400Y-15454000D01*
X-90582400Y-11454000D02*
X-93082400Y-11454000D01*
X-90582400Y-15954000D02*
X-93582400Y-15954000D01*
X-90082400Y-11954000D02*
X-90582400Y-11454000D01*
X-90082400Y-15454000D02*
X-90582400Y-15954000D01*
X-94082400Y-14454000D02*
G75*
G03*
X-94582400Y-13954000I-500001J-1D01*
G01*
X-94582400Y-9954000D02*
G75*
G03*
X-93082400Y-11454000I1500001J1D01*
G01*
%TO.C,SW_C3*%
X-61082400Y-66254000D02*
X-61082400Y-66754000D01*
X-61082400Y-70354000D02*
X-61082400Y-70954000D01*
X-61082400Y-70954000D02*
X-56582400Y-70954000D01*
X-56582400Y-66254000D02*
X-61082400Y-66254000D01*
X-56582400Y-66954000D02*
X-56582400Y-66254000D01*
X-56082400Y-71454000D02*
X-56082400Y-72454000D01*
X-55582400Y-72954000D02*
X-56082400Y-72454000D01*
X-52582400Y-68454000D02*
X-55082400Y-68454000D01*
X-52582400Y-72954000D02*
X-55582400Y-72954000D01*
X-52082400Y-68954000D02*
X-52582400Y-68454000D01*
X-52082400Y-72454000D02*
X-52582400Y-72954000D01*
X-56082400Y-71454000D02*
G75*
G03*
X-56582400Y-70954000I-500001J-1D01*
G01*
X-56582400Y-66954000D02*
G75*
G03*
X-55082400Y-68454000I1500001J1D01*
G01*
%TO.C,SW_B2*%
X-118082400Y-48254000D02*
X-118082400Y-48754000D01*
X-118082400Y-52354000D02*
X-118082400Y-52954000D01*
X-118082400Y-52954000D02*
X-113582400Y-52954000D01*
X-113582400Y-48254000D02*
X-118082400Y-48254000D01*
X-113582400Y-48954000D02*
X-113582400Y-48254000D01*
X-113082400Y-53454000D02*
X-113082400Y-54454000D01*
X-112582400Y-54954000D02*
X-113082400Y-54454000D01*
X-109582400Y-50454000D02*
X-112082400Y-50454000D01*
X-109582400Y-54954000D02*
X-112582400Y-54954000D01*
X-109082400Y-50954000D02*
X-109582400Y-50454000D01*
X-109082400Y-54454000D02*
X-109582400Y-54954000D01*
X-113082400Y-53454000D02*
G75*
G03*
X-113582400Y-52954000I-500001J-1D01*
G01*
X-113582400Y-48954000D02*
G75*
G03*
X-112082400Y-50454000I1500001J1D01*
G01*
%TO.C,SW_F3*%
X-42349500Y-69504000D02*
X-42349500Y-70004000D01*
X-42349500Y-73604000D02*
X-42349500Y-74204000D01*
X-42349500Y-74204000D02*
X-37849500Y-74204000D01*
X-37849500Y-69504000D02*
X-42349500Y-69504000D01*
X-37849500Y-70204000D02*
X-37849500Y-69504000D01*
X-37349500Y-74704000D02*
X-37349500Y-75704000D01*
X-36849500Y-76204000D02*
X-37349500Y-75704000D01*
X-33849500Y-71704000D02*
X-36349500Y-71704000D01*
X-33849500Y-76204000D02*
X-36849500Y-76204000D01*
X-33349500Y-72204000D02*
X-33849500Y-71704000D01*
X-33349500Y-75704000D02*
X-33849500Y-76204000D01*
X-37349500Y-74704000D02*
G75*
G03*
X-37849500Y-74204000I-500001J-1D01*
G01*
X-37849500Y-70204000D02*
G75*
G03*
X-36349500Y-71704000I1500001J1D01*
G01*
D11*
%TO.C,R8*%
X-130900646Y-7939000D02*
X-131354774Y-7939000D01*
X-130900646Y-6469000D02*
X-131354774Y-6469000D01*
%TO.C,D17*%
X-115874400Y-39762000D02*
X-115874400Y-43772000D01*
X-117874400Y-39762000D02*
X-115874400Y-39762000D01*
X-117874400Y-39762000D02*
X-117874400Y-43772000D01*
%TO.C,C1*%
X-13736152Y-51638000D02*
X-13213648Y-51638000D01*
X-13736152Y-53108000D02*
X-13213648Y-53108000D01*
%TO.C,D10*%
X-96824400Y-18934000D02*
X-96824400Y-22944000D01*
X-98824400Y-18934000D02*
X-96824400Y-18934000D01*
X-98824400Y-18934000D02*
X-98824400Y-22944000D01*
%TO.C,D13*%
X-40182400Y-43064000D02*
X-40182400Y-47074000D01*
X-42182400Y-43064000D02*
X-40182400Y-43064000D01*
X-42182400Y-43064000D02*
X-42182400Y-47074000D01*
%TO.C,R12*%
X-93429836Y-19939000D02*
X-93883964Y-19939000D01*
X-93429836Y-18469000D02*
X-93883964Y-18469000D01*
%TO.C,D1*%
X-40182400Y-7250000D02*
X-40182400Y-11260000D01*
X-42182400Y-7250000D02*
X-40182400Y-7250000D01*
X-42182400Y-7250000D02*
X-42182400Y-11260000D01*
%TO.C,R10*%
X-54925336Y-23173000D02*
X-55379464Y-23173000D01*
X-54925336Y-21703000D02*
X-55379464Y-21703000D01*
%TO.C,D12*%
X-135144000Y-24676500D02*
X-135144000Y-28686500D01*
X-137144000Y-24676500D02*
X-135144000Y-24676500D01*
X-137144000Y-24676500D02*
X-137144000Y-28686500D01*
%TO.C,C2*%
X-13736152Y-48167000D02*
X-13213648Y-48167000D01*
X-13736152Y-49637000D02*
X-13213648Y-49637000D01*
%TO.C,D14*%
X-58978400Y-39762000D02*
X-58978400Y-43772000D01*
X-60978400Y-39762000D02*
X-58978400Y-39762000D01*
X-60978400Y-39762000D02*
X-60978400Y-43772000D01*
%TO.C,R2*%
X-106941400Y-63559064D02*
X-106941400Y-63104936D01*
X-105471400Y-63559064D02*
X-105471400Y-63104936D01*
%TO.C,R21*%
X-13927836Y-64829000D02*
X-14381964Y-64829000D01*
X-13927836Y-63359000D02*
X-14381964Y-63359000D01*
%TO.C,D15*%
X-77012400Y-37350000D02*
X-77012400Y-41360000D01*
X-79012400Y-37350000D02*
X-77012400Y-37350000D01*
X-79012400Y-37350000D02*
X-79012400Y-41360000D01*
%TO.C,R18*%
X-93429836Y-37939000D02*
X-93883964Y-37939000D01*
X-93429836Y-36469000D02*
X-93883964Y-36469000D01*
%TO.C,R19*%
X-111596646Y-40939000D02*
X-112050774Y-40939000D01*
X-111596646Y-39469000D02*
X-112050774Y-39469000D01*
%TO.C,R14*%
X-130900646Y-25939000D02*
X-131354774Y-25939000D01*
X-130900646Y-24469000D02*
X-131354774Y-24469000D01*
%TO.C,D3*%
X-78028400Y-774000D02*
X-78028400Y-4784000D01*
X-80028400Y-774000D02*
X-78028400Y-774000D01*
X-80028400Y-774000D02*
X-80028400Y-4784000D01*
%TO.C,R24*%
X-73871836Y-55871000D02*
X-74325964Y-55871000D01*
X-73871836Y-54401000D02*
X-74325964Y-54401000D01*
%TO.C,R1*%
X-109227400Y-63559064D02*
X-109227400Y-63104936D01*
X-107757400Y-63559064D02*
X-107757400Y-63104936D01*
%TO.C,D22*%
X-58978400Y-57800000D02*
X-58978400Y-61810000D01*
X-60978400Y-57800000D02*
X-58978400Y-57800000D01*
X-60978400Y-57800000D02*
X-60978400Y-61810000D01*
%TO.C,D23*%
X-78028400Y-54748000D02*
X-78028400Y-58758000D01*
X-80028400Y-54748000D02*
X-78028400Y-54748000D01*
X-80028400Y-54748000D02*
X-80028400Y-58758000D01*
%TO.C,D11*%
X-115112400Y-21856000D02*
X-115112400Y-25866000D01*
X-117112400Y-21856000D02*
X-115112400Y-21856000D01*
X-117112400Y-21856000D02*
X-117112400Y-25866000D01*
%TO.C,D7*%
X-40182400Y-25284000D02*
X-40182400Y-29294000D01*
X-42182400Y-25284000D02*
X-40182400Y-25284000D01*
X-42182400Y-25284000D02*
X-42182400Y-29294000D01*
%TO.C,SW4*%
X-26281400Y-2244000D02*
X-25491400Y-2244000D01*
X-24481400Y-2844000D02*
X-24481400Y-8544000D01*
X-27331400Y-4094000D02*
X-27331400Y-5794000D01*
X-23191400Y-4294000D02*
X-22981400Y-4494000D01*
X-24481400Y-4294000D02*
X-23191400Y-4294000D01*
X-22981400Y-4494000D02*
X-22981400Y-5394000D01*
X-23191400Y-5594000D02*
X-22981400Y-5394000D01*
X-23191400Y-5594000D02*
X-24481400Y-5594000D01*
X-27331400Y-7094000D02*
X-27331400Y-7294000D01*
X-25491400Y-9144000D02*
X-26281400Y-9144000D01*
%TO.C,R20*%
X-130900646Y-43939000D02*
X-131354774Y-43939000D01*
X-130900646Y-42469000D02*
X-131354774Y-42469000D01*
%TO.C,D20*%
X-18173454Y-62585944D02*
X-18173454Y-66595944D01*
X-20173454Y-62585944D02*
X-18173454Y-62585944D01*
X-20173454Y-62585944D02*
X-20173454Y-66595944D01*
%TO.C,R6*%
X-92667836Y-2091000D02*
X-93121964Y-2091000D01*
X-92667836Y-621000D02*
X-93121964Y-621000D01*
%TO.C,D29*%
X-97078400Y-54748000D02*
X-97078400Y-58758000D01*
X-99078400Y-54748000D02*
X-97078400Y-54748000D01*
X-99078400Y-54748000D02*
X-99078400Y-58758000D01*
%TO.C,D4*%
X-96824400Y-900000D02*
X-96824400Y-4910000D01*
X-98824400Y-900000D02*
X-96824400Y-900000D01*
X-98824400Y-900000D02*
X-98824400Y-4910000D01*
%TO.C,R4*%
X-54925336Y-5139000D02*
X-55379464Y-5139000D01*
X-54925336Y-3669000D02*
X-55379464Y-3669000D01*
%TO.C,RESET1*%
X-21126400Y-11412000D02*
X-21126400Y-17812000D01*
X-22326400Y-11412000D02*
X-21126400Y-11412000D01*
X-25126400Y-11412000D02*
X-23926400Y-11412000D01*
X-21126400Y-17812000D02*
X-22326400Y-17812000D01*
X-23926400Y-17812000D02*
X-25126400Y-17812000D01*
X-25126400Y-17812000D02*
X-25126400Y-11412000D01*
%TO.C,D2*%
X-58978400Y-3948000D02*
X-58978400Y-7958000D01*
X-60978400Y-3948000D02*
X-58978400Y-3948000D01*
X-60978400Y-3948000D02*
X-60978400Y-7958000D01*
%TO.C,D8*%
X-58978400Y-21728000D02*
X-58978400Y-25738000D01*
X-60978400Y-21728000D02*
X-58978400Y-21728000D01*
X-60978400Y-21728000D02*
X-60978400Y-25738000D01*
%TO.C,R11*%
X-73871836Y-19871000D02*
X-74325964Y-19871000D01*
X-73871836Y-18401000D02*
X-74325964Y-18401000D01*
%TO.C,D18*%
X-135144000Y-42676500D02*
X-135144000Y-46686500D01*
X-137144000Y-42676500D02*
X-135144000Y-42676500D01*
X-137144000Y-42676500D02*
X-137144000Y-46686500D01*
%TO.C,R15*%
X-36129336Y-44289000D02*
X-36583464Y-44289000D01*
X-36129336Y-42819000D02*
X-36583464Y-42819000D01*
%TO.C,R22*%
X-36129336Y-62289000D02*
X-36583464Y-62289000D01*
X-36129336Y-60819000D02*
X-36583464Y-60819000D01*
%TO.C,D5*%
X-115874400Y-3948000D02*
X-115874400Y-7958000D01*
X-117874400Y-3948000D02*
X-115874400Y-3948000D01*
X-117874400Y-3948000D02*
X-117874400Y-7958000D01*
%TO.C,R7*%
X-111596646Y-4939000D02*
X-112050774Y-4939000D01*
X-111596646Y-3469000D02*
X-112050774Y-3469000D01*
%TO.C,D6*%
X-135144000Y-6676500D02*
X-135144000Y-10686500D01*
X-137144000Y-6676500D02*
X-135144000Y-6676500D01*
X-137144000Y-6676500D02*
X-137144000Y-10686500D01*
%TO.C,D9*%
X-78028400Y-18934000D02*
X-78028400Y-22944000D01*
X-80028400Y-18934000D02*
X-78028400Y-18934000D01*
X-80028400Y-18934000D02*
X-80028400Y-22944000D01*
%TO.C,R25*%
X-93549836Y-55939000D02*
X-94003964Y-55939000D01*
X-93549836Y-54469000D02*
X-94003964Y-54469000D01*
%TO.C,D19*%
X-15857400Y-55014000D02*
X-11847400Y-55014000D01*
X-15857400Y-57014000D02*
X-15857400Y-55014000D01*
X-15857400Y-57014000D02*
X-11847400Y-57014000D01*
%TO.C,Q1*%
X-108782400Y-59189500D02*
X-108782400Y-59839500D01*
X-108782400Y-59189500D02*
X-108782400Y-58539500D01*
X-105662400Y-59189500D02*
X-105662400Y-60864500D01*
X-105662400Y-59189500D02*
X-105662400Y-58539500D01*
%TO.C,R23*%
X-54925336Y-59423000D02*
X-55379464Y-59423000D01*
X-54925336Y-57953000D02*
X-55379464Y-57953000D01*
%TO.C,D21*%
X-40182400Y-61098000D02*
X-40182400Y-65108000D01*
X-42182400Y-61098000D02*
X-40182400Y-61098000D01*
X-42182400Y-61098000D02*
X-42182400Y-65108000D01*
%TO.C,R5*%
X-73871836Y-2091000D02*
X-74325964Y-2091000D01*
X-73871836Y-621000D02*
X-74325964Y-621000D01*
%TO.C,D16*%
X-97078400Y-36714000D02*
X-97078400Y-40724000D01*
X-99078400Y-36714000D02*
X-97078400Y-36714000D01*
X-99078400Y-36714000D02*
X-99078400Y-40724000D01*
%TO.C,R17*%
X-74379836Y-37805000D02*
X-74833964Y-37805000D01*
X-74379836Y-36335000D02*
X-74833964Y-36335000D01*
%TO.C,R16*%
X-54925336Y-41173000D02*
X-55379464Y-41173000D01*
X-54925336Y-39703000D02*
X-55379464Y-39703000D01*
%TO.C,R9*%
X-36232836Y-26334000D02*
X-36686964Y-26334000D01*
X-36232836Y-24864000D02*
X-36686964Y-24864000D01*
%TO.C,R3*%
X-36279836Y-8441000D02*
X-36733964Y-8441000D01*
X-36279836Y-6971000D02*
X-36733964Y-6971000D01*
%TO.C,R13*%
X-112464646Y-22939000D02*
X-112918774Y-22939000D01*
X-112464646Y-21469000D02*
X-112918774Y-21469000D01*
%TD*%
%LPC*%
D12*
%TO.C,SW_B0*%
X-116582400Y-10754000D03*
D13*
X-116082400Y-14504000D03*
D14*
X-111082400Y-10754000D03*
D13*
X-111082400Y-16704000D03*
D15*
X-105862400Y-6554000D03*
D12*
X-105582400Y-10754000D03*
D16*
X-107807400Y-16704000D03*
X-119357400Y-14504000D03*
%TD*%
D12*
%TO.C,SW_B3*%
X-78582400Y-61754000D03*
D13*
X-78082400Y-65504000D03*
D14*
X-73082400Y-61754000D03*
D13*
X-73082400Y-67704000D03*
D15*
X-67862400Y-57554000D03*
D12*
X-67582400Y-61754000D03*
D16*
X-69807400Y-67704000D03*
X-81357400Y-65504000D03*
%TD*%
D17*
%TO.C,H3*%
X-25364400Y-23066000D03*
%TD*%
D12*
%TO.C,SW_B4*%
X-97582400Y-61754000D03*
D13*
X-97082400Y-65504000D03*
D14*
X-92082400Y-61754000D03*
D13*
X-92082400Y-67704000D03*
D15*
X-86862400Y-57554000D03*
D12*
X-86582400Y-61754000D03*
D16*
X-88807400Y-67704000D03*
X-100357400Y-65504000D03*
%TD*%
D12*
%TO.C,SW_C1*%
X-97582400Y-25754000D03*
D13*
X-97082400Y-29504000D03*
D14*
X-92082400Y-25754000D03*
D13*
X-92082400Y-31704000D03*
D15*
X-86862400Y-21554000D03*
D12*
X-86582400Y-25754000D03*
D16*
X-88807400Y-31704000D03*
X-100357400Y-29504000D03*
%TD*%
D12*
%TO.C,SW_B1*%
X-116582400Y-28754000D03*
D13*
X-116082400Y-32504000D03*
D14*
X-111082400Y-28754000D03*
D13*
X-111082400Y-34704000D03*
D15*
X-105862400Y-24554000D03*
D12*
X-105582400Y-28754000D03*
D16*
X-107807400Y-34704000D03*
X-119357400Y-32504000D03*
%TD*%
D18*
%TO.C,Nice!View1*%
X-5648000Y-38314000D03*
D19*
X-8188000Y-38314000D03*
X-10728000Y-38314000D03*
X-13268000Y-38314000D03*
X-15808000Y-38314000D03*
%TD*%
D17*
%TO.C,H4*%
X-26012400Y-59004000D03*
%TD*%
D12*
%TO.C,SW_F0*%
X-40849500Y-14004000D03*
D13*
X-40349500Y-17754000D03*
D14*
X-35349500Y-14004000D03*
D13*
X-35349500Y-19954000D03*
D15*
X-30129500Y-9804000D03*
D12*
X-29849500Y-14004000D03*
D16*
X-32074500Y-19954000D03*
X-43624500Y-17754000D03*
%TD*%
D20*
%TO.C,RE_1*%
X-4998000Y-44914000D03*
D21*
X-4998000Y-55024000D03*
X-4998000Y-52484000D03*
X-4998000Y-49944000D03*
X-4998000Y-47404000D03*
X-3773000Y-57414000D03*
X-5623000Y-57414000D03*
%TD*%
D17*
%TO.C,H1*%
X-121302400Y-22822000D03*
%TD*%
D12*
%TO.C,SW_A2*%
X-135582400Y-49754000D03*
D13*
X-135082400Y-53504000D03*
D14*
X-130082400Y-49754000D03*
D13*
X-130082400Y-55704000D03*
D15*
X-124862400Y-45554000D03*
D12*
X-124582400Y-49754000D03*
D16*
X-126807400Y-55704000D03*
X-138357400Y-53504000D03*
%TD*%
D12*
%TO.C,SW_D1*%
X-78582400Y-25754000D03*
D13*
X-78082400Y-29504000D03*
D14*
X-73082400Y-25754000D03*
D13*
X-73082400Y-31704000D03*
D15*
X-67862400Y-21554000D03*
D12*
X-67582400Y-25754000D03*
D16*
X-69807400Y-31704000D03*
X-81357400Y-29504000D03*
%TD*%
D12*
%TO.C,SW_E2*%
X-59582400Y-46754000D03*
D13*
X-59082400Y-50504000D03*
D14*
X-54082400Y-46754000D03*
D13*
X-54082400Y-52704000D03*
D15*
X-48862400Y-42554000D03*
D12*
X-48582400Y-46754000D03*
D16*
X-50807400Y-52704000D03*
X-62357400Y-50504000D03*
%TD*%
D12*
%TO.C,SW_D2*%
X-78582400Y-43754000D03*
D13*
X-78082400Y-47504000D03*
D14*
X-73082400Y-43754000D03*
D13*
X-73082400Y-49704000D03*
D15*
X-67862400Y-39554000D03*
D12*
X-67582400Y-43754000D03*
D16*
X-69807400Y-49704000D03*
X-81357400Y-47504000D03*
%TD*%
D12*
%TO.C,SW_E0*%
X-59582400Y-10754000D03*
D13*
X-59082400Y-14504000D03*
D14*
X-54082400Y-10754000D03*
D13*
X-54082400Y-16704000D03*
D15*
X-48862400Y-6554000D03*
D12*
X-48582400Y-10754000D03*
D16*
X-50807400Y-16704000D03*
X-62357400Y-14504000D03*
%TD*%
D22*
%TO.C,NICE_NANO1*%
X-18348000Y-5204000D03*
D23*
X-18348000Y-7744000D03*
X-18348000Y-10284000D03*
X-18348000Y-12824000D03*
X-18348000Y-15364000D03*
X-18348000Y-17904000D03*
X-18348000Y-20444000D03*
X-18348000Y-22984000D03*
X-18348000Y-25524000D03*
X-18348000Y-28064000D03*
X-18348000Y-30604000D03*
X-18348000Y-33144000D03*
X-3108000Y-33144000D03*
X-3108000Y-30604000D03*
X-3108000Y-28064000D03*
X-3108000Y-25524000D03*
X-3108000Y-22984000D03*
X-3108000Y-20444000D03*
X-3108000Y-17904000D03*
X-3108000Y-15364000D03*
X-3108000Y-12824000D03*
X-3108000Y-10284000D03*
X-3108000Y-7744000D03*
X-3108000Y-5204000D03*
%TD*%
D17*
%TO.C,H5*%
X-82210400Y-34750000D03*
%TD*%
D12*
%TO.C,SW_A1*%
X-135582400Y-31754000D03*
D13*
X-135082400Y-35504000D03*
D14*
X-130082400Y-31754000D03*
D13*
X-130082400Y-37704000D03*
D15*
X-124862400Y-27554000D03*
D12*
X-124582400Y-31754000D03*
D16*
X-126807400Y-37704000D03*
X-138357400Y-35504000D03*
%TD*%
D12*
%TO.C,SW_A0*%
X-135582400Y-13754000D03*
D13*
X-135082400Y-17504000D03*
D14*
X-130082400Y-13754000D03*
D13*
X-130082400Y-19704000D03*
D15*
X-124862400Y-9554000D03*
D12*
X-124582400Y-13754000D03*
D16*
X-126807400Y-19704000D03*
X-138357400Y-17504000D03*
%TD*%
D12*
%TO.C,SW_F2*%
X-40849500Y-50004000D03*
D13*
X-40349500Y-53754000D03*
D14*
X-35349500Y-50004000D03*
D13*
X-35349500Y-55954000D03*
D15*
X-30129500Y-45804000D03*
D12*
X-29849500Y-50004000D03*
D16*
X-32074500Y-55954000D03*
X-43624500Y-53754000D03*
%TD*%
D12*
%TO.C,SW_D0*%
X-78582400Y-7754000D03*
D13*
X-78082400Y-11504000D03*
D14*
X-73082400Y-7754000D03*
D13*
X-73082400Y-13704000D03*
D15*
X-67862400Y-3554000D03*
D12*
X-67582400Y-7754000D03*
D16*
X-69807400Y-13704000D03*
X-81357400Y-11504000D03*
%TD*%
D12*
%TO.C,SW_E3*%
X-19790648Y-69479251D03*
D13*
X-20081243Y-73251260D03*
D14*
X-14410836Y-70622765D03*
D13*
X-15647911Y-76442743D03*
D15*
X-8431676Y-67599844D03*
D12*
X-9031024Y-71766279D03*
D24*
X-12444477Y-77123654D03*
X-23284676Y-72570349D03*
%TD*%
D12*
%TO.C,SW_F1*%
X-40849500Y-32049000D03*
D13*
X-40349500Y-35799000D03*
D14*
X-35349500Y-32049000D03*
D13*
X-35349500Y-37999000D03*
D15*
X-30129500Y-27849000D03*
D12*
X-29849500Y-32049000D03*
D16*
X-32074500Y-37999000D03*
X-43624500Y-35799000D03*
%TD*%
D12*
%TO.C,SW_C2*%
X-97582400Y-43754000D03*
D13*
X-97082400Y-47504000D03*
D14*
X-92082400Y-43754000D03*
D13*
X-92082400Y-49704000D03*
D15*
X-86862400Y-39554000D03*
D12*
X-86582400Y-43754000D03*
D16*
X-88807400Y-49704000D03*
X-100357400Y-47504000D03*
%TD*%
D25*
%TO.C,BATT1*%
X-26592197Y-12580000D03*
D26*
X-26592197Y-14580000D03*
%TD*%
D12*
%TO.C,SW_E1*%
X-59582400Y-28754000D03*
D13*
X-59082400Y-32504000D03*
D14*
X-54082400Y-28754000D03*
D13*
X-54082400Y-34704000D03*
D15*
X-48862400Y-24554000D03*
D12*
X-48582400Y-28754000D03*
D16*
X-50807400Y-34704000D03*
X-62357400Y-32504000D03*
%TD*%
D12*
%TO.C,SW_C0*%
X-97582400Y-7754000D03*
D13*
X-97082400Y-11504000D03*
D14*
X-92082400Y-7754000D03*
D13*
X-92082400Y-13704000D03*
D15*
X-86862400Y-3554000D03*
D12*
X-86582400Y-7754000D03*
D16*
X-88807400Y-13704000D03*
X-100357400Y-11504000D03*
%TD*%
D17*
%TO.C,H2*%
X-120052400Y-59014000D03*
%TD*%
D12*
%TO.C,SW_C3*%
X-59582400Y-64754000D03*
D13*
X-59082400Y-68504000D03*
D14*
X-54082400Y-64754000D03*
D13*
X-54082400Y-70704000D03*
D15*
X-48862400Y-60554000D03*
D12*
X-48582400Y-64754000D03*
D16*
X-50807400Y-70704000D03*
X-62357400Y-68504000D03*
%TD*%
D12*
%TO.C,SW_B2*%
X-116582400Y-46754000D03*
D13*
X-116082400Y-50504000D03*
D14*
X-111082400Y-46754000D03*
D13*
X-111082400Y-52704000D03*
D15*
X-105862400Y-42554000D03*
D12*
X-105582400Y-46754000D03*
D16*
X-107807400Y-52704000D03*
X-119357400Y-50504000D03*
%TD*%
D12*
%TO.C,SW_F3*%
X-40849500Y-68004000D03*
D13*
X-40349500Y-71754000D03*
D14*
X-35349500Y-68004000D03*
D13*
X-35349500Y-73954000D03*
D15*
X-30129500Y-63804000D03*
D12*
X-29849500Y-68004000D03*
D16*
X-32074500Y-73954000D03*
X-43624500Y-71754000D03*
%TD*%
D27*
%TO.C,R8*%
X-130215210Y-7204000D03*
X-132040210Y-7204000D03*
%TD*%
D28*
%TO.C,D17*%
X-116874400Y-40472000D03*
X-116874400Y-43772000D03*
%TD*%
D29*
%TO.C,C1*%
X-14512400Y-52373000D03*
X-12437400Y-52373000D03*
%TD*%
D28*
%TO.C,D10*%
X-97824400Y-19644000D03*
X-97824400Y-22944000D03*
%TD*%
%TO.C,D13*%
X-41182400Y-43774000D03*
X-41182400Y-47074000D03*
%TD*%
D27*
%TO.C,R12*%
X-92744400Y-19204000D03*
X-94569400Y-19204000D03*
%TD*%
D28*
%TO.C,D1*%
X-41182400Y-7960000D03*
X-41182400Y-11260000D03*
%TD*%
D27*
%TO.C,R10*%
X-54239900Y-22438000D03*
X-56064900Y-22438000D03*
%TD*%
D28*
%TO.C,D12*%
X-136144000Y-25386500D03*
X-136144000Y-28686500D03*
%TD*%
D29*
%TO.C,C2*%
X-14512400Y-48902000D03*
X-12437400Y-48902000D03*
%TD*%
D28*
%TO.C,D14*%
X-59978400Y-40472000D03*
X-59978400Y-43772000D03*
%TD*%
D30*
%TO.C,R2*%
X-106206400Y-64244500D03*
X-106206400Y-62419500D03*
%TD*%
D27*
%TO.C,R21*%
X-13242400Y-64094000D03*
X-15067400Y-64094000D03*
%TD*%
D28*
%TO.C,D15*%
X-78012400Y-38060000D03*
X-78012400Y-41360000D03*
%TD*%
D27*
%TO.C,R18*%
X-92744400Y-37204000D03*
X-94569400Y-37204000D03*
%TD*%
%TO.C,R19*%
X-110911210Y-40204000D03*
X-112736210Y-40204000D03*
%TD*%
%TO.C,R14*%
X-130215210Y-25204000D03*
X-132040210Y-25204000D03*
%TD*%
D28*
%TO.C,D3*%
X-79028400Y-1484000D03*
X-79028400Y-4784000D03*
%TD*%
D27*
%TO.C,R24*%
X-73186400Y-55136000D03*
X-75011400Y-55136000D03*
%TD*%
D30*
%TO.C,R1*%
X-108492400Y-64244500D03*
X-108492400Y-62419500D03*
%TD*%
D28*
%TO.C,D22*%
X-59978400Y-58510000D03*
X-59978400Y-61810000D03*
%TD*%
%TO.C,D23*%
X-79028400Y-55458000D03*
X-79028400Y-58758000D03*
%TD*%
%TO.C,D11*%
X-116112400Y-22566000D03*
X-116112400Y-25866000D03*
%TD*%
%TO.C,D7*%
X-41182400Y-25994000D03*
X-41182400Y-29294000D03*
%TD*%
D31*
%TO.C,SW4*%
X-24781400Y-2044000D03*
X-26991400Y-2044000D03*
D32*
X-25881400Y-4194000D03*
X-25881400Y-7194000D03*
D31*
X-24781400Y-9344000D03*
X-26991400Y-9344000D03*
D33*
X-27641400Y-3444000D03*
X-27641400Y-6444000D03*
X-27641400Y-7944000D03*
%TD*%
D27*
%TO.C,R20*%
X-130215210Y-43204000D03*
X-132040210Y-43204000D03*
%TD*%
D28*
%TO.C,D20*%
X-19173454Y-63295944D03*
X-19173454Y-66595944D03*
%TD*%
D27*
%TO.C,R6*%
X-91982400Y-1356000D03*
X-93807400Y-1356000D03*
%TD*%
D28*
%TO.C,D29*%
X-98078400Y-55458000D03*
X-98078400Y-58758000D03*
%TD*%
%TO.C,D4*%
X-97824400Y-1610000D03*
X-97824400Y-4910000D03*
%TD*%
D27*
%TO.C,R4*%
X-54239900Y-4404000D03*
X-56064900Y-4404000D03*
%TD*%
D34*
%TO.C,RESET1*%
X-23126400Y-10737000D03*
X-23126400Y-18487000D03*
%TD*%
D28*
%TO.C,D2*%
X-59978400Y-4658000D03*
X-59978400Y-7958000D03*
%TD*%
%TO.C,D8*%
X-59978400Y-22438000D03*
X-59978400Y-25738000D03*
%TD*%
D27*
%TO.C,R11*%
X-73186400Y-19136000D03*
X-75011400Y-19136000D03*
%TD*%
D28*
%TO.C,D18*%
X-136144000Y-43386500D03*
X-136144000Y-46686500D03*
%TD*%
D27*
%TO.C,R15*%
X-35443900Y-43554000D03*
X-37268900Y-43554000D03*
%TD*%
%TO.C,R22*%
X-35443900Y-61554000D03*
X-37268900Y-61554000D03*
%TD*%
D28*
%TO.C,D5*%
X-116874400Y-4658000D03*
X-116874400Y-7958000D03*
%TD*%
D27*
%TO.C,R7*%
X-110911210Y-4204000D03*
X-112736210Y-4204000D03*
%TD*%
D28*
%TO.C,D6*%
X-136144000Y-7386500D03*
X-136144000Y-10686500D03*
%TD*%
%TO.C,D9*%
X-79028400Y-19644000D03*
X-79028400Y-22944000D03*
%TD*%
D27*
%TO.C,R25*%
X-92864400Y-55204000D03*
X-94689400Y-55204000D03*
%TD*%
D35*
%TO.C,D19*%
X-15147400Y-56014000D03*
X-11847400Y-56014000D03*
%TD*%
D36*
%TO.C,Q1*%
X-106272400Y-60127000D03*
X-108172400Y-60127000D03*
X-107222400Y-58252000D03*
%TD*%
D27*
%TO.C,R23*%
X-54239900Y-58688000D03*
X-56064900Y-58688000D03*
%TD*%
D28*
%TO.C,D21*%
X-41182400Y-61808000D03*
X-41182400Y-65108000D03*
%TD*%
D27*
%TO.C,R5*%
X-73186400Y-1356000D03*
X-75011400Y-1356000D03*
%TD*%
D28*
%TO.C,D16*%
X-98078400Y-37424000D03*
X-98078400Y-40724000D03*
%TD*%
D27*
%TO.C,R17*%
X-73694400Y-37070000D03*
X-75519400Y-37070000D03*
%TD*%
%TO.C,R16*%
X-54239900Y-40438000D03*
X-56064900Y-40438000D03*
%TD*%
%TO.C,R9*%
X-35547400Y-25599000D03*
X-37372400Y-25599000D03*
%TD*%
%TO.C,R3*%
X-35594400Y-7706000D03*
X-37419400Y-7706000D03*
%TD*%
%TO.C,R13*%
X-111779210Y-22204000D03*
X-113604210Y-22204000D03*
%TD*%
%LPD*%
M02*
