M48
; DRILL file {KiCad 7.0.5-0} date 2023 October 18, Wednesday 13:26:08
; FORMAT={-:-/ absolute / inch / decimal}
; #@! TF.CreationDate,2023-10-18T13:26:08+10:30
; #@! TF.GenerationSoftware,Kicad,Pcbnew,7.0.5-0
; #@! TF.FileFunction,NonPlated,1,2,NPTH
FMAT,2
INCH
; #@! TA.AperFunction,NonPlated,NPTH,ComponentDrill
T1C0.0354
; #@! TA.AperFunction,NonPlated,NPTH,ComponentDrill
T2C0.0390
; #@! TA.AperFunction,NonPlated,NPTH,ComponentDrill
T3C0.0591
; #@! TA.AperFunction,NonPlated,NPTH,ComponentDrill
T4C0.0670
; #@! TA.AperFunction,NonPlated,NPTH,ComponentDrill
T5C0.1181
; #@! TA.AperFunction,NonPlated,NPTH,ComponentDrill
T6C0.1350
; #@! TA.AperFunction,NonPlated,NPTH,ComponentDrill
T7C0.1693
%
G90
G05
T1
X-1.019Y-0.1651
X-1.019Y-0.2832
T2
X-4.9158Y-0.3761
X-4.9158Y-1.0848
X-4.9158Y-1.7935
X-4.1678Y-0.258
X-4.1678Y-0.9667
X-4.1678Y-1.6754
X-3.4198Y-0.1399
X-3.4198Y-0.8486
X-3.4198Y-1.5572
X-3.4198Y-2.2659
X-2.6717Y-0.1399
X-2.6717Y-0.8486
X-2.6717Y-1.5572
X-2.6717Y-2.2659
X-1.9237Y-0.258
X-1.9237Y-0.9667
X-1.9237Y-1.6754
X-1.9237Y-2.384
X-1.1862Y-0.386
X-1.1862Y-1.0964
X-1.1862Y-1.8033
X-1.1862Y-2.512
X-0.332Y-2.6614
T3
X-0.1968Y-1.7683
T4
X-5.3379Y-0.5415
X-5.3379Y-1.2502
X-5.3379Y-1.9588
X-4.9048Y-0.5415
X-4.9048Y-1.2502
X-4.9048Y-1.9588
X-4.5899Y-0.4234
X-4.5899Y-1.132
X-4.5899Y-1.8407
X-4.1568Y-0.4234
X-4.1568Y-1.132
X-4.1568Y-1.8407
X-3.8418Y-0.3053
X-3.8418Y-1.0139
X-3.8418Y-1.7226
X-3.8418Y-2.4313
X-3.4088Y-0.3053
X-3.4088Y-1.0139
X-3.4088Y-1.7226
X-3.4088Y-2.4313
X-3.0938Y-0.3053
X-3.0938Y-1.0139
X-3.0938Y-1.7226
X-3.0938Y-2.4313
X-2.6607Y-0.3053
X-2.6607Y-1.0139
X-2.6607Y-1.7226
X-2.6607Y-2.4313
X-2.3458Y-0.4234
X-2.3458Y-1.132
X-2.3458Y-1.8407
X-2.3458Y-2.5494
X-1.9127Y-0.4234
X-1.9127Y-1.132
X-1.9127Y-1.8407
X-1.9127Y-2.5494
X-1.6082Y-0.5513
X-1.6082Y-1.2618
X-1.6082Y-1.9687
X-1.6082Y-2.6773
X-1.1752Y-0.5513
X-1.1752Y-1.2618
X-1.1752Y-1.9687
X-1.1752Y-2.6773
X-0.7792Y-2.7354
X-0.3556Y-2.8254
T5
X-5.3182Y-0.6891
X-5.3182Y-1.3978
X-5.3182Y-2.1065
X-5.1214Y-0.7757
X-5.1214Y-1.4844
X-5.1214Y-2.1931
X-4.5702Y-0.571
X-4.5702Y-1.2797
X-4.5702Y-1.9883
X-4.3733Y-0.6576
X-4.3733Y-1.3663
X-4.3733Y-2.075
X-3.8221Y-0.4529
X-3.8221Y-1.1616
X-3.8221Y-1.8702
X-3.8221Y-2.5789
X-3.6253Y-0.5395
X-3.6253Y-1.2482
X-3.6253Y-1.9569
X-3.6253Y-2.6655
X-3.0741Y-0.4529
X-3.0741Y-1.1616
X-3.0741Y-1.8702
X-3.0741Y-2.5789
X-2.8773Y-0.5395
X-2.8773Y-1.2482
X-2.8773Y-1.9569
X-2.8773Y-2.6655
X-2.3261Y-0.571
X-2.3261Y-1.2797
X-2.3261Y-1.9883
X-2.3261Y-2.697
X-2.1292Y-0.6576
X-2.1292Y-1.3663
X-2.1292Y-2.075
X-2.1292Y-2.7836
X-1.5886Y-0.699
X-1.5886Y-1.4094
X-1.5886Y-2.1163
X-1.5886Y-2.825
X-1.3917Y-0.7856
X-1.3917Y-1.496
X-1.3917Y-2.2029
X-1.3917Y-2.9116
X-0.7906Y-2.8839
X-0.6161Y-3.0096
T6
X-5.1214Y-0.5415
X-5.1214Y-1.2502
X-5.1214Y-1.9588
X-4.3733Y-0.4234
X-4.3733Y-1.132
X-4.3733Y-1.8407
X-3.6253Y-0.3053
X-3.6253Y-1.0139
X-3.6253Y-1.7226
X-3.6253Y-2.4313
X-2.8773Y-0.3053
X-2.8773Y-1.0139
X-2.8773Y-1.7226
X-2.8773Y-2.4313
X-2.1292Y-0.4234
X-2.1292Y-1.132
X-2.1292Y-1.8407
X-2.1292Y-2.5494
X-1.3917Y-0.5513
X-1.3917Y-1.2618
X-1.3917Y-1.9687
X-1.3917Y-2.6773
X-0.5674Y-2.7804
T7
X-4.7757Y-0.8985
X-4.7265Y-2.3234
X-3.2366Y-1.3681
X-1.0241Y-2.323
X-0.9986Y-0.9081
T0
M30
