%TF.GenerationSoftware,KiCad,Pcbnew,7.0.5-0*%
%TF.CreationDate,2023-08-04T20:22:26+09:30*%
%TF.ProjectId,Rolio,436f726e-6552-46f6-9c69-6f2e6b696361,rev?*%
%TF.SameCoordinates,Original*%
%TF.FileFunction,Drillmap*%
%TF.FilePolarity,Positive*%
%FSLAX45Y45*%
G04 Gerber Fmt 4.5, Leading zero omitted, Abs format (unit mm)*
G04 Created by KiCad (PCBNEW 7.0.5-0) date 2023-08-04 20:22:26*
%MOMM*%
%LPD*%
G01*
G04 APERTURE LIST*
%ADD10C,0.100000*%
%ADD11C,0.200000*%
%ADD12C,0.090000*%
%ADD13C,0.099060*%
%ADD14C,0.150000*%
%ADD15C,0.170180*%
%ADD16C,0.300000*%
%ADD17C,0.342900*%
%ADD18C,0.430000*%
G04 APERTURE END LIST*
D10*
X18570350Y-9241800D02*
X16708614Y-9241800D01*
X11012818Y-3489732D02*
X11091082Y-3411468D01*
X18870350Y-3877600D02*
G75*
G03*
X18570350Y-3577600I-300000J0D01*
G01*
X11391082Y-10828268D02*
X10830218Y-11389132D01*
X15168820Y-3411466D02*
G75*
G03*
X14956686Y-3323600I-212130J-212134D01*
G01*
X15168818Y-3411468D02*
X15247082Y-3489732D01*
X10618086Y-11477000D02*
X7437614Y-11477000D01*
X17193950Y-9470400D02*
X17193950Y-9470400D01*
X11303214Y-3323603D02*
G75*
G03*
X11091082Y-3411468I-4J-299997D01*
G01*
X7225482Y-11564868D02*
X7121818Y-11668532D01*
X10800686Y-3577598D02*
G75*
G03*
X11012818Y-3489732I-6J300018D01*
G01*
X5174950Y-3577600D02*
G75*
G03*
X4874950Y-3877600I0J-300000D01*
G01*
X10618086Y-11476997D02*
G75*
G03*
X10830218Y-11389132I4J299997D01*
G01*
X11303214Y-3323600D02*
X14956686Y-3323600D01*
X5179748Y-10229664D02*
G75*
G03*
X5091882Y-10017532I-300018J-6D01*
G01*
X5179750Y-11456400D02*
G75*
G03*
X5479750Y-11756400I300000J0D01*
G01*
X16708614Y-9241802D02*
G75*
G03*
X16496482Y-9329668I6J-300018D01*
G01*
X18870350Y-3877600D02*
X18870350Y-8941800D01*
X4874950Y-9676336D02*
X4874950Y-3877600D01*
X11603214Y-10740402D02*
G75*
G03*
X11391082Y-10828268I6J-300018D01*
G01*
X6909686Y-11756397D02*
G75*
G03*
X7121818Y-11668532I4J299997D01*
G01*
X5462250Y-3905500D02*
X6732250Y-3905500D01*
X6732250Y-7096500D01*
X5462250Y-7096500D01*
X5462250Y-3905500D01*
X5174950Y-3577600D02*
X10800686Y-3577600D01*
X5179750Y-11456400D02*
X5179750Y-10229664D01*
X16496482Y-9329668D02*
X15173618Y-10652532D01*
X18570350Y-9241800D02*
G75*
G03*
X18870350Y-8941800I0J300000D01*
G01*
X15247080Y-3489734D02*
G75*
G03*
X15459214Y-3577600I212130J212134D01*
G01*
X14961486Y-10740397D02*
G75*
G03*
X15173618Y-10652532I4J299997D01*
G01*
X4874953Y-9676336D02*
G75*
G03*
X4962818Y-9888468I299997J-4D01*
G01*
X5091882Y-10017532D02*
X4962818Y-9888468D01*
X15459214Y-3577600D02*
X18570350Y-3577600D01*
X6909686Y-11756400D02*
X5479750Y-11756400D01*
X7437614Y-11477002D02*
G75*
G03*
X7225482Y-11564868I6J-300018D01*
G01*
X14961486Y-10740400D02*
X11603214Y-10740400D01*
D11*
D12*
X7286400Y-3736200D02*
X7376400Y-3826200D01*
X7376400Y-3736200D02*
X7286400Y-3826200D01*
X7586400Y-3736200D02*
X7676400Y-3826200D01*
X7676400Y-3736200D02*
X7586400Y-3826200D01*
D13*
X6788838Y-10121096D02*
G75*
G03*
X6788838Y-10121096I-49530J0D01*
G01*
X8981530Y-4558000D02*
G75*
G03*
X8981530Y-4558000I-49530J0D01*
G01*
X8981530Y-6362500D02*
G75*
G03*
X8981530Y-6362500I-49530J0D01*
G01*
X8981530Y-8158000D02*
G75*
G03*
X8981530Y-8158000I-49530J0D01*
G01*
X8981530Y-9958000D02*
G75*
G03*
X8981530Y-9958000I-49530J0D01*
G01*
X10853530Y-4233000D02*
G75*
G03*
X10853530Y-4233000I-49530J0D01*
G01*
X10853530Y-6033000D02*
G75*
G03*
X10853530Y-6033000I-49530J0D01*
G01*
X10853530Y-7833000D02*
G75*
G03*
X10853530Y-7833000I-49530J0D01*
G01*
X10853530Y-9658000D02*
G75*
G03*
X10853530Y-9658000I-49530J0D01*
G01*
X12753530Y-3908000D02*
G75*
G03*
X12753530Y-3908000I-49530J0D01*
G01*
X12753530Y-5733000D02*
G75*
G03*
X12753530Y-5733000I-49530J0D01*
G01*
X12753530Y-7533000D02*
G75*
G03*
X12753530Y-7533000I-49530J0D01*
G01*
X12753530Y-9333000D02*
G75*
G03*
X12753530Y-9333000I-49530J0D01*
G01*
X14653530Y-3933000D02*
G75*
G03*
X14653530Y-3933000I-49530J0D01*
G01*
X14653530Y-5733000D02*
G75*
G03*
X14653530Y-5733000I-49530J0D01*
G01*
X14653530Y-7533000D02*
G75*
G03*
X14653530Y-7533000I-49530J0D01*
G01*
X14653530Y-9333000D02*
G75*
G03*
X14653530Y-9333000I-49530J0D01*
G01*
X16553530Y-4233000D02*
G75*
G03*
X16553530Y-4233000I-49530J0D01*
G01*
X16553530Y-6033000D02*
G75*
G03*
X16553530Y-6033000I-49530J0D01*
G01*
X16553530Y-7833000D02*
G75*
G03*
X16553530Y-7833000I-49530J0D01*
G01*
X18453530Y-4233000D02*
G75*
G03*
X18453530Y-4233000I-49530J0D01*
G01*
X18453530Y-6033000D02*
G75*
G03*
X18453530Y-6033000I-49530J0D01*
G01*
X18453530Y-7833000D02*
G75*
G03*
X18453530Y-7833000I-49530J0D01*
G01*
D14*
X5519750Y-8938000D02*
X5519750Y-9088000D01*
X5444750Y-9013000D02*
X5594750Y-9013000D01*
D15*
X5838225Y-10814967D02*
X5838225Y-10694631D01*
X5717888Y-10694631D01*
X5717888Y-10814967D01*
X5838225Y-10814967D01*
X6914187Y-10586264D02*
X6914187Y-10465928D01*
X6793851Y-10465928D01*
X6793851Y-10586264D01*
X6914187Y-10586264D01*
X7920168Y-5038168D02*
X7920168Y-4917832D01*
X7799832Y-4917832D01*
X7799832Y-5038168D01*
X7920168Y-5038168D01*
X7920168Y-6842668D02*
X7920168Y-6722332D01*
X7799832Y-6722332D01*
X7799832Y-6842668D01*
X7920168Y-6842668D01*
X7920168Y-8638168D02*
X7920168Y-8517832D01*
X7799832Y-8517832D01*
X7799832Y-8638168D01*
X7920168Y-8638168D01*
X7920168Y-10438168D02*
X7920168Y-10317832D01*
X7799832Y-10317832D01*
X7799832Y-10438168D01*
X7920168Y-10438168D01*
X9020168Y-5038168D02*
X9020168Y-4917832D01*
X8899832Y-4917832D01*
X8899832Y-5038168D01*
X9020168Y-5038168D01*
X9020168Y-6842668D02*
X9020168Y-6722332D01*
X8899832Y-6722332D01*
X8899832Y-6842668D01*
X9020168Y-6842668D01*
X9020168Y-8638168D02*
X9020168Y-8517832D01*
X8899832Y-8517832D01*
X8899832Y-8638168D01*
X9020168Y-8638168D01*
X9020168Y-10438168D02*
X9020168Y-10317832D01*
X8899832Y-10317832D01*
X8899832Y-10438168D01*
X9020168Y-10438168D01*
X9792168Y-4713168D02*
X9792168Y-4592832D01*
X9671832Y-4592832D01*
X9671832Y-4713168D01*
X9792168Y-4713168D01*
X9792168Y-6513168D02*
X9792168Y-6392832D01*
X9671832Y-6392832D01*
X9671832Y-6513168D01*
X9792168Y-6513168D01*
X9792168Y-8313168D02*
X9792168Y-8192832D01*
X9671832Y-8192832D01*
X9671832Y-8313168D01*
X9792168Y-8313168D01*
X9792168Y-10138168D02*
X9792168Y-10017832D01*
X9671832Y-10017832D01*
X9671832Y-10138168D01*
X9792168Y-10138168D01*
X10892168Y-4713168D02*
X10892168Y-4592832D01*
X10771832Y-4592832D01*
X10771832Y-4713168D01*
X10892168Y-4713168D01*
X10892168Y-6513168D02*
X10892168Y-6392832D01*
X10771832Y-6392832D01*
X10771832Y-6513168D01*
X10892168Y-6513168D01*
X10892168Y-8313168D02*
X10892168Y-8192832D01*
X10771832Y-8192832D01*
X10771832Y-8313168D01*
X10892168Y-8313168D01*
X10892168Y-10138168D02*
X10892168Y-10017832D01*
X10771832Y-10017832D01*
X10771832Y-10138168D01*
X10892168Y-10138168D01*
X11692168Y-4388168D02*
X11692168Y-4267832D01*
X11571832Y-4267832D01*
X11571832Y-4388168D01*
X11692168Y-4388168D01*
X11692168Y-6213168D02*
X11692168Y-6092832D01*
X11571832Y-6092832D01*
X11571832Y-6213168D01*
X11692168Y-6213168D01*
X11692168Y-8013168D02*
X11692168Y-7892832D01*
X11571832Y-7892832D01*
X11571832Y-8013168D01*
X11692168Y-8013168D01*
X11692168Y-9813168D02*
X11692168Y-9692832D01*
X11571832Y-9692832D01*
X11571832Y-9813168D01*
X11692168Y-9813168D01*
X12792168Y-4388168D02*
X12792168Y-4267832D01*
X12671832Y-4267832D01*
X12671832Y-4388168D01*
X12792168Y-4388168D01*
X12792168Y-6213168D02*
X12792168Y-6092832D01*
X12671832Y-6092832D01*
X12671832Y-6213168D01*
X12792168Y-6213168D01*
X12792168Y-8013168D02*
X12792168Y-7892832D01*
X12671832Y-7892832D01*
X12671832Y-8013168D01*
X12792168Y-8013168D01*
X12792168Y-9813168D02*
X12792168Y-9692832D01*
X12671832Y-9692832D01*
X12671832Y-9813168D01*
X12792168Y-9813168D01*
X13592168Y-4413168D02*
X13592168Y-4292832D01*
X13471832Y-4292832D01*
X13471832Y-4413168D01*
X13592168Y-4413168D01*
X13592168Y-6213168D02*
X13592168Y-6092832D01*
X13471832Y-6092832D01*
X13471832Y-6213168D01*
X13592168Y-6213168D01*
X13592168Y-8013168D02*
X13592168Y-7892832D01*
X13471832Y-7892832D01*
X13471832Y-8013168D01*
X13592168Y-8013168D01*
X13592168Y-9813168D02*
X13592168Y-9692832D01*
X13471832Y-9692832D01*
X13471832Y-9813168D01*
X13592168Y-9813168D01*
X14692168Y-4413168D02*
X14692168Y-4292832D01*
X14571832Y-4292832D01*
X14571832Y-4413168D01*
X14692168Y-4413168D01*
X14692168Y-6213168D02*
X14692168Y-6092832D01*
X14571832Y-6092832D01*
X14571832Y-6213168D01*
X14692168Y-6213168D01*
X14692168Y-8013168D02*
X14692168Y-7892832D01*
X14571832Y-7892832D01*
X14571832Y-8013168D01*
X14692168Y-8013168D01*
X14692168Y-9813168D02*
X14692168Y-9692832D01*
X14571832Y-9692832D01*
X14571832Y-9813168D01*
X14692168Y-9813168D01*
X15492168Y-4713168D02*
X15492168Y-4592832D01*
X15371832Y-4592832D01*
X15371832Y-4713168D01*
X15492168Y-4713168D01*
X15492168Y-6513168D02*
X15492168Y-6392832D01*
X15371832Y-6392832D01*
X15371832Y-6513168D01*
X15492168Y-6513168D01*
X15492168Y-8313168D02*
X15492168Y-8192832D01*
X15371832Y-8192832D01*
X15371832Y-8313168D01*
X15492168Y-8313168D01*
X16592168Y-4713168D02*
X16592168Y-4592832D01*
X16471832Y-4592832D01*
X16471832Y-4713168D01*
X16592168Y-4713168D01*
X16592168Y-6513168D02*
X16592168Y-6392832D01*
X16471832Y-6392832D01*
X16471832Y-6513168D01*
X16592168Y-6513168D01*
X16592168Y-8313168D02*
X16592168Y-8192832D01*
X16471832Y-8192832D01*
X16471832Y-8313168D01*
X16592168Y-8313168D01*
X17392168Y-4713168D02*
X17392168Y-4592832D01*
X17271832Y-4592832D01*
X17271832Y-4713168D01*
X17392168Y-4713168D01*
X17392168Y-6513168D02*
X17392168Y-6392832D01*
X17271832Y-6392832D01*
X17271832Y-6513168D01*
X17392168Y-6513168D01*
X17392168Y-8313168D02*
X17392168Y-8192832D01*
X17271832Y-8192832D01*
X17271832Y-8313168D01*
X17392168Y-8313168D01*
X18492168Y-4713168D02*
X18492168Y-4592832D01*
X18371832Y-4592832D01*
X18371832Y-4713168D01*
X18492168Y-4713168D01*
X18492168Y-6513168D02*
X18492168Y-6392832D01*
X18371832Y-6392832D01*
X18371832Y-6513168D01*
X18492168Y-6513168D01*
X18492168Y-8313168D02*
X18492168Y-8192832D01*
X18371832Y-8192832D01*
X18371832Y-8313168D01*
X18492168Y-8313168D01*
D16*
X5904931Y-11261209D02*
X6054931Y-11111209D01*
X5904931Y-10961209D01*
X5754931Y-11111209D01*
X5904931Y-11261209D01*
X6439745Y-11372445D02*
X6589745Y-11222445D01*
X6439745Y-11072445D01*
X6289745Y-11222445D01*
X6439745Y-11372445D01*
X7910000Y-5503000D02*
X8060000Y-5353000D01*
X7910000Y-5203000D01*
X7760000Y-5353000D01*
X7910000Y-5503000D01*
X7910000Y-7307500D02*
X8060000Y-7157500D01*
X7910000Y-7007500D01*
X7760000Y-7157500D01*
X7910000Y-7307500D01*
X7910000Y-9103000D02*
X8060000Y-8953000D01*
X7910000Y-8803000D01*
X7760000Y-8953000D01*
X7910000Y-9103000D01*
X7910000Y-10903000D02*
X8060000Y-10753000D01*
X7910000Y-10603000D01*
X7760000Y-10753000D01*
X7910000Y-10903000D01*
X8410000Y-5723000D02*
X8560000Y-5573000D01*
X8410000Y-5423000D01*
X8260000Y-5573000D01*
X8410000Y-5723000D01*
X8410000Y-7527500D02*
X8560000Y-7377500D01*
X8410000Y-7227500D01*
X8260000Y-7377500D01*
X8410000Y-7527500D01*
X8410000Y-9323000D02*
X8560000Y-9173000D01*
X8410000Y-9023000D01*
X8260000Y-9173000D01*
X8410000Y-9323000D01*
X8410000Y-11123000D02*
X8560000Y-10973000D01*
X8410000Y-10823000D01*
X8260000Y-10973000D01*
X8410000Y-11123000D01*
X9782000Y-5178000D02*
X9932000Y-5028000D01*
X9782000Y-4878000D01*
X9632000Y-5028000D01*
X9782000Y-5178000D01*
X9782000Y-6978000D02*
X9932000Y-6828000D01*
X9782000Y-6678000D01*
X9632000Y-6828000D01*
X9782000Y-6978000D01*
X9782000Y-8778000D02*
X9932000Y-8628000D01*
X9782000Y-8478000D01*
X9632000Y-8628000D01*
X9782000Y-8778000D01*
X9782000Y-10603000D02*
X9932000Y-10453000D01*
X9782000Y-10303000D01*
X9632000Y-10453000D01*
X9782000Y-10603000D01*
X10282000Y-5398000D02*
X10432000Y-5248000D01*
X10282000Y-5098000D01*
X10132000Y-5248000D01*
X10282000Y-5398000D01*
X10282000Y-7198000D02*
X10432000Y-7048000D01*
X10282000Y-6898000D01*
X10132000Y-7048000D01*
X10282000Y-7198000D01*
X10282000Y-8998000D02*
X10432000Y-8848000D01*
X10282000Y-8698000D01*
X10132000Y-8848000D01*
X10282000Y-8998000D01*
X10282000Y-10823000D02*
X10432000Y-10673000D01*
X10282000Y-10523000D01*
X10132000Y-10673000D01*
X10282000Y-10823000D01*
X11682000Y-4853000D02*
X11832000Y-4703000D01*
X11682000Y-4553000D01*
X11532000Y-4703000D01*
X11682000Y-4853000D01*
X11682000Y-6678000D02*
X11832000Y-6528000D01*
X11682000Y-6378000D01*
X11532000Y-6528000D01*
X11682000Y-6678000D01*
X11682000Y-8478000D02*
X11832000Y-8328000D01*
X11682000Y-8178000D01*
X11532000Y-8328000D01*
X11682000Y-8478000D01*
X11682000Y-10278000D02*
X11832000Y-10128000D01*
X11682000Y-9978000D01*
X11532000Y-10128000D01*
X11682000Y-10278000D01*
X12182000Y-5073000D02*
X12332000Y-4923000D01*
X12182000Y-4773000D01*
X12032000Y-4923000D01*
X12182000Y-5073000D01*
X12182000Y-6898000D02*
X12332000Y-6748000D01*
X12182000Y-6598000D01*
X12032000Y-6748000D01*
X12182000Y-6898000D01*
X12182000Y-8698000D02*
X12332000Y-8548000D01*
X12182000Y-8398000D01*
X12032000Y-8548000D01*
X12182000Y-8698000D01*
X12182000Y-10498000D02*
X12332000Y-10348000D01*
X12182000Y-10198000D01*
X12032000Y-10348000D01*
X12182000Y-10498000D01*
X13582000Y-4878000D02*
X13732000Y-4728000D01*
X13582000Y-4578000D01*
X13432000Y-4728000D01*
X13582000Y-4878000D01*
X13582000Y-6678000D02*
X13732000Y-6528000D01*
X13582000Y-6378000D01*
X13432000Y-6528000D01*
X13582000Y-6678000D01*
X13582000Y-8478000D02*
X13732000Y-8328000D01*
X13582000Y-8178000D01*
X13432000Y-8328000D01*
X13582000Y-8478000D01*
X13582000Y-10278000D02*
X13732000Y-10128000D01*
X13582000Y-9978000D01*
X13432000Y-10128000D01*
X13582000Y-10278000D01*
X14082000Y-5098000D02*
X14232000Y-4948000D01*
X14082000Y-4798000D01*
X13932000Y-4948000D01*
X14082000Y-5098000D01*
X14082000Y-6898000D02*
X14232000Y-6748000D01*
X14082000Y-6598000D01*
X13932000Y-6748000D01*
X14082000Y-6898000D01*
X14082000Y-8698000D02*
X14232000Y-8548000D01*
X14082000Y-8398000D01*
X13932000Y-8548000D01*
X14082000Y-8698000D01*
X14082000Y-10498000D02*
X14232000Y-10348000D01*
X14082000Y-10198000D01*
X13932000Y-10348000D01*
X14082000Y-10498000D01*
X15482000Y-5178000D02*
X15632000Y-5028000D01*
X15482000Y-4878000D01*
X15332000Y-5028000D01*
X15482000Y-5178000D01*
X15482000Y-6978000D02*
X15632000Y-6828000D01*
X15482000Y-6678000D01*
X15332000Y-6828000D01*
X15482000Y-6978000D01*
X15482000Y-8778000D02*
X15632000Y-8628000D01*
X15482000Y-8478000D01*
X15332000Y-8628000D01*
X15482000Y-8778000D01*
X15982000Y-5398000D02*
X16132000Y-5248000D01*
X15982000Y-5098000D01*
X15832000Y-5248000D01*
X15982000Y-5398000D01*
X15982000Y-7198000D02*
X16132000Y-7048000D01*
X15982000Y-6898000D01*
X15832000Y-7048000D01*
X15982000Y-7198000D01*
X15982000Y-8998000D02*
X16132000Y-8848000D01*
X15982000Y-8698000D01*
X15832000Y-8848000D01*
X15982000Y-8998000D01*
X17382000Y-5178000D02*
X17532000Y-5028000D01*
X17382000Y-4878000D01*
X17232000Y-5028000D01*
X17382000Y-5178000D01*
X17382000Y-6978000D02*
X17532000Y-6828000D01*
X17382000Y-6678000D01*
X17232000Y-6828000D01*
X17382000Y-6978000D01*
X17382000Y-8778000D02*
X17532000Y-8628000D01*
X17382000Y-8478000D01*
X17232000Y-8628000D01*
X17382000Y-8778000D01*
X17882000Y-5398000D02*
X18032000Y-5248000D01*
X17882000Y-5098000D01*
X17732000Y-5248000D01*
X17882000Y-5398000D01*
X17882000Y-7198000D02*
X18032000Y-7048000D01*
X17882000Y-6898000D01*
X17732000Y-7048000D01*
X17882000Y-7198000D01*
X17882000Y-8998000D02*
X18032000Y-8848000D01*
X17882000Y-8698000D01*
X17732000Y-8848000D01*
X17882000Y-8998000D01*
D17*
X6144588Y-10468998D02*
X6487488Y-10811898D01*
X6487488Y-10468998D02*
X6144588Y-10811898D01*
X6487488Y-10640448D02*
G75*
G03*
X6487488Y-10640448I-171450J0D01*
G01*
X8238550Y-4806550D02*
X8581450Y-5149450D01*
X8581450Y-4806550D02*
X8238550Y-5149450D01*
X8581450Y-4978000D02*
G75*
G03*
X8581450Y-4978000I-171450J0D01*
G01*
X8238550Y-6611050D02*
X8581450Y-6953950D01*
X8581450Y-6611050D02*
X8238550Y-6953950D01*
X8581450Y-6782500D02*
G75*
G03*
X8581450Y-6782500I-171450J0D01*
G01*
X8238550Y-8406550D02*
X8581450Y-8749450D01*
X8581450Y-8406550D02*
X8238550Y-8749450D01*
X8581450Y-8578000D02*
G75*
G03*
X8581450Y-8578000I-171450J0D01*
G01*
X8238550Y-10206550D02*
X8581450Y-10549450D01*
X8581450Y-10206550D02*
X8238550Y-10549450D01*
X8581450Y-10378000D02*
G75*
G03*
X8581450Y-10378000I-171450J0D01*
G01*
X10110550Y-4481550D02*
X10453450Y-4824450D01*
X10453450Y-4481550D02*
X10110550Y-4824450D01*
X10453450Y-4653000D02*
G75*
G03*
X10453450Y-4653000I-171450J0D01*
G01*
X10110550Y-6281550D02*
X10453450Y-6624450D01*
X10453450Y-6281550D02*
X10110550Y-6624450D01*
X10453450Y-6453000D02*
G75*
G03*
X10453450Y-6453000I-171450J0D01*
G01*
X10110550Y-8081550D02*
X10453450Y-8424450D01*
X10453450Y-8081550D02*
X10110550Y-8424450D01*
X10453450Y-8253000D02*
G75*
G03*
X10453450Y-8253000I-171450J0D01*
G01*
X10110550Y-9906550D02*
X10453450Y-10249450D01*
X10453450Y-9906550D02*
X10110550Y-10249450D01*
X10453450Y-10078000D02*
G75*
G03*
X10453450Y-10078000I-171450J0D01*
G01*
X12010550Y-4156550D02*
X12353450Y-4499450D01*
X12353450Y-4156550D02*
X12010550Y-4499450D01*
X12353450Y-4328000D02*
G75*
G03*
X12353450Y-4328000I-171450J0D01*
G01*
X12010550Y-5981550D02*
X12353450Y-6324450D01*
X12353450Y-5981550D02*
X12010550Y-6324450D01*
X12353450Y-6153000D02*
G75*
G03*
X12353450Y-6153000I-171450J0D01*
G01*
X12010550Y-7781550D02*
X12353450Y-8124450D01*
X12353450Y-7781550D02*
X12010550Y-8124450D01*
X12353450Y-7953000D02*
G75*
G03*
X12353450Y-7953000I-171450J0D01*
G01*
X12010550Y-9581550D02*
X12353450Y-9924450D01*
X12353450Y-9581550D02*
X12010550Y-9924450D01*
X12353450Y-9753000D02*
G75*
G03*
X12353450Y-9753000I-171450J0D01*
G01*
X13910550Y-4181550D02*
X14253450Y-4524450D01*
X14253450Y-4181550D02*
X13910550Y-4524450D01*
X14253450Y-4353000D02*
G75*
G03*
X14253450Y-4353000I-171450J0D01*
G01*
X13910550Y-5981550D02*
X14253450Y-6324450D01*
X14253450Y-5981550D02*
X13910550Y-6324450D01*
X14253450Y-6153000D02*
G75*
G03*
X14253450Y-6153000I-171450J0D01*
G01*
X13910550Y-7781550D02*
X14253450Y-8124450D01*
X14253450Y-7781550D02*
X13910550Y-8124450D01*
X14253450Y-7953000D02*
G75*
G03*
X14253450Y-7953000I-171450J0D01*
G01*
X13910550Y-9581550D02*
X14253450Y-9924450D01*
X14253450Y-9581550D02*
X13910550Y-9924450D01*
X14253450Y-9753000D02*
G75*
G03*
X14253450Y-9753000I-171450J0D01*
G01*
X15810550Y-4481550D02*
X16153450Y-4824450D01*
X16153450Y-4481550D02*
X15810550Y-4824450D01*
X16153450Y-4653000D02*
G75*
G03*
X16153450Y-4653000I-171450J0D01*
G01*
X15810550Y-6281550D02*
X16153450Y-6624450D01*
X16153450Y-6281550D02*
X15810550Y-6624450D01*
X16153450Y-6453000D02*
G75*
G03*
X16153450Y-6453000I-171450J0D01*
G01*
X15810550Y-8081550D02*
X16153450Y-8424450D01*
X16153450Y-8081550D02*
X15810550Y-8424450D01*
X16153450Y-8253000D02*
G75*
G03*
X16153450Y-8253000I-171450J0D01*
G01*
X17710550Y-4481550D02*
X18053450Y-4824450D01*
X18053450Y-4481550D02*
X17710550Y-4824450D01*
X18053450Y-4653000D02*
G75*
G03*
X18053450Y-4653000I-171450J0D01*
G01*
X17710550Y-6281550D02*
X18053450Y-6624450D01*
X18053450Y-6281550D02*
X17710550Y-6624450D01*
X18053450Y-6453000D02*
G75*
G03*
X18053450Y-6453000I-171450J0D01*
G01*
X17710550Y-8081550D02*
X18053450Y-8424450D01*
X18053450Y-8081550D02*
X17710550Y-8424450D01*
X18053450Y-8253000D02*
G75*
G03*
X18053450Y-8253000I-171450J0D01*
G01*
D18*
X7241000Y-9276000D02*
X7671000Y-9706000D01*
X7671000Y-9276000D02*
X7241000Y-9706000D01*
X7456000Y-9276000D02*
X7456000Y-9706000D01*
X7241000Y-9491000D02*
X7671000Y-9491000D01*
X9095200Y-5669200D02*
X9525200Y-6099200D01*
X9525200Y-5669200D02*
X9095200Y-6099200D01*
X9310200Y-5669200D02*
X9310200Y-6099200D01*
X9095200Y-5884200D02*
X9525200Y-5884200D01*
X12881200Y-6837600D02*
X13311200Y-7267600D01*
X13311200Y-6837600D02*
X12881200Y-7267600D01*
X13096200Y-6837600D02*
X13096200Y-7267600D01*
X12881200Y-7052600D02*
X13311200Y-7052600D01*
X15094550Y-9352200D02*
X15524550Y-9782200D01*
X15524550Y-9352200D02*
X15094550Y-9782200D01*
X15309550Y-9352200D02*
X15309550Y-9782200D01*
X15094550Y-9567200D02*
X15524550Y-9567200D01*
X16715200Y-5313600D02*
X17145200Y-5743600D01*
X17145200Y-5313600D02*
X16715200Y-5743600D01*
X16930200Y-5313600D02*
X16930200Y-5743600D01*
X16715200Y-5528600D02*
X17145200Y-5528600D01*
D11*
X5130727Y-12072884D02*
X5130727Y-11872884D01*
X5130727Y-11872884D02*
X5178346Y-11872884D01*
X5178346Y-11872884D02*
X5206917Y-11882408D01*
X5206917Y-11882408D02*
X5225965Y-11901455D01*
X5225965Y-11901455D02*
X5235489Y-11920503D01*
X5235489Y-11920503D02*
X5245013Y-11958598D01*
X5245013Y-11958598D02*
X5245013Y-11987169D01*
X5245013Y-11987169D02*
X5235489Y-12025265D01*
X5235489Y-12025265D02*
X5225965Y-12044312D01*
X5225965Y-12044312D02*
X5206917Y-12063360D01*
X5206917Y-12063360D02*
X5178346Y-12072884D01*
X5178346Y-12072884D02*
X5130727Y-12072884D01*
X5330727Y-12072884D02*
X5330727Y-11939550D01*
X5330727Y-11977646D02*
X5340251Y-11958598D01*
X5340251Y-11958598D02*
X5349774Y-11949074D01*
X5349774Y-11949074D02*
X5368822Y-11939550D01*
X5368822Y-11939550D02*
X5387870Y-11939550D01*
X5454536Y-12072884D02*
X5454536Y-11939550D01*
X5454536Y-11872884D02*
X5445013Y-11882408D01*
X5445013Y-11882408D02*
X5454536Y-11891931D01*
X5454536Y-11891931D02*
X5464060Y-11882408D01*
X5464060Y-11882408D02*
X5454536Y-11872884D01*
X5454536Y-11872884D02*
X5454536Y-11891931D01*
X5578346Y-12072884D02*
X5559298Y-12063360D01*
X5559298Y-12063360D02*
X5549774Y-12044312D01*
X5549774Y-12044312D02*
X5549774Y-11872884D01*
X5683108Y-12072884D02*
X5664060Y-12063360D01*
X5664060Y-12063360D02*
X5654536Y-12044312D01*
X5654536Y-12044312D02*
X5654536Y-11872884D01*
X5911679Y-12072884D02*
X5911679Y-11872884D01*
X5911679Y-11872884D02*
X5978346Y-12015741D01*
X5978346Y-12015741D02*
X6045012Y-11872884D01*
X6045012Y-11872884D02*
X6045012Y-12072884D01*
X6225965Y-12072884D02*
X6225965Y-11968122D01*
X6225965Y-11968122D02*
X6216441Y-11949074D01*
X6216441Y-11949074D02*
X6197393Y-11939550D01*
X6197393Y-11939550D02*
X6159298Y-11939550D01*
X6159298Y-11939550D02*
X6140251Y-11949074D01*
X6225965Y-12063360D02*
X6206917Y-12072884D01*
X6206917Y-12072884D02*
X6159298Y-12072884D01*
X6159298Y-12072884D02*
X6140251Y-12063360D01*
X6140251Y-12063360D02*
X6130727Y-12044312D01*
X6130727Y-12044312D02*
X6130727Y-12025265D01*
X6130727Y-12025265D02*
X6140251Y-12006217D01*
X6140251Y-12006217D02*
X6159298Y-11996693D01*
X6159298Y-11996693D02*
X6206917Y-11996693D01*
X6206917Y-11996693D02*
X6225965Y-11987169D01*
X6321203Y-11939550D02*
X6321203Y-12139550D01*
X6321203Y-11949074D02*
X6340251Y-11939550D01*
X6340251Y-11939550D02*
X6378346Y-11939550D01*
X6378346Y-11939550D02*
X6397393Y-11949074D01*
X6397393Y-11949074D02*
X6406917Y-11958598D01*
X6406917Y-11958598D02*
X6416441Y-11977646D01*
X6416441Y-11977646D02*
X6416441Y-12034788D01*
X6416441Y-12034788D02*
X6406917Y-12053836D01*
X6406917Y-12053836D02*
X6397393Y-12063360D01*
X6397393Y-12063360D02*
X6378346Y-12072884D01*
X6378346Y-12072884D02*
X6340251Y-12072884D01*
X6340251Y-12072884D02*
X6321203Y-12063360D01*
X6502155Y-12053836D02*
X6511679Y-12063360D01*
X6511679Y-12063360D02*
X6502155Y-12072884D01*
X6502155Y-12072884D02*
X6492632Y-12063360D01*
X6492632Y-12063360D02*
X6502155Y-12053836D01*
X6502155Y-12053836D02*
X6502155Y-12072884D01*
X6502155Y-11949074D02*
X6511679Y-11958598D01*
X6511679Y-11958598D02*
X6502155Y-11968122D01*
X6502155Y-11968122D02*
X6492632Y-11958598D01*
X6492632Y-11958598D02*
X6502155Y-11949074D01*
X6502155Y-11949074D02*
X6502155Y-11968122D01*
D12*
X4779950Y-12356400D02*
X4869950Y-12446400D01*
X4869950Y-12356400D02*
X4779950Y-12446400D01*
D11*
X5168822Y-12292884D02*
X5187870Y-12292884D01*
X5187870Y-12292884D02*
X5206917Y-12302408D01*
X5206917Y-12302408D02*
X5216441Y-12311931D01*
X5216441Y-12311931D02*
X5225965Y-12330979D01*
X5225965Y-12330979D02*
X5235489Y-12369074D01*
X5235489Y-12369074D02*
X5235489Y-12416693D01*
X5235489Y-12416693D02*
X5225965Y-12454788D01*
X5225965Y-12454788D02*
X5216441Y-12473836D01*
X5216441Y-12473836D02*
X5206917Y-12483360D01*
X5206917Y-12483360D02*
X5187870Y-12492884D01*
X5187870Y-12492884D02*
X5168822Y-12492884D01*
X5168822Y-12492884D02*
X5149774Y-12483360D01*
X5149774Y-12483360D02*
X5140251Y-12473836D01*
X5140251Y-12473836D02*
X5130727Y-12454788D01*
X5130727Y-12454788D02*
X5121203Y-12416693D01*
X5121203Y-12416693D02*
X5121203Y-12369074D01*
X5121203Y-12369074D02*
X5130727Y-12330979D01*
X5130727Y-12330979D02*
X5140251Y-12311931D01*
X5140251Y-12311931D02*
X5149774Y-12302408D01*
X5149774Y-12302408D02*
X5168822Y-12292884D01*
X5321203Y-12473836D02*
X5330727Y-12483360D01*
X5330727Y-12483360D02*
X5321203Y-12492884D01*
X5321203Y-12492884D02*
X5311679Y-12483360D01*
X5311679Y-12483360D02*
X5321203Y-12473836D01*
X5321203Y-12473836D02*
X5321203Y-12492884D01*
X5425965Y-12492884D02*
X5464060Y-12492884D01*
X5464060Y-12492884D02*
X5483108Y-12483360D01*
X5483108Y-12483360D02*
X5492632Y-12473836D01*
X5492632Y-12473836D02*
X5511679Y-12445265D01*
X5511679Y-12445265D02*
X5521203Y-12407169D01*
X5521203Y-12407169D02*
X5521203Y-12330979D01*
X5521203Y-12330979D02*
X5511679Y-12311931D01*
X5511679Y-12311931D02*
X5502155Y-12302408D01*
X5502155Y-12302408D02*
X5483108Y-12292884D01*
X5483108Y-12292884D02*
X5445013Y-12292884D01*
X5445013Y-12292884D02*
X5425965Y-12302408D01*
X5425965Y-12302408D02*
X5416441Y-12311931D01*
X5416441Y-12311931D02*
X5406917Y-12330979D01*
X5406917Y-12330979D02*
X5406917Y-12378598D01*
X5406917Y-12378598D02*
X5416441Y-12397646D01*
X5416441Y-12397646D02*
X5425965Y-12407169D01*
X5425965Y-12407169D02*
X5445013Y-12416693D01*
X5445013Y-12416693D02*
X5483108Y-12416693D01*
X5483108Y-12416693D02*
X5502155Y-12407169D01*
X5502155Y-12407169D02*
X5511679Y-12397646D01*
X5511679Y-12397646D02*
X5521203Y-12378598D01*
X5645012Y-12292884D02*
X5664060Y-12292884D01*
X5664060Y-12292884D02*
X5683108Y-12302408D01*
X5683108Y-12302408D02*
X5692632Y-12311931D01*
X5692632Y-12311931D02*
X5702155Y-12330979D01*
X5702155Y-12330979D02*
X5711679Y-12369074D01*
X5711679Y-12369074D02*
X5711679Y-12416693D01*
X5711679Y-12416693D02*
X5702155Y-12454788D01*
X5702155Y-12454788D02*
X5692632Y-12473836D01*
X5692632Y-12473836D02*
X5683108Y-12483360D01*
X5683108Y-12483360D02*
X5664060Y-12492884D01*
X5664060Y-12492884D02*
X5645012Y-12492884D01*
X5645012Y-12492884D02*
X5625965Y-12483360D01*
X5625965Y-12483360D02*
X5616441Y-12473836D01*
X5616441Y-12473836D02*
X5606917Y-12454788D01*
X5606917Y-12454788D02*
X5597393Y-12416693D01*
X5597393Y-12416693D02*
X5597393Y-12369074D01*
X5597393Y-12369074D02*
X5606917Y-12330979D01*
X5606917Y-12330979D02*
X5616441Y-12311931D01*
X5616441Y-12311931D02*
X5625965Y-12302408D01*
X5625965Y-12302408D02*
X5645012Y-12292884D01*
X5835489Y-12292884D02*
X5854536Y-12292884D01*
X5854536Y-12292884D02*
X5873584Y-12302408D01*
X5873584Y-12302408D02*
X5883108Y-12311931D01*
X5883108Y-12311931D02*
X5892632Y-12330979D01*
X5892632Y-12330979D02*
X5902155Y-12369074D01*
X5902155Y-12369074D02*
X5902155Y-12416693D01*
X5902155Y-12416693D02*
X5892632Y-12454788D01*
X5892632Y-12454788D02*
X5883108Y-12473836D01*
X5883108Y-12473836D02*
X5873584Y-12483360D01*
X5873584Y-12483360D02*
X5854536Y-12492884D01*
X5854536Y-12492884D02*
X5835489Y-12492884D01*
X5835489Y-12492884D02*
X5816441Y-12483360D01*
X5816441Y-12483360D02*
X5806917Y-12473836D01*
X5806917Y-12473836D02*
X5797393Y-12454788D01*
X5797393Y-12454788D02*
X5787870Y-12416693D01*
X5787870Y-12416693D02*
X5787870Y-12369074D01*
X5787870Y-12369074D02*
X5797393Y-12330979D01*
X5797393Y-12330979D02*
X5806917Y-12311931D01*
X5806917Y-12311931D02*
X5816441Y-12302408D01*
X5816441Y-12302408D02*
X5835489Y-12292884D01*
X5987870Y-12492884D02*
X5987870Y-12359550D01*
X5987870Y-12378598D02*
X5997393Y-12369074D01*
X5997393Y-12369074D02*
X6016441Y-12359550D01*
X6016441Y-12359550D02*
X6045013Y-12359550D01*
X6045013Y-12359550D02*
X6064060Y-12369074D01*
X6064060Y-12369074D02*
X6073584Y-12388122D01*
X6073584Y-12388122D02*
X6073584Y-12492884D01*
X6073584Y-12388122D02*
X6083108Y-12369074D01*
X6083108Y-12369074D02*
X6102155Y-12359550D01*
X6102155Y-12359550D02*
X6130727Y-12359550D01*
X6130727Y-12359550D02*
X6149774Y-12369074D01*
X6149774Y-12369074D02*
X6159298Y-12388122D01*
X6159298Y-12388122D02*
X6159298Y-12492884D01*
X6254536Y-12492884D02*
X6254536Y-12359550D01*
X6254536Y-12378598D02*
X6264060Y-12369074D01*
X6264060Y-12369074D02*
X6283108Y-12359550D01*
X6283108Y-12359550D02*
X6311679Y-12359550D01*
X6311679Y-12359550D02*
X6330727Y-12369074D01*
X6330727Y-12369074D02*
X6340251Y-12388122D01*
X6340251Y-12388122D02*
X6340251Y-12492884D01*
X6340251Y-12388122D02*
X6349774Y-12369074D01*
X6349774Y-12369074D02*
X6368822Y-12359550D01*
X6368822Y-12359550D02*
X6397393Y-12359550D01*
X6397393Y-12359550D02*
X6416441Y-12369074D01*
X6416441Y-12369074D02*
X6425965Y-12388122D01*
X6425965Y-12388122D02*
X6425965Y-12492884D01*
X6816441Y-12283360D02*
X6645013Y-12540503D01*
X7073584Y-12292884D02*
X7092632Y-12292884D01*
X7092632Y-12292884D02*
X7111679Y-12302408D01*
X7111679Y-12302408D02*
X7121203Y-12311931D01*
X7121203Y-12311931D02*
X7130727Y-12330979D01*
X7130727Y-12330979D02*
X7140251Y-12369074D01*
X7140251Y-12369074D02*
X7140251Y-12416693D01*
X7140251Y-12416693D02*
X7130727Y-12454788D01*
X7130727Y-12454788D02*
X7121203Y-12473836D01*
X7121203Y-12473836D02*
X7111679Y-12483360D01*
X7111679Y-12483360D02*
X7092632Y-12492884D01*
X7092632Y-12492884D02*
X7073584Y-12492884D01*
X7073584Y-12492884D02*
X7054536Y-12483360D01*
X7054536Y-12483360D02*
X7045013Y-12473836D01*
X7045013Y-12473836D02*
X7035489Y-12454788D01*
X7035489Y-12454788D02*
X7025965Y-12416693D01*
X7025965Y-12416693D02*
X7025965Y-12369074D01*
X7025965Y-12369074D02*
X7035489Y-12330979D01*
X7035489Y-12330979D02*
X7045013Y-12311931D01*
X7045013Y-12311931D02*
X7054536Y-12302408D01*
X7054536Y-12302408D02*
X7073584Y-12292884D01*
X7225965Y-12473836D02*
X7235489Y-12483360D01*
X7235489Y-12483360D02*
X7225965Y-12492884D01*
X7225965Y-12492884D02*
X7216441Y-12483360D01*
X7216441Y-12483360D02*
X7225965Y-12473836D01*
X7225965Y-12473836D02*
X7225965Y-12492884D01*
X7359298Y-12292884D02*
X7378346Y-12292884D01*
X7378346Y-12292884D02*
X7397394Y-12302408D01*
X7397394Y-12302408D02*
X7406917Y-12311931D01*
X7406917Y-12311931D02*
X7416441Y-12330979D01*
X7416441Y-12330979D02*
X7425965Y-12369074D01*
X7425965Y-12369074D02*
X7425965Y-12416693D01*
X7425965Y-12416693D02*
X7416441Y-12454788D01*
X7416441Y-12454788D02*
X7406917Y-12473836D01*
X7406917Y-12473836D02*
X7397394Y-12483360D01*
X7397394Y-12483360D02*
X7378346Y-12492884D01*
X7378346Y-12492884D02*
X7359298Y-12492884D01*
X7359298Y-12492884D02*
X7340251Y-12483360D01*
X7340251Y-12483360D02*
X7330727Y-12473836D01*
X7330727Y-12473836D02*
X7321203Y-12454788D01*
X7321203Y-12454788D02*
X7311679Y-12416693D01*
X7311679Y-12416693D02*
X7311679Y-12369074D01*
X7311679Y-12369074D02*
X7321203Y-12330979D01*
X7321203Y-12330979D02*
X7330727Y-12311931D01*
X7330727Y-12311931D02*
X7340251Y-12302408D01*
X7340251Y-12302408D02*
X7359298Y-12292884D01*
X7492632Y-12292884D02*
X7616441Y-12292884D01*
X7616441Y-12292884D02*
X7549775Y-12369074D01*
X7549775Y-12369074D02*
X7578346Y-12369074D01*
X7578346Y-12369074D02*
X7597394Y-12378598D01*
X7597394Y-12378598D02*
X7606917Y-12388122D01*
X7606917Y-12388122D02*
X7616441Y-12407169D01*
X7616441Y-12407169D02*
X7616441Y-12454788D01*
X7616441Y-12454788D02*
X7606917Y-12473836D01*
X7606917Y-12473836D02*
X7597394Y-12483360D01*
X7597394Y-12483360D02*
X7578346Y-12492884D01*
X7578346Y-12492884D02*
X7521203Y-12492884D01*
X7521203Y-12492884D02*
X7502156Y-12483360D01*
X7502156Y-12483360D02*
X7492632Y-12473836D01*
X7797394Y-12292884D02*
X7702156Y-12292884D01*
X7702156Y-12292884D02*
X7692632Y-12388122D01*
X7692632Y-12388122D02*
X7702156Y-12378598D01*
X7702156Y-12378598D02*
X7721203Y-12369074D01*
X7721203Y-12369074D02*
X7768822Y-12369074D01*
X7768822Y-12369074D02*
X7787870Y-12378598D01*
X7787870Y-12378598D02*
X7797394Y-12388122D01*
X7797394Y-12388122D02*
X7806917Y-12407169D01*
X7806917Y-12407169D02*
X7806917Y-12454788D01*
X7806917Y-12454788D02*
X7797394Y-12473836D01*
X7797394Y-12473836D02*
X7787870Y-12483360D01*
X7787870Y-12483360D02*
X7768822Y-12492884D01*
X7768822Y-12492884D02*
X7721203Y-12492884D01*
X7721203Y-12492884D02*
X7702156Y-12483360D01*
X7702156Y-12483360D02*
X7692632Y-12473836D01*
X7978346Y-12359550D02*
X7978346Y-12492884D01*
X7930727Y-12283360D02*
X7883108Y-12426217D01*
X7883108Y-12426217D02*
X8006917Y-12426217D01*
X8073584Y-12292884D02*
X8073584Y-12330979D01*
X8149775Y-12292884D02*
X8149775Y-12330979D01*
X8445013Y-12569074D02*
X8435489Y-12559550D01*
X8435489Y-12559550D02*
X8416441Y-12530979D01*
X8416441Y-12530979D02*
X8406918Y-12511931D01*
X8406918Y-12511931D02*
X8397394Y-12483360D01*
X8397394Y-12483360D02*
X8387870Y-12435741D01*
X8387870Y-12435741D02*
X8387870Y-12397646D01*
X8387870Y-12397646D02*
X8397394Y-12350027D01*
X8397394Y-12350027D02*
X8406918Y-12321455D01*
X8406918Y-12321455D02*
X8416441Y-12302408D01*
X8416441Y-12302408D02*
X8435489Y-12273836D01*
X8435489Y-12273836D02*
X8445013Y-12264312D01*
X8511680Y-12311931D02*
X8521203Y-12302408D01*
X8521203Y-12302408D02*
X8540251Y-12292884D01*
X8540251Y-12292884D02*
X8587870Y-12292884D01*
X8587870Y-12292884D02*
X8606918Y-12302408D01*
X8606918Y-12302408D02*
X8616441Y-12311931D01*
X8616441Y-12311931D02*
X8625965Y-12330979D01*
X8625965Y-12330979D02*
X8625965Y-12350027D01*
X8625965Y-12350027D02*
X8616441Y-12378598D01*
X8616441Y-12378598D02*
X8502156Y-12492884D01*
X8502156Y-12492884D02*
X8625965Y-12492884D01*
X8864061Y-12492884D02*
X8864061Y-12292884D01*
X8949775Y-12492884D02*
X8949775Y-12388122D01*
X8949775Y-12388122D02*
X8940251Y-12369074D01*
X8940251Y-12369074D02*
X8921203Y-12359550D01*
X8921203Y-12359550D02*
X8892632Y-12359550D01*
X8892632Y-12359550D02*
X8873584Y-12369074D01*
X8873584Y-12369074D02*
X8864061Y-12378598D01*
X9073584Y-12492884D02*
X9054537Y-12483360D01*
X9054537Y-12483360D02*
X9045013Y-12473836D01*
X9045013Y-12473836D02*
X9035489Y-12454788D01*
X9035489Y-12454788D02*
X9035489Y-12397646D01*
X9035489Y-12397646D02*
X9045013Y-12378598D01*
X9045013Y-12378598D02*
X9054537Y-12369074D01*
X9054537Y-12369074D02*
X9073584Y-12359550D01*
X9073584Y-12359550D02*
X9102156Y-12359550D01*
X9102156Y-12359550D02*
X9121203Y-12369074D01*
X9121203Y-12369074D02*
X9130727Y-12378598D01*
X9130727Y-12378598D02*
X9140251Y-12397646D01*
X9140251Y-12397646D02*
X9140251Y-12454788D01*
X9140251Y-12454788D02*
X9130727Y-12473836D01*
X9130727Y-12473836D02*
X9121203Y-12483360D01*
X9121203Y-12483360D02*
X9102156Y-12492884D01*
X9102156Y-12492884D02*
X9073584Y-12492884D01*
X9254537Y-12492884D02*
X9235489Y-12483360D01*
X9235489Y-12483360D02*
X9225965Y-12464312D01*
X9225965Y-12464312D02*
X9225965Y-12292884D01*
X9406918Y-12483360D02*
X9387870Y-12492884D01*
X9387870Y-12492884D02*
X9349775Y-12492884D01*
X9349775Y-12492884D02*
X9330727Y-12483360D01*
X9330727Y-12483360D02*
X9321203Y-12464312D01*
X9321203Y-12464312D02*
X9321203Y-12388122D01*
X9321203Y-12388122D02*
X9330727Y-12369074D01*
X9330727Y-12369074D02*
X9349775Y-12359550D01*
X9349775Y-12359550D02*
X9387870Y-12359550D01*
X9387870Y-12359550D02*
X9406918Y-12369074D01*
X9406918Y-12369074D02*
X9416442Y-12388122D01*
X9416442Y-12388122D02*
X9416442Y-12407169D01*
X9416442Y-12407169D02*
X9321203Y-12426217D01*
X9492632Y-12483360D02*
X9511680Y-12492884D01*
X9511680Y-12492884D02*
X9549775Y-12492884D01*
X9549775Y-12492884D02*
X9568823Y-12483360D01*
X9568823Y-12483360D02*
X9578346Y-12464312D01*
X9578346Y-12464312D02*
X9578346Y-12454788D01*
X9578346Y-12454788D02*
X9568823Y-12435741D01*
X9568823Y-12435741D02*
X9549775Y-12426217D01*
X9549775Y-12426217D02*
X9521203Y-12426217D01*
X9521203Y-12426217D02*
X9502156Y-12416693D01*
X9502156Y-12416693D02*
X9492632Y-12397646D01*
X9492632Y-12397646D02*
X9492632Y-12388122D01*
X9492632Y-12388122D02*
X9502156Y-12369074D01*
X9502156Y-12369074D02*
X9521203Y-12359550D01*
X9521203Y-12359550D02*
X9549775Y-12359550D01*
X9549775Y-12359550D02*
X9568823Y-12369074D01*
X9645013Y-12569074D02*
X9654537Y-12559550D01*
X9654537Y-12559550D02*
X9673584Y-12530979D01*
X9673584Y-12530979D02*
X9683108Y-12511931D01*
X9683108Y-12511931D02*
X9692632Y-12483360D01*
X9692632Y-12483360D02*
X9702156Y-12435741D01*
X9702156Y-12435741D02*
X9702156Y-12397646D01*
X9702156Y-12397646D02*
X9692632Y-12350027D01*
X9692632Y-12350027D02*
X9683108Y-12321455D01*
X9683108Y-12321455D02*
X9673584Y-12302408D01*
X9673584Y-12302408D02*
X9654537Y-12273836D01*
X9654537Y-12273836D02*
X9645013Y-12264312D01*
X10006918Y-12569074D02*
X9997394Y-12559550D01*
X9997394Y-12559550D02*
X9978346Y-12530979D01*
X9978346Y-12530979D02*
X9968823Y-12511931D01*
X9968823Y-12511931D02*
X9959299Y-12483360D01*
X9959299Y-12483360D02*
X9949775Y-12435741D01*
X9949775Y-12435741D02*
X9949775Y-12397646D01*
X9949775Y-12397646D02*
X9959299Y-12350027D01*
X9959299Y-12350027D02*
X9968823Y-12321455D01*
X9968823Y-12321455D02*
X9978346Y-12302408D01*
X9978346Y-12302408D02*
X9997394Y-12273836D01*
X9997394Y-12273836D02*
X10006918Y-12264312D01*
X10083108Y-12359550D02*
X10083108Y-12492884D01*
X10083108Y-12378598D02*
X10092632Y-12369074D01*
X10092632Y-12369074D02*
X10111680Y-12359550D01*
X10111680Y-12359550D02*
X10140251Y-12359550D01*
X10140251Y-12359550D02*
X10159299Y-12369074D01*
X10159299Y-12369074D02*
X10168823Y-12388122D01*
X10168823Y-12388122D02*
X10168823Y-12492884D01*
X10292632Y-12492884D02*
X10273584Y-12483360D01*
X10273584Y-12483360D02*
X10264061Y-12473836D01*
X10264061Y-12473836D02*
X10254537Y-12454788D01*
X10254537Y-12454788D02*
X10254537Y-12397646D01*
X10254537Y-12397646D02*
X10264061Y-12378598D01*
X10264061Y-12378598D02*
X10273584Y-12369074D01*
X10273584Y-12369074D02*
X10292632Y-12359550D01*
X10292632Y-12359550D02*
X10321204Y-12359550D01*
X10321204Y-12359550D02*
X10340251Y-12369074D01*
X10340251Y-12369074D02*
X10349775Y-12378598D01*
X10349775Y-12378598D02*
X10359299Y-12397646D01*
X10359299Y-12397646D02*
X10359299Y-12454788D01*
X10359299Y-12454788D02*
X10349775Y-12473836D01*
X10349775Y-12473836D02*
X10340251Y-12483360D01*
X10340251Y-12483360D02*
X10321204Y-12492884D01*
X10321204Y-12492884D02*
X10292632Y-12492884D01*
X10416442Y-12359550D02*
X10492632Y-12359550D01*
X10445013Y-12292884D02*
X10445013Y-12464312D01*
X10445013Y-12464312D02*
X10454537Y-12483360D01*
X10454537Y-12483360D02*
X10473584Y-12492884D01*
X10473584Y-12492884D02*
X10492632Y-12492884D01*
X10711680Y-12359550D02*
X10711680Y-12559550D01*
X10711680Y-12369074D02*
X10730727Y-12359550D01*
X10730727Y-12359550D02*
X10768823Y-12359550D01*
X10768823Y-12359550D02*
X10787870Y-12369074D01*
X10787870Y-12369074D02*
X10797394Y-12378598D01*
X10797394Y-12378598D02*
X10806918Y-12397646D01*
X10806918Y-12397646D02*
X10806918Y-12454788D01*
X10806918Y-12454788D02*
X10797394Y-12473836D01*
X10797394Y-12473836D02*
X10787870Y-12483360D01*
X10787870Y-12483360D02*
X10768823Y-12492884D01*
X10768823Y-12492884D02*
X10730727Y-12492884D01*
X10730727Y-12492884D02*
X10711680Y-12483360D01*
X10921204Y-12492884D02*
X10902156Y-12483360D01*
X10902156Y-12483360D02*
X10892632Y-12464312D01*
X10892632Y-12464312D02*
X10892632Y-12292884D01*
X11083108Y-12492884D02*
X11083108Y-12388122D01*
X11083108Y-12388122D02*
X11073585Y-12369074D01*
X11073585Y-12369074D02*
X11054537Y-12359550D01*
X11054537Y-12359550D02*
X11016442Y-12359550D01*
X11016442Y-12359550D02*
X10997394Y-12369074D01*
X11083108Y-12483360D02*
X11064061Y-12492884D01*
X11064061Y-12492884D02*
X11016442Y-12492884D01*
X11016442Y-12492884D02*
X10997394Y-12483360D01*
X10997394Y-12483360D02*
X10987870Y-12464312D01*
X10987870Y-12464312D02*
X10987870Y-12445265D01*
X10987870Y-12445265D02*
X10997394Y-12426217D01*
X10997394Y-12426217D02*
X11016442Y-12416693D01*
X11016442Y-12416693D02*
X11064061Y-12416693D01*
X11064061Y-12416693D02*
X11083108Y-12407169D01*
X11149775Y-12359550D02*
X11225965Y-12359550D01*
X11178346Y-12292884D02*
X11178346Y-12464312D01*
X11178346Y-12464312D02*
X11187870Y-12483360D01*
X11187870Y-12483360D02*
X11206918Y-12492884D01*
X11206918Y-12492884D02*
X11225965Y-12492884D01*
X11368823Y-12483360D02*
X11349775Y-12492884D01*
X11349775Y-12492884D02*
X11311680Y-12492884D01*
X11311680Y-12492884D02*
X11292632Y-12483360D01*
X11292632Y-12483360D02*
X11283108Y-12464312D01*
X11283108Y-12464312D02*
X11283108Y-12388122D01*
X11283108Y-12388122D02*
X11292632Y-12369074D01*
X11292632Y-12369074D02*
X11311680Y-12359550D01*
X11311680Y-12359550D02*
X11349775Y-12359550D01*
X11349775Y-12359550D02*
X11368823Y-12369074D01*
X11368823Y-12369074D02*
X11378346Y-12388122D01*
X11378346Y-12388122D02*
X11378346Y-12407169D01*
X11378346Y-12407169D02*
X11283108Y-12426217D01*
X11549775Y-12492884D02*
X11549775Y-12292884D01*
X11549775Y-12483360D02*
X11530727Y-12492884D01*
X11530727Y-12492884D02*
X11492632Y-12492884D01*
X11492632Y-12492884D02*
X11473584Y-12483360D01*
X11473584Y-12483360D02*
X11464061Y-12473836D01*
X11464061Y-12473836D02*
X11454537Y-12454788D01*
X11454537Y-12454788D02*
X11454537Y-12397646D01*
X11454537Y-12397646D02*
X11464061Y-12378598D01*
X11464061Y-12378598D02*
X11473584Y-12369074D01*
X11473584Y-12369074D02*
X11492632Y-12359550D01*
X11492632Y-12359550D02*
X11530727Y-12359550D01*
X11530727Y-12359550D02*
X11549775Y-12369074D01*
X11625965Y-12569074D02*
X11635489Y-12559550D01*
X11635489Y-12559550D02*
X11654537Y-12530979D01*
X11654537Y-12530979D02*
X11664061Y-12511931D01*
X11664061Y-12511931D02*
X11673584Y-12483360D01*
X11673584Y-12483360D02*
X11683108Y-12435741D01*
X11683108Y-12435741D02*
X11683108Y-12397646D01*
X11683108Y-12397646D02*
X11673584Y-12350027D01*
X11673584Y-12350027D02*
X11664061Y-12321455D01*
X11664061Y-12321455D02*
X11654537Y-12302408D01*
X11654537Y-12302408D02*
X11635489Y-12273836D01*
X11635489Y-12273836D02*
X11625965Y-12264312D01*
D13*
X4869950Y-12665400D02*
G75*
G03*
X4869950Y-12665400I-49530J0D01*
G01*
D11*
X5168822Y-12556884D02*
X5187870Y-12556884D01*
X5187870Y-12556884D02*
X5206917Y-12566408D01*
X5206917Y-12566408D02*
X5216441Y-12575931D01*
X5216441Y-12575931D02*
X5225965Y-12594979D01*
X5225965Y-12594979D02*
X5235489Y-12633074D01*
X5235489Y-12633074D02*
X5235489Y-12680693D01*
X5235489Y-12680693D02*
X5225965Y-12718788D01*
X5225965Y-12718788D02*
X5216441Y-12737836D01*
X5216441Y-12737836D02*
X5206917Y-12747360D01*
X5206917Y-12747360D02*
X5187870Y-12756884D01*
X5187870Y-12756884D02*
X5168822Y-12756884D01*
X5168822Y-12756884D02*
X5149774Y-12747360D01*
X5149774Y-12747360D02*
X5140251Y-12737836D01*
X5140251Y-12737836D02*
X5130727Y-12718788D01*
X5130727Y-12718788D02*
X5121203Y-12680693D01*
X5121203Y-12680693D02*
X5121203Y-12633074D01*
X5121203Y-12633074D02*
X5130727Y-12594979D01*
X5130727Y-12594979D02*
X5140251Y-12575931D01*
X5140251Y-12575931D02*
X5149774Y-12566408D01*
X5149774Y-12566408D02*
X5168822Y-12556884D01*
X5321203Y-12737836D02*
X5330727Y-12747360D01*
X5330727Y-12747360D02*
X5321203Y-12756884D01*
X5321203Y-12756884D02*
X5311679Y-12747360D01*
X5311679Y-12747360D02*
X5321203Y-12737836D01*
X5321203Y-12737836D02*
X5321203Y-12756884D01*
X5425965Y-12756884D02*
X5464060Y-12756884D01*
X5464060Y-12756884D02*
X5483108Y-12747360D01*
X5483108Y-12747360D02*
X5492632Y-12737836D01*
X5492632Y-12737836D02*
X5511679Y-12709265D01*
X5511679Y-12709265D02*
X5521203Y-12671169D01*
X5521203Y-12671169D02*
X5521203Y-12594979D01*
X5521203Y-12594979D02*
X5511679Y-12575931D01*
X5511679Y-12575931D02*
X5502155Y-12566408D01*
X5502155Y-12566408D02*
X5483108Y-12556884D01*
X5483108Y-12556884D02*
X5445013Y-12556884D01*
X5445013Y-12556884D02*
X5425965Y-12566408D01*
X5425965Y-12566408D02*
X5416441Y-12575931D01*
X5416441Y-12575931D02*
X5406917Y-12594979D01*
X5406917Y-12594979D02*
X5406917Y-12642598D01*
X5406917Y-12642598D02*
X5416441Y-12661646D01*
X5416441Y-12661646D02*
X5425965Y-12671169D01*
X5425965Y-12671169D02*
X5445013Y-12680693D01*
X5445013Y-12680693D02*
X5483108Y-12680693D01*
X5483108Y-12680693D02*
X5502155Y-12671169D01*
X5502155Y-12671169D02*
X5511679Y-12661646D01*
X5511679Y-12661646D02*
X5521203Y-12642598D01*
X5616441Y-12756884D02*
X5654536Y-12756884D01*
X5654536Y-12756884D02*
X5673584Y-12747360D01*
X5673584Y-12747360D02*
X5683108Y-12737836D01*
X5683108Y-12737836D02*
X5702155Y-12709265D01*
X5702155Y-12709265D02*
X5711679Y-12671169D01*
X5711679Y-12671169D02*
X5711679Y-12594979D01*
X5711679Y-12594979D02*
X5702155Y-12575931D01*
X5702155Y-12575931D02*
X5692632Y-12566408D01*
X5692632Y-12566408D02*
X5673584Y-12556884D01*
X5673584Y-12556884D02*
X5635489Y-12556884D01*
X5635489Y-12556884D02*
X5616441Y-12566408D01*
X5616441Y-12566408D02*
X5606917Y-12575931D01*
X5606917Y-12575931D02*
X5597393Y-12594979D01*
X5597393Y-12594979D02*
X5597393Y-12642598D01*
X5597393Y-12642598D02*
X5606917Y-12661646D01*
X5606917Y-12661646D02*
X5616441Y-12671169D01*
X5616441Y-12671169D02*
X5635489Y-12680693D01*
X5635489Y-12680693D02*
X5673584Y-12680693D01*
X5673584Y-12680693D02*
X5692632Y-12671169D01*
X5692632Y-12671169D02*
X5702155Y-12661646D01*
X5702155Y-12661646D02*
X5711679Y-12642598D01*
X5902155Y-12756884D02*
X5787870Y-12756884D01*
X5845012Y-12756884D02*
X5845012Y-12556884D01*
X5845012Y-12556884D02*
X5825965Y-12585455D01*
X5825965Y-12585455D02*
X5806917Y-12604503D01*
X5806917Y-12604503D02*
X5787870Y-12614027D01*
X5987870Y-12756884D02*
X5987870Y-12623550D01*
X5987870Y-12642598D02*
X5997393Y-12633074D01*
X5997393Y-12633074D02*
X6016441Y-12623550D01*
X6016441Y-12623550D02*
X6045013Y-12623550D01*
X6045013Y-12623550D02*
X6064060Y-12633074D01*
X6064060Y-12633074D02*
X6073584Y-12652122D01*
X6073584Y-12652122D02*
X6073584Y-12756884D01*
X6073584Y-12652122D02*
X6083108Y-12633074D01*
X6083108Y-12633074D02*
X6102155Y-12623550D01*
X6102155Y-12623550D02*
X6130727Y-12623550D01*
X6130727Y-12623550D02*
X6149774Y-12633074D01*
X6149774Y-12633074D02*
X6159298Y-12652122D01*
X6159298Y-12652122D02*
X6159298Y-12756884D01*
X6254536Y-12756884D02*
X6254536Y-12623550D01*
X6254536Y-12642598D02*
X6264060Y-12633074D01*
X6264060Y-12633074D02*
X6283108Y-12623550D01*
X6283108Y-12623550D02*
X6311679Y-12623550D01*
X6311679Y-12623550D02*
X6330727Y-12633074D01*
X6330727Y-12633074D02*
X6340251Y-12652122D01*
X6340251Y-12652122D02*
X6340251Y-12756884D01*
X6340251Y-12652122D02*
X6349774Y-12633074D01*
X6349774Y-12633074D02*
X6368822Y-12623550D01*
X6368822Y-12623550D02*
X6397393Y-12623550D01*
X6397393Y-12623550D02*
X6416441Y-12633074D01*
X6416441Y-12633074D02*
X6425965Y-12652122D01*
X6425965Y-12652122D02*
X6425965Y-12756884D01*
X6816441Y-12547360D02*
X6645013Y-12804503D01*
X7073584Y-12556884D02*
X7092632Y-12556884D01*
X7092632Y-12556884D02*
X7111679Y-12566408D01*
X7111679Y-12566408D02*
X7121203Y-12575931D01*
X7121203Y-12575931D02*
X7130727Y-12594979D01*
X7130727Y-12594979D02*
X7140251Y-12633074D01*
X7140251Y-12633074D02*
X7140251Y-12680693D01*
X7140251Y-12680693D02*
X7130727Y-12718788D01*
X7130727Y-12718788D02*
X7121203Y-12737836D01*
X7121203Y-12737836D02*
X7111679Y-12747360D01*
X7111679Y-12747360D02*
X7092632Y-12756884D01*
X7092632Y-12756884D02*
X7073584Y-12756884D01*
X7073584Y-12756884D02*
X7054536Y-12747360D01*
X7054536Y-12747360D02*
X7045013Y-12737836D01*
X7045013Y-12737836D02*
X7035489Y-12718788D01*
X7035489Y-12718788D02*
X7025965Y-12680693D01*
X7025965Y-12680693D02*
X7025965Y-12633074D01*
X7025965Y-12633074D02*
X7035489Y-12594979D01*
X7035489Y-12594979D02*
X7045013Y-12575931D01*
X7045013Y-12575931D02*
X7054536Y-12566408D01*
X7054536Y-12566408D02*
X7073584Y-12556884D01*
X7225965Y-12737836D02*
X7235489Y-12747360D01*
X7235489Y-12747360D02*
X7225965Y-12756884D01*
X7225965Y-12756884D02*
X7216441Y-12747360D01*
X7216441Y-12747360D02*
X7225965Y-12737836D01*
X7225965Y-12737836D02*
X7225965Y-12756884D01*
X7359298Y-12556884D02*
X7378346Y-12556884D01*
X7378346Y-12556884D02*
X7397394Y-12566408D01*
X7397394Y-12566408D02*
X7406917Y-12575931D01*
X7406917Y-12575931D02*
X7416441Y-12594979D01*
X7416441Y-12594979D02*
X7425965Y-12633074D01*
X7425965Y-12633074D02*
X7425965Y-12680693D01*
X7425965Y-12680693D02*
X7416441Y-12718788D01*
X7416441Y-12718788D02*
X7406917Y-12737836D01*
X7406917Y-12737836D02*
X7397394Y-12747360D01*
X7397394Y-12747360D02*
X7378346Y-12756884D01*
X7378346Y-12756884D02*
X7359298Y-12756884D01*
X7359298Y-12756884D02*
X7340251Y-12747360D01*
X7340251Y-12747360D02*
X7330727Y-12737836D01*
X7330727Y-12737836D02*
X7321203Y-12718788D01*
X7321203Y-12718788D02*
X7311679Y-12680693D01*
X7311679Y-12680693D02*
X7311679Y-12633074D01*
X7311679Y-12633074D02*
X7321203Y-12594979D01*
X7321203Y-12594979D02*
X7330727Y-12575931D01*
X7330727Y-12575931D02*
X7340251Y-12566408D01*
X7340251Y-12566408D02*
X7359298Y-12556884D01*
X7492632Y-12556884D02*
X7616441Y-12556884D01*
X7616441Y-12556884D02*
X7549775Y-12633074D01*
X7549775Y-12633074D02*
X7578346Y-12633074D01*
X7578346Y-12633074D02*
X7597394Y-12642598D01*
X7597394Y-12642598D02*
X7606917Y-12652122D01*
X7606917Y-12652122D02*
X7616441Y-12671169D01*
X7616441Y-12671169D02*
X7616441Y-12718788D01*
X7616441Y-12718788D02*
X7606917Y-12737836D01*
X7606917Y-12737836D02*
X7597394Y-12747360D01*
X7597394Y-12747360D02*
X7578346Y-12756884D01*
X7578346Y-12756884D02*
X7521203Y-12756884D01*
X7521203Y-12756884D02*
X7502156Y-12747360D01*
X7502156Y-12747360D02*
X7492632Y-12737836D01*
X7711679Y-12756884D02*
X7749775Y-12756884D01*
X7749775Y-12756884D02*
X7768822Y-12747360D01*
X7768822Y-12747360D02*
X7778346Y-12737836D01*
X7778346Y-12737836D02*
X7797394Y-12709265D01*
X7797394Y-12709265D02*
X7806917Y-12671169D01*
X7806917Y-12671169D02*
X7806917Y-12594979D01*
X7806917Y-12594979D02*
X7797394Y-12575931D01*
X7797394Y-12575931D02*
X7787870Y-12566408D01*
X7787870Y-12566408D02*
X7768822Y-12556884D01*
X7768822Y-12556884D02*
X7730727Y-12556884D01*
X7730727Y-12556884D02*
X7711679Y-12566408D01*
X7711679Y-12566408D02*
X7702156Y-12575931D01*
X7702156Y-12575931D02*
X7692632Y-12594979D01*
X7692632Y-12594979D02*
X7692632Y-12642598D01*
X7692632Y-12642598D02*
X7702156Y-12661646D01*
X7702156Y-12661646D02*
X7711679Y-12671169D01*
X7711679Y-12671169D02*
X7730727Y-12680693D01*
X7730727Y-12680693D02*
X7768822Y-12680693D01*
X7768822Y-12680693D02*
X7787870Y-12671169D01*
X7787870Y-12671169D02*
X7797394Y-12661646D01*
X7797394Y-12661646D02*
X7806917Y-12642598D01*
X7930727Y-12556884D02*
X7949775Y-12556884D01*
X7949775Y-12556884D02*
X7968822Y-12566408D01*
X7968822Y-12566408D02*
X7978346Y-12575931D01*
X7978346Y-12575931D02*
X7987870Y-12594979D01*
X7987870Y-12594979D02*
X7997394Y-12633074D01*
X7997394Y-12633074D02*
X7997394Y-12680693D01*
X7997394Y-12680693D02*
X7987870Y-12718788D01*
X7987870Y-12718788D02*
X7978346Y-12737836D01*
X7978346Y-12737836D02*
X7968822Y-12747360D01*
X7968822Y-12747360D02*
X7949775Y-12756884D01*
X7949775Y-12756884D02*
X7930727Y-12756884D01*
X7930727Y-12756884D02*
X7911679Y-12747360D01*
X7911679Y-12747360D02*
X7902156Y-12737836D01*
X7902156Y-12737836D02*
X7892632Y-12718788D01*
X7892632Y-12718788D02*
X7883108Y-12680693D01*
X7883108Y-12680693D02*
X7883108Y-12633074D01*
X7883108Y-12633074D02*
X7892632Y-12594979D01*
X7892632Y-12594979D02*
X7902156Y-12575931D01*
X7902156Y-12575931D02*
X7911679Y-12566408D01*
X7911679Y-12566408D02*
X7930727Y-12556884D01*
X8073584Y-12556884D02*
X8073584Y-12594979D01*
X8149775Y-12556884D02*
X8149775Y-12594979D01*
X8445013Y-12833074D02*
X8435489Y-12823550D01*
X8435489Y-12823550D02*
X8416441Y-12794979D01*
X8416441Y-12794979D02*
X8406918Y-12775931D01*
X8406918Y-12775931D02*
X8397394Y-12747360D01*
X8397394Y-12747360D02*
X8387870Y-12699741D01*
X8387870Y-12699741D02*
X8387870Y-12661646D01*
X8387870Y-12661646D02*
X8397394Y-12614027D01*
X8397394Y-12614027D02*
X8406918Y-12585455D01*
X8406918Y-12585455D02*
X8416441Y-12566408D01*
X8416441Y-12566408D02*
X8435489Y-12537836D01*
X8435489Y-12537836D02*
X8445013Y-12528312D01*
X8511680Y-12575931D02*
X8521203Y-12566408D01*
X8521203Y-12566408D02*
X8540251Y-12556884D01*
X8540251Y-12556884D02*
X8587870Y-12556884D01*
X8587870Y-12556884D02*
X8606918Y-12566408D01*
X8606918Y-12566408D02*
X8616441Y-12575931D01*
X8616441Y-12575931D02*
X8625965Y-12594979D01*
X8625965Y-12594979D02*
X8625965Y-12614027D01*
X8625965Y-12614027D02*
X8616441Y-12642598D01*
X8616441Y-12642598D02*
X8502156Y-12756884D01*
X8502156Y-12756884D02*
X8625965Y-12756884D01*
X8692632Y-12556884D02*
X8816441Y-12556884D01*
X8816441Y-12556884D02*
X8749775Y-12633074D01*
X8749775Y-12633074D02*
X8778346Y-12633074D01*
X8778346Y-12633074D02*
X8797394Y-12642598D01*
X8797394Y-12642598D02*
X8806918Y-12652122D01*
X8806918Y-12652122D02*
X8816441Y-12671169D01*
X8816441Y-12671169D02*
X8816441Y-12718788D01*
X8816441Y-12718788D02*
X8806918Y-12737836D01*
X8806918Y-12737836D02*
X8797394Y-12747360D01*
X8797394Y-12747360D02*
X8778346Y-12756884D01*
X8778346Y-12756884D02*
X8721203Y-12756884D01*
X8721203Y-12756884D02*
X8702156Y-12747360D01*
X8702156Y-12747360D02*
X8692632Y-12737836D01*
X9054537Y-12756884D02*
X9054537Y-12556884D01*
X9140251Y-12756884D02*
X9140251Y-12652122D01*
X9140251Y-12652122D02*
X9130727Y-12633074D01*
X9130727Y-12633074D02*
X9111680Y-12623550D01*
X9111680Y-12623550D02*
X9083108Y-12623550D01*
X9083108Y-12623550D02*
X9064061Y-12633074D01*
X9064061Y-12633074D02*
X9054537Y-12642598D01*
X9264061Y-12756884D02*
X9245013Y-12747360D01*
X9245013Y-12747360D02*
X9235489Y-12737836D01*
X9235489Y-12737836D02*
X9225965Y-12718788D01*
X9225965Y-12718788D02*
X9225965Y-12661646D01*
X9225965Y-12661646D02*
X9235489Y-12642598D01*
X9235489Y-12642598D02*
X9245013Y-12633074D01*
X9245013Y-12633074D02*
X9264061Y-12623550D01*
X9264061Y-12623550D02*
X9292632Y-12623550D01*
X9292632Y-12623550D02*
X9311680Y-12633074D01*
X9311680Y-12633074D02*
X9321203Y-12642598D01*
X9321203Y-12642598D02*
X9330727Y-12661646D01*
X9330727Y-12661646D02*
X9330727Y-12718788D01*
X9330727Y-12718788D02*
X9321203Y-12737836D01*
X9321203Y-12737836D02*
X9311680Y-12747360D01*
X9311680Y-12747360D02*
X9292632Y-12756884D01*
X9292632Y-12756884D02*
X9264061Y-12756884D01*
X9445013Y-12756884D02*
X9425965Y-12747360D01*
X9425965Y-12747360D02*
X9416442Y-12728312D01*
X9416442Y-12728312D02*
X9416442Y-12556884D01*
X9597394Y-12747360D02*
X9578346Y-12756884D01*
X9578346Y-12756884D02*
X9540251Y-12756884D01*
X9540251Y-12756884D02*
X9521203Y-12747360D01*
X9521203Y-12747360D02*
X9511680Y-12728312D01*
X9511680Y-12728312D02*
X9511680Y-12652122D01*
X9511680Y-12652122D02*
X9521203Y-12633074D01*
X9521203Y-12633074D02*
X9540251Y-12623550D01*
X9540251Y-12623550D02*
X9578346Y-12623550D01*
X9578346Y-12623550D02*
X9597394Y-12633074D01*
X9597394Y-12633074D02*
X9606918Y-12652122D01*
X9606918Y-12652122D02*
X9606918Y-12671169D01*
X9606918Y-12671169D02*
X9511680Y-12690217D01*
X9683108Y-12747360D02*
X9702156Y-12756884D01*
X9702156Y-12756884D02*
X9740251Y-12756884D01*
X9740251Y-12756884D02*
X9759299Y-12747360D01*
X9759299Y-12747360D02*
X9768823Y-12728312D01*
X9768823Y-12728312D02*
X9768823Y-12718788D01*
X9768823Y-12718788D02*
X9759299Y-12699741D01*
X9759299Y-12699741D02*
X9740251Y-12690217D01*
X9740251Y-12690217D02*
X9711680Y-12690217D01*
X9711680Y-12690217D02*
X9692632Y-12680693D01*
X9692632Y-12680693D02*
X9683108Y-12661646D01*
X9683108Y-12661646D02*
X9683108Y-12652122D01*
X9683108Y-12652122D02*
X9692632Y-12633074D01*
X9692632Y-12633074D02*
X9711680Y-12623550D01*
X9711680Y-12623550D02*
X9740251Y-12623550D01*
X9740251Y-12623550D02*
X9759299Y-12633074D01*
X9835489Y-12833074D02*
X9845013Y-12823550D01*
X9845013Y-12823550D02*
X9864061Y-12794979D01*
X9864061Y-12794979D02*
X9873584Y-12775931D01*
X9873584Y-12775931D02*
X9883108Y-12747360D01*
X9883108Y-12747360D02*
X9892632Y-12699741D01*
X9892632Y-12699741D02*
X9892632Y-12661646D01*
X9892632Y-12661646D02*
X9883108Y-12614027D01*
X9883108Y-12614027D02*
X9873584Y-12585455D01*
X9873584Y-12585455D02*
X9864061Y-12566408D01*
X9864061Y-12566408D02*
X9845013Y-12537836D01*
X9845013Y-12537836D02*
X9835489Y-12528312D01*
X10197394Y-12833074D02*
X10187870Y-12823550D01*
X10187870Y-12823550D02*
X10168823Y-12794979D01*
X10168823Y-12794979D02*
X10159299Y-12775931D01*
X10159299Y-12775931D02*
X10149775Y-12747360D01*
X10149775Y-12747360D02*
X10140251Y-12699741D01*
X10140251Y-12699741D02*
X10140251Y-12661646D01*
X10140251Y-12661646D02*
X10149775Y-12614027D01*
X10149775Y-12614027D02*
X10159299Y-12585455D01*
X10159299Y-12585455D02*
X10168823Y-12566408D01*
X10168823Y-12566408D02*
X10187870Y-12537836D01*
X10187870Y-12537836D02*
X10197394Y-12528312D01*
X10273584Y-12623550D02*
X10273584Y-12756884D01*
X10273584Y-12642598D02*
X10283108Y-12633074D01*
X10283108Y-12633074D02*
X10302156Y-12623550D01*
X10302156Y-12623550D02*
X10330727Y-12623550D01*
X10330727Y-12623550D02*
X10349775Y-12633074D01*
X10349775Y-12633074D02*
X10359299Y-12652122D01*
X10359299Y-12652122D02*
X10359299Y-12756884D01*
X10483108Y-12756884D02*
X10464061Y-12747360D01*
X10464061Y-12747360D02*
X10454537Y-12737836D01*
X10454537Y-12737836D02*
X10445013Y-12718788D01*
X10445013Y-12718788D02*
X10445013Y-12661646D01*
X10445013Y-12661646D02*
X10454537Y-12642598D01*
X10454537Y-12642598D02*
X10464061Y-12633074D01*
X10464061Y-12633074D02*
X10483108Y-12623550D01*
X10483108Y-12623550D02*
X10511680Y-12623550D01*
X10511680Y-12623550D02*
X10530727Y-12633074D01*
X10530727Y-12633074D02*
X10540251Y-12642598D01*
X10540251Y-12642598D02*
X10549775Y-12661646D01*
X10549775Y-12661646D02*
X10549775Y-12718788D01*
X10549775Y-12718788D02*
X10540251Y-12737836D01*
X10540251Y-12737836D02*
X10530727Y-12747360D01*
X10530727Y-12747360D02*
X10511680Y-12756884D01*
X10511680Y-12756884D02*
X10483108Y-12756884D01*
X10606918Y-12623550D02*
X10683108Y-12623550D01*
X10635489Y-12556884D02*
X10635489Y-12728312D01*
X10635489Y-12728312D02*
X10645013Y-12747360D01*
X10645013Y-12747360D02*
X10664061Y-12756884D01*
X10664061Y-12756884D02*
X10683108Y-12756884D01*
X10902156Y-12623550D02*
X10902156Y-12823550D01*
X10902156Y-12633074D02*
X10921204Y-12623550D01*
X10921204Y-12623550D02*
X10959299Y-12623550D01*
X10959299Y-12623550D02*
X10978346Y-12633074D01*
X10978346Y-12633074D02*
X10987870Y-12642598D01*
X10987870Y-12642598D02*
X10997394Y-12661646D01*
X10997394Y-12661646D02*
X10997394Y-12718788D01*
X10997394Y-12718788D02*
X10987870Y-12737836D01*
X10987870Y-12737836D02*
X10978346Y-12747360D01*
X10978346Y-12747360D02*
X10959299Y-12756884D01*
X10959299Y-12756884D02*
X10921204Y-12756884D01*
X10921204Y-12756884D02*
X10902156Y-12747360D01*
X11111680Y-12756884D02*
X11092632Y-12747360D01*
X11092632Y-12747360D02*
X11083108Y-12728312D01*
X11083108Y-12728312D02*
X11083108Y-12556884D01*
X11273584Y-12756884D02*
X11273584Y-12652122D01*
X11273584Y-12652122D02*
X11264061Y-12633074D01*
X11264061Y-12633074D02*
X11245013Y-12623550D01*
X11245013Y-12623550D02*
X11206918Y-12623550D01*
X11206918Y-12623550D02*
X11187870Y-12633074D01*
X11273584Y-12747360D02*
X11254537Y-12756884D01*
X11254537Y-12756884D02*
X11206918Y-12756884D01*
X11206918Y-12756884D02*
X11187870Y-12747360D01*
X11187870Y-12747360D02*
X11178346Y-12728312D01*
X11178346Y-12728312D02*
X11178346Y-12709265D01*
X11178346Y-12709265D02*
X11187870Y-12690217D01*
X11187870Y-12690217D02*
X11206918Y-12680693D01*
X11206918Y-12680693D02*
X11254537Y-12680693D01*
X11254537Y-12680693D02*
X11273584Y-12671169D01*
X11340251Y-12623550D02*
X11416442Y-12623550D01*
X11368823Y-12556884D02*
X11368823Y-12728312D01*
X11368823Y-12728312D02*
X11378346Y-12747360D01*
X11378346Y-12747360D02*
X11397394Y-12756884D01*
X11397394Y-12756884D02*
X11416442Y-12756884D01*
X11559299Y-12747360D02*
X11540251Y-12756884D01*
X11540251Y-12756884D02*
X11502156Y-12756884D01*
X11502156Y-12756884D02*
X11483108Y-12747360D01*
X11483108Y-12747360D02*
X11473584Y-12728312D01*
X11473584Y-12728312D02*
X11473584Y-12652122D01*
X11473584Y-12652122D02*
X11483108Y-12633074D01*
X11483108Y-12633074D02*
X11502156Y-12623550D01*
X11502156Y-12623550D02*
X11540251Y-12623550D01*
X11540251Y-12623550D02*
X11559299Y-12633074D01*
X11559299Y-12633074D02*
X11568823Y-12652122D01*
X11568823Y-12652122D02*
X11568823Y-12671169D01*
X11568823Y-12671169D02*
X11473584Y-12690217D01*
X11740251Y-12756884D02*
X11740251Y-12556884D01*
X11740251Y-12747360D02*
X11721204Y-12756884D01*
X11721204Y-12756884D02*
X11683108Y-12756884D01*
X11683108Y-12756884D02*
X11664061Y-12747360D01*
X11664061Y-12747360D02*
X11654537Y-12737836D01*
X11654537Y-12737836D02*
X11645013Y-12718788D01*
X11645013Y-12718788D02*
X11645013Y-12661646D01*
X11645013Y-12661646D02*
X11654537Y-12642598D01*
X11654537Y-12642598D02*
X11664061Y-12633074D01*
X11664061Y-12633074D02*
X11683108Y-12623550D01*
X11683108Y-12623550D02*
X11721204Y-12623550D01*
X11721204Y-12623550D02*
X11740251Y-12633074D01*
X11816442Y-12833074D02*
X11825965Y-12823550D01*
X11825965Y-12823550D02*
X11845013Y-12794979D01*
X11845013Y-12794979D02*
X11854537Y-12775931D01*
X11854537Y-12775931D02*
X11864061Y-12747360D01*
X11864061Y-12747360D02*
X11873584Y-12699741D01*
X11873584Y-12699741D02*
X11873584Y-12661646D01*
X11873584Y-12661646D02*
X11864061Y-12614027D01*
X11864061Y-12614027D02*
X11854537Y-12585455D01*
X11854537Y-12585455D02*
X11845013Y-12566408D01*
X11845013Y-12566408D02*
X11825965Y-12537836D01*
X11825965Y-12537836D02*
X11816442Y-12528312D01*
D14*
X4794950Y-12854400D02*
X4794950Y-13004400D01*
X4719950Y-12929400D02*
X4869950Y-12929400D01*
D11*
X5235489Y-13020884D02*
X5121203Y-13020884D01*
X5178346Y-13020884D02*
X5178346Y-12820884D01*
X5178346Y-12820884D02*
X5159298Y-12849455D01*
X5159298Y-12849455D02*
X5140251Y-12868503D01*
X5140251Y-12868503D02*
X5121203Y-12878027D01*
X5321203Y-13001836D02*
X5330727Y-13011360D01*
X5330727Y-13011360D02*
X5321203Y-13020884D01*
X5321203Y-13020884D02*
X5311679Y-13011360D01*
X5311679Y-13011360D02*
X5321203Y-13001836D01*
X5321203Y-13001836D02*
X5321203Y-13020884D01*
X5511679Y-12820884D02*
X5416441Y-12820884D01*
X5416441Y-12820884D02*
X5406917Y-12916122D01*
X5406917Y-12916122D02*
X5416441Y-12906598D01*
X5416441Y-12906598D02*
X5435489Y-12897074D01*
X5435489Y-12897074D02*
X5483108Y-12897074D01*
X5483108Y-12897074D02*
X5502155Y-12906598D01*
X5502155Y-12906598D02*
X5511679Y-12916122D01*
X5511679Y-12916122D02*
X5521203Y-12935169D01*
X5521203Y-12935169D02*
X5521203Y-12982788D01*
X5521203Y-12982788D02*
X5511679Y-13001836D01*
X5511679Y-13001836D02*
X5502155Y-13011360D01*
X5502155Y-13011360D02*
X5483108Y-13020884D01*
X5483108Y-13020884D02*
X5435489Y-13020884D01*
X5435489Y-13020884D02*
X5416441Y-13011360D01*
X5416441Y-13011360D02*
X5406917Y-13001836D01*
X5645012Y-12820884D02*
X5664060Y-12820884D01*
X5664060Y-12820884D02*
X5683108Y-12830408D01*
X5683108Y-12830408D02*
X5692632Y-12839931D01*
X5692632Y-12839931D02*
X5702155Y-12858979D01*
X5702155Y-12858979D02*
X5711679Y-12897074D01*
X5711679Y-12897074D02*
X5711679Y-12944693D01*
X5711679Y-12944693D02*
X5702155Y-12982788D01*
X5702155Y-12982788D02*
X5692632Y-13001836D01*
X5692632Y-13001836D02*
X5683108Y-13011360D01*
X5683108Y-13011360D02*
X5664060Y-13020884D01*
X5664060Y-13020884D02*
X5645012Y-13020884D01*
X5645012Y-13020884D02*
X5625965Y-13011360D01*
X5625965Y-13011360D02*
X5616441Y-13001836D01*
X5616441Y-13001836D02*
X5606917Y-12982788D01*
X5606917Y-12982788D02*
X5597393Y-12944693D01*
X5597393Y-12944693D02*
X5597393Y-12897074D01*
X5597393Y-12897074D02*
X5606917Y-12858979D01*
X5606917Y-12858979D02*
X5616441Y-12839931D01*
X5616441Y-12839931D02*
X5625965Y-12830408D01*
X5625965Y-12830408D02*
X5645012Y-12820884D01*
X5835489Y-12820884D02*
X5854536Y-12820884D01*
X5854536Y-12820884D02*
X5873584Y-12830408D01*
X5873584Y-12830408D02*
X5883108Y-12839931D01*
X5883108Y-12839931D02*
X5892632Y-12858979D01*
X5892632Y-12858979D02*
X5902155Y-12897074D01*
X5902155Y-12897074D02*
X5902155Y-12944693D01*
X5902155Y-12944693D02*
X5892632Y-12982788D01*
X5892632Y-12982788D02*
X5883108Y-13001836D01*
X5883108Y-13001836D02*
X5873584Y-13011360D01*
X5873584Y-13011360D02*
X5854536Y-13020884D01*
X5854536Y-13020884D02*
X5835489Y-13020884D01*
X5835489Y-13020884D02*
X5816441Y-13011360D01*
X5816441Y-13011360D02*
X5806917Y-13001836D01*
X5806917Y-13001836D02*
X5797393Y-12982788D01*
X5797393Y-12982788D02*
X5787870Y-12944693D01*
X5787870Y-12944693D02*
X5787870Y-12897074D01*
X5787870Y-12897074D02*
X5797393Y-12858979D01*
X5797393Y-12858979D02*
X5806917Y-12839931D01*
X5806917Y-12839931D02*
X5816441Y-12830408D01*
X5816441Y-12830408D02*
X5835489Y-12820884D01*
X5987870Y-13020884D02*
X5987870Y-12887550D01*
X5987870Y-12906598D02*
X5997393Y-12897074D01*
X5997393Y-12897074D02*
X6016441Y-12887550D01*
X6016441Y-12887550D02*
X6045013Y-12887550D01*
X6045013Y-12887550D02*
X6064060Y-12897074D01*
X6064060Y-12897074D02*
X6073584Y-12916122D01*
X6073584Y-12916122D02*
X6073584Y-13020884D01*
X6073584Y-12916122D02*
X6083108Y-12897074D01*
X6083108Y-12897074D02*
X6102155Y-12887550D01*
X6102155Y-12887550D02*
X6130727Y-12887550D01*
X6130727Y-12887550D02*
X6149774Y-12897074D01*
X6149774Y-12897074D02*
X6159298Y-12916122D01*
X6159298Y-12916122D02*
X6159298Y-13020884D01*
X6254536Y-13020884D02*
X6254536Y-12887550D01*
X6254536Y-12906598D02*
X6264060Y-12897074D01*
X6264060Y-12897074D02*
X6283108Y-12887550D01*
X6283108Y-12887550D02*
X6311679Y-12887550D01*
X6311679Y-12887550D02*
X6330727Y-12897074D01*
X6330727Y-12897074D02*
X6340251Y-12916122D01*
X6340251Y-12916122D02*
X6340251Y-13020884D01*
X6340251Y-12916122D02*
X6349774Y-12897074D01*
X6349774Y-12897074D02*
X6368822Y-12887550D01*
X6368822Y-12887550D02*
X6397393Y-12887550D01*
X6397393Y-12887550D02*
X6416441Y-12897074D01*
X6416441Y-12897074D02*
X6425965Y-12916122D01*
X6425965Y-12916122D02*
X6425965Y-13020884D01*
X6816441Y-12811360D02*
X6645013Y-13068503D01*
X7073584Y-12820884D02*
X7092632Y-12820884D01*
X7092632Y-12820884D02*
X7111679Y-12830408D01*
X7111679Y-12830408D02*
X7121203Y-12839931D01*
X7121203Y-12839931D02*
X7130727Y-12858979D01*
X7130727Y-12858979D02*
X7140251Y-12897074D01*
X7140251Y-12897074D02*
X7140251Y-12944693D01*
X7140251Y-12944693D02*
X7130727Y-12982788D01*
X7130727Y-12982788D02*
X7121203Y-13001836D01*
X7121203Y-13001836D02*
X7111679Y-13011360D01*
X7111679Y-13011360D02*
X7092632Y-13020884D01*
X7092632Y-13020884D02*
X7073584Y-13020884D01*
X7073584Y-13020884D02*
X7054536Y-13011360D01*
X7054536Y-13011360D02*
X7045013Y-13001836D01*
X7045013Y-13001836D02*
X7035489Y-12982788D01*
X7035489Y-12982788D02*
X7025965Y-12944693D01*
X7025965Y-12944693D02*
X7025965Y-12897074D01*
X7025965Y-12897074D02*
X7035489Y-12858979D01*
X7035489Y-12858979D02*
X7045013Y-12839931D01*
X7045013Y-12839931D02*
X7054536Y-12830408D01*
X7054536Y-12830408D02*
X7073584Y-12820884D01*
X7225965Y-13001836D02*
X7235489Y-13011360D01*
X7235489Y-13011360D02*
X7225965Y-13020884D01*
X7225965Y-13020884D02*
X7216441Y-13011360D01*
X7216441Y-13011360D02*
X7225965Y-13001836D01*
X7225965Y-13001836D02*
X7225965Y-13020884D01*
X7359298Y-12820884D02*
X7378346Y-12820884D01*
X7378346Y-12820884D02*
X7397394Y-12830408D01*
X7397394Y-12830408D02*
X7406917Y-12839931D01*
X7406917Y-12839931D02*
X7416441Y-12858979D01*
X7416441Y-12858979D02*
X7425965Y-12897074D01*
X7425965Y-12897074D02*
X7425965Y-12944693D01*
X7425965Y-12944693D02*
X7416441Y-12982788D01*
X7416441Y-12982788D02*
X7406917Y-13001836D01*
X7406917Y-13001836D02*
X7397394Y-13011360D01*
X7397394Y-13011360D02*
X7378346Y-13020884D01*
X7378346Y-13020884D02*
X7359298Y-13020884D01*
X7359298Y-13020884D02*
X7340251Y-13011360D01*
X7340251Y-13011360D02*
X7330727Y-13001836D01*
X7330727Y-13001836D02*
X7321203Y-12982788D01*
X7321203Y-12982788D02*
X7311679Y-12944693D01*
X7311679Y-12944693D02*
X7311679Y-12897074D01*
X7311679Y-12897074D02*
X7321203Y-12858979D01*
X7321203Y-12858979D02*
X7330727Y-12839931D01*
X7330727Y-12839931D02*
X7340251Y-12830408D01*
X7340251Y-12830408D02*
X7359298Y-12820884D01*
X7606917Y-12820884D02*
X7511679Y-12820884D01*
X7511679Y-12820884D02*
X7502156Y-12916122D01*
X7502156Y-12916122D02*
X7511679Y-12906598D01*
X7511679Y-12906598D02*
X7530727Y-12897074D01*
X7530727Y-12897074D02*
X7578346Y-12897074D01*
X7578346Y-12897074D02*
X7597394Y-12906598D01*
X7597394Y-12906598D02*
X7606917Y-12916122D01*
X7606917Y-12916122D02*
X7616441Y-12935169D01*
X7616441Y-12935169D02*
X7616441Y-12982788D01*
X7616441Y-12982788D02*
X7606917Y-13001836D01*
X7606917Y-13001836D02*
X7597394Y-13011360D01*
X7597394Y-13011360D02*
X7578346Y-13020884D01*
X7578346Y-13020884D02*
X7530727Y-13020884D01*
X7530727Y-13020884D02*
X7511679Y-13011360D01*
X7511679Y-13011360D02*
X7502156Y-13001836D01*
X7711679Y-13020884D02*
X7749775Y-13020884D01*
X7749775Y-13020884D02*
X7768822Y-13011360D01*
X7768822Y-13011360D02*
X7778346Y-13001836D01*
X7778346Y-13001836D02*
X7797394Y-12973265D01*
X7797394Y-12973265D02*
X7806917Y-12935169D01*
X7806917Y-12935169D02*
X7806917Y-12858979D01*
X7806917Y-12858979D02*
X7797394Y-12839931D01*
X7797394Y-12839931D02*
X7787870Y-12830408D01*
X7787870Y-12830408D02*
X7768822Y-12820884D01*
X7768822Y-12820884D02*
X7730727Y-12820884D01*
X7730727Y-12820884D02*
X7711679Y-12830408D01*
X7711679Y-12830408D02*
X7702156Y-12839931D01*
X7702156Y-12839931D02*
X7692632Y-12858979D01*
X7692632Y-12858979D02*
X7692632Y-12906598D01*
X7692632Y-12906598D02*
X7702156Y-12925646D01*
X7702156Y-12925646D02*
X7711679Y-12935169D01*
X7711679Y-12935169D02*
X7730727Y-12944693D01*
X7730727Y-12944693D02*
X7768822Y-12944693D01*
X7768822Y-12944693D02*
X7787870Y-12935169D01*
X7787870Y-12935169D02*
X7797394Y-12925646D01*
X7797394Y-12925646D02*
X7806917Y-12906598D01*
X7997394Y-13020884D02*
X7883108Y-13020884D01*
X7940251Y-13020884D02*
X7940251Y-12820884D01*
X7940251Y-12820884D02*
X7921203Y-12849455D01*
X7921203Y-12849455D02*
X7902156Y-12868503D01*
X7902156Y-12868503D02*
X7883108Y-12878027D01*
X8073584Y-12820884D02*
X8073584Y-12858979D01*
X8149775Y-12820884D02*
X8149775Y-12858979D01*
X8445013Y-13097074D02*
X8435489Y-13087550D01*
X8435489Y-13087550D02*
X8416441Y-13058979D01*
X8416441Y-13058979D02*
X8406918Y-13039931D01*
X8406918Y-13039931D02*
X8397394Y-13011360D01*
X8397394Y-13011360D02*
X8387870Y-12963741D01*
X8387870Y-12963741D02*
X8387870Y-12925646D01*
X8387870Y-12925646D02*
X8397394Y-12878027D01*
X8397394Y-12878027D02*
X8406918Y-12849455D01*
X8406918Y-12849455D02*
X8416441Y-12830408D01*
X8416441Y-12830408D02*
X8435489Y-12801836D01*
X8435489Y-12801836D02*
X8445013Y-12792312D01*
X8625965Y-13020884D02*
X8511680Y-13020884D01*
X8568822Y-13020884D02*
X8568822Y-12820884D01*
X8568822Y-12820884D02*
X8549775Y-12849455D01*
X8549775Y-12849455D02*
X8530727Y-12868503D01*
X8530727Y-12868503D02*
X8511680Y-12878027D01*
X8864061Y-13020884D02*
X8864061Y-12820884D01*
X8949775Y-13020884D02*
X8949775Y-12916122D01*
X8949775Y-12916122D02*
X8940251Y-12897074D01*
X8940251Y-12897074D02*
X8921203Y-12887550D01*
X8921203Y-12887550D02*
X8892632Y-12887550D01*
X8892632Y-12887550D02*
X8873584Y-12897074D01*
X8873584Y-12897074D02*
X8864061Y-12906598D01*
X9073584Y-13020884D02*
X9054537Y-13011360D01*
X9054537Y-13011360D02*
X9045013Y-13001836D01*
X9045013Y-13001836D02*
X9035489Y-12982788D01*
X9035489Y-12982788D02*
X9035489Y-12925646D01*
X9035489Y-12925646D02*
X9045013Y-12906598D01*
X9045013Y-12906598D02*
X9054537Y-12897074D01*
X9054537Y-12897074D02*
X9073584Y-12887550D01*
X9073584Y-12887550D02*
X9102156Y-12887550D01*
X9102156Y-12887550D02*
X9121203Y-12897074D01*
X9121203Y-12897074D02*
X9130727Y-12906598D01*
X9130727Y-12906598D02*
X9140251Y-12925646D01*
X9140251Y-12925646D02*
X9140251Y-12982788D01*
X9140251Y-12982788D02*
X9130727Y-13001836D01*
X9130727Y-13001836D02*
X9121203Y-13011360D01*
X9121203Y-13011360D02*
X9102156Y-13020884D01*
X9102156Y-13020884D02*
X9073584Y-13020884D01*
X9254537Y-13020884D02*
X9235489Y-13011360D01*
X9235489Y-13011360D02*
X9225965Y-12992312D01*
X9225965Y-12992312D02*
X9225965Y-12820884D01*
X9406918Y-13011360D02*
X9387870Y-13020884D01*
X9387870Y-13020884D02*
X9349775Y-13020884D01*
X9349775Y-13020884D02*
X9330727Y-13011360D01*
X9330727Y-13011360D02*
X9321203Y-12992312D01*
X9321203Y-12992312D02*
X9321203Y-12916122D01*
X9321203Y-12916122D02*
X9330727Y-12897074D01*
X9330727Y-12897074D02*
X9349775Y-12887550D01*
X9349775Y-12887550D02*
X9387870Y-12887550D01*
X9387870Y-12887550D02*
X9406918Y-12897074D01*
X9406918Y-12897074D02*
X9416442Y-12916122D01*
X9416442Y-12916122D02*
X9416442Y-12935169D01*
X9416442Y-12935169D02*
X9321203Y-12954217D01*
X9483108Y-13097074D02*
X9492632Y-13087550D01*
X9492632Y-13087550D02*
X9511680Y-13058979D01*
X9511680Y-13058979D02*
X9521203Y-13039931D01*
X9521203Y-13039931D02*
X9530727Y-13011360D01*
X9530727Y-13011360D02*
X9540251Y-12963741D01*
X9540251Y-12963741D02*
X9540251Y-12925646D01*
X9540251Y-12925646D02*
X9530727Y-12878027D01*
X9530727Y-12878027D02*
X9521203Y-12849455D01*
X9521203Y-12849455D02*
X9511680Y-12830408D01*
X9511680Y-12830408D02*
X9492632Y-12801836D01*
X9492632Y-12801836D02*
X9483108Y-12792312D01*
X9845013Y-13097074D02*
X9835489Y-13087550D01*
X9835489Y-13087550D02*
X9816442Y-13058979D01*
X9816442Y-13058979D02*
X9806918Y-13039931D01*
X9806918Y-13039931D02*
X9797394Y-13011360D01*
X9797394Y-13011360D02*
X9787870Y-12963741D01*
X9787870Y-12963741D02*
X9787870Y-12925646D01*
X9787870Y-12925646D02*
X9797394Y-12878027D01*
X9797394Y-12878027D02*
X9806918Y-12849455D01*
X9806918Y-12849455D02*
X9816442Y-12830408D01*
X9816442Y-12830408D02*
X9835489Y-12801836D01*
X9835489Y-12801836D02*
X9845013Y-12792312D01*
X9921203Y-12887550D02*
X9921203Y-13020884D01*
X9921203Y-12906598D02*
X9930727Y-12897074D01*
X9930727Y-12897074D02*
X9949775Y-12887550D01*
X9949775Y-12887550D02*
X9978346Y-12887550D01*
X9978346Y-12887550D02*
X9997394Y-12897074D01*
X9997394Y-12897074D02*
X10006918Y-12916122D01*
X10006918Y-12916122D02*
X10006918Y-13020884D01*
X10130727Y-13020884D02*
X10111680Y-13011360D01*
X10111680Y-13011360D02*
X10102156Y-13001836D01*
X10102156Y-13001836D02*
X10092632Y-12982788D01*
X10092632Y-12982788D02*
X10092632Y-12925646D01*
X10092632Y-12925646D02*
X10102156Y-12906598D01*
X10102156Y-12906598D02*
X10111680Y-12897074D01*
X10111680Y-12897074D02*
X10130727Y-12887550D01*
X10130727Y-12887550D02*
X10159299Y-12887550D01*
X10159299Y-12887550D02*
X10178346Y-12897074D01*
X10178346Y-12897074D02*
X10187870Y-12906598D01*
X10187870Y-12906598D02*
X10197394Y-12925646D01*
X10197394Y-12925646D02*
X10197394Y-12982788D01*
X10197394Y-12982788D02*
X10187870Y-13001836D01*
X10187870Y-13001836D02*
X10178346Y-13011360D01*
X10178346Y-13011360D02*
X10159299Y-13020884D01*
X10159299Y-13020884D02*
X10130727Y-13020884D01*
X10254537Y-12887550D02*
X10330727Y-12887550D01*
X10283108Y-12820884D02*
X10283108Y-12992312D01*
X10283108Y-12992312D02*
X10292632Y-13011360D01*
X10292632Y-13011360D02*
X10311680Y-13020884D01*
X10311680Y-13020884D02*
X10330727Y-13020884D01*
X10549775Y-12887550D02*
X10549775Y-13087550D01*
X10549775Y-12897074D02*
X10568823Y-12887550D01*
X10568823Y-12887550D02*
X10606918Y-12887550D01*
X10606918Y-12887550D02*
X10625965Y-12897074D01*
X10625965Y-12897074D02*
X10635489Y-12906598D01*
X10635489Y-12906598D02*
X10645013Y-12925646D01*
X10645013Y-12925646D02*
X10645013Y-12982788D01*
X10645013Y-12982788D02*
X10635489Y-13001836D01*
X10635489Y-13001836D02*
X10625965Y-13011360D01*
X10625965Y-13011360D02*
X10606918Y-13020884D01*
X10606918Y-13020884D02*
X10568823Y-13020884D01*
X10568823Y-13020884D02*
X10549775Y-13011360D01*
X10759299Y-13020884D02*
X10740251Y-13011360D01*
X10740251Y-13011360D02*
X10730727Y-12992312D01*
X10730727Y-12992312D02*
X10730727Y-12820884D01*
X10921204Y-13020884D02*
X10921204Y-12916122D01*
X10921204Y-12916122D02*
X10911680Y-12897074D01*
X10911680Y-12897074D02*
X10892632Y-12887550D01*
X10892632Y-12887550D02*
X10854537Y-12887550D01*
X10854537Y-12887550D02*
X10835489Y-12897074D01*
X10921204Y-13011360D02*
X10902156Y-13020884D01*
X10902156Y-13020884D02*
X10854537Y-13020884D01*
X10854537Y-13020884D02*
X10835489Y-13011360D01*
X10835489Y-13011360D02*
X10825965Y-12992312D01*
X10825965Y-12992312D02*
X10825965Y-12973265D01*
X10825965Y-12973265D02*
X10835489Y-12954217D01*
X10835489Y-12954217D02*
X10854537Y-12944693D01*
X10854537Y-12944693D02*
X10902156Y-12944693D01*
X10902156Y-12944693D02*
X10921204Y-12935169D01*
X10987870Y-12887550D02*
X11064061Y-12887550D01*
X11016442Y-12820884D02*
X11016442Y-12992312D01*
X11016442Y-12992312D02*
X11025965Y-13011360D01*
X11025965Y-13011360D02*
X11045013Y-13020884D01*
X11045013Y-13020884D02*
X11064061Y-13020884D01*
X11206918Y-13011360D02*
X11187870Y-13020884D01*
X11187870Y-13020884D02*
X11149775Y-13020884D01*
X11149775Y-13020884D02*
X11130727Y-13011360D01*
X11130727Y-13011360D02*
X11121204Y-12992312D01*
X11121204Y-12992312D02*
X11121204Y-12916122D01*
X11121204Y-12916122D02*
X11130727Y-12897074D01*
X11130727Y-12897074D02*
X11149775Y-12887550D01*
X11149775Y-12887550D02*
X11187870Y-12887550D01*
X11187870Y-12887550D02*
X11206918Y-12897074D01*
X11206918Y-12897074D02*
X11216442Y-12916122D01*
X11216442Y-12916122D02*
X11216442Y-12935169D01*
X11216442Y-12935169D02*
X11121204Y-12954217D01*
X11387870Y-13020884D02*
X11387870Y-12820884D01*
X11387870Y-13011360D02*
X11368823Y-13020884D01*
X11368823Y-13020884D02*
X11330727Y-13020884D01*
X11330727Y-13020884D02*
X11311680Y-13011360D01*
X11311680Y-13011360D02*
X11302156Y-13001836D01*
X11302156Y-13001836D02*
X11292632Y-12982788D01*
X11292632Y-12982788D02*
X11292632Y-12925646D01*
X11292632Y-12925646D02*
X11302156Y-12906598D01*
X11302156Y-12906598D02*
X11311680Y-12897074D01*
X11311680Y-12897074D02*
X11330727Y-12887550D01*
X11330727Y-12887550D02*
X11368823Y-12887550D01*
X11368823Y-12887550D02*
X11387870Y-12897074D01*
X11464061Y-13097074D02*
X11473584Y-13087550D01*
X11473584Y-13087550D02*
X11492632Y-13058979D01*
X11492632Y-13058979D02*
X11502156Y-13039931D01*
X11502156Y-13039931D02*
X11511680Y-13011360D01*
X11511680Y-13011360D02*
X11521203Y-12963741D01*
X11521203Y-12963741D02*
X11521203Y-12925646D01*
X11521203Y-12925646D02*
X11511680Y-12878027D01*
X11511680Y-12878027D02*
X11502156Y-12849455D01*
X11502156Y-12849455D02*
X11492632Y-12830408D01*
X11492632Y-12830408D02*
X11473584Y-12801836D01*
X11473584Y-12801836D02*
X11464061Y-12792312D01*
D15*
X4845028Y-13259568D02*
X4845028Y-13139232D01*
X4724692Y-13139232D01*
X4724692Y-13259568D01*
X4845028Y-13259568D01*
D11*
X5235489Y-13290884D02*
X5121203Y-13290884D01*
X5178346Y-13290884D02*
X5178346Y-13090884D01*
X5178346Y-13090884D02*
X5159298Y-13119455D01*
X5159298Y-13119455D02*
X5140251Y-13138503D01*
X5140251Y-13138503D02*
X5121203Y-13148027D01*
X5321203Y-13271836D02*
X5330727Y-13281360D01*
X5330727Y-13281360D02*
X5321203Y-13290884D01*
X5321203Y-13290884D02*
X5311679Y-13281360D01*
X5311679Y-13281360D02*
X5321203Y-13271836D01*
X5321203Y-13271836D02*
X5321203Y-13290884D01*
X5397394Y-13090884D02*
X5530727Y-13090884D01*
X5530727Y-13090884D02*
X5445013Y-13290884D01*
X5645012Y-13090884D02*
X5664060Y-13090884D01*
X5664060Y-13090884D02*
X5683108Y-13100408D01*
X5683108Y-13100408D02*
X5692632Y-13109931D01*
X5692632Y-13109931D02*
X5702155Y-13128979D01*
X5702155Y-13128979D02*
X5711679Y-13167074D01*
X5711679Y-13167074D02*
X5711679Y-13214693D01*
X5711679Y-13214693D02*
X5702155Y-13252788D01*
X5702155Y-13252788D02*
X5692632Y-13271836D01*
X5692632Y-13271836D02*
X5683108Y-13281360D01*
X5683108Y-13281360D02*
X5664060Y-13290884D01*
X5664060Y-13290884D02*
X5645012Y-13290884D01*
X5645012Y-13290884D02*
X5625965Y-13281360D01*
X5625965Y-13281360D02*
X5616441Y-13271836D01*
X5616441Y-13271836D02*
X5606917Y-13252788D01*
X5606917Y-13252788D02*
X5597393Y-13214693D01*
X5597393Y-13214693D02*
X5597393Y-13167074D01*
X5597393Y-13167074D02*
X5606917Y-13128979D01*
X5606917Y-13128979D02*
X5616441Y-13109931D01*
X5616441Y-13109931D02*
X5625965Y-13100408D01*
X5625965Y-13100408D02*
X5645012Y-13090884D01*
X5787870Y-13109931D02*
X5797393Y-13100408D01*
X5797393Y-13100408D02*
X5816441Y-13090884D01*
X5816441Y-13090884D02*
X5864060Y-13090884D01*
X5864060Y-13090884D02*
X5883108Y-13100408D01*
X5883108Y-13100408D02*
X5892632Y-13109931D01*
X5892632Y-13109931D02*
X5902155Y-13128979D01*
X5902155Y-13128979D02*
X5902155Y-13148027D01*
X5902155Y-13148027D02*
X5892632Y-13176598D01*
X5892632Y-13176598D02*
X5778346Y-13290884D01*
X5778346Y-13290884D02*
X5902155Y-13290884D01*
X5987870Y-13290884D02*
X5987870Y-13157550D01*
X5987870Y-13176598D02*
X5997393Y-13167074D01*
X5997393Y-13167074D02*
X6016441Y-13157550D01*
X6016441Y-13157550D02*
X6045013Y-13157550D01*
X6045013Y-13157550D02*
X6064060Y-13167074D01*
X6064060Y-13167074D02*
X6073584Y-13186122D01*
X6073584Y-13186122D02*
X6073584Y-13290884D01*
X6073584Y-13186122D02*
X6083108Y-13167074D01*
X6083108Y-13167074D02*
X6102155Y-13157550D01*
X6102155Y-13157550D02*
X6130727Y-13157550D01*
X6130727Y-13157550D02*
X6149774Y-13167074D01*
X6149774Y-13167074D02*
X6159298Y-13186122D01*
X6159298Y-13186122D02*
X6159298Y-13290884D01*
X6254536Y-13290884D02*
X6254536Y-13157550D01*
X6254536Y-13176598D02*
X6264060Y-13167074D01*
X6264060Y-13167074D02*
X6283108Y-13157550D01*
X6283108Y-13157550D02*
X6311679Y-13157550D01*
X6311679Y-13157550D02*
X6330727Y-13167074D01*
X6330727Y-13167074D02*
X6340251Y-13186122D01*
X6340251Y-13186122D02*
X6340251Y-13290884D01*
X6340251Y-13186122D02*
X6349774Y-13167074D01*
X6349774Y-13167074D02*
X6368822Y-13157550D01*
X6368822Y-13157550D02*
X6397393Y-13157550D01*
X6397393Y-13157550D02*
X6416441Y-13167074D01*
X6416441Y-13167074D02*
X6425965Y-13186122D01*
X6425965Y-13186122D02*
X6425965Y-13290884D01*
X6816441Y-13081360D02*
X6645013Y-13338503D01*
X7073584Y-13090884D02*
X7092632Y-13090884D01*
X7092632Y-13090884D02*
X7111679Y-13100408D01*
X7111679Y-13100408D02*
X7121203Y-13109931D01*
X7121203Y-13109931D02*
X7130727Y-13128979D01*
X7130727Y-13128979D02*
X7140251Y-13167074D01*
X7140251Y-13167074D02*
X7140251Y-13214693D01*
X7140251Y-13214693D02*
X7130727Y-13252788D01*
X7130727Y-13252788D02*
X7121203Y-13271836D01*
X7121203Y-13271836D02*
X7111679Y-13281360D01*
X7111679Y-13281360D02*
X7092632Y-13290884D01*
X7092632Y-13290884D02*
X7073584Y-13290884D01*
X7073584Y-13290884D02*
X7054536Y-13281360D01*
X7054536Y-13281360D02*
X7045013Y-13271836D01*
X7045013Y-13271836D02*
X7035489Y-13252788D01*
X7035489Y-13252788D02*
X7025965Y-13214693D01*
X7025965Y-13214693D02*
X7025965Y-13167074D01*
X7025965Y-13167074D02*
X7035489Y-13128979D01*
X7035489Y-13128979D02*
X7045013Y-13109931D01*
X7045013Y-13109931D02*
X7054536Y-13100408D01*
X7054536Y-13100408D02*
X7073584Y-13090884D01*
X7225965Y-13271836D02*
X7235489Y-13281360D01*
X7235489Y-13281360D02*
X7225965Y-13290884D01*
X7225965Y-13290884D02*
X7216441Y-13281360D01*
X7216441Y-13281360D02*
X7225965Y-13271836D01*
X7225965Y-13271836D02*
X7225965Y-13290884D01*
X7359298Y-13090884D02*
X7378346Y-13090884D01*
X7378346Y-13090884D02*
X7397394Y-13100408D01*
X7397394Y-13100408D02*
X7406917Y-13109931D01*
X7406917Y-13109931D02*
X7416441Y-13128979D01*
X7416441Y-13128979D02*
X7425965Y-13167074D01*
X7425965Y-13167074D02*
X7425965Y-13214693D01*
X7425965Y-13214693D02*
X7416441Y-13252788D01*
X7416441Y-13252788D02*
X7406917Y-13271836D01*
X7406917Y-13271836D02*
X7397394Y-13281360D01*
X7397394Y-13281360D02*
X7378346Y-13290884D01*
X7378346Y-13290884D02*
X7359298Y-13290884D01*
X7359298Y-13290884D02*
X7340251Y-13281360D01*
X7340251Y-13281360D02*
X7330727Y-13271836D01*
X7330727Y-13271836D02*
X7321203Y-13252788D01*
X7321203Y-13252788D02*
X7311679Y-13214693D01*
X7311679Y-13214693D02*
X7311679Y-13167074D01*
X7311679Y-13167074D02*
X7321203Y-13128979D01*
X7321203Y-13128979D02*
X7330727Y-13109931D01*
X7330727Y-13109931D02*
X7340251Y-13100408D01*
X7340251Y-13100408D02*
X7359298Y-13090884D01*
X7597394Y-13090884D02*
X7559298Y-13090884D01*
X7559298Y-13090884D02*
X7540251Y-13100408D01*
X7540251Y-13100408D02*
X7530727Y-13109931D01*
X7530727Y-13109931D02*
X7511679Y-13138503D01*
X7511679Y-13138503D02*
X7502156Y-13176598D01*
X7502156Y-13176598D02*
X7502156Y-13252788D01*
X7502156Y-13252788D02*
X7511679Y-13271836D01*
X7511679Y-13271836D02*
X7521203Y-13281360D01*
X7521203Y-13281360D02*
X7540251Y-13290884D01*
X7540251Y-13290884D02*
X7578346Y-13290884D01*
X7578346Y-13290884D02*
X7597394Y-13281360D01*
X7597394Y-13281360D02*
X7606917Y-13271836D01*
X7606917Y-13271836D02*
X7616441Y-13252788D01*
X7616441Y-13252788D02*
X7616441Y-13205169D01*
X7616441Y-13205169D02*
X7606917Y-13186122D01*
X7606917Y-13186122D02*
X7597394Y-13176598D01*
X7597394Y-13176598D02*
X7578346Y-13167074D01*
X7578346Y-13167074D02*
X7540251Y-13167074D01*
X7540251Y-13167074D02*
X7521203Y-13176598D01*
X7521203Y-13176598D02*
X7511679Y-13186122D01*
X7511679Y-13186122D02*
X7502156Y-13205169D01*
X7683108Y-13090884D02*
X7816441Y-13090884D01*
X7816441Y-13090884D02*
X7730727Y-13290884D01*
X7930727Y-13090884D02*
X7949775Y-13090884D01*
X7949775Y-13090884D02*
X7968822Y-13100408D01*
X7968822Y-13100408D02*
X7978346Y-13109931D01*
X7978346Y-13109931D02*
X7987870Y-13128979D01*
X7987870Y-13128979D02*
X7997394Y-13167074D01*
X7997394Y-13167074D02*
X7997394Y-13214693D01*
X7997394Y-13214693D02*
X7987870Y-13252788D01*
X7987870Y-13252788D02*
X7978346Y-13271836D01*
X7978346Y-13271836D02*
X7968822Y-13281360D01*
X7968822Y-13281360D02*
X7949775Y-13290884D01*
X7949775Y-13290884D02*
X7930727Y-13290884D01*
X7930727Y-13290884D02*
X7911679Y-13281360D01*
X7911679Y-13281360D02*
X7902156Y-13271836D01*
X7902156Y-13271836D02*
X7892632Y-13252788D01*
X7892632Y-13252788D02*
X7883108Y-13214693D01*
X7883108Y-13214693D02*
X7883108Y-13167074D01*
X7883108Y-13167074D02*
X7892632Y-13128979D01*
X7892632Y-13128979D02*
X7902156Y-13109931D01*
X7902156Y-13109931D02*
X7911679Y-13100408D01*
X7911679Y-13100408D02*
X7930727Y-13090884D01*
X8073584Y-13090884D02*
X8073584Y-13128979D01*
X8149775Y-13090884D02*
X8149775Y-13128979D01*
X8445013Y-13367074D02*
X8435489Y-13357550D01*
X8435489Y-13357550D02*
X8416441Y-13328979D01*
X8416441Y-13328979D02*
X8406918Y-13309931D01*
X8406918Y-13309931D02*
X8397394Y-13281360D01*
X8397394Y-13281360D02*
X8387870Y-13233741D01*
X8387870Y-13233741D02*
X8387870Y-13195646D01*
X8387870Y-13195646D02*
X8397394Y-13148027D01*
X8397394Y-13148027D02*
X8406918Y-13119455D01*
X8406918Y-13119455D02*
X8416441Y-13100408D01*
X8416441Y-13100408D02*
X8435489Y-13071836D01*
X8435489Y-13071836D02*
X8445013Y-13062312D01*
X8606918Y-13157550D02*
X8606918Y-13290884D01*
X8559299Y-13081360D02*
X8511680Y-13224217D01*
X8511680Y-13224217D02*
X8635489Y-13224217D01*
X8797394Y-13090884D02*
X8759299Y-13090884D01*
X8759299Y-13090884D02*
X8740251Y-13100408D01*
X8740251Y-13100408D02*
X8730727Y-13109931D01*
X8730727Y-13109931D02*
X8711680Y-13138503D01*
X8711680Y-13138503D02*
X8702156Y-13176598D01*
X8702156Y-13176598D02*
X8702156Y-13252788D01*
X8702156Y-13252788D02*
X8711680Y-13271836D01*
X8711680Y-13271836D02*
X8721203Y-13281360D01*
X8721203Y-13281360D02*
X8740251Y-13290884D01*
X8740251Y-13290884D02*
X8778346Y-13290884D01*
X8778346Y-13290884D02*
X8797394Y-13281360D01*
X8797394Y-13281360D02*
X8806918Y-13271836D01*
X8806918Y-13271836D02*
X8816441Y-13252788D01*
X8816441Y-13252788D02*
X8816441Y-13205169D01*
X8816441Y-13205169D02*
X8806918Y-13186122D01*
X8806918Y-13186122D02*
X8797394Y-13176598D01*
X8797394Y-13176598D02*
X8778346Y-13167074D01*
X8778346Y-13167074D02*
X8740251Y-13167074D01*
X8740251Y-13167074D02*
X8721203Y-13176598D01*
X8721203Y-13176598D02*
X8711680Y-13186122D01*
X8711680Y-13186122D02*
X8702156Y-13205169D01*
X9054537Y-13290884D02*
X9054537Y-13090884D01*
X9140251Y-13290884D02*
X9140251Y-13186122D01*
X9140251Y-13186122D02*
X9130727Y-13167074D01*
X9130727Y-13167074D02*
X9111680Y-13157550D01*
X9111680Y-13157550D02*
X9083108Y-13157550D01*
X9083108Y-13157550D02*
X9064061Y-13167074D01*
X9064061Y-13167074D02*
X9054537Y-13176598D01*
X9264061Y-13290884D02*
X9245013Y-13281360D01*
X9245013Y-13281360D02*
X9235489Y-13271836D01*
X9235489Y-13271836D02*
X9225965Y-13252788D01*
X9225965Y-13252788D02*
X9225965Y-13195646D01*
X9225965Y-13195646D02*
X9235489Y-13176598D01*
X9235489Y-13176598D02*
X9245013Y-13167074D01*
X9245013Y-13167074D02*
X9264061Y-13157550D01*
X9264061Y-13157550D02*
X9292632Y-13157550D01*
X9292632Y-13157550D02*
X9311680Y-13167074D01*
X9311680Y-13167074D02*
X9321203Y-13176598D01*
X9321203Y-13176598D02*
X9330727Y-13195646D01*
X9330727Y-13195646D02*
X9330727Y-13252788D01*
X9330727Y-13252788D02*
X9321203Y-13271836D01*
X9321203Y-13271836D02*
X9311680Y-13281360D01*
X9311680Y-13281360D02*
X9292632Y-13290884D01*
X9292632Y-13290884D02*
X9264061Y-13290884D01*
X9445013Y-13290884D02*
X9425965Y-13281360D01*
X9425965Y-13281360D02*
X9416442Y-13262312D01*
X9416442Y-13262312D02*
X9416442Y-13090884D01*
X9597394Y-13281360D02*
X9578346Y-13290884D01*
X9578346Y-13290884D02*
X9540251Y-13290884D01*
X9540251Y-13290884D02*
X9521203Y-13281360D01*
X9521203Y-13281360D02*
X9511680Y-13262312D01*
X9511680Y-13262312D02*
X9511680Y-13186122D01*
X9511680Y-13186122D02*
X9521203Y-13167074D01*
X9521203Y-13167074D02*
X9540251Y-13157550D01*
X9540251Y-13157550D02*
X9578346Y-13157550D01*
X9578346Y-13157550D02*
X9597394Y-13167074D01*
X9597394Y-13167074D02*
X9606918Y-13186122D01*
X9606918Y-13186122D02*
X9606918Y-13205169D01*
X9606918Y-13205169D02*
X9511680Y-13224217D01*
X9683108Y-13281360D02*
X9702156Y-13290884D01*
X9702156Y-13290884D02*
X9740251Y-13290884D01*
X9740251Y-13290884D02*
X9759299Y-13281360D01*
X9759299Y-13281360D02*
X9768823Y-13262312D01*
X9768823Y-13262312D02*
X9768823Y-13252788D01*
X9768823Y-13252788D02*
X9759299Y-13233741D01*
X9759299Y-13233741D02*
X9740251Y-13224217D01*
X9740251Y-13224217D02*
X9711680Y-13224217D01*
X9711680Y-13224217D02*
X9692632Y-13214693D01*
X9692632Y-13214693D02*
X9683108Y-13195646D01*
X9683108Y-13195646D02*
X9683108Y-13186122D01*
X9683108Y-13186122D02*
X9692632Y-13167074D01*
X9692632Y-13167074D02*
X9711680Y-13157550D01*
X9711680Y-13157550D02*
X9740251Y-13157550D01*
X9740251Y-13157550D02*
X9759299Y-13167074D01*
X9835489Y-13367074D02*
X9845013Y-13357550D01*
X9845013Y-13357550D02*
X9864061Y-13328979D01*
X9864061Y-13328979D02*
X9873584Y-13309931D01*
X9873584Y-13309931D02*
X9883108Y-13281360D01*
X9883108Y-13281360D02*
X9892632Y-13233741D01*
X9892632Y-13233741D02*
X9892632Y-13195646D01*
X9892632Y-13195646D02*
X9883108Y-13148027D01*
X9883108Y-13148027D02*
X9873584Y-13119455D01*
X9873584Y-13119455D02*
X9864061Y-13100408D01*
X9864061Y-13100408D02*
X9845013Y-13071836D01*
X9845013Y-13071836D02*
X9835489Y-13062312D01*
X10197394Y-13367074D02*
X10187870Y-13357550D01*
X10187870Y-13357550D02*
X10168823Y-13328979D01*
X10168823Y-13328979D02*
X10159299Y-13309931D01*
X10159299Y-13309931D02*
X10149775Y-13281360D01*
X10149775Y-13281360D02*
X10140251Y-13233741D01*
X10140251Y-13233741D02*
X10140251Y-13195646D01*
X10140251Y-13195646D02*
X10149775Y-13148027D01*
X10149775Y-13148027D02*
X10159299Y-13119455D01*
X10159299Y-13119455D02*
X10168823Y-13100408D01*
X10168823Y-13100408D02*
X10187870Y-13071836D01*
X10187870Y-13071836D02*
X10197394Y-13062312D01*
X10273584Y-13157550D02*
X10273584Y-13290884D01*
X10273584Y-13176598D02*
X10283108Y-13167074D01*
X10283108Y-13167074D02*
X10302156Y-13157550D01*
X10302156Y-13157550D02*
X10330727Y-13157550D01*
X10330727Y-13157550D02*
X10349775Y-13167074D01*
X10349775Y-13167074D02*
X10359299Y-13186122D01*
X10359299Y-13186122D02*
X10359299Y-13290884D01*
X10483108Y-13290884D02*
X10464061Y-13281360D01*
X10464061Y-13281360D02*
X10454537Y-13271836D01*
X10454537Y-13271836D02*
X10445013Y-13252788D01*
X10445013Y-13252788D02*
X10445013Y-13195646D01*
X10445013Y-13195646D02*
X10454537Y-13176598D01*
X10454537Y-13176598D02*
X10464061Y-13167074D01*
X10464061Y-13167074D02*
X10483108Y-13157550D01*
X10483108Y-13157550D02*
X10511680Y-13157550D01*
X10511680Y-13157550D02*
X10530727Y-13167074D01*
X10530727Y-13167074D02*
X10540251Y-13176598D01*
X10540251Y-13176598D02*
X10549775Y-13195646D01*
X10549775Y-13195646D02*
X10549775Y-13252788D01*
X10549775Y-13252788D02*
X10540251Y-13271836D01*
X10540251Y-13271836D02*
X10530727Y-13281360D01*
X10530727Y-13281360D02*
X10511680Y-13290884D01*
X10511680Y-13290884D02*
X10483108Y-13290884D01*
X10606918Y-13157550D02*
X10683108Y-13157550D01*
X10635489Y-13090884D02*
X10635489Y-13262312D01*
X10635489Y-13262312D02*
X10645013Y-13281360D01*
X10645013Y-13281360D02*
X10664061Y-13290884D01*
X10664061Y-13290884D02*
X10683108Y-13290884D01*
X10902156Y-13157550D02*
X10902156Y-13357550D01*
X10902156Y-13167074D02*
X10921204Y-13157550D01*
X10921204Y-13157550D02*
X10959299Y-13157550D01*
X10959299Y-13157550D02*
X10978346Y-13167074D01*
X10978346Y-13167074D02*
X10987870Y-13176598D01*
X10987870Y-13176598D02*
X10997394Y-13195646D01*
X10997394Y-13195646D02*
X10997394Y-13252788D01*
X10997394Y-13252788D02*
X10987870Y-13271836D01*
X10987870Y-13271836D02*
X10978346Y-13281360D01*
X10978346Y-13281360D02*
X10959299Y-13290884D01*
X10959299Y-13290884D02*
X10921204Y-13290884D01*
X10921204Y-13290884D02*
X10902156Y-13281360D01*
X11111680Y-13290884D02*
X11092632Y-13281360D01*
X11092632Y-13281360D02*
X11083108Y-13262312D01*
X11083108Y-13262312D02*
X11083108Y-13090884D01*
X11273584Y-13290884D02*
X11273584Y-13186122D01*
X11273584Y-13186122D02*
X11264061Y-13167074D01*
X11264061Y-13167074D02*
X11245013Y-13157550D01*
X11245013Y-13157550D02*
X11206918Y-13157550D01*
X11206918Y-13157550D02*
X11187870Y-13167074D01*
X11273584Y-13281360D02*
X11254537Y-13290884D01*
X11254537Y-13290884D02*
X11206918Y-13290884D01*
X11206918Y-13290884D02*
X11187870Y-13281360D01*
X11187870Y-13281360D02*
X11178346Y-13262312D01*
X11178346Y-13262312D02*
X11178346Y-13243265D01*
X11178346Y-13243265D02*
X11187870Y-13224217D01*
X11187870Y-13224217D02*
X11206918Y-13214693D01*
X11206918Y-13214693D02*
X11254537Y-13214693D01*
X11254537Y-13214693D02*
X11273584Y-13205169D01*
X11340251Y-13157550D02*
X11416442Y-13157550D01*
X11368823Y-13090884D02*
X11368823Y-13262312D01*
X11368823Y-13262312D02*
X11378346Y-13281360D01*
X11378346Y-13281360D02*
X11397394Y-13290884D01*
X11397394Y-13290884D02*
X11416442Y-13290884D01*
X11559299Y-13281360D02*
X11540251Y-13290884D01*
X11540251Y-13290884D02*
X11502156Y-13290884D01*
X11502156Y-13290884D02*
X11483108Y-13281360D01*
X11483108Y-13281360D02*
X11473584Y-13262312D01*
X11473584Y-13262312D02*
X11473584Y-13186122D01*
X11473584Y-13186122D02*
X11483108Y-13167074D01*
X11483108Y-13167074D02*
X11502156Y-13157550D01*
X11502156Y-13157550D02*
X11540251Y-13157550D01*
X11540251Y-13157550D02*
X11559299Y-13167074D01*
X11559299Y-13167074D02*
X11568823Y-13186122D01*
X11568823Y-13186122D02*
X11568823Y-13205169D01*
X11568823Y-13205169D02*
X11473584Y-13224217D01*
X11740251Y-13290884D02*
X11740251Y-13090884D01*
X11740251Y-13281360D02*
X11721204Y-13290884D01*
X11721204Y-13290884D02*
X11683108Y-13290884D01*
X11683108Y-13290884D02*
X11664061Y-13281360D01*
X11664061Y-13281360D02*
X11654537Y-13271836D01*
X11654537Y-13271836D02*
X11645013Y-13252788D01*
X11645013Y-13252788D02*
X11645013Y-13195646D01*
X11645013Y-13195646D02*
X11654537Y-13176598D01*
X11654537Y-13176598D02*
X11664061Y-13167074D01*
X11664061Y-13167074D02*
X11683108Y-13157550D01*
X11683108Y-13157550D02*
X11721204Y-13157550D01*
X11721204Y-13157550D02*
X11740251Y-13167074D01*
X11816442Y-13367074D02*
X11825965Y-13357550D01*
X11825965Y-13357550D02*
X11845013Y-13328979D01*
X11845013Y-13328979D02*
X11854537Y-13309931D01*
X11854537Y-13309931D02*
X11864061Y-13281360D01*
X11864061Y-13281360D02*
X11873584Y-13233741D01*
X11873584Y-13233741D02*
X11873584Y-13195646D01*
X11873584Y-13195646D02*
X11864061Y-13148027D01*
X11864061Y-13148027D02*
X11854537Y-13119455D01*
X11854537Y-13119455D02*
X11845013Y-13100408D01*
X11845013Y-13100408D02*
X11825965Y-13071836D01*
X11825965Y-13071836D02*
X11816442Y-13062312D01*
X4769950Y-13589580D02*
X4869950Y-13489580D01*
X4769950Y-13389580D01*
X4669950Y-13489580D01*
X4769950Y-13589580D01*
X5111679Y-13381064D02*
X5235489Y-13381064D01*
X5235489Y-13381064D02*
X5168822Y-13457254D01*
X5168822Y-13457254D02*
X5197394Y-13457254D01*
X5197394Y-13457254D02*
X5216441Y-13466778D01*
X5216441Y-13466778D02*
X5225965Y-13476302D01*
X5225965Y-13476302D02*
X5235489Y-13495349D01*
X5235489Y-13495349D02*
X5235489Y-13542968D01*
X5235489Y-13542968D02*
X5225965Y-13562016D01*
X5225965Y-13562016D02*
X5216441Y-13571540D01*
X5216441Y-13571540D02*
X5197394Y-13581064D01*
X5197394Y-13581064D02*
X5140251Y-13581064D01*
X5140251Y-13581064D02*
X5121203Y-13571540D01*
X5121203Y-13571540D02*
X5111679Y-13562016D01*
X5321203Y-13562016D02*
X5330727Y-13571540D01*
X5330727Y-13571540D02*
X5321203Y-13581064D01*
X5321203Y-13581064D02*
X5311679Y-13571540D01*
X5311679Y-13571540D02*
X5321203Y-13562016D01*
X5321203Y-13562016D02*
X5321203Y-13581064D01*
X5454536Y-13381064D02*
X5473584Y-13381064D01*
X5473584Y-13381064D02*
X5492632Y-13390588D01*
X5492632Y-13390588D02*
X5502155Y-13400111D01*
X5502155Y-13400111D02*
X5511679Y-13419159D01*
X5511679Y-13419159D02*
X5521203Y-13457254D01*
X5521203Y-13457254D02*
X5521203Y-13504873D01*
X5521203Y-13504873D02*
X5511679Y-13542968D01*
X5511679Y-13542968D02*
X5502155Y-13562016D01*
X5502155Y-13562016D02*
X5492632Y-13571540D01*
X5492632Y-13571540D02*
X5473584Y-13581064D01*
X5473584Y-13581064D02*
X5454536Y-13581064D01*
X5454536Y-13581064D02*
X5435489Y-13571540D01*
X5435489Y-13571540D02*
X5425965Y-13562016D01*
X5425965Y-13562016D02*
X5416441Y-13542968D01*
X5416441Y-13542968D02*
X5406917Y-13504873D01*
X5406917Y-13504873D02*
X5406917Y-13457254D01*
X5406917Y-13457254D02*
X5416441Y-13419159D01*
X5416441Y-13419159D02*
X5425965Y-13400111D01*
X5425965Y-13400111D02*
X5435489Y-13390588D01*
X5435489Y-13390588D02*
X5454536Y-13381064D01*
X5645012Y-13381064D02*
X5664060Y-13381064D01*
X5664060Y-13381064D02*
X5683108Y-13390588D01*
X5683108Y-13390588D02*
X5692632Y-13400111D01*
X5692632Y-13400111D02*
X5702155Y-13419159D01*
X5702155Y-13419159D02*
X5711679Y-13457254D01*
X5711679Y-13457254D02*
X5711679Y-13504873D01*
X5711679Y-13504873D02*
X5702155Y-13542968D01*
X5702155Y-13542968D02*
X5692632Y-13562016D01*
X5692632Y-13562016D02*
X5683108Y-13571540D01*
X5683108Y-13571540D02*
X5664060Y-13581064D01*
X5664060Y-13581064D02*
X5645012Y-13581064D01*
X5645012Y-13581064D02*
X5625965Y-13571540D01*
X5625965Y-13571540D02*
X5616441Y-13562016D01*
X5616441Y-13562016D02*
X5606917Y-13542968D01*
X5606917Y-13542968D02*
X5597393Y-13504873D01*
X5597393Y-13504873D02*
X5597393Y-13457254D01*
X5597393Y-13457254D02*
X5606917Y-13419159D01*
X5606917Y-13419159D02*
X5616441Y-13400111D01*
X5616441Y-13400111D02*
X5625965Y-13390588D01*
X5625965Y-13390588D02*
X5645012Y-13381064D01*
X5835489Y-13381064D02*
X5854536Y-13381064D01*
X5854536Y-13381064D02*
X5873584Y-13390588D01*
X5873584Y-13390588D02*
X5883108Y-13400111D01*
X5883108Y-13400111D02*
X5892632Y-13419159D01*
X5892632Y-13419159D02*
X5902155Y-13457254D01*
X5902155Y-13457254D02*
X5902155Y-13504873D01*
X5902155Y-13504873D02*
X5892632Y-13542968D01*
X5892632Y-13542968D02*
X5883108Y-13562016D01*
X5883108Y-13562016D02*
X5873584Y-13571540D01*
X5873584Y-13571540D02*
X5854536Y-13581064D01*
X5854536Y-13581064D02*
X5835489Y-13581064D01*
X5835489Y-13581064D02*
X5816441Y-13571540D01*
X5816441Y-13571540D02*
X5806917Y-13562016D01*
X5806917Y-13562016D02*
X5797393Y-13542968D01*
X5797393Y-13542968D02*
X5787870Y-13504873D01*
X5787870Y-13504873D02*
X5787870Y-13457254D01*
X5787870Y-13457254D02*
X5797393Y-13419159D01*
X5797393Y-13419159D02*
X5806917Y-13400111D01*
X5806917Y-13400111D02*
X5816441Y-13390588D01*
X5816441Y-13390588D02*
X5835489Y-13381064D01*
X5987870Y-13581064D02*
X5987870Y-13447730D01*
X5987870Y-13466778D02*
X5997393Y-13457254D01*
X5997393Y-13457254D02*
X6016441Y-13447730D01*
X6016441Y-13447730D02*
X6045013Y-13447730D01*
X6045013Y-13447730D02*
X6064060Y-13457254D01*
X6064060Y-13457254D02*
X6073584Y-13476302D01*
X6073584Y-13476302D02*
X6073584Y-13581064D01*
X6073584Y-13476302D02*
X6083108Y-13457254D01*
X6083108Y-13457254D02*
X6102155Y-13447730D01*
X6102155Y-13447730D02*
X6130727Y-13447730D01*
X6130727Y-13447730D02*
X6149774Y-13457254D01*
X6149774Y-13457254D02*
X6159298Y-13476302D01*
X6159298Y-13476302D02*
X6159298Y-13581064D01*
X6254536Y-13581064D02*
X6254536Y-13447730D01*
X6254536Y-13466778D02*
X6264060Y-13457254D01*
X6264060Y-13457254D02*
X6283108Y-13447730D01*
X6283108Y-13447730D02*
X6311679Y-13447730D01*
X6311679Y-13447730D02*
X6330727Y-13457254D01*
X6330727Y-13457254D02*
X6340251Y-13476302D01*
X6340251Y-13476302D02*
X6340251Y-13581064D01*
X6340251Y-13476302D02*
X6349774Y-13457254D01*
X6349774Y-13457254D02*
X6368822Y-13447730D01*
X6368822Y-13447730D02*
X6397393Y-13447730D01*
X6397393Y-13447730D02*
X6416441Y-13457254D01*
X6416441Y-13457254D02*
X6425965Y-13476302D01*
X6425965Y-13476302D02*
X6425965Y-13581064D01*
X6816441Y-13371540D02*
X6645013Y-13628683D01*
X7073584Y-13381064D02*
X7092632Y-13381064D01*
X7092632Y-13381064D02*
X7111679Y-13390588D01*
X7111679Y-13390588D02*
X7121203Y-13400111D01*
X7121203Y-13400111D02*
X7130727Y-13419159D01*
X7130727Y-13419159D02*
X7140251Y-13457254D01*
X7140251Y-13457254D02*
X7140251Y-13504873D01*
X7140251Y-13504873D02*
X7130727Y-13542968D01*
X7130727Y-13542968D02*
X7121203Y-13562016D01*
X7121203Y-13562016D02*
X7111679Y-13571540D01*
X7111679Y-13571540D02*
X7092632Y-13581064D01*
X7092632Y-13581064D02*
X7073584Y-13581064D01*
X7073584Y-13581064D02*
X7054536Y-13571540D01*
X7054536Y-13571540D02*
X7045013Y-13562016D01*
X7045013Y-13562016D02*
X7035489Y-13542968D01*
X7035489Y-13542968D02*
X7025965Y-13504873D01*
X7025965Y-13504873D02*
X7025965Y-13457254D01*
X7025965Y-13457254D02*
X7035489Y-13419159D01*
X7035489Y-13419159D02*
X7045013Y-13400111D01*
X7045013Y-13400111D02*
X7054536Y-13390588D01*
X7054536Y-13390588D02*
X7073584Y-13381064D01*
X7225965Y-13562016D02*
X7235489Y-13571540D01*
X7235489Y-13571540D02*
X7225965Y-13581064D01*
X7225965Y-13581064D02*
X7216441Y-13571540D01*
X7216441Y-13571540D02*
X7225965Y-13562016D01*
X7225965Y-13562016D02*
X7225965Y-13581064D01*
X7425965Y-13581064D02*
X7311679Y-13581064D01*
X7368822Y-13581064D02*
X7368822Y-13381064D01*
X7368822Y-13381064D02*
X7349775Y-13409635D01*
X7349775Y-13409635D02*
X7330727Y-13428683D01*
X7330727Y-13428683D02*
X7311679Y-13438207D01*
X7616441Y-13581064D02*
X7502156Y-13581064D01*
X7559298Y-13581064D02*
X7559298Y-13381064D01*
X7559298Y-13381064D02*
X7540251Y-13409635D01*
X7540251Y-13409635D02*
X7521203Y-13428683D01*
X7521203Y-13428683D02*
X7502156Y-13438207D01*
X7730727Y-13466778D02*
X7711679Y-13457254D01*
X7711679Y-13457254D02*
X7702156Y-13447730D01*
X7702156Y-13447730D02*
X7692632Y-13428683D01*
X7692632Y-13428683D02*
X7692632Y-13419159D01*
X7692632Y-13419159D02*
X7702156Y-13400111D01*
X7702156Y-13400111D02*
X7711679Y-13390588D01*
X7711679Y-13390588D02*
X7730727Y-13381064D01*
X7730727Y-13381064D02*
X7768822Y-13381064D01*
X7768822Y-13381064D02*
X7787870Y-13390588D01*
X7787870Y-13390588D02*
X7797394Y-13400111D01*
X7797394Y-13400111D02*
X7806917Y-13419159D01*
X7806917Y-13419159D02*
X7806917Y-13428683D01*
X7806917Y-13428683D02*
X7797394Y-13447730D01*
X7797394Y-13447730D02*
X7787870Y-13457254D01*
X7787870Y-13457254D02*
X7768822Y-13466778D01*
X7768822Y-13466778D02*
X7730727Y-13466778D01*
X7730727Y-13466778D02*
X7711679Y-13476302D01*
X7711679Y-13476302D02*
X7702156Y-13485826D01*
X7702156Y-13485826D02*
X7692632Y-13504873D01*
X7692632Y-13504873D02*
X7692632Y-13542968D01*
X7692632Y-13542968D02*
X7702156Y-13562016D01*
X7702156Y-13562016D02*
X7711679Y-13571540D01*
X7711679Y-13571540D02*
X7730727Y-13581064D01*
X7730727Y-13581064D02*
X7768822Y-13581064D01*
X7768822Y-13581064D02*
X7787870Y-13571540D01*
X7787870Y-13571540D02*
X7797394Y-13562016D01*
X7797394Y-13562016D02*
X7806917Y-13542968D01*
X7806917Y-13542968D02*
X7806917Y-13504873D01*
X7806917Y-13504873D02*
X7797394Y-13485826D01*
X7797394Y-13485826D02*
X7787870Y-13476302D01*
X7787870Y-13476302D02*
X7768822Y-13466778D01*
X7997394Y-13581064D02*
X7883108Y-13581064D01*
X7940251Y-13581064D02*
X7940251Y-13381064D01*
X7940251Y-13381064D02*
X7921203Y-13409635D01*
X7921203Y-13409635D02*
X7902156Y-13428683D01*
X7902156Y-13428683D02*
X7883108Y-13438207D01*
X8073584Y-13381064D02*
X8073584Y-13419159D01*
X8149775Y-13381064D02*
X8149775Y-13419159D01*
X8445013Y-13657254D02*
X8435489Y-13647730D01*
X8435489Y-13647730D02*
X8416441Y-13619159D01*
X8416441Y-13619159D02*
X8406918Y-13600111D01*
X8406918Y-13600111D02*
X8397394Y-13571540D01*
X8397394Y-13571540D02*
X8387870Y-13523921D01*
X8387870Y-13523921D02*
X8387870Y-13485826D01*
X8387870Y-13485826D02*
X8397394Y-13438207D01*
X8397394Y-13438207D02*
X8406918Y-13409635D01*
X8406918Y-13409635D02*
X8416441Y-13390588D01*
X8416441Y-13390588D02*
X8435489Y-13362016D01*
X8435489Y-13362016D02*
X8445013Y-13352492D01*
X8606918Y-13447730D02*
X8606918Y-13581064D01*
X8559299Y-13371540D02*
X8511680Y-13514397D01*
X8511680Y-13514397D02*
X8635489Y-13514397D01*
X8797394Y-13381064D02*
X8759299Y-13381064D01*
X8759299Y-13381064D02*
X8740251Y-13390588D01*
X8740251Y-13390588D02*
X8730727Y-13400111D01*
X8730727Y-13400111D02*
X8711680Y-13428683D01*
X8711680Y-13428683D02*
X8702156Y-13466778D01*
X8702156Y-13466778D02*
X8702156Y-13542968D01*
X8702156Y-13542968D02*
X8711680Y-13562016D01*
X8711680Y-13562016D02*
X8721203Y-13571540D01*
X8721203Y-13571540D02*
X8740251Y-13581064D01*
X8740251Y-13581064D02*
X8778346Y-13581064D01*
X8778346Y-13581064D02*
X8797394Y-13571540D01*
X8797394Y-13571540D02*
X8806918Y-13562016D01*
X8806918Y-13562016D02*
X8816441Y-13542968D01*
X8816441Y-13542968D02*
X8816441Y-13495349D01*
X8816441Y-13495349D02*
X8806918Y-13476302D01*
X8806918Y-13476302D02*
X8797394Y-13466778D01*
X8797394Y-13466778D02*
X8778346Y-13457254D01*
X8778346Y-13457254D02*
X8740251Y-13457254D01*
X8740251Y-13457254D02*
X8721203Y-13466778D01*
X8721203Y-13466778D02*
X8711680Y-13476302D01*
X8711680Y-13476302D02*
X8702156Y-13495349D01*
X9054537Y-13581064D02*
X9054537Y-13381064D01*
X9140251Y-13581064D02*
X9140251Y-13476302D01*
X9140251Y-13476302D02*
X9130727Y-13457254D01*
X9130727Y-13457254D02*
X9111680Y-13447730D01*
X9111680Y-13447730D02*
X9083108Y-13447730D01*
X9083108Y-13447730D02*
X9064061Y-13457254D01*
X9064061Y-13457254D02*
X9054537Y-13466778D01*
X9264061Y-13581064D02*
X9245013Y-13571540D01*
X9245013Y-13571540D02*
X9235489Y-13562016D01*
X9235489Y-13562016D02*
X9225965Y-13542968D01*
X9225965Y-13542968D02*
X9225965Y-13485826D01*
X9225965Y-13485826D02*
X9235489Y-13466778D01*
X9235489Y-13466778D02*
X9245013Y-13457254D01*
X9245013Y-13457254D02*
X9264061Y-13447730D01*
X9264061Y-13447730D02*
X9292632Y-13447730D01*
X9292632Y-13447730D02*
X9311680Y-13457254D01*
X9311680Y-13457254D02*
X9321203Y-13466778D01*
X9321203Y-13466778D02*
X9330727Y-13485826D01*
X9330727Y-13485826D02*
X9330727Y-13542968D01*
X9330727Y-13542968D02*
X9321203Y-13562016D01*
X9321203Y-13562016D02*
X9311680Y-13571540D01*
X9311680Y-13571540D02*
X9292632Y-13581064D01*
X9292632Y-13581064D02*
X9264061Y-13581064D01*
X9445013Y-13581064D02*
X9425965Y-13571540D01*
X9425965Y-13571540D02*
X9416442Y-13552492D01*
X9416442Y-13552492D02*
X9416442Y-13381064D01*
X9597394Y-13571540D02*
X9578346Y-13581064D01*
X9578346Y-13581064D02*
X9540251Y-13581064D01*
X9540251Y-13581064D02*
X9521203Y-13571540D01*
X9521203Y-13571540D02*
X9511680Y-13552492D01*
X9511680Y-13552492D02*
X9511680Y-13476302D01*
X9511680Y-13476302D02*
X9521203Y-13457254D01*
X9521203Y-13457254D02*
X9540251Y-13447730D01*
X9540251Y-13447730D02*
X9578346Y-13447730D01*
X9578346Y-13447730D02*
X9597394Y-13457254D01*
X9597394Y-13457254D02*
X9606918Y-13476302D01*
X9606918Y-13476302D02*
X9606918Y-13495349D01*
X9606918Y-13495349D02*
X9511680Y-13514397D01*
X9683108Y-13571540D02*
X9702156Y-13581064D01*
X9702156Y-13581064D02*
X9740251Y-13581064D01*
X9740251Y-13581064D02*
X9759299Y-13571540D01*
X9759299Y-13571540D02*
X9768823Y-13552492D01*
X9768823Y-13552492D02*
X9768823Y-13542968D01*
X9768823Y-13542968D02*
X9759299Y-13523921D01*
X9759299Y-13523921D02*
X9740251Y-13514397D01*
X9740251Y-13514397D02*
X9711680Y-13514397D01*
X9711680Y-13514397D02*
X9692632Y-13504873D01*
X9692632Y-13504873D02*
X9683108Y-13485826D01*
X9683108Y-13485826D02*
X9683108Y-13476302D01*
X9683108Y-13476302D02*
X9692632Y-13457254D01*
X9692632Y-13457254D02*
X9711680Y-13447730D01*
X9711680Y-13447730D02*
X9740251Y-13447730D01*
X9740251Y-13447730D02*
X9759299Y-13457254D01*
X9835489Y-13657254D02*
X9845013Y-13647730D01*
X9845013Y-13647730D02*
X9864061Y-13619159D01*
X9864061Y-13619159D02*
X9873584Y-13600111D01*
X9873584Y-13600111D02*
X9883108Y-13571540D01*
X9883108Y-13571540D02*
X9892632Y-13523921D01*
X9892632Y-13523921D02*
X9892632Y-13485826D01*
X9892632Y-13485826D02*
X9883108Y-13438207D01*
X9883108Y-13438207D02*
X9873584Y-13409635D01*
X9873584Y-13409635D02*
X9864061Y-13390588D01*
X9864061Y-13390588D02*
X9845013Y-13362016D01*
X9845013Y-13362016D02*
X9835489Y-13352492D01*
X10197394Y-13657254D02*
X10187870Y-13647730D01*
X10187870Y-13647730D02*
X10168823Y-13619159D01*
X10168823Y-13619159D02*
X10159299Y-13600111D01*
X10159299Y-13600111D02*
X10149775Y-13571540D01*
X10149775Y-13571540D02*
X10140251Y-13523921D01*
X10140251Y-13523921D02*
X10140251Y-13485826D01*
X10140251Y-13485826D02*
X10149775Y-13438207D01*
X10149775Y-13438207D02*
X10159299Y-13409635D01*
X10159299Y-13409635D02*
X10168823Y-13390588D01*
X10168823Y-13390588D02*
X10187870Y-13362016D01*
X10187870Y-13362016D02*
X10197394Y-13352492D01*
X10273584Y-13447730D02*
X10273584Y-13581064D01*
X10273584Y-13466778D02*
X10283108Y-13457254D01*
X10283108Y-13457254D02*
X10302156Y-13447730D01*
X10302156Y-13447730D02*
X10330727Y-13447730D01*
X10330727Y-13447730D02*
X10349775Y-13457254D01*
X10349775Y-13457254D02*
X10359299Y-13476302D01*
X10359299Y-13476302D02*
X10359299Y-13581064D01*
X10483108Y-13581064D02*
X10464061Y-13571540D01*
X10464061Y-13571540D02*
X10454537Y-13562016D01*
X10454537Y-13562016D02*
X10445013Y-13542968D01*
X10445013Y-13542968D02*
X10445013Y-13485826D01*
X10445013Y-13485826D02*
X10454537Y-13466778D01*
X10454537Y-13466778D02*
X10464061Y-13457254D01*
X10464061Y-13457254D02*
X10483108Y-13447730D01*
X10483108Y-13447730D02*
X10511680Y-13447730D01*
X10511680Y-13447730D02*
X10530727Y-13457254D01*
X10530727Y-13457254D02*
X10540251Y-13466778D01*
X10540251Y-13466778D02*
X10549775Y-13485826D01*
X10549775Y-13485826D02*
X10549775Y-13542968D01*
X10549775Y-13542968D02*
X10540251Y-13562016D01*
X10540251Y-13562016D02*
X10530727Y-13571540D01*
X10530727Y-13571540D02*
X10511680Y-13581064D01*
X10511680Y-13581064D02*
X10483108Y-13581064D01*
X10606918Y-13447730D02*
X10683108Y-13447730D01*
X10635489Y-13381064D02*
X10635489Y-13552492D01*
X10635489Y-13552492D02*
X10645013Y-13571540D01*
X10645013Y-13571540D02*
X10664061Y-13581064D01*
X10664061Y-13581064D02*
X10683108Y-13581064D01*
X10902156Y-13447730D02*
X10902156Y-13647730D01*
X10902156Y-13457254D02*
X10921204Y-13447730D01*
X10921204Y-13447730D02*
X10959299Y-13447730D01*
X10959299Y-13447730D02*
X10978346Y-13457254D01*
X10978346Y-13457254D02*
X10987870Y-13466778D01*
X10987870Y-13466778D02*
X10997394Y-13485826D01*
X10997394Y-13485826D02*
X10997394Y-13542968D01*
X10997394Y-13542968D02*
X10987870Y-13562016D01*
X10987870Y-13562016D02*
X10978346Y-13571540D01*
X10978346Y-13571540D02*
X10959299Y-13581064D01*
X10959299Y-13581064D02*
X10921204Y-13581064D01*
X10921204Y-13581064D02*
X10902156Y-13571540D01*
X11111680Y-13581064D02*
X11092632Y-13571540D01*
X11092632Y-13571540D02*
X11083108Y-13552492D01*
X11083108Y-13552492D02*
X11083108Y-13381064D01*
X11273584Y-13581064D02*
X11273584Y-13476302D01*
X11273584Y-13476302D02*
X11264061Y-13457254D01*
X11264061Y-13457254D02*
X11245013Y-13447730D01*
X11245013Y-13447730D02*
X11206918Y-13447730D01*
X11206918Y-13447730D02*
X11187870Y-13457254D01*
X11273584Y-13571540D02*
X11254537Y-13581064D01*
X11254537Y-13581064D02*
X11206918Y-13581064D01*
X11206918Y-13581064D02*
X11187870Y-13571540D01*
X11187870Y-13571540D02*
X11178346Y-13552492D01*
X11178346Y-13552492D02*
X11178346Y-13533445D01*
X11178346Y-13533445D02*
X11187870Y-13514397D01*
X11187870Y-13514397D02*
X11206918Y-13504873D01*
X11206918Y-13504873D02*
X11254537Y-13504873D01*
X11254537Y-13504873D02*
X11273584Y-13495349D01*
X11340251Y-13447730D02*
X11416442Y-13447730D01*
X11368823Y-13381064D02*
X11368823Y-13552492D01*
X11368823Y-13552492D02*
X11378346Y-13571540D01*
X11378346Y-13571540D02*
X11397394Y-13581064D01*
X11397394Y-13581064D02*
X11416442Y-13581064D01*
X11559299Y-13571540D02*
X11540251Y-13581064D01*
X11540251Y-13581064D02*
X11502156Y-13581064D01*
X11502156Y-13581064D02*
X11483108Y-13571540D01*
X11483108Y-13571540D02*
X11473584Y-13552492D01*
X11473584Y-13552492D02*
X11473584Y-13476302D01*
X11473584Y-13476302D02*
X11483108Y-13457254D01*
X11483108Y-13457254D02*
X11502156Y-13447730D01*
X11502156Y-13447730D02*
X11540251Y-13447730D01*
X11540251Y-13447730D02*
X11559299Y-13457254D01*
X11559299Y-13457254D02*
X11568823Y-13476302D01*
X11568823Y-13476302D02*
X11568823Y-13495349D01*
X11568823Y-13495349D02*
X11473584Y-13514397D01*
X11740251Y-13581064D02*
X11740251Y-13381064D01*
X11740251Y-13571540D02*
X11721204Y-13581064D01*
X11721204Y-13581064D02*
X11683108Y-13581064D01*
X11683108Y-13581064D02*
X11664061Y-13571540D01*
X11664061Y-13571540D02*
X11654537Y-13562016D01*
X11654537Y-13562016D02*
X11645013Y-13542968D01*
X11645013Y-13542968D02*
X11645013Y-13485826D01*
X11645013Y-13485826D02*
X11654537Y-13466778D01*
X11654537Y-13466778D02*
X11664061Y-13457254D01*
X11664061Y-13457254D02*
X11683108Y-13447730D01*
X11683108Y-13447730D02*
X11721204Y-13447730D01*
X11721204Y-13447730D02*
X11740251Y-13457254D01*
X11816442Y-13657254D02*
X11825965Y-13647730D01*
X11825965Y-13647730D02*
X11845013Y-13619159D01*
X11845013Y-13619159D02*
X11854537Y-13600111D01*
X11854537Y-13600111D02*
X11864061Y-13571540D01*
X11864061Y-13571540D02*
X11873584Y-13523921D01*
X11873584Y-13523921D02*
X11873584Y-13485826D01*
X11873584Y-13485826D02*
X11864061Y-13438207D01*
X11864061Y-13438207D02*
X11854537Y-13409635D01*
X11854537Y-13409635D02*
X11845013Y-13390588D01*
X11845013Y-13390588D02*
X11825965Y-13362016D01*
X11825965Y-13362016D02*
X11816442Y-13352492D01*
X4669950Y-13709580D02*
X4869950Y-13909580D01*
X4869950Y-13709580D02*
X4669950Y-13909580D01*
X4869950Y-13809580D02*
G75*
G03*
X4869950Y-13809580I-100000J0D01*
G01*
X5111679Y-13701064D02*
X5235489Y-13701064D01*
X5235489Y-13701064D02*
X5168822Y-13777254D01*
X5168822Y-13777254D02*
X5197394Y-13777254D01*
X5197394Y-13777254D02*
X5216441Y-13786778D01*
X5216441Y-13786778D02*
X5225965Y-13796302D01*
X5225965Y-13796302D02*
X5235489Y-13815349D01*
X5235489Y-13815349D02*
X5235489Y-13862968D01*
X5235489Y-13862968D02*
X5225965Y-13882016D01*
X5225965Y-13882016D02*
X5216441Y-13891540D01*
X5216441Y-13891540D02*
X5197394Y-13901064D01*
X5197394Y-13901064D02*
X5140251Y-13901064D01*
X5140251Y-13901064D02*
X5121203Y-13891540D01*
X5121203Y-13891540D02*
X5111679Y-13882016D01*
X5321203Y-13882016D02*
X5330727Y-13891540D01*
X5330727Y-13891540D02*
X5321203Y-13901064D01*
X5321203Y-13901064D02*
X5311679Y-13891540D01*
X5311679Y-13891540D02*
X5321203Y-13882016D01*
X5321203Y-13882016D02*
X5321203Y-13901064D01*
X5502155Y-13767730D02*
X5502155Y-13901064D01*
X5454536Y-13691540D02*
X5406917Y-13834397D01*
X5406917Y-13834397D02*
X5530727Y-13834397D01*
X5597393Y-13720111D02*
X5606917Y-13710588D01*
X5606917Y-13710588D02*
X5625965Y-13701064D01*
X5625965Y-13701064D02*
X5673584Y-13701064D01*
X5673584Y-13701064D02*
X5692632Y-13710588D01*
X5692632Y-13710588D02*
X5702155Y-13720111D01*
X5702155Y-13720111D02*
X5711679Y-13739159D01*
X5711679Y-13739159D02*
X5711679Y-13758207D01*
X5711679Y-13758207D02*
X5702155Y-13786778D01*
X5702155Y-13786778D02*
X5587870Y-13901064D01*
X5587870Y-13901064D02*
X5711679Y-13901064D01*
X5806917Y-13901064D02*
X5845012Y-13901064D01*
X5845012Y-13901064D02*
X5864060Y-13891540D01*
X5864060Y-13891540D02*
X5873584Y-13882016D01*
X5873584Y-13882016D02*
X5892632Y-13853445D01*
X5892632Y-13853445D02*
X5902155Y-13815349D01*
X5902155Y-13815349D02*
X5902155Y-13739159D01*
X5902155Y-13739159D02*
X5892632Y-13720111D01*
X5892632Y-13720111D02*
X5883108Y-13710588D01*
X5883108Y-13710588D02*
X5864060Y-13701064D01*
X5864060Y-13701064D02*
X5825965Y-13701064D01*
X5825965Y-13701064D02*
X5806917Y-13710588D01*
X5806917Y-13710588D02*
X5797393Y-13720111D01*
X5797393Y-13720111D02*
X5787870Y-13739159D01*
X5787870Y-13739159D02*
X5787870Y-13786778D01*
X5787870Y-13786778D02*
X5797393Y-13805826D01*
X5797393Y-13805826D02*
X5806917Y-13815349D01*
X5806917Y-13815349D02*
X5825965Y-13824873D01*
X5825965Y-13824873D02*
X5864060Y-13824873D01*
X5864060Y-13824873D02*
X5883108Y-13815349D01*
X5883108Y-13815349D02*
X5892632Y-13805826D01*
X5892632Y-13805826D02*
X5902155Y-13786778D01*
X5987870Y-13901064D02*
X5987870Y-13767730D01*
X5987870Y-13786778D02*
X5997393Y-13777254D01*
X5997393Y-13777254D02*
X6016441Y-13767730D01*
X6016441Y-13767730D02*
X6045013Y-13767730D01*
X6045013Y-13767730D02*
X6064060Y-13777254D01*
X6064060Y-13777254D02*
X6073584Y-13796302D01*
X6073584Y-13796302D02*
X6073584Y-13901064D01*
X6073584Y-13796302D02*
X6083108Y-13777254D01*
X6083108Y-13777254D02*
X6102155Y-13767730D01*
X6102155Y-13767730D02*
X6130727Y-13767730D01*
X6130727Y-13767730D02*
X6149774Y-13777254D01*
X6149774Y-13777254D02*
X6159298Y-13796302D01*
X6159298Y-13796302D02*
X6159298Y-13901064D01*
X6254536Y-13901064D02*
X6254536Y-13767730D01*
X6254536Y-13786778D02*
X6264060Y-13777254D01*
X6264060Y-13777254D02*
X6283108Y-13767730D01*
X6283108Y-13767730D02*
X6311679Y-13767730D01*
X6311679Y-13767730D02*
X6330727Y-13777254D01*
X6330727Y-13777254D02*
X6340251Y-13796302D01*
X6340251Y-13796302D02*
X6340251Y-13901064D01*
X6340251Y-13796302D02*
X6349774Y-13777254D01*
X6349774Y-13777254D02*
X6368822Y-13767730D01*
X6368822Y-13767730D02*
X6397393Y-13767730D01*
X6397393Y-13767730D02*
X6416441Y-13777254D01*
X6416441Y-13777254D02*
X6425965Y-13796302D01*
X6425965Y-13796302D02*
X6425965Y-13901064D01*
X6816441Y-13691540D02*
X6645013Y-13948683D01*
X7073584Y-13701064D02*
X7092632Y-13701064D01*
X7092632Y-13701064D02*
X7111679Y-13710588D01*
X7111679Y-13710588D02*
X7121203Y-13720111D01*
X7121203Y-13720111D02*
X7130727Y-13739159D01*
X7130727Y-13739159D02*
X7140251Y-13777254D01*
X7140251Y-13777254D02*
X7140251Y-13824873D01*
X7140251Y-13824873D02*
X7130727Y-13862968D01*
X7130727Y-13862968D02*
X7121203Y-13882016D01*
X7121203Y-13882016D02*
X7111679Y-13891540D01*
X7111679Y-13891540D02*
X7092632Y-13901064D01*
X7092632Y-13901064D02*
X7073584Y-13901064D01*
X7073584Y-13901064D02*
X7054536Y-13891540D01*
X7054536Y-13891540D02*
X7045013Y-13882016D01*
X7045013Y-13882016D02*
X7035489Y-13862968D01*
X7035489Y-13862968D02*
X7025965Y-13824873D01*
X7025965Y-13824873D02*
X7025965Y-13777254D01*
X7025965Y-13777254D02*
X7035489Y-13739159D01*
X7035489Y-13739159D02*
X7045013Y-13720111D01*
X7045013Y-13720111D02*
X7054536Y-13710588D01*
X7054536Y-13710588D02*
X7073584Y-13701064D01*
X7225965Y-13882016D02*
X7235489Y-13891540D01*
X7235489Y-13891540D02*
X7225965Y-13901064D01*
X7225965Y-13901064D02*
X7216441Y-13891540D01*
X7216441Y-13891540D02*
X7225965Y-13882016D01*
X7225965Y-13882016D02*
X7225965Y-13901064D01*
X7425965Y-13901064D02*
X7311679Y-13901064D01*
X7368822Y-13901064D02*
X7368822Y-13701064D01*
X7368822Y-13701064D02*
X7349775Y-13729635D01*
X7349775Y-13729635D02*
X7330727Y-13748683D01*
X7330727Y-13748683D02*
X7311679Y-13758207D01*
X7492632Y-13701064D02*
X7616441Y-13701064D01*
X7616441Y-13701064D02*
X7549775Y-13777254D01*
X7549775Y-13777254D02*
X7578346Y-13777254D01*
X7578346Y-13777254D02*
X7597394Y-13786778D01*
X7597394Y-13786778D02*
X7606917Y-13796302D01*
X7606917Y-13796302D02*
X7616441Y-13815349D01*
X7616441Y-13815349D02*
X7616441Y-13862968D01*
X7616441Y-13862968D02*
X7606917Y-13882016D01*
X7606917Y-13882016D02*
X7597394Y-13891540D01*
X7597394Y-13891540D02*
X7578346Y-13901064D01*
X7578346Y-13901064D02*
X7521203Y-13901064D01*
X7521203Y-13901064D02*
X7502156Y-13891540D01*
X7502156Y-13891540D02*
X7492632Y-13882016D01*
X7797394Y-13701064D02*
X7702156Y-13701064D01*
X7702156Y-13701064D02*
X7692632Y-13796302D01*
X7692632Y-13796302D02*
X7702156Y-13786778D01*
X7702156Y-13786778D02*
X7721203Y-13777254D01*
X7721203Y-13777254D02*
X7768822Y-13777254D01*
X7768822Y-13777254D02*
X7787870Y-13786778D01*
X7787870Y-13786778D02*
X7797394Y-13796302D01*
X7797394Y-13796302D02*
X7806917Y-13815349D01*
X7806917Y-13815349D02*
X7806917Y-13862968D01*
X7806917Y-13862968D02*
X7797394Y-13882016D01*
X7797394Y-13882016D02*
X7787870Y-13891540D01*
X7787870Y-13891540D02*
X7768822Y-13901064D01*
X7768822Y-13901064D02*
X7721203Y-13901064D01*
X7721203Y-13901064D02*
X7702156Y-13891540D01*
X7702156Y-13891540D02*
X7692632Y-13882016D01*
X7930727Y-13701064D02*
X7949775Y-13701064D01*
X7949775Y-13701064D02*
X7968822Y-13710588D01*
X7968822Y-13710588D02*
X7978346Y-13720111D01*
X7978346Y-13720111D02*
X7987870Y-13739159D01*
X7987870Y-13739159D02*
X7997394Y-13777254D01*
X7997394Y-13777254D02*
X7997394Y-13824873D01*
X7997394Y-13824873D02*
X7987870Y-13862968D01*
X7987870Y-13862968D02*
X7978346Y-13882016D01*
X7978346Y-13882016D02*
X7968822Y-13891540D01*
X7968822Y-13891540D02*
X7949775Y-13901064D01*
X7949775Y-13901064D02*
X7930727Y-13901064D01*
X7930727Y-13901064D02*
X7911679Y-13891540D01*
X7911679Y-13891540D02*
X7902156Y-13882016D01*
X7902156Y-13882016D02*
X7892632Y-13862968D01*
X7892632Y-13862968D02*
X7883108Y-13824873D01*
X7883108Y-13824873D02*
X7883108Y-13777254D01*
X7883108Y-13777254D02*
X7892632Y-13739159D01*
X7892632Y-13739159D02*
X7902156Y-13720111D01*
X7902156Y-13720111D02*
X7911679Y-13710588D01*
X7911679Y-13710588D02*
X7930727Y-13701064D01*
X8073584Y-13701064D02*
X8073584Y-13739159D01*
X8149775Y-13701064D02*
X8149775Y-13739159D01*
X8445013Y-13977254D02*
X8435489Y-13967730D01*
X8435489Y-13967730D02*
X8416441Y-13939159D01*
X8416441Y-13939159D02*
X8406918Y-13920111D01*
X8406918Y-13920111D02*
X8397394Y-13891540D01*
X8397394Y-13891540D02*
X8387870Y-13843921D01*
X8387870Y-13843921D02*
X8387870Y-13805826D01*
X8387870Y-13805826D02*
X8397394Y-13758207D01*
X8397394Y-13758207D02*
X8406918Y-13729635D01*
X8406918Y-13729635D02*
X8416441Y-13710588D01*
X8416441Y-13710588D02*
X8435489Y-13682016D01*
X8435489Y-13682016D02*
X8445013Y-13672492D01*
X8511680Y-13720111D02*
X8521203Y-13710588D01*
X8521203Y-13710588D02*
X8540251Y-13701064D01*
X8540251Y-13701064D02*
X8587870Y-13701064D01*
X8587870Y-13701064D02*
X8606918Y-13710588D01*
X8606918Y-13710588D02*
X8616441Y-13720111D01*
X8616441Y-13720111D02*
X8625965Y-13739159D01*
X8625965Y-13739159D02*
X8625965Y-13758207D01*
X8625965Y-13758207D02*
X8616441Y-13786778D01*
X8616441Y-13786778D02*
X8502156Y-13901064D01*
X8502156Y-13901064D02*
X8625965Y-13901064D01*
X8692632Y-13701064D02*
X8816441Y-13701064D01*
X8816441Y-13701064D02*
X8749775Y-13777254D01*
X8749775Y-13777254D02*
X8778346Y-13777254D01*
X8778346Y-13777254D02*
X8797394Y-13786778D01*
X8797394Y-13786778D02*
X8806918Y-13796302D01*
X8806918Y-13796302D02*
X8816441Y-13815349D01*
X8816441Y-13815349D02*
X8816441Y-13862968D01*
X8816441Y-13862968D02*
X8806918Y-13882016D01*
X8806918Y-13882016D02*
X8797394Y-13891540D01*
X8797394Y-13891540D02*
X8778346Y-13901064D01*
X8778346Y-13901064D02*
X8721203Y-13901064D01*
X8721203Y-13901064D02*
X8702156Y-13891540D01*
X8702156Y-13891540D02*
X8692632Y-13882016D01*
X9054537Y-13901064D02*
X9054537Y-13701064D01*
X9140251Y-13901064D02*
X9140251Y-13796302D01*
X9140251Y-13796302D02*
X9130727Y-13777254D01*
X9130727Y-13777254D02*
X9111680Y-13767730D01*
X9111680Y-13767730D02*
X9083108Y-13767730D01*
X9083108Y-13767730D02*
X9064061Y-13777254D01*
X9064061Y-13777254D02*
X9054537Y-13786778D01*
X9264061Y-13901064D02*
X9245013Y-13891540D01*
X9245013Y-13891540D02*
X9235489Y-13882016D01*
X9235489Y-13882016D02*
X9225965Y-13862968D01*
X9225965Y-13862968D02*
X9225965Y-13805826D01*
X9225965Y-13805826D02*
X9235489Y-13786778D01*
X9235489Y-13786778D02*
X9245013Y-13777254D01*
X9245013Y-13777254D02*
X9264061Y-13767730D01*
X9264061Y-13767730D02*
X9292632Y-13767730D01*
X9292632Y-13767730D02*
X9311680Y-13777254D01*
X9311680Y-13777254D02*
X9321203Y-13786778D01*
X9321203Y-13786778D02*
X9330727Y-13805826D01*
X9330727Y-13805826D02*
X9330727Y-13862968D01*
X9330727Y-13862968D02*
X9321203Y-13882016D01*
X9321203Y-13882016D02*
X9311680Y-13891540D01*
X9311680Y-13891540D02*
X9292632Y-13901064D01*
X9292632Y-13901064D02*
X9264061Y-13901064D01*
X9445013Y-13901064D02*
X9425965Y-13891540D01*
X9425965Y-13891540D02*
X9416442Y-13872492D01*
X9416442Y-13872492D02*
X9416442Y-13701064D01*
X9597394Y-13891540D02*
X9578346Y-13901064D01*
X9578346Y-13901064D02*
X9540251Y-13901064D01*
X9540251Y-13901064D02*
X9521203Y-13891540D01*
X9521203Y-13891540D02*
X9511680Y-13872492D01*
X9511680Y-13872492D02*
X9511680Y-13796302D01*
X9511680Y-13796302D02*
X9521203Y-13777254D01*
X9521203Y-13777254D02*
X9540251Y-13767730D01*
X9540251Y-13767730D02*
X9578346Y-13767730D01*
X9578346Y-13767730D02*
X9597394Y-13777254D01*
X9597394Y-13777254D02*
X9606918Y-13796302D01*
X9606918Y-13796302D02*
X9606918Y-13815349D01*
X9606918Y-13815349D02*
X9511680Y-13834397D01*
X9683108Y-13891540D02*
X9702156Y-13901064D01*
X9702156Y-13901064D02*
X9740251Y-13901064D01*
X9740251Y-13901064D02*
X9759299Y-13891540D01*
X9759299Y-13891540D02*
X9768823Y-13872492D01*
X9768823Y-13872492D02*
X9768823Y-13862968D01*
X9768823Y-13862968D02*
X9759299Y-13843921D01*
X9759299Y-13843921D02*
X9740251Y-13834397D01*
X9740251Y-13834397D02*
X9711680Y-13834397D01*
X9711680Y-13834397D02*
X9692632Y-13824873D01*
X9692632Y-13824873D02*
X9683108Y-13805826D01*
X9683108Y-13805826D02*
X9683108Y-13796302D01*
X9683108Y-13796302D02*
X9692632Y-13777254D01*
X9692632Y-13777254D02*
X9711680Y-13767730D01*
X9711680Y-13767730D02*
X9740251Y-13767730D01*
X9740251Y-13767730D02*
X9759299Y-13777254D01*
X9835489Y-13977254D02*
X9845013Y-13967730D01*
X9845013Y-13967730D02*
X9864061Y-13939159D01*
X9864061Y-13939159D02*
X9873584Y-13920111D01*
X9873584Y-13920111D02*
X9883108Y-13891540D01*
X9883108Y-13891540D02*
X9892632Y-13843921D01*
X9892632Y-13843921D02*
X9892632Y-13805826D01*
X9892632Y-13805826D02*
X9883108Y-13758207D01*
X9883108Y-13758207D02*
X9873584Y-13729635D01*
X9873584Y-13729635D02*
X9864061Y-13710588D01*
X9864061Y-13710588D02*
X9845013Y-13682016D01*
X9845013Y-13682016D02*
X9835489Y-13672492D01*
X10197394Y-13977254D02*
X10187870Y-13967730D01*
X10187870Y-13967730D02*
X10168823Y-13939159D01*
X10168823Y-13939159D02*
X10159299Y-13920111D01*
X10159299Y-13920111D02*
X10149775Y-13891540D01*
X10149775Y-13891540D02*
X10140251Y-13843921D01*
X10140251Y-13843921D02*
X10140251Y-13805826D01*
X10140251Y-13805826D02*
X10149775Y-13758207D01*
X10149775Y-13758207D02*
X10159299Y-13729635D01*
X10159299Y-13729635D02*
X10168823Y-13710588D01*
X10168823Y-13710588D02*
X10187870Y-13682016D01*
X10187870Y-13682016D02*
X10197394Y-13672492D01*
X10273584Y-13767730D02*
X10273584Y-13901064D01*
X10273584Y-13786778D02*
X10283108Y-13777254D01*
X10283108Y-13777254D02*
X10302156Y-13767730D01*
X10302156Y-13767730D02*
X10330727Y-13767730D01*
X10330727Y-13767730D02*
X10349775Y-13777254D01*
X10349775Y-13777254D02*
X10359299Y-13796302D01*
X10359299Y-13796302D02*
X10359299Y-13901064D01*
X10483108Y-13901064D02*
X10464061Y-13891540D01*
X10464061Y-13891540D02*
X10454537Y-13882016D01*
X10454537Y-13882016D02*
X10445013Y-13862968D01*
X10445013Y-13862968D02*
X10445013Y-13805826D01*
X10445013Y-13805826D02*
X10454537Y-13786778D01*
X10454537Y-13786778D02*
X10464061Y-13777254D01*
X10464061Y-13777254D02*
X10483108Y-13767730D01*
X10483108Y-13767730D02*
X10511680Y-13767730D01*
X10511680Y-13767730D02*
X10530727Y-13777254D01*
X10530727Y-13777254D02*
X10540251Y-13786778D01*
X10540251Y-13786778D02*
X10549775Y-13805826D01*
X10549775Y-13805826D02*
X10549775Y-13862968D01*
X10549775Y-13862968D02*
X10540251Y-13882016D01*
X10540251Y-13882016D02*
X10530727Y-13891540D01*
X10530727Y-13891540D02*
X10511680Y-13901064D01*
X10511680Y-13901064D02*
X10483108Y-13901064D01*
X10606918Y-13767730D02*
X10683108Y-13767730D01*
X10635489Y-13701064D02*
X10635489Y-13872492D01*
X10635489Y-13872492D02*
X10645013Y-13891540D01*
X10645013Y-13891540D02*
X10664061Y-13901064D01*
X10664061Y-13901064D02*
X10683108Y-13901064D01*
X10902156Y-13767730D02*
X10902156Y-13967730D01*
X10902156Y-13777254D02*
X10921204Y-13767730D01*
X10921204Y-13767730D02*
X10959299Y-13767730D01*
X10959299Y-13767730D02*
X10978346Y-13777254D01*
X10978346Y-13777254D02*
X10987870Y-13786778D01*
X10987870Y-13786778D02*
X10997394Y-13805826D01*
X10997394Y-13805826D02*
X10997394Y-13862968D01*
X10997394Y-13862968D02*
X10987870Y-13882016D01*
X10987870Y-13882016D02*
X10978346Y-13891540D01*
X10978346Y-13891540D02*
X10959299Y-13901064D01*
X10959299Y-13901064D02*
X10921204Y-13901064D01*
X10921204Y-13901064D02*
X10902156Y-13891540D01*
X11111680Y-13901064D02*
X11092632Y-13891540D01*
X11092632Y-13891540D02*
X11083108Y-13872492D01*
X11083108Y-13872492D02*
X11083108Y-13701064D01*
X11273584Y-13901064D02*
X11273584Y-13796302D01*
X11273584Y-13796302D02*
X11264061Y-13777254D01*
X11264061Y-13777254D02*
X11245013Y-13767730D01*
X11245013Y-13767730D02*
X11206918Y-13767730D01*
X11206918Y-13767730D02*
X11187870Y-13777254D01*
X11273584Y-13891540D02*
X11254537Y-13901064D01*
X11254537Y-13901064D02*
X11206918Y-13901064D01*
X11206918Y-13901064D02*
X11187870Y-13891540D01*
X11187870Y-13891540D02*
X11178346Y-13872492D01*
X11178346Y-13872492D02*
X11178346Y-13853445D01*
X11178346Y-13853445D02*
X11187870Y-13834397D01*
X11187870Y-13834397D02*
X11206918Y-13824873D01*
X11206918Y-13824873D02*
X11254537Y-13824873D01*
X11254537Y-13824873D02*
X11273584Y-13815349D01*
X11340251Y-13767730D02*
X11416442Y-13767730D01*
X11368823Y-13701064D02*
X11368823Y-13872492D01*
X11368823Y-13872492D02*
X11378346Y-13891540D01*
X11378346Y-13891540D02*
X11397394Y-13901064D01*
X11397394Y-13901064D02*
X11416442Y-13901064D01*
X11559299Y-13891540D02*
X11540251Y-13901064D01*
X11540251Y-13901064D02*
X11502156Y-13901064D01*
X11502156Y-13901064D02*
X11483108Y-13891540D01*
X11483108Y-13891540D02*
X11473584Y-13872492D01*
X11473584Y-13872492D02*
X11473584Y-13796302D01*
X11473584Y-13796302D02*
X11483108Y-13777254D01*
X11483108Y-13777254D02*
X11502156Y-13767730D01*
X11502156Y-13767730D02*
X11540251Y-13767730D01*
X11540251Y-13767730D02*
X11559299Y-13777254D01*
X11559299Y-13777254D02*
X11568823Y-13796302D01*
X11568823Y-13796302D02*
X11568823Y-13815349D01*
X11568823Y-13815349D02*
X11473584Y-13834397D01*
X11740251Y-13901064D02*
X11740251Y-13701064D01*
X11740251Y-13891540D02*
X11721204Y-13901064D01*
X11721204Y-13901064D02*
X11683108Y-13901064D01*
X11683108Y-13901064D02*
X11664061Y-13891540D01*
X11664061Y-13891540D02*
X11654537Y-13882016D01*
X11654537Y-13882016D02*
X11645013Y-13862968D01*
X11645013Y-13862968D02*
X11645013Y-13805826D01*
X11645013Y-13805826D02*
X11654537Y-13786778D01*
X11654537Y-13786778D02*
X11664061Y-13777254D01*
X11664061Y-13777254D02*
X11683108Y-13767730D01*
X11683108Y-13767730D02*
X11721204Y-13767730D01*
X11721204Y-13767730D02*
X11740251Y-13777254D01*
X11816442Y-13977254D02*
X11825965Y-13967730D01*
X11825965Y-13967730D02*
X11845013Y-13939159D01*
X11845013Y-13939159D02*
X11854537Y-13920111D01*
X11854537Y-13920111D02*
X11864061Y-13891540D01*
X11864061Y-13891540D02*
X11873584Y-13843921D01*
X11873584Y-13843921D02*
X11873584Y-13805826D01*
X11873584Y-13805826D02*
X11864061Y-13758207D01*
X11864061Y-13758207D02*
X11854537Y-13729635D01*
X11854537Y-13729635D02*
X11845013Y-13710588D01*
X11845013Y-13710588D02*
X11825965Y-13682016D01*
X11825965Y-13682016D02*
X11816442Y-13672492D01*
X4669950Y-14029580D02*
X4869950Y-14229580D01*
X4869950Y-14029580D02*
X4669950Y-14229580D01*
X4769950Y-14029580D02*
X4769950Y-14229580D01*
X4669950Y-14129580D02*
X4869950Y-14129580D01*
X5216441Y-14087730D02*
X5216441Y-14221064D01*
X5168822Y-14011540D02*
X5121203Y-14154397D01*
X5121203Y-14154397D02*
X5245013Y-14154397D01*
X5321203Y-14202016D02*
X5330727Y-14211540D01*
X5330727Y-14211540D02*
X5321203Y-14221064D01*
X5321203Y-14221064D02*
X5311679Y-14211540D01*
X5311679Y-14211540D02*
X5321203Y-14202016D01*
X5321203Y-14202016D02*
X5321203Y-14221064D01*
X5397394Y-14021064D02*
X5521203Y-14021064D01*
X5521203Y-14021064D02*
X5454536Y-14097254D01*
X5454536Y-14097254D02*
X5483108Y-14097254D01*
X5483108Y-14097254D02*
X5502155Y-14106778D01*
X5502155Y-14106778D02*
X5511679Y-14116302D01*
X5511679Y-14116302D02*
X5521203Y-14135349D01*
X5521203Y-14135349D02*
X5521203Y-14182968D01*
X5521203Y-14182968D02*
X5511679Y-14202016D01*
X5511679Y-14202016D02*
X5502155Y-14211540D01*
X5502155Y-14211540D02*
X5483108Y-14221064D01*
X5483108Y-14221064D02*
X5425965Y-14221064D01*
X5425965Y-14221064D02*
X5406917Y-14211540D01*
X5406917Y-14211540D02*
X5397394Y-14202016D01*
X5645012Y-14021064D02*
X5664060Y-14021064D01*
X5664060Y-14021064D02*
X5683108Y-14030588D01*
X5683108Y-14030588D02*
X5692632Y-14040111D01*
X5692632Y-14040111D02*
X5702155Y-14059159D01*
X5702155Y-14059159D02*
X5711679Y-14097254D01*
X5711679Y-14097254D02*
X5711679Y-14144873D01*
X5711679Y-14144873D02*
X5702155Y-14182968D01*
X5702155Y-14182968D02*
X5692632Y-14202016D01*
X5692632Y-14202016D02*
X5683108Y-14211540D01*
X5683108Y-14211540D02*
X5664060Y-14221064D01*
X5664060Y-14221064D02*
X5645012Y-14221064D01*
X5645012Y-14221064D02*
X5625965Y-14211540D01*
X5625965Y-14211540D02*
X5616441Y-14202016D01*
X5616441Y-14202016D02*
X5606917Y-14182968D01*
X5606917Y-14182968D02*
X5597393Y-14144873D01*
X5597393Y-14144873D02*
X5597393Y-14097254D01*
X5597393Y-14097254D02*
X5606917Y-14059159D01*
X5606917Y-14059159D02*
X5616441Y-14040111D01*
X5616441Y-14040111D02*
X5625965Y-14030588D01*
X5625965Y-14030588D02*
X5645012Y-14021064D01*
X5835489Y-14021064D02*
X5854536Y-14021064D01*
X5854536Y-14021064D02*
X5873584Y-14030588D01*
X5873584Y-14030588D02*
X5883108Y-14040111D01*
X5883108Y-14040111D02*
X5892632Y-14059159D01*
X5892632Y-14059159D02*
X5902155Y-14097254D01*
X5902155Y-14097254D02*
X5902155Y-14144873D01*
X5902155Y-14144873D02*
X5892632Y-14182968D01*
X5892632Y-14182968D02*
X5883108Y-14202016D01*
X5883108Y-14202016D02*
X5873584Y-14211540D01*
X5873584Y-14211540D02*
X5854536Y-14221064D01*
X5854536Y-14221064D02*
X5835489Y-14221064D01*
X5835489Y-14221064D02*
X5816441Y-14211540D01*
X5816441Y-14211540D02*
X5806917Y-14202016D01*
X5806917Y-14202016D02*
X5797393Y-14182968D01*
X5797393Y-14182968D02*
X5787870Y-14144873D01*
X5787870Y-14144873D02*
X5787870Y-14097254D01*
X5787870Y-14097254D02*
X5797393Y-14059159D01*
X5797393Y-14059159D02*
X5806917Y-14040111D01*
X5806917Y-14040111D02*
X5816441Y-14030588D01*
X5816441Y-14030588D02*
X5835489Y-14021064D01*
X5987870Y-14221064D02*
X5987870Y-14087730D01*
X5987870Y-14106778D02*
X5997393Y-14097254D01*
X5997393Y-14097254D02*
X6016441Y-14087730D01*
X6016441Y-14087730D02*
X6045013Y-14087730D01*
X6045013Y-14087730D02*
X6064060Y-14097254D01*
X6064060Y-14097254D02*
X6073584Y-14116302D01*
X6073584Y-14116302D02*
X6073584Y-14221064D01*
X6073584Y-14116302D02*
X6083108Y-14097254D01*
X6083108Y-14097254D02*
X6102155Y-14087730D01*
X6102155Y-14087730D02*
X6130727Y-14087730D01*
X6130727Y-14087730D02*
X6149774Y-14097254D01*
X6149774Y-14097254D02*
X6159298Y-14116302D01*
X6159298Y-14116302D02*
X6159298Y-14221064D01*
X6254536Y-14221064D02*
X6254536Y-14087730D01*
X6254536Y-14106778D02*
X6264060Y-14097254D01*
X6264060Y-14097254D02*
X6283108Y-14087730D01*
X6283108Y-14087730D02*
X6311679Y-14087730D01*
X6311679Y-14087730D02*
X6330727Y-14097254D01*
X6330727Y-14097254D02*
X6340251Y-14116302D01*
X6340251Y-14116302D02*
X6340251Y-14221064D01*
X6340251Y-14116302D02*
X6349774Y-14097254D01*
X6349774Y-14097254D02*
X6368822Y-14087730D01*
X6368822Y-14087730D02*
X6397393Y-14087730D01*
X6397393Y-14087730D02*
X6416441Y-14097254D01*
X6416441Y-14097254D02*
X6425965Y-14116302D01*
X6425965Y-14116302D02*
X6425965Y-14221064D01*
X6816441Y-14011540D02*
X6645013Y-14268683D01*
X7073584Y-14021064D02*
X7092632Y-14021064D01*
X7092632Y-14021064D02*
X7111679Y-14030588D01*
X7111679Y-14030588D02*
X7121203Y-14040111D01*
X7121203Y-14040111D02*
X7130727Y-14059159D01*
X7130727Y-14059159D02*
X7140251Y-14097254D01*
X7140251Y-14097254D02*
X7140251Y-14144873D01*
X7140251Y-14144873D02*
X7130727Y-14182968D01*
X7130727Y-14182968D02*
X7121203Y-14202016D01*
X7121203Y-14202016D02*
X7111679Y-14211540D01*
X7111679Y-14211540D02*
X7092632Y-14221064D01*
X7092632Y-14221064D02*
X7073584Y-14221064D01*
X7073584Y-14221064D02*
X7054536Y-14211540D01*
X7054536Y-14211540D02*
X7045013Y-14202016D01*
X7045013Y-14202016D02*
X7035489Y-14182968D01*
X7035489Y-14182968D02*
X7025965Y-14144873D01*
X7025965Y-14144873D02*
X7025965Y-14097254D01*
X7025965Y-14097254D02*
X7035489Y-14059159D01*
X7035489Y-14059159D02*
X7045013Y-14040111D01*
X7045013Y-14040111D02*
X7054536Y-14030588D01*
X7054536Y-14030588D02*
X7073584Y-14021064D01*
X7225965Y-14202016D02*
X7235489Y-14211540D01*
X7235489Y-14211540D02*
X7225965Y-14221064D01*
X7225965Y-14221064D02*
X7216441Y-14211540D01*
X7216441Y-14211540D02*
X7225965Y-14202016D01*
X7225965Y-14202016D02*
X7225965Y-14221064D01*
X7425965Y-14221064D02*
X7311679Y-14221064D01*
X7368822Y-14221064D02*
X7368822Y-14021064D01*
X7368822Y-14021064D02*
X7349775Y-14049635D01*
X7349775Y-14049635D02*
X7330727Y-14068683D01*
X7330727Y-14068683D02*
X7311679Y-14078207D01*
X7597394Y-14021064D02*
X7559298Y-14021064D01*
X7559298Y-14021064D02*
X7540251Y-14030588D01*
X7540251Y-14030588D02*
X7530727Y-14040111D01*
X7530727Y-14040111D02*
X7511679Y-14068683D01*
X7511679Y-14068683D02*
X7502156Y-14106778D01*
X7502156Y-14106778D02*
X7502156Y-14182968D01*
X7502156Y-14182968D02*
X7511679Y-14202016D01*
X7511679Y-14202016D02*
X7521203Y-14211540D01*
X7521203Y-14211540D02*
X7540251Y-14221064D01*
X7540251Y-14221064D02*
X7578346Y-14221064D01*
X7578346Y-14221064D02*
X7597394Y-14211540D01*
X7597394Y-14211540D02*
X7606917Y-14202016D01*
X7606917Y-14202016D02*
X7616441Y-14182968D01*
X7616441Y-14182968D02*
X7616441Y-14135349D01*
X7616441Y-14135349D02*
X7606917Y-14116302D01*
X7606917Y-14116302D02*
X7597394Y-14106778D01*
X7597394Y-14106778D02*
X7578346Y-14097254D01*
X7578346Y-14097254D02*
X7540251Y-14097254D01*
X7540251Y-14097254D02*
X7521203Y-14106778D01*
X7521203Y-14106778D02*
X7511679Y-14116302D01*
X7511679Y-14116302D02*
X7502156Y-14135349D01*
X7711679Y-14221064D02*
X7749775Y-14221064D01*
X7749775Y-14221064D02*
X7768822Y-14211540D01*
X7768822Y-14211540D02*
X7778346Y-14202016D01*
X7778346Y-14202016D02*
X7797394Y-14173445D01*
X7797394Y-14173445D02*
X7806917Y-14135349D01*
X7806917Y-14135349D02*
X7806917Y-14059159D01*
X7806917Y-14059159D02*
X7797394Y-14040111D01*
X7797394Y-14040111D02*
X7787870Y-14030588D01*
X7787870Y-14030588D02*
X7768822Y-14021064D01*
X7768822Y-14021064D02*
X7730727Y-14021064D01*
X7730727Y-14021064D02*
X7711679Y-14030588D01*
X7711679Y-14030588D02*
X7702156Y-14040111D01*
X7702156Y-14040111D02*
X7692632Y-14059159D01*
X7692632Y-14059159D02*
X7692632Y-14106778D01*
X7692632Y-14106778D02*
X7702156Y-14125826D01*
X7702156Y-14125826D02*
X7711679Y-14135349D01*
X7711679Y-14135349D02*
X7730727Y-14144873D01*
X7730727Y-14144873D02*
X7768822Y-14144873D01*
X7768822Y-14144873D02*
X7787870Y-14135349D01*
X7787870Y-14135349D02*
X7797394Y-14125826D01*
X7797394Y-14125826D02*
X7806917Y-14106778D01*
X7873584Y-14021064D02*
X7997394Y-14021064D01*
X7997394Y-14021064D02*
X7930727Y-14097254D01*
X7930727Y-14097254D02*
X7959298Y-14097254D01*
X7959298Y-14097254D02*
X7978346Y-14106778D01*
X7978346Y-14106778D02*
X7987870Y-14116302D01*
X7987870Y-14116302D02*
X7997394Y-14135349D01*
X7997394Y-14135349D02*
X7997394Y-14182968D01*
X7997394Y-14182968D02*
X7987870Y-14202016D01*
X7987870Y-14202016D02*
X7978346Y-14211540D01*
X7978346Y-14211540D02*
X7959298Y-14221064D01*
X7959298Y-14221064D02*
X7902156Y-14221064D01*
X7902156Y-14221064D02*
X7883108Y-14211540D01*
X7883108Y-14211540D02*
X7873584Y-14202016D01*
X8073584Y-14021064D02*
X8073584Y-14059159D01*
X8149775Y-14021064D02*
X8149775Y-14059159D01*
X8445013Y-14297254D02*
X8435489Y-14287730D01*
X8435489Y-14287730D02*
X8416441Y-14259159D01*
X8416441Y-14259159D02*
X8406918Y-14240111D01*
X8406918Y-14240111D02*
X8397394Y-14211540D01*
X8397394Y-14211540D02*
X8387870Y-14163921D01*
X8387870Y-14163921D02*
X8387870Y-14125826D01*
X8387870Y-14125826D02*
X8397394Y-14078207D01*
X8397394Y-14078207D02*
X8406918Y-14049635D01*
X8406918Y-14049635D02*
X8416441Y-14030588D01*
X8416441Y-14030588D02*
X8435489Y-14002016D01*
X8435489Y-14002016D02*
X8445013Y-13992492D01*
X8616441Y-14021064D02*
X8521203Y-14021064D01*
X8521203Y-14021064D02*
X8511680Y-14116302D01*
X8511680Y-14116302D02*
X8521203Y-14106778D01*
X8521203Y-14106778D02*
X8540251Y-14097254D01*
X8540251Y-14097254D02*
X8587870Y-14097254D01*
X8587870Y-14097254D02*
X8606918Y-14106778D01*
X8606918Y-14106778D02*
X8616441Y-14116302D01*
X8616441Y-14116302D02*
X8625965Y-14135349D01*
X8625965Y-14135349D02*
X8625965Y-14182968D01*
X8625965Y-14182968D02*
X8616441Y-14202016D01*
X8616441Y-14202016D02*
X8606918Y-14211540D01*
X8606918Y-14211540D02*
X8587870Y-14221064D01*
X8587870Y-14221064D02*
X8540251Y-14221064D01*
X8540251Y-14221064D02*
X8521203Y-14211540D01*
X8521203Y-14211540D02*
X8511680Y-14202016D01*
X8864061Y-14221064D02*
X8864061Y-14021064D01*
X8949775Y-14221064D02*
X8949775Y-14116302D01*
X8949775Y-14116302D02*
X8940251Y-14097254D01*
X8940251Y-14097254D02*
X8921203Y-14087730D01*
X8921203Y-14087730D02*
X8892632Y-14087730D01*
X8892632Y-14087730D02*
X8873584Y-14097254D01*
X8873584Y-14097254D02*
X8864061Y-14106778D01*
X9073584Y-14221064D02*
X9054537Y-14211540D01*
X9054537Y-14211540D02*
X9045013Y-14202016D01*
X9045013Y-14202016D02*
X9035489Y-14182968D01*
X9035489Y-14182968D02*
X9035489Y-14125826D01*
X9035489Y-14125826D02*
X9045013Y-14106778D01*
X9045013Y-14106778D02*
X9054537Y-14097254D01*
X9054537Y-14097254D02*
X9073584Y-14087730D01*
X9073584Y-14087730D02*
X9102156Y-14087730D01*
X9102156Y-14087730D02*
X9121203Y-14097254D01*
X9121203Y-14097254D02*
X9130727Y-14106778D01*
X9130727Y-14106778D02*
X9140251Y-14125826D01*
X9140251Y-14125826D02*
X9140251Y-14182968D01*
X9140251Y-14182968D02*
X9130727Y-14202016D01*
X9130727Y-14202016D02*
X9121203Y-14211540D01*
X9121203Y-14211540D02*
X9102156Y-14221064D01*
X9102156Y-14221064D02*
X9073584Y-14221064D01*
X9254537Y-14221064D02*
X9235489Y-14211540D01*
X9235489Y-14211540D02*
X9225965Y-14192492D01*
X9225965Y-14192492D02*
X9225965Y-14021064D01*
X9406918Y-14211540D02*
X9387870Y-14221064D01*
X9387870Y-14221064D02*
X9349775Y-14221064D01*
X9349775Y-14221064D02*
X9330727Y-14211540D01*
X9330727Y-14211540D02*
X9321203Y-14192492D01*
X9321203Y-14192492D02*
X9321203Y-14116302D01*
X9321203Y-14116302D02*
X9330727Y-14097254D01*
X9330727Y-14097254D02*
X9349775Y-14087730D01*
X9349775Y-14087730D02*
X9387870Y-14087730D01*
X9387870Y-14087730D02*
X9406918Y-14097254D01*
X9406918Y-14097254D02*
X9416442Y-14116302D01*
X9416442Y-14116302D02*
X9416442Y-14135349D01*
X9416442Y-14135349D02*
X9321203Y-14154397D01*
X9492632Y-14211540D02*
X9511680Y-14221064D01*
X9511680Y-14221064D02*
X9549775Y-14221064D01*
X9549775Y-14221064D02*
X9568823Y-14211540D01*
X9568823Y-14211540D02*
X9578346Y-14192492D01*
X9578346Y-14192492D02*
X9578346Y-14182968D01*
X9578346Y-14182968D02*
X9568823Y-14163921D01*
X9568823Y-14163921D02*
X9549775Y-14154397D01*
X9549775Y-14154397D02*
X9521203Y-14154397D01*
X9521203Y-14154397D02*
X9502156Y-14144873D01*
X9502156Y-14144873D02*
X9492632Y-14125826D01*
X9492632Y-14125826D02*
X9492632Y-14116302D01*
X9492632Y-14116302D02*
X9502156Y-14097254D01*
X9502156Y-14097254D02*
X9521203Y-14087730D01*
X9521203Y-14087730D02*
X9549775Y-14087730D01*
X9549775Y-14087730D02*
X9568823Y-14097254D01*
X9645013Y-14297254D02*
X9654537Y-14287730D01*
X9654537Y-14287730D02*
X9673584Y-14259159D01*
X9673584Y-14259159D02*
X9683108Y-14240111D01*
X9683108Y-14240111D02*
X9692632Y-14211540D01*
X9692632Y-14211540D02*
X9702156Y-14163921D01*
X9702156Y-14163921D02*
X9702156Y-14125826D01*
X9702156Y-14125826D02*
X9692632Y-14078207D01*
X9692632Y-14078207D02*
X9683108Y-14049635D01*
X9683108Y-14049635D02*
X9673584Y-14030588D01*
X9673584Y-14030588D02*
X9654537Y-14002016D01*
X9654537Y-14002016D02*
X9645013Y-13992492D01*
X10006918Y-14297254D02*
X9997394Y-14287730D01*
X9997394Y-14287730D02*
X9978346Y-14259159D01*
X9978346Y-14259159D02*
X9968823Y-14240111D01*
X9968823Y-14240111D02*
X9959299Y-14211540D01*
X9959299Y-14211540D02*
X9949775Y-14163921D01*
X9949775Y-14163921D02*
X9949775Y-14125826D01*
X9949775Y-14125826D02*
X9959299Y-14078207D01*
X9959299Y-14078207D02*
X9968823Y-14049635D01*
X9968823Y-14049635D02*
X9978346Y-14030588D01*
X9978346Y-14030588D02*
X9997394Y-14002016D01*
X9997394Y-14002016D02*
X10006918Y-13992492D01*
X10083108Y-14087730D02*
X10083108Y-14221064D01*
X10083108Y-14106778D02*
X10092632Y-14097254D01*
X10092632Y-14097254D02*
X10111680Y-14087730D01*
X10111680Y-14087730D02*
X10140251Y-14087730D01*
X10140251Y-14087730D02*
X10159299Y-14097254D01*
X10159299Y-14097254D02*
X10168823Y-14116302D01*
X10168823Y-14116302D02*
X10168823Y-14221064D01*
X10292632Y-14221064D02*
X10273584Y-14211540D01*
X10273584Y-14211540D02*
X10264061Y-14202016D01*
X10264061Y-14202016D02*
X10254537Y-14182968D01*
X10254537Y-14182968D02*
X10254537Y-14125826D01*
X10254537Y-14125826D02*
X10264061Y-14106778D01*
X10264061Y-14106778D02*
X10273584Y-14097254D01*
X10273584Y-14097254D02*
X10292632Y-14087730D01*
X10292632Y-14087730D02*
X10321204Y-14087730D01*
X10321204Y-14087730D02*
X10340251Y-14097254D01*
X10340251Y-14097254D02*
X10349775Y-14106778D01*
X10349775Y-14106778D02*
X10359299Y-14125826D01*
X10359299Y-14125826D02*
X10359299Y-14182968D01*
X10359299Y-14182968D02*
X10349775Y-14202016D01*
X10349775Y-14202016D02*
X10340251Y-14211540D01*
X10340251Y-14211540D02*
X10321204Y-14221064D01*
X10321204Y-14221064D02*
X10292632Y-14221064D01*
X10416442Y-14087730D02*
X10492632Y-14087730D01*
X10445013Y-14021064D02*
X10445013Y-14192492D01*
X10445013Y-14192492D02*
X10454537Y-14211540D01*
X10454537Y-14211540D02*
X10473584Y-14221064D01*
X10473584Y-14221064D02*
X10492632Y-14221064D01*
X10711680Y-14087730D02*
X10711680Y-14287730D01*
X10711680Y-14097254D02*
X10730727Y-14087730D01*
X10730727Y-14087730D02*
X10768823Y-14087730D01*
X10768823Y-14087730D02*
X10787870Y-14097254D01*
X10787870Y-14097254D02*
X10797394Y-14106778D01*
X10797394Y-14106778D02*
X10806918Y-14125826D01*
X10806918Y-14125826D02*
X10806918Y-14182968D01*
X10806918Y-14182968D02*
X10797394Y-14202016D01*
X10797394Y-14202016D02*
X10787870Y-14211540D01*
X10787870Y-14211540D02*
X10768823Y-14221064D01*
X10768823Y-14221064D02*
X10730727Y-14221064D01*
X10730727Y-14221064D02*
X10711680Y-14211540D01*
X10921204Y-14221064D02*
X10902156Y-14211540D01*
X10902156Y-14211540D02*
X10892632Y-14192492D01*
X10892632Y-14192492D02*
X10892632Y-14021064D01*
X11083108Y-14221064D02*
X11083108Y-14116302D01*
X11083108Y-14116302D02*
X11073585Y-14097254D01*
X11073585Y-14097254D02*
X11054537Y-14087730D01*
X11054537Y-14087730D02*
X11016442Y-14087730D01*
X11016442Y-14087730D02*
X10997394Y-14097254D01*
X11083108Y-14211540D02*
X11064061Y-14221064D01*
X11064061Y-14221064D02*
X11016442Y-14221064D01*
X11016442Y-14221064D02*
X10997394Y-14211540D01*
X10997394Y-14211540D02*
X10987870Y-14192492D01*
X10987870Y-14192492D02*
X10987870Y-14173445D01*
X10987870Y-14173445D02*
X10997394Y-14154397D01*
X10997394Y-14154397D02*
X11016442Y-14144873D01*
X11016442Y-14144873D02*
X11064061Y-14144873D01*
X11064061Y-14144873D02*
X11083108Y-14135349D01*
X11149775Y-14087730D02*
X11225965Y-14087730D01*
X11178346Y-14021064D02*
X11178346Y-14192492D01*
X11178346Y-14192492D02*
X11187870Y-14211540D01*
X11187870Y-14211540D02*
X11206918Y-14221064D01*
X11206918Y-14221064D02*
X11225965Y-14221064D01*
X11368823Y-14211540D02*
X11349775Y-14221064D01*
X11349775Y-14221064D02*
X11311680Y-14221064D01*
X11311680Y-14221064D02*
X11292632Y-14211540D01*
X11292632Y-14211540D02*
X11283108Y-14192492D01*
X11283108Y-14192492D02*
X11283108Y-14116302D01*
X11283108Y-14116302D02*
X11292632Y-14097254D01*
X11292632Y-14097254D02*
X11311680Y-14087730D01*
X11311680Y-14087730D02*
X11349775Y-14087730D01*
X11349775Y-14087730D02*
X11368823Y-14097254D01*
X11368823Y-14097254D02*
X11378346Y-14116302D01*
X11378346Y-14116302D02*
X11378346Y-14135349D01*
X11378346Y-14135349D02*
X11283108Y-14154397D01*
X11549775Y-14221064D02*
X11549775Y-14021064D01*
X11549775Y-14211540D02*
X11530727Y-14221064D01*
X11530727Y-14221064D02*
X11492632Y-14221064D01*
X11492632Y-14221064D02*
X11473584Y-14211540D01*
X11473584Y-14211540D02*
X11464061Y-14202016D01*
X11464061Y-14202016D02*
X11454537Y-14182968D01*
X11454537Y-14182968D02*
X11454537Y-14125826D01*
X11454537Y-14125826D02*
X11464061Y-14106778D01*
X11464061Y-14106778D02*
X11473584Y-14097254D01*
X11473584Y-14097254D02*
X11492632Y-14087730D01*
X11492632Y-14087730D02*
X11530727Y-14087730D01*
X11530727Y-14087730D02*
X11549775Y-14097254D01*
X11625965Y-14297254D02*
X11635489Y-14287730D01*
X11635489Y-14287730D02*
X11654537Y-14259159D01*
X11654537Y-14259159D02*
X11664061Y-14240111D01*
X11664061Y-14240111D02*
X11673584Y-14211540D01*
X11673584Y-14211540D02*
X11683108Y-14163921D01*
X11683108Y-14163921D02*
X11683108Y-14125826D01*
X11683108Y-14125826D02*
X11673584Y-14078207D01*
X11673584Y-14078207D02*
X11664061Y-14049635D01*
X11664061Y-14049635D02*
X11654537Y-14030588D01*
X11654537Y-14030588D02*
X11635489Y-14002016D01*
X11635489Y-14002016D02*
X11625965Y-13992492D01*
M02*
