%TF.GenerationSoftware,KiCad,Pcbnew,7.0.5-0*%
%TF.CreationDate,2023-08-04T20:21:57+09:30*%
%TF.ProjectId,Rolio,436f726e-6552-46f6-9c69-6f2e6b696361,rev?*%
%TF.SameCoordinates,Original*%
%TF.FileFunction,Profile,NP*%
%FSLAX46Y46*%
G04 Gerber Fmt 4.6, Leading zero omitted, Abs format (unit mm)*
G04 Created by KiCad (PCBNEW 7.0.5-0) date 2023-08-04 20:21:57*
%MOMM*%
%LPD*%
G01*
G04 APERTURE LIST*
%TA.AperFunction,Profile*%
%ADD10C,0.100000*%
%TD*%
%TA.AperFunction,Profile*%
%ADD11C,0.050000*%
%TD*%
G04 APERTURE END LIST*
D10*
X185703500Y-92418000D02*
X167086141Y-92418000D01*
X110128180Y-34897320D02*
X110910821Y-34114679D01*
X188703500Y-38776000D02*
G75*
G03*
X185703500Y-35776000I-3000000J0D01*
G01*
X113910820Y-108282680D02*
X108302179Y-113891321D01*
X151688200Y-34114660D02*
G75*
G03*
X149566859Y-33236000I-2121300J-2121340D01*
G01*
X151688180Y-34114680D02*
X152470821Y-34897321D01*
X106180859Y-114770000D02*
X74376141Y-114770000D01*
X171939500Y-94704000D02*
X171939500Y-94704000D01*
X113032141Y-33236029D02*
G75*
G03*
X110910821Y-34114679I-41J-2999971D01*
G01*
X72254820Y-115648680D02*
X71218179Y-116685321D01*
X108006859Y-35775983D02*
G75*
G03*
X110128180Y-34897320I-59J3000183D01*
G01*
X51749500Y-35776000D02*
G75*
G03*
X48749500Y-38776000I0J-3000000D01*
G01*
X106180859Y-114769971D02*
G75*
G03*
X108302179Y-113891321I41J2999971D01*
G01*
X113032141Y-33236000D02*
X149566859Y-33236000D01*
X51797483Y-102296641D02*
G75*
G03*
X50918820Y-100175320I-3000183J-59D01*
G01*
X51797500Y-114564000D02*
G75*
G03*
X54797500Y-117564000I3000000J0D01*
G01*
X167086141Y-92418017D02*
G75*
G03*
X164964820Y-93296680I59J-3000183D01*
G01*
X188703500Y-38776000D02*
X188703500Y-89418000D01*
X48749500Y-96763359D02*
X48749500Y-38776000D01*
X116032141Y-107404017D02*
G75*
G03*
X113910820Y-108282680I59J-3000183D01*
G01*
X69096859Y-117563971D02*
G75*
G03*
X71218179Y-116685321I41J2999971D01*
G01*
X54622500Y-39055000D02*
X67322500Y-39055000D01*
X67322500Y-70965000D01*
X54622500Y-70965000D01*
X54622500Y-39055000D01*
X51749500Y-35776000D02*
X108006859Y-35776000D01*
X51797500Y-114564000D02*
X51797500Y-102296641D01*
X164964820Y-93296680D02*
X151736179Y-106525321D01*
X185703500Y-92418000D02*
G75*
G03*
X188703500Y-89418000I0J3000000D01*
G01*
X152470801Y-34897341D02*
G75*
G03*
X154592141Y-35776000I2121299J2121341D01*
G01*
X149614859Y-107403971D02*
G75*
G03*
X151736179Y-106525321I41J2999971D01*
G01*
X48749529Y-96763359D02*
G75*
G03*
X49628179Y-98884679I2999971J-41D01*
G01*
X50918820Y-100175320D02*
X49628179Y-98884679D01*
X154592141Y-35776000D02*
X185703500Y-35776000D01*
X69096859Y-117564000D02*
X54797500Y-117564000D01*
X74376141Y-114770017D02*
G75*
G03*
X72254820Y-115648680I59J-3000183D01*
G01*
X149614859Y-107404000D02*
X116032141Y-107404000D01*
D11*
X68222500Y-77530000D02*
X68222500Y-91130000D01*
X68522500Y-91430000D02*
X70322500Y-91430000D01*
X70322500Y-77230000D02*
X68522500Y-77230000D01*
X70622500Y-91130000D02*
X70622500Y-77530000D01*
X68522500Y-77230000D02*
G75*
G03*
X68222500Y-77530000I0J-300000D01*
G01*
X68222500Y-91130000D02*
G75*
G03*
X68522500Y-91430000I300000J0D01*
G01*
X70622500Y-77530000D02*
G75*
G03*
X70322500Y-77230000I-300000J0D01*
G01*
X70322500Y-91430000D02*
G75*
G03*
X70622500Y-91130000I0J300000D01*
G01*
M02*
