%TF.GenerationSoftware,KiCad,Pcbnew,7.0.5-0*%
%TF.CreationDate,2023-08-04T20:21:57+09:30*%
%TF.ProjectId,Rolio,436f726e-6552-46f6-9c69-6f2e6b696361,rev?*%
%TF.SameCoordinates,Original*%
%TF.FileFunction,Paste,Top*%
%TF.FilePolarity,Positive*%
%FSLAX46Y46*%
G04 Gerber Fmt 4.6, Leading zero omitted, Abs format (unit mm)*
G04 Created by KiCad (PCBNEW 7.0.5-0) date 2023-08-04 20:21:57*
%MOMM*%
%LPD*%
G01*
G04 APERTURE LIST*
G04 Aperture macros list*
%AMRoundRect*
0 Rectangle with rounded corners*
0 $1 Rounding radius*
0 $2 $3 $4 $5 $6 $7 $8 $9 X,Y pos of 4 corners*
0 Add a 4 corners polygon primitive as box body*
4,1,4,$2,$3,$4,$5,$6,$7,$8,$9,$2,$3,0*
0 Add four circle primitives for the rounded corners*
1,1,$1+$1,$2,$3*
1,1,$1+$1,$4,$5*
1,1,$1+$1,$6,$7*
1,1,$1+$1,$8,$9*
0 Add four rect primitives between the rounded corners*
20,1,$1+$1,$2,$3,$4,$5,0*
20,1,$1+$1,$4,$5,$6,$7,0*
20,1,$1+$1,$6,$7,$8,$9,0*
20,1,$1+$1,$8,$9,$2,$3,0*%
G04 Aperture macros list end*
%ADD10RoundRect,0.250000X-0.262500X-0.450000X0.262500X-0.450000X0.262500X0.450000X-0.262500X0.450000X0*%
%ADD11RoundRect,0.243750X-0.243750X-0.456250X0.243750X-0.456250X0.243750X0.456250X-0.243750X0.456250X0*%
%ADD12RoundRect,0.250000X0.163203X0.494743X-0.350324X0.385590X-0.163203X-0.494743X0.350324X-0.385590X0*%
%ADD13R,1.000000X0.800000*%
%ADD14R,0.700000X1.500000*%
%ADD15RoundRect,0.250000X0.262500X0.450000X-0.262500X0.450000X-0.262500X-0.450000X0.262500X-0.450000X0*%
%ADD16RoundRect,0.150000X-0.587500X-0.150000X0.587500X-0.150000X0.587500X0.150000X-0.587500X0.150000X0*%
%ADD17RoundRect,0.243750X-0.143564X-0.496958X0.333283X-0.395601X0.143564X0.496958X-0.333283X0.395601X0*%
G04 APERTURE END LIST*
D10*
X173787500Y-37980000D03*
X175612500Y-37980000D03*
D11*
X120902500Y-38525000D03*
X122777500Y-38525000D03*
D10*
X135787500Y-52980000D03*
X137612500Y-52980000D03*
D11*
X120902500Y-74775000D03*
X122777500Y-74775000D03*
D10*
X97787500Y-55980000D03*
X99612500Y-55980000D03*
D11*
X139902500Y-38775000D03*
X141777500Y-38775000D03*
X83182500Y-45025000D03*
X85057500Y-45025000D03*
D10*
X81274000Y-40808000D03*
X83099000Y-40808000D03*
D12*
X61352000Y-97958000D03*
X59566880Y-98337438D03*
D11*
X83182500Y-81025000D03*
X85057500Y-81025000D03*
D10*
X135787500Y-70980000D03*
X137612500Y-70980000D03*
X154787500Y-73980000D03*
X156612500Y-73980000D03*
X174837000Y-55980000D03*
X176662000Y-55980000D03*
X116787500Y-88980000D03*
X118612500Y-88980000D03*
X81274000Y-38268000D03*
X83099000Y-38268000D03*
D11*
X139902500Y-92675000D03*
X141777500Y-92675000D03*
X139902500Y-56775000D03*
X141777500Y-56775000D03*
D13*
X78464000Y-38922000D03*
X78464000Y-36712000D03*
X71164000Y-38922000D03*
X71164000Y-36712000D03*
D14*
X77064000Y-39572000D03*
X74064000Y-39572000D03*
X72564000Y-39572000D03*
D10*
X173787500Y-73980000D03*
X175612500Y-73980000D03*
D11*
X158902500Y-77775000D03*
X160777500Y-77775000D03*
D15*
X154974500Y-38014000D03*
X153149500Y-38014000D03*
D11*
X83182500Y-99025000D03*
X85057500Y-99025000D03*
D10*
X97787500Y-37980000D03*
X99612500Y-37980000D03*
D11*
X177902500Y-77775000D03*
X179777500Y-77775000D03*
X101902500Y-59775000D03*
X103777500Y-59775000D03*
X158902500Y-41775000D03*
X160777500Y-41775000D03*
D10*
X116787500Y-52980000D03*
X118612500Y-52980000D03*
D11*
X101902500Y-96025000D03*
X103777500Y-96025000D03*
D10*
X79067500Y-77230000D03*
X80892500Y-77230000D03*
X80857000Y-95720000D03*
X82682000Y-95720000D03*
D15*
X164626500Y-38014000D03*
X162801500Y-38014000D03*
D10*
X135907500Y-88980000D03*
X137732500Y-88980000D03*
D11*
X158902500Y-59775000D03*
X160777500Y-59775000D03*
D16*
X85639000Y-38588000D03*
X85639000Y-40488000D03*
X87514000Y-39538000D03*
D10*
X97787500Y-92230000D03*
X99612500Y-92230000D03*
D11*
X83182500Y-63070000D03*
X85057500Y-63070000D03*
D10*
X105397500Y-38014000D03*
X107222500Y-38014000D03*
X116787500Y-70980000D03*
X118612500Y-70980000D03*
D11*
X120902500Y-56775000D03*
X122777500Y-56775000D03*
D10*
X97787500Y-73980000D03*
X99612500Y-73980000D03*
D11*
X101902500Y-77775000D03*
X103777500Y-77775000D03*
X101902500Y-41775000D03*
X103777500Y-41775000D03*
X139902500Y-74775000D03*
X141777500Y-74775000D03*
X120902500Y-92775000D03*
X122777500Y-92775000D03*
D10*
X79067500Y-59275000D03*
X80892500Y-59275000D03*
D15*
X92061000Y-40808000D03*
X90236000Y-40808000D03*
D11*
X177902500Y-41775000D03*
X179777500Y-41775000D03*
D10*
X154787500Y-55980000D03*
X156612500Y-55980000D03*
D17*
X61241531Y-101951109D03*
X63075557Y-101561275D03*
D11*
X177902500Y-59775000D03*
X179777500Y-59775000D03*
M02*
