%TF.GenerationSoftware,KiCad,Pcbnew,7.0.5-0*%
%TF.CreationDate,2023-08-03T20:44:42+09:30*%
%TF.ProjectId,Rolio,436f726e-6552-46f6-9c69-6f2e6b696361,rev?*%
%TF.SameCoordinates,Original*%
%TF.FileFunction,Drillmap*%
%TF.FilePolarity,Positive*%
%FSLAX45Y45*%
G04 Gerber Fmt 4.5, Leading zero omitted, Abs format (unit mm)*
G04 Created by KiCad (PCBNEW 7.0.5-0) date 2023-08-03 20:44:42*
%MOMM*%
%LPD*%
G01*
G04 APERTURE LIST*
%ADD10C,0.100000*%
%ADD11C,0.200000*%
%ADD12C,0.040000*%
%ADD13C,0.080000*%
%ADD14C,0.090000*%
G04 APERTURE END LIST*
D10*
X5586640Y-9160800D02*
X7448376Y-9160800D01*
X17035174Y-11587530D02*
G75*
G03*
X17247304Y-11675400I212126J212110D01*
G01*
X8988172Y-3330468D02*
X8909908Y-3408732D01*
X16931510Y-11483866D02*
G75*
G03*
X16719376Y-11396000I-212130J-212134D01*
G01*
X16931508Y-11483868D02*
X17035172Y-11587532D01*
X18677240Y-11675400D02*
G75*
G03*
X18977240Y-11375400I0J300000D01*
G01*
X8697776Y-3496600D02*
X5586640Y-3496600D01*
X12853776Y-3242600D02*
X9200304Y-3242600D01*
X19194170Y-9807466D02*
G75*
G03*
X19282040Y-9595336I-212110J212126D01*
G01*
X5586640Y-3496600D02*
G75*
G03*
X5286640Y-3796600I0J-300000D01*
G01*
X7660510Y-9248666D02*
G75*
G03*
X7448376Y-9160800I-212130J-212134D01*
G01*
X17247304Y-11675400D02*
X18677240Y-11675400D01*
X13144170Y-3408734D02*
G75*
G03*
X13356304Y-3496600I212130J212134D01*
G01*
X18977240Y-11375400D02*
X18977240Y-10148664D01*
X7660508Y-9248668D02*
X8983372Y-10571532D01*
X19282040Y-9595336D02*
X19282040Y-3796600D01*
X18982040Y-3496600D02*
X13356304Y-3496600D01*
X19065108Y-9936532D02*
X19194172Y-9807468D01*
X19282040Y-3796600D02*
G75*
G03*
X18982040Y-3496600I-300000J0D01*
G01*
X13065906Y-3330470D02*
G75*
G03*
X12853776Y-3242600I-212126J-212110D01*
G01*
X13144172Y-3408732D02*
X13065908Y-3330468D01*
X13538904Y-11396000D02*
X16719376Y-11396000D01*
X17424740Y-3824500D02*
X18694740Y-3824500D01*
X18694740Y-7015500D01*
X17424740Y-7015500D01*
X17424740Y-3824500D01*
X13326774Y-11308130D02*
G75*
G03*
X13538904Y-11396000I212126J212110D01*
G01*
X12765910Y-10747266D02*
G75*
G03*
X12553776Y-10659400I-212130J-212134D01*
G01*
X9200304Y-3242602D02*
G75*
G03*
X8988172Y-3330468I6J-300018D01*
G01*
X12765908Y-10747268D02*
X13326772Y-11308132D01*
X8697776Y-3496597D02*
G75*
G03*
X8909908Y-3408732I4J299997D01*
G01*
X5286640Y-8860800D02*
G75*
G03*
X5586640Y-9160800I300000J0D01*
G01*
X19065106Y-9936530D02*
G75*
G03*
X18977240Y-10148664I212134J-212130D01*
G01*
X5286640Y-3796600D02*
X5286640Y-8860800D01*
X9195504Y-10659400D02*
X12553776Y-10659400D01*
X8983374Y-10571530D02*
G75*
G03*
X9195504Y-10659400I212126J212110D01*
G01*
D11*
D12*
X5898200Y-4221800D02*
X5938200Y-4261800D01*
X5938200Y-4221800D02*
X5898200Y-4261800D01*
X5923600Y-6101400D02*
X5963600Y-6141400D01*
X5963600Y-6101400D02*
X5923600Y-6141400D01*
X6587440Y-5584800D02*
X6627440Y-5624800D01*
X6627440Y-5584800D02*
X6587440Y-5624800D01*
X6587440Y-5813400D02*
X6627440Y-5853400D01*
X6627440Y-5813400D02*
X6587440Y-5853400D01*
X6587440Y-7388200D02*
X6627440Y-7428200D01*
X6627440Y-7388200D02*
X6587440Y-7428200D01*
X6587440Y-7616800D02*
X6627440Y-7656800D01*
X6627440Y-7616800D02*
X6587440Y-7656800D01*
X6736400Y-5390200D02*
X6776400Y-5430200D01*
X6776400Y-5390200D02*
X6736400Y-5430200D01*
X6863400Y-4907600D02*
X6903400Y-4947600D01*
X6903400Y-4907600D02*
X6863400Y-4947600D01*
X7041200Y-7219000D02*
X7081200Y-7259000D01*
X7081200Y-7219000D02*
X7041200Y-7259000D01*
X7041200Y-7396800D02*
X7081200Y-7436800D01*
X7081200Y-7396800D02*
X7041200Y-7436800D01*
X7295200Y-7117400D02*
X7335200Y-7157400D01*
X7335200Y-7117400D02*
X7295200Y-7157400D01*
X7346000Y-8870000D02*
X7386000Y-8910000D01*
X7386000Y-8870000D02*
X7346000Y-8910000D01*
X7625400Y-4069400D02*
X7665400Y-4109400D01*
X7665400Y-4069400D02*
X7625400Y-4109400D01*
X7650800Y-5872800D02*
X7690800Y-5912800D01*
X7690800Y-5872800D02*
X7650800Y-5912800D01*
X7650800Y-7676200D02*
X7690800Y-7716200D01*
X7690800Y-7676200D02*
X7650800Y-7716200D01*
X8492440Y-5559400D02*
X8532440Y-5599400D01*
X8532440Y-5559400D02*
X8492440Y-5599400D01*
X8492440Y-5788000D02*
X8532440Y-5828000D01*
X8532440Y-5788000D02*
X8492440Y-5828000D01*
X8492440Y-7362800D02*
X8532440Y-7402800D01*
X8532440Y-7362800D02*
X8492440Y-7402800D01*
X8492440Y-7566000D02*
X8532440Y-7606000D01*
X8532440Y-7566000D02*
X8492440Y-7606000D01*
X8768400Y-9911400D02*
X8808400Y-9951400D01*
X8808400Y-9911400D02*
X8768400Y-9951400D01*
X8793800Y-8997000D02*
X8833800Y-9037000D01*
X8833800Y-8997000D02*
X8793800Y-9037000D01*
X9200200Y-6838000D02*
X9240200Y-6878000D01*
X9240200Y-6838000D02*
X9200200Y-6878000D01*
X9356040Y-9267800D02*
X9396040Y-9307800D01*
X9396040Y-9267800D02*
X9356040Y-9307800D01*
X9530400Y-3815400D02*
X9570400Y-3855400D01*
X9570400Y-3815400D02*
X9530400Y-3855400D01*
X9555800Y-5568000D02*
X9595800Y-5608000D01*
X9595800Y-5568000D02*
X9555800Y-5608000D01*
X9555800Y-7396800D02*
X9595800Y-7436800D01*
X9595800Y-7396800D02*
X9555800Y-7436800D01*
X10422840Y-5280000D02*
X10462840Y-5320000D01*
X10462840Y-5280000D02*
X10422840Y-5320000D01*
X10422840Y-5508600D02*
X10462840Y-5548600D01*
X10462840Y-5508600D02*
X10422840Y-5548600D01*
X10422840Y-7083400D02*
X10462840Y-7123400D01*
X10462840Y-7083400D02*
X10422840Y-7123400D01*
X10422840Y-7312000D02*
X10462840Y-7352000D01*
X10462840Y-7312000D02*
X10422840Y-7352000D01*
X10775000Y-8870000D02*
X10815000Y-8910000D01*
X10815000Y-8870000D02*
X10775000Y-8910000D01*
X10902000Y-6076000D02*
X10942000Y-6116000D01*
X10942000Y-6076000D02*
X10902000Y-6116000D01*
X10902000Y-10368600D02*
X10942000Y-10408600D01*
X10942000Y-10368600D02*
X10902000Y-10408600D01*
X11079800Y-3307400D02*
X11119800Y-3347400D01*
X11119800Y-3307400D02*
X11079800Y-3347400D01*
X11105200Y-8616000D02*
X11145200Y-8656000D01*
X11145200Y-8616000D02*
X11105200Y-8656000D01*
X11232200Y-8819200D02*
X11272200Y-8859200D01*
X11272200Y-8819200D02*
X11232200Y-8859200D01*
X11435400Y-7396800D02*
X11475400Y-7436800D01*
X11475400Y-7396800D02*
X11435400Y-7436800D01*
X11460800Y-9098600D02*
X11500800Y-9138600D01*
X11500800Y-9098600D02*
X11460800Y-9138600D01*
X11511600Y-3764600D02*
X11551600Y-3804600D01*
X11551600Y-3764600D02*
X11511600Y-3804600D01*
X12299000Y-5288600D02*
X12339000Y-5328600D01*
X12339000Y-5288600D02*
X12299000Y-5328600D01*
X12299000Y-5517200D02*
X12339000Y-5557200D01*
X12339000Y-5517200D02*
X12299000Y-5557200D01*
X12324400Y-7117400D02*
X12364400Y-7157400D01*
X12364400Y-7117400D02*
X12324400Y-7157400D01*
X12324400Y-7371400D02*
X12364400Y-7411400D01*
X12364400Y-7371400D02*
X12324400Y-7411400D01*
X12730800Y-6838000D02*
X12770800Y-6878000D01*
X12770800Y-6838000D02*
X12730800Y-6878000D01*
X12730800Y-9301800D02*
X12770800Y-9341800D01*
X12770800Y-9301800D02*
X12730800Y-9341800D01*
X12807000Y-9987600D02*
X12847000Y-10027600D01*
X12847000Y-9987600D02*
X12807000Y-10027600D01*
X13010200Y-8819200D02*
X13050200Y-8859200D01*
X13050200Y-8819200D02*
X13010200Y-8859200D01*
X13086400Y-9124000D02*
X13126400Y-9164000D01*
X13126400Y-9124000D02*
X13086400Y-9164000D01*
X13365800Y-5923600D02*
X13405800Y-5963600D01*
X13405800Y-5923600D02*
X13365800Y-5963600D01*
X13365800Y-7701600D02*
X13405800Y-7741600D01*
X13405800Y-7701600D02*
X13365800Y-7741600D01*
X13391200Y-4120200D02*
X13431200Y-4160200D01*
X13431200Y-4120200D02*
X13391200Y-4160200D01*
X13391200Y-9479600D02*
X13431200Y-9519600D01*
X13431200Y-9479600D02*
X13391200Y-9519600D01*
X14077000Y-11206800D02*
X14117000Y-11246800D01*
X14117000Y-11206800D02*
X14077000Y-11246800D01*
X14178600Y-5593400D02*
X14218600Y-5633400D01*
X14218600Y-5593400D02*
X14178600Y-5633400D01*
X14178600Y-5822000D02*
X14218600Y-5862000D01*
X14218600Y-5822000D02*
X14178600Y-5862000D01*
X14178600Y-7396800D02*
X14218600Y-7436800D01*
X14218600Y-7396800D02*
X14178600Y-7436800D01*
X14178600Y-7650800D02*
X14218600Y-7690800D01*
X14218600Y-7650800D02*
X14178600Y-7690800D01*
X14508800Y-9225600D02*
X14548800Y-9265600D01*
X14548800Y-9225600D02*
X14508800Y-9265600D01*
X14635800Y-7117400D02*
X14675800Y-7157400D01*
X14675800Y-7117400D02*
X14635800Y-7157400D01*
X14686600Y-8514400D02*
X14726600Y-8554400D01*
X14726600Y-8514400D02*
X14686600Y-8554400D01*
X14712000Y-10292400D02*
X14752000Y-10332400D01*
X14752000Y-10292400D02*
X14712000Y-10332400D01*
X14864400Y-3612200D02*
X14904400Y-3652200D01*
X14904400Y-3612200D02*
X14864400Y-3652200D01*
X14940600Y-9403400D02*
X14980600Y-9443400D01*
X14980600Y-9403400D02*
X14940600Y-9443400D01*
X15169200Y-4501200D02*
X15209200Y-4541200D01*
X15209200Y-4501200D02*
X15169200Y-4541200D01*
X15220000Y-6203000D02*
X15260000Y-6243000D01*
X15260000Y-6203000D02*
X15220000Y-6243000D01*
X15220000Y-8057200D02*
X15260000Y-8097200D01*
X15260000Y-8057200D02*
X15220000Y-8097200D01*
X15245400Y-9784400D02*
X15285400Y-9824400D01*
X15285400Y-9784400D02*
X15245400Y-9824400D01*
X16058200Y-5796600D02*
X16098200Y-5836600D01*
X16098200Y-5796600D02*
X16058200Y-5836600D01*
X16058200Y-6939600D02*
X16098200Y-6979600D01*
X16098200Y-6939600D02*
X16058200Y-6979600D01*
X16109000Y-9403400D02*
X16149000Y-9443400D01*
X16149000Y-9403400D02*
X16109000Y-9443400D01*
X16286800Y-4018600D02*
X16326800Y-4058600D01*
X16326800Y-4018600D02*
X16286800Y-4058600D01*
X16337600Y-8819200D02*
X16377600Y-8859200D01*
X16377600Y-8819200D02*
X16337600Y-8859200D01*
X16413800Y-10622600D02*
X16453800Y-10662600D01*
X16453800Y-10622600D02*
X16413800Y-10662600D01*
X16464600Y-7269800D02*
X16504600Y-7309800D01*
X16504600Y-7269800D02*
X16464600Y-7309800D01*
X16591600Y-6457000D02*
X16631600Y-6497000D01*
X16631600Y-6457000D02*
X16591600Y-6497000D01*
X16595040Y-9936800D02*
X16635040Y-9976800D01*
X16635040Y-9936800D02*
X16595040Y-9976800D01*
X16718600Y-6711000D02*
X16758600Y-6751000D01*
X16758600Y-6711000D02*
X16718600Y-6751000D01*
X16871000Y-4044000D02*
X16911000Y-4084000D01*
X16911000Y-4044000D02*
X16871000Y-4084000D01*
X16871000Y-6711000D02*
X16911000Y-6751000D01*
X16911000Y-6711000D02*
X16871000Y-6751000D01*
X16921800Y-7473000D02*
X16961800Y-7513000D01*
X16961800Y-7473000D02*
X16921800Y-7513000D01*
X17023400Y-6711000D02*
X17063400Y-6751000D01*
X17063400Y-6711000D02*
X17023400Y-6751000D01*
X17455200Y-10063800D02*
X17495200Y-10103800D01*
X17495200Y-10063800D02*
X17455200Y-10103800D01*
X17531400Y-7473000D02*
X17571400Y-7513000D01*
X17571400Y-7473000D02*
X17531400Y-7513000D01*
X17963200Y-8311200D02*
X18003200Y-8351200D01*
X18003200Y-8311200D02*
X17963200Y-8351200D01*
X18649000Y-9428800D02*
X18689000Y-9468800D01*
X18689000Y-9428800D02*
X18649000Y-9468800D01*
X18750600Y-9505000D02*
X18790600Y-9545000D01*
X18790600Y-9505000D02*
X18750600Y-9545000D01*
X18750600Y-11435400D02*
X18790600Y-11475400D01*
X18790600Y-11435400D02*
X18750600Y-11475400D01*
X18826800Y-7523800D02*
X18866800Y-7563800D01*
X18866800Y-7523800D02*
X18826800Y-7563800D01*
X18852200Y-9581200D02*
X18892200Y-9621200D01*
X18892200Y-9581200D02*
X18852200Y-9621200D01*
X19004600Y-9708200D02*
X19044600Y-9748200D01*
X19044600Y-9708200D02*
X19004600Y-9748200D01*
X19106200Y-4425000D02*
X19146200Y-4465000D01*
X19146200Y-4425000D02*
X19106200Y-4465000D01*
X19106200Y-4780600D02*
X19146200Y-4820600D01*
X19146200Y-4780600D02*
X19106200Y-4820600D01*
D13*
X16766800Y-4457000D02*
G75*
G03*
X16766800Y-4457000I-40000J0D01*
G01*
X16966800Y-4457000D02*
G75*
G03*
X16966800Y-4457000I-40000J0D01*
G01*
X17337240Y-3936000D02*
G75*
G03*
X17337240Y-3936000I-40000J0D01*
G01*
X17337240Y-4190000D02*
G75*
G03*
X17337240Y-4190000I-40000J0D01*
G01*
X17337240Y-4444000D02*
G75*
G03*
X17337240Y-4444000I-40000J0D01*
G01*
X17337240Y-4698000D02*
G75*
G03*
X17337240Y-4698000I-40000J0D01*
G01*
X17337240Y-4952000D02*
G75*
G03*
X17337240Y-4952000I-40000J0D01*
G01*
X17337240Y-5206000D02*
G75*
G03*
X17337240Y-5206000I-40000J0D01*
G01*
X17337240Y-5460000D02*
G75*
G03*
X17337240Y-5460000I-40000J0D01*
G01*
X17337240Y-5714000D02*
G75*
G03*
X17337240Y-5714000I-40000J0D01*
G01*
X17337240Y-5968000D02*
G75*
G03*
X17337240Y-5968000I-40000J0D01*
G01*
X17337240Y-6222000D02*
G75*
G03*
X17337240Y-6222000I-40000J0D01*
G01*
X17337240Y-6476000D02*
G75*
G03*
X17337240Y-6476000I-40000J0D01*
G01*
X17337240Y-6730000D02*
G75*
G03*
X17337240Y-6730000I-40000J0D01*
G01*
X18861240Y-3936000D02*
G75*
G03*
X18861240Y-3936000I-40000J0D01*
G01*
X18861240Y-4190000D02*
G75*
G03*
X18861240Y-4190000I-40000J0D01*
G01*
X18861240Y-4444000D02*
G75*
G03*
X18861240Y-4444000I-40000J0D01*
G01*
X18861240Y-4698000D02*
G75*
G03*
X18861240Y-4698000I-40000J0D01*
G01*
X18861240Y-4952000D02*
G75*
G03*
X18861240Y-4952000I-40000J0D01*
G01*
X18861240Y-5206000D02*
G75*
G03*
X18861240Y-5206000I-40000J0D01*
G01*
X18861240Y-5460000D02*
G75*
G03*
X18861240Y-5460000I-40000J0D01*
G01*
X18861240Y-5714000D02*
G75*
G03*
X18861240Y-5714000I-40000J0D01*
G01*
X18861240Y-5968000D02*
G75*
G03*
X18861240Y-5968000I-40000J0D01*
G01*
X18861240Y-6222000D02*
G75*
G03*
X18861240Y-6222000I-40000J0D01*
G01*
X18861240Y-6476000D02*
G75*
G03*
X18861240Y-6476000I-40000J0D01*
G01*
X18861240Y-6730000D02*
G75*
G03*
X18861240Y-6730000I-40000J0D01*
G01*
D14*
X18569740Y-9112000D02*
X18569740Y-9202000D01*
X18524740Y-9157000D02*
X18614740Y-9157000D01*
X18632240Y-8111000D02*
X18632240Y-8201000D01*
X18587240Y-8156000D02*
X18677240Y-8156000D01*
X18632240Y-8365000D02*
X18632240Y-8455000D01*
X18587240Y-8410000D02*
X18677240Y-8410000D01*
X18632240Y-8619000D02*
X18632240Y-8709000D01*
X18587240Y-8664000D02*
X18677240Y-8664000D01*
X18632240Y-8873000D02*
X18632240Y-8963000D01*
X18587240Y-8918000D02*
X18677240Y-8918000D01*
X18754740Y-9112000D02*
X18754740Y-9202000D01*
X18709740Y-9157000D02*
X18799740Y-9157000D01*
D10*
X17586596Y-7282356D02*
X17586596Y-7211644D01*
X17515884Y-7211644D01*
X17515884Y-7282356D01*
X17586596Y-7282356D01*
X17840596Y-7282356D02*
X17840596Y-7211644D01*
X17769884Y-7211644D01*
X17769884Y-7282356D01*
X17840596Y-7282356D01*
X18094596Y-7282356D02*
X18094596Y-7211644D01*
X18023884Y-7211644D01*
X18023884Y-7282356D01*
X18094596Y-7282356D01*
X18348596Y-7282356D02*
X18348596Y-7211644D01*
X18277884Y-7211644D01*
X18277884Y-7282356D01*
X18348596Y-7282356D01*
X18602596Y-7282356D02*
X18602596Y-7211644D01*
X18531884Y-7211644D01*
X18531884Y-7282356D01*
X18602596Y-7282356D01*
D11*
X5542417Y-11991884D02*
X5542417Y-11791884D01*
X5542417Y-11791884D02*
X5590036Y-11791884D01*
X5590036Y-11791884D02*
X5618607Y-11801408D01*
X5618607Y-11801408D02*
X5637655Y-11820455D01*
X5637655Y-11820455D02*
X5647179Y-11839503D01*
X5647179Y-11839503D02*
X5656702Y-11877598D01*
X5656702Y-11877598D02*
X5656702Y-11906169D01*
X5656702Y-11906169D02*
X5647179Y-11944265D01*
X5647179Y-11944265D02*
X5637655Y-11963312D01*
X5637655Y-11963312D02*
X5618607Y-11982360D01*
X5618607Y-11982360D02*
X5590036Y-11991884D01*
X5590036Y-11991884D02*
X5542417Y-11991884D01*
X5742417Y-11991884D02*
X5742417Y-11858550D01*
X5742417Y-11896646D02*
X5751941Y-11877598D01*
X5751941Y-11877598D02*
X5761464Y-11868074D01*
X5761464Y-11868074D02*
X5780512Y-11858550D01*
X5780512Y-11858550D02*
X5799560Y-11858550D01*
X5866226Y-11991884D02*
X5866226Y-11858550D01*
X5866226Y-11791884D02*
X5856702Y-11801408D01*
X5856702Y-11801408D02*
X5866226Y-11810931D01*
X5866226Y-11810931D02*
X5875750Y-11801408D01*
X5875750Y-11801408D02*
X5866226Y-11791884D01*
X5866226Y-11791884D02*
X5866226Y-11810931D01*
X5990036Y-11991884D02*
X5970988Y-11982360D01*
X5970988Y-11982360D02*
X5961464Y-11963312D01*
X5961464Y-11963312D02*
X5961464Y-11791884D01*
X6094798Y-11991884D02*
X6075750Y-11982360D01*
X6075750Y-11982360D02*
X6066226Y-11963312D01*
X6066226Y-11963312D02*
X6066226Y-11791884D01*
X6323369Y-11991884D02*
X6323369Y-11791884D01*
X6323369Y-11791884D02*
X6390036Y-11934741D01*
X6390036Y-11934741D02*
X6456702Y-11791884D01*
X6456702Y-11791884D02*
X6456702Y-11991884D01*
X6637655Y-11991884D02*
X6637655Y-11887122D01*
X6637655Y-11887122D02*
X6628131Y-11868074D01*
X6628131Y-11868074D02*
X6609083Y-11858550D01*
X6609083Y-11858550D02*
X6570988Y-11858550D01*
X6570988Y-11858550D02*
X6551941Y-11868074D01*
X6637655Y-11982360D02*
X6618607Y-11991884D01*
X6618607Y-11991884D02*
X6570988Y-11991884D01*
X6570988Y-11991884D02*
X6551941Y-11982360D01*
X6551941Y-11982360D02*
X6542417Y-11963312D01*
X6542417Y-11963312D02*
X6542417Y-11944265D01*
X6542417Y-11944265D02*
X6551941Y-11925217D01*
X6551941Y-11925217D02*
X6570988Y-11915693D01*
X6570988Y-11915693D02*
X6618607Y-11915693D01*
X6618607Y-11915693D02*
X6637655Y-11906169D01*
X6732893Y-11858550D02*
X6732893Y-12058550D01*
X6732893Y-11868074D02*
X6751941Y-11858550D01*
X6751941Y-11858550D02*
X6790036Y-11858550D01*
X6790036Y-11858550D02*
X6809083Y-11868074D01*
X6809083Y-11868074D02*
X6818607Y-11877598D01*
X6818607Y-11877598D02*
X6828131Y-11896646D01*
X6828131Y-11896646D02*
X6828131Y-11953788D01*
X6828131Y-11953788D02*
X6818607Y-11972836D01*
X6818607Y-11972836D02*
X6809083Y-11982360D01*
X6809083Y-11982360D02*
X6790036Y-11991884D01*
X6790036Y-11991884D02*
X6751941Y-11991884D01*
X6751941Y-11991884D02*
X6732893Y-11982360D01*
X6913845Y-11972836D02*
X6923369Y-11982360D01*
X6923369Y-11982360D02*
X6913845Y-11991884D01*
X6913845Y-11991884D02*
X6904322Y-11982360D01*
X6904322Y-11982360D02*
X6913845Y-11972836D01*
X6913845Y-11972836D02*
X6913845Y-11991884D01*
X6913845Y-11868074D02*
X6923369Y-11877598D01*
X6923369Y-11877598D02*
X6913845Y-11887122D01*
X6913845Y-11887122D02*
X6904322Y-11877598D01*
X6904322Y-11877598D02*
X6913845Y-11868074D01*
X6913845Y-11868074D02*
X6913845Y-11887122D01*
D12*
X5241640Y-12300400D02*
X5281640Y-12340400D01*
X5281640Y-12300400D02*
X5241640Y-12340400D01*
D11*
X5580512Y-12211884D02*
X5599560Y-12211884D01*
X5599560Y-12211884D02*
X5618607Y-12221408D01*
X5618607Y-12221408D02*
X5628131Y-12230931D01*
X5628131Y-12230931D02*
X5637655Y-12249979D01*
X5637655Y-12249979D02*
X5647179Y-12288074D01*
X5647179Y-12288074D02*
X5647179Y-12335693D01*
X5647179Y-12335693D02*
X5637655Y-12373788D01*
X5637655Y-12373788D02*
X5628131Y-12392836D01*
X5628131Y-12392836D02*
X5618607Y-12402360D01*
X5618607Y-12402360D02*
X5599560Y-12411884D01*
X5599560Y-12411884D02*
X5580512Y-12411884D01*
X5580512Y-12411884D02*
X5561464Y-12402360D01*
X5561464Y-12402360D02*
X5551941Y-12392836D01*
X5551941Y-12392836D02*
X5542417Y-12373788D01*
X5542417Y-12373788D02*
X5532893Y-12335693D01*
X5532893Y-12335693D02*
X5532893Y-12288074D01*
X5532893Y-12288074D02*
X5542417Y-12249979D01*
X5542417Y-12249979D02*
X5551941Y-12230931D01*
X5551941Y-12230931D02*
X5561464Y-12221408D01*
X5561464Y-12221408D02*
X5580512Y-12211884D01*
X5732893Y-12392836D02*
X5742417Y-12402360D01*
X5742417Y-12402360D02*
X5732893Y-12411884D01*
X5732893Y-12411884D02*
X5723369Y-12402360D01*
X5723369Y-12402360D02*
X5732893Y-12392836D01*
X5732893Y-12392836D02*
X5732893Y-12411884D01*
X5913845Y-12278550D02*
X5913845Y-12411884D01*
X5866226Y-12202360D02*
X5818607Y-12345217D01*
X5818607Y-12345217D02*
X5942417Y-12345217D01*
X6056702Y-12211884D02*
X6075750Y-12211884D01*
X6075750Y-12211884D02*
X6094798Y-12221408D01*
X6094798Y-12221408D02*
X6104322Y-12230931D01*
X6104322Y-12230931D02*
X6113845Y-12249979D01*
X6113845Y-12249979D02*
X6123369Y-12288074D01*
X6123369Y-12288074D02*
X6123369Y-12335693D01*
X6123369Y-12335693D02*
X6113845Y-12373788D01*
X6113845Y-12373788D02*
X6104322Y-12392836D01*
X6104322Y-12392836D02*
X6094798Y-12402360D01*
X6094798Y-12402360D02*
X6075750Y-12411884D01*
X6075750Y-12411884D02*
X6056702Y-12411884D01*
X6056702Y-12411884D02*
X6037655Y-12402360D01*
X6037655Y-12402360D02*
X6028131Y-12392836D01*
X6028131Y-12392836D02*
X6018607Y-12373788D01*
X6018607Y-12373788D02*
X6009083Y-12335693D01*
X6009083Y-12335693D02*
X6009083Y-12288074D01*
X6009083Y-12288074D02*
X6018607Y-12249979D01*
X6018607Y-12249979D02*
X6028131Y-12230931D01*
X6028131Y-12230931D02*
X6037655Y-12221408D01*
X6037655Y-12221408D02*
X6056702Y-12211884D01*
X6247179Y-12211884D02*
X6266226Y-12211884D01*
X6266226Y-12211884D02*
X6285274Y-12221408D01*
X6285274Y-12221408D02*
X6294798Y-12230931D01*
X6294798Y-12230931D02*
X6304322Y-12249979D01*
X6304322Y-12249979D02*
X6313845Y-12288074D01*
X6313845Y-12288074D02*
X6313845Y-12335693D01*
X6313845Y-12335693D02*
X6304322Y-12373788D01*
X6304322Y-12373788D02*
X6294798Y-12392836D01*
X6294798Y-12392836D02*
X6285274Y-12402360D01*
X6285274Y-12402360D02*
X6266226Y-12411884D01*
X6266226Y-12411884D02*
X6247179Y-12411884D01*
X6247179Y-12411884D02*
X6228131Y-12402360D01*
X6228131Y-12402360D02*
X6218607Y-12392836D01*
X6218607Y-12392836D02*
X6209083Y-12373788D01*
X6209083Y-12373788D02*
X6199560Y-12335693D01*
X6199560Y-12335693D02*
X6199560Y-12288074D01*
X6199560Y-12288074D02*
X6209083Y-12249979D01*
X6209083Y-12249979D02*
X6218607Y-12230931D01*
X6218607Y-12230931D02*
X6228131Y-12221408D01*
X6228131Y-12221408D02*
X6247179Y-12211884D01*
X6399560Y-12411884D02*
X6399560Y-12278550D01*
X6399560Y-12297598D02*
X6409083Y-12288074D01*
X6409083Y-12288074D02*
X6428131Y-12278550D01*
X6428131Y-12278550D02*
X6456703Y-12278550D01*
X6456703Y-12278550D02*
X6475750Y-12288074D01*
X6475750Y-12288074D02*
X6485274Y-12307122D01*
X6485274Y-12307122D02*
X6485274Y-12411884D01*
X6485274Y-12307122D02*
X6494798Y-12288074D01*
X6494798Y-12288074D02*
X6513845Y-12278550D01*
X6513845Y-12278550D02*
X6542417Y-12278550D01*
X6542417Y-12278550D02*
X6561464Y-12288074D01*
X6561464Y-12288074D02*
X6570988Y-12307122D01*
X6570988Y-12307122D02*
X6570988Y-12411884D01*
X6666226Y-12411884D02*
X6666226Y-12278550D01*
X6666226Y-12297598D02*
X6675750Y-12288074D01*
X6675750Y-12288074D02*
X6694798Y-12278550D01*
X6694798Y-12278550D02*
X6723369Y-12278550D01*
X6723369Y-12278550D02*
X6742417Y-12288074D01*
X6742417Y-12288074D02*
X6751941Y-12307122D01*
X6751941Y-12307122D02*
X6751941Y-12411884D01*
X6751941Y-12307122D02*
X6761464Y-12288074D01*
X6761464Y-12288074D02*
X6780512Y-12278550D01*
X6780512Y-12278550D02*
X6809083Y-12278550D01*
X6809083Y-12278550D02*
X6828131Y-12288074D01*
X6828131Y-12288074D02*
X6837655Y-12307122D01*
X6837655Y-12307122D02*
X6837655Y-12411884D01*
X7228131Y-12202360D02*
X7056703Y-12459503D01*
X7485274Y-12211884D02*
X7504322Y-12211884D01*
X7504322Y-12211884D02*
X7523369Y-12221408D01*
X7523369Y-12221408D02*
X7532893Y-12230931D01*
X7532893Y-12230931D02*
X7542417Y-12249979D01*
X7542417Y-12249979D02*
X7551941Y-12288074D01*
X7551941Y-12288074D02*
X7551941Y-12335693D01*
X7551941Y-12335693D02*
X7542417Y-12373788D01*
X7542417Y-12373788D02*
X7532893Y-12392836D01*
X7532893Y-12392836D02*
X7523369Y-12402360D01*
X7523369Y-12402360D02*
X7504322Y-12411884D01*
X7504322Y-12411884D02*
X7485274Y-12411884D01*
X7485274Y-12411884D02*
X7466226Y-12402360D01*
X7466226Y-12402360D02*
X7456703Y-12392836D01*
X7456703Y-12392836D02*
X7447179Y-12373788D01*
X7447179Y-12373788D02*
X7437655Y-12335693D01*
X7437655Y-12335693D02*
X7437655Y-12288074D01*
X7437655Y-12288074D02*
X7447179Y-12249979D01*
X7447179Y-12249979D02*
X7456703Y-12230931D01*
X7456703Y-12230931D02*
X7466226Y-12221408D01*
X7466226Y-12221408D02*
X7485274Y-12211884D01*
X7637655Y-12392836D02*
X7647179Y-12402360D01*
X7647179Y-12402360D02*
X7637655Y-12411884D01*
X7637655Y-12411884D02*
X7628131Y-12402360D01*
X7628131Y-12402360D02*
X7637655Y-12392836D01*
X7637655Y-12392836D02*
X7637655Y-12411884D01*
X7770988Y-12211884D02*
X7790036Y-12211884D01*
X7790036Y-12211884D02*
X7809084Y-12221408D01*
X7809084Y-12221408D02*
X7818607Y-12230931D01*
X7818607Y-12230931D02*
X7828131Y-12249979D01*
X7828131Y-12249979D02*
X7837655Y-12288074D01*
X7837655Y-12288074D02*
X7837655Y-12335693D01*
X7837655Y-12335693D02*
X7828131Y-12373788D01*
X7828131Y-12373788D02*
X7818607Y-12392836D01*
X7818607Y-12392836D02*
X7809084Y-12402360D01*
X7809084Y-12402360D02*
X7790036Y-12411884D01*
X7790036Y-12411884D02*
X7770988Y-12411884D01*
X7770988Y-12411884D02*
X7751941Y-12402360D01*
X7751941Y-12402360D02*
X7742417Y-12392836D01*
X7742417Y-12392836D02*
X7732893Y-12373788D01*
X7732893Y-12373788D02*
X7723369Y-12335693D01*
X7723369Y-12335693D02*
X7723369Y-12288074D01*
X7723369Y-12288074D02*
X7732893Y-12249979D01*
X7732893Y-12249979D02*
X7742417Y-12230931D01*
X7742417Y-12230931D02*
X7751941Y-12221408D01*
X7751941Y-12221408D02*
X7770988Y-12211884D01*
X8028131Y-12411884D02*
X7913846Y-12411884D01*
X7970988Y-12411884D02*
X7970988Y-12211884D01*
X7970988Y-12211884D02*
X7951941Y-12240455D01*
X7951941Y-12240455D02*
X7932893Y-12259503D01*
X7932893Y-12259503D02*
X7913846Y-12269027D01*
X8209084Y-12211884D02*
X8113846Y-12211884D01*
X8113846Y-12211884D02*
X8104322Y-12307122D01*
X8104322Y-12307122D02*
X8113846Y-12297598D01*
X8113846Y-12297598D02*
X8132893Y-12288074D01*
X8132893Y-12288074D02*
X8180512Y-12288074D01*
X8180512Y-12288074D02*
X8199560Y-12297598D01*
X8199560Y-12297598D02*
X8209084Y-12307122D01*
X8209084Y-12307122D02*
X8218607Y-12326169D01*
X8218607Y-12326169D02*
X8218607Y-12373788D01*
X8218607Y-12373788D02*
X8209084Y-12392836D01*
X8209084Y-12392836D02*
X8199560Y-12402360D01*
X8199560Y-12402360D02*
X8180512Y-12411884D01*
X8180512Y-12411884D02*
X8132893Y-12411884D01*
X8132893Y-12411884D02*
X8113846Y-12402360D01*
X8113846Y-12402360D02*
X8104322Y-12392836D01*
X8285274Y-12211884D02*
X8418608Y-12211884D01*
X8418608Y-12211884D02*
X8332893Y-12411884D01*
X8485274Y-12211884D02*
X8485274Y-12249979D01*
X8561465Y-12211884D02*
X8561465Y-12249979D01*
X8856703Y-12488074D02*
X8847179Y-12478550D01*
X8847179Y-12478550D02*
X8828131Y-12449979D01*
X8828131Y-12449979D02*
X8818608Y-12430931D01*
X8818608Y-12430931D02*
X8809084Y-12402360D01*
X8809084Y-12402360D02*
X8799560Y-12354741D01*
X8799560Y-12354741D02*
X8799560Y-12316646D01*
X8799560Y-12316646D02*
X8809084Y-12269027D01*
X8809084Y-12269027D02*
X8818608Y-12240455D01*
X8818608Y-12240455D02*
X8828131Y-12221408D01*
X8828131Y-12221408D02*
X8847179Y-12192836D01*
X8847179Y-12192836D02*
X8856703Y-12183312D01*
X8942417Y-12411884D02*
X8980512Y-12411884D01*
X8980512Y-12411884D02*
X8999560Y-12402360D01*
X8999560Y-12402360D02*
X9009084Y-12392836D01*
X9009084Y-12392836D02*
X9028131Y-12364265D01*
X9028131Y-12364265D02*
X9037655Y-12326169D01*
X9037655Y-12326169D02*
X9037655Y-12249979D01*
X9037655Y-12249979D02*
X9028131Y-12230931D01*
X9028131Y-12230931D02*
X9018608Y-12221408D01*
X9018608Y-12221408D02*
X8999560Y-12211884D01*
X8999560Y-12211884D02*
X8961465Y-12211884D01*
X8961465Y-12211884D02*
X8942417Y-12221408D01*
X8942417Y-12221408D02*
X8932893Y-12230931D01*
X8932893Y-12230931D02*
X8923370Y-12249979D01*
X8923370Y-12249979D02*
X8923370Y-12297598D01*
X8923370Y-12297598D02*
X8932893Y-12316646D01*
X8932893Y-12316646D02*
X8942417Y-12326169D01*
X8942417Y-12326169D02*
X8961465Y-12335693D01*
X8961465Y-12335693D02*
X8999560Y-12335693D01*
X8999560Y-12335693D02*
X9018608Y-12326169D01*
X9018608Y-12326169D02*
X9028131Y-12316646D01*
X9028131Y-12316646D02*
X9037655Y-12297598D01*
X9113846Y-12230931D02*
X9123370Y-12221408D01*
X9123370Y-12221408D02*
X9142417Y-12211884D01*
X9142417Y-12211884D02*
X9190036Y-12211884D01*
X9190036Y-12211884D02*
X9209084Y-12221408D01*
X9209084Y-12221408D02*
X9218608Y-12230931D01*
X9218608Y-12230931D02*
X9228131Y-12249979D01*
X9228131Y-12249979D02*
X9228131Y-12269027D01*
X9228131Y-12269027D02*
X9218608Y-12297598D01*
X9218608Y-12297598D02*
X9104322Y-12411884D01*
X9104322Y-12411884D02*
X9228131Y-12411884D01*
X9466227Y-12411884D02*
X9466227Y-12211884D01*
X9551941Y-12411884D02*
X9551941Y-12307122D01*
X9551941Y-12307122D02*
X9542417Y-12288074D01*
X9542417Y-12288074D02*
X9523370Y-12278550D01*
X9523370Y-12278550D02*
X9494798Y-12278550D01*
X9494798Y-12278550D02*
X9475751Y-12288074D01*
X9475751Y-12288074D02*
X9466227Y-12297598D01*
X9675751Y-12411884D02*
X9656703Y-12402360D01*
X9656703Y-12402360D02*
X9647179Y-12392836D01*
X9647179Y-12392836D02*
X9637655Y-12373788D01*
X9637655Y-12373788D02*
X9637655Y-12316646D01*
X9637655Y-12316646D02*
X9647179Y-12297598D01*
X9647179Y-12297598D02*
X9656703Y-12288074D01*
X9656703Y-12288074D02*
X9675751Y-12278550D01*
X9675751Y-12278550D02*
X9704322Y-12278550D01*
X9704322Y-12278550D02*
X9723370Y-12288074D01*
X9723370Y-12288074D02*
X9732893Y-12297598D01*
X9732893Y-12297598D02*
X9742417Y-12316646D01*
X9742417Y-12316646D02*
X9742417Y-12373788D01*
X9742417Y-12373788D02*
X9732893Y-12392836D01*
X9732893Y-12392836D02*
X9723370Y-12402360D01*
X9723370Y-12402360D02*
X9704322Y-12411884D01*
X9704322Y-12411884D02*
X9675751Y-12411884D01*
X9856703Y-12411884D02*
X9837655Y-12402360D01*
X9837655Y-12402360D02*
X9828132Y-12383312D01*
X9828132Y-12383312D02*
X9828132Y-12211884D01*
X10009084Y-12402360D02*
X9990036Y-12411884D01*
X9990036Y-12411884D02*
X9951941Y-12411884D01*
X9951941Y-12411884D02*
X9932893Y-12402360D01*
X9932893Y-12402360D02*
X9923370Y-12383312D01*
X9923370Y-12383312D02*
X9923370Y-12307122D01*
X9923370Y-12307122D02*
X9932893Y-12288074D01*
X9932893Y-12288074D02*
X9951941Y-12278550D01*
X9951941Y-12278550D02*
X9990036Y-12278550D01*
X9990036Y-12278550D02*
X10009084Y-12288074D01*
X10009084Y-12288074D02*
X10018608Y-12307122D01*
X10018608Y-12307122D02*
X10018608Y-12326169D01*
X10018608Y-12326169D02*
X9923370Y-12345217D01*
X10094798Y-12402360D02*
X10113846Y-12411884D01*
X10113846Y-12411884D02*
X10151941Y-12411884D01*
X10151941Y-12411884D02*
X10170989Y-12402360D01*
X10170989Y-12402360D02*
X10180513Y-12383312D01*
X10180513Y-12383312D02*
X10180513Y-12373788D01*
X10180513Y-12373788D02*
X10170989Y-12354741D01*
X10170989Y-12354741D02*
X10151941Y-12345217D01*
X10151941Y-12345217D02*
X10123370Y-12345217D01*
X10123370Y-12345217D02*
X10104322Y-12335693D01*
X10104322Y-12335693D02*
X10094798Y-12316646D01*
X10094798Y-12316646D02*
X10094798Y-12307122D01*
X10094798Y-12307122D02*
X10104322Y-12288074D01*
X10104322Y-12288074D02*
X10123370Y-12278550D01*
X10123370Y-12278550D02*
X10151941Y-12278550D01*
X10151941Y-12278550D02*
X10170989Y-12288074D01*
X10247179Y-12488074D02*
X10256703Y-12478550D01*
X10256703Y-12478550D02*
X10275751Y-12449979D01*
X10275751Y-12449979D02*
X10285274Y-12430931D01*
X10285274Y-12430931D02*
X10294798Y-12402360D01*
X10294798Y-12402360D02*
X10304322Y-12354741D01*
X10304322Y-12354741D02*
X10304322Y-12316646D01*
X10304322Y-12316646D02*
X10294798Y-12269027D01*
X10294798Y-12269027D02*
X10285274Y-12240455D01*
X10285274Y-12240455D02*
X10275751Y-12221408D01*
X10275751Y-12221408D02*
X10256703Y-12192836D01*
X10256703Y-12192836D02*
X10247179Y-12183312D01*
D13*
X5281640Y-12584400D02*
G75*
G03*
X5281640Y-12584400I-40000J0D01*
G01*
D11*
X5580512Y-12475884D02*
X5599560Y-12475884D01*
X5599560Y-12475884D02*
X5618607Y-12485408D01*
X5618607Y-12485408D02*
X5628131Y-12494931D01*
X5628131Y-12494931D02*
X5637655Y-12513979D01*
X5637655Y-12513979D02*
X5647179Y-12552074D01*
X5647179Y-12552074D02*
X5647179Y-12599693D01*
X5647179Y-12599693D02*
X5637655Y-12637788D01*
X5637655Y-12637788D02*
X5628131Y-12656836D01*
X5628131Y-12656836D02*
X5618607Y-12666360D01*
X5618607Y-12666360D02*
X5599560Y-12675884D01*
X5599560Y-12675884D02*
X5580512Y-12675884D01*
X5580512Y-12675884D02*
X5561464Y-12666360D01*
X5561464Y-12666360D02*
X5551941Y-12656836D01*
X5551941Y-12656836D02*
X5542417Y-12637788D01*
X5542417Y-12637788D02*
X5532893Y-12599693D01*
X5532893Y-12599693D02*
X5532893Y-12552074D01*
X5532893Y-12552074D02*
X5542417Y-12513979D01*
X5542417Y-12513979D02*
X5551941Y-12494931D01*
X5551941Y-12494931D02*
X5561464Y-12485408D01*
X5561464Y-12485408D02*
X5580512Y-12475884D01*
X5732893Y-12656836D02*
X5742417Y-12666360D01*
X5742417Y-12666360D02*
X5732893Y-12675884D01*
X5732893Y-12675884D02*
X5723369Y-12666360D01*
X5723369Y-12666360D02*
X5732893Y-12656836D01*
X5732893Y-12656836D02*
X5732893Y-12675884D01*
X5856702Y-12561598D02*
X5837655Y-12552074D01*
X5837655Y-12552074D02*
X5828131Y-12542550D01*
X5828131Y-12542550D02*
X5818607Y-12523503D01*
X5818607Y-12523503D02*
X5818607Y-12513979D01*
X5818607Y-12513979D02*
X5828131Y-12494931D01*
X5828131Y-12494931D02*
X5837655Y-12485408D01*
X5837655Y-12485408D02*
X5856702Y-12475884D01*
X5856702Y-12475884D02*
X5894798Y-12475884D01*
X5894798Y-12475884D02*
X5913845Y-12485408D01*
X5913845Y-12485408D02*
X5923369Y-12494931D01*
X5923369Y-12494931D02*
X5932893Y-12513979D01*
X5932893Y-12513979D02*
X5932893Y-12523503D01*
X5932893Y-12523503D02*
X5923369Y-12542550D01*
X5923369Y-12542550D02*
X5913845Y-12552074D01*
X5913845Y-12552074D02*
X5894798Y-12561598D01*
X5894798Y-12561598D02*
X5856702Y-12561598D01*
X5856702Y-12561598D02*
X5837655Y-12571122D01*
X5837655Y-12571122D02*
X5828131Y-12580646D01*
X5828131Y-12580646D02*
X5818607Y-12599693D01*
X5818607Y-12599693D02*
X5818607Y-12637788D01*
X5818607Y-12637788D02*
X5828131Y-12656836D01*
X5828131Y-12656836D02*
X5837655Y-12666360D01*
X5837655Y-12666360D02*
X5856702Y-12675884D01*
X5856702Y-12675884D02*
X5894798Y-12675884D01*
X5894798Y-12675884D02*
X5913845Y-12666360D01*
X5913845Y-12666360D02*
X5923369Y-12656836D01*
X5923369Y-12656836D02*
X5932893Y-12637788D01*
X5932893Y-12637788D02*
X5932893Y-12599693D01*
X5932893Y-12599693D02*
X5923369Y-12580646D01*
X5923369Y-12580646D02*
X5913845Y-12571122D01*
X5913845Y-12571122D02*
X5894798Y-12561598D01*
X6056702Y-12475884D02*
X6075750Y-12475884D01*
X6075750Y-12475884D02*
X6094798Y-12485408D01*
X6094798Y-12485408D02*
X6104322Y-12494931D01*
X6104322Y-12494931D02*
X6113845Y-12513979D01*
X6113845Y-12513979D02*
X6123369Y-12552074D01*
X6123369Y-12552074D02*
X6123369Y-12599693D01*
X6123369Y-12599693D02*
X6113845Y-12637788D01*
X6113845Y-12637788D02*
X6104322Y-12656836D01*
X6104322Y-12656836D02*
X6094798Y-12666360D01*
X6094798Y-12666360D02*
X6075750Y-12675884D01*
X6075750Y-12675884D02*
X6056702Y-12675884D01*
X6056702Y-12675884D02*
X6037655Y-12666360D01*
X6037655Y-12666360D02*
X6028131Y-12656836D01*
X6028131Y-12656836D02*
X6018607Y-12637788D01*
X6018607Y-12637788D02*
X6009083Y-12599693D01*
X6009083Y-12599693D02*
X6009083Y-12552074D01*
X6009083Y-12552074D02*
X6018607Y-12513979D01*
X6018607Y-12513979D02*
X6028131Y-12494931D01*
X6028131Y-12494931D02*
X6037655Y-12485408D01*
X6037655Y-12485408D02*
X6056702Y-12475884D01*
X6247179Y-12475884D02*
X6266226Y-12475884D01*
X6266226Y-12475884D02*
X6285274Y-12485408D01*
X6285274Y-12485408D02*
X6294798Y-12494931D01*
X6294798Y-12494931D02*
X6304322Y-12513979D01*
X6304322Y-12513979D02*
X6313845Y-12552074D01*
X6313845Y-12552074D02*
X6313845Y-12599693D01*
X6313845Y-12599693D02*
X6304322Y-12637788D01*
X6304322Y-12637788D02*
X6294798Y-12656836D01*
X6294798Y-12656836D02*
X6285274Y-12666360D01*
X6285274Y-12666360D02*
X6266226Y-12675884D01*
X6266226Y-12675884D02*
X6247179Y-12675884D01*
X6247179Y-12675884D02*
X6228131Y-12666360D01*
X6228131Y-12666360D02*
X6218607Y-12656836D01*
X6218607Y-12656836D02*
X6209083Y-12637788D01*
X6209083Y-12637788D02*
X6199560Y-12599693D01*
X6199560Y-12599693D02*
X6199560Y-12552074D01*
X6199560Y-12552074D02*
X6209083Y-12513979D01*
X6209083Y-12513979D02*
X6218607Y-12494931D01*
X6218607Y-12494931D02*
X6228131Y-12485408D01*
X6228131Y-12485408D02*
X6247179Y-12475884D01*
X6399560Y-12675884D02*
X6399560Y-12542550D01*
X6399560Y-12561598D02*
X6409083Y-12552074D01*
X6409083Y-12552074D02*
X6428131Y-12542550D01*
X6428131Y-12542550D02*
X6456703Y-12542550D01*
X6456703Y-12542550D02*
X6475750Y-12552074D01*
X6475750Y-12552074D02*
X6485274Y-12571122D01*
X6485274Y-12571122D02*
X6485274Y-12675884D01*
X6485274Y-12571122D02*
X6494798Y-12552074D01*
X6494798Y-12552074D02*
X6513845Y-12542550D01*
X6513845Y-12542550D02*
X6542417Y-12542550D01*
X6542417Y-12542550D02*
X6561464Y-12552074D01*
X6561464Y-12552074D02*
X6570988Y-12571122D01*
X6570988Y-12571122D02*
X6570988Y-12675884D01*
X6666226Y-12675884D02*
X6666226Y-12542550D01*
X6666226Y-12561598D02*
X6675750Y-12552074D01*
X6675750Y-12552074D02*
X6694798Y-12542550D01*
X6694798Y-12542550D02*
X6723369Y-12542550D01*
X6723369Y-12542550D02*
X6742417Y-12552074D01*
X6742417Y-12552074D02*
X6751941Y-12571122D01*
X6751941Y-12571122D02*
X6751941Y-12675884D01*
X6751941Y-12571122D02*
X6761464Y-12552074D01*
X6761464Y-12552074D02*
X6780512Y-12542550D01*
X6780512Y-12542550D02*
X6809083Y-12542550D01*
X6809083Y-12542550D02*
X6828131Y-12552074D01*
X6828131Y-12552074D02*
X6837655Y-12571122D01*
X6837655Y-12571122D02*
X6837655Y-12675884D01*
X7228131Y-12466360D02*
X7056703Y-12723503D01*
X7485274Y-12475884D02*
X7504322Y-12475884D01*
X7504322Y-12475884D02*
X7523369Y-12485408D01*
X7523369Y-12485408D02*
X7532893Y-12494931D01*
X7532893Y-12494931D02*
X7542417Y-12513979D01*
X7542417Y-12513979D02*
X7551941Y-12552074D01*
X7551941Y-12552074D02*
X7551941Y-12599693D01*
X7551941Y-12599693D02*
X7542417Y-12637788D01*
X7542417Y-12637788D02*
X7532893Y-12656836D01*
X7532893Y-12656836D02*
X7523369Y-12666360D01*
X7523369Y-12666360D02*
X7504322Y-12675884D01*
X7504322Y-12675884D02*
X7485274Y-12675884D01*
X7485274Y-12675884D02*
X7466226Y-12666360D01*
X7466226Y-12666360D02*
X7456703Y-12656836D01*
X7456703Y-12656836D02*
X7447179Y-12637788D01*
X7447179Y-12637788D02*
X7437655Y-12599693D01*
X7437655Y-12599693D02*
X7437655Y-12552074D01*
X7437655Y-12552074D02*
X7447179Y-12513979D01*
X7447179Y-12513979D02*
X7456703Y-12494931D01*
X7456703Y-12494931D02*
X7466226Y-12485408D01*
X7466226Y-12485408D02*
X7485274Y-12475884D01*
X7637655Y-12656836D02*
X7647179Y-12666360D01*
X7647179Y-12666360D02*
X7637655Y-12675884D01*
X7637655Y-12675884D02*
X7628131Y-12666360D01*
X7628131Y-12666360D02*
X7637655Y-12656836D01*
X7637655Y-12656836D02*
X7637655Y-12675884D01*
X7770988Y-12475884D02*
X7790036Y-12475884D01*
X7790036Y-12475884D02*
X7809084Y-12485408D01*
X7809084Y-12485408D02*
X7818607Y-12494931D01*
X7818607Y-12494931D02*
X7828131Y-12513979D01*
X7828131Y-12513979D02*
X7837655Y-12552074D01*
X7837655Y-12552074D02*
X7837655Y-12599693D01*
X7837655Y-12599693D02*
X7828131Y-12637788D01*
X7828131Y-12637788D02*
X7818607Y-12656836D01*
X7818607Y-12656836D02*
X7809084Y-12666360D01*
X7809084Y-12666360D02*
X7790036Y-12675884D01*
X7790036Y-12675884D02*
X7770988Y-12675884D01*
X7770988Y-12675884D02*
X7751941Y-12666360D01*
X7751941Y-12666360D02*
X7742417Y-12656836D01*
X7742417Y-12656836D02*
X7732893Y-12637788D01*
X7732893Y-12637788D02*
X7723369Y-12599693D01*
X7723369Y-12599693D02*
X7723369Y-12552074D01*
X7723369Y-12552074D02*
X7732893Y-12513979D01*
X7732893Y-12513979D02*
X7742417Y-12494931D01*
X7742417Y-12494931D02*
X7751941Y-12485408D01*
X7751941Y-12485408D02*
X7770988Y-12475884D01*
X7904322Y-12475884D02*
X8028131Y-12475884D01*
X8028131Y-12475884D02*
X7961465Y-12552074D01*
X7961465Y-12552074D02*
X7990036Y-12552074D01*
X7990036Y-12552074D02*
X8009084Y-12561598D01*
X8009084Y-12561598D02*
X8018607Y-12571122D01*
X8018607Y-12571122D02*
X8028131Y-12590169D01*
X8028131Y-12590169D02*
X8028131Y-12637788D01*
X8028131Y-12637788D02*
X8018607Y-12656836D01*
X8018607Y-12656836D02*
X8009084Y-12666360D01*
X8009084Y-12666360D02*
X7990036Y-12675884D01*
X7990036Y-12675884D02*
X7932893Y-12675884D01*
X7932893Y-12675884D02*
X7913846Y-12666360D01*
X7913846Y-12666360D02*
X7904322Y-12656836D01*
X8218607Y-12675884D02*
X8104322Y-12675884D01*
X8161465Y-12675884D02*
X8161465Y-12475884D01*
X8161465Y-12475884D02*
X8142417Y-12504455D01*
X8142417Y-12504455D02*
X8123369Y-12523503D01*
X8123369Y-12523503D02*
X8104322Y-12533027D01*
X8399560Y-12475884D02*
X8304322Y-12475884D01*
X8304322Y-12475884D02*
X8294798Y-12571122D01*
X8294798Y-12571122D02*
X8304322Y-12561598D01*
X8304322Y-12561598D02*
X8323369Y-12552074D01*
X8323369Y-12552074D02*
X8370988Y-12552074D01*
X8370988Y-12552074D02*
X8390036Y-12561598D01*
X8390036Y-12561598D02*
X8399560Y-12571122D01*
X8399560Y-12571122D02*
X8409084Y-12590169D01*
X8409084Y-12590169D02*
X8409084Y-12637788D01*
X8409084Y-12637788D02*
X8399560Y-12656836D01*
X8399560Y-12656836D02*
X8390036Y-12666360D01*
X8390036Y-12666360D02*
X8370988Y-12675884D01*
X8370988Y-12675884D02*
X8323369Y-12675884D01*
X8323369Y-12675884D02*
X8304322Y-12666360D01*
X8304322Y-12666360D02*
X8294798Y-12656836D01*
X8485274Y-12475884D02*
X8485274Y-12513979D01*
X8561465Y-12475884D02*
X8561465Y-12513979D01*
X8856703Y-12752074D02*
X8847179Y-12742550D01*
X8847179Y-12742550D02*
X8828131Y-12713979D01*
X8828131Y-12713979D02*
X8818608Y-12694931D01*
X8818608Y-12694931D02*
X8809084Y-12666360D01*
X8809084Y-12666360D02*
X8799560Y-12618741D01*
X8799560Y-12618741D02*
X8799560Y-12580646D01*
X8799560Y-12580646D02*
X8809084Y-12533027D01*
X8809084Y-12533027D02*
X8818608Y-12504455D01*
X8818608Y-12504455D02*
X8828131Y-12485408D01*
X8828131Y-12485408D02*
X8847179Y-12456836D01*
X8847179Y-12456836D02*
X8856703Y-12447312D01*
X8923370Y-12494931D02*
X8932893Y-12485408D01*
X8932893Y-12485408D02*
X8951941Y-12475884D01*
X8951941Y-12475884D02*
X8999560Y-12475884D01*
X8999560Y-12475884D02*
X9018608Y-12485408D01*
X9018608Y-12485408D02*
X9028131Y-12494931D01*
X9028131Y-12494931D02*
X9037655Y-12513979D01*
X9037655Y-12513979D02*
X9037655Y-12533027D01*
X9037655Y-12533027D02*
X9028131Y-12561598D01*
X9028131Y-12561598D02*
X8913846Y-12675884D01*
X8913846Y-12675884D02*
X9037655Y-12675884D01*
X9209084Y-12475884D02*
X9170989Y-12475884D01*
X9170989Y-12475884D02*
X9151941Y-12485408D01*
X9151941Y-12485408D02*
X9142417Y-12494931D01*
X9142417Y-12494931D02*
X9123370Y-12523503D01*
X9123370Y-12523503D02*
X9113846Y-12561598D01*
X9113846Y-12561598D02*
X9113846Y-12637788D01*
X9113846Y-12637788D02*
X9123370Y-12656836D01*
X9123370Y-12656836D02*
X9132893Y-12666360D01*
X9132893Y-12666360D02*
X9151941Y-12675884D01*
X9151941Y-12675884D02*
X9190036Y-12675884D01*
X9190036Y-12675884D02*
X9209084Y-12666360D01*
X9209084Y-12666360D02*
X9218608Y-12656836D01*
X9218608Y-12656836D02*
X9228131Y-12637788D01*
X9228131Y-12637788D02*
X9228131Y-12590169D01*
X9228131Y-12590169D02*
X9218608Y-12571122D01*
X9218608Y-12571122D02*
X9209084Y-12561598D01*
X9209084Y-12561598D02*
X9190036Y-12552074D01*
X9190036Y-12552074D02*
X9151941Y-12552074D01*
X9151941Y-12552074D02*
X9132893Y-12561598D01*
X9132893Y-12561598D02*
X9123370Y-12571122D01*
X9123370Y-12571122D02*
X9113846Y-12590169D01*
X9466227Y-12675884D02*
X9466227Y-12475884D01*
X9551941Y-12675884D02*
X9551941Y-12571122D01*
X9551941Y-12571122D02*
X9542417Y-12552074D01*
X9542417Y-12552074D02*
X9523370Y-12542550D01*
X9523370Y-12542550D02*
X9494798Y-12542550D01*
X9494798Y-12542550D02*
X9475751Y-12552074D01*
X9475751Y-12552074D02*
X9466227Y-12561598D01*
X9675751Y-12675884D02*
X9656703Y-12666360D01*
X9656703Y-12666360D02*
X9647179Y-12656836D01*
X9647179Y-12656836D02*
X9637655Y-12637788D01*
X9637655Y-12637788D02*
X9637655Y-12580646D01*
X9637655Y-12580646D02*
X9647179Y-12561598D01*
X9647179Y-12561598D02*
X9656703Y-12552074D01*
X9656703Y-12552074D02*
X9675751Y-12542550D01*
X9675751Y-12542550D02*
X9704322Y-12542550D01*
X9704322Y-12542550D02*
X9723370Y-12552074D01*
X9723370Y-12552074D02*
X9732893Y-12561598D01*
X9732893Y-12561598D02*
X9742417Y-12580646D01*
X9742417Y-12580646D02*
X9742417Y-12637788D01*
X9742417Y-12637788D02*
X9732893Y-12656836D01*
X9732893Y-12656836D02*
X9723370Y-12666360D01*
X9723370Y-12666360D02*
X9704322Y-12675884D01*
X9704322Y-12675884D02*
X9675751Y-12675884D01*
X9856703Y-12675884D02*
X9837655Y-12666360D01*
X9837655Y-12666360D02*
X9828132Y-12647312D01*
X9828132Y-12647312D02*
X9828132Y-12475884D01*
X10009084Y-12666360D02*
X9990036Y-12675884D01*
X9990036Y-12675884D02*
X9951941Y-12675884D01*
X9951941Y-12675884D02*
X9932893Y-12666360D01*
X9932893Y-12666360D02*
X9923370Y-12647312D01*
X9923370Y-12647312D02*
X9923370Y-12571122D01*
X9923370Y-12571122D02*
X9932893Y-12552074D01*
X9932893Y-12552074D02*
X9951941Y-12542550D01*
X9951941Y-12542550D02*
X9990036Y-12542550D01*
X9990036Y-12542550D02*
X10009084Y-12552074D01*
X10009084Y-12552074D02*
X10018608Y-12571122D01*
X10018608Y-12571122D02*
X10018608Y-12590169D01*
X10018608Y-12590169D02*
X9923370Y-12609217D01*
X10094798Y-12666360D02*
X10113846Y-12675884D01*
X10113846Y-12675884D02*
X10151941Y-12675884D01*
X10151941Y-12675884D02*
X10170989Y-12666360D01*
X10170989Y-12666360D02*
X10180513Y-12647312D01*
X10180513Y-12647312D02*
X10180513Y-12637788D01*
X10180513Y-12637788D02*
X10170989Y-12618741D01*
X10170989Y-12618741D02*
X10151941Y-12609217D01*
X10151941Y-12609217D02*
X10123370Y-12609217D01*
X10123370Y-12609217D02*
X10104322Y-12599693D01*
X10104322Y-12599693D02*
X10094798Y-12580646D01*
X10094798Y-12580646D02*
X10094798Y-12571122D01*
X10094798Y-12571122D02*
X10104322Y-12552074D01*
X10104322Y-12552074D02*
X10123370Y-12542550D01*
X10123370Y-12542550D02*
X10151941Y-12542550D01*
X10151941Y-12542550D02*
X10170989Y-12552074D01*
X10247179Y-12752074D02*
X10256703Y-12742550D01*
X10256703Y-12742550D02*
X10275751Y-12713979D01*
X10275751Y-12713979D02*
X10285274Y-12694931D01*
X10285274Y-12694931D02*
X10294798Y-12666360D01*
X10294798Y-12666360D02*
X10304322Y-12618741D01*
X10304322Y-12618741D02*
X10304322Y-12580646D01*
X10304322Y-12580646D02*
X10294798Y-12533027D01*
X10294798Y-12533027D02*
X10285274Y-12504455D01*
X10285274Y-12504455D02*
X10275751Y-12485408D01*
X10275751Y-12485408D02*
X10256703Y-12456836D01*
X10256703Y-12456836D02*
X10247179Y-12447312D01*
D14*
X5236640Y-12803400D02*
X5236640Y-12893400D01*
X5191640Y-12848400D02*
X5281640Y-12848400D01*
D11*
X5580512Y-12739884D02*
X5599560Y-12739884D01*
X5599560Y-12739884D02*
X5618607Y-12749408D01*
X5618607Y-12749408D02*
X5628131Y-12758931D01*
X5628131Y-12758931D02*
X5637655Y-12777979D01*
X5637655Y-12777979D02*
X5647179Y-12816074D01*
X5647179Y-12816074D02*
X5647179Y-12863693D01*
X5647179Y-12863693D02*
X5637655Y-12901788D01*
X5637655Y-12901788D02*
X5628131Y-12920836D01*
X5628131Y-12920836D02*
X5618607Y-12930360D01*
X5618607Y-12930360D02*
X5599560Y-12939884D01*
X5599560Y-12939884D02*
X5580512Y-12939884D01*
X5580512Y-12939884D02*
X5561464Y-12930360D01*
X5561464Y-12930360D02*
X5551941Y-12920836D01*
X5551941Y-12920836D02*
X5542417Y-12901788D01*
X5542417Y-12901788D02*
X5532893Y-12863693D01*
X5532893Y-12863693D02*
X5532893Y-12816074D01*
X5532893Y-12816074D02*
X5542417Y-12777979D01*
X5542417Y-12777979D02*
X5551941Y-12758931D01*
X5551941Y-12758931D02*
X5561464Y-12749408D01*
X5561464Y-12749408D02*
X5580512Y-12739884D01*
X5732893Y-12920836D02*
X5742417Y-12930360D01*
X5742417Y-12930360D02*
X5732893Y-12939884D01*
X5732893Y-12939884D02*
X5723369Y-12930360D01*
X5723369Y-12930360D02*
X5732893Y-12920836D01*
X5732893Y-12920836D02*
X5732893Y-12939884D01*
X5837655Y-12939884D02*
X5875750Y-12939884D01*
X5875750Y-12939884D02*
X5894798Y-12930360D01*
X5894798Y-12930360D02*
X5904322Y-12920836D01*
X5904322Y-12920836D02*
X5923369Y-12892265D01*
X5923369Y-12892265D02*
X5932893Y-12854169D01*
X5932893Y-12854169D02*
X5932893Y-12777979D01*
X5932893Y-12777979D02*
X5923369Y-12758931D01*
X5923369Y-12758931D02*
X5913845Y-12749408D01*
X5913845Y-12749408D02*
X5894798Y-12739884D01*
X5894798Y-12739884D02*
X5856702Y-12739884D01*
X5856702Y-12739884D02*
X5837655Y-12749408D01*
X5837655Y-12749408D02*
X5828131Y-12758931D01*
X5828131Y-12758931D02*
X5818607Y-12777979D01*
X5818607Y-12777979D02*
X5818607Y-12825598D01*
X5818607Y-12825598D02*
X5828131Y-12844646D01*
X5828131Y-12844646D02*
X5837655Y-12854169D01*
X5837655Y-12854169D02*
X5856702Y-12863693D01*
X5856702Y-12863693D02*
X5894798Y-12863693D01*
X5894798Y-12863693D02*
X5913845Y-12854169D01*
X5913845Y-12854169D02*
X5923369Y-12844646D01*
X5923369Y-12844646D02*
X5932893Y-12825598D01*
X6056702Y-12739884D02*
X6075750Y-12739884D01*
X6075750Y-12739884D02*
X6094798Y-12749408D01*
X6094798Y-12749408D02*
X6104322Y-12758931D01*
X6104322Y-12758931D02*
X6113845Y-12777979D01*
X6113845Y-12777979D02*
X6123369Y-12816074D01*
X6123369Y-12816074D02*
X6123369Y-12863693D01*
X6123369Y-12863693D02*
X6113845Y-12901788D01*
X6113845Y-12901788D02*
X6104322Y-12920836D01*
X6104322Y-12920836D02*
X6094798Y-12930360D01*
X6094798Y-12930360D02*
X6075750Y-12939884D01*
X6075750Y-12939884D02*
X6056702Y-12939884D01*
X6056702Y-12939884D02*
X6037655Y-12930360D01*
X6037655Y-12930360D02*
X6028131Y-12920836D01*
X6028131Y-12920836D02*
X6018607Y-12901788D01*
X6018607Y-12901788D02*
X6009083Y-12863693D01*
X6009083Y-12863693D02*
X6009083Y-12816074D01*
X6009083Y-12816074D02*
X6018607Y-12777979D01*
X6018607Y-12777979D02*
X6028131Y-12758931D01*
X6028131Y-12758931D02*
X6037655Y-12749408D01*
X6037655Y-12749408D02*
X6056702Y-12739884D01*
X6247179Y-12739884D02*
X6266226Y-12739884D01*
X6266226Y-12739884D02*
X6285274Y-12749408D01*
X6285274Y-12749408D02*
X6294798Y-12758931D01*
X6294798Y-12758931D02*
X6304322Y-12777979D01*
X6304322Y-12777979D02*
X6313845Y-12816074D01*
X6313845Y-12816074D02*
X6313845Y-12863693D01*
X6313845Y-12863693D02*
X6304322Y-12901788D01*
X6304322Y-12901788D02*
X6294798Y-12920836D01*
X6294798Y-12920836D02*
X6285274Y-12930360D01*
X6285274Y-12930360D02*
X6266226Y-12939884D01*
X6266226Y-12939884D02*
X6247179Y-12939884D01*
X6247179Y-12939884D02*
X6228131Y-12930360D01*
X6228131Y-12930360D02*
X6218607Y-12920836D01*
X6218607Y-12920836D02*
X6209083Y-12901788D01*
X6209083Y-12901788D02*
X6199560Y-12863693D01*
X6199560Y-12863693D02*
X6199560Y-12816074D01*
X6199560Y-12816074D02*
X6209083Y-12777979D01*
X6209083Y-12777979D02*
X6218607Y-12758931D01*
X6218607Y-12758931D02*
X6228131Y-12749408D01*
X6228131Y-12749408D02*
X6247179Y-12739884D01*
X6399560Y-12939884D02*
X6399560Y-12806550D01*
X6399560Y-12825598D02*
X6409083Y-12816074D01*
X6409083Y-12816074D02*
X6428131Y-12806550D01*
X6428131Y-12806550D02*
X6456703Y-12806550D01*
X6456703Y-12806550D02*
X6475750Y-12816074D01*
X6475750Y-12816074D02*
X6485274Y-12835122D01*
X6485274Y-12835122D02*
X6485274Y-12939884D01*
X6485274Y-12835122D02*
X6494798Y-12816074D01*
X6494798Y-12816074D02*
X6513845Y-12806550D01*
X6513845Y-12806550D02*
X6542417Y-12806550D01*
X6542417Y-12806550D02*
X6561464Y-12816074D01*
X6561464Y-12816074D02*
X6570988Y-12835122D01*
X6570988Y-12835122D02*
X6570988Y-12939884D01*
X6666226Y-12939884D02*
X6666226Y-12806550D01*
X6666226Y-12825598D02*
X6675750Y-12816074D01*
X6675750Y-12816074D02*
X6694798Y-12806550D01*
X6694798Y-12806550D02*
X6723369Y-12806550D01*
X6723369Y-12806550D02*
X6742417Y-12816074D01*
X6742417Y-12816074D02*
X6751941Y-12835122D01*
X6751941Y-12835122D02*
X6751941Y-12939884D01*
X6751941Y-12835122D02*
X6761464Y-12816074D01*
X6761464Y-12816074D02*
X6780512Y-12806550D01*
X6780512Y-12806550D02*
X6809083Y-12806550D01*
X6809083Y-12806550D02*
X6828131Y-12816074D01*
X6828131Y-12816074D02*
X6837655Y-12835122D01*
X6837655Y-12835122D02*
X6837655Y-12939884D01*
X7228131Y-12730360D02*
X7056703Y-12987503D01*
X7485274Y-12739884D02*
X7504322Y-12739884D01*
X7504322Y-12739884D02*
X7523369Y-12749408D01*
X7523369Y-12749408D02*
X7532893Y-12758931D01*
X7532893Y-12758931D02*
X7542417Y-12777979D01*
X7542417Y-12777979D02*
X7551941Y-12816074D01*
X7551941Y-12816074D02*
X7551941Y-12863693D01*
X7551941Y-12863693D02*
X7542417Y-12901788D01*
X7542417Y-12901788D02*
X7532893Y-12920836D01*
X7532893Y-12920836D02*
X7523369Y-12930360D01*
X7523369Y-12930360D02*
X7504322Y-12939884D01*
X7504322Y-12939884D02*
X7485274Y-12939884D01*
X7485274Y-12939884D02*
X7466226Y-12930360D01*
X7466226Y-12930360D02*
X7456703Y-12920836D01*
X7456703Y-12920836D02*
X7447179Y-12901788D01*
X7447179Y-12901788D02*
X7437655Y-12863693D01*
X7437655Y-12863693D02*
X7437655Y-12816074D01*
X7437655Y-12816074D02*
X7447179Y-12777979D01*
X7447179Y-12777979D02*
X7456703Y-12758931D01*
X7456703Y-12758931D02*
X7466226Y-12749408D01*
X7466226Y-12749408D02*
X7485274Y-12739884D01*
X7637655Y-12920836D02*
X7647179Y-12930360D01*
X7647179Y-12930360D02*
X7637655Y-12939884D01*
X7637655Y-12939884D02*
X7628131Y-12930360D01*
X7628131Y-12930360D02*
X7637655Y-12920836D01*
X7637655Y-12920836D02*
X7637655Y-12939884D01*
X7770988Y-12739884D02*
X7790036Y-12739884D01*
X7790036Y-12739884D02*
X7809084Y-12749408D01*
X7809084Y-12749408D02*
X7818607Y-12758931D01*
X7818607Y-12758931D02*
X7828131Y-12777979D01*
X7828131Y-12777979D02*
X7837655Y-12816074D01*
X7837655Y-12816074D02*
X7837655Y-12863693D01*
X7837655Y-12863693D02*
X7828131Y-12901788D01*
X7828131Y-12901788D02*
X7818607Y-12920836D01*
X7818607Y-12920836D02*
X7809084Y-12930360D01*
X7809084Y-12930360D02*
X7790036Y-12939884D01*
X7790036Y-12939884D02*
X7770988Y-12939884D01*
X7770988Y-12939884D02*
X7751941Y-12930360D01*
X7751941Y-12930360D02*
X7742417Y-12920836D01*
X7742417Y-12920836D02*
X7732893Y-12901788D01*
X7732893Y-12901788D02*
X7723369Y-12863693D01*
X7723369Y-12863693D02*
X7723369Y-12816074D01*
X7723369Y-12816074D02*
X7732893Y-12777979D01*
X7732893Y-12777979D02*
X7742417Y-12758931D01*
X7742417Y-12758931D02*
X7751941Y-12749408D01*
X7751941Y-12749408D02*
X7770988Y-12739884D01*
X7904322Y-12739884D02*
X8028131Y-12739884D01*
X8028131Y-12739884D02*
X7961465Y-12816074D01*
X7961465Y-12816074D02*
X7990036Y-12816074D01*
X7990036Y-12816074D02*
X8009084Y-12825598D01*
X8009084Y-12825598D02*
X8018607Y-12835122D01*
X8018607Y-12835122D02*
X8028131Y-12854169D01*
X8028131Y-12854169D02*
X8028131Y-12901788D01*
X8028131Y-12901788D02*
X8018607Y-12920836D01*
X8018607Y-12920836D02*
X8009084Y-12930360D01*
X8009084Y-12930360D02*
X7990036Y-12939884D01*
X7990036Y-12939884D02*
X7932893Y-12939884D01*
X7932893Y-12939884D02*
X7913846Y-12930360D01*
X7913846Y-12930360D02*
X7904322Y-12920836D01*
X8209084Y-12739884D02*
X8113846Y-12739884D01*
X8113846Y-12739884D02*
X8104322Y-12835122D01*
X8104322Y-12835122D02*
X8113846Y-12825598D01*
X8113846Y-12825598D02*
X8132893Y-12816074D01*
X8132893Y-12816074D02*
X8180512Y-12816074D01*
X8180512Y-12816074D02*
X8199560Y-12825598D01*
X8199560Y-12825598D02*
X8209084Y-12835122D01*
X8209084Y-12835122D02*
X8218607Y-12854169D01*
X8218607Y-12854169D02*
X8218607Y-12901788D01*
X8218607Y-12901788D02*
X8209084Y-12920836D01*
X8209084Y-12920836D02*
X8199560Y-12930360D01*
X8199560Y-12930360D02*
X8180512Y-12939884D01*
X8180512Y-12939884D02*
X8132893Y-12939884D01*
X8132893Y-12939884D02*
X8113846Y-12930360D01*
X8113846Y-12930360D02*
X8104322Y-12920836D01*
X8390036Y-12806550D02*
X8390036Y-12939884D01*
X8342417Y-12730360D02*
X8294798Y-12873217D01*
X8294798Y-12873217D02*
X8418608Y-12873217D01*
X8485274Y-12739884D02*
X8485274Y-12777979D01*
X8561465Y-12739884D02*
X8561465Y-12777979D01*
X8856703Y-13016074D02*
X8847179Y-13006550D01*
X8847179Y-13006550D02*
X8828131Y-12977979D01*
X8828131Y-12977979D02*
X8818608Y-12958931D01*
X8818608Y-12958931D02*
X8809084Y-12930360D01*
X8809084Y-12930360D02*
X8799560Y-12882741D01*
X8799560Y-12882741D02*
X8799560Y-12844646D01*
X8799560Y-12844646D02*
X8809084Y-12797027D01*
X8809084Y-12797027D02*
X8818608Y-12768455D01*
X8818608Y-12768455D02*
X8828131Y-12749408D01*
X8828131Y-12749408D02*
X8847179Y-12720836D01*
X8847179Y-12720836D02*
X8856703Y-12711312D01*
X9018608Y-12739884D02*
X8980512Y-12739884D01*
X8980512Y-12739884D02*
X8961465Y-12749408D01*
X8961465Y-12749408D02*
X8951941Y-12758931D01*
X8951941Y-12758931D02*
X8932893Y-12787503D01*
X8932893Y-12787503D02*
X8923370Y-12825598D01*
X8923370Y-12825598D02*
X8923370Y-12901788D01*
X8923370Y-12901788D02*
X8932893Y-12920836D01*
X8932893Y-12920836D02*
X8942417Y-12930360D01*
X8942417Y-12930360D02*
X8961465Y-12939884D01*
X8961465Y-12939884D02*
X8999560Y-12939884D01*
X8999560Y-12939884D02*
X9018608Y-12930360D01*
X9018608Y-12930360D02*
X9028131Y-12920836D01*
X9028131Y-12920836D02*
X9037655Y-12901788D01*
X9037655Y-12901788D02*
X9037655Y-12854169D01*
X9037655Y-12854169D02*
X9028131Y-12835122D01*
X9028131Y-12835122D02*
X9018608Y-12825598D01*
X9018608Y-12825598D02*
X8999560Y-12816074D01*
X8999560Y-12816074D02*
X8961465Y-12816074D01*
X8961465Y-12816074D02*
X8942417Y-12825598D01*
X8942417Y-12825598D02*
X8932893Y-12835122D01*
X8932893Y-12835122D02*
X8923370Y-12854169D01*
X9275751Y-12939884D02*
X9275751Y-12739884D01*
X9361465Y-12939884D02*
X9361465Y-12835122D01*
X9361465Y-12835122D02*
X9351941Y-12816074D01*
X9351941Y-12816074D02*
X9332893Y-12806550D01*
X9332893Y-12806550D02*
X9304322Y-12806550D01*
X9304322Y-12806550D02*
X9285274Y-12816074D01*
X9285274Y-12816074D02*
X9275751Y-12825598D01*
X9485274Y-12939884D02*
X9466227Y-12930360D01*
X9466227Y-12930360D02*
X9456703Y-12920836D01*
X9456703Y-12920836D02*
X9447179Y-12901788D01*
X9447179Y-12901788D02*
X9447179Y-12844646D01*
X9447179Y-12844646D02*
X9456703Y-12825598D01*
X9456703Y-12825598D02*
X9466227Y-12816074D01*
X9466227Y-12816074D02*
X9485274Y-12806550D01*
X9485274Y-12806550D02*
X9513846Y-12806550D01*
X9513846Y-12806550D02*
X9532893Y-12816074D01*
X9532893Y-12816074D02*
X9542417Y-12825598D01*
X9542417Y-12825598D02*
X9551941Y-12844646D01*
X9551941Y-12844646D02*
X9551941Y-12901788D01*
X9551941Y-12901788D02*
X9542417Y-12920836D01*
X9542417Y-12920836D02*
X9532893Y-12930360D01*
X9532893Y-12930360D02*
X9513846Y-12939884D01*
X9513846Y-12939884D02*
X9485274Y-12939884D01*
X9666227Y-12939884D02*
X9647179Y-12930360D01*
X9647179Y-12930360D02*
X9637655Y-12911312D01*
X9637655Y-12911312D02*
X9637655Y-12739884D01*
X9818608Y-12930360D02*
X9799560Y-12939884D01*
X9799560Y-12939884D02*
X9761465Y-12939884D01*
X9761465Y-12939884D02*
X9742417Y-12930360D01*
X9742417Y-12930360D02*
X9732893Y-12911312D01*
X9732893Y-12911312D02*
X9732893Y-12835122D01*
X9732893Y-12835122D02*
X9742417Y-12816074D01*
X9742417Y-12816074D02*
X9761465Y-12806550D01*
X9761465Y-12806550D02*
X9799560Y-12806550D01*
X9799560Y-12806550D02*
X9818608Y-12816074D01*
X9818608Y-12816074D02*
X9828132Y-12835122D01*
X9828132Y-12835122D02*
X9828132Y-12854169D01*
X9828132Y-12854169D02*
X9732893Y-12873217D01*
X9904322Y-12930360D02*
X9923370Y-12939884D01*
X9923370Y-12939884D02*
X9961465Y-12939884D01*
X9961465Y-12939884D02*
X9980513Y-12930360D01*
X9980513Y-12930360D02*
X9990036Y-12911312D01*
X9990036Y-12911312D02*
X9990036Y-12901788D01*
X9990036Y-12901788D02*
X9980513Y-12882741D01*
X9980513Y-12882741D02*
X9961465Y-12873217D01*
X9961465Y-12873217D02*
X9932893Y-12873217D01*
X9932893Y-12873217D02*
X9913846Y-12863693D01*
X9913846Y-12863693D02*
X9904322Y-12844646D01*
X9904322Y-12844646D02*
X9904322Y-12835122D01*
X9904322Y-12835122D02*
X9913846Y-12816074D01*
X9913846Y-12816074D02*
X9932893Y-12806550D01*
X9932893Y-12806550D02*
X9961465Y-12806550D01*
X9961465Y-12806550D02*
X9980513Y-12816074D01*
X10056703Y-13016074D02*
X10066227Y-13006550D01*
X10066227Y-13006550D02*
X10085274Y-12977979D01*
X10085274Y-12977979D02*
X10094798Y-12958931D01*
X10094798Y-12958931D02*
X10104322Y-12930360D01*
X10104322Y-12930360D02*
X10113846Y-12882741D01*
X10113846Y-12882741D02*
X10113846Y-12844646D01*
X10113846Y-12844646D02*
X10104322Y-12797027D01*
X10104322Y-12797027D02*
X10094798Y-12768455D01*
X10094798Y-12768455D02*
X10085274Y-12749408D01*
X10085274Y-12749408D02*
X10066227Y-12720836D01*
X10066227Y-12720836D02*
X10056703Y-12711312D01*
D10*
X5266996Y-13147756D02*
X5266996Y-13077044D01*
X5196284Y-13077044D01*
X5196284Y-13147756D01*
X5266996Y-13147756D01*
D11*
X5647179Y-13203884D02*
X5532893Y-13203884D01*
X5590036Y-13203884D02*
X5590036Y-13003884D01*
X5590036Y-13003884D02*
X5570988Y-13032455D01*
X5570988Y-13032455D02*
X5551941Y-13051503D01*
X5551941Y-13051503D02*
X5532893Y-13061027D01*
X5732893Y-13184836D02*
X5742417Y-13194360D01*
X5742417Y-13194360D02*
X5732893Y-13203884D01*
X5732893Y-13203884D02*
X5723369Y-13194360D01*
X5723369Y-13194360D02*
X5732893Y-13184836D01*
X5732893Y-13184836D02*
X5732893Y-13203884D01*
X5866226Y-13003884D02*
X5885274Y-13003884D01*
X5885274Y-13003884D02*
X5904322Y-13013408D01*
X5904322Y-13013408D02*
X5913845Y-13022931D01*
X5913845Y-13022931D02*
X5923369Y-13041979D01*
X5923369Y-13041979D02*
X5932893Y-13080074D01*
X5932893Y-13080074D02*
X5932893Y-13127693D01*
X5932893Y-13127693D02*
X5923369Y-13165788D01*
X5923369Y-13165788D02*
X5913845Y-13184836D01*
X5913845Y-13184836D02*
X5904322Y-13194360D01*
X5904322Y-13194360D02*
X5885274Y-13203884D01*
X5885274Y-13203884D02*
X5866226Y-13203884D01*
X5866226Y-13203884D02*
X5847179Y-13194360D01*
X5847179Y-13194360D02*
X5837655Y-13184836D01*
X5837655Y-13184836D02*
X5828131Y-13165788D01*
X5828131Y-13165788D02*
X5818607Y-13127693D01*
X5818607Y-13127693D02*
X5818607Y-13080074D01*
X5818607Y-13080074D02*
X5828131Y-13041979D01*
X5828131Y-13041979D02*
X5837655Y-13022931D01*
X5837655Y-13022931D02*
X5847179Y-13013408D01*
X5847179Y-13013408D02*
X5866226Y-13003884D01*
X6056702Y-13003884D02*
X6075750Y-13003884D01*
X6075750Y-13003884D02*
X6094798Y-13013408D01*
X6094798Y-13013408D02*
X6104322Y-13022931D01*
X6104322Y-13022931D02*
X6113845Y-13041979D01*
X6113845Y-13041979D02*
X6123369Y-13080074D01*
X6123369Y-13080074D02*
X6123369Y-13127693D01*
X6123369Y-13127693D02*
X6113845Y-13165788D01*
X6113845Y-13165788D02*
X6104322Y-13184836D01*
X6104322Y-13184836D02*
X6094798Y-13194360D01*
X6094798Y-13194360D02*
X6075750Y-13203884D01*
X6075750Y-13203884D02*
X6056702Y-13203884D01*
X6056702Y-13203884D02*
X6037655Y-13194360D01*
X6037655Y-13194360D02*
X6028131Y-13184836D01*
X6028131Y-13184836D02*
X6018607Y-13165788D01*
X6018607Y-13165788D02*
X6009083Y-13127693D01*
X6009083Y-13127693D02*
X6009083Y-13080074D01*
X6009083Y-13080074D02*
X6018607Y-13041979D01*
X6018607Y-13041979D02*
X6028131Y-13022931D01*
X6028131Y-13022931D02*
X6037655Y-13013408D01*
X6037655Y-13013408D02*
X6056702Y-13003884D01*
X6247179Y-13003884D02*
X6266226Y-13003884D01*
X6266226Y-13003884D02*
X6285274Y-13013408D01*
X6285274Y-13013408D02*
X6294798Y-13022931D01*
X6294798Y-13022931D02*
X6304322Y-13041979D01*
X6304322Y-13041979D02*
X6313845Y-13080074D01*
X6313845Y-13080074D02*
X6313845Y-13127693D01*
X6313845Y-13127693D02*
X6304322Y-13165788D01*
X6304322Y-13165788D02*
X6294798Y-13184836D01*
X6294798Y-13184836D02*
X6285274Y-13194360D01*
X6285274Y-13194360D02*
X6266226Y-13203884D01*
X6266226Y-13203884D02*
X6247179Y-13203884D01*
X6247179Y-13203884D02*
X6228131Y-13194360D01*
X6228131Y-13194360D02*
X6218607Y-13184836D01*
X6218607Y-13184836D02*
X6209083Y-13165788D01*
X6209083Y-13165788D02*
X6199560Y-13127693D01*
X6199560Y-13127693D02*
X6199560Y-13080074D01*
X6199560Y-13080074D02*
X6209083Y-13041979D01*
X6209083Y-13041979D02*
X6218607Y-13022931D01*
X6218607Y-13022931D02*
X6228131Y-13013408D01*
X6228131Y-13013408D02*
X6247179Y-13003884D01*
X6399560Y-13203884D02*
X6399560Y-13070550D01*
X6399560Y-13089598D02*
X6409083Y-13080074D01*
X6409083Y-13080074D02*
X6428131Y-13070550D01*
X6428131Y-13070550D02*
X6456703Y-13070550D01*
X6456703Y-13070550D02*
X6475750Y-13080074D01*
X6475750Y-13080074D02*
X6485274Y-13099122D01*
X6485274Y-13099122D02*
X6485274Y-13203884D01*
X6485274Y-13099122D02*
X6494798Y-13080074D01*
X6494798Y-13080074D02*
X6513845Y-13070550D01*
X6513845Y-13070550D02*
X6542417Y-13070550D01*
X6542417Y-13070550D02*
X6561464Y-13080074D01*
X6561464Y-13080074D02*
X6570988Y-13099122D01*
X6570988Y-13099122D02*
X6570988Y-13203884D01*
X6666226Y-13203884D02*
X6666226Y-13070550D01*
X6666226Y-13089598D02*
X6675750Y-13080074D01*
X6675750Y-13080074D02*
X6694798Y-13070550D01*
X6694798Y-13070550D02*
X6723369Y-13070550D01*
X6723369Y-13070550D02*
X6742417Y-13080074D01*
X6742417Y-13080074D02*
X6751941Y-13099122D01*
X6751941Y-13099122D02*
X6751941Y-13203884D01*
X6751941Y-13099122D02*
X6761464Y-13080074D01*
X6761464Y-13080074D02*
X6780512Y-13070550D01*
X6780512Y-13070550D02*
X6809083Y-13070550D01*
X6809083Y-13070550D02*
X6828131Y-13080074D01*
X6828131Y-13080074D02*
X6837655Y-13099122D01*
X6837655Y-13099122D02*
X6837655Y-13203884D01*
X7228131Y-12994360D02*
X7056703Y-13251503D01*
X7485274Y-13003884D02*
X7504322Y-13003884D01*
X7504322Y-13003884D02*
X7523369Y-13013408D01*
X7523369Y-13013408D02*
X7532893Y-13022931D01*
X7532893Y-13022931D02*
X7542417Y-13041979D01*
X7542417Y-13041979D02*
X7551941Y-13080074D01*
X7551941Y-13080074D02*
X7551941Y-13127693D01*
X7551941Y-13127693D02*
X7542417Y-13165788D01*
X7542417Y-13165788D02*
X7532893Y-13184836D01*
X7532893Y-13184836D02*
X7523369Y-13194360D01*
X7523369Y-13194360D02*
X7504322Y-13203884D01*
X7504322Y-13203884D02*
X7485274Y-13203884D01*
X7485274Y-13203884D02*
X7466226Y-13194360D01*
X7466226Y-13194360D02*
X7456703Y-13184836D01*
X7456703Y-13184836D02*
X7447179Y-13165788D01*
X7447179Y-13165788D02*
X7437655Y-13127693D01*
X7437655Y-13127693D02*
X7437655Y-13080074D01*
X7437655Y-13080074D02*
X7447179Y-13041979D01*
X7447179Y-13041979D02*
X7456703Y-13022931D01*
X7456703Y-13022931D02*
X7466226Y-13013408D01*
X7466226Y-13013408D02*
X7485274Y-13003884D01*
X7637655Y-13184836D02*
X7647179Y-13194360D01*
X7647179Y-13194360D02*
X7637655Y-13203884D01*
X7637655Y-13203884D02*
X7628131Y-13194360D01*
X7628131Y-13194360D02*
X7637655Y-13184836D01*
X7637655Y-13184836D02*
X7637655Y-13203884D01*
X7770988Y-13003884D02*
X7790036Y-13003884D01*
X7790036Y-13003884D02*
X7809084Y-13013408D01*
X7809084Y-13013408D02*
X7818607Y-13022931D01*
X7818607Y-13022931D02*
X7828131Y-13041979D01*
X7828131Y-13041979D02*
X7837655Y-13080074D01*
X7837655Y-13080074D02*
X7837655Y-13127693D01*
X7837655Y-13127693D02*
X7828131Y-13165788D01*
X7828131Y-13165788D02*
X7818607Y-13184836D01*
X7818607Y-13184836D02*
X7809084Y-13194360D01*
X7809084Y-13194360D02*
X7790036Y-13203884D01*
X7790036Y-13203884D02*
X7770988Y-13203884D01*
X7770988Y-13203884D02*
X7751941Y-13194360D01*
X7751941Y-13194360D02*
X7742417Y-13184836D01*
X7742417Y-13184836D02*
X7732893Y-13165788D01*
X7732893Y-13165788D02*
X7723369Y-13127693D01*
X7723369Y-13127693D02*
X7723369Y-13080074D01*
X7723369Y-13080074D02*
X7732893Y-13041979D01*
X7732893Y-13041979D02*
X7742417Y-13022931D01*
X7742417Y-13022931D02*
X7751941Y-13013408D01*
X7751941Y-13013408D02*
X7770988Y-13003884D01*
X7904322Y-13003884D02*
X8028131Y-13003884D01*
X8028131Y-13003884D02*
X7961465Y-13080074D01*
X7961465Y-13080074D02*
X7990036Y-13080074D01*
X7990036Y-13080074D02*
X8009084Y-13089598D01*
X8009084Y-13089598D02*
X8018607Y-13099122D01*
X8018607Y-13099122D02*
X8028131Y-13118169D01*
X8028131Y-13118169D02*
X8028131Y-13165788D01*
X8028131Y-13165788D02*
X8018607Y-13184836D01*
X8018607Y-13184836D02*
X8009084Y-13194360D01*
X8009084Y-13194360D02*
X7990036Y-13203884D01*
X7990036Y-13203884D02*
X7932893Y-13203884D01*
X7932893Y-13203884D02*
X7913846Y-13194360D01*
X7913846Y-13194360D02*
X7904322Y-13184836D01*
X8123369Y-13203884D02*
X8161465Y-13203884D01*
X8161465Y-13203884D02*
X8180512Y-13194360D01*
X8180512Y-13194360D02*
X8190036Y-13184836D01*
X8190036Y-13184836D02*
X8209084Y-13156265D01*
X8209084Y-13156265D02*
X8218607Y-13118169D01*
X8218607Y-13118169D02*
X8218607Y-13041979D01*
X8218607Y-13041979D02*
X8209084Y-13022931D01*
X8209084Y-13022931D02*
X8199560Y-13013408D01*
X8199560Y-13013408D02*
X8180512Y-13003884D01*
X8180512Y-13003884D02*
X8142417Y-13003884D01*
X8142417Y-13003884D02*
X8123369Y-13013408D01*
X8123369Y-13013408D02*
X8113846Y-13022931D01*
X8113846Y-13022931D02*
X8104322Y-13041979D01*
X8104322Y-13041979D02*
X8104322Y-13089598D01*
X8104322Y-13089598D02*
X8113846Y-13108646D01*
X8113846Y-13108646D02*
X8123369Y-13118169D01*
X8123369Y-13118169D02*
X8142417Y-13127693D01*
X8142417Y-13127693D02*
X8180512Y-13127693D01*
X8180512Y-13127693D02*
X8199560Y-13118169D01*
X8199560Y-13118169D02*
X8209084Y-13108646D01*
X8209084Y-13108646D02*
X8218607Y-13089598D01*
X8390036Y-13070550D02*
X8390036Y-13203884D01*
X8342417Y-12994360D02*
X8294798Y-13137217D01*
X8294798Y-13137217D02*
X8418608Y-13137217D01*
X8485274Y-13003884D02*
X8485274Y-13041979D01*
X8561465Y-13003884D02*
X8561465Y-13041979D01*
X8856703Y-13280074D02*
X8847179Y-13270550D01*
X8847179Y-13270550D02*
X8828131Y-13241979D01*
X8828131Y-13241979D02*
X8818608Y-13222931D01*
X8818608Y-13222931D02*
X8809084Y-13194360D01*
X8809084Y-13194360D02*
X8799560Y-13146741D01*
X8799560Y-13146741D02*
X8799560Y-13108646D01*
X8799560Y-13108646D02*
X8809084Y-13061027D01*
X8809084Y-13061027D02*
X8818608Y-13032455D01*
X8818608Y-13032455D02*
X8828131Y-13013408D01*
X8828131Y-13013408D02*
X8847179Y-12984836D01*
X8847179Y-12984836D02*
X8856703Y-12975312D01*
X9028131Y-13003884D02*
X8932893Y-13003884D01*
X8932893Y-13003884D02*
X8923370Y-13099122D01*
X8923370Y-13099122D02*
X8932893Y-13089598D01*
X8932893Y-13089598D02*
X8951941Y-13080074D01*
X8951941Y-13080074D02*
X8999560Y-13080074D01*
X8999560Y-13080074D02*
X9018608Y-13089598D01*
X9018608Y-13089598D02*
X9028131Y-13099122D01*
X9028131Y-13099122D02*
X9037655Y-13118169D01*
X9037655Y-13118169D02*
X9037655Y-13165788D01*
X9037655Y-13165788D02*
X9028131Y-13184836D01*
X9028131Y-13184836D02*
X9018608Y-13194360D01*
X9018608Y-13194360D02*
X8999560Y-13203884D01*
X8999560Y-13203884D02*
X8951941Y-13203884D01*
X8951941Y-13203884D02*
X8932893Y-13194360D01*
X8932893Y-13194360D02*
X8923370Y-13184836D01*
X9275751Y-13203884D02*
X9275751Y-13003884D01*
X9361465Y-13203884D02*
X9361465Y-13099122D01*
X9361465Y-13099122D02*
X9351941Y-13080074D01*
X9351941Y-13080074D02*
X9332893Y-13070550D01*
X9332893Y-13070550D02*
X9304322Y-13070550D01*
X9304322Y-13070550D02*
X9285274Y-13080074D01*
X9285274Y-13080074D02*
X9275751Y-13089598D01*
X9485274Y-13203884D02*
X9466227Y-13194360D01*
X9466227Y-13194360D02*
X9456703Y-13184836D01*
X9456703Y-13184836D02*
X9447179Y-13165788D01*
X9447179Y-13165788D02*
X9447179Y-13108646D01*
X9447179Y-13108646D02*
X9456703Y-13089598D01*
X9456703Y-13089598D02*
X9466227Y-13080074D01*
X9466227Y-13080074D02*
X9485274Y-13070550D01*
X9485274Y-13070550D02*
X9513846Y-13070550D01*
X9513846Y-13070550D02*
X9532893Y-13080074D01*
X9532893Y-13080074D02*
X9542417Y-13089598D01*
X9542417Y-13089598D02*
X9551941Y-13108646D01*
X9551941Y-13108646D02*
X9551941Y-13165788D01*
X9551941Y-13165788D02*
X9542417Y-13184836D01*
X9542417Y-13184836D02*
X9532893Y-13194360D01*
X9532893Y-13194360D02*
X9513846Y-13203884D01*
X9513846Y-13203884D02*
X9485274Y-13203884D01*
X9666227Y-13203884D02*
X9647179Y-13194360D01*
X9647179Y-13194360D02*
X9637655Y-13175312D01*
X9637655Y-13175312D02*
X9637655Y-13003884D01*
X9818608Y-13194360D02*
X9799560Y-13203884D01*
X9799560Y-13203884D02*
X9761465Y-13203884D01*
X9761465Y-13203884D02*
X9742417Y-13194360D01*
X9742417Y-13194360D02*
X9732893Y-13175312D01*
X9732893Y-13175312D02*
X9732893Y-13099122D01*
X9732893Y-13099122D02*
X9742417Y-13080074D01*
X9742417Y-13080074D02*
X9761465Y-13070550D01*
X9761465Y-13070550D02*
X9799560Y-13070550D01*
X9799560Y-13070550D02*
X9818608Y-13080074D01*
X9818608Y-13080074D02*
X9828132Y-13099122D01*
X9828132Y-13099122D02*
X9828132Y-13118169D01*
X9828132Y-13118169D02*
X9732893Y-13137217D01*
X9904322Y-13194360D02*
X9923370Y-13203884D01*
X9923370Y-13203884D02*
X9961465Y-13203884D01*
X9961465Y-13203884D02*
X9980513Y-13194360D01*
X9980513Y-13194360D02*
X9990036Y-13175312D01*
X9990036Y-13175312D02*
X9990036Y-13165788D01*
X9990036Y-13165788D02*
X9980513Y-13146741D01*
X9980513Y-13146741D02*
X9961465Y-13137217D01*
X9961465Y-13137217D02*
X9932893Y-13137217D01*
X9932893Y-13137217D02*
X9913846Y-13127693D01*
X9913846Y-13127693D02*
X9904322Y-13108646D01*
X9904322Y-13108646D02*
X9904322Y-13099122D01*
X9904322Y-13099122D02*
X9913846Y-13080074D01*
X9913846Y-13080074D02*
X9932893Y-13070550D01*
X9932893Y-13070550D02*
X9961465Y-13070550D01*
X9961465Y-13070550D02*
X9980513Y-13080074D01*
X10056703Y-13280074D02*
X10066227Y-13270550D01*
X10066227Y-13270550D02*
X10085274Y-13241979D01*
X10085274Y-13241979D02*
X10094798Y-13222931D01*
X10094798Y-13222931D02*
X10104322Y-13194360D01*
X10104322Y-13194360D02*
X10113846Y-13146741D01*
X10113846Y-13146741D02*
X10113846Y-13108646D01*
X10113846Y-13108646D02*
X10104322Y-13061027D01*
X10104322Y-13061027D02*
X10094798Y-13032455D01*
X10094798Y-13032455D02*
X10085274Y-13013408D01*
X10085274Y-13013408D02*
X10066227Y-12984836D01*
X10066227Y-12984836D02*
X10056703Y-12975312D01*
M02*
