%TF.GenerationSoftware,KiCad,Pcbnew,7.0.5-0*%
%TF.CreationDate,2023-08-03T20:32:26+09:30*%
%TF.ProjectId,Rolio,436f726e-6552-46f6-9c69-6f2e6b696361,rev?*%
%TF.SameCoordinates,Original*%
%TF.FileFunction,Soldermask,Bot*%
%TF.FilePolarity,Negative*%
%FSLAX46Y46*%
G04 Gerber Fmt 4.6, Leading zero omitted, Abs format (unit mm)*
G04 Created by KiCad (PCBNEW 7.0.5-0) date 2023-08-03 20:32:26*
%MOMM*%
%LPD*%
G01*
G04 APERTURE LIST*
G04 Aperture macros list*
%AMRoundRect*
0 Rectangle with rounded corners*
0 $1 Rounding radius*
0 $2 $3 $4 $5 $6 $7 $8 $9 X,Y pos of 4 corners*
0 Add a 4 corners polygon primitive as box body*
4,1,4,$2,$3,$4,$5,$6,$7,$8,$9,$2,$3,0*
0 Add four circle primitives for the rounded corners*
1,1,$1+$1,$2,$3*
1,1,$1+$1,$4,$5*
1,1,$1+$1,$6,$7*
1,1,$1+$1,$8,$9*
0 Add four rect primitives between the rounded corners*
20,1,$1+$1,$2,$3,$4,$5,0*
20,1,$1+$1,$4,$5,$6,$7,0*
20,1,$1+$1,$6,$7,$8,$9,0*
20,1,$1+$1,$8,$9,$2,$3,0*%
%AMRotRect*
0 Rectangle, with rotation*
0 The origin of the aperture is its center*
0 $1 length*
0 $2 width*
0 $3 Rotation angle, in degrees counterclockwise*
0 Add horizontal line*
21,1,$1,$2,0,0,$3*%
G04 Aperture macros list end*
%ADD10C,1.701800*%
%ADD11C,3.000000*%
%ADD12C,3.429000*%
%ADD13C,0.990600*%
%ADD14R,2.600000X2.600000*%
%ADD15C,4.300000*%
%ADD16R,1.700000X1.700000*%
%ADD17O,1.700000X1.700000*%
%ADD18C,1.500000*%
%ADD19C,1.600000*%
%ADD20C,0.900000*%
%ADD21R,1.600000X1.600000*%
%ADD22O,1.600000X1.600000*%
%ADD23RotRect,2.600000X2.600000X348.000000*%
%ADD24R,1.350000X1.350000*%
%ADD25O,1.350000X1.350000*%
%ADD26RoundRect,0.225000X-0.375000X0.225000X-0.375000X-0.225000X0.375000X-0.225000X0.375000X0.225000X0*%
%ADD27RoundRect,0.225000X-0.320025X0.298050X-0.413585X-0.142116X0.320025X-0.298050X0.413585X0.142116X0*%
%ADD28R,1.250000X1.000000*%
%ADD29RoundRect,0.225000X-0.225000X-0.375000X0.225000X-0.375000X0.225000X0.375000X-0.225000X0.375000X0*%
G04 APERTURE END LIST*
D10*
%TO.C,SW_B0*%
X76238000Y-45720000D03*
D11*
X76738000Y-49470000D03*
D12*
X81738000Y-45720000D03*
D11*
X81738000Y-51670000D03*
D13*
X86958000Y-41520000D03*
D10*
X87238000Y-45720000D03*
D14*
X85013000Y-51670000D03*
X73463000Y-49470000D03*
%TD*%
D10*
%TO.C,SW_B3*%
X114238000Y-96720000D03*
D11*
X114738000Y-100470000D03*
D12*
X119738000Y-96720000D03*
D11*
X119738000Y-102670000D03*
D13*
X124958000Y-92520000D03*
D10*
X125238000Y-96720000D03*
D14*
X123013000Y-102670000D03*
X111463000Y-100470000D03*
%TD*%
D15*
%TO.C,H3*%
X148456000Y-58032000D03*
%TD*%
D10*
%TO.C,SW_B4*%
X95238000Y-96720000D03*
D11*
X95738000Y-100470000D03*
D12*
X100738000Y-96720000D03*
D11*
X100738000Y-102670000D03*
D13*
X105958000Y-92520000D03*
D10*
X106238000Y-96720000D03*
D14*
X104013000Y-102670000D03*
X92463000Y-100470000D03*
%TD*%
D10*
%TO.C,SW_C1*%
X95238000Y-60720000D03*
D11*
X95738000Y-64470000D03*
D12*
X100738000Y-60720000D03*
D11*
X100738000Y-66670000D03*
D13*
X105958000Y-56520000D03*
D10*
X106238000Y-60720000D03*
D14*
X104013000Y-66670000D03*
X92463000Y-64470000D03*
%TD*%
D10*
%TO.C,SW_B1*%
X76238000Y-63720000D03*
D11*
X76738000Y-67470000D03*
D12*
X81738000Y-63720000D03*
D11*
X81738000Y-69670000D03*
D13*
X86958000Y-59520000D03*
D10*
X87238000Y-63720000D03*
D14*
X85013000Y-69670000D03*
X73463000Y-67470000D03*
%TD*%
D16*
%TO.C,Nice!View1*%
X185672400Y-72470000D03*
D17*
X183132400Y-72470000D03*
X180592400Y-72470000D03*
X178052400Y-72470000D03*
X175512400Y-72470000D03*
%TD*%
D15*
%TO.C,H4*%
X166998000Y-94100000D03*
%TD*%
D10*
%TO.C,SW_F0*%
X151970900Y-48970000D03*
D11*
X152470900Y-52720000D03*
D12*
X157470900Y-48970000D03*
D11*
X157470900Y-54920000D03*
D13*
X162690900Y-44770000D03*
D10*
X162970900Y-48970000D03*
D14*
X160745900Y-54920000D03*
X149195900Y-52720000D03*
%TD*%
D18*
%TO.C,RE_1*%
X186322400Y-79070000D03*
D19*
X186322400Y-89180000D03*
X186322400Y-86640000D03*
X186322400Y-84100000D03*
X186322400Y-81560000D03*
X187547400Y-91570000D03*
X185697400Y-91570000D03*
%TD*%
D15*
%TO.C,H1*%
X72256000Y-54476000D03*
%TD*%
D10*
%TO.C,SW_A2*%
X57238000Y-81720000D03*
D11*
X57738000Y-85470000D03*
D12*
X62738000Y-81720000D03*
D11*
X62738000Y-87670000D03*
D13*
X67958000Y-77520000D03*
D10*
X68238000Y-81720000D03*
D14*
X66013000Y-87670000D03*
X54463000Y-85470000D03*
%TD*%
D20*
%TO.C,SW4*%
X168150000Y-37002000D03*
X165150000Y-37002000D03*
%TD*%
D10*
%TO.C,SW_D1*%
X114238000Y-60720000D03*
D11*
X114738000Y-64470000D03*
D12*
X119738000Y-60720000D03*
D11*
X119738000Y-66670000D03*
D13*
X124958000Y-56520000D03*
D10*
X125238000Y-60720000D03*
D14*
X123013000Y-66670000D03*
X111463000Y-64470000D03*
%TD*%
D10*
%TO.C,SW_E2*%
X133238000Y-81720000D03*
D11*
X133738000Y-85470000D03*
D12*
X138738000Y-81720000D03*
D11*
X138738000Y-87670000D03*
D13*
X143958000Y-77520000D03*
D10*
X144238000Y-81720000D03*
D14*
X142013000Y-87670000D03*
X130463000Y-85470000D03*
%TD*%
D10*
%TO.C,SW_D2*%
X114238000Y-78720000D03*
D11*
X114738000Y-82470000D03*
D12*
X119738000Y-78720000D03*
D11*
X119738000Y-84670000D03*
D13*
X124958000Y-74520000D03*
D10*
X125238000Y-78720000D03*
D14*
X123013000Y-84670000D03*
X111463000Y-82470000D03*
%TD*%
D10*
%TO.C,SW_E0*%
X133238000Y-45720000D03*
D11*
X133738000Y-49470000D03*
D12*
X138738000Y-45720000D03*
D11*
X138738000Y-51670000D03*
D13*
X143958000Y-41520000D03*
D10*
X144238000Y-45720000D03*
D14*
X142013000Y-51670000D03*
X130463000Y-49470000D03*
%TD*%
D21*
%TO.C,NICE_NANO1*%
X172972400Y-39360000D03*
D22*
X172972400Y-41900000D03*
X172972400Y-44440000D03*
X172972400Y-46980000D03*
X172972400Y-49520000D03*
X172972400Y-52060000D03*
X172972400Y-54600000D03*
X172972400Y-57140000D03*
X172972400Y-59680000D03*
X172972400Y-62220000D03*
X172972400Y-64760000D03*
X172972400Y-67300000D03*
X188212400Y-67300000D03*
X188212400Y-64760000D03*
X188212400Y-62220000D03*
X188212400Y-59680000D03*
X188212400Y-57140000D03*
X188212400Y-54600000D03*
X188212400Y-52060000D03*
X188212400Y-49520000D03*
X188212400Y-46980000D03*
X188212400Y-44440000D03*
X188212400Y-41900000D03*
X188212400Y-39360000D03*
%TD*%
D15*
%TO.C,H5*%
X110610000Y-69716000D03*
%TD*%
D10*
%TO.C,SW_A1*%
X57238000Y-63720000D03*
D11*
X57738000Y-67470000D03*
D12*
X62738000Y-63720000D03*
D11*
X62738000Y-69670000D03*
D13*
X67958000Y-59520000D03*
D10*
X68238000Y-63720000D03*
D14*
X66013000Y-69670000D03*
X54463000Y-67470000D03*
%TD*%
D10*
%TO.C,SW_A0*%
X57238000Y-45720000D03*
D11*
X57738000Y-49470000D03*
D12*
X62738000Y-45720000D03*
D11*
X62738000Y-51670000D03*
D13*
X67958000Y-41520000D03*
D10*
X68238000Y-45720000D03*
D14*
X66013000Y-51670000D03*
X54463000Y-49470000D03*
%TD*%
D10*
%TO.C,SW_F2*%
X151970900Y-84970000D03*
D11*
X152470900Y-88720000D03*
D12*
X157470900Y-84970000D03*
D11*
X157470900Y-90920000D03*
D13*
X162690900Y-80770000D03*
D10*
X162970900Y-84970000D03*
D14*
X160745900Y-90920000D03*
X149195900Y-88720000D03*
%TD*%
D10*
%TO.C,SW_D0*%
X114238000Y-42470000D03*
D11*
X114738000Y-46220000D03*
D12*
X119738000Y-42470000D03*
D11*
X119738000Y-48420000D03*
D13*
X124958000Y-38270000D03*
D10*
X125238000Y-42470000D03*
D14*
X123013000Y-48420000D03*
X111463000Y-46220000D03*
%TD*%
D10*
%TO.C,SW_E3*%
X173029752Y-104445251D03*
D11*
X172739157Y-108217260D03*
D12*
X178409564Y-105588765D03*
D11*
X177172489Y-111408743D03*
D13*
X184388724Y-102565844D03*
D10*
X183789376Y-106732279D03*
D23*
X180375923Y-112089654D03*
X169535724Y-107536349D03*
%TD*%
D10*
%TO.C,SW_F1*%
X151970900Y-67015000D03*
D11*
X152470900Y-70765000D03*
D12*
X157470900Y-67015000D03*
D11*
X157470900Y-72965000D03*
D13*
X162690900Y-62815000D03*
D10*
X162970900Y-67015000D03*
D14*
X160745900Y-72965000D03*
X149195900Y-70765000D03*
%TD*%
D10*
%TO.C,SW_C2*%
X95238000Y-78720000D03*
D11*
X95738000Y-82470000D03*
D12*
X100738000Y-78720000D03*
D11*
X100738000Y-84670000D03*
D13*
X105958000Y-74520000D03*
D10*
X106238000Y-78720000D03*
D14*
X104013000Y-84670000D03*
X92463000Y-82470000D03*
%TD*%
D24*
%TO.C,BATT1*%
X167268000Y-44570000D03*
D25*
X169268000Y-44570000D03*
%TD*%
D10*
%TO.C,SW_E1*%
X133238000Y-63720000D03*
D11*
X133738000Y-67470000D03*
D12*
X138738000Y-63720000D03*
D11*
X138738000Y-69670000D03*
D13*
X143958000Y-59520000D03*
D10*
X144238000Y-63720000D03*
D14*
X142013000Y-69670000D03*
X130463000Y-67470000D03*
%TD*%
D10*
%TO.C,SW_C0*%
X95238000Y-42720000D03*
D11*
X95738000Y-46470000D03*
D12*
X100738000Y-42720000D03*
D11*
X100738000Y-48670000D03*
D13*
X105958000Y-38520000D03*
D10*
X106238000Y-42720000D03*
D14*
X104013000Y-48670000D03*
X92463000Y-46470000D03*
%TD*%
D15*
%TO.C,H2*%
X88426400Y-94910000D03*
%TD*%
D10*
%TO.C,SW_C3*%
X133238000Y-99970000D03*
D11*
X133738000Y-103720000D03*
D12*
X138738000Y-99970000D03*
D11*
X138738000Y-105920000D03*
D13*
X143958000Y-95770000D03*
D10*
X144238000Y-99970000D03*
D14*
X142013000Y-105920000D03*
X130463000Y-103720000D03*
%TD*%
D10*
%TO.C,SW_B2*%
X76238000Y-81720000D03*
D11*
X76738000Y-85470000D03*
D12*
X81738000Y-81720000D03*
D11*
X81738000Y-87670000D03*
D13*
X86958000Y-77520000D03*
D10*
X87238000Y-81720000D03*
D14*
X85013000Y-87670000D03*
X73463000Y-85470000D03*
%TD*%
D10*
%TO.C,SW_D3*%
X151970900Y-102970000D03*
D11*
X152470900Y-106720000D03*
D12*
X157470900Y-102970000D03*
D11*
X157470900Y-108920000D03*
D13*
X162690900Y-98770000D03*
D10*
X162970900Y-102970000D03*
D14*
X160745900Y-108920000D03*
X149195900Y-106720000D03*
%TD*%
D26*
%TO.C,D17*%
X72838000Y-75352500D03*
X72838000Y-78652500D03*
%TD*%
%TO.C,D10*%
X91838000Y-54352500D03*
X91838000Y-57652500D03*
%TD*%
%TO.C,D13*%
X148570900Y-78602500D03*
X148570900Y-81902500D03*
%TD*%
%TO.C,D1*%
X148570900Y-42602500D03*
X148570900Y-45902500D03*
%TD*%
%TO.C,D12*%
X56676400Y-57352500D03*
X56676400Y-60652500D03*
%TD*%
%TO.C,D14*%
X129838000Y-75352500D03*
X129838000Y-78652500D03*
%TD*%
%TO.C,D15*%
X110838000Y-75352500D03*
X110838000Y-78652500D03*
%TD*%
%TO.C,D3*%
X110838000Y-36102500D03*
X110838000Y-39402500D03*
%TD*%
%TO.C,D22*%
X129838000Y-93602500D03*
X129838000Y-96902500D03*
%TD*%
%TO.C,D23*%
X110838000Y-90032500D03*
X110838000Y-93332500D03*
%TD*%
%TO.C,D11*%
X72838000Y-60352500D03*
X72838000Y-63652500D03*
%TD*%
%TO.C,D7*%
X148570900Y-63647500D03*
X148570900Y-66947500D03*
%TD*%
D27*
%TO.C,D20*%
X171027927Y-97509996D03*
X170341819Y-100737884D03*
%TD*%
D26*
%TO.C,D29*%
X91838000Y-87544000D03*
X91838000Y-90844000D03*
%TD*%
%TO.C,D4*%
X91838000Y-36352500D03*
X91838000Y-39652500D03*
%TD*%
D28*
%TO.C,RESET1*%
X158530400Y-39284000D03*
X150780400Y-39284000D03*
%TD*%
D26*
%TO.C,D2*%
X129838000Y-39352500D03*
X129838000Y-42652500D03*
%TD*%
%TO.C,D8*%
X129838000Y-57352500D03*
X129838000Y-60652500D03*
%TD*%
%TO.C,D18*%
X56676400Y-75352500D03*
X56676400Y-78652500D03*
%TD*%
%TO.C,D5*%
X72838000Y-39352500D03*
X72838000Y-42652500D03*
%TD*%
%TO.C,D6*%
X56676400Y-39352500D03*
X56676400Y-42652500D03*
%TD*%
%TO.C,D9*%
X110838000Y-54352500D03*
X110838000Y-57652500D03*
%TD*%
D29*
%TO.C,D19*%
X176438400Y-91862000D03*
X179738400Y-91862000D03*
%TD*%
D26*
%TO.C,D21*%
X148570900Y-96602500D03*
X148570900Y-99902500D03*
%TD*%
%TO.C,D16*%
X91838000Y-72352500D03*
X91838000Y-75652500D03*
%TD*%
M02*
