%TF.GenerationSoftware,KiCad,Pcbnew,7.0.5-0*%
%TF.CreationDate,2023-09-10T21:20:09+09:30*%
%TF.ProjectId,Rolio,526f6c69-6f2e-46b6-9963-61645f706362,rev?*%
%TF.SameCoordinates,Original*%
%TF.FileFunction,Soldermask,Top*%
%TF.FilePolarity,Negative*%
%FSLAX46Y46*%
G04 Gerber Fmt 4.6, Leading zero omitted, Abs format (unit mm)*
G04 Created by KiCad (PCBNEW 7.0.5-0) date 2023-09-10 21:20:09*
%MOMM*%
%LPD*%
G01*
G04 APERTURE LIST*
G04 Aperture macros list*
%AMRoundRect*
0 Rectangle with rounded corners*
0 $1 Rounding radius*
0 $2 $3 $4 $5 $6 $7 $8 $9 X,Y pos of 4 corners*
0 Add a 4 corners polygon primitive as box body*
4,1,4,$2,$3,$4,$5,$6,$7,$8,$9,$2,$3,0*
0 Add four circle primitives for the rounded corners*
1,1,$1+$1,$2,$3*
1,1,$1+$1,$4,$5*
1,1,$1+$1,$6,$7*
1,1,$1+$1,$8,$9*
0 Add four rect primitives between the rounded corners*
20,1,$1+$1,$2,$3,$4,$5,0*
20,1,$1+$1,$4,$5,$6,$7,0*
20,1,$1+$1,$6,$7,$8,$9,0*
20,1,$1+$1,$8,$9,$2,$3,0*%
G04 Aperture macros list end*
%ADD10C,1.701800*%
%ADD11C,3.000000*%
%ADD12C,3.429000*%
%ADD13C,0.990600*%
%ADD14C,4.300000*%
%ADD15RoundRect,0.243750X-0.243750X-0.456250X0.243750X-0.456250X0.243750X0.456250X-0.243750X0.456250X0*%
%ADD16R,1.700000X1.700000*%
%ADD17O,1.700000X1.700000*%
%ADD18C,1.500000*%
%ADD19C,1.600000*%
%ADD20R,1.600000X1.600000*%
%ADD21O,1.600000X1.600000*%
%ADD22R,1.350000X1.350000*%
%ADD23O,1.350000X1.350000*%
%ADD24RoundRect,0.250000X-0.325000X-0.450000X0.325000X-0.450000X0.325000X0.450000X-0.325000X0.450000X0*%
%ADD25RoundRect,0.243750X-0.143564X-0.496958X0.333283X-0.395601X0.143564X0.496958X-0.333283X0.395601X0*%
%ADD26C,0.900000*%
G04 APERTURE END LIST*
D10*
X154320000Y-46530000D03*
D11*
X154820000Y-50280000D03*
D12*
X159820000Y-46530000D03*
D11*
X159820000Y-52480000D03*
D13*
X165040000Y-42330000D03*
D10*
X165320000Y-46530000D03*
X116320000Y-97530000D03*
D11*
X116820000Y-101280000D03*
D12*
X121820000Y-97530000D03*
D11*
X121820000Y-103480000D03*
D13*
X127040000Y-93330000D03*
D10*
X127320000Y-97530000D03*
X135320000Y-97530000D03*
D11*
X135820000Y-101280000D03*
D12*
X140820000Y-97530000D03*
D11*
X140820000Y-103480000D03*
D13*
X146040000Y-93330000D03*
D10*
X146320000Y-97530000D03*
D14*
X168797500Y-94778000D03*
D10*
X135320000Y-61530000D03*
D11*
X135820000Y-65280000D03*
D12*
X140820000Y-61530000D03*
D11*
X140820000Y-67480000D03*
D13*
X146040000Y-57330000D03*
D10*
X146320000Y-61530000D03*
D15*
X120902500Y-38775000D03*
X122777500Y-38775000D03*
D10*
X154320000Y-64530000D03*
D11*
X154820000Y-68280000D03*
D12*
X159820000Y-64530000D03*
D11*
X159820000Y-70480000D03*
D13*
X165040000Y-60330000D03*
D10*
X165320000Y-64530000D03*
D15*
X120902500Y-74775000D03*
X122777500Y-74775000D03*
D16*
X64547500Y-73280000D03*
D17*
X62007500Y-73280000D03*
X59467500Y-73280000D03*
X56927500Y-73280000D03*
X54387500Y-73280000D03*
D15*
X139902500Y-38775000D03*
X141777500Y-38775000D03*
X83182500Y-45025000D03*
X85057500Y-45025000D03*
D10*
X78600000Y-49780000D03*
D11*
X79100000Y-53530000D03*
D12*
X84100000Y-49780000D03*
D11*
X84100000Y-55730000D03*
D13*
X89320000Y-45580000D03*
D10*
X89600000Y-49780000D03*
D18*
X53697500Y-89630000D03*
D19*
X53697500Y-79520000D03*
X53697500Y-82060000D03*
X53697500Y-84600000D03*
X53697500Y-87140000D03*
X52472500Y-77130000D03*
X54322500Y-77130000D03*
D15*
X83182500Y-81025000D03*
X85057500Y-81025000D03*
X139902500Y-92675000D03*
X141777500Y-92675000D03*
D10*
X173320000Y-85530000D03*
D11*
X173820000Y-89280000D03*
D12*
X178820000Y-85530000D03*
D11*
X178820000Y-91480000D03*
D13*
X184040000Y-81330000D03*
D10*
X184320000Y-85530000D03*
D15*
X139902500Y-56775000D03*
X141777500Y-56775000D03*
D10*
X116320000Y-61530000D03*
D11*
X116820000Y-65280000D03*
D12*
X121820000Y-61530000D03*
D11*
X121820000Y-67480000D03*
D13*
X127040000Y-57330000D03*
D10*
X127320000Y-61530000D03*
D15*
X158902500Y-77775000D03*
X160777500Y-77775000D03*
D14*
X74747500Y-94784000D03*
D15*
X83182500Y-99025000D03*
X85057500Y-99025000D03*
D10*
X97320000Y-82530000D03*
D11*
X97820000Y-86280000D03*
D12*
X102820000Y-82530000D03*
D11*
X102820000Y-88480000D03*
D13*
X108040000Y-78330000D03*
D10*
X108320000Y-82530000D03*
D15*
X177902500Y-80775000D03*
X179777500Y-80775000D03*
D10*
X116320000Y-79530000D03*
D11*
X116820000Y-83280000D03*
D12*
X121820000Y-79530000D03*
D11*
X121820000Y-85480000D03*
D13*
X127040000Y-75330000D03*
D10*
X127320000Y-79530000D03*
D14*
X74109500Y-58840000D03*
D10*
X97320000Y-46530000D03*
D11*
X97820000Y-50280000D03*
D12*
X102820000Y-46530000D03*
D11*
X102820000Y-52480000D03*
D13*
X108040000Y-42330000D03*
D10*
X108320000Y-46530000D03*
D15*
X101902500Y-59775000D03*
X103777500Y-59775000D03*
X158902500Y-41775000D03*
X160777500Y-41775000D03*
D14*
X170032500Y-58572000D03*
D20*
X51847500Y-40170000D03*
D21*
X51847500Y-42710000D03*
X51847500Y-45250000D03*
X51847500Y-47790000D03*
X51847500Y-50330000D03*
X51847500Y-52870000D03*
X51847500Y-55410000D03*
X51847500Y-57950000D03*
X51847500Y-60490000D03*
X51847500Y-63030000D03*
X51847500Y-65570000D03*
X51847500Y-68110000D03*
X67087500Y-68110000D03*
X67087500Y-65570000D03*
X67087500Y-63030000D03*
X67087500Y-60490000D03*
X67087500Y-57950000D03*
X67087500Y-55410000D03*
X67087500Y-52870000D03*
X67087500Y-50330000D03*
X67087500Y-47790000D03*
X67087500Y-45250000D03*
X67087500Y-42710000D03*
X67087500Y-40170000D03*
D15*
X101902500Y-95775000D03*
X103777500Y-95775000D03*
D10*
X173320000Y-67530000D03*
D11*
X173820000Y-71280000D03*
D12*
X178820000Y-67530000D03*
D11*
X178820000Y-73480000D03*
D13*
X184040000Y-63330000D03*
D10*
X184320000Y-67530000D03*
X173320000Y-49530000D03*
D11*
X173820000Y-53280000D03*
D12*
X178820000Y-49530000D03*
D11*
X178820000Y-55480000D03*
D13*
X184040000Y-45330000D03*
D10*
X184320000Y-49530000D03*
D14*
X130962000Y-70526000D03*
D15*
X158902500Y-59775000D03*
X160777500Y-59775000D03*
D10*
X78600000Y-85780000D03*
D11*
X79100000Y-89530000D03*
D12*
X84100000Y-85780000D03*
D11*
X84100000Y-91730000D03*
D13*
X89320000Y-81580000D03*
D10*
X89600000Y-85780000D03*
X116320000Y-43530000D03*
D11*
X116820000Y-47280000D03*
D12*
X121820000Y-43530000D03*
D11*
X121820000Y-49480000D03*
D13*
X127040000Y-39330000D03*
D10*
X127320000Y-43530000D03*
X57780568Y-107547989D03*
D11*
X59049311Y-111112087D03*
D12*
X63160380Y-106404475D03*
D11*
X64397455Y-112224453D03*
D13*
X67393081Y-101210956D03*
D10*
X68540192Y-105260961D03*
D15*
X83182500Y-63070000D03*
X85057500Y-63070000D03*
D10*
X78600000Y-67825000D03*
D11*
X79100000Y-71575000D03*
D12*
X84100000Y-67825000D03*
D11*
X84100000Y-73775000D03*
D13*
X89320000Y-63625000D03*
D10*
X89600000Y-67825000D03*
X135320000Y-79530000D03*
D11*
X135820000Y-83280000D03*
D12*
X140820000Y-79530000D03*
D11*
X140820000Y-85480000D03*
D13*
X146040000Y-75330000D03*
D10*
X146320000Y-79530000D03*
D22*
X75673500Y-47460000D03*
D23*
X75673500Y-49460000D03*
D15*
X120902500Y-56775000D03*
X122777500Y-56775000D03*
X101902500Y-77775000D03*
X103777500Y-77775000D03*
D10*
X97320000Y-64530000D03*
D11*
X97820000Y-68280000D03*
D12*
X102820000Y-64530000D03*
D11*
X102820000Y-70480000D03*
D13*
X108040000Y-60330000D03*
D10*
X108320000Y-64530000D03*
D15*
X101902500Y-41775000D03*
X103777500Y-41775000D03*
D10*
X135320000Y-43530000D03*
D11*
X135820000Y-47280000D03*
D12*
X140820000Y-43530000D03*
D11*
X140820000Y-49480000D03*
D13*
X146040000Y-39330000D03*
D10*
X146320000Y-43530000D03*
D15*
X139902500Y-74775000D03*
X141777500Y-74775000D03*
X120902500Y-92775000D03*
X122777500Y-92775000D03*
D10*
X97320000Y-100530000D03*
D11*
X97820000Y-104280000D03*
D12*
X102820000Y-100530000D03*
D11*
X102820000Y-106480000D03*
D13*
X108040000Y-96330000D03*
D10*
X108320000Y-100530000D03*
X154320000Y-82530000D03*
D11*
X154820000Y-86280000D03*
D12*
X159820000Y-82530000D03*
D11*
X159820000Y-88480000D03*
D13*
X165040000Y-78330000D03*
D10*
X165320000Y-82530000D03*
X78600000Y-103780000D03*
D11*
X79100000Y-107530000D03*
D12*
X84100000Y-103780000D03*
D11*
X84100000Y-109730000D03*
D13*
X89320000Y-99580000D03*
D10*
X89600000Y-103780000D03*
D24*
X157620000Y-93980000D03*
X160020000Y-93980000D03*
D15*
X177902500Y-44775000D03*
X179777500Y-44775000D03*
D25*
X61241531Y-101951109D03*
X63075557Y-101561275D03*
D15*
X177902500Y-62775000D03*
X179777500Y-62775000D03*
D26*
X74666500Y-42198000D03*
X74666500Y-39198000D03*
M02*
