%TF.GenerationSoftware,KiCad,Pcbnew,7.0.5-0*%
%TF.CreationDate,2023-09-10T21:20:09+09:30*%
%TF.ProjectId,Rolio,526f6c69-6f2e-46b6-9963-61645f706362,rev?*%
%TF.SameCoordinates,Original*%
%TF.FileFunction,Profile,NP*%
%FSLAX46Y46*%
G04 Gerber Fmt 4.6, Leading zero omitted, Abs format (unit mm)*
G04 Created by KiCad (PCBNEW 7.0.5-0) date 2023-09-10 21:20:09*
%MOMM*%
%LPD*%
G01*
G04 APERTURE LIST*
%TA.AperFunction,Profile*%
%ADD10C,0.150000*%
%TD*%
%TA.AperFunction,Profile*%
%ADD11C,0.100000*%
%TD*%
%TA.AperFunction,Profile*%
%ADD12C,0.050000*%
%TD*%
G04 APERTURE END LIST*
D10*
X47297474Y-93055334D02*
G75*
G03*
X48553375Y-95670126I3350026J34D01*
G01*
X114958841Y-33226590D02*
X147566758Y-33226590D01*
D11*
X171939500Y-94704000D02*
X171939500Y-94704000D01*
D10*
X189087799Y-91520484D02*
X189087799Y-42576621D01*
X114124740Y-33292011D02*
X96097639Y-36137348D01*
X94957343Y-36227223D02*
X50644940Y-36261093D01*
X51148174Y-99878910D02*
G75*
G03*
X48553374Y-95670127I-7189474J-1528190D01*
G01*
X53122500Y-39055000D02*
X65822500Y-39055000D01*
X77235539Y-113126590D02*
X94088353Y-113126590D01*
X54240132Y-114425370D02*
X51148186Y-99878907D01*
X53122500Y-70965000D02*
X53122500Y-39055000D01*
X94088353Y-113126586D02*
G75*
G03*
X94618092Y-113084440I-53J3350886D01*
G01*
X147687707Y-106876592D02*
G75*
G03*
X148695756Y-106721325I-7J3349992D01*
G01*
X75707388Y-113287205D02*
X58213431Y-117005660D01*
X148400858Y-33292014D02*
G75*
G03*
X147566758Y-33226590I-834058J-5283786D01*
G01*
X132804321Y-106969066D02*
X94618092Y-113084440D01*
X148695756Y-106721326D02*
X186745848Y-94715220D01*
X186260086Y-39267585D02*
X148400858Y-33292011D01*
X65822500Y-39055000D02*
X65822500Y-70965000D01*
X50644940Y-36261091D02*
G75*
G03*
X47297500Y-39611092I2640J-3350079D01*
G01*
X47297500Y-93055334D02*
X47297500Y-39611092D01*
X189087779Y-42576621D02*
G75*
G03*
X186260086Y-39267586I-3349979J21D01*
G01*
X53122500Y-70965000D02*
X65822500Y-70965000D01*
X133966585Y-106876598D02*
G75*
G03*
X132804321Y-106969066I-85J-7349602D01*
G01*
X133966585Y-106876590D02*
X147687707Y-106876590D01*
X54240128Y-114425371D02*
G75*
G03*
X58213431Y-117005659I3276772J696471D01*
G01*
X77235539Y-113126598D02*
G75*
G03*
X75707388Y-113287206I61J-7350902D01*
G01*
X186745860Y-94715258D02*
G75*
G03*
X189087799Y-91520484I-1007960J3194658D01*
G01*
X114958841Y-33226592D02*
G75*
G03*
X114124740Y-33292011I59J-5350908D01*
G01*
X94957343Y-36227230D02*
G75*
G03*
X96097639Y-36137348I-5743J7351030D01*
G01*
D12*
X66622500Y-77030000D02*
X66622500Y-90630000D01*
X66922500Y-90930000D02*
X69022500Y-90930000D01*
X69022500Y-76730000D02*
X66922500Y-76730000D01*
X69322500Y-90630000D02*
X69322500Y-77030000D01*
X66922500Y-76730000D02*
G75*
G03*
X66622500Y-77030000I0J-300000D01*
G01*
X66622500Y-90630000D02*
G75*
G03*
X66922500Y-90930000I300000J0D01*
G01*
X69322500Y-77030000D02*
G75*
G03*
X69022500Y-76730000I-300000J0D01*
G01*
X69022500Y-90930000D02*
G75*
G03*
X69322500Y-90630000I0J300000D01*
G01*
M02*
