%TF.GenerationSoftware,KiCad,Pcbnew,7.0.5-0*%
%TF.CreationDate,2023-09-10T21:20:09+09:30*%
%TF.ProjectId,Rolio,526f6c69-6f2e-46b6-9963-61645f706362,rev?*%
%TF.SameCoordinates,Original*%
%TF.FileFunction,Legend,Bot*%
%TF.FilePolarity,Positive*%
%FSLAX46Y46*%
G04 Gerber Fmt 4.6, Leading zero omitted, Abs format (unit mm)*
G04 Created by KiCad (PCBNEW 7.0.5-0) date 2023-09-10 21:20:09*
%MOMM*%
%LPD*%
G01*
G04 APERTURE LIST*
G04 Aperture macros list*
%AMRoundRect*
0 Rectangle with rounded corners*
0 $1 Rounding radius*
0 $2 $3 $4 $5 $6 $7 $8 $9 X,Y pos of 4 corners*
0 Add a 4 corners polygon primitive as box body*
4,1,4,$2,$3,$4,$5,$6,$7,$8,$9,$2,$3,0*
0 Add four circle primitives for the rounded corners*
1,1,$1+$1,$2,$3*
1,1,$1+$1,$4,$5*
1,1,$1+$1,$6,$7*
1,1,$1+$1,$8,$9*
0 Add four rect primitives between the rounded corners*
20,1,$1+$1,$2,$3,$4,$5,0*
20,1,$1+$1,$4,$5,$6,$7,0*
20,1,$1+$1,$6,$7,$8,$9,0*
20,1,$1+$1,$8,$9,$2,$3,0*%
%AMRotRect*
0 Rectangle, with rotation*
0 The origin of the aperture is its center*
0 $1 length*
0 $2 width*
0 $3 Rotation angle, in degrees counterclockwise*
0 Add horizontal line*
21,1,$1,$2,0,0,$3*%
G04 Aperture macros list end*
%ADD10C,0.150000*%
%ADD11C,0.120000*%
%ADD12C,1.701800*%
%ADD13C,3.000000*%
%ADD14C,3.429000*%
%ADD15C,0.990600*%
%ADD16R,2.600000X2.600000*%
%ADD17C,4.300000*%
%ADD18R,1.700000X1.700000*%
%ADD19O,1.700000X1.700000*%
%ADD20C,1.500000*%
%ADD21C,1.600000*%
%ADD22R,1.600000X1.600000*%
%ADD23O,1.600000X1.600000*%
%ADD24RotRect,2.600000X2.600000X12.000000*%
%ADD25R,1.350000X1.350000*%
%ADD26O,1.350000X1.350000*%
%ADD27RoundRect,0.250000X0.262500X0.450000X-0.262500X0.450000X-0.262500X-0.450000X0.262500X-0.450000X0*%
%ADD28RoundRect,0.225000X-0.375000X0.225000X-0.375000X-0.225000X0.375000X-0.225000X0.375000X0.225000X0*%
%ADD29RoundRect,0.250000X0.337500X0.475000X-0.337500X0.475000X-0.337500X-0.475000X0.337500X-0.475000X0*%
%ADD30RoundRect,0.250000X0.450000X-0.262500X0.450000X0.262500X-0.450000X0.262500X-0.450000X-0.262500X0*%
%ADD31R,0.800000X1.000000*%
%ADD32C,0.900000*%
%ADD33R,1.500000X0.700000*%
%ADD34RoundRect,0.250000X-0.337500X-0.475000X0.337500X-0.475000X0.337500X0.475000X-0.337500X0.475000X0*%
%ADD35R,1.000000X1.250000*%
%ADD36RoundRect,0.225000X0.225000X0.375000X-0.225000X0.375000X-0.225000X-0.375000X0.225000X-0.375000X0*%
%ADD37RoundRect,0.150000X0.150000X-0.587500X0.150000X0.587500X-0.150000X0.587500X-0.150000X-0.587500X0*%
G04 APERTURE END LIST*
D10*
X75355220Y-45372866D02*
X74593316Y-45372866D01*
X74974268Y-45753819D02*
X74974268Y-44991914D01*
X75355220Y-51812866D02*
X74593316Y-51812866D01*
X177831166Y-41694819D02*
X178164499Y-41218628D01*
X178402594Y-41694819D02*
X178402594Y-40694819D01*
X178402594Y-40694819D02*
X178021642Y-40694819D01*
X178021642Y-40694819D02*
X177926404Y-40742438D01*
X177926404Y-40742438D02*
X177878785Y-40790057D01*
X177878785Y-40790057D02*
X177831166Y-40885295D01*
X177831166Y-40885295D02*
X177831166Y-41028152D01*
X177831166Y-41028152D02*
X177878785Y-41123390D01*
X177878785Y-41123390D02*
X177926404Y-41171009D01*
X177926404Y-41171009D02*
X178021642Y-41218628D01*
X178021642Y-41218628D02*
X178402594Y-41218628D01*
X177259737Y-41123390D02*
X177354975Y-41075771D01*
X177354975Y-41075771D02*
X177402594Y-41028152D01*
X177402594Y-41028152D02*
X177450213Y-40932914D01*
X177450213Y-40932914D02*
X177450213Y-40885295D01*
X177450213Y-40885295D02*
X177402594Y-40790057D01*
X177402594Y-40790057D02*
X177354975Y-40742438D01*
X177354975Y-40742438D02*
X177259737Y-40694819D01*
X177259737Y-40694819D02*
X177069261Y-40694819D01*
X177069261Y-40694819D02*
X176974023Y-40742438D01*
X176974023Y-40742438D02*
X176926404Y-40790057D01*
X176926404Y-40790057D02*
X176878785Y-40885295D01*
X176878785Y-40885295D02*
X176878785Y-40932914D01*
X176878785Y-40932914D02*
X176926404Y-41028152D01*
X176926404Y-41028152D02*
X176974023Y-41075771D01*
X176974023Y-41075771D02*
X177069261Y-41123390D01*
X177069261Y-41123390D02*
X177259737Y-41123390D01*
X177259737Y-41123390D02*
X177354975Y-41171009D01*
X177354975Y-41171009D02*
X177402594Y-41218628D01*
X177402594Y-41218628D02*
X177450213Y-41313866D01*
X177450213Y-41313866D02*
X177450213Y-41504342D01*
X177450213Y-41504342D02*
X177402594Y-41599580D01*
X177402594Y-41599580D02*
X177354975Y-41647200D01*
X177354975Y-41647200D02*
X177259737Y-41694819D01*
X177259737Y-41694819D02*
X177069261Y-41694819D01*
X177069261Y-41694819D02*
X176974023Y-41647200D01*
X176974023Y-41647200D02*
X176926404Y-41599580D01*
X176926404Y-41599580D02*
X176878785Y-41504342D01*
X176878785Y-41504342D02*
X176878785Y-41313866D01*
X176878785Y-41313866D02*
X176926404Y-41218628D01*
X176926404Y-41218628D02*
X176974023Y-41171009D01*
X176974023Y-41171009D02*
X177069261Y-41123390D01*
X152360319Y-76851714D02*
X151360319Y-76851714D01*
X151360319Y-76851714D02*
X151360319Y-77089809D01*
X151360319Y-77089809D02*
X151407938Y-77232666D01*
X151407938Y-77232666D02*
X151503176Y-77327904D01*
X151503176Y-77327904D02*
X151598414Y-77375523D01*
X151598414Y-77375523D02*
X151788890Y-77423142D01*
X151788890Y-77423142D02*
X151931747Y-77423142D01*
X151931747Y-77423142D02*
X152122223Y-77375523D01*
X152122223Y-77375523D02*
X152217461Y-77327904D01*
X152217461Y-77327904D02*
X152312700Y-77232666D01*
X152312700Y-77232666D02*
X152360319Y-77089809D01*
X152360319Y-77089809D02*
X152360319Y-76851714D01*
X152360319Y-78375523D02*
X152360319Y-77804095D01*
X152360319Y-78089809D02*
X151360319Y-78089809D01*
X151360319Y-78089809D02*
X151503176Y-77994571D01*
X151503176Y-77994571D02*
X151598414Y-77899333D01*
X151598414Y-77899333D02*
X151646033Y-77804095D01*
X151360319Y-78708857D02*
X151360319Y-79375523D01*
X151360319Y-79375523D02*
X152360319Y-78946952D01*
X62164166Y-85195580D02*
X62211785Y-85243200D01*
X62211785Y-85243200D02*
X62354642Y-85290819D01*
X62354642Y-85290819D02*
X62449880Y-85290819D01*
X62449880Y-85290819D02*
X62592737Y-85243200D01*
X62592737Y-85243200D02*
X62687975Y-85147961D01*
X62687975Y-85147961D02*
X62735594Y-85052723D01*
X62735594Y-85052723D02*
X62783213Y-84862247D01*
X62783213Y-84862247D02*
X62783213Y-84719390D01*
X62783213Y-84719390D02*
X62735594Y-84528914D01*
X62735594Y-84528914D02*
X62687975Y-84433676D01*
X62687975Y-84433676D02*
X62592737Y-84338438D01*
X62592737Y-84338438D02*
X62449880Y-84290819D01*
X62449880Y-84290819D02*
X62354642Y-84290819D01*
X62354642Y-84290819D02*
X62211785Y-84338438D01*
X62211785Y-84338438D02*
X62164166Y-84386057D01*
X61783213Y-84386057D02*
X61735594Y-84338438D01*
X61735594Y-84338438D02*
X61640356Y-84290819D01*
X61640356Y-84290819D02*
X61402261Y-84290819D01*
X61402261Y-84290819D02*
X61307023Y-84338438D01*
X61307023Y-84338438D02*
X61259404Y-84386057D01*
X61259404Y-84386057D02*
X61211785Y-84481295D01*
X61211785Y-84481295D02*
X61211785Y-84576533D01*
X61211785Y-84576533D02*
X61259404Y-84719390D01*
X61259404Y-84719390D02*
X61830832Y-85290819D01*
X61830832Y-85290819D02*
X61211785Y-85290819D01*
X133310319Y-55769714D02*
X132310319Y-55769714D01*
X132310319Y-55769714D02*
X132310319Y-56007809D01*
X132310319Y-56007809D02*
X132357938Y-56150666D01*
X132357938Y-56150666D02*
X132453176Y-56245904D01*
X132453176Y-56245904D02*
X132548414Y-56293523D01*
X132548414Y-56293523D02*
X132738890Y-56341142D01*
X132738890Y-56341142D02*
X132881747Y-56341142D01*
X132881747Y-56341142D02*
X133072223Y-56293523D01*
X133072223Y-56293523D02*
X133167461Y-56245904D01*
X133167461Y-56245904D02*
X133262700Y-56150666D01*
X133262700Y-56150666D02*
X133310319Y-56007809D01*
X133310319Y-56007809D02*
X133310319Y-55769714D01*
X133310319Y-57293523D02*
X133310319Y-56722095D01*
X133310319Y-57007809D02*
X132310319Y-57007809D01*
X132310319Y-57007809D02*
X132453176Y-56912571D01*
X132453176Y-56912571D02*
X132548414Y-56817333D01*
X132548414Y-56817333D02*
X132596033Y-56722095D01*
X132310319Y-57912571D02*
X132310319Y-58007809D01*
X132310319Y-58007809D02*
X132357938Y-58103047D01*
X132357938Y-58103047D02*
X132405557Y-58150666D01*
X132405557Y-58150666D02*
X132500795Y-58198285D01*
X132500795Y-58198285D02*
X132691271Y-58245904D01*
X132691271Y-58245904D02*
X132929366Y-58245904D01*
X132929366Y-58245904D02*
X133119842Y-58198285D01*
X133119842Y-58198285D02*
X133215080Y-58150666D01*
X133215080Y-58150666D02*
X133262700Y-58103047D01*
X133262700Y-58103047D02*
X133310319Y-58007809D01*
X133310319Y-58007809D02*
X133310319Y-57912571D01*
X133310319Y-57912571D02*
X133262700Y-57817333D01*
X133262700Y-57817333D02*
X133215080Y-57769714D01*
X133215080Y-57769714D02*
X133119842Y-57722095D01*
X133119842Y-57722095D02*
X132929366Y-57674476D01*
X132929366Y-57674476D02*
X132691271Y-57674476D01*
X132691271Y-57674476D02*
X132500795Y-57722095D01*
X132500795Y-57722095D02*
X132405557Y-57769714D01*
X132405557Y-57769714D02*
X132357938Y-57817333D01*
X132357938Y-57817333D02*
X132310319Y-57912571D01*
X76668319Y-80027714D02*
X75668319Y-80027714D01*
X75668319Y-80027714D02*
X75668319Y-80265809D01*
X75668319Y-80265809D02*
X75715938Y-80408666D01*
X75715938Y-80408666D02*
X75811176Y-80503904D01*
X75811176Y-80503904D02*
X75906414Y-80551523D01*
X75906414Y-80551523D02*
X76096890Y-80599142D01*
X76096890Y-80599142D02*
X76239747Y-80599142D01*
X76239747Y-80599142D02*
X76430223Y-80551523D01*
X76430223Y-80551523D02*
X76525461Y-80503904D01*
X76525461Y-80503904D02*
X76620700Y-80408666D01*
X76620700Y-80408666D02*
X76668319Y-80265809D01*
X76668319Y-80265809D02*
X76668319Y-80027714D01*
X76668319Y-81551523D02*
X76668319Y-80980095D01*
X76668319Y-81265809D02*
X75668319Y-81265809D01*
X75668319Y-81265809D02*
X75811176Y-81170571D01*
X75811176Y-81170571D02*
X75906414Y-81075333D01*
X75906414Y-81075333D02*
X75954033Y-80980095D01*
X75668319Y-81884857D02*
X75668319Y-82503904D01*
X75668319Y-82503904D02*
X76049271Y-82170571D01*
X76049271Y-82170571D02*
X76049271Y-82313428D01*
X76049271Y-82313428D02*
X76096890Y-82408666D01*
X76096890Y-82408666D02*
X76144509Y-82456285D01*
X76144509Y-82456285D02*
X76239747Y-82503904D01*
X76239747Y-82503904D02*
X76477842Y-82503904D01*
X76477842Y-82503904D02*
X76573080Y-82456285D01*
X76573080Y-82456285D02*
X76620700Y-82408666D01*
X76620700Y-82408666D02*
X76668319Y-82313428D01*
X76668319Y-82313428D02*
X76668319Y-82027714D01*
X76668319Y-82027714D02*
X76620700Y-81932476D01*
X76620700Y-81932476D02*
X76573080Y-81884857D01*
X140427857Y-53630819D02*
X140761190Y-53154628D01*
X140999285Y-53630819D02*
X140999285Y-52630819D01*
X140999285Y-52630819D02*
X140618333Y-52630819D01*
X140618333Y-52630819D02*
X140523095Y-52678438D01*
X140523095Y-52678438D02*
X140475476Y-52726057D01*
X140475476Y-52726057D02*
X140427857Y-52821295D01*
X140427857Y-52821295D02*
X140427857Y-52964152D01*
X140427857Y-52964152D02*
X140475476Y-53059390D01*
X140475476Y-53059390D02*
X140523095Y-53107009D01*
X140523095Y-53107009D02*
X140618333Y-53154628D01*
X140618333Y-53154628D02*
X140999285Y-53154628D01*
X139475476Y-53630819D02*
X140046904Y-53630819D01*
X139761190Y-53630819D02*
X139761190Y-52630819D01*
X139761190Y-52630819D02*
X139856428Y-52773676D01*
X139856428Y-52773676D02*
X139951666Y-52868914D01*
X139951666Y-52868914D02*
X140046904Y-52916533D01*
X139094523Y-52726057D02*
X139046904Y-52678438D01*
X139046904Y-52678438D02*
X138951666Y-52630819D01*
X138951666Y-52630819D02*
X138713571Y-52630819D01*
X138713571Y-52630819D02*
X138618333Y-52678438D01*
X138618333Y-52678438D02*
X138570714Y-52726057D01*
X138570714Y-52726057D02*
X138523095Y-52821295D01*
X138523095Y-52821295D02*
X138523095Y-52916533D01*
X138523095Y-52916533D02*
X138570714Y-53059390D01*
X138570714Y-53059390D02*
X139142142Y-53630819D01*
X139142142Y-53630819D02*
X138523095Y-53630819D01*
X78192319Y-44561905D02*
X77192319Y-44561905D01*
X77192319Y-44561905D02*
X77192319Y-44800000D01*
X77192319Y-44800000D02*
X77239938Y-44942857D01*
X77239938Y-44942857D02*
X77335176Y-45038095D01*
X77335176Y-45038095D02*
X77430414Y-45085714D01*
X77430414Y-45085714D02*
X77620890Y-45133333D01*
X77620890Y-45133333D02*
X77763747Y-45133333D01*
X77763747Y-45133333D02*
X77954223Y-45085714D01*
X77954223Y-45085714D02*
X78049461Y-45038095D01*
X78049461Y-45038095D02*
X78144700Y-44942857D01*
X78144700Y-44942857D02*
X78192319Y-44800000D01*
X78192319Y-44800000D02*
X78192319Y-44561905D01*
X78192319Y-46085714D02*
X78192319Y-45514286D01*
X78192319Y-45800000D02*
X77192319Y-45800000D01*
X77192319Y-45800000D02*
X77335176Y-45704762D01*
X77335176Y-45704762D02*
X77430414Y-45609524D01*
X77430414Y-45609524D02*
X77478033Y-45514286D01*
X102581857Y-56170819D02*
X102915190Y-55694628D01*
X103153285Y-56170819D02*
X103153285Y-55170819D01*
X103153285Y-55170819D02*
X102772333Y-55170819D01*
X102772333Y-55170819D02*
X102677095Y-55218438D01*
X102677095Y-55218438D02*
X102629476Y-55266057D01*
X102629476Y-55266057D02*
X102581857Y-55361295D01*
X102581857Y-55361295D02*
X102581857Y-55504152D01*
X102581857Y-55504152D02*
X102629476Y-55599390D01*
X102629476Y-55599390D02*
X102677095Y-55647009D01*
X102677095Y-55647009D02*
X102772333Y-55694628D01*
X102772333Y-55694628D02*
X103153285Y-55694628D01*
X101629476Y-56170819D02*
X102200904Y-56170819D01*
X101915190Y-56170819D02*
X101915190Y-55170819D01*
X101915190Y-55170819D02*
X102010428Y-55313676D01*
X102010428Y-55313676D02*
X102105666Y-55408914D01*
X102105666Y-55408914D02*
X102200904Y-55456533D01*
X101010428Y-55170819D02*
X100915190Y-55170819D01*
X100915190Y-55170819D02*
X100819952Y-55218438D01*
X100819952Y-55218438D02*
X100772333Y-55266057D01*
X100772333Y-55266057D02*
X100724714Y-55361295D01*
X100724714Y-55361295D02*
X100677095Y-55551771D01*
X100677095Y-55551771D02*
X100677095Y-55789866D01*
X100677095Y-55789866D02*
X100724714Y-55980342D01*
X100724714Y-55980342D02*
X100772333Y-56075580D01*
X100772333Y-56075580D02*
X100819952Y-56123200D01*
X100819952Y-56123200D02*
X100915190Y-56170819D01*
X100915190Y-56170819D02*
X101010428Y-56170819D01*
X101010428Y-56170819D02*
X101105666Y-56123200D01*
X101105666Y-56123200D02*
X101153285Y-56075580D01*
X101153285Y-56075580D02*
X101200904Y-55980342D01*
X101200904Y-55980342D02*
X101248523Y-55789866D01*
X101248523Y-55789866D02*
X101248523Y-55551771D01*
X101248523Y-55551771D02*
X101200904Y-55361295D01*
X101200904Y-55361295D02*
X101153285Y-55266057D01*
X101153285Y-55266057D02*
X101105666Y-55218438D01*
X101105666Y-55218438D02*
X101010428Y-55170819D01*
X168870319Y-65931714D02*
X167870319Y-65931714D01*
X167870319Y-65931714D02*
X167870319Y-66169809D01*
X167870319Y-66169809D02*
X167917938Y-66312666D01*
X167917938Y-66312666D02*
X168013176Y-66407904D01*
X168013176Y-66407904D02*
X168108414Y-66455523D01*
X168108414Y-66455523D02*
X168298890Y-66503142D01*
X168298890Y-66503142D02*
X168441747Y-66503142D01*
X168441747Y-66503142D02*
X168632223Y-66455523D01*
X168632223Y-66455523D02*
X168727461Y-66407904D01*
X168727461Y-66407904D02*
X168822700Y-66312666D01*
X168822700Y-66312666D02*
X168870319Y-66169809D01*
X168870319Y-66169809D02*
X168870319Y-65931714D01*
X168870319Y-67455523D02*
X168870319Y-66884095D01*
X168870319Y-67169809D02*
X167870319Y-67169809D01*
X167870319Y-67169809D02*
X168013176Y-67074571D01*
X168013176Y-67074571D02*
X168108414Y-66979333D01*
X168108414Y-66979333D02*
X168156033Y-66884095D01*
X167965557Y-67836476D02*
X167917938Y-67884095D01*
X167917938Y-67884095D02*
X167870319Y-67979333D01*
X167870319Y-67979333D02*
X167870319Y-68217428D01*
X167870319Y-68217428D02*
X167917938Y-68312666D01*
X167917938Y-68312666D02*
X167965557Y-68360285D01*
X167965557Y-68360285D02*
X168060795Y-68407904D01*
X168060795Y-68407904D02*
X168156033Y-68407904D01*
X168156033Y-68407904D02*
X168298890Y-68360285D01*
X168298890Y-68360285D02*
X168870319Y-67788857D01*
X168870319Y-67788857D02*
X168870319Y-68407904D01*
X95464319Y-76598214D02*
X94464319Y-76598214D01*
X94464319Y-76598214D02*
X94464319Y-76836309D01*
X94464319Y-76836309D02*
X94511938Y-76979166D01*
X94511938Y-76979166D02*
X94607176Y-77074404D01*
X94607176Y-77074404D02*
X94702414Y-77122023D01*
X94702414Y-77122023D02*
X94892890Y-77169642D01*
X94892890Y-77169642D02*
X95035747Y-77169642D01*
X95035747Y-77169642D02*
X95226223Y-77122023D01*
X95226223Y-77122023D02*
X95321461Y-77074404D01*
X95321461Y-77074404D02*
X95416700Y-76979166D01*
X95416700Y-76979166D02*
X95464319Y-76836309D01*
X95464319Y-76836309D02*
X95464319Y-76598214D01*
X95464319Y-78122023D02*
X95464319Y-77550595D01*
X95464319Y-77836309D02*
X94464319Y-77836309D01*
X94464319Y-77836309D02*
X94607176Y-77741071D01*
X94607176Y-77741071D02*
X94702414Y-77645833D01*
X94702414Y-77645833D02*
X94750033Y-77550595D01*
X94797652Y-78979166D02*
X95464319Y-78979166D01*
X94416700Y-78741071D02*
X95130985Y-78502976D01*
X95130985Y-78502976D02*
X95130985Y-79122023D01*
X153870319Y-96628833D02*
X153394128Y-96295500D01*
X153870319Y-96057405D02*
X152870319Y-96057405D01*
X152870319Y-96057405D02*
X152870319Y-96438357D01*
X152870319Y-96438357D02*
X152917938Y-96533595D01*
X152917938Y-96533595D02*
X152965557Y-96581214D01*
X152965557Y-96581214D02*
X153060795Y-96628833D01*
X153060795Y-96628833D02*
X153203652Y-96628833D01*
X153203652Y-96628833D02*
X153298890Y-96581214D01*
X153298890Y-96581214D02*
X153346509Y-96533595D01*
X153346509Y-96533595D02*
X153394128Y-96438357D01*
X153394128Y-96438357D02*
X153394128Y-96057405D01*
X152965557Y-97009786D02*
X152917938Y-97057405D01*
X152917938Y-97057405D02*
X152870319Y-97152643D01*
X152870319Y-97152643D02*
X152870319Y-97390738D01*
X152870319Y-97390738D02*
X152917938Y-97485976D01*
X152917938Y-97485976D02*
X152965557Y-97533595D01*
X152965557Y-97533595D02*
X153060795Y-97581214D01*
X153060795Y-97581214D02*
X153156033Y-97581214D01*
X153156033Y-97581214D02*
X153298890Y-97533595D01*
X153298890Y-97533595D02*
X153870319Y-96962167D01*
X153870319Y-96962167D02*
X153870319Y-97581214D01*
X65722522Y-99536431D02*
X66055855Y-99060240D01*
X66293950Y-99536431D02*
X66293950Y-98536431D01*
X66293950Y-98536431D02*
X65912998Y-98536431D01*
X65912998Y-98536431D02*
X65817760Y-98584050D01*
X65817760Y-98584050D02*
X65770141Y-98631669D01*
X65770141Y-98631669D02*
X65722522Y-98726907D01*
X65722522Y-98726907D02*
X65722522Y-98869764D01*
X65722522Y-98869764D02*
X65770141Y-98965002D01*
X65770141Y-98965002D02*
X65817760Y-99012621D01*
X65817760Y-99012621D02*
X65912998Y-99060240D01*
X65912998Y-99060240D02*
X66293950Y-99060240D01*
X65341569Y-98631669D02*
X65293950Y-98584050D01*
X65293950Y-98584050D02*
X65198712Y-98536431D01*
X65198712Y-98536431D02*
X64960617Y-98536431D01*
X64960617Y-98536431D02*
X64865379Y-98584050D01*
X64865379Y-98584050D02*
X64817760Y-98631669D01*
X64817760Y-98631669D02*
X64770141Y-98726907D01*
X64770141Y-98726907D02*
X64770141Y-98822145D01*
X64770141Y-98822145D02*
X64817760Y-98965002D01*
X64817760Y-98965002D02*
X65389188Y-99536431D01*
X65389188Y-99536431D02*
X64770141Y-99536431D01*
X63817760Y-99536431D02*
X64389188Y-99536431D01*
X64103474Y-99536431D02*
X64103474Y-98536431D01*
X64103474Y-98536431D02*
X64198712Y-98679288D01*
X64198712Y-98679288D02*
X64293950Y-98774526D01*
X64293950Y-98774526D02*
X64389188Y-98822145D01*
X114260319Y-73803714D02*
X113260319Y-73803714D01*
X113260319Y-73803714D02*
X113260319Y-74041809D01*
X113260319Y-74041809D02*
X113307938Y-74184666D01*
X113307938Y-74184666D02*
X113403176Y-74279904D01*
X113403176Y-74279904D02*
X113498414Y-74327523D01*
X113498414Y-74327523D02*
X113688890Y-74375142D01*
X113688890Y-74375142D02*
X113831747Y-74375142D01*
X113831747Y-74375142D02*
X114022223Y-74327523D01*
X114022223Y-74327523D02*
X114117461Y-74279904D01*
X114117461Y-74279904D02*
X114212700Y-74184666D01*
X114212700Y-74184666D02*
X114260319Y-74041809D01*
X114260319Y-74041809D02*
X114260319Y-73803714D01*
X114260319Y-75327523D02*
X114260319Y-74756095D01*
X114260319Y-75041809D02*
X113260319Y-75041809D01*
X113260319Y-75041809D02*
X113403176Y-74946571D01*
X113403176Y-74946571D02*
X113498414Y-74851333D01*
X113498414Y-74851333D02*
X113546033Y-74756095D01*
X113260319Y-76232285D02*
X113260319Y-75756095D01*
X113260319Y-75756095D02*
X113736509Y-75708476D01*
X113736509Y-75708476D02*
X113688890Y-75756095D01*
X113688890Y-75756095D02*
X113641271Y-75851333D01*
X113641271Y-75851333D02*
X113641271Y-76089428D01*
X113641271Y-76089428D02*
X113688890Y-76184666D01*
X113688890Y-76184666D02*
X113736509Y-76232285D01*
X113736509Y-76232285D02*
X113831747Y-76279904D01*
X113831747Y-76279904D02*
X114069842Y-76279904D01*
X114069842Y-76279904D02*
X114165080Y-76232285D01*
X114165080Y-76232285D02*
X114212700Y-76184666D01*
X114212700Y-76184666D02*
X114260319Y-76089428D01*
X114260319Y-76089428D02*
X114260319Y-75851333D01*
X114260319Y-75851333D02*
X114212700Y-75756095D01*
X114212700Y-75756095D02*
X114165080Y-75708476D01*
X140427857Y-71664819D02*
X140761190Y-71188628D01*
X140999285Y-71664819D02*
X140999285Y-70664819D01*
X140999285Y-70664819D02*
X140618333Y-70664819D01*
X140618333Y-70664819D02*
X140523095Y-70712438D01*
X140523095Y-70712438D02*
X140475476Y-70760057D01*
X140475476Y-70760057D02*
X140427857Y-70855295D01*
X140427857Y-70855295D02*
X140427857Y-70998152D01*
X140427857Y-70998152D02*
X140475476Y-71093390D01*
X140475476Y-71093390D02*
X140523095Y-71141009D01*
X140523095Y-71141009D02*
X140618333Y-71188628D01*
X140618333Y-71188628D02*
X140999285Y-71188628D01*
X139475476Y-71664819D02*
X140046904Y-71664819D01*
X139761190Y-71664819D02*
X139761190Y-70664819D01*
X139761190Y-70664819D02*
X139856428Y-70807676D01*
X139856428Y-70807676D02*
X139951666Y-70902914D01*
X139951666Y-70902914D02*
X140046904Y-70950533D01*
X138904047Y-71093390D02*
X138999285Y-71045771D01*
X138999285Y-71045771D02*
X139046904Y-70998152D01*
X139046904Y-70998152D02*
X139094523Y-70902914D01*
X139094523Y-70902914D02*
X139094523Y-70855295D01*
X139094523Y-70855295D02*
X139046904Y-70760057D01*
X139046904Y-70760057D02*
X138999285Y-70712438D01*
X138999285Y-70712438D02*
X138904047Y-70664819D01*
X138904047Y-70664819D02*
X138713571Y-70664819D01*
X138713571Y-70664819D02*
X138618333Y-70712438D01*
X138618333Y-70712438D02*
X138570714Y-70760057D01*
X138570714Y-70760057D02*
X138523095Y-70855295D01*
X138523095Y-70855295D02*
X138523095Y-70902914D01*
X138523095Y-70902914D02*
X138570714Y-70998152D01*
X138570714Y-70998152D02*
X138618333Y-71045771D01*
X138618333Y-71045771D02*
X138713571Y-71093390D01*
X138713571Y-71093390D02*
X138904047Y-71093390D01*
X138904047Y-71093390D02*
X138999285Y-71141009D01*
X138999285Y-71141009D02*
X139046904Y-71188628D01*
X139046904Y-71188628D02*
X139094523Y-71283866D01*
X139094523Y-71283866D02*
X139094523Y-71474342D01*
X139094523Y-71474342D02*
X139046904Y-71569580D01*
X139046904Y-71569580D02*
X138999285Y-71617200D01*
X138999285Y-71617200D02*
X138904047Y-71664819D01*
X138904047Y-71664819D02*
X138713571Y-71664819D01*
X138713571Y-71664819D02*
X138618333Y-71617200D01*
X138618333Y-71617200D02*
X138570714Y-71569580D01*
X138570714Y-71569580D02*
X138523095Y-71474342D01*
X138523095Y-71474342D02*
X138523095Y-71283866D01*
X138523095Y-71283866D02*
X138570714Y-71188628D01*
X138570714Y-71188628D02*
X138618333Y-71141009D01*
X138618333Y-71141009D02*
X138713571Y-71093390D01*
X159242357Y-74750819D02*
X159575690Y-74274628D01*
X159813785Y-74750819D02*
X159813785Y-73750819D01*
X159813785Y-73750819D02*
X159432833Y-73750819D01*
X159432833Y-73750819D02*
X159337595Y-73798438D01*
X159337595Y-73798438D02*
X159289976Y-73846057D01*
X159289976Y-73846057D02*
X159242357Y-73941295D01*
X159242357Y-73941295D02*
X159242357Y-74084152D01*
X159242357Y-74084152D02*
X159289976Y-74179390D01*
X159289976Y-74179390D02*
X159337595Y-74227009D01*
X159337595Y-74227009D02*
X159432833Y-74274628D01*
X159432833Y-74274628D02*
X159813785Y-74274628D01*
X158289976Y-74750819D02*
X158861404Y-74750819D01*
X158575690Y-74750819D02*
X158575690Y-73750819D01*
X158575690Y-73750819D02*
X158670928Y-73893676D01*
X158670928Y-73893676D02*
X158766166Y-73988914D01*
X158766166Y-73988914D02*
X158861404Y-74036533D01*
X157813785Y-74750819D02*
X157623309Y-74750819D01*
X157623309Y-74750819D02*
X157528071Y-74703200D01*
X157528071Y-74703200D02*
X157480452Y-74655580D01*
X157480452Y-74655580D02*
X157385214Y-74512723D01*
X157385214Y-74512723D02*
X157337595Y-74322247D01*
X157337595Y-74322247D02*
X157337595Y-73941295D01*
X157337595Y-73941295D02*
X157385214Y-73846057D01*
X157385214Y-73846057D02*
X157432833Y-73798438D01*
X157432833Y-73798438D02*
X157528071Y-73750819D01*
X157528071Y-73750819D02*
X157718547Y-73750819D01*
X157718547Y-73750819D02*
X157813785Y-73798438D01*
X157813785Y-73798438D02*
X157861404Y-73846057D01*
X157861404Y-73846057D02*
X157909023Y-73941295D01*
X157909023Y-73941295D02*
X157909023Y-74179390D01*
X157909023Y-74179390D02*
X157861404Y-74274628D01*
X157861404Y-74274628D02*
X157813785Y-74322247D01*
X157813785Y-74322247D02*
X157718547Y-74369866D01*
X157718547Y-74369866D02*
X157528071Y-74369866D01*
X157528071Y-74369866D02*
X157432833Y-74322247D01*
X157432833Y-74322247D02*
X157385214Y-74274628D01*
X157385214Y-74274628D02*
X157337595Y-74179390D01*
X178292357Y-59764819D02*
X178625690Y-59288628D01*
X178863785Y-59764819D02*
X178863785Y-58764819D01*
X178863785Y-58764819D02*
X178482833Y-58764819D01*
X178482833Y-58764819D02*
X178387595Y-58812438D01*
X178387595Y-58812438D02*
X178339976Y-58860057D01*
X178339976Y-58860057D02*
X178292357Y-58955295D01*
X178292357Y-58955295D02*
X178292357Y-59098152D01*
X178292357Y-59098152D02*
X178339976Y-59193390D01*
X178339976Y-59193390D02*
X178387595Y-59241009D01*
X178387595Y-59241009D02*
X178482833Y-59288628D01*
X178482833Y-59288628D02*
X178863785Y-59288628D01*
X177339976Y-59764819D02*
X177911404Y-59764819D01*
X177625690Y-59764819D02*
X177625690Y-58764819D01*
X177625690Y-58764819D02*
X177720928Y-58907676D01*
X177720928Y-58907676D02*
X177816166Y-59002914D01*
X177816166Y-59002914D02*
X177911404Y-59050533D01*
X176482833Y-59098152D02*
X176482833Y-59764819D01*
X176720928Y-58717200D02*
X176959023Y-59431485D01*
X176959023Y-59431485D02*
X176339976Y-59431485D01*
X114260319Y-38339905D02*
X113260319Y-38339905D01*
X113260319Y-38339905D02*
X113260319Y-38578000D01*
X113260319Y-38578000D02*
X113307938Y-38720857D01*
X113307938Y-38720857D02*
X113403176Y-38816095D01*
X113403176Y-38816095D02*
X113498414Y-38863714D01*
X113498414Y-38863714D02*
X113688890Y-38911333D01*
X113688890Y-38911333D02*
X113831747Y-38911333D01*
X113831747Y-38911333D02*
X114022223Y-38863714D01*
X114022223Y-38863714D02*
X114117461Y-38816095D01*
X114117461Y-38816095D02*
X114212700Y-38720857D01*
X114212700Y-38720857D02*
X114260319Y-38578000D01*
X114260319Y-38578000D02*
X114260319Y-38339905D01*
X113260319Y-39244667D02*
X113260319Y-39863714D01*
X113260319Y-39863714D02*
X113641271Y-39530381D01*
X113641271Y-39530381D02*
X113641271Y-39673238D01*
X113641271Y-39673238D02*
X113688890Y-39768476D01*
X113688890Y-39768476D02*
X113736509Y-39816095D01*
X113736509Y-39816095D02*
X113831747Y-39863714D01*
X113831747Y-39863714D02*
X114069842Y-39863714D01*
X114069842Y-39863714D02*
X114165080Y-39816095D01*
X114165080Y-39816095D02*
X114212700Y-39768476D01*
X114212700Y-39768476D02*
X114260319Y-39673238D01*
X114260319Y-39673238D02*
X114260319Y-39387524D01*
X114260319Y-39387524D02*
X114212700Y-39292286D01*
X114212700Y-39292286D02*
X114165080Y-39244667D01*
X121377857Y-89698819D02*
X121711190Y-89222628D01*
X121949285Y-89698819D02*
X121949285Y-88698819D01*
X121949285Y-88698819D02*
X121568333Y-88698819D01*
X121568333Y-88698819D02*
X121473095Y-88746438D01*
X121473095Y-88746438D02*
X121425476Y-88794057D01*
X121425476Y-88794057D02*
X121377857Y-88889295D01*
X121377857Y-88889295D02*
X121377857Y-89032152D01*
X121377857Y-89032152D02*
X121425476Y-89127390D01*
X121425476Y-89127390D02*
X121473095Y-89175009D01*
X121473095Y-89175009D02*
X121568333Y-89222628D01*
X121568333Y-89222628D02*
X121949285Y-89222628D01*
X120996904Y-88794057D02*
X120949285Y-88746438D01*
X120949285Y-88746438D02*
X120854047Y-88698819D01*
X120854047Y-88698819D02*
X120615952Y-88698819D01*
X120615952Y-88698819D02*
X120520714Y-88746438D01*
X120520714Y-88746438D02*
X120473095Y-88794057D01*
X120473095Y-88794057D02*
X120425476Y-88889295D01*
X120425476Y-88889295D02*
X120425476Y-88984533D01*
X120425476Y-88984533D02*
X120473095Y-89127390D01*
X120473095Y-89127390D02*
X121044523Y-89698819D01*
X121044523Y-89698819D02*
X120425476Y-89698819D01*
X119568333Y-89032152D02*
X119568333Y-89698819D01*
X119806428Y-88651200D02*
X120044523Y-89365485D01*
X120044523Y-89365485D02*
X119425476Y-89365485D01*
X158950319Y-96628833D02*
X158474128Y-96295500D01*
X158950319Y-96057405D02*
X157950319Y-96057405D01*
X157950319Y-96057405D02*
X157950319Y-96438357D01*
X157950319Y-96438357D02*
X157997938Y-96533595D01*
X157997938Y-96533595D02*
X158045557Y-96581214D01*
X158045557Y-96581214D02*
X158140795Y-96628833D01*
X158140795Y-96628833D02*
X158283652Y-96628833D01*
X158283652Y-96628833D02*
X158378890Y-96581214D01*
X158378890Y-96581214D02*
X158426509Y-96533595D01*
X158426509Y-96533595D02*
X158474128Y-96438357D01*
X158474128Y-96438357D02*
X158474128Y-96057405D01*
X158950319Y-97581214D02*
X158950319Y-97009786D01*
X158950319Y-97295500D02*
X157950319Y-97295500D01*
X157950319Y-97295500D02*
X158093176Y-97200262D01*
X158093176Y-97200262D02*
X158188414Y-97105024D01*
X158188414Y-97105024D02*
X158236033Y-97009786D01*
X95464319Y-94889714D02*
X94464319Y-94889714D01*
X94464319Y-94889714D02*
X94464319Y-95127809D01*
X94464319Y-95127809D02*
X94511938Y-95270666D01*
X94511938Y-95270666D02*
X94607176Y-95365904D01*
X94607176Y-95365904D02*
X94702414Y-95413523D01*
X94702414Y-95413523D02*
X94892890Y-95461142D01*
X94892890Y-95461142D02*
X95035747Y-95461142D01*
X95035747Y-95461142D02*
X95226223Y-95413523D01*
X95226223Y-95413523D02*
X95321461Y-95365904D01*
X95321461Y-95365904D02*
X95416700Y-95270666D01*
X95416700Y-95270666D02*
X95464319Y-95127809D01*
X95464319Y-95127809D02*
X95464319Y-94889714D01*
X94559557Y-95842095D02*
X94511938Y-95889714D01*
X94511938Y-95889714D02*
X94464319Y-95984952D01*
X94464319Y-95984952D02*
X94464319Y-96223047D01*
X94464319Y-96223047D02*
X94511938Y-96318285D01*
X94511938Y-96318285D02*
X94559557Y-96365904D01*
X94559557Y-96365904D02*
X94654795Y-96413523D01*
X94654795Y-96413523D02*
X94750033Y-96413523D01*
X94750033Y-96413523D02*
X94892890Y-96365904D01*
X94892890Y-96365904D02*
X95464319Y-95794476D01*
X95464319Y-95794476D02*
X95464319Y-96413523D01*
X94559557Y-96794476D02*
X94511938Y-96842095D01*
X94511938Y-96842095D02*
X94464319Y-96937333D01*
X94464319Y-96937333D02*
X94464319Y-97175428D01*
X94464319Y-97175428D02*
X94511938Y-97270666D01*
X94511938Y-97270666D02*
X94559557Y-97318285D01*
X94559557Y-97318285D02*
X94654795Y-97365904D01*
X94654795Y-97365904D02*
X94750033Y-97365904D01*
X94750033Y-97365904D02*
X94892890Y-97318285D01*
X94892890Y-97318285D02*
X95464319Y-96746857D01*
X95464319Y-96746857D02*
X95464319Y-97365904D01*
X114514319Y-91837714D02*
X113514319Y-91837714D01*
X113514319Y-91837714D02*
X113514319Y-92075809D01*
X113514319Y-92075809D02*
X113561938Y-92218666D01*
X113561938Y-92218666D02*
X113657176Y-92313904D01*
X113657176Y-92313904D02*
X113752414Y-92361523D01*
X113752414Y-92361523D02*
X113942890Y-92409142D01*
X113942890Y-92409142D02*
X114085747Y-92409142D01*
X114085747Y-92409142D02*
X114276223Y-92361523D01*
X114276223Y-92361523D02*
X114371461Y-92313904D01*
X114371461Y-92313904D02*
X114466700Y-92218666D01*
X114466700Y-92218666D02*
X114514319Y-92075809D01*
X114514319Y-92075809D02*
X114514319Y-91837714D01*
X113609557Y-92790095D02*
X113561938Y-92837714D01*
X113561938Y-92837714D02*
X113514319Y-92932952D01*
X113514319Y-92932952D02*
X113514319Y-93171047D01*
X113514319Y-93171047D02*
X113561938Y-93266285D01*
X113561938Y-93266285D02*
X113609557Y-93313904D01*
X113609557Y-93313904D02*
X113704795Y-93361523D01*
X113704795Y-93361523D02*
X113800033Y-93361523D01*
X113800033Y-93361523D02*
X113942890Y-93313904D01*
X113942890Y-93313904D02*
X114514319Y-92742476D01*
X114514319Y-92742476D02*
X114514319Y-93361523D01*
X113514319Y-93694857D02*
X113514319Y-94313904D01*
X113514319Y-94313904D02*
X113895271Y-93980571D01*
X113895271Y-93980571D02*
X113895271Y-94123428D01*
X113895271Y-94123428D02*
X113942890Y-94218666D01*
X113942890Y-94218666D02*
X113990509Y-94266285D01*
X113990509Y-94266285D02*
X114085747Y-94313904D01*
X114085747Y-94313904D02*
X114323842Y-94313904D01*
X114323842Y-94313904D02*
X114419080Y-94266285D01*
X114419080Y-94266285D02*
X114466700Y-94218666D01*
X114466700Y-94218666D02*
X114514319Y-94123428D01*
X114514319Y-94123428D02*
X114514319Y-93837714D01*
X114514319Y-93837714D02*
X114466700Y-93742476D01*
X114466700Y-93742476D02*
X114419080Y-93694857D01*
X152360319Y-58817714D02*
X151360319Y-58817714D01*
X151360319Y-58817714D02*
X151360319Y-59055809D01*
X151360319Y-59055809D02*
X151407938Y-59198666D01*
X151407938Y-59198666D02*
X151503176Y-59293904D01*
X151503176Y-59293904D02*
X151598414Y-59341523D01*
X151598414Y-59341523D02*
X151788890Y-59389142D01*
X151788890Y-59389142D02*
X151931747Y-59389142D01*
X151931747Y-59389142D02*
X152122223Y-59341523D01*
X152122223Y-59341523D02*
X152217461Y-59293904D01*
X152217461Y-59293904D02*
X152312700Y-59198666D01*
X152312700Y-59198666D02*
X152360319Y-59055809D01*
X152360319Y-59055809D02*
X152360319Y-58817714D01*
X152360319Y-60341523D02*
X152360319Y-59770095D01*
X152360319Y-60055809D02*
X151360319Y-60055809D01*
X151360319Y-60055809D02*
X151503176Y-59960571D01*
X151503176Y-59960571D02*
X151598414Y-59865333D01*
X151598414Y-59865333D02*
X151646033Y-59770095D01*
X152360319Y-61293904D02*
X152360319Y-60722476D01*
X152360319Y-61008190D02*
X151360319Y-61008190D01*
X151360319Y-61008190D02*
X151503176Y-60912952D01*
X151503176Y-60912952D02*
X151598414Y-60817714D01*
X151598414Y-60817714D02*
X151646033Y-60722476D01*
X73874319Y-66025905D02*
X72874319Y-66025905D01*
X72874319Y-66025905D02*
X72874319Y-66264000D01*
X72874319Y-66264000D02*
X72921938Y-66406857D01*
X72921938Y-66406857D02*
X73017176Y-66502095D01*
X73017176Y-66502095D02*
X73112414Y-66549714D01*
X73112414Y-66549714D02*
X73302890Y-66597333D01*
X73302890Y-66597333D02*
X73445747Y-66597333D01*
X73445747Y-66597333D02*
X73636223Y-66549714D01*
X73636223Y-66549714D02*
X73731461Y-66502095D01*
X73731461Y-66502095D02*
X73826700Y-66406857D01*
X73826700Y-66406857D02*
X73874319Y-66264000D01*
X73874319Y-66264000D02*
X73874319Y-66025905D01*
X72874319Y-66930667D02*
X72874319Y-67597333D01*
X72874319Y-67597333D02*
X73874319Y-67168762D01*
X178038357Y-77544819D02*
X178371690Y-77068628D01*
X178609785Y-77544819D02*
X178609785Y-76544819D01*
X178609785Y-76544819D02*
X178228833Y-76544819D01*
X178228833Y-76544819D02*
X178133595Y-76592438D01*
X178133595Y-76592438D02*
X178085976Y-76640057D01*
X178085976Y-76640057D02*
X178038357Y-76735295D01*
X178038357Y-76735295D02*
X178038357Y-76878152D01*
X178038357Y-76878152D02*
X178085976Y-76973390D01*
X178085976Y-76973390D02*
X178133595Y-77021009D01*
X178133595Y-77021009D02*
X178228833Y-77068628D01*
X178228833Y-77068628D02*
X178609785Y-77068628D01*
X177657404Y-76640057D02*
X177609785Y-76592438D01*
X177609785Y-76592438D02*
X177514547Y-76544819D01*
X177514547Y-76544819D02*
X177276452Y-76544819D01*
X177276452Y-76544819D02*
X177181214Y-76592438D01*
X177181214Y-76592438D02*
X177133595Y-76640057D01*
X177133595Y-76640057D02*
X177085976Y-76735295D01*
X177085976Y-76735295D02*
X177085976Y-76830533D01*
X177085976Y-76830533D02*
X177133595Y-76973390D01*
X177133595Y-76973390D02*
X177705023Y-77544819D01*
X177705023Y-77544819D02*
X177085976Y-77544819D01*
X176466928Y-76544819D02*
X176371690Y-76544819D01*
X176371690Y-76544819D02*
X176276452Y-76592438D01*
X176276452Y-76592438D02*
X176228833Y-76640057D01*
X176228833Y-76640057D02*
X176181214Y-76735295D01*
X176181214Y-76735295D02*
X176133595Y-76925771D01*
X176133595Y-76925771D02*
X176133595Y-77163866D01*
X176133595Y-77163866D02*
X176181214Y-77354342D01*
X176181214Y-77354342D02*
X176228833Y-77449580D01*
X176228833Y-77449580D02*
X176276452Y-77497200D01*
X176276452Y-77497200D02*
X176371690Y-77544819D01*
X176371690Y-77544819D02*
X176466928Y-77544819D01*
X176466928Y-77544819D02*
X176562166Y-77497200D01*
X176562166Y-77497200D02*
X176609785Y-77449580D01*
X176609785Y-77449580D02*
X176657404Y-77354342D01*
X176657404Y-77354342D02*
X176705023Y-77163866D01*
X176705023Y-77163866D02*
X176705023Y-76925771D01*
X176705023Y-76925771D02*
X176657404Y-76735295D01*
X176657404Y-76735295D02*
X176609785Y-76640057D01*
X176609785Y-76640057D02*
X176562166Y-76592438D01*
X176562166Y-76592438D02*
X176466928Y-76544819D01*
X55332319Y-101109714D02*
X54332319Y-101109714D01*
X54332319Y-101109714D02*
X54332319Y-101347809D01*
X54332319Y-101347809D02*
X54379938Y-101490666D01*
X54379938Y-101490666D02*
X54475176Y-101585904D01*
X54475176Y-101585904D02*
X54570414Y-101633523D01*
X54570414Y-101633523D02*
X54760890Y-101681142D01*
X54760890Y-101681142D02*
X54903747Y-101681142D01*
X54903747Y-101681142D02*
X55094223Y-101633523D01*
X55094223Y-101633523D02*
X55189461Y-101585904D01*
X55189461Y-101585904D02*
X55284700Y-101490666D01*
X55284700Y-101490666D02*
X55332319Y-101347809D01*
X55332319Y-101347809D02*
X55332319Y-101109714D01*
X54427557Y-102062095D02*
X54379938Y-102109714D01*
X54379938Y-102109714D02*
X54332319Y-102204952D01*
X54332319Y-102204952D02*
X54332319Y-102443047D01*
X54332319Y-102443047D02*
X54379938Y-102538285D01*
X54379938Y-102538285D02*
X54427557Y-102585904D01*
X54427557Y-102585904D02*
X54522795Y-102633523D01*
X54522795Y-102633523D02*
X54618033Y-102633523D01*
X54618033Y-102633523D02*
X54760890Y-102585904D01*
X54760890Y-102585904D02*
X55332319Y-102014476D01*
X55332319Y-102014476D02*
X55332319Y-102633523D01*
X54332319Y-103252571D02*
X54332319Y-103347809D01*
X54332319Y-103347809D02*
X54379938Y-103443047D01*
X54379938Y-103443047D02*
X54427557Y-103490666D01*
X54427557Y-103490666D02*
X54522795Y-103538285D01*
X54522795Y-103538285D02*
X54713271Y-103585904D01*
X54713271Y-103585904D02*
X54951366Y-103585904D01*
X54951366Y-103585904D02*
X55141842Y-103538285D01*
X55141842Y-103538285D02*
X55237080Y-103490666D01*
X55237080Y-103490666D02*
X55284700Y-103443047D01*
X55284700Y-103443047D02*
X55332319Y-103347809D01*
X55332319Y-103347809D02*
X55332319Y-103252571D01*
X55332319Y-103252571D02*
X55284700Y-103157333D01*
X55284700Y-103157333D02*
X55237080Y-103109714D01*
X55237080Y-103109714D02*
X55141842Y-103062095D01*
X55141842Y-103062095D02*
X54951366Y-103014476D01*
X54951366Y-103014476D02*
X54713271Y-103014476D01*
X54713271Y-103014476D02*
X54522795Y-103062095D01*
X54522795Y-103062095D02*
X54427557Y-103109714D01*
X54427557Y-103109714D02*
X54379938Y-103157333D01*
X54379938Y-103157333D02*
X54332319Y-103252571D01*
X139848166Y-35722819D02*
X140181499Y-35246628D01*
X140419594Y-35722819D02*
X140419594Y-34722819D01*
X140419594Y-34722819D02*
X140038642Y-34722819D01*
X140038642Y-34722819D02*
X139943404Y-34770438D01*
X139943404Y-34770438D02*
X139895785Y-34818057D01*
X139895785Y-34818057D02*
X139848166Y-34913295D01*
X139848166Y-34913295D02*
X139848166Y-35056152D01*
X139848166Y-35056152D02*
X139895785Y-35151390D01*
X139895785Y-35151390D02*
X139943404Y-35199009D01*
X139943404Y-35199009D02*
X140038642Y-35246628D01*
X140038642Y-35246628D02*
X140419594Y-35246628D01*
X138991023Y-34722819D02*
X139181499Y-34722819D01*
X139181499Y-34722819D02*
X139276737Y-34770438D01*
X139276737Y-34770438D02*
X139324356Y-34818057D01*
X139324356Y-34818057D02*
X139419594Y-34960914D01*
X139419594Y-34960914D02*
X139467213Y-35151390D01*
X139467213Y-35151390D02*
X139467213Y-35532342D01*
X139467213Y-35532342D02*
X139419594Y-35627580D01*
X139419594Y-35627580D02*
X139371975Y-35675200D01*
X139371975Y-35675200D02*
X139276737Y-35722819D01*
X139276737Y-35722819D02*
X139086261Y-35722819D01*
X139086261Y-35722819D02*
X138991023Y-35675200D01*
X138991023Y-35675200D02*
X138943404Y-35627580D01*
X138943404Y-35627580D02*
X138895785Y-35532342D01*
X138895785Y-35532342D02*
X138895785Y-35294247D01*
X138895785Y-35294247D02*
X138943404Y-35199009D01*
X138943404Y-35199009D02*
X138991023Y-35151390D01*
X138991023Y-35151390D02*
X139086261Y-35103771D01*
X139086261Y-35103771D02*
X139276737Y-35103771D01*
X139276737Y-35103771D02*
X139371975Y-35151390D01*
X139371975Y-35151390D02*
X139419594Y-35199009D01*
X139419594Y-35199009D02*
X139467213Y-35294247D01*
X133310319Y-91837714D02*
X132310319Y-91837714D01*
X132310319Y-91837714D02*
X132310319Y-92075809D01*
X132310319Y-92075809D02*
X132357938Y-92218666D01*
X132357938Y-92218666D02*
X132453176Y-92313904D01*
X132453176Y-92313904D02*
X132548414Y-92361523D01*
X132548414Y-92361523D02*
X132738890Y-92409142D01*
X132738890Y-92409142D02*
X132881747Y-92409142D01*
X132881747Y-92409142D02*
X133072223Y-92361523D01*
X133072223Y-92361523D02*
X133167461Y-92313904D01*
X133167461Y-92313904D02*
X133262700Y-92218666D01*
X133262700Y-92218666D02*
X133310319Y-92075809D01*
X133310319Y-92075809D02*
X133310319Y-91837714D01*
X132405557Y-92790095D02*
X132357938Y-92837714D01*
X132357938Y-92837714D02*
X132310319Y-92932952D01*
X132310319Y-92932952D02*
X132310319Y-93171047D01*
X132310319Y-93171047D02*
X132357938Y-93266285D01*
X132357938Y-93266285D02*
X132405557Y-93313904D01*
X132405557Y-93313904D02*
X132500795Y-93361523D01*
X132500795Y-93361523D02*
X132596033Y-93361523D01*
X132596033Y-93361523D02*
X132738890Y-93313904D01*
X132738890Y-93313904D02*
X133310319Y-92742476D01*
X133310319Y-92742476D02*
X133310319Y-93361523D01*
X133310319Y-93837714D02*
X133310319Y-94028190D01*
X133310319Y-94028190D02*
X133262700Y-94123428D01*
X133262700Y-94123428D02*
X133215080Y-94171047D01*
X133215080Y-94171047D02*
X133072223Y-94266285D01*
X133072223Y-94266285D02*
X132881747Y-94313904D01*
X132881747Y-94313904D02*
X132500795Y-94313904D01*
X132500795Y-94313904D02*
X132405557Y-94266285D01*
X132405557Y-94266285D02*
X132357938Y-94218666D01*
X132357938Y-94218666D02*
X132310319Y-94123428D01*
X132310319Y-94123428D02*
X132310319Y-93932952D01*
X132310319Y-93932952D02*
X132357938Y-93837714D01*
X132357938Y-93837714D02*
X132405557Y-93790095D01*
X132405557Y-93790095D02*
X132500795Y-93742476D01*
X132500795Y-93742476D02*
X132738890Y-93742476D01*
X132738890Y-93742476D02*
X132834128Y-93790095D01*
X132834128Y-93790095D02*
X132881747Y-93837714D01*
X132881747Y-93837714D02*
X132929366Y-93932952D01*
X132929366Y-93932952D02*
X132929366Y-94123428D01*
X132929366Y-94123428D02*
X132881747Y-94218666D01*
X132881747Y-94218666D02*
X132834128Y-94266285D01*
X132834128Y-94266285D02*
X132738890Y-94313904D01*
X133310319Y-38211905D02*
X132310319Y-38211905D01*
X132310319Y-38211905D02*
X132310319Y-38450000D01*
X132310319Y-38450000D02*
X132357938Y-38592857D01*
X132357938Y-38592857D02*
X132453176Y-38688095D01*
X132453176Y-38688095D02*
X132548414Y-38735714D01*
X132548414Y-38735714D02*
X132738890Y-38783333D01*
X132738890Y-38783333D02*
X132881747Y-38783333D01*
X132881747Y-38783333D02*
X133072223Y-38735714D01*
X133072223Y-38735714D02*
X133167461Y-38688095D01*
X133167461Y-38688095D02*
X133262700Y-38592857D01*
X133262700Y-38592857D02*
X133310319Y-38450000D01*
X133310319Y-38450000D02*
X133310319Y-38211905D01*
X132643652Y-39640476D02*
X133310319Y-39640476D01*
X132262700Y-39402381D02*
X132976985Y-39164286D01*
X132976985Y-39164286D02*
X132976985Y-39783333D01*
X101917166Y-38008819D02*
X102250499Y-37532628D01*
X102488594Y-38008819D02*
X102488594Y-37008819D01*
X102488594Y-37008819D02*
X102107642Y-37008819D01*
X102107642Y-37008819D02*
X102012404Y-37056438D01*
X102012404Y-37056438D02*
X101964785Y-37104057D01*
X101964785Y-37104057D02*
X101917166Y-37199295D01*
X101917166Y-37199295D02*
X101917166Y-37342152D01*
X101917166Y-37342152D02*
X101964785Y-37437390D01*
X101964785Y-37437390D02*
X102012404Y-37485009D01*
X102012404Y-37485009D02*
X102107642Y-37532628D01*
X102107642Y-37532628D02*
X102488594Y-37532628D01*
X101060023Y-37342152D02*
X101060023Y-38008819D01*
X101298118Y-36961200D02*
X101536213Y-37675485D01*
X101536213Y-37675485D02*
X100917166Y-37675485D01*
X62186666Y-80115580D02*
X62234285Y-80163200D01*
X62234285Y-80163200D02*
X62377142Y-80210819D01*
X62377142Y-80210819D02*
X62472380Y-80210819D01*
X62472380Y-80210819D02*
X62615237Y-80163200D01*
X62615237Y-80163200D02*
X62710475Y-80067961D01*
X62710475Y-80067961D02*
X62758094Y-79972723D01*
X62758094Y-79972723D02*
X62805713Y-79782247D01*
X62805713Y-79782247D02*
X62805713Y-79639390D01*
X62805713Y-79639390D02*
X62758094Y-79448914D01*
X62758094Y-79448914D02*
X62710475Y-79353676D01*
X62710475Y-79353676D02*
X62615237Y-79258438D01*
X62615237Y-79258438D02*
X62472380Y-79210819D01*
X62472380Y-79210819D02*
X62377142Y-79210819D01*
X62377142Y-79210819D02*
X62234285Y-79258438D01*
X62234285Y-79258438D02*
X62186666Y-79306057D01*
X61234285Y-80210819D02*
X61805713Y-80210819D01*
X61519999Y-80210819D02*
X61519999Y-79210819D01*
X61519999Y-79210819D02*
X61615237Y-79353676D01*
X61615237Y-79353676D02*
X61710475Y-79448914D01*
X61710475Y-79448914D02*
X61805713Y-79496533D01*
X71427180Y-51458571D02*
X71903371Y-51791904D01*
X71427180Y-52029999D02*
X72427180Y-52029999D01*
X72427180Y-52029999D02*
X72427180Y-51649047D01*
X72427180Y-51649047D02*
X72379561Y-51553809D01*
X72379561Y-51553809D02*
X72331942Y-51506190D01*
X72331942Y-51506190D02*
X72236704Y-51458571D01*
X72236704Y-51458571D02*
X72093847Y-51458571D01*
X72093847Y-51458571D02*
X71998609Y-51506190D01*
X71998609Y-51506190D02*
X71950990Y-51553809D01*
X71950990Y-51553809D02*
X71903371Y-51649047D01*
X71903371Y-51649047D02*
X71903371Y-52029999D01*
X71950990Y-51029999D02*
X71950990Y-50696666D01*
X71427180Y-50553809D02*
X71427180Y-51029999D01*
X71427180Y-51029999D02*
X72427180Y-51029999D01*
X72427180Y-51029999D02*
X72427180Y-50553809D01*
X71474800Y-50172856D02*
X71427180Y-50029999D01*
X71427180Y-50029999D02*
X71427180Y-49791904D01*
X71427180Y-49791904D02*
X71474800Y-49696666D01*
X71474800Y-49696666D02*
X71522419Y-49649047D01*
X71522419Y-49649047D02*
X71617657Y-49601428D01*
X71617657Y-49601428D02*
X71712895Y-49601428D01*
X71712895Y-49601428D02*
X71808133Y-49649047D01*
X71808133Y-49649047D02*
X71855752Y-49696666D01*
X71855752Y-49696666D02*
X71903371Y-49791904D01*
X71903371Y-49791904D02*
X71950990Y-49982380D01*
X71950990Y-49982380D02*
X71998609Y-50077618D01*
X71998609Y-50077618D02*
X72046228Y-50125237D01*
X72046228Y-50125237D02*
X72141466Y-50172856D01*
X72141466Y-50172856D02*
X72236704Y-50172856D01*
X72236704Y-50172856D02*
X72331942Y-50125237D01*
X72331942Y-50125237D02*
X72379561Y-50077618D01*
X72379561Y-50077618D02*
X72427180Y-49982380D01*
X72427180Y-49982380D02*
X72427180Y-49744285D01*
X72427180Y-49744285D02*
X72379561Y-49601428D01*
X71950990Y-49172856D02*
X71950990Y-48839523D01*
X71427180Y-48696666D02*
X71427180Y-49172856D01*
X71427180Y-49172856D02*
X72427180Y-49172856D01*
X72427180Y-49172856D02*
X72427180Y-48696666D01*
X72427180Y-48410951D02*
X72427180Y-47839523D01*
X71427180Y-48125237D02*
X72427180Y-48125237D01*
X71427180Y-46982380D02*
X71427180Y-47553808D01*
X71427180Y-47268094D02*
X72427180Y-47268094D01*
X72427180Y-47268094D02*
X72284323Y-47363332D01*
X72284323Y-47363332D02*
X72189085Y-47458570D01*
X72189085Y-47458570D02*
X72141466Y-47553808D01*
X95210319Y-41259905D02*
X94210319Y-41259905D01*
X94210319Y-41259905D02*
X94210319Y-41498000D01*
X94210319Y-41498000D02*
X94257938Y-41640857D01*
X94257938Y-41640857D02*
X94353176Y-41736095D01*
X94353176Y-41736095D02*
X94448414Y-41783714D01*
X94448414Y-41783714D02*
X94638890Y-41831333D01*
X94638890Y-41831333D02*
X94781747Y-41831333D01*
X94781747Y-41831333D02*
X94972223Y-41783714D01*
X94972223Y-41783714D02*
X95067461Y-41736095D01*
X95067461Y-41736095D02*
X95162700Y-41640857D01*
X95162700Y-41640857D02*
X95210319Y-41498000D01*
X95210319Y-41498000D02*
X95210319Y-41259905D01*
X94305557Y-42212286D02*
X94257938Y-42259905D01*
X94257938Y-42259905D02*
X94210319Y-42355143D01*
X94210319Y-42355143D02*
X94210319Y-42593238D01*
X94210319Y-42593238D02*
X94257938Y-42688476D01*
X94257938Y-42688476D02*
X94305557Y-42736095D01*
X94305557Y-42736095D02*
X94400795Y-42783714D01*
X94400795Y-42783714D02*
X94496033Y-42783714D01*
X94496033Y-42783714D02*
X94638890Y-42736095D01*
X94638890Y-42736095D02*
X95210319Y-42164667D01*
X95210319Y-42164667D02*
X95210319Y-42783714D01*
X95464319Y-59167905D02*
X94464319Y-59167905D01*
X94464319Y-59167905D02*
X94464319Y-59406000D01*
X94464319Y-59406000D02*
X94511938Y-59548857D01*
X94511938Y-59548857D02*
X94607176Y-59644095D01*
X94607176Y-59644095D02*
X94702414Y-59691714D01*
X94702414Y-59691714D02*
X94892890Y-59739333D01*
X94892890Y-59739333D02*
X95035747Y-59739333D01*
X95035747Y-59739333D02*
X95226223Y-59691714D01*
X95226223Y-59691714D02*
X95321461Y-59644095D01*
X95321461Y-59644095D02*
X95416700Y-59548857D01*
X95416700Y-59548857D02*
X95464319Y-59406000D01*
X95464319Y-59406000D02*
X95464319Y-59167905D01*
X94892890Y-60310762D02*
X94845271Y-60215524D01*
X94845271Y-60215524D02*
X94797652Y-60167905D01*
X94797652Y-60167905D02*
X94702414Y-60120286D01*
X94702414Y-60120286D02*
X94654795Y-60120286D01*
X94654795Y-60120286D02*
X94559557Y-60167905D01*
X94559557Y-60167905D02*
X94511938Y-60215524D01*
X94511938Y-60215524D02*
X94464319Y-60310762D01*
X94464319Y-60310762D02*
X94464319Y-60501238D01*
X94464319Y-60501238D02*
X94511938Y-60596476D01*
X94511938Y-60596476D02*
X94559557Y-60644095D01*
X94559557Y-60644095D02*
X94654795Y-60691714D01*
X94654795Y-60691714D02*
X94702414Y-60691714D01*
X94702414Y-60691714D02*
X94797652Y-60644095D01*
X94797652Y-60644095D02*
X94845271Y-60596476D01*
X94845271Y-60596476D02*
X94892890Y-60501238D01*
X94892890Y-60501238D02*
X94892890Y-60310762D01*
X94892890Y-60310762D02*
X94940509Y-60215524D01*
X94940509Y-60215524D02*
X94988128Y-60167905D01*
X94988128Y-60167905D02*
X95083366Y-60120286D01*
X95083366Y-60120286D02*
X95273842Y-60120286D01*
X95273842Y-60120286D02*
X95369080Y-60167905D01*
X95369080Y-60167905D02*
X95416700Y-60215524D01*
X95416700Y-60215524D02*
X95464319Y-60310762D01*
X95464319Y-60310762D02*
X95464319Y-60501238D01*
X95464319Y-60501238D02*
X95416700Y-60596476D01*
X95416700Y-60596476D02*
X95369080Y-60644095D01*
X95369080Y-60644095D02*
X95273842Y-60691714D01*
X95273842Y-60691714D02*
X95083366Y-60691714D01*
X95083366Y-60691714D02*
X94988128Y-60644095D01*
X94988128Y-60644095D02*
X94940509Y-60596476D01*
X94940509Y-60596476D02*
X94892890Y-60501238D01*
X121631857Y-53630819D02*
X121965190Y-53154628D01*
X122203285Y-53630819D02*
X122203285Y-52630819D01*
X122203285Y-52630819D02*
X121822333Y-52630819D01*
X121822333Y-52630819D02*
X121727095Y-52678438D01*
X121727095Y-52678438D02*
X121679476Y-52726057D01*
X121679476Y-52726057D02*
X121631857Y-52821295D01*
X121631857Y-52821295D02*
X121631857Y-52964152D01*
X121631857Y-52964152D02*
X121679476Y-53059390D01*
X121679476Y-53059390D02*
X121727095Y-53107009D01*
X121727095Y-53107009D02*
X121822333Y-53154628D01*
X121822333Y-53154628D02*
X122203285Y-53154628D01*
X120679476Y-53630819D02*
X121250904Y-53630819D01*
X120965190Y-53630819D02*
X120965190Y-52630819D01*
X120965190Y-52630819D02*
X121060428Y-52773676D01*
X121060428Y-52773676D02*
X121155666Y-52868914D01*
X121155666Y-52868914D02*
X121250904Y-52916533D01*
X119727095Y-53630819D02*
X120298523Y-53630819D01*
X120012809Y-53630819D02*
X120012809Y-52630819D01*
X120012809Y-52630819D02*
X120108047Y-52773676D01*
X120108047Y-52773676D02*
X120203285Y-52868914D01*
X120203285Y-52868914D02*
X120298523Y-52916533D01*
X171410319Y-79899714D02*
X170410319Y-79899714D01*
X170410319Y-79899714D02*
X170410319Y-80137809D01*
X170410319Y-80137809D02*
X170457938Y-80280666D01*
X170457938Y-80280666D02*
X170553176Y-80375904D01*
X170553176Y-80375904D02*
X170648414Y-80423523D01*
X170648414Y-80423523D02*
X170838890Y-80471142D01*
X170838890Y-80471142D02*
X170981747Y-80471142D01*
X170981747Y-80471142D02*
X171172223Y-80423523D01*
X171172223Y-80423523D02*
X171267461Y-80375904D01*
X171267461Y-80375904D02*
X171362700Y-80280666D01*
X171362700Y-80280666D02*
X171410319Y-80137809D01*
X171410319Y-80137809D02*
X171410319Y-79899714D01*
X171410319Y-81423523D02*
X171410319Y-80852095D01*
X171410319Y-81137809D02*
X170410319Y-81137809D01*
X170410319Y-81137809D02*
X170553176Y-81042571D01*
X170553176Y-81042571D02*
X170648414Y-80947333D01*
X170648414Y-80947333D02*
X170696033Y-80852095D01*
X170838890Y-81994952D02*
X170791271Y-81899714D01*
X170791271Y-81899714D02*
X170743652Y-81852095D01*
X170743652Y-81852095D02*
X170648414Y-81804476D01*
X170648414Y-81804476D02*
X170600795Y-81804476D01*
X170600795Y-81804476D02*
X170505557Y-81852095D01*
X170505557Y-81852095D02*
X170457938Y-81899714D01*
X170457938Y-81899714D02*
X170410319Y-81994952D01*
X170410319Y-81994952D02*
X170410319Y-82185428D01*
X170410319Y-82185428D02*
X170457938Y-82280666D01*
X170457938Y-82280666D02*
X170505557Y-82328285D01*
X170505557Y-82328285D02*
X170600795Y-82375904D01*
X170600795Y-82375904D02*
X170648414Y-82375904D01*
X170648414Y-82375904D02*
X170743652Y-82328285D01*
X170743652Y-82328285D02*
X170791271Y-82280666D01*
X170791271Y-82280666D02*
X170838890Y-82185428D01*
X170838890Y-82185428D02*
X170838890Y-81994952D01*
X170838890Y-81994952D02*
X170886509Y-81899714D01*
X170886509Y-81899714D02*
X170934128Y-81852095D01*
X170934128Y-81852095D02*
X171029366Y-81804476D01*
X171029366Y-81804476D02*
X171219842Y-81804476D01*
X171219842Y-81804476D02*
X171315080Y-81852095D01*
X171315080Y-81852095D02*
X171362700Y-81899714D01*
X171362700Y-81899714D02*
X171410319Y-81994952D01*
X171410319Y-81994952D02*
X171410319Y-82185428D01*
X171410319Y-82185428D02*
X171362700Y-82280666D01*
X171362700Y-82280666D02*
X171315080Y-82328285D01*
X171315080Y-82328285D02*
X171219842Y-82375904D01*
X171219842Y-82375904D02*
X171029366Y-82375904D01*
X171029366Y-82375904D02*
X170934128Y-82328285D01*
X170934128Y-82328285D02*
X170886509Y-82280666D01*
X170886509Y-82280666D02*
X170838890Y-82185428D01*
X83023857Y-77760819D02*
X83357190Y-77284628D01*
X83595285Y-77760819D02*
X83595285Y-76760819D01*
X83595285Y-76760819D02*
X83214333Y-76760819D01*
X83214333Y-76760819D02*
X83119095Y-76808438D01*
X83119095Y-76808438D02*
X83071476Y-76856057D01*
X83071476Y-76856057D02*
X83023857Y-76951295D01*
X83023857Y-76951295D02*
X83023857Y-77094152D01*
X83023857Y-77094152D02*
X83071476Y-77189390D01*
X83071476Y-77189390D02*
X83119095Y-77237009D01*
X83119095Y-77237009D02*
X83214333Y-77284628D01*
X83214333Y-77284628D02*
X83595285Y-77284628D01*
X82071476Y-77760819D02*
X82642904Y-77760819D01*
X82357190Y-77760819D02*
X82357190Y-76760819D01*
X82357190Y-76760819D02*
X82452428Y-76903676D01*
X82452428Y-76903676D02*
X82547666Y-76998914D01*
X82547666Y-76998914D02*
X82642904Y-77046533D01*
X81166714Y-76760819D02*
X81642904Y-76760819D01*
X81642904Y-76760819D02*
X81690523Y-77237009D01*
X81690523Y-77237009D02*
X81642904Y-77189390D01*
X81642904Y-77189390D02*
X81547666Y-77141771D01*
X81547666Y-77141771D02*
X81309571Y-77141771D01*
X81309571Y-77141771D02*
X81214333Y-77189390D01*
X81214333Y-77189390D02*
X81166714Y-77237009D01*
X81166714Y-77237009D02*
X81119095Y-77332247D01*
X81119095Y-77332247D02*
X81119095Y-77570342D01*
X81119095Y-77570342D02*
X81166714Y-77665580D01*
X81166714Y-77665580D02*
X81214333Y-77713200D01*
X81214333Y-77713200D02*
X81309571Y-77760819D01*
X81309571Y-77760819D02*
X81547666Y-77760819D01*
X81547666Y-77760819D02*
X81642904Y-77713200D01*
X81642904Y-77713200D02*
X81690523Y-77665580D01*
X83277857Y-95794819D02*
X83611190Y-95318628D01*
X83849285Y-95794819D02*
X83849285Y-94794819D01*
X83849285Y-94794819D02*
X83468333Y-94794819D01*
X83468333Y-94794819D02*
X83373095Y-94842438D01*
X83373095Y-94842438D02*
X83325476Y-94890057D01*
X83325476Y-94890057D02*
X83277857Y-94985295D01*
X83277857Y-94985295D02*
X83277857Y-95128152D01*
X83277857Y-95128152D02*
X83325476Y-95223390D01*
X83325476Y-95223390D02*
X83373095Y-95271009D01*
X83373095Y-95271009D02*
X83468333Y-95318628D01*
X83468333Y-95318628D02*
X83849285Y-95318628D01*
X82896904Y-94890057D02*
X82849285Y-94842438D01*
X82849285Y-94842438D02*
X82754047Y-94794819D01*
X82754047Y-94794819D02*
X82515952Y-94794819D01*
X82515952Y-94794819D02*
X82420714Y-94842438D01*
X82420714Y-94842438D02*
X82373095Y-94890057D01*
X82373095Y-94890057D02*
X82325476Y-94985295D01*
X82325476Y-94985295D02*
X82325476Y-95080533D01*
X82325476Y-95080533D02*
X82373095Y-95223390D01*
X82373095Y-95223390D02*
X82944523Y-95794819D01*
X82944523Y-95794819D02*
X82325476Y-95794819D01*
X81944523Y-94890057D02*
X81896904Y-94842438D01*
X81896904Y-94842438D02*
X81801666Y-94794819D01*
X81801666Y-94794819D02*
X81563571Y-94794819D01*
X81563571Y-94794819D02*
X81468333Y-94842438D01*
X81468333Y-94842438D02*
X81420714Y-94890057D01*
X81420714Y-94890057D02*
X81373095Y-94985295D01*
X81373095Y-94985295D02*
X81373095Y-95080533D01*
X81373095Y-95080533D02*
X81420714Y-95223390D01*
X81420714Y-95223390D02*
X81992142Y-95794819D01*
X81992142Y-95794819D02*
X81373095Y-95794819D01*
X152360319Y-41259905D02*
X151360319Y-41259905D01*
X151360319Y-41259905D02*
X151360319Y-41498000D01*
X151360319Y-41498000D02*
X151407938Y-41640857D01*
X151407938Y-41640857D02*
X151503176Y-41736095D01*
X151503176Y-41736095D02*
X151598414Y-41783714D01*
X151598414Y-41783714D02*
X151788890Y-41831333D01*
X151788890Y-41831333D02*
X151931747Y-41831333D01*
X151931747Y-41831333D02*
X152122223Y-41783714D01*
X152122223Y-41783714D02*
X152217461Y-41736095D01*
X152217461Y-41736095D02*
X152312700Y-41640857D01*
X152312700Y-41640857D02*
X152360319Y-41498000D01*
X152360319Y-41498000D02*
X152360319Y-41259905D01*
X151360319Y-42736095D02*
X151360319Y-42259905D01*
X151360319Y-42259905D02*
X151836509Y-42212286D01*
X151836509Y-42212286D02*
X151788890Y-42259905D01*
X151788890Y-42259905D02*
X151741271Y-42355143D01*
X151741271Y-42355143D02*
X151741271Y-42593238D01*
X151741271Y-42593238D02*
X151788890Y-42688476D01*
X151788890Y-42688476D02*
X151836509Y-42736095D01*
X151836509Y-42736095D02*
X151931747Y-42783714D01*
X151931747Y-42783714D02*
X152169842Y-42783714D01*
X152169842Y-42783714D02*
X152265080Y-42736095D01*
X152265080Y-42736095D02*
X152312700Y-42688476D01*
X152312700Y-42688476D02*
X152360319Y-42593238D01*
X152360319Y-42593238D02*
X152360319Y-42355143D01*
X152360319Y-42355143D02*
X152312700Y-42259905D01*
X152312700Y-42259905D02*
X152265080Y-42212286D01*
X158794666Y-38770819D02*
X159127999Y-38294628D01*
X159366094Y-38770819D02*
X159366094Y-37770819D01*
X159366094Y-37770819D02*
X158985142Y-37770819D01*
X158985142Y-37770819D02*
X158889904Y-37818438D01*
X158889904Y-37818438D02*
X158842285Y-37866057D01*
X158842285Y-37866057D02*
X158794666Y-37961295D01*
X158794666Y-37961295D02*
X158794666Y-38104152D01*
X158794666Y-38104152D02*
X158842285Y-38199390D01*
X158842285Y-38199390D02*
X158889904Y-38247009D01*
X158889904Y-38247009D02*
X158985142Y-38294628D01*
X158985142Y-38294628D02*
X159366094Y-38294628D01*
X158461332Y-37770819D02*
X157794666Y-37770819D01*
X157794666Y-37770819D02*
X158223237Y-38770819D01*
X171410319Y-44307905D02*
X170410319Y-44307905D01*
X170410319Y-44307905D02*
X170410319Y-44546000D01*
X170410319Y-44546000D02*
X170457938Y-44688857D01*
X170457938Y-44688857D02*
X170553176Y-44784095D01*
X170553176Y-44784095D02*
X170648414Y-44831714D01*
X170648414Y-44831714D02*
X170838890Y-44879333D01*
X170838890Y-44879333D02*
X170981747Y-44879333D01*
X170981747Y-44879333D02*
X171172223Y-44831714D01*
X171172223Y-44831714D02*
X171267461Y-44784095D01*
X171267461Y-44784095D02*
X171362700Y-44688857D01*
X171362700Y-44688857D02*
X171410319Y-44546000D01*
X171410319Y-44546000D02*
X171410319Y-44307905D01*
X170410319Y-45736476D02*
X170410319Y-45546000D01*
X170410319Y-45546000D02*
X170457938Y-45450762D01*
X170457938Y-45450762D02*
X170505557Y-45403143D01*
X170505557Y-45403143D02*
X170648414Y-45307905D01*
X170648414Y-45307905D02*
X170838890Y-45260286D01*
X170838890Y-45260286D02*
X171219842Y-45260286D01*
X171219842Y-45260286D02*
X171315080Y-45307905D01*
X171315080Y-45307905D02*
X171362700Y-45355524D01*
X171362700Y-45355524D02*
X171410319Y-45450762D01*
X171410319Y-45450762D02*
X171410319Y-45641238D01*
X171410319Y-45641238D02*
X171362700Y-45736476D01*
X171362700Y-45736476D02*
X171315080Y-45784095D01*
X171315080Y-45784095D02*
X171219842Y-45831714D01*
X171219842Y-45831714D02*
X170981747Y-45831714D01*
X170981747Y-45831714D02*
X170886509Y-45784095D01*
X170886509Y-45784095D02*
X170838890Y-45736476D01*
X170838890Y-45736476D02*
X170791271Y-45641238D01*
X170791271Y-45641238D02*
X170791271Y-45450762D01*
X170791271Y-45450762D02*
X170838890Y-45355524D01*
X170838890Y-45355524D02*
X170886509Y-45307905D01*
X170886509Y-45307905D02*
X170981747Y-45260286D01*
X114260319Y-56245905D02*
X113260319Y-56245905D01*
X113260319Y-56245905D02*
X113260319Y-56484000D01*
X113260319Y-56484000D02*
X113307938Y-56626857D01*
X113307938Y-56626857D02*
X113403176Y-56722095D01*
X113403176Y-56722095D02*
X113498414Y-56769714D01*
X113498414Y-56769714D02*
X113688890Y-56817333D01*
X113688890Y-56817333D02*
X113831747Y-56817333D01*
X113831747Y-56817333D02*
X114022223Y-56769714D01*
X114022223Y-56769714D02*
X114117461Y-56722095D01*
X114117461Y-56722095D02*
X114212700Y-56626857D01*
X114212700Y-56626857D02*
X114260319Y-56484000D01*
X114260319Y-56484000D02*
X114260319Y-56245905D01*
X114260319Y-57293524D02*
X114260319Y-57484000D01*
X114260319Y-57484000D02*
X114212700Y-57579238D01*
X114212700Y-57579238D02*
X114165080Y-57626857D01*
X114165080Y-57626857D02*
X114022223Y-57722095D01*
X114022223Y-57722095D02*
X113831747Y-57769714D01*
X113831747Y-57769714D02*
X113450795Y-57769714D01*
X113450795Y-57769714D02*
X113355557Y-57722095D01*
X113355557Y-57722095D02*
X113307938Y-57674476D01*
X113307938Y-57674476D02*
X113260319Y-57579238D01*
X113260319Y-57579238D02*
X113260319Y-57388762D01*
X113260319Y-57388762D02*
X113307938Y-57293524D01*
X113307938Y-57293524D02*
X113355557Y-57245905D01*
X113355557Y-57245905D02*
X113450795Y-57198286D01*
X113450795Y-57198286D02*
X113688890Y-57198286D01*
X113688890Y-57198286D02*
X113784128Y-57245905D01*
X113784128Y-57245905D02*
X113831747Y-57293524D01*
X113831747Y-57293524D02*
X113879366Y-57388762D01*
X113879366Y-57388762D02*
X113879366Y-57579238D01*
X113879366Y-57579238D02*
X113831747Y-57674476D01*
X113831747Y-57674476D02*
X113784128Y-57722095D01*
X113784128Y-57722095D02*
X113688890Y-57769714D01*
X140427857Y-89444819D02*
X140761190Y-88968628D01*
X140999285Y-89444819D02*
X140999285Y-88444819D01*
X140999285Y-88444819D02*
X140618333Y-88444819D01*
X140618333Y-88444819D02*
X140523095Y-88492438D01*
X140523095Y-88492438D02*
X140475476Y-88540057D01*
X140475476Y-88540057D02*
X140427857Y-88635295D01*
X140427857Y-88635295D02*
X140427857Y-88778152D01*
X140427857Y-88778152D02*
X140475476Y-88873390D01*
X140475476Y-88873390D02*
X140523095Y-88921009D01*
X140523095Y-88921009D02*
X140618333Y-88968628D01*
X140618333Y-88968628D02*
X140999285Y-88968628D01*
X140046904Y-88540057D02*
X139999285Y-88492438D01*
X139999285Y-88492438D02*
X139904047Y-88444819D01*
X139904047Y-88444819D02*
X139665952Y-88444819D01*
X139665952Y-88444819D02*
X139570714Y-88492438D01*
X139570714Y-88492438D02*
X139523095Y-88540057D01*
X139523095Y-88540057D02*
X139475476Y-88635295D01*
X139475476Y-88635295D02*
X139475476Y-88730533D01*
X139475476Y-88730533D02*
X139523095Y-88873390D01*
X139523095Y-88873390D02*
X140094523Y-89444819D01*
X140094523Y-89444819D02*
X139475476Y-89444819D01*
X138570714Y-88444819D02*
X139046904Y-88444819D01*
X139046904Y-88444819D02*
X139094523Y-88921009D01*
X139094523Y-88921009D02*
X139046904Y-88873390D01*
X139046904Y-88873390D02*
X138951666Y-88825771D01*
X138951666Y-88825771D02*
X138713571Y-88825771D01*
X138713571Y-88825771D02*
X138618333Y-88873390D01*
X138618333Y-88873390D02*
X138570714Y-88921009D01*
X138570714Y-88921009D02*
X138523095Y-89016247D01*
X138523095Y-89016247D02*
X138523095Y-89254342D01*
X138523095Y-89254342D02*
X138570714Y-89349580D01*
X138570714Y-89349580D02*
X138618333Y-89397200D01*
X138618333Y-89397200D02*
X138713571Y-89444819D01*
X138713571Y-89444819D02*
X138951666Y-89444819D01*
X138951666Y-89444819D02*
X139046904Y-89397200D01*
X139046904Y-89397200D02*
X139094523Y-89349580D01*
X64586285Y-90878819D02*
X64586285Y-89878819D01*
X64586285Y-89878819D02*
X64348190Y-89878819D01*
X64348190Y-89878819D02*
X64205333Y-89926438D01*
X64205333Y-89926438D02*
X64110095Y-90021676D01*
X64110095Y-90021676D02*
X64062476Y-90116914D01*
X64062476Y-90116914D02*
X64014857Y-90307390D01*
X64014857Y-90307390D02*
X64014857Y-90450247D01*
X64014857Y-90450247D02*
X64062476Y-90640723D01*
X64062476Y-90640723D02*
X64110095Y-90735961D01*
X64110095Y-90735961D02*
X64205333Y-90831200D01*
X64205333Y-90831200D02*
X64348190Y-90878819D01*
X64348190Y-90878819D02*
X64586285Y-90878819D01*
X63062476Y-90878819D02*
X63633904Y-90878819D01*
X63348190Y-90878819D02*
X63348190Y-89878819D01*
X63348190Y-89878819D02*
X63443428Y-90021676D01*
X63443428Y-90021676D02*
X63538666Y-90116914D01*
X63538666Y-90116914D02*
X63633904Y-90164533D01*
X62586285Y-90878819D02*
X62395809Y-90878819D01*
X62395809Y-90878819D02*
X62300571Y-90831200D01*
X62300571Y-90831200D02*
X62252952Y-90783580D01*
X62252952Y-90783580D02*
X62157714Y-90640723D01*
X62157714Y-90640723D02*
X62110095Y-90450247D01*
X62110095Y-90450247D02*
X62110095Y-90069295D01*
X62110095Y-90069295D02*
X62157714Y-89974057D01*
X62157714Y-89974057D02*
X62205333Y-89926438D01*
X62205333Y-89926438D02*
X62300571Y-89878819D01*
X62300571Y-89878819D02*
X62491047Y-89878819D01*
X62491047Y-89878819D02*
X62586285Y-89926438D01*
X62586285Y-89926438D02*
X62633904Y-89974057D01*
X62633904Y-89974057D02*
X62681523Y-90069295D01*
X62681523Y-90069295D02*
X62681523Y-90307390D01*
X62681523Y-90307390D02*
X62633904Y-90402628D01*
X62633904Y-90402628D02*
X62586285Y-90450247D01*
X62586285Y-90450247D02*
X62491047Y-90497866D01*
X62491047Y-90497866D02*
X62300571Y-90497866D01*
X62300571Y-90497866D02*
X62205333Y-90450247D01*
X62205333Y-90450247D02*
X62157714Y-90402628D01*
X62157714Y-90402628D02*
X62110095Y-90307390D01*
X157823557Y-91639261D02*
X157775938Y-91544023D01*
X157775938Y-91544023D02*
X157680700Y-91448785D01*
X157680700Y-91448785D02*
X157537842Y-91305928D01*
X157537842Y-91305928D02*
X157490223Y-91210690D01*
X157490223Y-91210690D02*
X157490223Y-91115452D01*
X157728319Y-91163071D02*
X157680700Y-91067833D01*
X157680700Y-91067833D02*
X157585461Y-90972595D01*
X157585461Y-90972595D02*
X157394985Y-90924976D01*
X157394985Y-90924976D02*
X157061652Y-90924976D01*
X157061652Y-90924976D02*
X156871176Y-90972595D01*
X156871176Y-90972595D02*
X156775938Y-91067833D01*
X156775938Y-91067833D02*
X156728319Y-91163071D01*
X156728319Y-91163071D02*
X156728319Y-91353547D01*
X156728319Y-91353547D02*
X156775938Y-91448785D01*
X156775938Y-91448785D02*
X156871176Y-91544023D01*
X156871176Y-91544023D02*
X157061652Y-91591642D01*
X157061652Y-91591642D02*
X157394985Y-91591642D01*
X157394985Y-91591642D02*
X157585461Y-91544023D01*
X157585461Y-91544023D02*
X157680700Y-91448785D01*
X157680700Y-91448785D02*
X157728319Y-91353547D01*
X157728319Y-91353547D02*
X157728319Y-91163071D01*
X157728319Y-92544023D02*
X157728319Y-91972595D01*
X157728319Y-92258309D02*
X156728319Y-92258309D01*
X156728319Y-92258309D02*
X156871176Y-92163071D01*
X156871176Y-92163071D02*
X156966414Y-92067833D01*
X156966414Y-92067833D02*
X157014033Y-91972595D01*
X102581857Y-92746819D02*
X102915190Y-92270628D01*
X103153285Y-92746819D02*
X103153285Y-91746819D01*
X103153285Y-91746819D02*
X102772333Y-91746819D01*
X102772333Y-91746819D02*
X102677095Y-91794438D01*
X102677095Y-91794438D02*
X102629476Y-91842057D01*
X102629476Y-91842057D02*
X102581857Y-91937295D01*
X102581857Y-91937295D02*
X102581857Y-92080152D01*
X102581857Y-92080152D02*
X102629476Y-92175390D01*
X102629476Y-92175390D02*
X102677095Y-92223009D01*
X102677095Y-92223009D02*
X102772333Y-92270628D01*
X102772333Y-92270628D02*
X103153285Y-92270628D01*
X102200904Y-91842057D02*
X102153285Y-91794438D01*
X102153285Y-91794438D02*
X102058047Y-91746819D01*
X102058047Y-91746819D02*
X101819952Y-91746819D01*
X101819952Y-91746819D02*
X101724714Y-91794438D01*
X101724714Y-91794438D02*
X101677095Y-91842057D01*
X101677095Y-91842057D02*
X101629476Y-91937295D01*
X101629476Y-91937295D02*
X101629476Y-92032533D01*
X101629476Y-92032533D02*
X101677095Y-92175390D01*
X101677095Y-92175390D02*
X102248523Y-92746819D01*
X102248523Y-92746819D02*
X101629476Y-92746819D01*
X101296142Y-91746819D02*
X100677095Y-91746819D01*
X100677095Y-91746819D02*
X101010428Y-92127771D01*
X101010428Y-92127771D02*
X100867571Y-92127771D01*
X100867571Y-92127771D02*
X100772333Y-92175390D01*
X100772333Y-92175390D02*
X100724714Y-92223009D01*
X100724714Y-92223009D02*
X100677095Y-92318247D01*
X100677095Y-92318247D02*
X100677095Y-92556342D01*
X100677095Y-92556342D02*
X100724714Y-92651580D01*
X100724714Y-92651580D02*
X100772333Y-92699200D01*
X100772333Y-92699200D02*
X100867571Y-92746819D01*
X100867571Y-92746819D02*
X101153285Y-92746819D01*
X101153285Y-92746819D02*
X101248523Y-92699200D01*
X101248523Y-92699200D02*
X101296142Y-92651580D01*
X74128319Y-101363714D02*
X73128319Y-101363714D01*
X73128319Y-101363714D02*
X73128319Y-101601809D01*
X73128319Y-101601809D02*
X73175938Y-101744666D01*
X73175938Y-101744666D02*
X73271176Y-101839904D01*
X73271176Y-101839904D02*
X73366414Y-101887523D01*
X73366414Y-101887523D02*
X73556890Y-101935142D01*
X73556890Y-101935142D02*
X73699747Y-101935142D01*
X73699747Y-101935142D02*
X73890223Y-101887523D01*
X73890223Y-101887523D02*
X73985461Y-101839904D01*
X73985461Y-101839904D02*
X74080700Y-101744666D01*
X74080700Y-101744666D02*
X74128319Y-101601809D01*
X74128319Y-101601809D02*
X74128319Y-101363714D01*
X73223557Y-102316095D02*
X73175938Y-102363714D01*
X73175938Y-102363714D02*
X73128319Y-102458952D01*
X73128319Y-102458952D02*
X73128319Y-102697047D01*
X73128319Y-102697047D02*
X73175938Y-102792285D01*
X73175938Y-102792285D02*
X73223557Y-102839904D01*
X73223557Y-102839904D02*
X73318795Y-102887523D01*
X73318795Y-102887523D02*
X73414033Y-102887523D01*
X73414033Y-102887523D02*
X73556890Y-102839904D01*
X73556890Y-102839904D02*
X74128319Y-102268476D01*
X74128319Y-102268476D02*
X74128319Y-102887523D01*
X74128319Y-103839904D02*
X74128319Y-103268476D01*
X74128319Y-103554190D02*
X73128319Y-103554190D01*
X73128319Y-103554190D02*
X73271176Y-103458952D01*
X73271176Y-103458952D02*
X73366414Y-103363714D01*
X73366414Y-103363714D02*
X73414033Y-103268476D01*
X120816666Y-34782819D02*
X121149999Y-34306628D01*
X121388094Y-34782819D02*
X121388094Y-33782819D01*
X121388094Y-33782819D02*
X121007142Y-33782819D01*
X121007142Y-33782819D02*
X120911904Y-33830438D01*
X120911904Y-33830438D02*
X120864285Y-33878057D01*
X120864285Y-33878057D02*
X120816666Y-33973295D01*
X120816666Y-33973295D02*
X120816666Y-34116152D01*
X120816666Y-34116152D02*
X120864285Y-34211390D01*
X120864285Y-34211390D02*
X120911904Y-34259009D01*
X120911904Y-34259009D02*
X121007142Y-34306628D01*
X121007142Y-34306628D02*
X121388094Y-34306628D01*
X119911904Y-33782819D02*
X120388094Y-33782819D01*
X120388094Y-33782819D02*
X120435713Y-34259009D01*
X120435713Y-34259009D02*
X120388094Y-34211390D01*
X120388094Y-34211390D02*
X120292856Y-34163771D01*
X120292856Y-34163771D02*
X120054761Y-34163771D01*
X120054761Y-34163771D02*
X119959523Y-34211390D01*
X119959523Y-34211390D02*
X119911904Y-34259009D01*
X119911904Y-34259009D02*
X119864285Y-34354247D01*
X119864285Y-34354247D02*
X119864285Y-34592342D01*
X119864285Y-34592342D02*
X119911904Y-34687580D01*
X119911904Y-34687580D02*
X119959523Y-34735200D01*
X119959523Y-34735200D02*
X120054761Y-34782819D01*
X120054761Y-34782819D02*
X120292856Y-34782819D01*
X120292856Y-34782819D02*
X120388094Y-34735200D01*
X120388094Y-34735200D02*
X120435713Y-34687580D01*
X133564319Y-73931714D02*
X132564319Y-73931714D01*
X132564319Y-73931714D02*
X132564319Y-74169809D01*
X132564319Y-74169809D02*
X132611938Y-74312666D01*
X132611938Y-74312666D02*
X132707176Y-74407904D01*
X132707176Y-74407904D02*
X132802414Y-74455523D01*
X132802414Y-74455523D02*
X132992890Y-74503142D01*
X132992890Y-74503142D02*
X133135747Y-74503142D01*
X133135747Y-74503142D02*
X133326223Y-74455523D01*
X133326223Y-74455523D02*
X133421461Y-74407904D01*
X133421461Y-74407904D02*
X133516700Y-74312666D01*
X133516700Y-74312666D02*
X133564319Y-74169809D01*
X133564319Y-74169809D02*
X133564319Y-73931714D01*
X133564319Y-75455523D02*
X133564319Y-74884095D01*
X133564319Y-75169809D02*
X132564319Y-75169809D01*
X132564319Y-75169809D02*
X132707176Y-75074571D01*
X132707176Y-75074571D02*
X132802414Y-74979333D01*
X132802414Y-74979333D02*
X132850033Y-74884095D01*
X132564319Y-76312666D02*
X132564319Y-76122190D01*
X132564319Y-76122190D02*
X132611938Y-76026952D01*
X132611938Y-76026952D02*
X132659557Y-75979333D01*
X132659557Y-75979333D02*
X132802414Y-75884095D01*
X132802414Y-75884095D02*
X132992890Y-75836476D01*
X132992890Y-75836476D02*
X133373842Y-75836476D01*
X133373842Y-75836476D02*
X133469080Y-75884095D01*
X133469080Y-75884095D02*
X133516700Y-75931714D01*
X133516700Y-75931714D02*
X133564319Y-76026952D01*
X133564319Y-76026952D02*
X133564319Y-76217428D01*
X133564319Y-76217428D02*
X133516700Y-76312666D01*
X133516700Y-76312666D02*
X133469080Y-76360285D01*
X133469080Y-76360285D02*
X133373842Y-76407904D01*
X133373842Y-76407904D02*
X133135747Y-76407904D01*
X133135747Y-76407904D02*
X133040509Y-76360285D01*
X133040509Y-76360285D02*
X132992890Y-76312666D01*
X132992890Y-76312666D02*
X132945271Y-76217428D01*
X132945271Y-76217428D02*
X132945271Y-76026952D01*
X132945271Y-76026952D02*
X132992890Y-75931714D01*
X132992890Y-75931714D02*
X133040509Y-75884095D01*
X133040509Y-75884095D02*
X133135747Y-75836476D01*
X121377857Y-71664819D02*
X121711190Y-71188628D01*
X121949285Y-71664819D02*
X121949285Y-70664819D01*
X121949285Y-70664819D02*
X121568333Y-70664819D01*
X121568333Y-70664819D02*
X121473095Y-70712438D01*
X121473095Y-70712438D02*
X121425476Y-70760057D01*
X121425476Y-70760057D02*
X121377857Y-70855295D01*
X121377857Y-70855295D02*
X121377857Y-70998152D01*
X121377857Y-70998152D02*
X121425476Y-71093390D01*
X121425476Y-71093390D02*
X121473095Y-71141009D01*
X121473095Y-71141009D02*
X121568333Y-71188628D01*
X121568333Y-71188628D02*
X121949285Y-71188628D01*
X120425476Y-71664819D02*
X120996904Y-71664819D01*
X120711190Y-71664819D02*
X120711190Y-70664819D01*
X120711190Y-70664819D02*
X120806428Y-70807676D01*
X120806428Y-70807676D02*
X120901666Y-70902914D01*
X120901666Y-70902914D02*
X120996904Y-70950533D01*
X120092142Y-70664819D02*
X119425476Y-70664819D01*
X119425476Y-70664819D02*
X119854047Y-71664819D01*
X102581857Y-73950819D02*
X102915190Y-73474628D01*
X103153285Y-73950819D02*
X103153285Y-72950819D01*
X103153285Y-72950819D02*
X102772333Y-72950819D01*
X102772333Y-72950819D02*
X102677095Y-72998438D01*
X102677095Y-72998438D02*
X102629476Y-73046057D01*
X102629476Y-73046057D02*
X102581857Y-73141295D01*
X102581857Y-73141295D02*
X102581857Y-73284152D01*
X102581857Y-73284152D02*
X102629476Y-73379390D01*
X102629476Y-73379390D02*
X102677095Y-73427009D01*
X102677095Y-73427009D02*
X102772333Y-73474628D01*
X102772333Y-73474628D02*
X103153285Y-73474628D01*
X101629476Y-73950819D02*
X102200904Y-73950819D01*
X101915190Y-73950819D02*
X101915190Y-72950819D01*
X101915190Y-72950819D02*
X102010428Y-73093676D01*
X102010428Y-73093676D02*
X102105666Y-73188914D01*
X102105666Y-73188914D02*
X102200904Y-73236533D01*
X100772333Y-72950819D02*
X100962809Y-72950819D01*
X100962809Y-72950819D02*
X101058047Y-72998438D01*
X101058047Y-72998438D02*
X101105666Y-73046057D01*
X101105666Y-73046057D02*
X101200904Y-73188914D01*
X101200904Y-73188914D02*
X101248523Y-73379390D01*
X101248523Y-73379390D02*
X101248523Y-73760342D01*
X101248523Y-73760342D02*
X101200904Y-73855580D01*
X101200904Y-73855580D02*
X101153285Y-73903200D01*
X101153285Y-73903200D02*
X101058047Y-73950819D01*
X101058047Y-73950819D02*
X100867571Y-73950819D01*
X100867571Y-73950819D02*
X100772333Y-73903200D01*
X100772333Y-73903200D02*
X100724714Y-73855580D01*
X100724714Y-73855580D02*
X100677095Y-73760342D01*
X100677095Y-73760342D02*
X100677095Y-73522247D01*
X100677095Y-73522247D02*
X100724714Y-73427009D01*
X100724714Y-73427009D02*
X100772333Y-73379390D01*
X100772333Y-73379390D02*
X100867571Y-73331771D01*
X100867571Y-73331771D02*
X101058047Y-73331771D01*
X101058047Y-73331771D02*
X101153285Y-73379390D01*
X101153285Y-73379390D02*
X101200904Y-73427009D01*
X101200904Y-73427009D02*
X101248523Y-73522247D01*
X82547666Y-59472819D02*
X82880999Y-58996628D01*
X83119094Y-59472819D02*
X83119094Y-58472819D01*
X83119094Y-58472819D02*
X82738142Y-58472819D01*
X82738142Y-58472819D02*
X82642904Y-58520438D01*
X82642904Y-58520438D02*
X82595285Y-58568057D01*
X82595285Y-58568057D02*
X82547666Y-58663295D01*
X82547666Y-58663295D02*
X82547666Y-58806152D01*
X82547666Y-58806152D02*
X82595285Y-58901390D01*
X82595285Y-58901390D02*
X82642904Y-58949009D01*
X82642904Y-58949009D02*
X82738142Y-58996628D01*
X82738142Y-58996628D02*
X83119094Y-58996628D01*
X82071475Y-59472819D02*
X81880999Y-59472819D01*
X81880999Y-59472819D02*
X81785761Y-59425200D01*
X81785761Y-59425200D02*
X81738142Y-59377580D01*
X81738142Y-59377580D02*
X81642904Y-59234723D01*
X81642904Y-59234723D02*
X81595285Y-59044247D01*
X81595285Y-59044247D02*
X81595285Y-58663295D01*
X81595285Y-58663295D02*
X81642904Y-58568057D01*
X81642904Y-58568057D02*
X81690523Y-58520438D01*
X81690523Y-58520438D02*
X81785761Y-58472819D01*
X81785761Y-58472819D02*
X81976237Y-58472819D01*
X81976237Y-58472819D02*
X82071475Y-58520438D01*
X82071475Y-58520438D02*
X82119094Y-58568057D01*
X82119094Y-58568057D02*
X82166713Y-58663295D01*
X82166713Y-58663295D02*
X82166713Y-58901390D01*
X82166713Y-58901390D02*
X82119094Y-58996628D01*
X82119094Y-58996628D02*
X82071475Y-59044247D01*
X82071475Y-59044247D02*
X81976237Y-59091866D01*
X81976237Y-59091866D02*
X81785761Y-59091866D01*
X81785761Y-59091866D02*
X81690523Y-59044247D01*
X81690523Y-59044247D02*
X81642904Y-58996628D01*
X81642904Y-58996628D02*
X81595285Y-58901390D01*
X86186666Y-42278819D02*
X86519999Y-41802628D01*
X86758094Y-42278819D02*
X86758094Y-41278819D01*
X86758094Y-41278819D02*
X86377142Y-41278819D01*
X86377142Y-41278819D02*
X86281904Y-41326438D01*
X86281904Y-41326438D02*
X86234285Y-41374057D01*
X86234285Y-41374057D02*
X86186666Y-41469295D01*
X86186666Y-41469295D02*
X86186666Y-41612152D01*
X86186666Y-41612152D02*
X86234285Y-41707390D01*
X86234285Y-41707390D02*
X86281904Y-41755009D01*
X86281904Y-41755009D02*
X86377142Y-41802628D01*
X86377142Y-41802628D02*
X86758094Y-41802628D01*
X85853332Y-41278819D02*
X85234285Y-41278819D01*
X85234285Y-41278819D02*
X85567618Y-41659771D01*
X85567618Y-41659771D02*
X85424761Y-41659771D01*
X85424761Y-41659771D02*
X85329523Y-41707390D01*
X85329523Y-41707390D02*
X85281904Y-41755009D01*
X85281904Y-41755009D02*
X85234285Y-41850247D01*
X85234285Y-41850247D02*
X85234285Y-42088342D01*
X85234285Y-42088342D02*
X85281904Y-42183580D01*
X85281904Y-42183580D02*
X85329523Y-42231200D01*
X85329523Y-42231200D02*
X85424761Y-42278819D01*
X85424761Y-42278819D02*
X85710475Y-42278819D01*
X85710475Y-42278819D02*
X85805713Y-42231200D01*
X85805713Y-42231200D02*
X85853332Y-42183580D01*
X159223857Y-56678819D02*
X159557190Y-56202628D01*
X159795285Y-56678819D02*
X159795285Y-55678819D01*
X159795285Y-55678819D02*
X159414333Y-55678819D01*
X159414333Y-55678819D02*
X159319095Y-55726438D01*
X159319095Y-55726438D02*
X159271476Y-55774057D01*
X159271476Y-55774057D02*
X159223857Y-55869295D01*
X159223857Y-55869295D02*
X159223857Y-56012152D01*
X159223857Y-56012152D02*
X159271476Y-56107390D01*
X159271476Y-56107390D02*
X159319095Y-56155009D01*
X159319095Y-56155009D02*
X159414333Y-56202628D01*
X159414333Y-56202628D02*
X159795285Y-56202628D01*
X158271476Y-56678819D02*
X158842904Y-56678819D01*
X158557190Y-56678819D02*
X158557190Y-55678819D01*
X158557190Y-55678819D02*
X158652428Y-55821676D01*
X158652428Y-55821676D02*
X158747666Y-55916914D01*
X158747666Y-55916914D02*
X158842904Y-55964533D01*
X157938142Y-55678819D02*
X157319095Y-55678819D01*
X157319095Y-55678819D02*
X157652428Y-56059771D01*
X157652428Y-56059771D02*
X157509571Y-56059771D01*
X157509571Y-56059771D02*
X157414333Y-56107390D01*
X157414333Y-56107390D02*
X157366714Y-56155009D01*
X157366714Y-56155009D02*
X157319095Y-56250247D01*
X157319095Y-56250247D02*
X157319095Y-56488342D01*
X157319095Y-56488342D02*
X157366714Y-56583580D01*
X157366714Y-56583580D02*
X157414333Y-56631200D01*
X157414333Y-56631200D02*
X157509571Y-56678819D01*
X157509571Y-56678819D02*
X157795285Y-56678819D01*
X157795285Y-56678819D02*
X157890523Y-56631200D01*
X157890523Y-56631200D02*
X157938142Y-56583580D01*
X152820000Y-48030000D02*
X152820000Y-48530000D01*
X152820000Y-52130000D02*
X152820000Y-52730000D01*
X152820000Y-52730000D02*
X157320000Y-52730000D01*
X157320000Y-48030000D02*
X152820000Y-48030000D01*
X157320000Y-48730000D02*
X157320000Y-48030000D01*
X157820000Y-53230000D02*
X157820000Y-54230000D01*
X158320000Y-54730000D02*
X157820000Y-54230000D01*
X161320000Y-50230000D02*
X158820000Y-50230000D01*
X161320000Y-54730000D02*
X158320000Y-54730000D01*
X161820000Y-50730000D02*
X161320000Y-50230000D01*
X161820000Y-54230000D02*
X161320000Y-54730000D01*
X157820000Y-53230000D02*
G75*
G03*
X157320000Y-52730000I-500001J-1D01*
G01*
X157320000Y-48730000D02*
G75*
G03*
X158820000Y-50230000I1500001J1D01*
G01*
X114820000Y-99030000D02*
X114820000Y-99530000D01*
X114820000Y-103130000D02*
X114820000Y-103730000D01*
X114820000Y-103730000D02*
X119320000Y-103730000D01*
X119320000Y-99030000D02*
X114820000Y-99030000D01*
X119320000Y-99730000D02*
X119320000Y-99030000D01*
X119820000Y-104230000D02*
X119820000Y-105230000D01*
X120320000Y-105730000D02*
X119820000Y-105230000D01*
X123320000Y-101230000D02*
X120820000Y-101230000D01*
X123320000Y-105730000D02*
X120320000Y-105730000D01*
X123820000Y-101730000D02*
X123320000Y-101230000D01*
X123820000Y-105230000D02*
X123320000Y-105730000D01*
X119820000Y-104230000D02*
G75*
G03*
X119320000Y-103730000I-500001J-1D01*
G01*
X119320000Y-99730000D02*
G75*
G03*
X120820000Y-101230000I1500001J1D01*
G01*
X133820000Y-99030000D02*
X133820000Y-99530000D01*
X133820000Y-103130000D02*
X133820000Y-103730000D01*
X133820000Y-103730000D02*
X138320000Y-103730000D01*
X138320000Y-99030000D02*
X133820000Y-99030000D01*
X138320000Y-99730000D02*
X138320000Y-99030000D01*
X138820000Y-104230000D02*
X138820000Y-105230000D01*
X139320000Y-105730000D02*
X138820000Y-105230000D01*
X142320000Y-101230000D02*
X139820000Y-101230000D01*
X142320000Y-105730000D02*
X139320000Y-105730000D01*
X142820000Y-101730000D02*
X142320000Y-101230000D01*
X142820000Y-105230000D02*
X142320000Y-105730000D01*
X138820000Y-104230000D02*
G75*
G03*
X138320000Y-103730000I-500001J-1D01*
G01*
X138320000Y-99730000D02*
G75*
G03*
X139820000Y-101230000I1500001J1D01*
G01*
X133820000Y-63030000D02*
X133820000Y-63530000D01*
X133820000Y-67130000D02*
X133820000Y-67730000D01*
X133820000Y-67730000D02*
X138320000Y-67730000D01*
X138320000Y-63030000D02*
X133820000Y-63030000D01*
X138320000Y-63730000D02*
X138320000Y-63030000D01*
X138820000Y-68230000D02*
X138820000Y-69230000D01*
X139320000Y-69730000D02*
X138820000Y-69230000D01*
X142320000Y-65230000D02*
X139820000Y-65230000D01*
X142320000Y-69730000D02*
X139320000Y-69730000D01*
X142820000Y-65730000D02*
X142320000Y-65230000D01*
X142820000Y-69230000D02*
X142320000Y-69730000D01*
X138820000Y-68230000D02*
G75*
G03*
X138320000Y-67730000I-500001J-1D01*
G01*
X138320000Y-63730000D02*
G75*
G03*
X139820000Y-65230000I1500001J1D01*
G01*
X152820000Y-66030000D02*
X152820000Y-66530000D01*
X152820000Y-70130000D02*
X152820000Y-70730000D01*
X152820000Y-70730000D02*
X157320000Y-70730000D01*
X157320000Y-66030000D02*
X152820000Y-66030000D01*
X157320000Y-66730000D02*
X157320000Y-66030000D01*
X157820000Y-71230000D02*
X157820000Y-72230000D01*
X158320000Y-72730000D02*
X157820000Y-72230000D01*
X161320000Y-68230000D02*
X158820000Y-68230000D01*
X161320000Y-72730000D02*
X158320000Y-72730000D01*
X161820000Y-68730000D02*
X161320000Y-68230000D01*
X161820000Y-72230000D02*
X161320000Y-72730000D01*
X157820000Y-71230000D02*
G75*
G03*
X157320000Y-70730000I-500001J-1D01*
G01*
X157320000Y-66730000D02*
G75*
G03*
X158820000Y-68230000I1500001J1D01*
G01*
X77100000Y-51280000D02*
X77100000Y-51780000D01*
X77100000Y-55380000D02*
X77100000Y-55980000D01*
X77100000Y-55980000D02*
X81600000Y-55980000D01*
X81600000Y-51280000D02*
X77100000Y-51280000D01*
X81600000Y-51980000D02*
X81600000Y-51280000D01*
X82100000Y-56480000D02*
X82100000Y-57480000D01*
X82600000Y-57980000D02*
X82100000Y-57480000D01*
X85600000Y-53480000D02*
X83100000Y-53480000D01*
X85600000Y-57980000D02*
X82600000Y-57980000D01*
X86100000Y-53980000D02*
X85600000Y-53480000D01*
X86100000Y-57480000D02*
X85600000Y-57980000D01*
X82100000Y-56480000D02*
G75*
G03*
X81600000Y-55980000I-500001J-1D01*
G01*
X81600000Y-51980000D02*
G75*
G03*
X83100000Y-53480000I1500001J1D01*
G01*
X171820000Y-87030000D02*
X171820000Y-87530000D01*
X171820000Y-91130000D02*
X171820000Y-91730000D01*
X171820000Y-91730000D02*
X176320000Y-91730000D01*
X176320000Y-87030000D02*
X171820000Y-87030000D01*
X176320000Y-87730000D02*
X176320000Y-87030000D01*
X176820000Y-92230000D02*
X176820000Y-93230000D01*
X177320000Y-93730000D02*
X176820000Y-93230000D01*
X180320000Y-89230000D02*
X177820000Y-89230000D01*
X180320000Y-93730000D02*
X177320000Y-93730000D01*
X180820000Y-89730000D02*
X180320000Y-89230000D01*
X180820000Y-93230000D02*
X180320000Y-93730000D01*
X176820000Y-92230000D02*
G75*
G03*
X176320000Y-91730000I-500001J-1D01*
G01*
X176320000Y-87730000D02*
G75*
G03*
X177820000Y-89230000I1500001J1D01*
G01*
X114820000Y-63030000D02*
X114820000Y-63530000D01*
X114820000Y-67130000D02*
X114820000Y-67730000D01*
X114820000Y-67730000D02*
X119320000Y-67730000D01*
X119320000Y-63030000D02*
X114820000Y-63030000D01*
X119320000Y-63730000D02*
X119320000Y-63030000D01*
X119820000Y-68230000D02*
X119820000Y-69230000D01*
X120320000Y-69730000D02*
X119820000Y-69230000D01*
X123320000Y-65230000D02*
X120820000Y-65230000D01*
X123320000Y-69730000D02*
X120320000Y-69730000D01*
X123820000Y-65730000D02*
X123320000Y-65230000D01*
X123820000Y-69230000D02*
X123320000Y-69730000D01*
X119820000Y-68230000D02*
G75*
G03*
X119320000Y-67730000I-500001J-1D01*
G01*
X119320000Y-63730000D02*
G75*
G03*
X120820000Y-65230000I1500001J1D01*
G01*
X95820000Y-84030000D02*
X95820000Y-84530000D01*
X95820000Y-88130000D02*
X95820000Y-88730000D01*
X95820000Y-88730000D02*
X100320000Y-88730000D01*
X100320000Y-84030000D02*
X95820000Y-84030000D01*
X100320000Y-84730000D02*
X100320000Y-84030000D01*
X100820000Y-89230000D02*
X100820000Y-90230000D01*
X101320000Y-90730000D02*
X100820000Y-90230000D01*
X104320000Y-86230000D02*
X101820000Y-86230000D01*
X104320000Y-90730000D02*
X101320000Y-90730000D01*
X104820000Y-86730000D02*
X104320000Y-86230000D01*
X104820000Y-90230000D02*
X104320000Y-90730000D01*
X100820000Y-89230000D02*
G75*
G03*
X100320000Y-88730000I-500001J-1D01*
G01*
X100320000Y-84730000D02*
G75*
G03*
X101820000Y-86230000I1500001J1D01*
G01*
X114820000Y-81030000D02*
X114820000Y-81530000D01*
X114820000Y-85130000D02*
X114820000Y-85730000D01*
X114820000Y-85730000D02*
X119320000Y-85730000D01*
X119320000Y-81030000D02*
X114820000Y-81030000D01*
X119320000Y-81730000D02*
X119320000Y-81030000D01*
X119820000Y-86230000D02*
X119820000Y-87230000D01*
X120320000Y-87730000D02*
X119820000Y-87230000D01*
X123320000Y-83230000D02*
X120820000Y-83230000D01*
X123320000Y-87730000D02*
X120320000Y-87730000D01*
X123820000Y-83730000D02*
X123320000Y-83230000D01*
X123820000Y-87230000D02*
X123320000Y-87730000D01*
X119820000Y-86230000D02*
G75*
G03*
X119320000Y-85730000I-500001J-1D01*
G01*
X119320000Y-81730000D02*
G75*
G03*
X120820000Y-83230000I1500001J1D01*
G01*
X95820000Y-48030000D02*
X95820000Y-48530000D01*
X95820000Y-52130000D02*
X95820000Y-52730000D01*
X95820000Y-52730000D02*
X100320000Y-52730000D01*
X100320000Y-48030000D02*
X95820000Y-48030000D01*
X100320000Y-48730000D02*
X100320000Y-48030000D01*
X100820000Y-53230000D02*
X100820000Y-54230000D01*
X101320000Y-54730000D02*
X100820000Y-54230000D01*
X104320000Y-50230000D02*
X101820000Y-50230000D01*
X104320000Y-54730000D02*
X101320000Y-54730000D01*
X104820000Y-50730000D02*
X104320000Y-50230000D01*
X104820000Y-54230000D02*
X104320000Y-54730000D01*
X100820000Y-53230000D02*
G75*
G03*
X100320000Y-52730000I-500001J-1D01*
G01*
X100320000Y-48730000D02*
G75*
G03*
X101820000Y-50230000I1500001J1D01*
G01*
X171820000Y-69030000D02*
X171820000Y-69530000D01*
X171820000Y-73130000D02*
X171820000Y-73730000D01*
X171820000Y-73730000D02*
X176320000Y-73730000D01*
X176320000Y-69030000D02*
X171820000Y-69030000D01*
X176320000Y-69730000D02*
X176320000Y-69030000D01*
X176820000Y-74230000D02*
X176820000Y-75230000D01*
X177320000Y-75730000D02*
X176820000Y-75230000D01*
X180320000Y-71230000D02*
X177820000Y-71230000D01*
X180320000Y-75730000D02*
X177320000Y-75730000D01*
X180820000Y-71730000D02*
X180320000Y-71230000D01*
X180820000Y-75230000D02*
X180320000Y-75730000D01*
X176820000Y-74230000D02*
G75*
G03*
X176320000Y-73730000I-500001J-1D01*
G01*
X176320000Y-69730000D02*
G75*
G03*
X177820000Y-71230000I1500001J1D01*
G01*
X171820000Y-51030000D02*
X171820000Y-51530000D01*
X171820000Y-55130000D02*
X171820000Y-55730000D01*
X171820000Y-55730000D02*
X176320000Y-55730000D01*
X176320000Y-51030000D02*
X171820000Y-51030000D01*
X176320000Y-51730000D02*
X176320000Y-51030000D01*
X176820000Y-56230000D02*
X176820000Y-57230000D01*
X177320000Y-57730000D02*
X176820000Y-57230000D01*
X180320000Y-53230000D02*
X177820000Y-53230000D01*
X180320000Y-57730000D02*
X177320000Y-57730000D01*
X180820000Y-53730000D02*
X180320000Y-53230000D01*
X180820000Y-57230000D02*
X180320000Y-57730000D01*
X176820000Y-56230000D02*
G75*
G03*
X176320000Y-55730000I-500001J-1D01*
G01*
X176320000Y-51730000D02*
G75*
G03*
X177820000Y-53230000I1500001J1D01*
G01*
X77100000Y-87280000D02*
X77100000Y-87780000D01*
X77100000Y-91380000D02*
X77100000Y-91980000D01*
X77100000Y-91980000D02*
X81600000Y-91980000D01*
X81600000Y-87280000D02*
X77100000Y-87280000D01*
X81600000Y-87980000D02*
X81600000Y-87280000D01*
X82100000Y-92480000D02*
X82100000Y-93480000D01*
X82600000Y-93980000D02*
X82100000Y-93480000D01*
X85600000Y-89480000D02*
X83100000Y-89480000D01*
X85600000Y-93980000D02*
X82600000Y-93980000D01*
X86100000Y-89980000D02*
X85600000Y-89480000D01*
X86100000Y-93480000D02*
X85600000Y-93980000D01*
X82100000Y-92480000D02*
G75*
G03*
X81600000Y-91980000I-500001J-1D01*
G01*
X81600000Y-87980000D02*
G75*
G03*
X83100000Y-89480000I1500001J1D01*
G01*
X114820000Y-45030000D02*
X114820000Y-45530000D01*
X114820000Y-49130000D02*
X114820000Y-49730000D01*
X114820000Y-49730000D02*
X119320000Y-49730000D01*
X119320000Y-45030000D02*
X114820000Y-45030000D01*
X119320000Y-45730000D02*
X119320000Y-45030000D01*
X119820000Y-50230000D02*
X119820000Y-51230000D01*
X120320000Y-51730000D02*
X119820000Y-51230000D01*
X123320000Y-47230000D02*
X120820000Y-47230000D01*
X123320000Y-51730000D02*
X120320000Y-51730000D01*
X123820000Y-47730000D02*
X123320000Y-47230000D01*
X123820000Y-51230000D02*
X123320000Y-51730000D01*
X119820000Y-50230000D02*
G75*
G03*
X119320000Y-49730000I-500001J-1D01*
G01*
X119320000Y-45730000D02*
G75*
G03*
X120820000Y-47230000I1500001J1D01*
G01*
X56625214Y-109327078D02*
X56729170Y-109816152D01*
X57477652Y-113337483D02*
X57602399Y-113924372D01*
X57602399Y-113924372D02*
X62004063Y-112988769D01*
X61026879Y-108391476D02*
X56625214Y-109327078D01*
X61172417Y-109076179D02*
X61026879Y-108391476D01*
X62597093Y-113373887D02*
X62805005Y-114352035D01*
X63398034Y-114737153D02*
X62805005Y-114352035D01*
X65396875Y-109711754D02*
X62951506Y-110231533D01*
X66332477Y-114113418D02*
X63398034Y-114737153D01*
X65989904Y-110096872D02*
X65396875Y-109711754D01*
X66717595Y-113520388D02*
X66332477Y-114113418D01*
X62597094Y-113373887D02*
G75*
G03*
X62004063Y-112988769I-489075J-103957D01*
G01*
X61172417Y-109076179D02*
G75*
G03*
X62951506Y-110231533I1467222J311869D01*
G01*
X77100000Y-69325000D02*
X77100000Y-69825000D01*
X77100000Y-73425000D02*
X77100000Y-74025000D01*
X77100000Y-74025000D02*
X81600000Y-74025000D01*
X81600000Y-69325000D02*
X77100000Y-69325000D01*
X81600000Y-70025000D02*
X81600000Y-69325000D01*
X82100000Y-74525000D02*
X82100000Y-75525000D01*
X82600000Y-76025000D02*
X82100000Y-75525000D01*
X85600000Y-71525000D02*
X83100000Y-71525000D01*
X85600000Y-76025000D02*
X82600000Y-76025000D01*
X86100000Y-72025000D02*
X85600000Y-71525000D01*
X86100000Y-75525000D02*
X85600000Y-76025000D01*
X82100000Y-74525000D02*
G75*
G03*
X81600000Y-74025000I-500001J-1D01*
G01*
X81600000Y-70025000D02*
G75*
G03*
X83100000Y-71525000I1500001J1D01*
G01*
X133820000Y-81030000D02*
X133820000Y-81530000D01*
X133820000Y-85130000D02*
X133820000Y-85730000D01*
X133820000Y-85730000D02*
X138320000Y-85730000D01*
X138320000Y-81030000D02*
X133820000Y-81030000D01*
X138320000Y-81730000D02*
X138320000Y-81030000D01*
X138820000Y-86230000D02*
X138820000Y-87230000D01*
X139320000Y-87730000D02*
X138820000Y-87230000D01*
X142320000Y-83230000D02*
X139820000Y-83230000D01*
X142320000Y-87730000D02*
X139320000Y-87730000D01*
X142820000Y-83730000D02*
X142320000Y-83230000D01*
X142820000Y-87230000D02*
X142320000Y-87730000D01*
X138820000Y-86230000D02*
G75*
G03*
X138320000Y-85730000I-500001J-1D01*
G01*
X138320000Y-81730000D02*
G75*
G03*
X139820000Y-83230000I1500001J1D01*
G01*
X95820000Y-66030000D02*
X95820000Y-66530000D01*
X95820000Y-70130000D02*
X95820000Y-70730000D01*
X95820000Y-70730000D02*
X100320000Y-70730000D01*
X100320000Y-66030000D02*
X95820000Y-66030000D01*
X100320000Y-66730000D02*
X100320000Y-66030000D01*
X100820000Y-71230000D02*
X100820000Y-72230000D01*
X101320000Y-72730000D02*
X100820000Y-72230000D01*
X104320000Y-68230000D02*
X101820000Y-68230000D01*
X104320000Y-72730000D02*
X101320000Y-72730000D01*
X104820000Y-68730000D02*
X104320000Y-68230000D01*
X104820000Y-72230000D02*
X104320000Y-72730000D01*
X100820000Y-71230000D02*
G75*
G03*
X100320000Y-70730000I-500001J-1D01*
G01*
X100320000Y-66730000D02*
G75*
G03*
X101820000Y-68230000I1500001J1D01*
G01*
X133820000Y-45030000D02*
X133820000Y-45530000D01*
X133820000Y-49130000D02*
X133820000Y-49730000D01*
X133820000Y-49730000D02*
X138320000Y-49730000D01*
X138320000Y-45030000D02*
X133820000Y-45030000D01*
X138320000Y-45730000D02*
X138320000Y-45030000D01*
X138820000Y-50230000D02*
X138820000Y-51230000D01*
X139320000Y-51730000D02*
X138820000Y-51230000D01*
X142320000Y-47230000D02*
X139820000Y-47230000D01*
X142320000Y-51730000D02*
X139320000Y-51730000D01*
X142820000Y-47730000D02*
X142320000Y-47230000D01*
X142820000Y-51230000D02*
X142320000Y-51730000D01*
X138820000Y-50230000D02*
G75*
G03*
X138320000Y-49730000I-500001J-1D01*
G01*
X138320000Y-45730000D02*
G75*
G03*
X139820000Y-47230000I1500001J1D01*
G01*
X95820000Y-102030000D02*
X95820000Y-102530000D01*
X95820000Y-106130000D02*
X95820000Y-106730000D01*
X95820000Y-106730000D02*
X100320000Y-106730000D01*
X100320000Y-102030000D02*
X95820000Y-102030000D01*
X100320000Y-102730000D02*
X100320000Y-102030000D01*
X100820000Y-107230000D02*
X100820000Y-108230000D01*
X101320000Y-108730000D02*
X100820000Y-108230000D01*
X104320000Y-104230000D02*
X101820000Y-104230000D01*
X104320000Y-108730000D02*
X101320000Y-108730000D01*
X104820000Y-104730000D02*
X104320000Y-104230000D01*
X104820000Y-108230000D02*
X104320000Y-108730000D01*
X100820000Y-107230000D02*
G75*
G03*
X100320000Y-106730000I-500001J-1D01*
G01*
X100320000Y-102730000D02*
G75*
G03*
X101820000Y-104230000I1500001J1D01*
G01*
X152820000Y-84030000D02*
X152820000Y-84530000D01*
X152820000Y-88130000D02*
X152820000Y-88730000D01*
X152820000Y-88730000D02*
X157320000Y-88730000D01*
X157320000Y-84030000D02*
X152820000Y-84030000D01*
X157320000Y-84730000D02*
X157320000Y-84030000D01*
X157820000Y-89230000D02*
X157820000Y-90230000D01*
X158320000Y-90730000D02*
X157820000Y-90230000D01*
X161320000Y-86230000D02*
X158820000Y-86230000D01*
X161320000Y-90730000D02*
X158320000Y-90730000D01*
X161820000Y-86730000D02*
X161320000Y-86230000D01*
X161820000Y-90230000D02*
X161320000Y-90730000D01*
X157820000Y-89230000D02*
G75*
G03*
X157320000Y-88730000I-500001J-1D01*
G01*
X157320000Y-84730000D02*
G75*
G03*
X158820000Y-86230000I1500001J1D01*
G01*
X77100000Y-105280000D02*
X77100000Y-105780000D01*
X77100000Y-109380000D02*
X77100000Y-109980000D01*
X77100000Y-109980000D02*
X81600000Y-109980000D01*
X81600000Y-105280000D02*
X77100000Y-105280000D01*
X81600000Y-105980000D02*
X81600000Y-105280000D01*
X82100000Y-110480000D02*
X82100000Y-111480000D01*
X82600000Y-111980000D02*
X82100000Y-111480000D01*
X85600000Y-107480000D02*
X83100000Y-107480000D01*
X85600000Y-111980000D02*
X82600000Y-111980000D01*
X86100000Y-107980000D02*
X85600000Y-107480000D01*
X86100000Y-111480000D02*
X85600000Y-111980000D01*
X82100000Y-110480000D02*
G75*
G03*
X81600000Y-109980000I-500001J-1D01*
G01*
X81600000Y-105980000D02*
G75*
G03*
X83100000Y-107480000I1500001J1D01*
G01*
D11*
X177858064Y-43623000D02*
X177403936Y-43623000D01*
X177858064Y-42153000D02*
X177403936Y-42153000D01*
X154905500Y-75706000D02*
X154905500Y-79716000D01*
X152905500Y-75706000D02*
X154905500Y-75706000D01*
X152905500Y-75706000D02*
X152905500Y-79716000D01*
X59210752Y-85571000D02*
X58688248Y-85571000D01*
X59210752Y-84101000D02*
X58688248Y-84101000D01*
X135855500Y-54624000D02*
X135855500Y-58634000D01*
X133855500Y-54624000D02*
X135855500Y-54624000D01*
X133855500Y-54624000D02*
X133855500Y-58634000D01*
X79213500Y-78882000D02*
X79213500Y-82892000D01*
X77213500Y-78882000D02*
X79213500Y-78882000D01*
X77213500Y-78882000D02*
X77213500Y-82892000D01*
X140012064Y-55561000D02*
X139557936Y-55561000D01*
X140012064Y-54091000D02*
X139557936Y-54091000D01*
X80737500Y-42940000D02*
X80737500Y-46950000D01*
X78737500Y-42940000D02*
X80737500Y-42940000D01*
X78737500Y-42940000D02*
X78737500Y-46950000D01*
X102166064Y-58101000D02*
X101711936Y-58101000D01*
X102166064Y-56631000D02*
X101711936Y-56631000D01*
X171415500Y-64786000D02*
X171415500Y-68796000D01*
X169415500Y-64786000D02*
X171415500Y-64786000D01*
X169415500Y-64786000D02*
X169415500Y-68796000D01*
X98009500Y-75452500D02*
X98009500Y-79462500D01*
X96009500Y-75452500D02*
X98009500Y-75452500D01*
X96009500Y-75452500D02*
X96009500Y-79462500D01*
X153998500Y-99653564D02*
X153998500Y-99199436D01*
X155468500Y-99653564D02*
X155468500Y-99199436D01*
X62052564Y-99795000D02*
X61598436Y-99795000D01*
X62052564Y-98325000D02*
X61598436Y-98325000D01*
X116805500Y-72658000D02*
X116805500Y-76668000D01*
X114805500Y-72658000D02*
X116805500Y-72658000D01*
X114805500Y-72658000D02*
X114805500Y-76668000D01*
X140012064Y-73595000D02*
X139557936Y-73595000D01*
X140012064Y-72125000D02*
X139557936Y-72125000D01*
X158826564Y-76681000D02*
X158372436Y-76681000D01*
X158826564Y-75211000D02*
X158372436Y-75211000D01*
X177876564Y-61695000D02*
X177422436Y-61695000D01*
X177876564Y-60225000D02*
X177422436Y-60225000D01*
X116805500Y-36718000D02*
X116805500Y-40728000D01*
X114805500Y-36718000D02*
X116805500Y-36718000D01*
X114805500Y-36718000D02*
X114805500Y-40728000D01*
X120962064Y-91629000D02*
X120507936Y-91629000D01*
X120962064Y-90159000D02*
X120507936Y-90159000D01*
X156538500Y-99653564D02*
X156538500Y-99199436D01*
X158008500Y-99653564D02*
X158008500Y-99199436D01*
X98009500Y-93744000D02*
X98009500Y-97754000D01*
X96009500Y-93744000D02*
X98009500Y-93744000D01*
X96009500Y-93744000D02*
X96009500Y-97754000D01*
X117059500Y-90692000D02*
X117059500Y-94702000D01*
X115059500Y-90692000D02*
X117059500Y-90692000D01*
X115059500Y-90692000D02*
X115059500Y-94702000D01*
X154905500Y-57672000D02*
X154905500Y-61682000D01*
X152905500Y-57672000D02*
X154905500Y-57672000D01*
X152905500Y-57672000D02*
X152905500Y-61682000D01*
X76419500Y-64404000D02*
X76419500Y-68414000D01*
X74419500Y-64404000D02*
X76419500Y-64404000D01*
X74419500Y-64404000D02*
X74419500Y-68414000D01*
X75066500Y-44148000D02*
X74276500Y-44148000D01*
X73266500Y-43548000D02*
X73266500Y-37848000D01*
X76116500Y-42298000D02*
X76116500Y-40598000D01*
X71976500Y-42098000D02*
X71766500Y-41898000D01*
X73266500Y-42098000D02*
X71976500Y-42098000D01*
X71766500Y-41898000D02*
X71766500Y-40998000D01*
X71976500Y-40798000D02*
X71766500Y-40998000D01*
X71976500Y-40798000D02*
X73266500Y-40798000D01*
X76116500Y-39298000D02*
X76116500Y-39098000D01*
X74276500Y-37248000D02*
X75066500Y-37248000D01*
X177622564Y-79475000D02*
X177168436Y-79475000D01*
X177622564Y-78005000D02*
X177168436Y-78005000D01*
X57877500Y-99964000D02*
X57877500Y-103974000D01*
X55877500Y-99964000D02*
X57877500Y-99964000D01*
X55877500Y-99964000D02*
X55877500Y-103974000D01*
X139908564Y-37527000D02*
X139454436Y-37527000D01*
X139908564Y-36057000D02*
X139454436Y-36057000D01*
X135855500Y-90692000D02*
X135855500Y-94702000D01*
X133855500Y-90692000D02*
X135855500Y-90692000D01*
X133855500Y-90692000D02*
X133855500Y-94702000D01*
X135855500Y-36590000D02*
X135855500Y-40600000D01*
X133855500Y-36590000D02*
X135855500Y-36590000D01*
X133855500Y-36590000D02*
X133855500Y-40600000D01*
X101827064Y-39813000D02*
X101372936Y-39813000D01*
X101827064Y-38343000D02*
X101372936Y-38343000D01*
X58689248Y-79021000D02*
X59211752Y-79021000D01*
X58689248Y-80491000D02*
X59211752Y-80491000D01*
X69931500Y-52797000D02*
X69931500Y-46397000D01*
X71131500Y-52797000D02*
X69931500Y-52797000D01*
X73931500Y-52797000D02*
X72731500Y-52797000D01*
X69931500Y-46397000D02*
X71131500Y-46397000D01*
X72731500Y-46397000D02*
X73931500Y-46397000D01*
X73931500Y-46397000D02*
X73931500Y-52797000D01*
X97755500Y-39638000D02*
X97755500Y-43648000D01*
X95755500Y-39638000D02*
X97755500Y-39638000D01*
X95755500Y-39638000D02*
X95755500Y-43648000D01*
X98009500Y-57546000D02*
X98009500Y-61556000D01*
X96009500Y-57546000D02*
X98009500Y-57546000D01*
X96009500Y-57546000D02*
X96009500Y-61556000D01*
X121216064Y-55561000D02*
X120761936Y-55561000D01*
X121216064Y-54091000D02*
X120761936Y-54091000D01*
X173955500Y-78754000D02*
X173955500Y-82764000D01*
X171955500Y-78754000D02*
X173955500Y-78754000D01*
X171955500Y-78754000D02*
X171955500Y-82764000D01*
X82608064Y-79691000D02*
X82153936Y-79691000D01*
X82608064Y-78221000D02*
X82153936Y-78221000D01*
X82862064Y-97725000D02*
X82407936Y-97725000D01*
X82862064Y-96255000D02*
X82407936Y-96255000D01*
X154905500Y-39638000D02*
X154905500Y-43648000D01*
X152905500Y-39638000D02*
X154905500Y-39638000D01*
X152905500Y-39638000D02*
X152905500Y-43648000D01*
X158958564Y-40575000D02*
X158504436Y-40575000D01*
X158958564Y-39105000D02*
X158504436Y-39105000D01*
X173955500Y-42686000D02*
X173955500Y-46696000D01*
X171955500Y-42686000D02*
X173955500Y-42686000D01*
X171955500Y-42686000D02*
X171955500Y-46696000D01*
X116805500Y-54624000D02*
X116805500Y-58634000D01*
X114805500Y-54624000D02*
X116805500Y-54624000D01*
X114805500Y-54624000D02*
X114805500Y-58634000D01*
X140012064Y-91375000D02*
X139557936Y-91375000D01*
X140012064Y-89905000D02*
X139557936Y-89905000D01*
X61542000Y-91424000D02*
X57532000Y-91424000D01*
X61542000Y-89424000D02*
X61542000Y-91424000D01*
X61542000Y-89424000D02*
X57532000Y-89424000D01*
X154443500Y-95036500D02*
X154443500Y-95686500D01*
X154443500Y-95036500D02*
X154443500Y-94386500D01*
X157563500Y-95036500D02*
X157563500Y-96711500D01*
X157563500Y-95036500D02*
X157563500Y-94386500D01*
X102166064Y-94677000D02*
X101711936Y-94677000D01*
X102166064Y-93207000D02*
X101711936Y-93207000D01*
X76673500Y-100218000D02*
X76673500Y-104228000D01*
X74673500Y-100218000D02*
X76673500Y-100218000D01*
X74673500Y-100218000D02*
X74673500Y-104228000D01*
X120708064Y-36803000D02*
X120253936Y-36803000D01*
X120708064Y-35333000D02*
X120253936Y-35333000D01*
X136109500Y-72786000D02*
X136109500Y-76796000D01*
X134109500Y-72786000D02*
X136109500Y-72786000D01*
X134109500Y-72786000D02*
X134109500Y-76796000D01*
X120962064Y-73595000D02*
X120507936Y-73595000D01*
X120962064Y-72125000D02*
X120507936Y-72125000D01*
X102166064Y-75881000D02*
X101711936Y-75881000D01*
X102166064Y-74411000D02*
X101711936Y-74411000D01*
X82608064Y-61403000D02*
X82153936Y-61403000D01*
X82608064Y-59933000D02*
X82153936Y-59933000D01*
X83539064Y-42645000D02*
X83084936Y-42645000D01*
X83539064Y-41175000D02*
X83084936Y-41175000D01*
X158808064Y-58609000D02*
X158353936Y-58609000D01*
X158808064Y-57139000D02*
X158353936Y-57139000D01*
%LPC*%
D12*
X154320000Y-46530000D03*
D13*
X154820000Y-50280000D03*
D14*
X159820000Y-46530000D03*
D13*
X159820000Y-52480000D03*
D15*
X165040000Y-42330000D03*
D12*
X165320000Y-46530000D03*
D16*
X163095000Y-52480000D03*
X151545000Y-50280000D03*
D12*
X116320000Y-97530000D03*
D13*
X116820000Y-101280000D03*
D14*
X121820000Y-97530000D03*
D13*
X121820000Y-103480000D03*
D15*
X127040000Y-93330000D03*
D12*
X127320000Y-97530000D03*
D16*
X125095000Y-103480000D03*
X113545000Y-101280000D03*
D12*
X135320000Y-97530000D03*
D13*
X135820000Y-101280000D03*
D14*
X140820000Y-97530000D03*
D13*
X140820000Y-103480000D03*
D15*
X146040000Y-93330000D03*
D12*
X146320000Y-97530000D03*
D16*
X144095000Y-103480000D03*
X132545000Y-101280000D03*
D17*
X168797500Y-94778000D03*
D12*
X135320000Y-61530000D03*
D13*
X135820000Y-65280000D03*
D14*
X140820000Y-61530000D03*
D13*
X140820000Y-67480000D03*
D15*
X146040000Y-57330000D03*
D12*
X146320000Y-61530000D03*
D16*
X144095000Y-67480000D03*
X132545000Y-65280000D03*
D12*
X154320000Y-64530000D03*
D13*
X154820000Y-68280000D03*
D14*
X159820000Y-64530000D03*
D13*
X159820000Y-70480000D03*
D15*
X165040000Y-60330000D03*
D12*
X165320000Y-64530000D03*
D16*
X163095000Y-70480000D03*
X151545000Y-68280000D03*
D18*
X64547500Y-73280000D03*
D19*
X62007500Y-73280000D03*
X59467500Y-73280000D03*
X56927500Y-73280000D03*
X54387500Y-73280000D03*
D12*
X78600000Y-49780000D03*
D13*
X79100000Y-53530000D03*
D14*
X84100000Y-49780000D03*
D13*
X84100000Y-55730000D03*
D15*
X89320000Y-45580000D03*
D12*
X89600000Y-49780000D03*
D16*
X87375000Y-55730000D03*
X75825000Y-53530000D03*
D20*
X53697500Y-89630000D03*
D21*
X53697500Y-79520000D03*
X53697500Y-82060000D03*
X53697500Y-84600000D03*
X53697500Y-87140000D03*
X52472500Y-77130000D03*
X54322500Y-77130000D03*
D12*
X173320000Y-85530000D03*
D13*
X173820000Y-89280000D03*
D14*
X178820000Y-85530000D03*
D13*
X178820000Y-91480000D03*
D15*
X184040000Y-81330000D03*
D12*
X184320000Y-85530000D03*
D16*
X182095000Y-91480000D03*
X170545000Y-89280000D03*
D12*
X116320000Y-61530000D03*
D13*
X116820000Y-65280000D03*
D14*
X121820000Y-61530000D03*
D13*
X121820000Y-67480000D03*
D15*
X127040000Y-57330000D03*
D12*
X127320000Y-61530000D03*
D16*
X125095000Y-67480000D03*
X113545000Y-65280000D03*
D17*
X74747500Y-94784000D03*
D12*
X97320000Y-82530000D03*
D13*
X97820000Y-86280000D03*
D14*
X102820000Y-82530000D03*
D13*
X102820000Y-88480000D03*
D15*
X108040000Y-78330000D03*
D12*
X108320000Y-82530000D03*
D16*
X106095000Y-88480000D03*
X94545000Y-86280000D03*
D12*
X116320000Y-79530000D03*
D13*
X116820000Y-83280000D03*
D14*
X121820000Y-79530000D03*
D13*
X121820000Y-85480000D03*
D15*
X127040000Y-75330000D03*
D12*
X127320000Y-79530000D03*
D16*
X125095000Y-85480000D03*
X113545000Y-83280000D03*
D17*
X74109500Y-58840000D03*
D12*
X97320000Y-46530000D03*
D13*
X97820000Y-50280000D03*
D14*
X102820000Y-46530000D03*
D13*
X102820000Y-52480000D03*
D15*
X108040000Y-42330000D03*
D12*
X108320000Y-46530000D03*
D16*
X106095000Y-52480000D03*
X94545000Y-50280000D03*
D17*
X170032500Y-58572000D03*
D22*
X51847500Y-40170000D03*
D23*
X51847500Y-42710000D03*
X51847500Y-45250000D03*
X51847500Y-47790000D03*
X51847500Y-50330000D03*
X51847500Y-52870000D03*
X51847500Y-55410000D03*
X51847500Y-57950000D03*
X51847500Y-60490000D03*
X51847500Y-63030000D03*
X51847500Y-65570000D03*
X51847500Y-68110000D03*
X67087500Y-68110000D03*
X67087500Y-65570000D03*
X67087500Y-63030000D03*
X67087500Y-60490000D03*
X67087500Y-57950000D03*
X67087500Y-55410000D03*
X67087500Y-52870000D03*
X67087500Y-50330000D03*
X67087500Y-47790000D03*
X67087500Y-45250000D03*
X67087500Y-42710000D03*
X67087500Y-40170000D03*
D12*
X173320000Y-67530000D03*
D13*
X173820000Y-71280000D03*
D14*
X178820000Y-67530000D03*
D13*
X178820000Y-73480000D03*
D15*
X184040000Y-63330000D03*
D12*
X184320000Y-67530000D03*
D16*
X182095000Y-73480000D03*
X170545000Y-71280000D03*
D12*
X173320000Y-49530000D03*
D13*
X173820000Y-53280000D03*
D14*
X178820000Y-49530000D03*
D13*
X178820000Y-55480000D03*
D15*
X184040000Y-45330000D03*
D12*
X184320000Y-49530000D03*
D16*
X182095000Y-55480000D03*
X170545000Y-53280000D03*
D17*
X130962000Y-70526000D03*
D12*
X78600000Y-85780000D03*
D13*
X79100000Y-89530000D03*
D14*
X84100000Y-85780000D03*
D13*
X84100000Y-91730000D03*
D15*
X89320000Y-81580000D03*
D12*
X89600000Y-85780000D03*
D16*
X87375000Y-91730000D03*
X75825000Y-89530000D03*
D12*
X116320000Y-43530000D03*
D13*
X116820000Y-47280000D03*
D14*
X121820000Y-43530000D03*
D13*
X121820000Y-49480000D03*
D15*
X127040000Y-39330000D03*
D12*
X127320000Y-43530000D03*
D16*
X125095000Y-49480000D03*
X113545000Y-47280000D03*
D12*
X57780568Y-107547989D03*
D13*
X59049311Y-111112087D03*
D14*
X63160380Y-106404475D03*
D13*
X64397455Y-112224453D03*
D15*
X67393081Y-101210956D03*
D12*
X68540192Y-105260961D03*
D24*
X67600888Y-111543542D03*
X55845877Y-111792998D03*
D12*
X78600000Y-67825000D03*
D13*
X79100000Y-71575000D03*
D14*
X84100000Y-67825000D03*
D13*
X84100000Y-73775000D03*
D15*
X89320000Y-63625000D03*
D12*
X89600000Y-67825000D03*
D16*
X87375000Y-73775000D03*
X75825000Y-71575000D03*
D12*
X135320000Y-79530000D03*
D13*
X135820000Y-83280000D03*
D14*
X140820000Y-79530000D03*
D13*
X140820000Y-85480000D03*
D15*
X146040000Y-75330000D03*
D12*
X146320000Y-79530000D03*
D16*
X144095000Y-85480000D03*
X132545000Y-83280000D03*
D25*
X75673500Y-47460000D03*
D26*
X75673500Y-49460000D03*
D12*
X97320000Y-64530000D03*
D13*
X97820000Y-68280000D03*
D14*
X102820000Y-64530000D03*
D13*
X102820000Y-70480000D03*
D15*
X108040000Y-60330000D03*
D12*
X108320000Y-64530000D03*
D16*
X106095000Y-70480000D03*
X94545000Y-68280000D03*
D12*
X135320000Y-43530000D03*
D13*
X135820000Y-47280000D03*
D14*
X140820000Y-43530000D03*
D13*
X140820000Y-49480000D03*
D15*
X146040000Y-39330000D03*
D12*
X146320000Y-43530000D03*
D16*
X144095000Y-49480000D03*
X132545000Y-47280000D03*
D12*
X97320000Y-100530000D03*
D13*
X97820000Y-104280000D03*
D14*
X102820000Y-100530000D03*
D13*
X102820000Y-106480000D03*
D15*
X108040000Y-96330000D03*
D12*
X108320000Y-100530000D03*
D16*
X106095000Y-106480000D03*
X94545000Y-104280000D03*
D12*
X154320000Y-82530000D03*
D13*
X154820000Y-86280000D03*
D14*
X159820000Y-82530000D03*
D13*
X159820000Y-88480000D03*
D15*
X165040000Y-78330000D03*
D12*
X165320000Y-82530000D03*
D16*
X163095000Y-88480000D03*
X151545000Y-86280000D03*
D12*
X78600000Y-103780000D03*
D13*
X79100000Y-107530000D03*
D14*
X84100000Y-103780000D03*
D13*
X84100000Y-109730000D03*
D15*
X89320000Y-99580000D03*
D12*
X89600000Y-103780000D03*
D16*
X87375000Y-109730000D03*
X75825000Y-107530000D03*
D27*
X178543500Y-42888000D03*
X176718500Y-42888000D03*
D28*
X153905500Y-76416000D03*
X153905500Y-79716000D03*
D29*
X59987000Y-84836000D03*
X57912000Y-84836000D03*
D28*
X134855500Y-55334000D03*
X134855500Y-58634000D03*
X78213500Y-79592000D03*
X78213500Y-82892000D03*
D27*
X140697500Y-54826000D03*
X138872500Y-54826000D03*
D28*
X79737500Y-43650000D03*
X79737500Y-46950000D03*
D27*
X102851500Y-57366000D03*
X101026500Y-57366000D03*
D28*
X170415500Y-65496000D03*
X170415500Y-68796000D03*
X97009500Y-76162500D03*
X97009500Y-79462500D03*
D30*
X154733500Y-100339000D03*
X154733500Y-98514000D03*
D27*
X62738000Y-99060000D03*
X60913000Y-99060000D03*
D28*
X115805500Y-73368000D03*
X115805500Y-76668000D03*
D27*
X140697500Y-72860000D03*
X138872500Y-72860000D03*
X159512000Y-75946000D03*
X157687000Y-75946000D03*
X178562000Y-60960000D03*
X176737000Y-60960000D03*
D28*
X115805500Y-37428000D03*
X115805500Y-40728000D03*
D27*
X121647500Y-90894000D03*
X119822500Y-90894000D03*
D30*
X157273500Y-100339000D03*
X157273500Y-98514000D03*
D28*
X97009500Y-94454000D03*
X97009500Y-97754000D03*
X116059500Y-91402000D03*
X116059500Y-94702000D03*
X153905500Y-58382000D03*
X153905500Y-61682000D03*
X75419500Y-65114000D03*
X75419500Y-68414000D03*
D31*
X73566500Y-44348000D03*
X75776500Y-44348000D03*
D32*
X74666500Y-42198000D03*
X74666500Y-39198000D03*
D31*
X73566500Y-37048000D03*
X75776500Y-37048000D03*
D33*
X76426500Y-42948000D03*
X76426500Y-39948000D03*
X76426500Y-38448000D03*
D27*
X178308000Y-78740000D03*
X176483000Y-78740000D03*
D28*
X56877500Y-100674000D03*
X56877500Y-103974000D03*
D27*
X140594000Y-36792000D03*
X138769000Y-36792000D03*
D28*
X134855500Y-91402000D03*
X134855500Y-94702000D03*
X134855500Y-37300000D03*
X134855500Y-40600000D03*
D27*
X102512500Y-39078000D03*
X100687500Y-39078000D03*
D34*
X57913000Y-79756000D03*
X59988000Y-79756000D03*
D35*
X71931500Y-53472000D03*
X71931500Y-45722000D03*
D28*
X96755500Y-40348000D03*
X96755500Y-43648000D03*
X97009500Y-58256000D03*
X97009500Y-61556000D03*
D27*
X121901500Y-54826000D03*
X120076500Y-54826000D03*
D28*
X172955500Y-79464000D03*
X172955500Y-82764000D03*
D27*
X83293500Y-78956000D03*
X81468500Y-78956000D03*
X83547500Y-96990000D03*
X81722500Y-96990000D03*
D28*
X153905500Y-40348000D03*
X153905500Y-43648000D03*
D27*
X159644000Y-39840000D03*
X157819000Y-39840000D03*
D28*
X172955500Y-43396000D03*
X172955500Y-46696000D03*
X115805500Y-55334000D03*
X115805500Y-58634000D03*
D27*
X140697500Y-90640000D03*
X138872500Y-90640000D03*
D36*
X60832000Y-90424000D03*
X57532000Y-90424000D03*
D37*
X156953500Y-95974000D03*
X155053500Y-95974000D03*
X156003500Y-94099000D03*
D27*
X102851500Y-93942000D03*
X101026500Y-93942000D03*
D28*
X75673500Y-100928000D03*
X75673500Y-104228000D03*
D27*
X121393500Y-36068000D03*
X119568500Y-36068000D03*
D28*
X135109500Y-73496000D03*
X135109500Y-76796000D03*
D27*
X121647500Y-72860000D03*
X119822500Y-72860000D03*
X102851500Y-75146000D03*
X101026500Y-75146000D03*
X83293500Y-60668000D03*
X81468500Y-60668000D03*
X84224500Y-41910000D03*
X82399500Y-41910000D03*
X159493500Y-57874000D03*
X157668500Y-57874000D03*
%LPD*%
M02*
