%TF.GenerationSoftware,KiCad,Pcbnew,7.0.5-0*%
%TF.CreationDate,2023-09-10T21:20:09+09:30*%
%TF.ProjectId,Rolio,526f6c69-6f2e-46b6-9963-61645f706362,rev?*%
%TF.SameCoordinates,Original*%
%TF.FileFunction,Legend,Top*%
%TF.FilePolarity,Positive*%
%FSLAX46Y46*%
G04 Gerber Fmt 4.6, Leading zero omitted, Abs format (unit mm)*
G04 Created by KiCad (PCBNEW 7.0.5-0) date 2023-09-10 21:20:09*
%MOMM*%
%LPD*%
G01*
G04 APERTURE LIST*
G04 Aperture macros list*
%AMRoundRect*
0 Rectangle with rounded corners*
0 $1 Rounding radius*
0 $2 $3 $4 $5 $6 $7 $8 $9 X,Y pos of 4 corners*
0 Add a 4 corners polygon primitive as box body*
4,1,4,$2,$3,$4,$5,$6,$7,$8,$9,$2,$3,0*
0 Add four circle primitives for the rounded corners*
1,1,$1+$1,$2,$3*
1,1,$1+$1,$4,$5*
1,1,$1+$1,$6,$7*
1,1,$1+$1,$8,$9*
0 Add four rect primitives between the rounded corners*
20,1,$1+$1,$2,$3,$4,$5,0*
20,1,$1+$1,$4,$5,$6,$7,0*
20,1,$1+$1,$6,$7,$8,$9,0*
20,1,$1+$1,$8,$9,$2,$3,0*%
G04 Aperture macros list end*
%ADD10C,0.150000*%
%ADD11C,0.187500*%
%ADD12C,0.100000*%
%ADD13C,0.120000*%
%ADD14C,0.200000*%
%ADD15C,1.701800*%
%ADD16C,3.000000*%
%ADD17C,3.429000*%
%ADD18C,0.990600*%
%ADD19C,4.300000*%
%ADD20RoundRect,0.243750X-0.243750X-0.456250X0.243750X-0.456250X0.243750X0.456250X-0.243750X0.456250X0*%
%ADD21R,1.700000X1.700000*%
%ADD22O,1.700000X1.700000*%
%ADD23C,1.500000*%
%ADD24C,1.600000*%
%ADD25R,1.600000X1.600000*%
%ADD26O,1.600000X1.600000*%
%ADD27R,1.350000X1.350000*%
%ADD28O,1.350000X1.350000*%
%ADD29RoundRect,0.250000X-0.325000X-0.450000X0.325000X-0.450000X0.325000X0.450000X-0.325000X0.450000X0*%
%ADD30RoundRect,0.243750X-0.143564X-0.496958X0.333283X-0.395601X0.143564X0.496958X-0.333283X0.395601X0*%
%ADD31C,0.900000*%
G04 APERTURE END LIST*
D10*
X156099237Y-95780009D02*
X156242094Y-95827628D01*
X156242094Y-95827628D02*
X156289713Y-95875247D01*
X156289713Y-95875247D02*
X156337332Y-95970485D01*
X156337332Y-95970485D02*
X156337332Y-96113342D01*
X156337332Y-96113342D02*
X156289713Y-96208580D01*
X156289713Y-96208580D02*
X156242094Y-96256200D01*
X156242094Y-96256200D02*
X156146856Y-96303819D01*
X156146856Y-96303819D02*
X155765904Y-96303819D01*
X155765904Y-96303819D02*
X155765904Y-95303819D01*
X155765904Y-95303819D02*
X156099237Y-95303819D01*
X156099237Y-95303819D02*
X156194475Y-95351438D01*
X156194475Y-95351438D02*
X156242094Y-95399057D01*
X156242094Y-95399057D02*
X156289713Y-95494295D01*
X156289713Y-95494295D02*
X156289713Y-95589533D01*
X156289713Y-95589533D02*
X156242094Y-95684771D01*
X156242094Y-95684771D02*
X156194475Y-95732390D01*
X156194475Y-95732390D02*
X156099237Y-95780009D01*
X156099237Y-95780009D02*
X155765904Y-95780009D01*
X157194475Y-96303819D02*
X157194475Y-95780009D01*
X157194475Y-95780009D02*
X157146856Y-95684771D01*
X157146856Y-95684771D02*
X157051618Y-95637152D01*
X157051618Y-95637152D02*
X156861142Y-95637152D01*
X156861142Y-95637152D02*
X156765904Y-95684771D01*
X157194475Y-96256200D02*
X157099237Y-96303819D01*
X157099237Y-96303819D02*
X156861142Y-96303819D01*
X156861142Y-96303819D02*
X156765904Y-96256200D01*
X156765904Y-96256200D02*
X156718285Y-96160961D01*
X156718285Y-96160961D02*
X156718285Y-96065723D01*
X156718285Y-96065723D02*
X156765904Y-95970485D01*
X156765904Y-95970485D02*
X156861142Y-95922866D01*
X156861142Y-95922866D02*
X157099237Y-95922866D01*
X157099237Y-95922866D02*
X157194475Y-95875247D01*
X158099237Y-96256200D02*
X158003999Y-96303819D01*
X158003999Y-96303819D02*
X157813523Y-96303819D01*
X157813523Y-96303819D02*
X157718285Y-96256200D01*
X157718285Y-96256200D02*
X157670666Y-96208580D01*
X157670666Y-96208580D02*
X157623047Y-96113342D01*
X157623047Y-96113342D02*
X157623047Y-95827628D01*
X157623047Y-95827628D02*
X157670666Y-95732390D01*
X157670666Y-95732390D02*
X157718285Y-95684771D01*
X157718285Y-95684771D02*
X157813523Y-95637152D01*
X157813523Y-95637152D02*
X158003999Y-95637152D01*
X158003999Y-95637152D02*
X158099237Y-95684771D01*
X158527809Y-96303819D02*
X158527809Y-95303819D01*
X158623047Y-95922866D02*
X158908761Y-96303819D01*
X158908761Y-95637152D02*
X158527809Y-96018104D01*
X159480190Y-96303819D02*
X159384952Y-96256200D01*
X159384952Y-96256200D02*
X159337333Y-96160961D01*
X159337333Y-96160961D02*
X159337333Y-95303819D01*
X159861143Y-96303819D02*
X159861143Y-95637152D01*
X159861143Y-95303819D02*
X159813524Y-95351438D01*
X159813524Y-95351438D02*
X159861143Y-95399057D01*
X159861143Y-95399057D02*
X159908762Y-95351438D01*
X159908762Y-95351438D02*
X159861143Y-95303819D01*
X159861143Y-95303819D02*
X159861143Y-95399057D01*
X160765904Y-95637152D02*
X160765904Y-96446676D01*
X160765904Y-96446676D02*
X160718285Y-96541914D01*
X160718285Y-96541914D02*
X160670666Y-96589533D01*
X160670666Y-96589533D02*
X160575428Y-96637152D01*
X160575428Y-96637152D02*
X160432571Y-96637152D01*
X160432571Y-96637152D02*
X160337333Y-96589533D01*
X160765904Y-96256200D02*
X160670666Y-96303819D01*
X160670666Y-96303819D02*
X160480190Y-96303819D01*
X160480190Y-96303819D02*
X160384952Y-96256200D01*
X160384952Y-96256200D02*
X160337333Y-96208580D01*
X160337333Y-96208580D02*
X160289714Y-96113342D01*
X160289714Y-96113342D02*
X160289714Y-95827628D01*
X160289714Y-95827628D02*
X160337333Y-95732390D01*
X160337333Y-95732390D02*
X160384952Y-95684771D01*
X160384952Y-95684771D02*
X160480190Y-95637152D01*
X160480190Y-95637152D02*
X160670666Y-95637152D01*
X160670666Y-95637152D02*
X160765904Y-95684771D01*
X161242095Y-96303819D02*
X161242095Y-95303819D01*
X161670666Y-96303819D02*
X161670666Y-95780009D01*
X161670666Y-95780009D02*
X161623047Y-95684771D01*
X161623047Y-95684771D02*
X161527809Y-95637152D01*
X161527809Y-95637152D02*
X161384952Y-95637152D01*
X161384952Y-95637152D02*
X161289714Y-95684771D01*
X161289714Y-95684771D02*
X161242095Y-95732390D01*
X162004000Y-95637152D02*
X162384952Y-95637152D01*
X162146857Y-95303819D02*
X162146857Y-96160961D01*
X162146857Y-96160961D02*
X162194476Y-96256200D01*
X162194476Y-96256200D02*
X162289714Y-96303819D01*
X162289714Y-96303819D02*
X162384952Y-96303819D01*
X157599238Y-96913819D02*
X158170666Y-96913819D01*
X157884952Y-97913819D02*
X157884952Y-96913819D01*
X158884952Y-97866200D02*
X158789714Y-97913819D01*
X158789714Y-97913819D02*
X158599238Y-97913819D01*
X158599238Y-97913819D02*
X158504000Y-97866200D01*
X158504000Y-97866200D02*
X158456381Y-97770961D01*
X158456381Y-97770961D02*
X158456381Y-97390009D01*
X158456381Y-97390009D02*
X158504000Y-97294771D01*
X158504000Y-97294771D02*
X158599238Y-97247152D01*
X158599238Y-97247152D02*
X158789714Y-97247152D01*
X158789714Y-97247152D02*
X158884952Y-97294771D01*
X158884952Y-97294771D02*
X158932571Y-97390009D01*
X158932571Y-97390009D02*
X158932571Y-97485247D01*
X158932571Y-97485247D02*
X158456381Y-97580485D01*
X159313524Y-97866200D02*
X159408762Y-97913819D01*
X159408762Y-97913819D02*
X159599238Y-97913819D01*
X159599238Y-97913819D02*
X159694476Y-97866200D01*
X159694476Y-97866200D02*
X159742095Y-97770961D01*
X159742095Y-97770961D02*
X159742095Y-97723342D01*
X159742095Y-97723342D02*
X159694476Y-97628104D01*
X159694476Y-97628104D02*
X159599238Y-97580485D01*
X159599238Y-97580485D02*
X159456381Y-97580485D01*
X159456381Y-97580485D02*
X159361143Y-97532866D01*
X159361143Y-97532866D02*
X159313524Y-97437628D01*
X159313524Y-97437628D02*
X159313524Y-97390009D01*
X159313524Y-97390009D02*
X159361143Y-97294771D01*
X159361143Y-97294771D02*
X159456381Y-97247152D01*
X159456381Y-97247152D02*
X159599238Y-97247152D01*
X159599238Y-97247152D02*
X159694476Y-97294771D01*
X160027810Y-97247152D02*
X160408762Y-97247152D01*
X160170667Y-96913819D02*
X160170667Y-97770961D01*
X160170667Y-97770961D02*
X160218286Y-97866200D01*
X160218286Y-97866200D02*
X160313524Y-97913819D01*
X160313524Y-97913819D02*
X160408762Y-97913819D01*
X74758779Y-45372866D02*
X75520684Y-45372866D01*
X75139731Y-45753819D02*
X75139731Y-44991914D01*
X74758779Y-51812866D02*
X75520684Y-51812866D01*
D11*
X113362783Y-35415630D02*
X112962783Y-34891821D01*
X112677069Y-35415630D02*
X112677069Y-34315630D01*
X112677069Y-34315630D02*
X113134212Y-34315630D01*
X113134212Y-34315630D02*
X113248497Y-34368011D01*
X113248497Y-34368011D02*
X113305640Y-34420392D01*
X113305640Y-34420392D02*
X113362783Y-34525154D01*
X113362783Y-34525154D02*
X113362783Y-34682297D01*
X113362783Y-34682297D02*
X113305640Y-34787059D01*
X113305640Y-34787059D02*
X113248497Y-34839440D01*
X113248497Y-34839440D02*
X113134212Y-34891821D01*
X113134212Y-34891821D02*
X112677069Y-34891821D01*
X114048497Y-35415630D02*
X113934212Y-35363250D01*
X113934212Y-35363250D02*
X113877069Y-35310869D01*
X113877069Y-35310869D02*
X113819926Y-35206107D01*
X113819926Y-35206107D02*
X113819926Y-34891821D01*
X113819926Y-34891821D02*
X113877069Y-34787059D01*
X113877069Y-34787059D02*
X113934212Y-34734678D01*
X113934212Y-34734678D02*
X114048497Y-34682297D01*
X114048497Y-34682297D02*
X114219926Y-34682297D01*
X114219926Y-34682297D02*
X114334212Y-34734678D01*
X114334212Y-34734678D02*
X114391355Y-34787059D01*
X114391355Y-34787059D02*
X114448497Y-34891821D01*
X114448497Y-34891821D02*
X114448497Y-35206107D01*
X114448497Y-35206107D02*
X114391355Y-35310869D01*
X114391355Y-35310869D02*
X114334212Y-35363250D01*
X114334212Y-35363250D02*
X114219926Y-35415630D01*
X114219926Y-35415630D02*
X114048497Y-35415630D01*
X115134211Y-35415630D02*
X115019926Y-35363250D01*
X115019926Y-35363250D02*
X114962783Y-35258488D01*
X114962783Y-35258488D02*
X114962783Y-34315630D01*
X115591354Y-35415630D02*
X115591354Y-34682297D01*
X115591354Y-34315630D02*
X115534211Y-34368011D01*
X115534211Y-34368011D02*
X115591354Y-34420392D01*
X115591354Y-34420392D02*
X115648497Y-34368011D01*
X115648497Y-34368011D02*
X115591354Y-34315630D01*
X115591354Y-34315630D02*
X115591354Y-34420392D01*
X116334211Y-35415630D02*
X116219926Y-35363250D01*
X116219926Y-35363250D02*
X116162783Y-35310869D01*
X116162783Y-35310869D02*
X116105640Y-35206107D01*
X116105640Y-35206107D02*
X116105640Y-34891821D01*
X116105640Y-34891821D02*
X116162783Y-34787059D01*
X116162783Y-34787059D02*
X116219926Y-34734678D01*
X116219926Y-34734678D02*
X116334211Y-34682297D01*
X116334211Y-34682297D02*
X116505640Y-34682297D01*
X116505640Y-34682297D02*
X116619926Y-34734678D01*
X116619926Y-34734678D02*
X116677069Y-34787059D01*
X116677069Y-34787059D02*
X116734211Y-34891821D01*
X116734211Y-34891821D02*
X116734211Y-35206107D01*
X116734211Y-35206107D02*
X116677069Y-35310869D01*
X116677069Y-35310869D02*
X116619926Y-35363250D01*
X116619926Y-35363250D02*
X116505640Y-35415630D01*
X116505640Y-35415630D02*
X116334211Y-35415630D01*
X117991354Y-34315630D02*
X118391354Y-35415630D01*
X118391354Y-35415630D02*
X118791354Y-34315630D01*
X119819925Y-35415630D02*
X119134211Y-35415630D01*
X119477068Y-35415630D02*
X119477068Y-34315630D01*
X119477068Y-34315630D02*
X119362782Y-34472773D01*
X119362782Y-34472773D02*
X119248497Y-34577535D01*
X119248497Y-34577535D02*
X119134211Y-34629916D01*
X120334211Y-35310869D02*
X120391354Y-35363250D01*
X120391354Y-35363250D02*
X120334211Y-35415630D01*
X120334211Y-35415630D02*
X120277068Y-35363250D01*
X120277068Y-35363250D02*
X120334211Y-35310869D01*
X120334211Y-35310869D02*
X120334211Y-35415630D01*
X121134211Y-34315630D02*
X121248497Y-34315630D01*
X121248497Y-34315630D02*
X121362783Y-34368011D01*
X121362783Y-34368011D02*
X121419926Y-34420392D01*
X121419926Y-34420392D02*
X121477068Y-34525154D01*
X121477068Y-34525154D02*
X121534211Y-34734678D01*
X121534211Y-34734678D02*
X121534211Y-34996583D01*
X121534211Y-34996583D02*
X121477068Y-35206107D01*
X121477068Y-35206107D02*
X121419926Y-35310869D01*
X121419926Y-35310869D02*
X121362783Y-35363250D01*
X121362783Y-35363250D02*
X121248497Y-35415630D01*
X121248497Y-35415630D02*
X121134211Y-35415630D01*
X121134211Y-35415630D02*
X121019926Y-35363250D01*
X121019926Y-35363250D02*
X120962783Y-35310869D01*
X120962783Y-35310869D02*
X120905640Y-35206107D01*
X120905640Y-35206107D02*
X120848497Y-34996583D01*
X120848497Y-34996583D02*
X120848497Y-34734678D01*
X120848497Y-34734678D02*
X120905640Y-34525154D01*
X120905640Y-34525154D02*
X120962783Y-34420392D01*
X120962783Y-34420392D02*
X121019926Y-34368011D01*
X121019926Y-34368011D02*
X121134211Y-34315630D01*
X122677068Y-35415630D02*
X121991354Y-35415630D01*
X122334211Y-35415630D02*
X122334211Y-34315630D01*
X122334211Y-34315630D02*
X122219925Y-34472773D01*
X122219925Y-34472773D02*
X122105640Y-34577535D01*
X122105640Y-34577535D02*
X121991354Y-34629916D01*
X124448497Y-35834678D02*
X124391354Y-35782297D01*
X124391354Y-35782297D02*
X124277068Y-35625154D01*
X124277068Y-35625154D02*
X124219926Y-35520392D01*
X124219926Y-35520392D02*
X124162783Y-35363250D01*
X124162783Y-35363250D02*
X124105640Y-35101345D01*
X124105640Y-35101345D02*
X124105640Y-34891821D01*
X124105640Y-34891821D02*
X124162783Y-34629916D01*
X124162783Y-34629916D02*
X124219926Y-34472773D01*
X124219926Y-34472773D02*
X124277068Y-34368011D01*
X124277068Y-34368011D02*
X124391354Y-34210869D01*
X124391354Y-34210869D02*
X124448497Y-34158488D01*
X125591354Y-35415630D02*
X125191354Y-34891821D01*
X124905640Y-35415630D02*
X124905640Y-34315630D01*
X124905640Y-34315630D02*
X125362783Y-34315630D01*
X125362783Y-34315630D02*
X125477068Y-34368011D01*
X125477068Y-34368011D02*
X125534211Y-34420392D01*
X125534211Y-34420392D02*
X125591354Y-34525154D01*
X125591354Y-34525154D02*
X125591354Y-34682297D01*
X125591354Y-34682297D02*
X125534211Y-34787059D01*
X125534211Y-34787059D02*
X125477068Y-34839440D01*
X125477068Y-34839440D02*
X125362783Y-34891821D01*
X125362783Y-34891821D02*
X124905640Y-34891821D01*
X126105640Y-35415630D02*
X126105640Y-34682297D01*
X126105640Y-34315630D02*
X126048497Y-34368011D01*
X126048497Y-34368011D02*
X126105640Y-34420392D01*
X126105640Y-34420392D02*
X126162783Y-34368011D01*
X126162783Y-34368011D02*
X126105640Y-34315630D01*
X126105640Y-34315630D02*
X126105640Y-34420392D01*
X127191355Y-34682297D02*
X127191355Y-35572773D01*
X127191355Y-35572773D02*
X127134212Y-35677535D01*
X127134212Y-35677535D02*
X127077069Y-35729916D01*
X127077069Y-35729916D02*
X126962783Y-35782297D01*
X126962783Y-35782297D02*
X126791355Y-35782297D01*
X126791355Y-35782297D02*
X126677069Y-35729916D01*
X127191355Y-35363250D02*
X127077069Y-35415630D01*
X127077069Y-35415630D02*
X126848497Y-35415630D01*
X126848497Y-35415630D02*
X126734212Y-35363250D01*
X126734212Y-35363250D02*
X126677069Y-35310869D01*
X126677069Y-35310869D02*
X126619926Y-35206107D01*
X126619926Y-35206107D02*
X126619926Y-34891821D01*
X126619926Y-34891821D02*
X126677069Y-34787059D01*
X126677069Y-34787059D02*
X126734212Y-34734678D01*
X126734212Y-34734678D02*
X126848497Y-34682297D01*
X126848497Y-34682297D02*
X127077069Y-34682297D01*
X127077069Y-34682297D02*
X127191355Y-34734678D01*
X127762783Y-35415630D02*
X127762783Y-34315630D01*
X128277069Y-35415630D02*
X128277069Y-34839440D01*
X128277069Y-34839440D02*
X128219926Y-34734678D01*
X128219926Y-34734678D02*
X128105640Y-34682297D01*
X128105640Y-34682297D02*
X127934211Y-34682297D01*
X127934211Y-34682297D02*
X127819926Y-34734678D01*
X127819926Y-34734678D02*
X127762783Y-34787059D01*
X128677068Y-34682297D02*
X129134211Y-34682297D01*
X128848497Y-34315630D02*
X128848497Y-35258488D01*
X128848497Y-35258488D02*
X128905640Y-35363250D01*
X128905640Y-35363250D02*
X129019925Y-35415630D01*
X129019925Y-35415630D02*
X129134211Y-35415630D01*
X129419925Y-35834678D02*
X129477068Y-35782297D01*
X129477068Y-35782297D02*
X129591354Y-35625154D01*
X129591354Y-35625154D02*
X129648497Y-35520392D01*
X129648497Y-35520392D02*
X129705639Y-35363250D01*
X129705639Y-35363250D02*
X129762782Y-35101345D01*
X129762782Y-35101345D02*
X129762782Y-34891821D01*
X129762782Y-34891821D02*
X129705639Y-34629916D01*
X129705639Y-34629916D02*
X129648497Y-34472773D01*
X129648497Y-34472773D02*
X129591354Y-34368011D01*
X129591354Y-34368011D02*
X129477068Y-34210869D01*
X129477068Y-34210869D02*
X129419925Y-34158488D01*
X131248497Y-34996583D02*
X132162783Y-34996583D01*
X133648497Y-35415630D02*
X133648497Y-34315630D01*
X133648497Y-34315630D02*
X134048497Y-35101345D01*
X134048497Y-35101345D02*
X134448497Y-34315630D01*
X134448497Y-34315630D02*
X134448497Y-35415630D01*
X135019926Y-35415630D02*
X135019926Y-34682297D01*
X135019926Y-34315630D02*
X134962783Y-34368011D01*
X134962783Y-34368011D02*
X135019926Y-34420392D01*
X135019926Y-34420392D02*
X135077069Y-34368011D01*
X135077069Y-34368011D02*
X135019926Y-34315630D01*
X135019926Y-34315630D02*
X135019926Y-34420392D01*
X136105641Y-35363250D02*
X135991355Y-35415630D01*
X135991355Y-35415630D02*
X135762783Y-35415630D01*
X135762783Y-35415630D02*
X135648498Y-35363250D01*
X135648498Y-35363250D02*
X135591355Y-35310869D01*
X135591355Y-35310869D02*
X135534212Y-35206107D01*
X135534212Y-35206107D02*
X135534212Y-34891821D01*
X135534212Y-34891821D02*
X135591355Y-34787059D01*
X135591355Y-34787059D02*
X135648498Y-34734678D01*
X135648498Y-34734678D02*
X135762783Y-34682297D01*
X135762783Y-34682297D02*
X135991355Y-34682297D01*
X135991355Y-34682297D02*
X136105641Y-34734678D01*
X136619926Y-35415630D02*
X136619926Y-34315630D01*
X136734212Y-34996583D02*
X137077069Y-35415630D01*
X137077069Y-34682297D02*
X136619926Y-35101345D01*
X137591355Y-35415630D02*
X137591355Y-34682297D01*
X137591355Y-34315630D02*
X137534212Y-34368011D01*
X137534212Y-34368011D02*
X137591355Y-34420392D01*
X137591355Y-34420392D02*
X137648498Y-34368011D01*
X137648498Y-34368011D02*
X137591355Y-34315630D01*
X137591355Y-34315630D02*
X137591355Y-34420392D01*
X138677070Y-34682297D02*
X138677070Y-35415630D01*
X138162784Y-34682297D02*
X138162784Y-35258488D01*
X138162784Y-35258488D02*
X138219927Y-35363250D01*
X138219927Y-35363250D02*
X138334212Y-35415630D01*
X138334212Y-35415630D02*
X138505641Y-35415630D01*
X138505641Y-35415630D02*
X138619927Y-35363250D01*
X138619927Y-35363250D02*
X138677070Y-35310869D01*
X139191355Y-35363250D02*
X139305641Y-35415630D01*
X139305641Y-35415630D02*
X139534212Y-35415630D01*
X139534212Y-35415630D02*
X139648498Y-35363250D01*
X139648498Y-35363250D02*
X139705641Y-35258488D01*
X139705641Y-35258488D02*
X139705641Y-35206107D01*
X139705641Y-35206107D02*
X139648498Y-35101345D01*
X139648498Y-35101345D02*
X139534212Y-35048964D01*
X139534212Y-35048964D02*
X139362784Y-35048964D01*
X139362784Y-35048964D02*
X139248498Y-34996583D01*
X139248498Y-34996583D02*
X139191355Y-34891821D01*
X139191355Y-34891821D02*
X139191355Y-34839440D01*
X139191355Y-34839440D02*
X139248498Y-34734678D01*
X139248498Y-34734678D02*
X139362784Y-34682297D01*
X139362784Y-34682297D02*
X139534212Y-34682297D01*
X139534212Y-34682297D02*
X139648498Y-34734678D01*
X140219927Y-35415630D02*
X140219927Y-34315630D01*
X140219927Y-34315630D02*
X140619927Y-35101345D01*
X140619927Y-35101345D02*
X141019927Y-34315630D01*
X141019927Y-34315630D02*
X141019927Y-35415630D01*
X141762784Y-35415630D02*
X141648499Y-35363250D01*
X141648499Y-35363250D02*
X141591356Y-35310869D01*
X141591356Y-35310869D02*
X141534213Y-35206107D01*
X141534213Y-35206107D02*
X141534213Y-34891821D01*
X141534213Y-34891821D02*
X141591356Y-34787059D01*
X141591356Y-34787059D02*
X141648499Y-34734678D01*
X141648499Y-34734678D02*
X141762784Y-34682297D01*
X141762784Y-34682297D02*
X141934213Y-34682297D01*
X141934213Y-34682297D02*
X142048499Y-34734678D01*
X142048499Y-34734678D02*
X142105642Y-34787059D01*
X142105642Y-34787059D02*
X142162784Y-34891821D01*
X142162784Y-34891821D02*
X142162784Y-35206107D01*
X142162784Y-35206107D02*
X142105642Y-35310869D01*
X142105642Y-35310869D02*
X142048499Y-35363250D01*
X142048499Y-35363250D02*
X141934213Y-35415630D01*
X141934213Y-35415630D02*
X141762784Y-35415630D01*
X143191356Y-34682297D02*
X143191356Y-35415630D01*
X142677070Y-34682297D02*
X142677070Y-35258488D01*
X142677070Y-35258488D02*
X142734213Y-35363250D01*
X142734213Y-35363250D02*
X142848498Y-35415630D01*
X142848498Y-35415630D02*
X143019927Y-35415630D01*
X143019927Y-35415630D02*
X143134213Y-35363250D01*
X143134213Y-35363250D02*
X143191356Y-35310869D01*
X143705641Y-35363250D02*
X143819927Y-35415630D01*
X143819927Y-35415630D02*
X144048498Y-35415630D01*
X144048498Y-35415630D02*
X144162784Y-35363250D01*
X144162784Y-35363250D02*
X144219927Y-35258488D01*
X144219927Y-35258488D02*
X144219927Y-35206107D01*
X144219927Y-35206107D02*
X144162784Y-35101345D01*
X144162784Y-35101345D02*
X144048498Y-35048964D01*
X144048498Y-35048964D02*
X143877070Y-35048964D01*
X143877070Y-35048964D02*
X143762784Y-34996583D01*
X143762784Y-34996583D02*
X143705641Y-34891821D01*
X143705641Y-34891821D02*
X143705641Y-34839440D01*
X143705641Y-34839440D02*
X143762784Y-34734678D01*
X143762784Y-34734678D02*
X143877070Y-34682297D01*
X143877070Y-34682297D02*
X144048498Y-34682297D01*
X144048498Y-34682297D02*
X144162784Y-34734678D01*
X144734213Y-35415630D02*
X144734213Y-34682297D01*
X144734213Y-34315630D02*
X144677070Y-34368011D01*
X144677070Y-34368011D02*
X144734213Y-34420392D01*
X144734213Y-34420392D02*
X144791356Y-34368011D01*
X144791356Y-34368011D02*
X144734213Y-34315630D01*
X144734213Y-34315630D02*
X144734213Y-34420392D01*
X145819928Y-34682297D02*
X145819928Y-35415630D01*
X145305642Y-34682297D02*
X145305642Y-35258488D01*
X145305642Y-35258488D02*
X145362785Y-35363250D01*
X145362785Y-35363250D02*
X145477070Y-35415630D01*
X145477070Y-35415630D02*
X145648499Y-35415630D01*
X145648499Y-35415630D02*
X145762785Y-35363250D01*
X145762785Y-35363250D02*
X145819928Y-35310869D01*
X146334213Y-35363250D02*
X146448499Y-35415630D01*
X146448499Y-35415630D02*
X146677070Y-35415630D01*
X146677070Y-35415630D02*
X146791356Y-35363250D01*
X146791356Y-35363250D02*
X146848499Y-35258488D01*
X146848499Y-35258488D02*
X146848499Y-35206107D01*
X146848499Y-35206107D02*
X146791356Y-35101345D01*
X146791356Y-35101345D02*
X146677070Y-35048964D01*
X146677070Y-35048964D02*
X146505642Y-35048964D01*
X146505642Y-35048964D02*
X146391356Y-34996583D01*
X146391356Y-34996583D02*
X146334213Y-34891821D01*
X146334213Y-34891821D02*
X146334213Y-34839440D01*
X146334213Y-34839440D02*
X146391356Y-34734678D01*
X146391356Y-34734678D02*
X146505642Y-34682297D01*
X146505642Y-34682297D02*
X146677070Y-34682297D01*
X146677070Y-34682297D02*
X146791356Y-34734678D01*
X148334214Y-34315630D02*
X148219928Y-34525154D01*
X148791357Y-34420392D02*
X148848500Y-34368011D01*
X148848500Y-34368011D02*
X148962786Y-34315630D01*
X148962786Y-34315630D02*
X149248500Y-34315630D01*
X149248500Y-34315630D02*
X149362786Y-34368011D01*
X149362786Y-34368011D02*
X149419928Y-34420392D01*
X149419928Y-34420392D02*
X149477071Y-34525154D01*
X149477071Y-34525154D02*
X149477071Y-34629916D01*
X149477071Y-34629916D02*
X149419928Y-34787059D01*
X149419928Y-34787059D02*
X148734214Y-35415630D01*
X148734214Y-35415630D02*
X149477071Y-35415630D01*
X149877071Y-34315630D02*
X150619928Y-34315630D01*
X150619928Y-34315630D02*
X150219928Y-34734678D01*
X150219928Y-34734678D02*
X150391357Y-34734678D01*
X150391357Y-34734678D02*
X150505643Y-34787059D01*
X150505643Y-34787059D02*
X150562785Y-34839440D01*
X150562785Y-34839440D02*
X150619928Y-34944202D01*
X150619928Y-34944202D02*
X150619928Y-35206107D01*
X150619928Y-35206107D02*
X150562785Y-35310869D01*
X150562785Y-35310869D02*
X150505643Y-35363250D01*
X150505643Y-35363250D02*
X150391357Y-35415630D01*
X150391357Y-35415630D02*
X150048500Y-35415630D01*
X150048500Y-35415630D02*
X149934214Y-35363250D01*
X149934214Y-35363250D02*
X149877071Y-35310869D01*
D10*
X120720952Y-37579819D02*
X120244762Y-37579819D01*
X120244762Y-37579819D02*
X120244762Y-36579819D01*
X121054286Y-37056009D02*
X121387619Y-37056009D01*
X121530476Y-37579819D02*
X121054286Y-37579819D01*
X121054286Y-37579819D02*
X121054286Y-36579819D01*
X121054286Y-36579819D02*
X121530476Y-36579819D01*
X121959048Y-37579819D02*
X121959048Y-36579819D01*
X121959048Y-36579819D02*
X122197143Y-36579819D01*
X122197143Y-36579819D02*
X122340000Y-36627438D01*
X122340000Y-36627438D02*
X122435238Y-36722676D01*
X122435238Y-36722676D02*
X122482857Y-36817914D01*
X122482857Y-36817914D02*
X122530476Y-37008390D01*
X122530476Y-37008390D02*
X122530476Y-37151247D01*
X122530476Y-37151247D02*
X122482857Y-37341723D01*
X122482857Y-37341723D02*
X122435238Y-37436961D01*
X122435238Y-37436961D02*
X122340000Y-37532200D01*
X122340000Y-37532200D02*
X122197143Y-37579819D01*
X122197143Y-37579819D02*
X121959048Y-37579819D01*
X122863810Y-36579819D02*
X123482857Y-36579819D01*
X123482857Y-36579819D02*
X123149524Y-36960771D01*
X123149524Y-36960771D02*
X123292381Y-36960771D01*
X123292381Y-36960771D02*
X123387619Y-37008390D01*
X123387619Y-37008390D02*
X123435238Y-37056009D01*
X123435238Y-37056009D02*
X123482857Y-37151247D01*
X123482857Y-37151247D02*
X123482857Y-37389342D01*
X123482857Y-37389342D02*
X123435238Y-37484580D01*
X123435238Y-37484580D02*
X123387619Y-37532200D01*
X123387619Y-37532200D02*
X123292381Y-37579819D01*
X123292381Y-37579819D02*
X123006667Y-37579819D01*
X123006667Y-37579819D02*
X122911429Y-37532200D01*
X122911429Y-37532200D02*
X122863810Y-37484580D01*
X120244761Y-73579819D02*
X119768571Y-73579819D01*
X119768571Y-73579819D02*
X119768571Y-72579819D01*
X120578095Y-73056009D02*
X120911428Y-73056009D01*
X121054285Y-73579819D02*
X120578095Y-73579819D01*
X120578095Y-73579819D02*
X120578095Y-72579819D01*
X120578095Y-72579819D02*
X121054285Y-72579819D01*
X121482857Y-73579819D02*
X121482857Y-72579819D01*
X121482857Y-72579819D02*
X121720952Y-72579819D01*
X121720952Y-72579819D02*
X121863809Y-72627438D01*
X121863809Y-72627438D02*
X121959047Y-72722676D01*
X121959047Y-72722676D02*
X122006666Y-72817914D01*
X122006666Y-72817914D02*
X122054285Y-73008390D01*
X122054285Y-73008390D02*
X122054285Y-73151247D01*
X122054285Y-73151247D02*
X122006666Y-73341723D01*
X122006666Y-73341723D02*
X121959047Y-73436961D01*
X121959047Y-73436961D02*
X121863809Y-73532200D01*
X121863809Y-73532200D02*
X121720952Y-73579819D01*
X121720952Y-73579819D02*
X121482857Y-73579819D01*
X123006666Y-73579819D02*
X122435238Y-73579819D01*
X122720952Y-73579819D02*
X122720952Y-72579819D01*
X122720952Y-72579819D02*
X122625714Y-72722676D01*
X122625714Y-72722676D02*
X122530476Y-72817914D01*
X122530476Y-72817914D02*
X122435238Y-72865533D01*
X123911428Y-72579819D02*
X123435238Y-72579819D01*
X123435238Y-72579819D02*
X123387619Y-73056009D01*
X123387619Y-73056009D02*
X123435238Y-73008390D01*
X123435238Y-73008390D02*
X123530476Y-72960771D01*
X123530476Y-72960771D02*
X123768571Y-72960771D01*
X123768571Y-72960771D02*
X123863809Y-73008390D01*
X123863809Y-73008390D02*
X123911428Y-73056009D01*
X123911428Y-73056009D02*
X123959047Y-73151247D01*
X123959047Y-73151247D02*
X123959047Y-73389342D01*
X123959047Y-73389342D02*
X123911428Y-73484580D01*
X123911428Y-73484580D02*
X123863809Y-73532200D01*
X123863809Y-73532200D02*
X123768571Y-73579819D01*
X123768571Y-73579819D02*
X123530476Y-73579819D01*
X123530476Y-73579819D02*
X123435238Y-73532200D01*
X123435238Y-73532200D02*
X123387619Y-73484580D01*
X55758215Y-76524819D02*
X55758215Y-75524819D01*
X55758215Y-75524819D02*
X56329643Y-76524819D01*
X56329643Y-76524819D02*
X56329643Y-75524819D01*
X56805834Y-76524819D02*
X56805834Y-75858152D01*
X56805834Y-75524819D02*
X56758215Y-75572438D01*
X56758215Y-75572438D02*
X56805834Y-75620057D01*
X56805834Y-75620057D02*
X56853453Y-75572438D01*
X56853453Y-75572438D02*
X56805834Y-75524819D01*
X56805834Y-75524819D02*
X56805834Y-75620057D01*
X57710595Y-76477200D02*
X57615357Y-76524819D01*
X57615357Y-76524819D02*
X57424881Y-76524819D01*
X57424881Y-76524819D02*
X57329643Y-76477200D01*
X57329643Y-76477200D02*
X57282024Y-76429580D01*
X57282024Y-76429580D02*
X57234405Y-76334342D01*
X57234405Y-76334342D02*
X57234405Y-76048628D01*
X57234405Y-76048628D02*
X57282024Y-75953390D01*
X57282024Y-75953390D02*
X57329643Y-75905771D01*
X57329643Y-75905771D02*
X57424881Y-75858152D01*
X57424881Y-75858152D02*
X57615357Y-75858152D01*
X57615357Y-75858152D02*
X57710595Y-75905771D01*
X58520119Y-76477200D02*
X58424881Y-76524819D01*
X58424881Y-76524819D02*
X58234405Y-76524819D01*
X58234405Y-76524819D02*
X58139167Y-76477200D01*
X58139167Y-76477200D02*
X58091548Y-76381961D01*
X58091548Y-76381961D02*
X58091548Y-76001009D01*
X58091548Y-76001009D02*
X58139167Y-75905771D01*
X58139167Y-75905771D02*
X58234405Y-75858152D01*
X58234405Y-75858152D02*
X58424881Y-75858152D01*
X58424881Y-75858152D02*
X58520119Y-75905771D01*
X58520119Y-75905771D02*
X58567738Y-76001009D01*
X58567738Y-76001009D02*
X58567738Y-76096247D01*
X58567738Y-76096247D02*
X58091548Y-76191485D01*
X58996310Y-76429580D02*
X59043929Y-76477200D01*
X59043929Y-76477200D02*
X58996310Y-76524819D01*
X58996310Y-76524819D02*
X58948691Y-76477200D01*
X58948691Y-76477200D02*
X58996310Y-76429580D01*
X58996310Y-76429580D02*
X58996310Y-76524819D01*
X58996310Y-76143866D02*
X58948691Y-75572438D01*
X58948691Y-75572438D02*
X58996310Y-75524819D01*
X58996310Y-75524819D02*
X59043929Y-75572438D01*
X59043929Y-75572438D02*
X58996310Y-76143866D01*
X58996310Y-76143866D02*
X58996310Y-75524819D01*
X59329643Y-75524819D02*
X59662976Y-76524819D01*
X59662976Y-76524819D02*
X59996309Y-75524819D01*
X60329643Y-76524819D02*
X60329643Y-75858152D01*
X60329643Y-75524819D02*
X60282024Y-75572438D01*
X60282024Y-75572438D02*
X60329643Y-75620057D01*
X60329643Y-75620057D02*
X60377262Y-75572438D01*
X60377262Y-75572438D02*
X60329643Y-75524819D01*
X60329643Y-75524819D02*
X60329643Y-75620057D01*
X61186785Y-76477200D02*
X61091547Y-76524819D01*
X61091547Y-76524819D02*
X60901071Y-76524819D01*
X60901071Y-76524819D02*
X60805833Y-76477200D01*
X60805833Y-76477200D02*
X60758214Y-76381961D01*
X60758214Y-76381961D02*
X60758214Y-76001009D01*
X60758214Y-76001009D02*
X60805833Y-75905771D01*
X60805833Y-75905771D02*
X60901071Y-75858152D01*
X60901071Y-75858152D02*
X61091547Y-75858152D01*
X61091547Y-75858152D02*
X61186785Y-75905771D01*
X61186785Y-75905771D02*
X61234404Y-76001009D01*
X61234404Y-76001009D02*
X61234404Y-76096247D01*
X61234404Y-76096247D02*
X60758214Y-76191485D01*
X61567738Y-75858152D02*
X61758214Y-76524819D01*
X61758214Y-76524819D02*
X61948690Y-76048628D01*
X61948690Y-76048628D02*
X62139166Y-76524819D01*
X62139166Y-76524819D02*
X62329642Y-75858152D01*
X63234404Y-76524819D02*
X62662976Y-76524819D01*
X62948690Y-76524819D02*
X62948690Y-75524819D01*
X62948690Y-75524819D02*
X62853452Y-75667676D01*
X62853452Y-75667676D02*
X62758214Y-75762914D01*
X62758214Y-75762914D02*
X62662976Y-75810533D01*
X139720952Y-37579819D02*
X139244762Y-37579819D01*
X139244762Y-37579819D02*
X139244762Y-36579819D01*
X140054286Y-37056009D02*
X140387619Y-37056009D01*
X140530476Y-37579819D02*
X140054286Y-37579819D01*
X140054286Y-37579819D02*
X140054286Y-36579819D01*
X140054286Y-36579819D02*
X140530476Y-36579819D01*
X140959048Y-37579819D02*
X140959048Y-36579819D01*
X140959048Y-36579819D02*
X141197143Y-36579819D01*
X141197143Y-36579819D02*
X141340000Y-36627438D01*
X141340000Y-36627438D02*
X141435238Y-36722676D01*
X141435238Y-36722676D02*
X141482857Y-36817914D01*
X141482857Y-36817914D02*
X141530476Y-37008390D01*
X141530476Y-37008390D02*
X141530476Y-37151247D01*
X141530476Y-37151247D02*
X141482857Y-37341723D01*
X141482857Y-37341723D02*
X141435238Y-37436961D01*
X141435238Y-37436961D02*
X141340000Y-37532200D01*
X141340000Y-37532200D02*
X141197143Y-37579819D01*
X141197143Y-37579819D02*
X140959048Y-37579819D01*
X142387619Y-36913152D02*
X142387619Y-37579819D01*
X142149524Y-36532200D02*
X141911429Y-37246485D01*
X141911429Y-37246485D02*
X142530476Y-37246485D01*
X83000952Y-43829819D02*
X82524762Y-43829819D01*
X82524762Y-43829819D02*
X82524762Y-42829819D01*
X83334286Y-43306009D02*
X83667619Y-43306009D01*
X83810476Y-43829819D02*
X83334286Y-43829819D01*
X83334286Y-43829819D02*
X83334286Y-42829819D01*
X83334286Y-42829819D02*
X83810476Y-42829819D01*
X84239048Y-43829819D02*
X84239048Y-42829819D01*
X84239048Y-42829819D02*
X84477143Y-42829819D01*
X84477143Y-42829819D02*
X84620000Y-42877438D01*
X84620000Y-42877438D02*
X84715238Y-42972676D01*
X84715238Y-42972676D02*
X84762857Y-43067914D01*
X84762857Y-43067914D02*
X84810476Y-43258390D01*
X84810476Y-43258390D02*
X84810476Y-43401247D01*
X84810476Y-43401247D02*
X84762857Y-43591723D01*
X84762857Y-43591723D02*
X84715238Y-43686961D01*
X84715238Y-43686961D02*
X84620000Y-43782200D01*
X84620000Y-43782200D02*
X84477143Y-43829819D01*
X84477143Y-43829819D02*
X84239048Y-43829819D01*
X85762857Y-43829819D02*
X85191429Y-43829819D01*
X85477143Y-43829819D02*
X85477143Y-42829819D01*
X85477143Y-42829819D02*
X85381905Y-42972676D01*
X85381905Y-42972676D02*
X85286667Y-43067914D01*
X85286667Y-43067914D02*
X85191429Y-43115533D01*
X58322499Y-83784819D02*
X57989166Y-83308628D01*
X57751071Y-83784819D02*
X57751071Y-82784819D01*
X57751071Y-82784819D02*
X58132023Y-82784819D01*
X58132023Y-82784819D02*
X58227261Y-82832438D01*
X58227261Y-82832438D02*
X58274880Y-82880057D01*
X58274880Y-82880057D02*
X58322499Y-82975295D01*
X58322499Y-82975295D02*
X58322499Y-83118152D01*
X58322499Y-83118152D02*
X58274880Y-83213390D01*
X58274880Y-83213390D02*
X58227261Y-83261009D01*
X58227261Y-83261009D02*
X58132023Y-83308628D01*
X58132023Y-83308628D02*
X57751071Y-83308628D01*
X58751071Y-83261009D02*
X59084404Y-83261009D01*
X59227261Y-83784819D02*
X58751071Y-83784819D01*
X58751071Y-83784819D02*
X58751071Y-82784819D01*
X58751071Y-82784819D02*
X59227261Y-82784819D01*
X59417738Y-83880057D02*
X60179642Y-83880057D01*
X60941547Y-83784819D02*
X60370119Y-83784819D01*
X60655833Y-83784819D02*
X60655833Y-82784819D01*
X60655833Y-82784819D02*
X60560595Y-82927676D01*
X60560595Y-82927676D02*
X60465357Y-83022914D01*
X60465357Y-83022914D02*
X60370119Y-83070533D01*
X82524761Y-79829819D02*
X82048571Y-79829819D01*
X82048571Y-79829819D02*
X82048571Y-78829819D01*
X82858095Y-79306009D02*
X83191428Y-79306009D01*
X83334285Y-79829819D02*
X82858095Y-79829819D01*
X82858095Y-79829819D02*
X82858095Y-78829819D01*
X82858095Y-78829819D02*
X83334285Y-78829819D01*
X83762857Y-79829819D02*
X83762857Y-78829819D01*
X83762857Y-78829819D02*
X84000952Y-78829819D01*
X84000952Y-78829819D02*
X84143809Y-78877438D01*
X84143809Y-78877438D02*
X84239047Y-78972676D01*
X84239047Y-78972676D02*
X84286666Y-79067914D01*
X84286666Y-79067914D02*
X84334285Y-79258390D01*
X84334285Y-79258390D02*
X84334285Y-79401247D01*
X84334285Y-79401247D02*
X84286666Y-79591723D01*
X84286666Y-79591723D02*
X84239047Y-79686961D01*
X84239047Y-79686961D02*
X84143809Y-79782200D01*
X84143809Y-79782200D02*
X84000952Y-79829819D01*
X84000952Y-79829819D02*
X83762857Y-79829819D01*
X85286666Y-79829819D02*
X84715238Y-79829819D01*
X85000952Y-79829819D02*
X85000952Y-78829819D01*
X85000952Y-78829819D02*
X84905714Y-78972676D01*
X84905714Y-78972676D02*
X84810476Y-79067914D01*
X84810476Y-79067914D02*
X84715238Y-79115533D01*
X85620000Y-78829819D02*
X86239047Y-78829819D01*
X86239047Y-78829819D02*
X85905714Y-79210771D01*
X85905714Y-79210771D02*
X86048571Y-79210771D01*
X86048571Y-79210771D02*
X86143809Y-79258390D01*
X86143809Y-79258390D02*
X86191428Y-79306009D01*
X86191428Y-79306009D02*
X86239047Y-79401247D01*
X86239047Y-79401247D02*
X86239047Y-79639342D01*
X86239047Y-79639342D02*
X86191428Y-79734580D01*
X86191428Y-79734580D02*
X86143809Y-79782200D01*
X86143809Y-79782200D02*
X86048571Y-79829819D01*
X86048571Y-79829819D02*
X85762857Y-79829819D01*
X85762857Y-79829819D02*
X85667619Y-79782200D01*
X85667619Y-79782200D02*
X85620000Y-79734580D01*
X139244761Y-91479819D02*
X138768571Y-91479819D01*
X138768571Y-91479819D02*
X138768571Y-90479819D01*
X139578095Y-90956009D02*
X139911428Y-90956009D01*
X140054285Y-91479819D02*
X139578095Y-91479819D01*
X139578095Y-91479819D02*
X139578095Y-90479819D01*
X139578095Y-90479819D02*
X140054285Y-90479819D01*
X140482857Y-91479819D02*
X140482857Y-90479819D01*
X140482857Y-90479819D02*
X140720952Y-90479819D01*
X140720952Y-90479819D02*
X140863809Y-90527438D01*
X140863809Y-90527438D02*
X140959047Y-90622676D01*
X140959047Y-90622676D02*
X141006666Y-90717914D01*
X141006666Y-90717914D02*
X141054285Y-90908390D01*
X141054285Y-90908390D02*
X141054285Y-91051247D01*
X141054285Y-91051247D02*
X141006666Y-91241723D01*
X141006666Y-91241723D02*
X140959047Y-91336961D01*
X140959047Y-91336961D02*
X140863809Y-91432200D01*
X140863809Y-91432200D02*
X140720952Y-91479819D01*
X140720952Y-91479819D02*
X140482857Y-91479819D01*
X141435238Y-90575057D02*
X141482857Y-90527438D01*
X141482857Y-90527438D02*
X141578095Y-90479819D01*
X141578095Y-90479819D02*
X141816190Y-90479819D01*
X141816190Y-90479819D02*
X141911428Y-90527438D01*
X141911428Y-90527438D02*
X141959047Y-90575057D01*
X141959047Y-90575057D02*
X142006666Y-90670295D01*
X142006666Y-90670295D02*
X142006666Y-90765533D01*
X142006666Y-90765533D02*
X141959047Y-90908390D01*
X141959047Y-90908390D02*
X141387619Y-91479819D01*
X141387619Y-91479819D02*
X142006666Y-91479819D01*
X142340000Y-90479819D02*
X142959047Y-90479819D01*
X142959047Y-90479819D02*
X142625714Y-90860771D01*
X142625714Y-90860771D02*
X142768571Y-90860771D01*
X142768571Y-90860771D02*
X142863809Y-90908390D01*
X142863809Y-90908390D02*
X142911428Y-90956009D01*
X142911428Y-90956009D02*
X142959047Y-91051247D01*
X142959047Y-91051247D02*
X142959047Y-91289342D01*
X142959047Y-91289342D02*
X142911428Y-91384580D01*
X142911428Y-91384580D02*
X142863809Y-91432200D01*
X142863809Y-91432200D02*
X142768571Y-91479819D01*
X142768571Y-91479819D02*
X142482857Y-91479819D01*
X142482857Y-91479819D02*
X142387619Y-91432200D01*
X142387619Y-91432200D02*
X142340000Y-91384580D01*
X139244761Y-55579819D02*
X138768571Y-55579819D01*
X138768571Y-55579819D02*
X138768571Y-54579819D01*
X139578095Y-55056009D02*
X139911428Y-55056009D01*
X140054285Y-55579819D02*
X139578095Y-55579819D01*
X139578095Y-55579819D02*
X139578095Y-54579819D01*
X139578095Y-54579819D02*
X140054285Y-54579819D01*
X140482857Y-55579819D02*
X140482857Y-54579819D01*
X140482857Y-54579819D02*
X140720952Y-54579819D01*
X140720952Y-54579819D02*
X140863809Y-54627438D01*
X140863809Y-54627438D02*
X140959047Y-54722676D01*
X140959047Y-54722676D02*
X141006666Y-54817914D01*
X141006666Y-54817914D02*
X141054285Y-55008390D01*
X141054285Y-55008390D02*
X141054285Y-55151247D01*
X141054285Y-55151247D02*
X141006666Y-55341723D01*
X141006666Y-55341723D02*
X140959047Y-55436961D01*
X140959047Y-55436961D02*
X140863809Y-55532200D01*
X140863809Y-55532200D02*
X140720952Y-55579819D01*
X140720952Y-55579819D02*
X140482857Y-55579819D01*
X142006666Y-55579819D02*
X141435238Y-55579819D01*
X141720952Y-55579819D02*
X141720952Y-54579819D01*
X141720952Y-54579819D02*
X141625714Y-54722676D01*
X141625714Y-54722676D02*
X141530476Y-54817914D01*
X141530476Y-54817914D02*
X141435238Y-54865533D01*
X142625714Y-54579819D02*
X142720952Y-54579819D01*
X142720952Y-54579819D02*
X142816190Y-54627438D01*
X142816190Y-54627438D02*
X142863809Y-54675057D01*
X142863809Y-54675057D02*
X142911428Y-54770295D01*
X142911428Y-54770295D02*
X142959047Y-54960771D01*
X142959047Y-54960771D02*
X142959047Y-55198866D01*
X142959047Y-55198866D02*
X142911428Y-55389342D01*
X142911428Y-55389342D02*
X142863809Y-55484580D01*
X142863809Y-55484580D02*
X142816190Y-55532200D01*
X142816190Y-55532200D02*
X142720952Y-55579819D01*
X142720952Y-55579819D02*
X142625714Y-55579819D01*
X142625714Y-55579819D02*
X142530476Y-55532200D01*
X142530476Y-55532200D02*
X142482857Y-55484580D01*
X142482857Y-55484580D02*
X142435238Y-55389342D01*
X142435238Y-55389342D02*
X142387619Y-55198866D01*
X142387619Y-55198866D02*
X142387619Y-54960771D01*
X142387619Y-54960771D02*
X142435238Y-54770295D01*
X142435238Y-54770295D02*
X142482857Y-54675057D01*
X142482857Y-54675057D02*
X142530476Y-54627438D01*
X142530476Y-54627438D02*
X142625714Y-54579819D01*
X158244761Y-76579819D02*
X157768571Y-76579819D01*
X157768571Y-76579819D02*
X157768571Y-75579819D01*
X158578095Y-76056009D02*
X158911428Y-76056009D01*
X159054285Y-76579819D02*
X158578095Y-76579819D01*
X158578095Y-76579819D02*
X158578095Y-75579819D01*
X158578095Y-75579819D02*
X159054285Y-75579819D01*
X159482857Y-76579819D02*
X159482857Y-75579819D01*
X159482857Y-75579819D02*
X159720952Y-75579819D01*
X159720952Y-75579819D02*
X159863809Y-75627438D01*
X159863809Y-75627438D02*
X159959047Y-75722676D01*
X159959047Y-75722676D02*
X160006666Y-75817914D01*
X160006666Y-75817914D02*
X160054285Y-76008390D01*
X160054285Y-76008390D02*
X160054285Y-76151247D01*
X160054285Y-76151247D02*
X160006666Y-76341723D01*
X160006666Y-76341723D02*
X159959047Y-76436961D01*
X159959047Y-76436961D02*
X159863809Y-76532200D01*
X159863809Y-76532200D02*
X159720952Y-76579819D01*
X159720952Y-76579819D02*
X159482857Y-76579819D01*
X161006666Y-76579819D02*
X160435238Y-76579819D01*
X160720952Y-76579819D02*
X160720952Y-75579819D01*
X160720952Y-75579819D02*
X160625714Y-75722676D01*
X160625714Y-75722676D02*
X160530476Y-75817914D01*
X160530476Y-75817914D02*
X160435238Y-75865533D01*
X161340000Y-75579819D02*
X162006666Y-75579819D01*
X162006666Y-75579819D02*
X161578095Y-76579819D01*
X82524761Y-97829819D02*
X82048571Y-97829819D01*
X82048571Y-97829819D02*
X82048571Y-96829819D01*
X82858095Y-97306009D02*
X83191428Y-97306009D01*
X83334285Y-97829819D02*
X82858095Y-97829819D01*
X82858095Y-97829819D02*
X82858095Y-96829819D01*
X82858095Y-96829819D02*
X83334285Y-96829819D01*
X83762857Y-97829819D02*
X83762857Y-96829819D01*
X83762857Y-96829819D02*
X84000952Y-96829819D01*
X84000952Y-96829819D02*
X84143809Y-96877438D01*
X84143809Y-96877438D02*
X84239047Y-96972676D01*
X84239047Y-96972676D02*
X84286666Y-97067914D01*
X84286666Y-97067914D02*
X84334285Y-97258390D01*
X84334285Y-97258390D02*
X84334285Y-97401247D01*
X84334285Y-97401247D02*
X84286666Y-97591723D01*
X84286666Y-97591723D02*
X84239047Y-97686961D01*
X84239047Y-97686961D02*
X84143809Y-97782200D01*
X84143809Y-97782200D02*
X84000952Y-97829819D01*
X84000952Y-97829819D02*
X83762857Y-97829819D01*
X84715238Y-96925057D02*
X84762857Y-96877438D01*
X84762857Y-96877438D02*
X84858095Y-96829819D01*
X84858095Y-96829819D02*
X85096190Y-96829819D01*
X85096190Y-96829819D02*
X85191428Y-96877438D01*
X85191428Y-96877438D02*
X85239047Y-96925057D01*
X85239047Y-96925057D02*
X85286666Y-97020295D01*
X85286666Y-97020295D02*
X85286666Y-97115533D01*
X85286666Y-97115533D02*
X85239047Y-97258390D01*
X85239047Y-97258390D02*
X84667619Y-97829819D01*
X84667619Y-97829819D02*
X85286666Y-97829819D01*
X85905714Y-96829819D02*
X86000952Y-96829819D01*
X86000952Y-96829819D02*
X86096190Y-96877438D01*
X86096190Y-96877438D02*
X86143809Y-96925057D01*
X86143809Y-96925057D02*
X86191428Y-97020295D01*
X86191428Y-97020295D02*
X86239047Y-97210771D01*
X86239047Y-97210771D02*
X86239047Y-97448866D01*
X86239047Y-97448866D02*
X86191428Y-97639342D01*
X86191428Y-97639342D02*
X86143809Y-97734580D01*
X86143809Y-97734580D02*
X86096190Y-97782200D01*
X86096190Y-97782200D02*
X86000952Y-97829819D01*
X86000952Y-97829819D02*
X85905714Y-97829819D01*
X85905714Y-97829819D02*
X85810476Y-97782200D01*
X85810476Y-97782200D02*
X85762857Y-97734580D01*
X85762857Y-97734580D02*
X85715238Y-97639342D01*
X85715238Y-97639342D02*
X85667619Y-97448866D01*
X85667619Y-97448866D02*
X85667619Y-97210771D01*
X85667619Y-97210771D02*
X85715238Y-97020295D01*
X85715238Y-97020295D02*
X85762857Y-96925057D01*
X85762857Y-96925057D02*
X85810476Y-96877438D01*
X85810476Y-96877438D02*
X85905714Y-96829819D01*
X177244761Y-79579819D02*
X176768571Y-79579819D01*
X176768571Y-79579819D02*
X176768571Y-78579819D01*
X177578095Y-79056009D02*
X177911428Y-79056009D01*
X178054285Y-79579819D02*
X177578095Y-79579819D01*
X177578095Y-79579819D02*
X177578095Y-78579819D01*
X177578095Y-78579819D02*
X178054285Y-78579819D01*
X178482857Y-79579819D02*
X178482857Y-78579819D01*
X178482857Y-78579819D02*
X178720952Y-78579819D01*
X178720952Y-78579819D02*
X178863809Y-78627438D01*
X178863809Y-78627438D02*
X178959047Y-78722676D01*
X178959047Y-78722676D02*
X179006666Y-78817914D01*
X179006666Y-78817914D02*
X179054285Y-79008390D01*
X179054285Y-79008390D02*
X179054285Y-79151247D01*
X179054285Y-79151247D02*
X179006666Y-79341723D01*
X179006666Y-79341723D02*
X178959047Y-79436961D01*
X178959047Y-79436961D02*
X178863809Y-79532200D01*
X178863809Y-79532200D02*
X178720952Y-79579819D01*
X178720952Y-79579819D02*
X178482857Y-79579819D01*
X180006666Y-79579819D02*
X179435238Y-79579819D01*
X179720952Y-79579819D02*
X179720952Y-78579819D01*
X179720952Y-78579819D02*
X179625714Y-78722676D01*
X179625714Y-78722676D02*
X179530476Y-78817914D01*
X179530476Y-78817914D02*
X179435238Y-78865533D01*
X180578095Y-79008390D02*
X180482857Y-78960771D01*
X180482857Y-78960771D02*
X180435238Y-78913152D01*
X180435238Y-78913152D02*
X180387619Y-78817914D01*
X180387619Y-78817914D02*
X180387619Y-78770295D01*
X180387619Y-78770295D02*
X180435238Y-78675057D01*
X180435238Y-78675057D02*
X180482857Y-78627438D01*
X180482857Y-78627438D02*
X180578095Y-78579819D01*
X180578095Y-78579819D02*
X180768571Y-78579819D01*
X180768571Y-78579819D02*
X180863809Y-78627438D01*
X180863809Y-78627438D02*
X180911428Y-78675057D01*
X180911428Y-78675057D02*
X180959047Y-78770295D01*
X180959047Y-78770295D02*
X180959047Y-78817914D01*
X180959047Y-78817914D02*
X180911428Y-78913152D01*
X180911428Y-78913152D02*
X180863809Y-78960771D01*
X180863809Y-78960771D02*
X180768571Y-79008390D01*
X180768571Y-79008390D02*
X180578095Y-79008390D01*
X180578095Y-79008390D02*
X180482857Y-79056009D01*
X180482857Y-79056009D02*
X180435238Y-79103628D01*
X180435238Y-79103628D02*
X180387619Y-79198866D01*
X180387619Y-79198866D02*
X180387619Y-79389342D01*
X180387619Y-79389342D02*
X180435238Y-79484580D01*
X180435238Y-79484580D02*
X180482857Y-79532200D01*
X180482857Y-79532200D02*
X180578095Y-79579819D01*
X180578095Y-79579819D02*
X180768571Y-79579819D01*
X180768571Y-79579819D02*
X180863809Y-79532200D01*
X180863809Y-79532200D02*
X180911428Y-79484580D01*
X180911428Y-79484580D02*
X180959047Y-79389342D01*
X180959047Y-79389342D02*
X180959047Y-79198866D01*
X180959047Y-79198866D02*
X180911428Y-79103628D01*
X180911428Y-79103628D02*
X180863809Y-79056009D01*
X180863809Y-79056009D02*
X180768571Y-79008390D01*
X101720952Y-58579819D02*
X101244762Y-58579819D01*
X101244762Y-58579819D02*
X101244762Y-57579819D01*
X102054286Y-58056009D02*
X102387619Y-58056009D01*
X102530476Y-58579819D02*
X102054286Y-58579819D01*
X102054286Y-58579819D02*
X102054286Y-57579819D01*
X102054286Y-57579819D02*
X102530476Y-57579819D01*
X102959048Y-58579819D02*
X102959048Y-57579819D01*
X102959048Y-57579819D02*
X103197143Y-57579819D01*
X103197143Y-57579819D02*
X103340000Y-57627438D01*
X103340000Y-57627438D02*
X103435238Y-57722676D01*
X103435238Y-57722676D02*
X103482857Y-57817914D01*
X103482857Y-57817914D02*
X103530476Y-58008390D01*
X103530476Y-58008390D02*
X103530476Y-58151247D01*
X103530476Y-58151247D02*
X103482857Y-58341723D01*
X103482857Y-58341723D02*
X103435238Y-58436961D01*
X103435238Y-58436961D02*
X103340000Y-58532200D01*
X103340000Y-58532200D02*
X103197143Y-58579819D01*
X103197143Y-58579819D02*
X102959048Y-58579819D01*
X104101905Y-58008390D02*
X104006667Y-57960771D01*
X104006667Y-57960771D02*
X103959048Y-57913152D01*
X103959048Y-57913152D02*
X103911429Y-57817914D01*
X103911429Y-57817914D02*
X103911429Y-57770295D01*
X103911429Y-57770295D02*
X103959048Y-57675057D01*
X103959048Y-57675057D02*
X104006667Y-57627438D01*
X104006667Y-57627438D02*
X104101905Y-57579819D01*
X104101905Y-57579819D02*
X104292381Y-57579819D01*
X104292381Y-57579819D02*
X104387619Y-57627438D01*
X104387619Y-57627438D02*
X104435238Y-57675057D01*
X104435238Y-57675057D02*
X104482857Y-57770295D01*
X104482857Y-57770295D02*
X104482857Y-57817914D01*
X104482857Y-57817914D02*
X104435238Y-57913152D01*
X104435238Y-57913152D02*
X104387619Y-57960771D01*
X104387619Y-57960771D02*
X104292381Y-58008390D01*
X104292381Y-58008390D02*
X104101905Y-58008390D01*
X104101905Y-58008390D02*
X104006667Y-58056009D01*
X104006667Y-58056009D02*
X103959048Y-58103628D01*
X103959048Y-58103628D02*
X103911429Y-58198866D01*
X103911429Y-58198866D02*
X103911429Y-58389342D01*
X103911429Y-58389342D02*
X103959048Y-58484580D01*
X103959048Y-58484580D02*
X104006667Y-58532200D01*
X104006667Y-58532200D02*
X104101905Y-58579819D01*
X104101905Y-58579819D02*
X104292381Y-58579819D01*
X104292381Y-58579819D02*
X104387619Y-58532200D01*
X104387619Y-58532200D02*
X104435238Y-58484580D01*
X104435238Y-58484580D02*
X104482857Y-58389342D01*
X104482857Y-58389342D02*
X104482857Y-58198866D01*
X104482857Y-58198866D02*
X104435238Y-58103628D01*
X104435238Y-58103628D02*
X104387619Y-58056009D01*
X104387619Y-58056009D02*
X104292381Y-58008390D01*
X158720952Y-40579819D02*
X158244762Y-40579819D01*
X158244762Y-40579819D02*
X158244762Y-39579819D01*
X159054286Y-40056009D02*
X159387619Y-40056009D01*
X159530476Y-40579819D02*
X159054286Y-40579819D01*
X159054286Y-40579819D02*
X159054286Y-39579819D01*
X159054286Y-39579819D02*
X159530476Y-39579819D01*
X159959048Y-40579819D02*
X159959048Y-39579819D01*
X159959048Y-39579819D02*
X160197143Y-39579819D01*
X160197143Y-39579819D02*
X160340000Y-39627438D01*
X160340000Y-39627438D02*
X160435238Y-39722676D01*
X160435238Y-39722676D02*
X160482857Y-39817914D01*
X160482857Y-39817914D02*
X160530476Y-40008390D01*
X160530476Y-40008390D02*
X160530476Y-40151247D01*
X160530476Y-40151247D02*
X160482857Y-40341723D01*
X160482857Y-40341723D02*
X160435238Y-40436961D01*
X160435238Y-40436961D02*
X160340000Y-40532200D01*
X160340000Y-40532200D02*
X160197143Y-40579819D01*
X160197143Y-40579819D02*
X159959048Y-40579819D01*
X161435238Y-39579819D02*
X160959048Y-39579819D01*
X160959048Y-39579819D02*
X160911429Y-40056009D01*
X160911429Y-40056009D02*
X160959048Y-40008390D01*
X160959048Y-40008390D02*
X161054286Y-39960771D01*
X161054286Y-39960771D02*
X161292381Y-39960771D01*
X161292381Y-39960771D02*
X161387619Y-40008390D01*
X161387619Y-40008390D02*
X161435238Y-40056009D01*
X161435238Y-40056009D02*
X161482857Y-40151247D01*
X161482857Y-40151247D02*
X161482857Y-40389342D01*
X161482857Y-40389342D02*
X161435238Y-40484580D01*
X161435238Y-40484580D02*
X161387619Y-40532200D01*
X161387619Y-40532200D02*
X161292381Y-40579819D01*
X161292381Y-40579819D02*
X161054286Y-40579819D01*
X161054286Y-40579819D02*
X160959048Y-40532200D01*
X160959048Y-40532200D02*
X160911429Y-40484580D01*
X55134167Y-38294819D02*
X55134167Y-37294819D01*
X55134167Y-37294819D02*
X55705595Y-38294819D01*
X55705595Y-38294819D02*
X55705595Y-37294819D01*
X56181786Y-38294819D02*
X56181786Y-37294819D01*
X57229404Y-38199580D02*
X57181785Y-38247200D01*
X57181785Y-38247200D02*
X57038928Y-38294819D01*
X57038928Y-38294819D02*
X56943690Y-38294819D01*
X56943690Y-38294819D02*
X56800833Y-38247200D01*
X56800833Y-38247200D02*
X56705595Y-38151961D01*
X56705595Y-38151961D02*
X56657976Y-38056723D01*
X56657976Y-38056723D02*
X56610357Y-37866247D01*
X56610357Y-37866247D02*
X56610357Y-37723390D01*
X56610357Y-37723390D02*
X56657976Y-37532914D01*
X56657976Y-37532914D02*
X56705595Y-37437676D01*
X56705595Y-37437676D02*
X56800833Y-37342438D01*
X56800833Y-37342438D02*
X56943690Y-37294819D01*
X56943690Y-37294819D02*
X57038928Y-37294819D01*
X57038928Y-37294819D02*
X57181785Y-37342438D01*
X57181785Y-37342438D02*
X57229404Y-37390057D01*
X57657976Y-37771009D02*
X57991309Y-37771009D01*
X58134166Y-38294819D02*
X57657976Y-38294819D01*
X57657976Y-38294819D02*
X57657976Y-37294819D01*
X57657976Y-37294819D02*
X58134166Y-37294819D01*
X58324643Y-38390057D02*
X59086547Y-38390057D01*
X59324643Y-38294819D02*
X59324643Y-37294819D01*
X59324643Y-37294819D02*
X59896071Y-38294819D01*
X59896071Y-38294819D02*
X59896071Y-37294819D01*
X60324643Y-38009104D02*
X60800833Y-38009104D01*
X60229405Y-38294819D02*
X60562738Y-37294819D01*
X60562738Y-37294819D02*
X60896071Y-38294819D01*
X61229405Y-38294819D02*
X61229405Y-37294819D01*
X61229405Y-37294819D02*
X61800833Y-38294819D01*
X61800833Y-38294819D02*
X61800833Y-37294819D01*
X62467500Y-37294819D02*
X62657976Y-37294819D01*
X62657976Y-37294819D02*
X62753214Y-37342438D01*
X62753214Y-37342438D02*
X62848452Y-37437676D01*
X62848452Y-37437676D02*
X62896071Y-37628152D01*
X62896071Y-37628152D02*
X62896071Y-37961485D01*
X62896071Y-37961485D02*
X62848452Y-38151961D01*
X62848452Y-38151961D02*
X62753214Y-38247200D01*
X62753214Y-38247200D02*
X62657976Y-38294819D01*
X62657976Y-38294819D02*
X62467500Y-38294819D01*
X62467500Y-38294819D02*
X62372262Y-38247200D01*
X62372262Y-38247200D02*
X62277024Y-38151961D01*
X62277024Y-38151961D02*
X62229405Y-37961485D01*
X62229405Y-37961485D02*
X62229405Y-37628152D01*
X62229405Y-37628152D02*
X62277024Y-37437676D01*
X62277024Y-37437676D02*
X62372262Y-37342438D01*
X62372262Y-37342438D02*
X62467500Y-37294819D01*
X63848452Y-38294819D02*
X63277024Y-38294819D01*
X63562738Y-38294819D02*
X63562738Y-37294819D01*
X63562738Y-37294819D02*
X63467500Y-37437676D01*
X63467500Y-37437676D02*
X63372262Y-37532914D01*
X63372262Y-37532914D02*
X63277024Y-37580533D01*
X101244761Y-94579819D02*
X100768571Y-94579819D01*
X100768571Y-94579819D02*
X100768571Y-93579819D01*
X101578095Y-94056009D02*
X101911428Y-94056009D01*
X102054285Y-94579819D02*
X101578095Y-94579819D01*
X101578095Y-94579819D02*
X101578095Y-93579819D01*
X101578095Y-93579819D02*
X102054285Y-93579819D01*
X102482857Y-94579819D02*
X102482857Y-93579819D01*
X102482857Y-93579819D02*
X102720952Y-93579819D01*
X102720952Y-93579819D02*
X102863809Y-93627438D01*
X102863809Y-93627438D02*
X102959047Y-93722676D01*
X102959047Y-93722676D02*
X103006666Y-93817914D01*
X103006666Y-93817914D02*
X103054285Y-94008390D01*
X103054285Y-94008390D02*
X103054285Y-94151247D01*
X103054285Y-94151247D02*
X103006666Y-94341723D01*
X103006666Y-94341723D02*
X102959047Y-94436961D01*
X102959047Y-94436961D02*
X102863809Y-94532200D01*
X102863809Y-94532200D02*
X102720952Y-94579819D01*
X102720952Y-94579819D02*
X102482857Y-94579819D01*
X103435238Y-93675057D02*
X103482857Y-93627438D01*
X103482857Y-93627438D02*
X103578095Y-93579819D01*
X103578095Y-93579819D02*
X103816190Y-93579819D01*
X103816190Y-93579819D02*
X103911428Y-93627438D01*
X103911428Y-93627438D02*
X103959047Y-93675057D01*
X103959047Y-93675057D02*
X104006666Y-93770295D01*
X104006666Y-93770295D02*
X104006666Y-93865533D01*
X104006666Y-93865533D02*
X103959047Y-94008390D01*
X103959047Y-94008390D02*
X103387619Y-94579819D01*
X103387619Y-94579819D02*
X104006666Y-94579819D01*
X104959047Y-94579819D02*
X104387619Y-94579819D01*
X104673333Y-94579819D02*
X104673333Y-93579819D01*
X104673333Y-93579819D02*
X104578095Y-93722676D01*
X104578095Y-93722676D02*
X104482857Y-93817914D01*
X104482857Y-93817914D02*
X104387619Y-93865533D01*
X158244761Y-58579819D02*
X157768571Y-58579819D01*
X157768571Y-58579819D02*
X157768571Y-57579819D01*
X158578095Y-58056009D02*
X158911428Y-58056009D01*
X159054285Y-58579819D02*
X158578095Y-58579819D01*
X158578095Y-58579819D02*
X158578095Y-57579819D01*
X158578095Y-57579819D02*
X159054285Y-57579819D01*
X159482857Y-58579819D02*
X159482857Y-57579819D01*
X159482857Y-57579819D02*
X159720952Y-57579819D01*
X159720952Y-57579819D02*
X159863809Y-57627438D01*
X159863809Y-57627438D02*
X159959047Y-57722676D01*
X159959047Y-57722676D02*
X160006666Y-57817914D01*
X160006666Y-57817914D02*
X160054285Y-58008390D01*
X160054285Y-58008390D02*
X160054285Y-58151247D01*
X160054285Y-58151247D02*
X160006666Y-58341723D01*
X160006666Y-58341723D02*
X159959047Y-58436961D01*
X159959047Y-58436961D02*
X159863809Y-58532200D01*
X159863809Y-58532200D02*
X159720952Y-58579819D01*
X159720952Y-58579819D02*
X159482857Y-58579819D01*
X161006666Y-58579819D02*
X160435238Y-58579819D01*
X160720952Y-58579819D02*
X160720952Y-57579819D01*
X160720952Y-57579819D02*
X160625714Y-57722676D01*
X160625714Y-57722676D02*
X160530476Y-57817914D01*
X160530476Y-57817914D02*
X160435238Y-57865533D01*
X161959047Y-58579819D02*
X161387619Y-58579819D01*
X161673333Y-58579819D02*
X161673333Y-57579819D01*
X161673333Y-57579819D02*
X161578095Y-57722676D01*
X161578095Y-57722676D02*
X161482857Y-57817914D01*
X161482857Y-57817914D02*
X161387619Y-57865533D01*
X83000952Y-61874819D02*
X82524762Y-61874819D01*
X82524762Y-61874819D02*
X82524762Y-60874819D01*
X83334286Y-61351009D02*
X83667619Y-61351009D01*
X83810476Y-61874819D02*
X83334286Y-61874819D01*
X83334286Y-61874819D02*
X83334286Y-60874819D01*
X83334286Y-60874819D02*
X83810476Y-60874819D01*
X84239048Y-61874819D02*
X84239048Y-60874819D01*
X84239048Y-60874819D02*
X84477143Y-60874819D01*
X84477143Y-60874819D02*
X84620000Y-60922438D01*
X84620000Y-60922438D02*
X84715238Y-61017676D01*
X84715238Y-61017676D02*
X84762857Y-61112914D01*
X84762857Y-61112914D02*
X84810476Y-61303390D01*
X84810476Y-61303390D02*
X84810476Y-61446247D01*
X84810476Y-61446247D02*
X84762857Y-61636723D01*
X84762857Y-61636723D02*
X84715238Y-61731961D01*
X84715238Y-61731961D02*
X84620000Y-61827200D01*
X84620000Y-61827200D02*
X84477143Y-61874819D01*
X84477143Y-61874819D02*
X84239048Y-61874819D01*
X85143810Y-60874819D02*
X85810476Y-60874819D01*
X85810476Y-60874819D02*
X85381905Y-61874819D01*
X120720952Y-55579819D02*
X120244762Y-55579819D01*
X120244762Y-55579819D02*
X120244762Y-54579819D01*
X121054286Y-55056009D02*
X121387619Y-55056009D01*
X121530476Y-55579819D02*
X121054286Y-55579819D01*
X121054286Y-55579819D02*
X121054286Y-54579819D01*
X121054286Y-54579819D02*
X121530476Y-54579819D01*
X121959048Y-55579819D02*
X121959048Y-54579819D01*
X121959048Y-54579819D02*
X122197143Y-54579819D01*
X122197143Y-54579819D02*
X122340000Y-54627438D01*
X122340000Y-54627438D02*
X122435238Y-54722676D01*
X122435238Y-54722676D02*
X122482857Y-54817914D01*
X122482857Y-54817914D02*
X122530476Y-55008390D01*
X122530476Y-55008390D02*
X122530476Y-55151247D01*
X122530476Y-55151247D02*
X122482857Y-55341723D01*
X122482857Y-55341723D02*
X122435238Y-55436961D01*
X122435238Y-55436961D02*
X122340000Y-55532200D01*
X122340000Y-55532200D02*
X122197143Y-55579819D01*
X122197143Y-55579819D02*
X121959048Y-55579819D01*
X123006667Y-55579819D02*
X123197143Y-55579819D01*
X123197143Y-55579819D02*
X123292381Y-55532200D01*
X123292381Y-55532200D02*
X123340000Y-55484580D01*
X123340000Y-55484580D02*
X123435238Y-55341723D01*
X123435238Y-55341723D02*
X123482857Y-55151247D01*
X123482857Y-55151247D02*
X123482857Y-54770295D01*
X123482857Y-54770295D02*
X123435238Y-54675057D01*
X123435238Y-54675057D02*
X123387619Y-54627438D01*
X123387619Y-54627438D02*
X123292381Y-54579819D01*
X123292381Y-54579819D02*
X123101905Y-54579819D01*
X123101905Y-54579819D02*
X123006667Y-54627438D01*
X123006667Y-54627438D02*
X122959048Y-54675057D01*
X122959048Y-54675057D02*
X122911429Y-54770295D01*
X122911429Y-54770295D02*
X122911429Y-55008390D01*
X122911429Y-55008390D02*
X122959048Y-55103628D01*
X122959048Y-55103628D02*
X123006667Y-55151247D01*
X123006667Y-55151247D02*
X123101905Y-55198866D01*
X123101905Y-55198866D02*
X123292381Y-55198866D01*
X123292381Y-55198866D02*
X123387619Y-55151247D01*
X123387619Y-55151247D02*
X123435238Y-55103628D01*
X123435238Y-55103628D02*
X123482857Y-55008390D01*
X101244761Y-76579819D02*
X100768571Y-76579819D01*
X100768571Y-76579819D02*
X100768571Y-75579819D01*
X101578095Y-76056009D02*
X101911428Y-76056009D01*
X102054285Y-76579819D02*
X101578095Y-76579819D01*
X101578095Y-76579819D02*
X101578095Y-75579819D01*
X101578095Y-75579819D02*
X102054285Y-75579819D01*
X102482857Y-76579819D02*
X102482857Y-75579819D01*
X102482857Y-75579819D02*
X102720952Y-75579819D01*
X102720952Y-75579819D02*
X102863809Y-75627438D01*
X102863809Y-75627438D02*
X102959047Y-75722676D01*
X102959047Y-75722676D02*
X103006666Y-75817914D01*
X103006666Y-75817914D02*
X103054285Y-76008390D01*
X103054285Y-76008390D02*
X103054285Y-76151247D01*
X103054285Y-76151247D02*
X103006666Y-76341723D01*
X103006666Y-76341723D02*
X102959047Y-76436961D01*
X102959047Y-76436961D02*
X102863809Y-76532200D01*
X102863809Y-76532200D02*
X102720952Y-76579819D01*
X102720952Y-76579819D02*
X102482857Y-76579819D01*
X104006666Y-76579819D02*
X103435238Y-76579819D01*
X103720952Y-76579819D02*
X103720952Y-75579819D01*
X103720952Y-75579819D02*
X103625714Y-75722676D01*
X103625714Y-75722676D02*
X103530476Y-75817914D01*
X103530476Y-75817914D02*
X103435238Y-75865533D01*
X104863809Y-75913152D02*
X104863809Y-76579819D01*
X104625714Y-75532200D02*
X104387619Y-76246485D01*
X104387619Y-76246485D02*
X105006666Y-76246485D01*
X101720952Y-40579819D02*
X101244762Y-40579819D01*
X101244762Y-40579819D02*
X101244762Y-39579819D01*
X102054286Y-40056009D02*
X102387619Y-40056009D01*
X102530476Y-40579819D02*
X102054286Y-40579819D01*
X102054286Y-40579819D02*
X102054286Y-39579819D01*
X102054286Y-39579819D02*
X102530476Y-39579819D01*
X102959048Y-40579819D02*
X102959048Y-39579819D01*
X102959048Y-39579819D02*
X103197143Y-39579819D01*
X103197143Y-39579819D02*
X103340000Y-39627438D01*
X103340000Y-39627438D02*
X103435238Y-39722676D01*
X103435238Y-39722676D02*
X103482857Y-39817914D01*
X103482857Y-39817914D02*
X103530476Y-40008390D01*
X103530476Y-40008390D02*
X103530476Y-40151247D01*
X103530476Y-40151247D02*
X103482857Y-40341723D01*
X103482857Y-40341723D02*
X103435238Y-40436961D01*
X103435238Y-40436961D02*
X103340000Y-40532200D01*
X103340000Y-40532200D02*
X103197143Y-40579819D01*
X103197143Y-40579819D02*
X102959048Y-40579819D01*
X103911429Y-39675057D02*
X103959048Y-39627438D01*
X103959048Y-39627438D02*
X104054286Y-39579819D01*
X104054286Y-39579819D02*
X104292381Y-39579819D01*
X104292381Y-39579819D02*
X104387619Y-39627438D01*
X104387619Y-39627438D02*
X104435238Y-39675057D01*
X104435238Y-39675057D02*
X104482857Y-39770295D01*
X104482857Y-39770295D02*
X104482857Y-39865533D01*
X104482857Y-39865533D02*
X104435238Y-40008390D01*
X104435238Y-40008390D02*
X103863810Y-40579819D01*
X103863810Y-40579819D02*
X104482857Y-40579819D01*
X139244761Y-73579819D02*
X138768571Y-73579819D01*
X138768571Y-73579819D02*
X138768571Y-72579819D01*
X139578095Y-73056009D02*
X139911428Y-73056009D01*
X140054285Y-73579819D02*
X139578095Y-73579819D01*
X139578095Y-73579819D02*
X139578095Y-72579819D01*
X139578095Y-72579819D02*
X140054285Y-72579819D01*
X140482857Y-73579819D02*
X140482857Y-72579819D01*
X140482857Y-72579819D02*
X140720952Y-72579819D01*
X140720952Y-72579819D02*
X140863809Y-72627438D01*
X140863809Y-72627438D02*
X140959047Y-72722676D01*
X140959047Y-72722676D02*
X141006666Y-72817914D01*
X141006666Y-72817914D02*
X141054285Y-73008390D01*
X141054285Y-73008390D02*
X141054285Y-73151247D01*
X141054285Y-73151247D02*
X141006666Y-73341723D01*
X141006666Y-73341723D02*
X140959047Y-73436961D01*
X140959047Y-73436961D02*
X140863809Y-73532200D01*
X140863809Y-73532200D02*
X140720952Y-73579819D01*
X140720952Y-73579819D02*
X140482857Y-73579819D01*
X142006666Y-73579819D02*
X141435238Y-73579819D01*
X141720952Y-73579819D02*
X141720952Y-72579819D01*
X141720952Y-72579819D02*
X141625714Y-72722676D01*
X141625714Y-72722676D02*
X141530476Y-72817914D01*
X141530476Y-72817914D02*
X141435238Y-72865533D01*
X142863809Y-72579819D02*
X142673333Y-72579819D01*
X142673333Y-72579819D02*
X142578095Y-72627438D01*
X142578095Y-72627438D02*
X142530476Y-72675057D01*
X142530476Y-72675057D02*
X142435238Y-72817914D01*
X142435238Y-72817914D02*
X142387619Y-73008390D01*
X142387619Y-73008390D02*
X142387619Y-73389342D01*
X142387619Y-73389342D02*
X142435238Y-73484580D01*
X142435238Y-73484580D02*
X142482857Y-73532200D01*
X142482857Y-73532200D02*
X142578095Y-73579819D01*
X142578095Y-73579819D02*
X142768571Y-73579819D01*
X142768571Y-73579819D02*
X142863809Y-73532200D01*
X142863809Y-73532200D02*
X142911428Y-73484580D01*
X142911428Y-73484580D02*
X142959047Y-73389342D01*
X142959047Y-73389342D02*
X142959047Y-73151247D01*
X142959047Y-73151247D02*
X142911428Y-73056009D01*
X142911428Y-73056009D02*
X142863809Y-73008390D01*
X142863809Y-73008390D02*
X142768571Y-72960771D01*
X142768571Y-72960771D02*
X142578095Y-72960771D01*
X142578095Y-72960771D02*
X142482857Y-73008390D01*
X142482857Y-73008390D02*
X142435238Y-73056009D01*
X142435238Y-73056009D02*
X142387619Y-73151247D01*
X120244761Y-91579819D02*
X119768571Y-91579819D01*
X119768571Y-91579819D02*
X119768571Y-90579819D01*
X120578095Y-91056009D02*
X120911428Y-91056009D01*
X121054285Y-91579819D02*
X120578095Y-91579819D01*
X120578095Y-91579819D02*
X120578095Y-90579819D01*
X120578095Y-90579819D02*
X121054285Y-90579819D01*
X121482857Y-91579819D02*
X121482857Y-90579819D01*
X121482857Y-90579819D02*
X121720952Y-90579819D01*
X121720952Y-90579819D02*
X121863809Y-90627438D01*
X121863809Y-90627438D02*
X121959047Y-90722676D01*
X121959047Y-90722676D02*
X122006666Y-90817914D01*
X122006666Y-90817914D02*
X122054285Y-91008390D01*
X122054285Y-91008390D02*
X122054285Y-91151247D01*
X122054285Y-91151247D02*
X122006666Y-91341723D01*
X122006666Y-91341723D02*
X121959047Y-91436961D01*
X121959047Y-91436961D02*
X121863809Y-91532200D01*
X121863809Y-91532200D02*
X121720952Y-91579819D01*
X121720952Y-91579819D02*
X121482857Y-91579819D01*
X122435238Y-90675057D02*
X122482857Y-90627438D01*
X122482857Y-90627438D02*
X122578095Y-90579819D01*
X122578095Y-90579819D02*
X122816190Y-90579819D01*
X122816190Y-90579819D02*
X122911428Y-90627438D01*
X122911428Y-90627438D02*
X122959047Y-90675057D01*
X122959047Y-90675057D02*
X123006666Y-90770295D01*
X123006666Y-90770295D02*
X123006666Y-90865533D01*
X123006666Y-90865533D02*
X122959047Y-91008390D01*
X122959047Y-91008390D02*
X122387619Y-91579819D01*
X122387619Y-91579819D02*
X123006666Y-91579819D01*
X123387619Y-90675057D02*
X123435238Y-90627438D01*
X123435238Y-90627438D02*
X123530476Y-90579819D01*
X123530476Y-90579819D02*
X123768571Y-90579819D01*
X123768571Y-90579819D02*
X123863809Y-90627438D01*
X123863809Y-90627438D02*
X123911428Y-90675057D01*
X123911428Y-90675057D02*
X123959047Y-90770295D01*
X123959047Y-90770295D02*
X123959047Y-90865533D01*
X123959047Y-90865533D02*
X123911428Y-91008390D01*
X123911428Y-91008390D02*
X123340000Y-91579819D01*
X123340000Y-91579819D02*
X123959047Y-91579819D01*
D12*
X155523884Y-93971466D02*
X156285789Y-93971466D01*
X161333409Y-93971466D02*
X162095314Y-93971466D01*
X161714361Y-94352419D02*
X161714361Y-93590514D01*
D10*
X177720952Y-43579819D02*
X177244762Y-43579819D01*
X177244762Y-43579819D02*
X177244762Y-42579819D01*
X178054286Y-43056009D02*
X178387619Y-43056009D01*
X178530476Y-43579819D02*
X178054286Y-43579819D01*
X178054286Y-43579819D02*
X178054286Y-42579819D01*
X178054286Y-42579819D02*
X178530476Y-42579819D01*
X178959048Y-43579819D02*
X178959048Y-42579819D01*
X178959048Y-42579819D02*
X179197143Y-42579819D01*
X179197143Y-42579819D02*
X179340000Y-42627438D01*
X179340000Y-42627438D02*
X179435238Y-42722676D01*
X179435238Y-42722676D02*
X179482857Y-42817914D01*
X179482857Y-42817914D02*
X179530476Y-43008390D01*
X179530476Y-43008390D02*
X179530476Y-43151247D01*
X179530476Y-43151247D02*
X179482857Y-43341723D01*
X179482857Y-43341723D02*
X179435238Y-43436961D01*
X179435238Y-43436961D02*
X179340000Y-43532200D01*
X179340000Y-43532200D02*
X179197143Y-43579819D01*
X179197143Y-43579819D02*
X178959048Y-43579819D01*
X180387619Y-42579819D02*
X180197143Y-42579819D01*
X180197143Y-42579819D02*
X180101905Y-42627438D01*
X180101905Y-42627438D02*
X180054286Y-42675057D01*
X180054286Y-42675057D02*
X179959048Y-42817914D01*
X179959048Y-42817914D02*
X179911429Y-43008390D01*
X179911429Y-43008390D02*
X179911429Y-43389342D01*
X179911429Y-43389342D02*
X179959048Y-43484580D01*
X179959048Y-43484580D02*
X180006667Y-43532200D01*
X180006667Y-43532200D02*
X180101905Y-43579819D01*
X180101905Y-43579819D02*
X180292381Y-43579819D01*
X180292381Y-43579819D02*
X180387619Y-43532200D01*
X180387619Y-43532200D02*
X180435238Y-43484580D01*
X180435238Y-43484580D02*
X180482857Y-43389342D01*
X180482857Y-43389342D02*
X180482857Y-43151247D01*
X180482857Y-43151247D02*
X180435238Y-43056009D01*
X180435238Y-43056009D02*
X180387619Y-43008390D01*
X180387619Y-43008390D02*
X180292381Y-42960771D01*
X180292381Y-42960771D02*
X180101905Y-42960771D01*
X180101905Y-42960771D02*
X180006667Y-43008390D01*
X180006667Y-43008390D02*
X179959048Y-43056009D01*
X179959048Y-43056009D02*
X179911429Y-43151247D01*
X60349673Y-100918796D02*
X59883889Y-101017802D01*
X59883889Y-101017802D02*
X59675977Y-100039654D01*
X60566816Y-100337129D02*
X60892866Y-100267825D01*
X61141507Y-100750487D02*
X60675723Y-100849492D01*
X60675723Y-100849492D02*
X60467811Y-99871345D01*
X60467811Y-99871345D02*
X60933595Y-99772339D01*
X61560713Y-100661382D02*
X61352802Y-99683234D01*
X61352802Y-99683234D02*
X61585694Y-99633731D01*
X61585694Y-99633731D02*
X61735330Y-99650608D01*
X61735330Y-99650608D02*
X61848288Y-99723964D01*
X61848288Y-99723964D02*
X61914667Y-99807220D01*
X61914667Y-99807220D02*
X62000848Y-99983634D01*
X62000848Y-99983634D02*
X62030550Y-100123369D01*
X62030550Y-100123369D02*
X62023574Y-100319583D01*
X62023574Y-100319583D02*
X61996796Y-100422641D01*
X61996796Y-100422641D02*
X61923440Y-100535599D01*
X61923440Y-100535599D02*
X61793606Y-100611879D01*
X61793606Y-100611879D02*
X61560713Y-100661382D01*
X63051224Y-100344564D02*
X62492283Y-100463371D01*
X62771753Y-100403967D02*
X62563842Y-99425820D01*
X62563842Y-99425820D02*
X62500386Y-99585356D01*
X62500386Y-99585356D02*
X62427031Y-99698314D01*
X62427031Y-99698314D02*
X62343774Y-99764694D01*
X63517009Y-100245558D02*
X63703322Y-100205956D01*
X63703322Y-100205956D02*
X63786579Y-100139577D01*
X63786579Y-100139577D02*
X63823257Y-100083098D01*
X63823257Y-100083098D02*
X63886712Y-99923561D01*
X63886712Y-99923561D02*
X63893688Y-99727347D01*
X63893688Y-99727347D02*
X63814484Y-99354719D01*
X63814484Y-99354719D02*
X63748104Y-99271463D01*
X63748104Y-99271463D02*
X63691625Y-99234785D01*
X63691625Y-99234785D02*
X63588568Y-99208007D01*
X63588568Y-99208007D02*
X63402254Y-99247610D01*
X63402254Y-99247610D02*
X63318997Y-99313989D01*
X63318997Y-99313989D02*
X63282320Y-99370468D01*
X63282320Y-99370468D02*
X63255542Y-99473526D01*
X63255542Y-99473526D02*
X63305045Y-99706418D01*
X63305045Y-99706418D02*
X63371425Y-99789674D01*
X63371425Y-99789674D02*
X63427904Y-99826352D01*
X63427904Y-99826352D02*
X63530961Y-99853130D01*
X63530961Y-99853130D02*
X63717275Y-99813527D01*
X63717275Y-99813527D02*
X63800531Y-99747148D01*
X63800531Y-99747148D02*
X63837209Y-99690669D01*
X63837209Y-99690669D02*
X63863987Y-99587611D01*
X177244761Y-61579819D02*
X176768571Y-61579819D01*
X176768571Y-61579819D02*
X176768571Y-60579819D01*
X177578095Y-61056009D02*
X177911428Y-61056009D01*
X178054285Y-61579819D02*
X177578095Y-61579819D01*
X177578095Y-61579819D02*
X177578095Y-60579819D01*
X177578095Y-60579819D02*
X178054285Y-60579819D01*
X178482857Y-61579819D02*
X178482857Y-60579819D01*
X178482857Y-60579819D02*
X178720952Y-60579819D01*
X178720952Y-60579819D02*
X178863809Y-60627438D01*
X178863809Y-60627438D02*
X178959047Y-60722676D01*
X178959047Y-60722676D02*
X179006666Y-60817914D01*
X179006666Y-60817914D02*
X179054285Y-61008390D01*
X179054285Y-61008390D02*
X179054285Y-61151247D01*
X179054285Y-61151247D02*
X179006666Y-61341723D01*
X179006666Y-61341723D02*
X178959047Y-61436961D01*
X178959047Y-61436961D02*
X178863809Y-61532200D01*
X178863809Y-61532200D02*
X178720952Y-61579819D01*
X178720952Y-61579819D02*
X178482857Y-61579819D01*
X180006666Y-61579819D02*
X179435238Y-61579819D01*
X179720952Y-61579819D02*
X179720952Y-60579819D01*
X179720952Y-60579819D02*
X179625714Y-60722676D01*
X179625714Y-60722676D02*
X179530476Y-60817914D01*
X179530476Y-60817914D02*
X179435238Y-60865533D01*
X180387619Y-60675057D02*
X180435238Y-60627438D01*
X180435238Y-60627438D02*
X180530476Y-60579819D01*
X180530476Y-60579819D02*
X180768571Y-60579819D01*
X180768571Y-60579819D02*
X180863809Y-60627438D01*
X180863809Y-60627438D02*
X180911428Y-60675057D01*
X180911428Y-60675057D02*
X180959047Y-60770295D01*
X180959047Y-60770295D02*
X180959047Y-60865533D01*
X180959047Y-60865533D02*
X180911428Y-61008390D01*
X180911428Y-61008390D02*
X180340000Y-61579819D01*
X180340000Y-61579819D02*
X180959047Y-61579819D01*
X152820000Y-40530000D02*
X152820000Y-39530000D01*
X152820000Y-53530000D02*
X152820000Y-52530000D01*
X152820000Y-53530000D02*
X153820000Y-53530000D01*
X153820000Y-39530000D02*
X152820000Y-39530000D01*
X165820000Y-53530000D02*
X166820000Y-53530000D01*
X166820000Y-39530000D02*
X165820000Y-39530000D01*
X166820000Y-39530000D02*
X166820000Y-40530000D01*
X166820000Y-52530000D02*
X166820000Y-53530000D01*
X166820000Y-53530000D02*
X165820000Y-53530000D01*
X114820000Y-91530000D02*
X114820000Y-90530000D01*
X114820000Y-104530000D02*
X114820000Y-103530000D01*
X114820000Y-104530000D02*
X115820000Y-104530000D01*
X115820000Y-90530000D02*
X114820000Y-90530000D01*
X127820000Y-104530000D02*
X128820000Y-104530000D01*
X128820000Y-90530000D02*
X127820000Y-90530000D01*
X128820000Y-90530000D02*
X128820000Y-91530000D01*
X128820000Y-103530000D02*
X128820000Y-104530000D01*
X128820000Y-104530000D02*
X127820000Y-104530000D01*
X133820000Y-91530000D02*
X133820000Y-90530000D01*
X133820000Y-104530000D02*
X133820000Y-103530000D01*
X133820000Y-104530000D02*
X134820000Y-104530000D01*
X134820000Y-90530000D02*
X133820000Y-90530000D01*
X146820000Y-104530000D02*
X147820000Y-104530000D01*
X147820000Y-90530000D02*
X146820000Y-90530000D01*
X147820000Y-90530000D02*
X147820000Y-91530000D01*
X147820000Y-103530000D02*
X147820000Y-104530000D01*
X147820000Y-104530000D02*
X146820000Y-104530000D01*
X133820000Y-55530000D02*
X133820000Y-54530000D01*
X133820000Y-68530000D02*
X133820000Y-67530000D01*
X133820000Y-68530000D02*
X134820000Y-68530000D01*
X134820000Y-54530000D02*
X133820000Y-54530000D01*
X146820000Y-68530000D02*
X147820000Y-68530000D01*
X147820000Y-54530000D02*
X146820000Y-54530000D01*
X147820000Y-54530000D02*
X147820000Y-55530000D01*
X147820000Y-67530000D02*
X147820000Y-68530000D01*
X147820000Y-68530000D02*
X146820000Y-68530000D01*
D13*
X120155000Y-37815000D02*
X120155000Y-39735000D01*
X120155000Y-39735000D02*
X122840000Y-39735000D01*
X122840000Y-37815000D02*
X120155000Y-37815000D01*
D10*
X152820000Y-58530000D02*
X152820000Y-57530000D01*
X152820000Y-71530000D02*
X152820000Y-70530000D01*
X152820000Y-71530000D02*
X153820000Y-71530000D01*
X153820000Y-57530000D02*
X152820000Y-57530000D01*
X165820000Y-71530000D02*
X166820000Y-71530000D01*
X166820000Y-57530000D02*
X165820000Y-57530000D01*
X166820000Y-57530000D02*
X166820000Y-58530000D01*
X166820000Y-70530000D02*
X166820000Y-71530000D01*
X166820000Y-71530000D02*
X165820000Y-71530000D01*
D13*
X120155000Y-73815000D02*
X120155000Y-75735000D01*
X120155000Y-75735000D02*
X122840000Y-75735000D01*
X122840000Y-73815000D02*
X120155000Y-73815000D01*
X65877500Y-71950000D02*
X65877500Y-73280000D01*
X64547500Y-71950000D02*
X65877500Y-71950000D01*
X63277500Y-71950000D02*
X53057500Y-71950000D01*
X63277500Y-71950000D02*
X63277500Y-74610000D01*
X53057500Y-71950000D02*
X53057500Y-74610000D01*
X63277500Y-74610000D02*
X53057500Y-74610000D01*
X139155000Y-37815000D02*
X139155000Y-39735000D01*
X139155000Y-39735000D02*
X141840000Y-39735000D01*
X141840000Y-37815000D02*
X139155000Y-37815000D01*
X82435000Y-44065000D02*
X82435000Y-45985000D01*
X82435000Y-45985000D02*
X85120000Y-45985000D01*
X85120000Y-44065000D02*
X82435000Y-44065000D01*
D10*
X77100000Y-43780000D02*
X77100000Y-42780000D01*
X77100000Y-56780000D02*
X77100000Y-55780000D01*
X77100000Y-56780000D02*
X78100000Y-56780000D01*
X78100000Y-42780000D02*
X77100000Y-42780000D01*
X90100000Y-56780000D02*
X91100000Y-56780000D01*
X91100000Y-42780000D02*
X90100000Y-42780000D01*
X91100000Y-42780000D02*
X91100000Y-43780000D01*
X91100000Y-55780000D02*
X91100000Y-56780000D01*
X91100000Y-56780000D02*
X90100000Y-56780000D01*
D14*
X50822500Y-76830000D02*
X50822500Y-78830000D01*
X50822500Y-88830000D02*
X50822500Y-90830000D01*
X50822500Y-90830000D02*
X66222500Y-90830000D01*
X51422500Y-76830000D02*
X50822500Y-76830000D01*
X66222500Y-76830000D02*
X55322500Y-76830000D01*
D13*
X82435000Y-80065000D02*
X82435000Y-81985000D01*
X82435000Y-81985000D02*
X85120000Y-81985000D01*
X85120000Y-80065000D02*
X82435000Y-80065000D01*
X139155000Y-91715000D02*
X139155000Y-93635000D01*
X139155000Y-93635000D02*
X141840000Y-93635000D01*
X141840000Y-91715000D02*
X139155000Y-91715000D01*
D10*
X171820000Y-79530000D02*
X171820000Y-78530000D01*
X171820000Y-92530000D02*
X171820000Y-91530000D01*
X171820000Y-92530000D02*
X172820000Y-92530000D01*
X172820000Y-78530000D02*
X171820000Y-78530000D01*
X184820000Y-92530000D02*
X185820000Y-92530000D01*
X185820000Y-78530000D02*
X184820000Y-78530000D01*
X185820000Y-78530000D02*
X185820000Y-79530000D01*
X185820000Y-91530000D02*
X185820000Y-92530000D01*
X185820000Y-92530000D02*
X184820000Y-92530000D01*
D13*
X139155000Y-55815000D02*
X139155000Y-57735000D01*
X139155000Y-57735000D02*
X141840000Y-57735000D01*
X141840000Y-55815000D02*
X139155000Y-55815000D01*
D10*
X114820000Y-55530000D02*
X114820000Y-54530000D01*
X114820000Y-68530000D02*
X114820000Y-67530000D01*
X114820000Y-68530000D02*
X115820000Y-68530000D01*
X115820000Y-54530000D02*
X114820000Y-54530000D01*
X127820000Y-68530000D02*
X128820000Y-68530000D01*
X128820000Y-54530000D02*
X127820000Y-54530000D01*
X128820000Y-54530000D02*
X128820000Y-55530000D01*
X128820000Y-67530000D02*
X128820000Y-68530000D01*
X128820000Y-68530000D02*
X127820000Y-68530000D01*
D13*
X158155000Y-76815000D02*
X158155000Y-78735000D01*
X158155000Y-78735000D02*
X160840000Y-78735000D01*
X160840000Y-76815000D02*
X158155000Y-76815000D01*
X82435000Y-98065000D02*
X82435000Y-99985000D01*
X82435000Y-99985000D02*
X85120000Y-99985000D01*
X85120000Y-98065000D02*
X82435000Y-98065000D01*
D10*
X95820000Y-76530000D02*
X95820000Y-75530000D01*
X95820000Y-89530000D02*
X95820000Y-88530000D01*
X95820000Y-89530000D02*
X96820000Y-89530000D01*
X96820000Y-75530000D02*
X95820000Y-75530000D01*
X108820000Y-89530000D02*
X109820000Y-89530000D01*
X109820000Y-75530000D02*
X108820000Y-75530000D01*
X109820000Y-75530000D02*
X109820000Y-76530000D01*
X109820000Y-88530000D02*
X109820000Y-89530000D01*
X109820000Y-89530000D02*
X108820000Y-89530000D01*
D13*
X177155000Y-79815000D02*
X177155000Y-81735000D01*
X177155000Y-81735000D02*
X179840000Y-81735000D01*
X179840000Y-79815000D02*
X177155000Y-79815000D01*
D10*
X114820000Y-73530000D02*
X114820000Y-72530000D01*
X114820000Y-86530000D02*
X114820000Y-85530000D01*
X114820000Y-86530000D02*
X115820000Y-86530000D01*
X115820000Y-72530000D02*
X114820000Y-72530000D01*
X127820000Y-86530000D02*
X128820000Y-86530000D01*
X128820000Y-72530000D02*
X127820000Y-72530000D01*
X128820000Y-72530000D02*
X128820000Y-73530000D01*
X128820000Y-85530000D02*
X128820000Y-86530000D01*
X128820000Y-86530000D02*
X127820000Y-86530000D01*
X95820000Y-40530000D02*
X95820000Y-39530000D01*
X95820000Y-53530000D02*
X95820000Y-52530000D01*
X95820000Y-53530000D02*
X96820000Y-53530000D01*
X96820000Y-39530000D02*
X95820000Y-39530000D01*
X108820000Y-53530000D02*
X109820000Y-53530000D01*
X109820000Y-39530000D02*
X108820000Y-39530000D01*
X109820000Y-39530000D02*
X109820000Y-40530000D01*
X109820000Y-52530000D02*
X109820000Y-53530000D01*
X109820000Y-53530000D02*
X108820000Y-53530000D01*
D13*
X101155000Y-58815000D02*
X101155000Y-60735000D01*
X101155000Y-60735000D02*
X103840000Y-60735000D01*
X103840000Y-58815000D02*
X101155000Y-58815000D01*
X158155000Y-40815000D02*
X158155000Y-42735000D01*
X158155000Y-42735000D02*
X160840000Y-42735000D01*
X160840000Y-40815000D02*
X158155000Y-40815000D01*
X50517500Y-36740000D02*
X50517500Y-69370000D01*
D12*
X50517500Y-69370000D02*
X53007500Y-69370000D01*
D13*
X53007500Y-38840000D02*
X53007500Y-69370000D01*
X58467500Y-38840000D02*
X53007500Y-38840000D01*
X65927500Y-38840000D02*
X60467500Y-38840000D01*
X65927500Y-69370000D02*
X65927500Y-38840000D01*
D12*
X65927500Y-69370000D02*
X68417500Y-69370000D01*
D13*
X68417500Y-36740000D02*
X50517500Y-36740000D01*
X68417500Y-69370000D02*
X68417500Y-36740000D01*
X101155000Y-94815000D02*
X101155000Y-96735000D01*
X101155000Y-96735000D02*
X103840000Y-96735000D01*
X103840000Y-94815000D02*
X101155000Y-94815000D01*
D10*
X171820000Y-61530000D02*
X171820000Y-60530000D01*
X171820000Y-74530000D02*
X171820000Y-73530000D01*
X171820000Y-74530000D02*
X172820000Y-74530000D01*
X172820000Y-60530000D02*
X171820000Y-60530000D01*
X184820000Y-74530000D02*
X185820000Y-74530000D01*
X185820000Y-60530000D02*
X184820000Y-60530000D01*
X185820000Y-60530000D02*
X185820000Y-61530000D01*
X185820000Y-73530000D02*
X185820000Y-74530000D01*
X185820000Y-74530000D02*
X184820000Y-74530000D01*
X171820000Y-43530000D02*
X171820000Y-42530000D01*
X171820000Y-56530000D02*
X171820000Y-55530000D01*
X171820000Y-56530000D02*
X172820000Y-56530000D01*
X172820000Y-42530000D02*
X171820000Y-42530000D01*
X184820000Y-56530000D02*
X185820000Y-56530000D01*
X185820000Y-42530000D02*
X184820000Y-42530000D01*
X185820000Y-42530000D02*
X185820000Y-43530000D01*
X185820000Y-55530000D02*
X185820000Y-56530000D01*
X185820000Y-56530000D02*
X184820000Y-56530000D01*
D13*
X158155000Y-58815000D02*
X158155000Y-60735000D01*
X158155000Y-60735000D02*
X160840000Y-60735000D01*
X160840000Y-58815000D02*
X158155000Y-58815000D01*
D10*
X77100000Y-79780000D02*
X77100000Y-78780000D01*
X77100000Y-92780000D02*
X77100000Y-91780000D01*
X77100000Y-92780000D02*
X78100000Y-92780000D01*
X78100000Y-78780000D02*
X77100000Y-78780000D01*
X90100000Y-92780000D02*
X91100000Y-92780000D01*
X91100000Y-78780000D02*
X90100000Y-78780000D01*
X91100000Y-78780000D02*
X91100000Y-79780000D01*
X91100000Y-91780000D02*
X91100000Y-92780000D01*
X91100000Y-92780000D02*
X90100000Y-92780000D01*
X114820000Y-37530000D02*
X114820000Y-36530000D01*
X114820000Y-50530000D02*
X114820000Y-49530000D01*
X114820000Y-50530000D02*
X115820000Y-50530000D01*
X115820000Y-36530000D02*
X114820000Y-36530000D01*
X127820000Y-50530000D02*
X128820000Y-50530000D01*
X128820000Y-36530000D02*
X127820000Y-36530000D01*
X128820000Y-36530000D02*
X128820000Y-37530000D01*
X128820000Y-49530000D02*
X128820000Y-50530000D01*
X128820000Y-50530000D02*
X127820000Y-50530000D01*
X55065877Y-101990971D02*
X54857965Y-101012824D01*
X57768729Y-114706890D02*
X57560817Y-113728742D01*
X57768729Y-114706890D02*
X58746876Y-114498978D01*
X55836113Y-100804912D02*
X54857965Y-101012824D01*
X70484647Y-112004038D02*
X71462795Y-111796126D01*
X68552031Y-98102060D02*
X67573884Y-98309972D01*
X68552031Y-98102060D02*
X68759943Y-99080208D01*
X71254883Y-110817979D02*
X71462795Y-111796126D01*
X71462795Y-111796126D02*
X70484647Y-112004038D01*
D13*
X82435000Y-62110000D02*
X82435000Y-64030000D01*
X82435000Y-64030000D02*
X85120000Y-64030000D01*
X85120000Y-62110000D02*
X82435000Y-62110000D01*
D10*
X77100000Y-61825000D02*
X77100000Y-60825000D01*
X77100000Y-74825000D02*
X77100000Y-73825000D01*
X77100000Y-74825000D02*
X78100000Y-74825000D01*
X78100000Y-60825000D02*
X77100000Y-60825000D01*
X90100000Y-74825000D02*
X91100000Y-74825000D01*
X91100000Y-60825000D02*
X90100000Y-60825000D01*
X91100000Y-60825000D02*
X91100000Y-61825000D01*
X91100000Y-73825000D02*
X91100000Y-74825000D01*
X91100000Y-74825000D02*
X90100000Y-74825000D01*
X133820000Y-73530000D02*
X133820000Y-72530000D01*
X133820000Y-86530000D02*
X133820000Y-85530000D01*
X133820000Y-86530000D02*
X134820000Y-86530000D01*
X134820000Y-72530000D02*
X133820000Y-72530000D01*
X146820000Y-86530000D02*
X147820000Y-86530000D01*
X147820000Y-72530000D02*
X146820000Y-72530000D01*
X147820000Y-72530000D02*
X147820000Y-73530000D01*
X147820000Y-85530000D02*
X147820000Y-86530000D01*
X147820000Y-86530000D02*
X146820000Y-86530000D01*
D13*
X74613500Y-46400000D02*
X75673500Y-46400000D01*
X74613500Y-47460000D02*
X74613500Y-46400000D01*
X74613500Y-48460000D02*
X74613500Y-50520000D01*
X74613500Y-48460000D02*
X76733500Y-48460000D01*
X74613500Y-50520000D02*
X76733500Y-50520000D01*
X76733500Y-48460000D02*
X76733500Y-50520000D01*
X120155000Y-55815000D02*
X120155000Y-57735000D01*
X120155000Y-57735000D02*
X122840000Y-57735000D01*
X122840000Y-55815000D02*
X120155000Y-55815000D01*
X101155000Y-76815000D02*
X101155000Y-78735000D01*
X101155000Y-78735000D02*
X103840000Y-78735000D01*
X103840000Y-76815000D02*
X101155000Y-76815000D01*
D10*
X95820000Y-58530000D02*
X95820000Y-57530000D01*
X95820000Y-71530000D02*
X95820000Y-70530000D01*
X95820000Y-71530000D02*
X96820000Y-71530000D01*
X96820000Y-57530000D02*
X95820000Y-57530000D01*
X108820000Y-71530000D02*
X109820000Y-71530000D01*
X109820000Y-57530000D02*
X108820000Y-57530000D01*
X109820000Y-57530000D02*
X109820000Y-58530000D01*
X109820000Y-70530000D02*
X109820000Y-71530000D01*
X109820000Y-71530000D02*
X108820000Y-71530000D01*
D13*
X101155000Y-40815000D02*
X101155000Y-42735000D01*
X101155000Y-42735000D02*
X103840000Y-42735000D01*
X103840000Y-40815000D02*
X101155000Y-40815000D01*
D10*
X133820000Y-37530000D02*
X133820000Y-36530000D01*
X133820000Y-50530000D02*
X133820000Y-49530000D01*
X133820000Y-50530000D02*
X134820000Y-50530000D01*
X134820000Y-36530000D02*
X133820000Y-36530000D01*
X146820000Y-50530000D02*
X147820000Y-50530000D01*
X147820000Y-36530000D02*
X146820000Y-36530000D01*
X147820000Y-36530000D02*
X147820000Y-37530000D01*
X147820000Y-49530000D02*
X147820000Y-50530000D01*
X147820000Y-50530000D02*
X146820000Y-50530000D01*
D13*
X139155000Y-73815000D02*
X139155000Y-75735000D01*
X139155000Y-75735000D02*
X141840000Y-75735000D01*
X141840000Y-73815000D02*
X139155000Y-73815000D01*
X120155000Y-91815000D02*
X120155000Y-93735000D01*
X120155000Y-93735000D02*
X122840000Y-93735000D01*
X122840000Y-91815000D02*
X120155000Y-91815000D01*
D10*
X95820000Y-94530000D02*
X95820000Y-93530000D01*
X95820000Y-107530000D02*
X95820000Y-106530000D01*
X95820000Y-107530000D02*
X96820000Y-107530000D01*
X96820000Y-93530000D02*
X95820000Y-93530000D01*
X108820000Y-107530000D02*
X109820000Y-107530000D01*
X109820000Y-93530000D02*
X108820000Y-93530000D01*
X109820000Y-93530000D02*
X109820000Y-94530000D01*
X109820000Y-106530000D02*
X109820000Y-107530000D01*
X109820000Y-107530000D02*
X108820000Y-107530000D01*
X152820000Y-76530000D02*
X152820000Y-75530000D01*
X152820000Y-89530000D02*
X152820000Y-88530000D01*
X152820000Y-89530000D02*
X153820000Y-89530000D01*
X153820000Y-75530000D02*
X152820000Y-75530000D01*
X165820000Y-89530000D02*
X166820000Y-89530000D01*
X166820000Y-75530000D02*
X165820000Y-75530000D01*
X166820000Y-75530000D02*
X166820000Y-76530000D01*
X166820000Y-88530000D02*
X166820000Y-89530000D01*
X166820000Y-89530000D02*
X165820000Y-89530000D01*
X77100000Y-97780000D02*
X77100000Y-96780000D01*
X77100000Y-110780000D02*
X77100000Y-109780000D01*
X77100000Y-110780000D02*
X78100000Y-110780000D01*
X78100000Y-96780000D02*
X77100000Y-96780000D01*
X90100000Y-110780000D02*
X91100000Y-110780000D01*
X91100000Y-96780000D02*
X90100000Y-96780000D01*
X91100000Y-96780000D02*
X91100000Y-97780000D01*
X91100000Y-109780000D02*
X91100000Y-110780000D01*
X91100000Y-110780000D02*
X90100000Y-110780000D01*
D13*
X177155000Y-43815000D02*
X177155000Y-45735000D01*
X177155000Y-45735000D02*
X179840000Y-45735000D01*
X179840000Y-43815000D02*
X177155000Y-43815000D01*
X60310770Y-101167502D02*
X60709961Y-103045545D01*
X60709961Y-103045545D02*
X63336287Y-102487302D01*
X62937096Y-100609259D02*
X60310770Y-101167502D01*
X177155000Y-61815000D02*
X177155000Y-63735000D01*
X177155000Y-63735000D02*
X179840000Y-63735000D01*
X179840000Y-61815000D02*
X177155000Y-61815000D01*
%LPC*%
D15*
X154320000Y-46530000D03*
D16*
X154820000Y-50280000D03*
D17*
X159820000Y-46530000D03*
D16*
X159820000Y-52480000D03*
D18*
X165040000Y-42330000D03*
D15*
X165320000Y-46530000D03*
X116320000Y-97530000D03*
D16*
X116820000Y-101280000D03*
D17*
X121820000Y-97530000D03*
D16*
X121820000Y-103480000D03*
D18*
X127040000Y-93330000D03*
D15*
X127320000Y-97530000D03*
X135320000Y-97530000D03*
D16*
X135820000Y-101280000D03*
D17*
X140820000Y-97530000D03*
D16*
X140820000Y-103480000D03*
D18*
X146040000Y-93330000D03*
D15*
X146320000Y-97530000D03*
D19*
X168797500Y-94778000D03*
D15*
X135320000Y-61530000D03*
D16*
X135820000Y-65280000D03*
D17*
X140820000Y-61530000D03*
D16*
X140820000Y-67480000D03*
D18*
X146040000Y-57330000D03*
D15*
X146320000Y-61530000D03*
D20*
X120902500Y-38775000D03*
X122777500Y-38775000D03*
D15*
X154320000Y-64530000D03*
D16*
X154820000Y-68280000D03*
D17*
X159820000Y-64530000D03*
D16*
X159820000Y-70480000D03*
D18*
X165040000Y-60330000D03*
D15*
X165320000Y-64530000D03*
D20*
X120902500Y-74775000D03*
X122777500Y-74775000D03*
D21*
X64547500Y-73280000D03*
D22*
X62007500Y-73280000D03*
X59467500Y-73280000D03*
X56927500Y-73280000D03*
X54387500Y-73280000D03*
D20*
X139902500Y-38775000D03*
X141777500Y-38775000D03*
X83182500Y-45025000D03*
X85057500Y-45025000D03*
D15*
X78600000Y-49780000D03*
D16*
X79100000Y-53530000D03*
D17*
X84100000Y-49780000D03*
D16*
X84100000Y-55730000D03*
D18*
X89320000Y-45580000D03*
D15*
X89600000Y-49780000D03*
D23*
X53697500Y-89630000D03*
D24*
X53697500Y-79520000D03*
X53697500Y-82060000D03*
X53697500Y-84600000D03*
X53697500Y-87140000D03*
X52472500Y-77130000D03*
X54322500Y-77130000D03*
D20*
X83182500Y-81025000D03*
X85057500Y-81025000D03*
X139902500Y-92675000D03*
X141777500Y-92675000D03*
D15*
X173320000Y-85530000D03*
D16*
X173820000Y-89280000D03*
D17*
X178820000Y-85530000D03*
D16*
X178820000Y-91480000D03*
D18*
X184040000Y-81330000D03*
D15*
X184320000Y-85530000D03*
D20*
X139902500Y-56775000D03*
X141777500Y-56775000D03*
D15*
X116320000Y-61530000D03*
D16*
X116820000Y-65280000D03*
D17*
X121820000Y-61530000D03*
D16*
X121820000Y-67480000D03*
D18*
X127040000Y-57330000D03*
D15*
X127320000Y-61530000D03*
D20*
X158902500Y-77775000D03*
X160777500Y-77775000D03*
D19*
X74747500Y-94784000D03*
D20*
X83182500Y-99025000D03*
X85057500Y-99025000D03*
D15*
X97320000Y-82530000D03*
D16*
X97820000Y-86280000D03*
D17*
X102820000Y-82530000D03*
D16*
X102820000Y-88480000D03*
D18*
X108040000Y-78330000D03*
D15*
X108320000Y-82530000D03*
D20*
X177902500Y-80775000D03*
X179777500Y-80775000D03*
D15*
X116320000Y-79530000D03*
D16*
X116820000Y-83280000D03*
D17*
X121820000Y-79530000D03*
D16*
X121820000Y-85480000D03*
D18*
X127040000Y-75330000D03*
D15*
X127320000Y-79530000D03*
D19*
X74109500Y-58840000D03*
D15*
X97320000Y-46530000D03*
D16*
X97820000Y-50280000D03*
D17*
X102820000Y-46530000D03*
D16*
X102820000Y-52480000D03*
D18*
X108040000Y-42330000D03*
D15*
X108320000Y-46530000D03*
D20*
X101902500Y-59775000D03*
X103777500Y-59775000D03*
X158902500Y-41775000D03*
X160777500Y-41775000D03*
D19*
X170032500Y-58572000D03*
D25*
X51847500Y-40170000D03*
D26*
X51847500Y-42710000D03*
X51847500Y-45250000D03*
X51847500Y-47790000D03*
X51847500Y-50330000D03*
X51847500Y-52870000D03*
X51847500Y-55410000D03*
X51847500Y-57950000D03*
X51847500Y-60490000D03*
X51847500Y-63030000D03*
X51847500Y-65570000D03*
X51847500Y-68110000D03*
X67087500Y-68110000D03*
X67087500Y-65570000D03*
X67087500Y-63030000D03*
X67087500Y-60490000D03*
X67087500Y-57950000D03*
X67087500Y-55410000D03*
X67087500Y-52870000D03*
X67087500Y-50330000D03*
X67087500Y-47790000D03*
X67087500Y-45250000D03*
X67087500Y-42710000D03*
X67087500Y-40170000D03*
D20*
X101902500Y-95775000D03*
X103777500Y-95775000D03*
D15*
X173320000Y-67530000D03*
D16*
X173820000Y-71280000D03*
D17*
X178820000Y-67530000D03*
D16*
X178820000Y-73480000D03*
D18*
X184040000Y-63330000D03*
D15*
X184320000Y-67530000D03*
X173320000Y-49530000D03*
D16*
X173820000Y-53280000D03*
D17*
X178820000Y-49530000D03*
D16*
X178820000Y-55480000D03*
D18*
X184040000Y-45330000D03*
D15*
X184320000Y-49530000D03*
D19*
X130962000Y-70526000D03*
D20*
X158902500Y-59775000D03*
X160777500Y-59775000D03*
D15*
X78600000Y-85780000D03*
D16*
X79100000Y-89530000D03*
D17*
X84100000Y-85780000D03*
D16*
X84100000Y-91730000D03*
D18*
X89320000Y-81580000D03*
D15*
X89600000Y-85780000D03*
X116320000Y-43530000D03*
D16*
X116820000Y-47280000D03*
D17*
X121820000Y-43530000D03*
D16*
X121820000Y-49480000D03*
D18*
X127040000Y-39330000D03*
D15*
X127320000Y-43530000D03*
X57780568Y-107547989D03*
D16*
X59049311Y-111112087D03*
D17*
X63160380Y-106404475D03*
D16*
X64397455Y-112224453D03*
D18*
X67393081Y-101210956D03*
D15*
X68540192Y-105260961D03*
D20*
X83182500Y-63070000D03*
X85057500Y-63070000D03*
D15*
X78600000Y-67825000D03*
D16*
X79100000Y-71575000D03*
D17*
X84100000Y-67825000D03*
D16*
X84100000Y-73775000D03*
D18*
X89320000Y-63625000D03*
D15*
X89600000Y-67825000D03*
X135320000Y-79530000D03*
D16*
X135820000Y-83280000D03*
D17*
X140820000Y-79530000D03*
D16*
X140820000Y-85480000D03*
D18*
X146040000Y-75330000D03*
D15*
X146320000Y-79530000D03*
D27*
X75673500Y-47460000D03*
D28*
X75673500Y-49460000D03*
D20*
X120902500Y-56775000D03*
X122777500Y-56775000D03*
X101902500Y-77775000D03*
X103777500Y-77775000D03*
D15*
X97320000Y-64530000D03*
D16*
X97820000Y-68280000D03*
D17*
X102820000Y-64530000D03*
D16*
X102820000Y-70480000D03*
D18*
X108040000Y-60330000D03*
D15*
X108320000Y-64530000D03*
D20*
X101902500Y-41775000D03*
X103777500Y-41775000D03*
D15*
X135320000Y-43530000D03*
D16*
X135820000Y-47280000D03*
D17*
X140820000Y-43530000D03*
D16*
X140820000Y-49480000D03*
D18*
X146040000Y-39330000D03*
D15*
X146320000Y-43530000D03*
D20*
X139902500Y-74775000D03*
X141777500Y-74775000D03*
X120902500Y-92775000D03*
X122777500Y-92775000D03*
D15*
X97320000Y-100530000D03*
D16*
X97820000Y-104280000D03*
D17*
X102820000Y-100530000D03*
D16*
X102820000Y-106480000D03*
D18*
X108040000Y-96330000D03*
D15*
X108320000Y-100530000D03*
X154320000Y-82530000D03*
D16*
X154820000Y-86280000D03*
D17*
X159820000Y-82530000D03*
D16*
X159820000Y-88480000D03*
D18*
X165040000Y-78330000D03*
D15*
X165320000Y-82530000D03*
X78600000Y-103780000D03*
D16*
X79100000Y-107530000D03*
D17*
X84100000Y-103780000D03*
D16*
X84100000Y-109730000D03*
D18*
X89320000Y-99580000D03*
D15*
X89600000Y-103780000D03*
D29*
X157620000Y-93980000D03*
X160020000Y-93980000D03*
D20*
X177902500Y-44775000D03*
X179777500Y-44775000D03*
D30*
X61241531Y-101951109D03*
X63075557Y-101561275D03*
D20*
X177902500Y-62775000D03*
X179777500Y-62775000D03*
D31*
X74666500Y-42198000D03*
X74666500Y-39198000D03*
%LPD*%
M02*
