%TF.GenerationSoftware,KiCad,Pcbnew,7.0.5-0*%
%TF.CreationDate,2023-08-04T20:22:26+09:30*%
%TF.ProjectId,Rolio,436f726e-6552-46f6-9c69-6f2e6b696361,rev?*%
%TF.SameCoordinates,Original*%
%TF.FileFunction,Drillmap*%
%TF.FilePolarity,Positive*%
%FSLAX45Y45*%
G04 Gerber Fmt 4.5, Leading zero omitted, Abs format (unit mm)*
G04 Created by KiCad (PCBNEW 7.0.5-0) date 2023-08-04 20:22:26*
%MOMM*%
%LPD*%
G01*
G04 APERTURE LIST*
%ADD10C,0.100000*%
%ADD11C,0.200000*%
%ADD12C,0.040000*%
%ADD13C,0.080000*%
%ADD14C,0.090000*%
G04 APERTURE END LIST*
D10*
X18570350Y-9241800D02*
X16708614Y-9241800D01*
X11012818Y-3489732D02*
X11091082Y-3411468D01*
X18870350Y-3877600D02*
G75*
G03*
X18570350Y-3577600I-300000J0D01*
G01*
X11391082Y-10828268D02*
X10830218Y-11389132D01*
X15168820Y-3411466D02*
G75*
G03*
X14956686Y-3323600I-212130J-212134D01*
G01*
X15168818Y-3411468D02*
X15247082Y-3489732D01*
X10618086Y-11477000D02*
X7437614Y-11477000D01*
X17193950Y-9470400D02*
X17193950Y-9470400D01*
X11303214Y-3323603D02*
G75*
G03*
X11091082Y-3411468I-4J-299997D01*
G01*
X7225482Y-11564868D02*
X7121818Y-11668532D01*
X10800686Y-3577598D02*
G75*
G03*
X11012818Y-3489732I-6J300018D01*
G01*
X5174950Y-3577600D02*
G75*
G03*
X4874950Y-3877600I0J-300000D01*
G01*
X10618086Y-11476997D02*
G75*
G03*
X10830218Y-11389132I4J299997D01*
G01*
X11303214Y-3323600D02*
X14956686Y-3323600D01*
X5179748Y-10229664D02*
G75*
G03*
X5091882Y-10017532I-300018J-6D01*
G01*
X5179750Y-11456400D02*
G75*
G03*
X5479750Y-11756400I300000J0D01*
G01*
X16708614Y-9241802D02*
G75*
G03*
X16496482Y-9329668I6J-300018D01*
G01*
X18870350Y-3877600D02*
X18870350Y-8941800D01*
X4874950Y-9676336D02*
X4874950Y-3877600D01*
X11603214Y-10740402D02*
G75*
G03*
X11391082Y-10828268I6J-300018D01*
G01*
X6909686Y-11756397D02*
G75*
G03*
X7121818Y-11668532I4J299997D01*
G01*
X5462250Y-3905500D02*
X6732250Y-3905500D01*
X6732250Y-7096500D01*
X5462250Y-7096500D01*
X5462250Y-3905500D01*
X5174950Y-3577600D02*
X10800686Y-3577600D01*
X5179750Y-11456400D02*
X5179750Y-10229664D01*
X16496482Y-9329668D02*
X15173618Y-10652532D01*
X18570350Y-9241800D02*
G75*
G03*
X18870350Y-8941800I0J300000D01*
G01*
X15247080Y-3489734D02*
G75*
G03*
X15459214Y-3577600I212130J212134D01*
G01*
X14961486Y-10740397D02*
G75*
G03*
X15173618Y-10652532I4J299997D01*
G01*
X4874953Y-9676336D02*
G75*
G03*
X4962818Y-9888468I299997J-4D01*
G01*
X5091882Y-10017532D02*
X4962818Y-9888468D01*
X15459214Y-3577600D02*
X18570350Y-3577600D01*
X6909686Y-11756400D02*
X5479750Y-11756400D01*
X7437614Y-11477002D02*
G75*
G03*
X7225482Y-11564868I6J-300018D01*
G01*
X14961486Y-10740400D02*
X11603214Y-10740400D01*
D11*
D12*
X5007350Y-7393000D02*
X5047350Y-7433000D01*
X5047350Y-7393000D02*
X5007350Y-7433000D01*
X5083550Y-4624400D02*
X5123550Y-4664400D01*
X5123550Y-4624400D02*
X5083550Y-4664400D01*
X5083550Y-7697800D02*
X5123550Y-7737800D01*
X5123550Y-7697800D02*
X5083550Y-7737800D01*
X5108950Y-7494600D02*
X5148950Y-7534600D01*
X5148950Y-7494600D02*
X5108950Y-7534600D01*
X5261350Y-7977200D02*
X5301350Y-8017200D01*
X5301350Y-7977200D02*
X5261350Y-8017200D01*
X5429400Y-9708200D02*
X5469400Y-9748200D01*
X5469400Y-9708200D02*
X5429400Y-9748200D01*
X5489950Y-3786200D02*
X5529950Y-3826200D01*
X5529950Y-3786200D02*
X5489950Y-3826200D01*
X5997950Y-10593400D02*
X6037950Y-10633400D01*
X6037950Y-10593400D02*
X5997950Y-10633400D01*
X6226550Y-7596200D02*
X6266550Y-7636200D01*
X6266550Y-7596200D02*
X6226550Y-7636200D01*
X6226550Y-8358200D02*
X6266550Y-8398200D01*
X6266550Y-8358200D02*
X6226550Y-8398200D01*
X6556750Y-10034600D02*
X6596750Y-10074600D01*
X6596750Y-10034600D02*
X6556750Y-10074600D01*
X6836150Y-9425000D02*
X6876150Y-9465000D01*
X6876150Y-9425000D02*
X6836150Y-9465000D01*
X6886950Y-7062800D02*
X6926950Y-7102800D01*
X6926950Y-7062800D02*
X6886950Y-7102800D01*
X6886950Y-7393000D02*
X6926950Y-7433000D01*
X6926950Y-7393000D02*
X6886950Y-7433000D01*
X7013950Y-7443800D02*
X7053950Y-7483800D01*
X7053950Y-7443800D02*
X7013950Y-7483800D01*
X7140950Y-7418400D02*
X7180950Y-7458400D01*
X7180950Y-7418400D02*
X7140950Y-7458400D01*
X7156600Y-9877400D02*
X7196600Y-9917400D01*
X7196600Y-9877400D02*
X7156600Y-9917400D01*
X7156600Y-10156800D02*
X7196600Y-10196800D01*
X7196600Y-10156800D02*
X7156600Y-10196800D01*
X7166350Y-4649800D02*
X7206350Y-4689800D01*
X7206350Y-4649800D02*
X7166350Y-4689800D01*
X7166350Y-4878400D02*
X7206350Y-4918400D01*
X7206350Y-4878400D02*
X7166350Y-4918400D01*
X7318750Y-6173800D02*
X7358750Y-6213800D01*
X7358750Y-6173800D02*
X7318750Y-6213800D01*
X7318750Y-7697800D02*
X7358750Y-7737800D01*
X7358750Y-7697800D02*
X7318750Y-7737800D01*
X7318750Y-8561400D02*
X7358750Y-8601400D01*
X7358750Y-8561400D02*
X7318750Y-8601400D01*
X7318750Y-8713800D02*
X7358750Y-8753800D01*
X7358750Y-8713800D02*
X7318750Y-8753800D01*
X7334400Y-6965000D02*
X7374400Y-7005000D01*
X7374400Y-6965000D02*
X7334400Y-7005000D01*
X7436000Y-6863400D02*
X7476000Y-6903400D01*
X7476000Y-6863400D02*
X7436000Y-6903400D01*
X7461400Y-6228400D02*
X7501400Y-6268400D01*
X7501400Y-6228400D02*
X7461400Y-6268400D01*
X7461400Y-6380800D02*
X7501400Y-6420800D01*
X7501400Y-6380800D02*
X7461400Y-6420800D01*
X7496550Y-6046800D02*
X7536550Y-6086800D01*
X7536550Y-6046800D02*
X7496550Y-6086800D01*
X7563000Y-5822000D02*
X7603000Y-5862000D01*
X7603000Y-5822000D02*
X7563000Y-5862000D01*
X7563000Y-6812600D02*
X7603000Y-6852600D01*
X7603000Y-6812600D02*
X7563000Y-6852600D01*
X7572750Y-11050600D02*
X7612750Y-11090600D01*
X7612750Y-11050600D02*
X7572750Y-11090600D01*
X7598150Y-6605600D02*
X7638150Y-6645600D01*
X7638150Y-6605600D02*
X7598150Y-6645600D01*
X7623550Y-7443800D02*
X7663550Y-7483800D01*
X7663550Y-7443800D02*
X7623550Y-7483800D01*
X7664600Y-4145600D02*
X7704600Y-4185600D01*
X7704600Y-4145600D02*
X7664600Y-4185600D01*
X7664600Y-4475800D02*
X7704600Y-4515800D01*
X7704600Y-4475800D02*
X7664600Y-4515800D01*
X7664600Y-5898200D02*
X7704600Y-5938200D01*
X7704600Y-5898200D02*
X7664600Y-5938200D01*
X7928350Y-4243400D02*
X7968350Y-4283400D01*
X7968350Y-4243400D02*
X7928350Y-4283400D01*
X7969400Y-8150200D02*
X8009400Y-8190200D01*
X8009400Y-8150200D02*
X7969400Y-8190200D01*
X8071000Y-8429600D02*
X8111000Y-8469600D01*
X8111000Y-8429600D02*
X8071000Y-8469600D01*
X8096400Y-3654400D02*
X8136400Y-3694400D01*
X8136400Y-3654400D02*
X8096400Y-3694400D01*
X8664950Y-8790000D02*
X8704950Y-8830000D01*
X8704950Y-8790000D02*
X8664950Y-8830000D01*
X8756800Y-5965800D02*
X8796800Y-6005800D01*
X8796800Y-5965800D02*
X8756800Y-6005800D01*
X8756800Y-6270600D02*
X8796800Y-6310600D01*
X8796800Y-6270600D02*
X8756800Y-6310600D01*
X8756800Y-7697800D02*
X8796800Y-7737800D01*
X8796800Y-7697800D02*
X8756800Y-7737800D01*
X8756800Y-8023200D02*
X8796800Y-8063200D01*
X8796800Y-8023200D02*
X8756800Y-8063200D01*
X8756800Y-9547200D02*
X8796800Y-9587200D01*
X8796800Y-9547200D02*
X8756800Y-9587200D01*
X8756800Y-9852000D02*
X8796800Y-9892000D01*
X8796800Y-9852000D02*
X8756800Y-9892000D01*
X9147550Y-3684600D02*
X9187550Y-3724600D01*
X9187550Y-3684600D02*
X9147550Y-3724600D01*
X9350750Y-11203000D02*
X9390750Y-11243000D01*
X9390750Y-11203000D02*
X9350750Y-11243000D01*
X9426950Y-5310200D02*
X9466950Y-5350200D01*
X9466950Y-5310200D02*
X9426950Y-5350200D01*
X9426950Y-8917000D02*
X9466950Y-8957000D01*
X9466950Y-8917000D02*
X9426950Y-8957000D01*
X9452350Y-7113600D02*
X9492350Y-7153600D01*
X9492350Y-7113600D02*
X9452350Y-7153600D01*
X9452350Y-10745800D02*
X9492350Y-10785800D01*
X9492350Y-10745800D02*
X9452350Y-10785800D01*
X9553950Y-5538800D02*
X9593950Y-5578800D01*
X9593950Y-5538800D02*
X9553950Y-5578800D01*
X9807950Y-4167200D02*
X9847950Y-4207200D01*
X9847950Y-4167200D02*
X9807950Y-4207200D01*
X9807950Y-7748600D02*
X9847950Y-7788600D01*
X9847950Y-7748600D02*
X9807950Y-7788600D01*
X9807950Y-9602800D02*
X9847950Y-9642800D01*
X9847950Y-9602800D02*
X9807950Y-9642800D01*
X10315950Y-5615000D02*
X10355950Y-5655000D01*
X10355950Y-5615000D02*
X10315950Y-5655000D01*
X10661800Y-5635600D02*
X10701800Y-5675600D01*
X10701800Y-5635600D02*
X10661800Y-5675600D01*
X10661800Y-5915000D02*
X10701800Y-5955000D01*
X10701800Y-5915000D02*
X10661800Y-5955000D01*
X10661800Y-7342200D02*
X10701800Y-7382200D01*
X10701800Y-7342200D02*
X10661800Y-7382200D01*
X10661800Y-7718400D02*
X10701800Y-7758400D01*
X10701800Y-7718400D02*
X10661800Y-7758400D01*
X10661800Y-9242400D02*
X10701800Y-9282400D01*
X10701800Y-9242400D02*
X10661800Y-9282400D01*
X10661800Y-9547200D02*
X10701800Y-9587200D01*
X10701800Y-9547200D02*
X10661800Y-9587200D01*
X10900150Y-5564200D02*
X10940150Y-5604200D01*
X10940150Y-5564200D02*
X10900150Y-5604200D01*
X11077950Y-4167200D02*
X11117950Y-4207200D01*
X11117950Y-4167200D02*
X11077950Y-4207200D01*
X11103350Y-5970600D02*
X11143350Y-6010600D01*
X11143350Y-5970600D02*
X11103350Y-6010600D01*
X11306550Y-5005400D02*
X11346550Y-5045400D01*
X11346550Y-5005400D02*
X11306550Y-5045400D01*
X11331950Y-6834200D02*
X11371950Y-6874200D01*
X11371950Y-6834200D02*
X11331950Y-6874200D01*
X11331950Y-8637600D02*
X11371950Y-8677600D01*
X11371950Y-8637600D02*
X11331950Y-8677600D01*
X11331950Y-10415600D02*
X11371950Y-10455600D01*
X11371950Y-10415600D02*
X11331950Y-10455600D01*
X11687550Y-9298000D02*
X11727550Y-9338000D01*
X11727550Y-9298000D02*
X11687550Y-9338000D01*
X11712950Y-7469200D02*
X11752950Y-7509200D01*
X11752950Y-7469200D02*
X11712950Y-7509200D01*
X12566800Y-5330800D02*
X12606800Y-5370800D01*
X12606800Y-5330800D02*
X12566800Y-5370800D01*
X12566800Y-5610200D02*
X12606800Y-5650200D01*
X12606800Y-5610200D02*
X12566800Y-5650200D01*
X12566800Y-7134200D02*
X12606800Y-7174200D01*
X12606800Y-7134200D02*
X12566800Y-7174200D01*
X12566800Y-7413600D02*
X12606800Y-7453600D01*
X12606800Y-7413600D02*
X12566800Y-7453600D01*
X12566800Y-8937600D02*
X12606800Y-8977600D01*
X12606800Y-8937600D02*
X12566800Y-8977600D01*
X12566800Y-9217000D02*
X12606800Y-9257000D01*
X12606800Y-9217000D02*
X12566800Y-9257000D01*
X13049400Y-10546400D02*
X13089400Y-10586400D01*
X13089400Y-10546400D02*
X13049400Y-10586400D01*
X13059150Y-6148400D02*
X13099150Y-6188400D01*
X13099150Y-6148400D02*
X13059150Y-6188400D01*
X13084550Y-5234000D02*
X13124550Y-5274000D01*
X13124550Y-5234000D02*
X13084550Y-5274000D01*
X13186150Y-3430600D02*
X13226150Y-3470600D01*
X13226150Y-3430600D02*
X13186150Y-3470600D01*
X13236950Y-8637600D02*
X13276950Y-8677600D01*
X13276950Y-8637600D02*
X13236950Y-8677600D01*
X13236950Y-10415600D02*
X13276950Y-10455600D01*
X13276950Y-10415600D02*
X13236950Y-10455600D01*
X13592550Y-3887800D02*
X13632550Y-3927800D01*
X13632550Y-3887800D02*
X13592550Y-3927800D01*
X13617950Y-9272600D02*
X13657950Y-9312600D01*
X13657950Y-9272600D02*
X13617950Y-9312600D01*
X13643350Y-7469200D02*
X13683350Y-7509200D01*
X13683350Y-7469200D02*
X13643350Y-7509200D01*
X14075150Y-5335600D02*
X14115150Y-5375600D01*
X14115150Y-5335600D02*
X14075150Y-5375600D01*
X14446400Y-5330800D02*
X14486400Y-5370800D01*
X14486400Y-5330800D02*
X14446400Y-5370800D01*
X14446400Y-5610200D02*
X14486400Y-5650200D01*
X14486400Y-5610200D02*
X14446400Y-5650200D01*
X14446400Y-7134200D02*
X14486400Y-7174200D01*
X14486400Y-7134200D02*
X14446400Y-7174200D01*
X14446400Y-7413600D02*
X14486400Y-7453600D01*
X14486400Y-7413600D02*
X14446400Y-7453600D01*
X15116550Y-5335600D02*
X15156550Y-5375600D01*
X15156550Y-5335600D02*
X15116550Y-5375600D01*
X15116550Y-8917000D02*
X15156550Y-8957000D01*
X15156550Y-8917000D02*
X15116550Y-8957000D01*
X15141950Y-7113600D02*
X15181950Y-7153600D01*
X15181950Y-7113600D02*
X15141950Y-7153600D01*
X15497550Y-4192600D02*
X15537550Y-4232600D01*
X15537550Y-4192600D02*
X15497550Y-4232600D01*
X15497550Y-7774000D02*
X15537550Y-7814000D01*
X15537550Y-7774000D02*
X15497550Y-7814000D01*
X15980150Y-5589600D02*
X16020150Y-5629600D01*
X16020150Y-5589600D02*
X15980150Y-5629600D01*
X16351400Y-5635600D02*
X16391400Y-5675600D01*
X16391400Y-5635600D02*
X16351400Y-5675600D01*
X16351400Y-5889600D02*
X16391400Y-5929600D01*
X16391400Y-5889600D02*
X16351400Y-5929600D01*
X16351400Y-7439000D02*
X16391400Y-7479000D01*
X16391400Y-7439000D02*
X16351400Y-7479000D01*
X16351400Y-7693000D02*
X16391400Y-7733000D01*
X16391400Y-7693000D02*
X16351400Y-7733000D01*
X16478400Y-9073200D02*
X16518400Y-9113200D01*
X16518400Y-9073200D02*
X16478400Y-9113200D01*
X17021550Y-7139000D02*
X17061550Y-7179000D01*
X17061550Y-7139000D02*
X17021550Y-7179000D01*
X17021550Y-8942400D02*
X17061550Y-8982400D01*
X17061550Y-8942400D02*
X17021550Y-8982400D01*
X17377150Y-4167200D02*
X17417150Y-4207200D01*
X17417150Y-4167200D02*
X17377150Y-4207200D01*
X17402550Y-7774000D02*
X17442550Y-7814000D01*
X17442550Y-7774000D02*
X17402550Y-7814000D01*
X17427950Y-5970600D02*
X17467950Y-6010600D01*
X17467950Y-5970600D02*
X17427950Y-6010600D01*
D13*
X5374750Y-4017000D02*
G75*
G03*
X5374750Y-4017000I-40000J0D01*
G01*
X5374750Y-4271000D02*
G75*
G03*
X5374750Y-4271000I-40000J0D01*
G01*
X5374750Y-4525000D02*
G75*
G03*
X5374750Y-4525000I-40000J0D01*
G01*
X5374750Y-4779000D02*
G75*
G03*
X5374750Y-4779000I-40000J0D01*
G01*
X5374750Y-5033000D02*
G75*
G03*
X5374750Y-5033000I-40000J0D01*
G01*
X5374750Y-5287000D02*
G75*
G03*
X5374750Y-5287000I-40000J0D01*
G01*
X5374750Y-5541000D02*
G75*
G03*
X5374750Y-5541000I-40000J0D01*
G01*
X5374750Y-5795000D02*
G75*
G03*
X5374750Y-5795000I-40000J0D01*
G01*
X5374750Y-6049000D02*
G75*
G03*
X5374750Y-6049000I-40000J0D01*
G01*
X5374750Y-6303000D02*
G75*
G03*
X5374750Y-6303000I-40000J0D01*
G01*
X5374750Y-6557000D02*
G75*
G03*
X5374750Y-6557000I-40000J0D01*
G01*
X5374750Y-6811000D02*
G75*
G03*
X5374750Y-6811000I-40000J0D01*
G01*
X6898750Y-4017000D02*
G75*
G03*
X6898750Y-4017000I-40000J0D01*
G01*
X6898750Y-4271000D02*
G75*
G03*
X6898750Y-4271000I-40000J0D01*
G01*
X6898750Y-4525000D02*
G75*
G03*
X6898750Y-4525000I-40000J0D01*
G01*
X6898750Y-4779000D02*
G75*
G03*
X6898750Y-4779000I-40000J0D01*
G01*
X6898750Y-5033000D02*
G75*
G03*
X6898750Y-5033000I-40000J0D01*
G01*
X6898750Y-5287000D02*
G75*
G03*
X6898750Y-5287000I-40000J0D01*
G01*
X6898750Y-5541000D02*
G75*
G03*
X6898750Y-5541000I-40000J0D01*
G01*
X6898750Y-5795000D02*
G75*
G03*
X6898750Y-5795000I-40000J0D01*
G01*
X6898750Y-6049000D02*
G75*
G03*
X6898750Y-6049000I-40000J0D01*
G01*
X6898750Y-6303000D02*
G75*
G03*
X6898750Y-6303000I-40000J0D01*
G01*
X6898750Y-6557000D02*
G75*
G03*
X6898750Y-6557000I-40000J0D01*
G01*
X6898750Y-6811000D02*
G75*
G03*
X6898750Y-6811000I-40000J0D01*
G01*
X7218200Y-4292600D02*
G75*
G03*
X7218200Y-4292600I-40000J0D01*
G01*
X7418200Y-4292600D02*
G75*
G03*
X7418200Y-4292600I-40000J0D01*
G01*
D14*
X5397250Y-7718000D02*
X5397250Y-7808000D01*
X5352250Y-7763000D02*
X5442250Y-7763000D01*
X5519750Y-7957000D02*
X5519750Y-8047000D01*
X5474750Y-8002000D02*
X5564750Y-8002000D01*
X5519750Y-8211000D02*
X5519750Y-8301000D01*
X5474750Y-8256000D02*
X5564750Y-8256000D01*
X5519750Y-8465000D02*
X5519750Y-8555000D01*
X5474750Y-8510000D02*
X5564750Y-8510000D01*
X5519750Y-8719000D02*
X5519750Y-8809000D01*
X5474750Y-8764000D02*
X5564750Y-8764000D01*
X5582250Y-7718000D02*
X5582250Y-7808000D01*
X5537250Y-7763000D02*
X5627250Y-7763000D01*
D10*
X5624106Y-7363356D02*
X5624106Y-7292644D01*
X5553394Y-7292644D01*
X5553394Y-7363356D01*
X5624106Y-7363356D01*
X5878106Y-7363356D02*
X5878106Y-7292644D01*
X5807394Y-7292644D01*
X5807394Y-7363356D01*
X5878106Y-7363356D01*
X6132106Y-7363356D02*
X6132106Y-7292644D01*
X6061394Y-7292644D01*
X6061394Y-7363356D01*
X6132106Y-7363356D01*
X6386106Y-7363356D02*
X6386106Y-7292644D01*
X6315394Y-7292644D01*
X6315394Y-7363356D01*
X6386106Y-7363356D01*
X6640106Y-7363356D02*
X6640106Y-7292644D01*
X6569394Y-7292644D01*
X6569394Y-7363356D01*
X6640106Y-7363356D01*
D11*
X5130727Y-12072884D02*
X5130727Y-11872884D01*
X5130727Y-11872884D02*
X5178346Y-11872884D01*
X5178346Y-11872884D02*
X5206917Y-11882408D01*
X5206917Y-11882408D02*
X5225965Y-11901455D01*
X5225965Y-11901455D02*
X5235489Y-11920503D01*
X5235489Y-11920503D02*
X5245013Y-11958598D01*
X5245013Y-11958598D02*
X5245013Y-11987169D01*
X5245013Y-11987169D02*
X5235489Y-12025265D01*
X5235489Y-12025265D02*
X5225965Y-12044312D01*
X5225965Y-12044312D02*
X5206917Y-12063360D01*
X5206917Y-12063360D02*
X5178346Y-12072884D01*
X5178346Y-12072884D02*
X5130727Y-12072884D01*
X5330727Y-12072884D02*
X5330727Y-11939550D01*
X5330727Y-11977646D02*
X5340251Y-11958598D01*
X5340251Y-11958598D02*
X5349774Y-11949074D01*
X5349774Y-11949074D02*
X5368822Y-11939550D01*
X5368822Y-11939550D02*
X5387870Y-11939550D01*
X5454536Y-12072884D02*
X5454536Y-11939550D01*
X5454536Y-11872884D02*
X5445013Y-11882408D01*
X5445013Y-11882408D02*
X5454536Y-11891931D01*
X5454536Y-11891931D02*
X5464060Y-11882408D01*
X5464060Y-11882408D02*
X5454536Y-11872884D01*
X5454536Y-11872884D02*
X5454536Y-11891931D01*
X5578346Y-12072884D02*
X5559298Y-12063360D01*
X5559298Y-12063360D02*
X5549774Y-12044312D01*
X5549774Y-12044312D02*
X5549774Y-11872884D01*
X5683108Y-12072884D02*
X5664060Y-12063360D01*
X5664060Y-12063360D02*
X5654536Y-12044312D01*
X5654536Y-12044312D02*
X5654536Y-11872884D01*
X5911679Y-12072884D02*
X5911679Y-11872884D01*
X5911679Y-11872884D02*
X5978346Y-12015741D01*
X5978346Y-12015741D02*
X6045012Y-11872884D01*
X6045012Y-11872884D02*
X6045012Y-12072884D01*
X6225965Y-12072884D02*
X6225965Y-11968122D01*
X6225965Y-11968122D02*
X6216441Y-11949074D01*
X6216441Y-11949074D02*
X6197393Y-11939550D01*
X6197393Y-11939550D02*
X6159298Y-11939550D01*
X6159298Y-11939550D02*
X6140251Y-11949074D01*
X6225965Y-12063360D02*
X6206917Y-12072884D01*
X6206917Y-12072884D02*
X6159298Y-12072884D01*
X6159298Y-12072884D02*
X6140251Y-12063360D01*
X6140251Y-12063360D02*
X6130727Y-12044312D01*
X6130727Y-12044312D02*
X6130727Y-12025265D01*
X6130727Y-12025265D02*
X6140251Y-12006217D01*
X6140251Y-12006217D02*
X6159298Y-11996693D01*
X6159298Y-11996693D02*
X6206917Y-11996693D01*
X6206917Y-11996693D02*
X6225965Y-11987169D01*
X6321203Y-11939550D02*
X6321203Y-12139550D01*
X6321203Y-11949074D02*
X6340251Y-11939550D01*
X6340251Y-11939550D02*
X6378346Y-11939550D01*
X6378346Y-11939550D02*
X6397393Y-11949074D01*
X6397393Y-11949074D02*
X6406917Y-11958598D01*
X6406917Y-11958598D02*
X6416441Y-11977646D01*
X6416441Y-11977646D02*
X6416441Y-12034788D01*
X6416441Y-12034788D02*
X6406917Y-12053836D01*
X6406917Y-12053836D02*
X6397393Y-12063360D01*
X6397393Y-12063360D02*
X6378346Y-12072884D01*
X6378346Y-12072884D02*
X6340251Y-12072884D01*
X6340251Y-12072884D02*
X6321203Y-12063360D01*
X6502155Y-12053836D02*
X6511679Y-12063360D01*
X6511679Y-12063360D02*
X6502155Y-12072884D01*
X6502155Y-12072884D02*
X6492632Y-12063360D01*
X6492632Y-12063360D02*
X6502155Y-12053836D01*
X6502155Y-12053836D02*
X6502155Y-12072884D01*
X6502155Y-11949074D02*
X6511679Y-11958598D01*
X6511679Y-11958598D02*
X6502155Y-11968122D01*
X6502155Y-11968122D02*
X6492632Y-11958598D01*
X6492632Y-11958598D02*
X6502155Y-11949074D01*
X6502155Y-11949074D02*
X6502155Y-11968122D01*
D12*
X4829950Y-12381400D02*
X4869950Y-12421400D01*
X4869950Y-12381400D02*
X4829950Y-12421400D01*
D11*
X5168822Y-12292884D02*
X5187870Y-12292884D01*
X5187870Y-12292884D02*
X5206917Y-12302408D01*
X5206917Y-12302408D02*
X5216441Y-12311931D01*
X5216441Y-12311931D02*
X5225965Y-12330979D01*
X5225965Y-12330979D02*
X5235489Y-12369074D01*
X5235489Y-12369074D02*
X5235489Y-12416693D01*
X5235489Y-12416693D02*
X5225965Y-12454788D01*
X5225965Y-12454788D02*
X5216441Y-12473836D01*
X5216441Y-12473836D02*
X5206917Y-12483360D01*
X5206917Y-12483360D02*
X5187870Y-12492884D01*
X5187870Y-12492884D02*
X5168822Y-12492884D01*
X5168822Y-12492884D02*
X5149774Y-12483360D01*
X5149774Y-12483360D02*
X5140251Y-12473836D01*
X5140251Y-12473836D02*
X5130727Y-12454788D01*
X5130727Y-12454788D02*
X5121203Y-12416693D01*
X5121203Y-12416693D02*
X5121203Y-12369074D01*
X5121203Y-12369074D02*
X5130727Y-12330979D01*
X5130727Y-12330979D02*
X5140251Y-12311931D01*
X5140251Y-12311931D02*
X5149774Y-12302408D01*
X5149774Y-12302408D02*
X5168822Y-12292884D01*
X5321203Y-12473836D02*
X5330727Y-12483360D01*
X5330727Y-12483360D02*
X5321203Y-12492884D01*
X5321203Y-12492884D02*
X5311679Y-12483360D01*
X5311679Y-12483360D02*
X5321203Y-12473836D01*
X5321203Y-12473836D02*
X5321203Y-12492884D01*
X5502155Y-12359550D02*
X5502155Y-12492884D01*
X5454536Y-12283360D02*
X5406917Y-12426217D01*
X5406917Y-12426217D02*
X5530727Y-12426217D01*
X5645012Y-12292884D02*
X5664060Y-12292884D01*
X5664060Y-12292884D02*
X5683108Y-12302408D01*
X5683108Y-12302408D02*
X5692632Y-12311931D01*
X5692632Y-12311931D02*
X5702155Y-12330979D01*
X5702155Y-12330979D02*
X5711679Y-12369074D01*
X5711679Y-12369074D02*
X5711679Y-12416693D01*
X5711679Y-12416693D02*
X5702155Y-12454788D01*
X5702155Y-12454788D02*
X5692632Y-12473836D01*
X5692632Y-12473836D02*
X5683108Y-12483360D01*
X5683108Y-12483360D02*
X5664060Y-12492884D01*
X5664060Y-12492884D02*
X5645012Y-12492884D01*
X5645012Y-12492884D02*
X5625965Y-12483360D01*
X5625965Y-12483360D02*
X5616441Y-12473836D01*
X5616441Y-12473836D02*
X5606917Y-12454788D01*
X5606917Y-12454788D02*
X5597393Y-12416693D01*
X5597393Y-12416693D02*
X5597393Y-12369074D01*
X5597393Y-12369074D02*
X5606917Y-12330979D01*
X5606917Y-12330979D02*
X5616441Y-12311931D01*
X5616441Y-12311931D02*
X5625965Y-12302408D01*
X5625965Y-12302408D02*
X5645012Y-12292884D01*
X5835489Y-12292884D02*
X5854536Y-12292884D01*
X5854536Y-12292884D02*
X5873584Y-12302408D01*
X5873584Y-12302408D02*
X5883108Y-12311931D01*
X5883108Y-12311931D02*
X5892632Y-12330979D01*
X5892632Y-12330979D02*
X5902155Y-12369074D01*
X5902155Y-12369074D02*
X5902155Y-12416693D01*
X5902155Y-12416693D02*
X5892632Y-12454788D01*
X5892632Y-12454788D02*
X5883108Y-12473836D01*
X5883108Y-12473836D02*
X5873584Y-12483360D01*
X5873584Y-12483360D02*
X5854536Y-12492884D01*
X5854536Y-12492884D02*
X5835489Y-12492884D01*
X5835489Y-12492884D02*
X5816441Y-12483360D01*
X5816441Y-12483360D02*
X5806917Y-12473836D01*
X5806917Y-12473836D02*
X5797393Y-12454788D01*
X5797393Y-12454788D02*
X5787870Y-12416693D01*
X5787870Y-12416693D02*
X5787870Y-12369074D01*
X5787870Y-12369074D02*
X5797393Y-12330979D01*
X5797393Y-12330979D02*
X5806917Y-12311931D01*
X5806917Y-12311931D02*
X5816441Y-12302408D01*
X5816441Y-12302408D02*
X5835489Y-12292884D01*
X5987870Y-12492884D02*
X5987870Y-12359550D01*
X5987870Y-12378598D02*
X5997393Y-12369074D01*
X5997393Y-12369074D02*
X6016441Y-12359550D01*
X6016441Y-12359550D02*
X6045013Y-12359550D01*
X6045013Y-12359550D02*
X6064060Y-12369074D01*
X6064060Y-12369074D02*
X6073584Y-12388122D01*
X6073584Y-12388122D02*
X6073584Y-12492884D01*
X6073584Y-12388122D02*
X6083108Y-12369074D01*
X6083108Y-12369074D02*
X6102155Y-12359550D01*
X6102155Y-12359550D02*
X6130727Y-12359550D01*
X6130727Y-12359550D02*
X6149774Y-12369074D01*
X6149774Y-12369074D02*
X6159298Y-12388122D01*
X6159298Y-12388122D02*
X6159298Y-12492884D01*
X6254536Y-12492884D02*
X6254536Y-12359550D01*
X6254536Y-12378598D02*
X6264060Y-12369074D01*
X6264060Y-12369074D02*
X6283108Y-12359550D01*
X6283108Y-12359550D02*
X6311679Y-12359550D01*
X6311679Y-12359550D02*
X6330727Y-12369074D01*
X6330727Y-12369074D02*
X6340251Y-12388122D01*
X6340251Y-12388122D02*
X6340251Y-12492884D01*
X6340251Y-12388122D02*
X6349774Y-12369074D01*
X6349774Y-12369074D02*
X6368822Y-12359550D01*
X6368822Y-12359550D02*
X6397393Y-12359550D01*
X6397393Y-12359550D02*
X6416441Y-12369074D01*
X6416441Y-12369074D02*
X6425965Y-12388122D01*
X6425965Y-12388122D02*
X6425965Y-12492884D01*
X6816441Y-12283360D02*
X6645013Y-12540503D01*
X7073584Y-12292884D02*
X7092632Y-12292884D01*
X7092632Y-12292884D02*
X7111679Y-12302408D01*
X7111679Y-12302408D02*
X7121203Y-12311931D01*
X7121203Y-12311931D02*
X7130727Y-12330979D01*
X7130727Y-12330979D02*
X7140251Y-12369074D01*
X7140251Y-12369074D02*
X7140251Y-12416693D01*
X7140251Y-12416693D02*
X7130727Y-12454788D01*
X7130727Y-12454788D02*
X7121203Y-12473836D01*
X7121203Y-12473836D02*
X7111679Y-12483360D01*
X7111679Y-12483360D02*
X7092632Y-12492884D01*
X7092632Y-12492884D02*
X7073584Y-12492884D01*
X7073584Y-12492884D02*
X7054536Y-12483360D01*
X7054536Y-12483360D02*
X7045013Y-12473836D01*
X7045013Y-12473836D02*
X7035489Y-12454788D01*
X7035489Y-12454788D02*
X7025965Y-12416693D01*
X7025965Y-12416693D02*
X7025965Y-12369074D01*
X7025965Y-12369074D02*
X7035489Y-12330979D01*
X7035489Y-12330979D02*
X7045013Y-12311931D01*
X7045013Y-12311931D02*
X7054536Y-12302408D01*
X7054536Y-12302408D02*
X7073584Y-12292884D01*
X7225965Y-12473836D02*
X7235489Y-12483360D01*
X7235489Y-12483360D02*
X7225965Y-12492884D01*
X7225965Y-12492884D02*
X7216441Y-12483360D01*
X7216441Y-12483360D02*
X7225965Y-12473836D01*
X7225965Y-12473836D02*
X7225965Y-12492884D01*
X7359298Y-12292884D02*
X7378346Y-12292884D01*
X7378346Y-12292884D02*
X7397394Y-12302408D01*
X7397394Y-12302408D02*
X7406917Y-12311931D01*
X7406917Y-12311931D02*
X7416441Y-12330979D01*
X7416441Y-12330979D02*
X7425965Y-12369074D01*
X7425965Y-12369074D02*
X7425965Y-12416693D01*
X7425965Y-12416693D02*
X7416441Y-12454788D01*
X7416441Y-12454788D02*
X7406917Y-12473836D01*
X7406917Y-12473836D02*
X7397394Y-12483360D01*
X7397394Y-12483360D02*
X7378346Y-12492884D01*
X7378346Y-12492884D02*
X7359298Y-12492884D01*
X7359298Y-12492884D02*
X7340251Y-12483360D01*
X7340251Y-12483360D02*
X7330727Y-12473836D01*
X7330727Y-12473836D02*
X7321203Y-12454788D01*
X7321203Y-12454788D02*
X7311679Y-12416693D01*
X7311679Y-12416693D02*
X7311679Y-12369074D01*
X7311679Y-12369074D02*
X7321203Y-12330979D01*
X7321203Y-12330979D02*
X7330727Y-12311931D01*
X7330727Y-12311931D02*
X7340251Y-12302408D01*
X7340251Y-12302408D02*
X7359298Y-12292884D01*
X7616441Y-12492884D02*
X7502156Y-12492884D01*
X7559298Y-12492884D02*
X7559298Y-12292884D01*
X7559298Y-12292884D02*
X7540251Y-12321455D01*
X7540251Y-12321455D02*
X7521203Y-12340503D01*
X7521203Y-12340503D02*
X7502156Y-12350027D01*
X7797394Y-12292884D02*
X7702156Y-12292884D01*
X7702156Y-12292884D02*
X7692632Y-12388122D01*
X7692632Y-12388122D02*
X7702156Y-12378598D01*
X7702156Y-12378598D02*
X7721203Y-12369074D01*
X7721203Y-12369074D02*
X7768822Y-12369074D01*
X7768822Y-12369074D02*
X7787870Y-12378598D01*
X7787870Y-12378598D02*
X7797394Y-12388122D01*
X7797394Y-12388122D02*
X7806917Y-12407169D01*
X7806917Y-12407169D02*
X7806917Y-12454788D01*
X7806917Y-12454788D02*
X7797394Y-12473836D01*
X7797394Y-12473836D02*
X7787870Y-12483360D01*
X7787870Y-12483360D02*
X7768822Y-12492884D01*
X7768822Y-12492884D02*
X7721203Y-12492884D01*
X7721203Y-12492884D02*
X7702156Y-12483360D01*
X7702156Y-12483360D02*
X7692632Y-12473836D01*
X7873584Y-12292884D02*
X8006917Y-12292884D01*
X8006917Y-12292884D02*
X7921203Y-12492884D01*
X8073584Y-12292884D02*
X8073584Y-12330979D01*
X8149775Y-12292884D02*
X8149775Y-12330979D01*
X8445013Y-12569074D02*
X8435489Y-12559550D01*
X8435489Y-12559550D02*
X8416441Y-12530979D01*
X8416441Y-12530979D02*
X8406918Y-12511931D01*
X8406918Y-12511931D02*
X8397394Y-12483360D01*
X8397394Y-12483360D02*
X8387870Y-12435741D01*
X8387870Y-12435741D02*
X8387870Y-12397646D01*
X8387870Y-12397646D02*
X8397394Y-12350027D01*
X8397394Y-12350027D02*
X8406918Y-12321455D01*
X8406918Y-12321455D02*
X8416441Y-12302408D01*
X8416441Y-12302408D02*
X8435489Y-12273836D01*
X8435489Y-12273836D02*
X8445013Y-12264312D01*
X8625965Y-12492884D02*
X8511680Y-12492884D01*
X8568822Y-12492884D02*
X8568822Y-12292884D01*
X8568822Y-12292884D02*
X8549775Y-12321455D01*
X8549775Y-12321455D02*
X8530727Y-12340503D01*
X8530727Y-12340503D02*
X8511680Y-12350027D01*
X8816441Y-12492884D02*
X8702156Y-12492884D01*
X8759299Y-12492884D02*
X8759299Y-12292884D01*
X8759299Y-12292884D02*
X8740251Y-12321455D01*
X8740251Y-12321455D02*
X8721203Y-12340503D01*
X8721203Y-12340503D02*
X8702156Y-12350027D01*
X8940251Y-12292884D02*
X8959299Y-12292884D01*
X8959299Y-12292884D02*
X8978346Y-12302408D01*
X8978346Y-12302408D02*
X8987870Y-12311931D01*
X8987870Y-12311931D02*
X8997394Y-12330979D01*
X8997394Y-12330979D02*
X9006918Y-12369074D01*
X9006918Y-12369074D02*
X9006918Y-12416693D01*
X9006918Y-12416693D02*
X8997394Y-12454788D01*
X8997394Y-12454788D02*
X8987870Y-12473836D01*
X8987870Y-12473836D02*
X8978346Y-12483360D01*
X8978346Y-12483360D02*
X8959299Y-12492884D01*
X8959299Y-12492884D02*
X8940251Y-12492884D01*
X8940251Y-12492884D02*
X8921203Y-12483360D01*
X8921203Y-12483360D02*
X8911680Y-12473836D01*
X8911680Y-12473836D02*
X8902156Y-12454788D01*
X8902156Y-12454788D02*
X8892632Y-12416693D01*
X8892632Y-12416693D02*
X8892632Y-12369074D01*
X8892632Y-12369074D02*
X8902156Y-12330979D01*
X8902156Y-12330979D02*
X8911680Y-12311931D01*
X8911680Y-12311931D02*
X8921203Y-12302408D01*
X8921203Y-12302408D02*
X8940251Y-12292884D01*
X9245013Y-12492884D02*
X9245013Y-12292884D01*
X9330727Y-12492884D02*
X9330727Y-12388122D01*
X9330727Y-12388122D02*
X9321203Y-12369074D01*
X9321203Y-12369074D02*
X9302156Y-12359550D01*
X9302156Y-12359550D02*
X9273584Y-12359550D01*
X9273584Y-12359550D02*
X9254537Y-12369074D01*
X9254537Y-12369074D02*
X9245013Y-12378598D01*
X9454537Y-12492884D02*
X9435489Y-12483360D01*
X9435489Y-12483360D02*
X9425965Y-12473836D01*
X9425965Y-12473836D02*
X9416442Y-12454788D01*
X9416442Y-12454788D02*
X9416442Y-12397646D01*
X9416442Y-12397646D02*
X9425965Y-12378598D01*
X9425965Y-12378598D02*
X9435489Y-12369074D01*
X9435489Y-12369074D02*
X9454537Y-12359550D01*
X9454537Y-12359550D02*
X9483108Y-12359550D01*
X9483108Y-12359550D02*
X9502156Y-12369074D01*
X9502156Y-12369074D02*
X9511680Y-12378598D01*
X9511680Y-12378598D02*
X9521203Y-12397646D01*
X9521203Y-12397646D02*
X9521203Y-12454788D01*
X9521203Y-12454788D02*
X9511680Y-12473836D01*
X9511680Y-12473836D02*
X9502156Y-12483360D01*
X9502156Y-12483360D02*
X9483108Y-12492884D01*
X9483108Y-12492884D02*
X9454537Y-12492884D01*
X9635489Y-12492884D02*
X9616442Y-12483360D01*
X9616442Y-12483360D02*
X9606918Y-12464312D01*
X9606918Y-12464312D02*
X9606918Y-12292884D01*
X9787870Y-12483360D02*
X9768823Y-12492884D01*
X9768823Y-12492884D02*
X9730727Y-12492884D01*
X9730727Y-12492884D02*
X9711680Y-12483360D01*
X9711680Y-12483360D02*
X9702156Y-12464312D01*
X9702156Y-12464312D02*
X9702156Y-12388122D01*
X9702156Y-12388122D02*
X9711680Y-12369074D01*
X9711680Y-12369074D02*
X9730727Y-12359550D01*
X9730727Y-12359550D02*
X9768823Y-12359550D01*
X9768823Y-12359550D02*
X9787870Y-12369074D01*
X9787870Y-12369074D02*
X9797394Y-12388122D01*
X9797394Y-12388122D02*
X9797394Y-12407169D01*
X9797394Y-12407169D02*
X9702156Y-12426217D01*
X9873584Y-12483360D02*
X9892632Y-12492884D01*
X9892632Y-12492884D02*
X9930727Y-12492884D01*
X9930727Y-12492884D02*
X9949775Y-12483360D01*
X9949775Y-12483360D02*
X9959299Y-12464312D01*
X9959299Y-12464312D02*
X9959299Y-12454788D01*
X9959299Y-12454788D02*
X9949775Y-12435741D01*
X9949775Y-12435741D02*
X9930727Y-12426217D01*
X9930727Y-12426217D02*
X9902156Y-12426217D01*
X9902156Y-12426217D02*
X9883108Y-12416693D01*
X9883108Y-12416693D02*
X9873584Y-12397646D01*
X9873584Y-12397646D02*
X9873584Y-12388122D01*
X9873584Y-12388122D02*
X9883108Y-12369074D01*
X9883108Y-12369074D02*
X9902156Y-12359550D01*
X9902156Y-12359550D02*
X9930727Y-12359550D01*
X9930727Y-12359550D02*
X9949775Y-12369074D01*
X10025965Y-12569074D02*
X10035489Y-12559550D01*
X10035489Y-12559550D02*
X10054537Y-12530979D01*
X10054537Y-12530979D02*
X10064061Y-12511931D01*
X10064061Y-12511931D02*
X10073584Y-12483360D01*
X10073584Y-12483360D02*
X10083108Y-12435741D01*
X10083108Y-12435741D02*
X10083108Y-12397646D01*
X10083108Y-12397646D02*
X10073584Y-12350027D01*
X10073584Y-12350027D02*
X10064061Y-12321455D01*
X10064061Y-12321455D02*
X10054537Y-12302408D01*
X10054537Y-12302408D02*
X10035489Y-12273836D01*
X10035489Y-12273836D02*
X10025965Y-12264312D01*
D13*
X4869950Y-12665400D02*
G75*
G03*
X4869950Y-12665400I-40000J0D01*
G01*
D11*
X5168822Y-12556884D02*
X5187870Y-12556884D01*
X5187870Y-12556884D02*
X5206917Y-12566408D01*
X5206917Y-12566408D02*
X5216441Y-12575931D01*
X5216441Y-12575931D02*
X5225965Y-12594979D01*
X5225965Y-12594979D02*
X5235489Y-12633074D01*
X5235489Y-12633074D02*
X5235489Y-12680693D01*
X5235489Y-12680693D02*
X5225965Y-12718788D01*
X5225965Y-12718788D02*
X5216441Y-12737836D01*
X5216441Y-12737836D02*
X5206917Y-12747360D01*
X5206917Y-12747360D02*
X5187870Y-12756884D01*
X5187870Y-12756884D02*
X5168822Y-12756884D01*
X5168822Y-12756884D02*
X5149774Y-12747360D01*
X5149774Y-12747360D02*
X5140251Y-12737836D01*
X5140251Y-12737836D02*
X5130727Y-12718788D01*
X5130727Y-12718788D02*
X5121203Y-12680693D01*
X5121203Y-12680693D02*
X5121203Y-12633074D01*
X5121203Y-12633074D02*
X5130727Y-12594979D01*
X5130727Y-12594979D02*
X5140251Y-12575931D01*
X5140251Y-12575931D02*
X5149774Y-12566408D01*
X5149774Y-12566408D02*
X5168822Y-12556884D01*
X5321203Y-12737836D02*
X5330727Y-12747360D01*
X5330727Y-12747360D02*
X5321203Y-12756884D01*
X5321203Y-12756884D02*
X5311679Y-12747360D01*
X5311679Y-12747360D02*
X5321203Y-12737836D01*
X5321203Y-12737836D02*
X5321203Y-12756884D01*
X5445013Y-12642598D02*
X5425965Y-12633074D01*
X5425965Y-12633074D02*
X5416441Y-12623550D01*
X5416441Y-12623550D02*
X5406917Y-12604503D01*
X5406917Y-12604503D02*
X5406917Y-12594979D01*
X5406917Y-12594979D02*
X5416441Y-12575931D01*
X5416441Y-12575931D02*
X5425965Y-12566408D01*
X5425965Y-12566408D02*
X5445013Y-12556884D01*
X5445013Y-12556884D02*
X5483108Y-12556884D01*
X5483108Y-12556884D02*
X5502155Y-12566408D01*
X5502155Y-12566408D02*
X5511679Y-12575931D01*
X5511679Y-12575931D02*
X5521203Y-12594979D01*
X5521203Y-12594979D02*
X5521203Y-12604503D01*
X5521203Y-12604503D02*
X5511679Y-12623550D01*
X5511679Y-12623550D02*
X5502155Y-12633074D01*
X5502155Y-12633074D02*
X5483108Y-12642598D01*
X5483108Y-12642598D02*
X5445013Y-12642598D01*
X5445013Y-12642598D02*
X5425965Y-12652122D01*
X5425965Y-12652122D02*
X5416441Y-12661646D01*
X5416441Y-12661646D02*
X5406917Y-12680693D01*
X5406917Y-12680693D02*
X5406917Y-12718788D01*
X5406917Y-12718788D02*
X5416441Y-12737836D01*
X5416441Y-12737836D02*
X5425965Y-12747360D01*
X5425965Y-12747360D02*
X5445013Y-12756884D01*
X5445013Y-12756884D02*
X5483108Y-12756884D01*
X5483108Y-12756884D02*
X5502155Y-12747360D01*
X5502155Y-12747360D02*
X5511679Y-12737836D01*
X5511679Y-12737836D02*
X5521203Y-12718788D01*
X5521203Y-12718788D02*
X5521203Y-12680693D01*
X5521203Y-12680693D02*
X5511679Y-12661646D01*
X5511679Y-12661646D02*
X5502155Y-12652122D01*
X5502155Y-12652122D02*
X5483108Y-12642598D01*
X5645012Y-12556884D02*
X5664060Y-12556884D01*
X5664060Y-12556884D02*
X5683108Y-12566408D01*
X5683108Y-12566408D02*
X5692632Y-12575931D01*
X5692632Y-12575931D02*
X5702155Y-12594979D01*
X5702155Y-12594979D02*
X5711679Y-12633074D01*
X5711679Y-12633074D02*
X5711679Y-12680693D01*
X5711679Y-12680693D02*
X5702155Y-12718788D01*
X5702155Y-12718788D02*
X5692632Y-12737836D01*
X5692632Y-12737836D02*
X5683108Y-12747360D01*
X5683108Y-12747360D02*
X5664060Y-12756884D01*
X5664060Y-12756884D02*
X5645012Y-12756884D01*
X5645012Y-12756884D02*
X5625965Y-12747360D01*
X5625965Y-12747360D02*
X5616441Y-12737836D01*
X5616441Y-12737836D02*
X5606917Y-12718788D01*
X5606917Y-12718788D02*
X5597393Y-12680693D01*
X5597393Y-12680693D02*
X5597393Y-12633074D01*
X5597393Y-12633074D02*
X5606917Y-12594979D01*
X5606917Y-12594979D02*
X5616441Y-12575931D01*
X5616441Y-12575931D02*
X5625965Y-12566408D01*
X5625965Y-12566408D02*
X5645012Y-12556884D01*
X5835489Y-12556884D02*
X5854536Y-12556884D01*
X5854536Y-12556884D02*
X5873584Y-12566408D01*
X5873584Y-12566408D02*
X5883108Y-12575931D01*
X5883108Y-12575931D02*
X5892632Y-12594979D01*
X5892632Y-12594979D02*
X5902155Y-12633074D01*
X5902155Y-12633074D02*
X5902155Y-12680693D01*
X5902155Y-12680693D02*
X5892632Y-12718788D01*
X5892632Y-12718788D02*
X5883108Y-12737836D01*
X5883108Y-12737836D02*
X5873584Y-12747360D01*
X5873584Y-12747360D02*
X5854536Y-12756884D01*
X5854536Y-12756884D02*
X5835489Y-12756884D01*
X5835489Y-12756884D02*
X5816441Y-12747360D01*
X5816441Y-12747360D02*
X5806917Y-12737836D01*
X5806917Y-12737836D02*
X5797393Y-12718788D01*
X5797393Y-12718788D02*
X5787870Y-12680693D01*
X5787870Y-12680693D02*
X5787870Y-12633074D01*
X5787870Y-12633074D02*
X5797393Y-12594979D01*
X5797393Y-12594979D02*
X5806917Y-12575931D01*
X5806917Y-12575931D02*
X5816441Y-12566408D01*
X5816441Y-12566408D02*
X5835489Y-12556884D01*
X5987870Y-12756884D02*
X5987870Y-12623550D01*
X5987870Y-12642598D02*
X5997393Y-12633074D01*
X5997393Y-12633074D02*
X6016441Y-12623550D01*
X6016441Y-12623550D02*
X6045013Y-12623550D01*
X6045013Y-12623550D02*
X6064060Y-12633074D01*
X6064060Y-12633074D02*
X6073584Y-12652122D01*
X6073584Y-12652122D02*
X6073584Y-12756884D01*
X6073584Y-12652122D02*
X6083108Y-12633074D01*
X6083108Y-12633074D02*
X6102155Y-12623550D01*
X6102155Y-12623550D02*
X6130727Y-12623550D01*
X6130727Y-12623550D02*
X6149774Y-12633074D01*
X6149774Y-12633074D02*
X6159298Y-12652122D01*
X6159298Y-12652122D02*
X6159298Y-12756884D01*
X6254536Y-12756884D02*
X6254536Y-12623550D01*
X6254536Y-12642598D02*
X6264060Y-12633074D01*
X6264060Y-12633074D02*
X6283108Y-12623550D01*
X6283108Y-12623550D02*
X6311679Y-12623550D01*
X6311679Y-12623550D02*
X6330727Y-12633074D01*
X6330727Y-12633074D02*
X6340251Y-12652122D01*
X6340251Y-12652122D02*
X6340251Y-12756884D01*
X6340251Y-12652122D02*
X6349774Y-12633074D01*
X6349774Y-12633074D02*
X6368822Y-12623550D01*
X6368822Y-12623550D02*
X6397393Y-12623550D01*
X6397393Y-12623550D02*
X6416441Y-12633074D01*
X6416441Y-12633074D02*
X6425965Y-12652122D01*
X6425965Y-12652122D02*
X6425965Y-12756884D01*
X6816441Y-12547360D02*
X6645013Y-12804503D01*
X7073584Y-12556884D02*
X7092632Y-12556884D01*
X7092632Y-12556884D02*
X7111679Y-12566408D01*
X7111679Y-12566408D02*
X7121203Y-12575931D01*
X7121203Y-12575931D02*
X7130727Y-12594979D01*
X7130727Y-12594979D02*
X7140251Y-12633074D01*
X7140251Y-12633074D02*
X7140251Y-12680693D01*
X7140251Y-12680693D02*
X7130727Y-12718788D01*
X7130727Y-12718788D02*
X7121203Y-12737836D01*
X7121203Y-12737836D02*
X7111679Y-12747360D01*
X7111679Y-12747360D02*
X7092632Y-12756884D01*
X7092632Y-12756884D02*
X7073584Y-12756884D01*
X7073584Y-12756884D02*
X7054536Y-12747360D01*
X7054536Y-12747360D02*
X7045013Y-12737836D01*
X7045013Y-12737836D02*
X7035489Y-12718788D01*
X7035489Y-12718788D02*
X7025965Y-12680693D01*
X7025965Y-12680693D02*
X7025965Y-12633074D01*
X7025965Y-12633074D02*
X7035489Y-12594979D01*
X7035489Y-12594979D02*
X7045013Y-12575931D01*
X7045013Y-12575931D02*
X7054536Y-12566408D01*
X7054536Y-12566408D02*
X7073584Y-12556884D01*
X7225965Y-12737836D02*
X7235489Y-12747360D01*
X7235489Y-12747360D02*
X7225965Y-12756884D01*
X7225965Y-12756884D02*
X7216441Y-12747360D01*
X7216441Y-12747360D02*
X7225965Y-12737836D01*
X7225965Y-12737836D02*
X7225965Y-12756884D01*
X7359298Y-12556884D02*
X7378346Y-12556884D01*
X7378346Y-12556884D02*
X7397394Y-12566408D01*
X7397394Y-12566408D02*
X7406917Y-12575931D01*
X7406917Y-12575931D02*
X7416441Y-12594979D01*
X7416441Y-12594979D02*
X7425965Y-12633074D01*
X7425965Y-12633074D02*
X7425965Y-12680693D01*
X7425965Y-12680693D02*
X7416441Y-12718788D01*
X7416441Y-12718788D02*
X7406917Y-12737836D01*
X7406917Y-12737836D02*
X7397394Y-12747360D01*
X7397394Y-12747360D02*
X7378346Y-12756884D01*
X7378346Y-12756884D02*
X7359298Y-12756884D01*
X7359298Y-12756884D02*
X7340251Y-12747360D01*
X7340251Y-12747360D02*
X7330727Y-12737836D01*
X7330727Y-12737836D02*
X7321203Y-12718788D01*
X7321203Y-12718788D02*
X7311679Y-12680693D01*
X7311679Y-12680693D02*
X7311679Y-12633074D01*
X7311679Y-12633074D02*
X7321203Y-12594979D01*
X7321203Y-12594979D02*
X7330727Y-12575931D01*
X7330727Y-12575931D02*
X7340251Y-12566408D01*
X7340251Y-12566408D02*
X7359298Y-12556884D01*
X7492632Y-12556884D02*
X7616441Y-12556884D01*
X7616441Y-12556884D02*
X7549775Y-12633074D01*
X7549775Y-12633074D02*
X7578346Y-12633074D01*
X7578346Y-12633074D02*
X7597394Y-12642598D01*
X7597394Y-12642598D02*
X7606917Y-12652122D01*
X7606917Y-12652122D02*
X7616441Y-12671169D01*
X7616441Y-12671169D02*
X7616441Y-12718788D01*
X7616441Y-12718788D02*
X7606917Y-12737836D01*
X7606917Y-12737836D02*
X7597394Y-12747360D01*
X7597394Y-12747360D02*
X7578346Y-12756884D01*
X7578346Y-12756884D02*
X7521203Y-12756884D01*
X7521203Y-12756884D02*
X7502156Y-12747360D01*
X7502156Y-12747360D02*
X7492632Y-12737836D01*
X7806917Y-12756884D02*
X7692632Y-12756884D01*
X7749775Y-12756884D02*
X7749775Y-12556884D01*
X7749775Y-12556884D02*
X7730727Y-12585455D01*
X7730727Y-12585455D02*
X7711679Y-12604503D01*
X7711679Y-12604503D02*
X7692632Y-12614027D01*
X7987870Y-12556884D02*
X7892632Y-12556884D01*
X7892632Y-12556884D02*
X7883108Y-12652122D01*
X7883108Y-12652122D02*
X7892632Y-12642598D01*
X7892632Y-12642598D02*
X7911679Y-12633074D01*
X7911679Y-12633074D02*
X7959298Y-12633074D01*
X7959298Y-12633074D02*
X7978346Y-12642598D01*
X7978346Y-12642598D02*
X7987870Y-12652122D01*
X7987870Y-12652122D02*
X7997394Y-12671169D01*
X7997394Y-12671169D02*
X7997394Y-12718788D01*
X7997394Y-12718788D02*
X7987870Y-12737836D01*
X7987870Y-12737836D02*
X7978346Y-12747360D01*
X7978346Y-12747360D02*
X7959298Y-12756884D01*
X7959298Y-12756884D02*
X7911679Y-12756884D01*
X7911679Y-12756884D02*
X7892632Y-12747360D01*
X7892632Y-12747360D02*
X7883108Y-12737836D01*
X8073584Y-12556884D02*
X8073584Y-12594979D01*
X8149775Y-12556884D02*
X8149775Y-12594979D01*
X8445013Y-12833074D02*
X8435489Y-12823550D01*
X8435489Y-12823550D02*
X8416441Y-12794979D01*
X8416441Y-12794979D02*
X8406918Y-12775931D01*
X8406918Y-12775931D02*
X8397394Y-12747360D01*
X8397394Y-12747360D02*
X8387870Y-12699741D01*
X8387870Y-12699741D02*
X8387870Y-12661646D01*
X8387870Y-12661646D02*
X8397394Y-12614027D01*
X8397394Y-12614027D02*
X8406918Y-12585455D01*
X8406918Y-12585455D02*
X8416441Y-12566408D01*
X8416441Y-12566408D02*
X8435489Y-12537836D01*
X8435489Y-12537836D02*
X8445013Y-12528312D01*
X8511680Y-12575931D02*
X8521203Y-12566408D01*
X8521203Y-12566408D02*
X8540251Y-12556884D01*
X8540251Y-12556884D02*
X8587870Y-12556884D01*
X8587870Y-12556884D02*
X8606918Y-12566408D01*
X8606918Y-12566408D02*
X8616441Y-12575931D01*
X8616441Y-12575931D02*
X8625965Y-12594979D01*
X8625965Y-12594979D02*
X8625965Y-12614027D01*
X8625965Y-12614027D02*
X8616441Y-12642598D01*
X8616441Y-12642598D02*
X8502156Y-12756884D01*
X8502156Y-12756884D02*
X8625965Y-12756884D01*
X8797394Y-12556884D02*
X8759299Y-12556884D01*
X8759299Y-12556884D02*
X8740251Y-12566408D01*
X8740251Y-12566408D02*
X8730727Y-12575931D01*
X8730727Y-12575931D02*
X8711680Y-12604503D01*
X8711680Y-12604503D02*
X8702156Y-12642598D01*
X8702156Y-12642598D02*
X8702156Y-12718788D01*
X8702156Y-12718788D02*
X8711680Y-12737836D01*
X8711680Y-12737836D02*
X8721203Y-12747360D01*
X8721203Y-12747360D02*
X8740251Y-12756884D01*
X8740251Y-12756884D02*
X8778346Y-12756884D01*
X8778346Y-12756884D02*
X8797394Y-12747360D01*
X8797394Y-12747360D02*
X8806918Y-12737836D01*
X8806918Y-12737836D02*
X8816441Y-12718788D01*
X8816441Y-12718788D02*
X8816441Y-12671169D01*
X8816441Y-12671169D02*
X8806918Y-12652122D01*
X8806918Y-12652122D02*
X8797394Y-12642598D01*
X8797394Y-12642598D02*
X8778346Y-12633074D01*
X8778346Y-12633074D02*
X8740251Y-12633074D01*
X8740251Y-12633074D02*
X8721203Y-12642598D01*
X8721203Y-12642598D02*
X8711680Y-12652122D01*
X8711680Y-12652122D02*
X8702156Y-12671169D01*
X9054537Y-12756884D02*
X9054537Y-12556884D01*
X9140251Y-12756884D02*
X9140251Y-12652122D01*
X9140251Y-12652122D02*
X9130727Y-12633074D01*
X9130727Y-12633074D02*
X9111680Y-12623550D01*
X9111680Y-12623550D02*
X9083108Y-12623550D01*
X9083108Y-12623550D02*
X9064061Y-12633074D01*
X9064061Y-12633074D02*
X9054537Y-12642598D01*
X9264061Y-12756884D02*
X9245013Y-12747360D01*
X9245013Y-12747360D02*
X9235489Y-12737836D01*
X9235489Y-12737836D02*
X9225965Y-12718788D01*
X9225965Y-12718788D02*
X9225965Y-12661646D01*
X9225965Y-12661646D02*
X9235489Y-12642598D01*
X9235489Y-12642598D02*
X9245013Y-12633074D01*
X9245013Y-12633074D02*
X9264061Y-12623550D01*
X9264061Y-12623550D02*
X9292632Y-12623550D01*
X9292632Y-12623550D02*
X9311680Y-12633074D01*
X9311680Y-12633074D02*
X9321203Y-12642598D01*
X9321203Y-12642598D02*
X9330727Y-12661646D01*
X9330727Y-12661646D02*
X9330727Y-12718788D01*
X9330727Y-12718788D02*
X9321203Y-12737836D01*
X9321203Y-12737836D02*
X9311680Y-12747360D01*
X9311680Y-12747360D02*
X9292632Y-12756884D01*
X9292632Y-12756884D02*
X9264061Y-12756884D01*
X9445013Y-12756884D02*
X9425965Y-12747360D01*
X9425965Y-12747360D02*
X9416442Y-12728312D01*
X9416442Y-12728312D02*
X9416442Y-12556884D01*
X9597394Y-12747360D02*
X9578346Y-12756884D01*
X9578346Y-12756884D02*
X9540251Y-12756884D01*
X9540251Y-12756884D02*
X9521203Y-12747360D01*
X9521203Y-12747360D02*
X9511680Y-12728312D01*
X9511680Y-12728312D02*
X9511680Y-12652122D01*
X9511680Y-12652122D02*
X9521203Y-12633074D01*
X9521203Y-12633074D02*
X9540251Y-12623550D01*
X9540251Y-12623550D02*
X9578346Y-12623550D01*
X9578346Y-12623550D02*
X9597394Y-12633074D01*
X9597394Y-12633074D02*
X9606918Y-12652122D01*
X9606918Y-12652122D02*
X9606918Y-12671169D01*
X9606918Y-12671169D02*
X9511680Y-12690217D01*
X9683108Y-12747360D02*
X9702156Y-12756884D01*
X9702156Y-12756884D02*
X9740251Y-12756884D01*
X9740251Y-12756884D02*
X9759299Y-12747360D01*
X9759299Y-12747360D02*
X9768823Y-12728312D01*
X9768823Y-12728312D02*
X9768823Y-12718788D01*
X9768823Y-12718788D02*
X9759299Y-12699741D01*
X9759299Y-12699741D02*
X9740251Y-12690217D01*
X9740251Y-12690217D02*
X9711680Y-12690217D01*
X9711680Y-12690217D02*
X9692632Y-12680693D01*
X9692632Y-12680693D02*
X9683108Y-12661646D01*
X9683108Y-12661646D02*
X9683108Y-12652122D01*
X9683108Y-12652122D02*
X9692632Y-12633074D01*
X9692632Y-12633074D02*
X9711680Y-12623550D01*
X9711680Y-12623550D02*
X9740251Y-12623550D01*
X9740251Y-12623550D02*
X9759299Y-12633074D01*
X9835489Y-12833074D02*
X9845013Y-12823550D01*
X9845013Y-12823550D02*
X9864061Y-12794979D01*
X9864061Y-12794979D02*
X9873584Y-12775931D01*
X9873584Y-12775931D02*
X9883108Y-12747360D01*
X9883108Y-12747360D02*
X9892632Y-12699741D01*
X9892632Y-12699741D02*
X9892632Y-12661646D01*
X9892632Y-12661646D02*
X9883108Y-12614027D01*
X9883108Y-12614027D02*
X9873584Y-12585455D01*
X9873584Y-12585455D02*
X9864061Y-12566408D01*
X9864061Y-12566408D02*
X9845013Y-12537836D01*
X9845013Y-12537836D02*
X9835489Y-12528312D01*
D14*
X4824950Y-12884400D02*
X4824950Y-12974400D01*
X4779950Y-12929400D02*
X4869950Y-12929400D01*
D11*
X5168822Y-12820884D02*
X5187870Y-12820884D01*
X5187870Y-12820884D02*
X5206917Y-12830408D01*
X5206917Y-12830408D02*
X5216441Y-12839931D01*
X5216441Y-12839931D02*
X5225965Y-12858979D01*
X5225965Y-12858979D02*
X5235489Y-12897074D01*
X5235489Y-12897074D02*
X5235489Y-12944693D01*
X5235489Y-12944693D02*
X5225965Y-12982788D01*
X5225965Y-12982788D02*
X5216441Y-13001836D01*
X5216441Y-13001836D02*
X5206917Y-13011360D01*
X5206917Y-13011360D02*
X5187870Y-13020884D01*
X5187870Y-13020884D02*
X5168822Y-13020884D01*
X5168822Y-13020884D02*
X5149774Y-13011360D01*
X5149774Y-13011360D02*
X5140251Y-13001836D01*
X5140251Y-13001836D02*
X5130727Y-12982788D01*
X5130727Y-12982788D02*
X5121203Y-12944693D01*
X5121203Y-12944693D02*
X5121203Y-12897074D01*
X5121203Y-12897074D02*
X5130727Y-12858979D01*
X5130727Y-12858979D02*
X5140251Y-12839931D01*
X5140251Y-12839931D02*
X5149774Y-12830408D01*
X5149774Y-12830408D02*
X5168822Y-12820884D01*
X5321203Y-13001836D02*
X5330727Y-13011360D01*
X5330727Y-13011360D02*
X5321203Y-13020884D01*
X5321203Y-13020884D02*
X5311679Y-13011360D01*
X5311679Y-13011360D02*
X5321203Y-13001836D01*
X5321203Y-13001836D02*
X5321203Y-13020884D01*
X5425965Y-13020884D02*
X5464060Y-13020884D01*
X5464060Y-13020884D02*
X5483108Y-13011360D01*
X5483108Y-13011360D02*
X5492632Y-13001836D01*
X5492632Y-13001836D02*
X5511679Y-12973265D01*
X5511679Y-12973265D02*
X5521203Y-12935169D01*
X5521203Y-12935169D02*
X5521203Y-12858979D01*
X5521203Y-12858979D02*
X5511679Y-12839931D01*
X5511679Y-12839931D02*
X5502155Y-12830408D01*
X5502155Y-12830408D02*
X5483108Y-12820884D01*
X5483108Y-12820884D02*
X5445013Y-12820884D01*
X5445013Y-12820884D02*
X5425965Y-12830408D01*
X5425965Y-12830408D02*
X5416441Y-12839931D01*
X5416441Y-12839931D02*
X5406917Y-12858979D01*
X5406917Y-12858979D02*
X5406917Y-12906598D01*
X5406917Y-12906598D02*
X5416441Y-12925646D01*
X5416441Y-12925646D02*
X5425965Y-12935169D01*
X5425965Y-12935169D02*
X5445013Y-12944693D01*
X5445013Y-12944693D02*
X5483108Y-12944693D01*
X5483108Y-12944693D02*
X5502155Y-12935169D01*
X5502155Y-12935169D02*
X5511679Y-12925646D01*
X5511679Y-12925646D02*
X5521203Y-12906598D01*
X5645012Y-12820884D02*
X5664060Y-12820884D01*
X5664060Y-12820884D02*
X5683108Y-12830408D01*
X5683108Y-12830408D02*
X5692632Y-12839931D01*
X5692632Y-12839931D02*
X5702155Y-12858979D01*
X5702155Y-12858979D02*
X5711679Y-12897074D01*
X5711679Y-12897074D02*
X5711679Y-12944693D01*
X5711679Y-12944693D02*
X5702155Y-12982788D01*
X5702155Y-12982788D02*
X5692632Y-13001836D01*
X5692632Y-13001836D02*
X5683108Y-13011360D01*
X5683108Y-13011360D02*
X5664060Y-13020884D01*
X5664060Y-13020884D02*
X5645012Y-13020884D01*
X5645012Y-13020884D02*
X5625965Y-13011360D01*
X5625965Y-13011360D02*
X5616441Y-13001836D01*
X5616441Y-13001836D02*
X5606917Y-12982788D01*
X5606917Y-12982788D02*
X5597393Y-12944693D01*
X5597393Y-12944693D02*
X5597393Y-12897074D01*
X5597393Y-12897074D02*
X5606917Y-12858979D01*
X5606917Y-12858979D02*
X5616441Y-12839931D01*
X5616441Y-12839931D02*
X5625965Y-12830408D01*
X5625965Y-12830408D02*
X5645012Y-12820884D01*
X5835489Y-12820884D02*
X5854536Y-12820884D01*
X5854536Y-12820884D02*
X5873584Y-12830408D01*
X5873584Y-12830408D02*
X5883108Y-12839931D01*
X5883108Y-12839931D02*
X5892632Y-12858979D01*
X5892632Y-12858979D02*
X5902155Y-12897074D01*
X5902155Y-12897074D02*
X5902155Y-12944693D01*
X5902155Y-12944693D02*
X5892632Y-12982788D01*
X5892632Y-12982788D02*
X5883108Y-13001836D01*
X5883108Y-13001836D02*
X5873584Y-13011360D01*
X5873584Y-13011360D02*
X5854536Y-13020884D01*
X5854536Y-13020884D02*
X5835489Y-13020884D01*
X5835489Y-13020884D02*
X5816441Y-13011360D01*
X5816441Y-13011360D02*
X5806917Y-13001836D01*
X5806917Y-13001836D02*
X5797393Y-12982788D01*
X5797393Y-12982788D02*
X5787870Y-12944693D01*
X5787870Y-12944693D02*
X5787870Y-12897074D01*
X5787870Y-12897074D02*
X5797393Y-12858979D01*
X5797393Y-12858979D02*
X5806917Y-12839931D01*
X5806917Y-12839931D02*
X5816441Y-12830408D01*
X5816441Y-12830408D02*
X5835489Y-12820884D01*
X5987870Y-13020884D02*
X5987870Y-12887550D01*
X5987870Y-12906598D02*
X5997393Y-12897074D01*
X5997393Y-12897074D02*
X6016441Y-12887550D01*
X6016441Y-12887550D02*
X6045013Y-12887550D01*
X6045013Y-12887550D02*
X6064060Y-12897074D01*
X6064060Y-12897074D02*
X6073584Y-12916122D01*
X6073584Y-12916122D02*
X6073584Y-13020884D01*
X6073584Y-12916122D02*
X6083108Y-12897074D01*
X6083108Y-12897074D02*
X6102155Y-12887550D01*
X6102155Y-12887550D02*
X6130727Y-12887550D01*
X6130727Y-12887550D02*
X6149774Y-12897074D01*
X6149774Y-12897074D02*
X6159298Y-12916122D01*
X6159298Y-12916122D02*
X6159298Y-13020884D01*
X6254536Y-13020884D02*
X6254536Y-12887550D01*
X6254536Y-12906598D02*
X6264060Y-12897074D01*
X6264060Y-12897074D02*
X6283108Y-12887550D01*
X6283108Y-12887550D02*
X6311679Y-12887550D01*
X6311679Y-12887550D02*
X6330727Y-12897074D01*
X6330727Y-12897074D02*
X6340251Y-12916122D01*
X6340251Y-12916122D02*
X6340251Y-13020884D01*
X6340251Y-12916122D02*
X6349774Y-12897074D01*
X6349774Y-12897074D02*
X6368822Y-12887550D01*
X6368822Y-12887550D02*
X6397393Y-12887550D01*
X6397393Y-12887550D02*
X6416441Y-12897074D01*
X6416441Y-12897074D02*
X6425965Y-12916122D01*
X6425965Y-12916122D02*
X6425965Y-13020884D01*
X6816441Y-12811360D02*
X6645013Y-13068503D01*
X7073584Y-12820884D02*
X7092632Y-12820884D01*
X7092632Y-12820884D02*
X7111679Y-12830408D01*
X7111679Y-12830408D02*
X7121203Y-12839931D01*
X7121203Y-12839931D02*
X7130727Y-12858979D01*
X7130727Y-12858979D02*
X7140251Y-12897074D01*
X7140251Y-12897074D02*
X7140251Y-12944693D01*
X7140251Y-12944693D02*
X7130727Y-12982788D01*
X7130727Y-12982788D02*
X7121203Y-13001836D01*
X7121203Y-13001836D02*
X7111679Y-13011360D01*
X7111679Y-13011360D02*
X7092632Y-13020884D01*
X7092632Y-13020884D02*
X7073584Y-13020884D01*
X7073584Y-13020884D02*
X7054536Y-13011360D01*
X7054536Y-13011360D02*
X7045013Y-13001836D01*
X7045013Y-13001836D02*
X7035489Y-12982788D01*
X7035489Y-12982788D02*
X7025965Y-12944693D01*
X7025965Y-12944693D02*
X7025965Y-12897074D01*
X7025965Y-12897074D02*
X7035489Y-12858979D01*
X7035489Y-12858979D02*
X7045013Y-12839931D01*
X7045013Y-12839931D02*
X7054536Y-12830408D01*
X7054536Y-12830408D02*
X7073584Y-12820884D01*
X7225965Y-13001836D02*
X7235489Y-13011360D01*
X7235489Y-13011360D02*
X7225965Y-13020884D01*
X7225965Y-13020884D02*
X7216441Y-13011360D01*
X7216441Y-13011360D02*
X7225965Y-13001836D01*
X7225965Y-13001836D02*
X7225965Y-13020884D01*
X7359298Y-12820884D02*
X7378346Y-12820884D01*
X7378346Y-12820884D02*
X7397394Y-12830408D01*
X7397394Y-12830408D02*
X7406917Y-12839931D01*
X7406917Y-12839931D02*
X7416441Y-12858979D01*
X7416441Y-12858979D02*
X7425965Y-12897074D01*
X7425965Y-12897074D02*
X7425965Y-12944693D01*
X7425965Y-12944693D02*
X7416441Y-12982788D01*
X7416441Y-12982788D02*
X7406917Y-13001836D01*
X7406917Y-13001836D02*
X7397394Y-13011360D01*
X7397394Y-13011360D02*
X7378346Y-13020884D01*
X7378346Y-13020884D02*
X7359298Y-13020884D01*
X7359298Y-13020884D02*
X7340251Y-13011360D01*
X7340251Y-13011360D02*
X7330727Y-13001836D01*
X7330727Y-13001836D02*
X7321203Y-12982788D01*
X7321203Y-12982788D02*
X7311679Y-12944693D01*
X7311679Y-12944693D02*
X7311679Y-12897074D01*
X7311679Y-12897074D02*
X7321203Y-12858979D01*
X7321203Y-12858979D02*
X7330727Y-12839931D01*
X7330727Y-12839931D02*
X7340251Y-12830408D01*
X7340251Y-12830408D02*
X7359298Y-12820884D01*
X7492632Y-12820884D02*
X7616441Y-12820884D01*
X7616441Y-12820884D02*
X7549775Y-12897074D01*
X7549775Y-12897074D02*
X7578346Y-12897074D01*
X7578346Y-12897074D02*
X7597394Y-12906598D01*
X7597394Y-12906598D02*
X7606917Y-12916122D01*
X7606917Y-12916122D02*
X7616441Y-12935169D01*
X7616441Y-12935169D02*
X7616441Y-12982788D01*
X7616441Y-12982788D02*
X7606917Y-13001836D01*
X7606917Y-13001836D02*
X7597394Y-13011360D01*
X7597394Y-13011360D02*
X7578346Y-13020884D01*
X7578346Y-13020884D02*
X7521203Y-13020884D01*
X7521203Y-13020884D02*
X7502156Y-13011360D01*
X7502156Y-13011360D02*
X7492632Y-13001836D01*
X7797394Y-12820884D02*
X7702156Y-12820884D01*
X7702156Y-12820884D02*
X7692632Y-12916122D01*
X7692632Y-12916122D02*
X7702156Y-12906598D01*
X7702156Y-12906598D02*
X7721203Y-12897074D01*
X7721203Y-12897074D02*
X7768822Y-12897074D01*
X7768822Y-12897074D02*
X7787870Y-12906598D01*
X7787870Y-12906598D02*
X7797394Y-12916122D01*
X7797394Y-12916122D02*
X7806917Y-12935169D01*
X7806917Y-12935169D02*
X7806917Y-12982788D01*
X7806917Y-12982788D02*
X7797394Y-13001836D01*
X7797394Y-13001836D02*
X7787870Y-13011360D01*
X7787870Y-13011360D02*
X7768822Y-13020884D01*
X7768822Y-13020884D02*
X7721203Y-13020884D01*
X7721203Y-13020884D02*
X7702156Y-13011360D01*
X7702156Y-13011360D02*
X7692632Y-13001836D01*
X7978346Y-12887550D02*
X7978346Y-13020884D01*
X7930727Y-12811360D02*
X7883108Y-12954217D01*
X7883108Y-12954217D02*
X8006917Y-12954217D01*
X8073584Y-12820884D02*
X8073584Y-12858979D01*
X8149775Y-12820884D02*
X8149775Y-12858979D01*
X8445013Y-13097074D02*
X8435489Y-13087550D01*
X8435489Y-13087550D02*
X8416441Y-13058979D01*
X8416441Y-13058979D02*
X8406918Y-13039931D01*
X8406918Y-13039931D02*
X8397394Y-13011360D01*
X8397394Y-13011360D02*
X8387870Y-12963741D01*
X8387870Y-12963741D02*
X8387870Y-12925646D01*
X8387870Y-12925646D02*
X8397394Y-12878027D01*
X8397394Y-12878027D02*
X8406918Y-12849455D01*
X8406918Y-12849455D02*
X8416441Y-12830408D01*
X8416441Y-12830408D02*
X8435489Y-12801836D01*
X8435489Y-12801836D02*
X8445013Y-12792312D01*
X8606918Y-12820884D02*
X8568822Y-12820884D01*
X8568822Y-12820884D02*
X8549775Y-12830408D01*
X8549775Y-12830408D02*
X8540251Y-12839931D01*
X8540251Y-12839931D02*
X8521203Y-12868503D01*
X8521203Y-12868503D02*
X8511680Y-12906598D01*
X8511680Y-12906598D02*
X8511680Y-12982788D01*
X8511680Y-12982788D02*
X8521203Y-13001836D01*
X8521203Y-13001836D02*
X8530727Y-13011360D01*
X8530727Y-13011360D02*
X8549775Y-13020884D01*
X8549775Y-13020884D02*
X8587870Y-13020884D01*
X8587870Y-13020884D02*
X8606918Y-13011360D01*
X8606918Y-13011360D02*
X8616441Y-13001836D01*
X8616441Y-13001836D02*
X8625965Y-12982788D01*
X8625965Y-12982788D02*
X8625965Y-12935169D01*
X8625965Y-12935169D02*
X8616441Y-12916122D01*
X8616441Y-12916122D02*
X8606918Y-12906598D01*
X8606918Y-12906598D02*
X8587870Y-12897074D01*
X8587870Y-12897074D02*
X8549775Y-12897074D01*
X8549775Y-12897074D02*
X8530727Y-12906598D01*
X8530727Y-12906598D02*
X8521203Y-12916122D01*
X8521203Y-12916122D02*
X8511680Y-12935169D01*
X8864061Y-13020884D02*
X8864061Y-12820884D01*
X8949775Y-13020884D02*
X8949775Y-12916122D01*
X8949775Y-12916122D02*
X8940251Y-12897074D01*
X8940251Y-12897074D02*
X8921203Y-12887550D01*
X8921203Y-12887550D02*
X8892632Y-12887550D01*
X8892632Y-12887550D02*
X8873584Y-12897074D01*
X8873584Y-12897074D02*
X8864061Y-12906598D01*
X9073584Y-13020884D02*
X9054537Y-13011360D01*
X9054537Y-13011360D02*
X9045013Y-13001836D01*
X9045013Y-13001836D02*
X9035489Y-12982788D01*
X9035489Y-12982788D02*
X9035489Y-12925646D01*
X9035489Y-12925646D02*
X9045013Y-12906598D01*
X9045013Y-12906598D02*
X9054537Y-12897074D01*
X9054537Y-12897074D02*
X9073584Y-12887550D01*
X9073584Y-12887550D02*
X9102156Y-12887550D01*
X9102156Y-12887550D02*
X9121203Y-12897074D01*
X9121203Y-12897074D02*
X9130727Y-12906598D01*
X9130727Y-12906598D02*
X9140251Y-12925646D01*
X9140251Y-12925646D02*
X9140251Y-12982788D01*
X9140251Y-12982788D02*
X9130727Y-13001836D01*
X9130727Y-13001836D02*
X9121203Y-13011360D01*
X9121203Y-13011360D02*
X9102156Y-13020884D01*
X9102156Y-13020884D02*
X9073584Y-13020884D01*
X9254537Y-13020884D02*
X9235489Y-13011360D01*
X9235489Y-13011360D02*
X9225965Y-12992312D01*
X9225965Y-12992312D02*
X9225965Y-12820884D01*
X9406918Y-13011360D02*
X9387870Y-13020884D01*
X9387870Y-13020884D02*
X9349775Y-13020884D01*
X9349775Y-13020884D02*
X9330727Y-13011360D01*
X9330727Y-13011360D02*
X9321203Y-12992312D01*
X9321203Y-12992312D02*
X9321203Y-12916122D01*
X9321203Y-12916122D02*
X9330727Y-12897074D01*
X9330727Y-12897074D02*
X9349775Y-12887550D01*
X9349775Y-12887550D02*
X9387870Y-12887550D01*
X9387870Y-12887550D02*
X9406918Y-12897074D01*
X9406918Y-12897074D02*
X9416442Y-12916122D01*
X9416442Y-12916122D02*
X9416442Y-12935169D01*
X9416442Y-12935169D02*
X9321203Y-12954217D01*
X9492632Y-13011360D02*
X9511680Y-13020884D01*
X9511680Y-13020884D02*
X9549775Y-13020884D01*
X9549775Y-13020884D02*
X9568823Y-13011360D01*
X9568823Y-13011360D02*
X9578346Y-12992312D01*
X9578346Y-12992312D02*
X9578346Y-12982788D01*
X9578346Y-12982788D02*
X9568823Y-12963741D01*
X9568823Y-12963741D02*
X9549775Y-12954217D01*
X9549775Y-12954217D02*
X9521203Y-12954217D01*
X9521203Y-12954217D02*
X9502156Y-12944693D01*
X9502156Y-12944693D02*
X9492632Y-12925646D01*
X9492632Y-12925646D02*
X9492632Y-12916122D01*
X9492632Y-12916122D02*
X9502156Y-12897074D01*
X9502156Y-12897074D02*
X9521203Y-12887550D01*
X9521203Y-12887550D02*
X9549775Y-12887550D01*
X9549775Y-12887550D02*
X9568823Y-12897074D01*
X9645013Y-13097074D02*
X9654537Y-13087550D01*
X9654537Y-13087550D02*
X9673584Y-13058979D01*
X9673584Y-13058979D02*
X9683108Y-13039931D01*
X9683108Y-13039931D02*
X9692632Y-13011360D01*
X9692632Y-13011360D02*
X9702156Y-12963741D01*
X9702156Y-12963741D02*
X9702156Y-12925646D01*
X9702156Y-12925646D02*
X9692632Y-12878027D01*
X9692632Y-12878027D02*
X9683108Y-12849455D01*
X9683108Y-12849455D02*
X9673584Y-12830408D01*
X9673584Y-12830408D02*
X9654537Y-12801836D01*
X9654537Y-12801836D02*
X9645013Y-12792312D01*
D10*
X4855306Y-13228756D02*
X4855306Y-13158044D01*
X4784594Y-13158044D01*
X4784594Y-13228756D01*
X4855306Y-13228756D01*
D11*
X5235489Y-13284884D02*
X5121203Y-13284884D01*
X5178346Y-13284884D02*
X5178346Y-13084884D01*
X5178346Y-13084884D02*
X5159298Y-13113455D01*
X5159298Y-13113455D02*
X5140251Y-13132503D01*
X5140251Y-13132503D02*
X5121203Y-13142027D01*
X5321203Y-13265836D02*
X5330727Y-13275360D01*
X5330727Y-13275360D02*
X5321203Y-13284884D01*
X5321203Y-13284884D02*
X5311679Y-13275360D01*
X5311679Y-13275360D02*
X5321203Y-13265836D01*
X5321203Y-13265836D02*
X5321203Y-13284884D01*
X5454536Y-13084884D02*
X5473584Y-13084884D01*
X5473584Y-13084884D02*
X5492632Y-13094408D01*
X5492632Y-13094408D02*
X5502155Y-13103931D01*
X5502155Y-13103931D02*
X5511679Y-13122979D01*
X5511679Y-13122979D02*
X5521203Y-13161074D01*
X5521203Y-13161074D02*
X5521203Y-13208693D01*
X5521203Y-13208693D02*
X5511679Y-13246788D01*
X5511679Y-13246788D02*
X5502155Y-13265836D01*
X5502155Y-13265836D02*
X5492632Y-13275360D01*
X5492632Y-13275360D02*
X5473584Y-13284884D01*
X5473584Y-13284884D02*
X5454536Y-13284884D01*
X5454536Y-13284884D02*
X5435489Y-13275360D01*
X5435489Y-13275360D02*
X5425965Y-13265836D01*
X5425965Y-13265836D02*
X5416441Y-13246788D01*
X5416441Y-13246788D02*
X5406917Y-13208693D01*
X5406917Y-13208693D02*
X5406917Y-13161074D01*
X5406917Y-13161074D02*
X5416441Y-13122979D01*
X5416441Y-13122979D02*
X5425965Y-13103931D01*
X5425965Y-13103931D02*
X5435489Y-13094408D01*
X5435489Y-13094408D02*
X5454536Y-13084884D01*
X5645012Y-13084884D02*
X5664060Y-13084884D01*
X5664060Y-13084884D02*
X5683108Y-13094408D01*
X5683108Y-13094408D02*
X5692632Y-13103931D01*
X5692632Y-13103931D02*
X5702155Y-13122979D01*
X5702155Y-13122979D02*
X5711679Y-13161074D01*
X5711679Y-13161074D02*
X5711679Y-13208693D01*
X5711679Y-13208693D02*
X5702155Y-13246788D01*
X5702155Y-13246788D02*
X5692632Y-13265836D01*
X5692632Y-13265836D02*
X5683108Y-13275360D01*
X5683108Y-13275360D02*
X5664060Y-13284884D01*
X5664060Y-13284884D02*
X5645012Y-13284884D01*
X5645012Y-13284884D02*
X5625965Y-13275360D01*
X5625965Y-13275360D02*
X5616441Y-13265836D01*
X5616441Y-13265836D02*
X5606917Y-13246788D01*
X5606917Y-13246788D02*
X5597393Y-13208693D01*
X5597393Y-13208693D02*
X5597393Y-13161074D01*
X5597393Y-13161074D02*
X5606917Y-13122979D01*
X5606917Y-13122979D02*
X5616441Y-13103931D01*
X5616441Y-13103931D02*
X5625965Y-13094408D01*
X5625965Y-13094408D02*
X5645012Y-13084884D01*
X5835489Y-13084884D02*
X5854536Y-13084884D01*
X5854536Y-13084884D02*
X5873584Y-13094408D01*
X5873584Y-13094408D02*
X5883108Y-13103931D01*
X5883108Y-13103931D02*
X5892632Y-13122979D01*
X5892632Y-13122979D02*
X5902155Y-13161074D01*
X5902155Y-13161074D02*
X5902155Y-13208693D01*
X5902155Y-13208693D02*
X5892632Y-13246788D01*
X5892632Y-13246788D02*
X5883108Y-13265836D01*
X5883108Y-13265836D02*
X5873584Y-13275360D01*
X5873584Y-13275360D02*
X5854536Y-13284884D01*
X5854536Y-13284884D02*
X5835489Y-13284884D01*
X5835489Y-13284884D02*
X5816441Y-13275360D01*
X5816441Y-13275360D02*
X5806917Y-13265836D01*
X5806917Y-13265836D02*
X5797393Y-13246788D01*
X5797393Y-13246788D02*
X5787870Y-13208693D01*
X5787870Y-13208693D02*
X5787870Y-13161074D01*
X5787870Y-13161074D02*
X5797393Y-13122979D01*
X5797393Y-13122979D02*
X5806917Y-13103931D01*
X5806917Y-13103931D02*
X5816441Y-13094408D01*
X5816441Y-13094408D02*
X5835489Y-13084884D01*
X5987870Y-13284884D02*
X5987870Y-13151550D01*
X5987870Y-13170598D02*
X5997393Y-13161074D01*
X5997393Y-13161074D02*
X6016441Y-13151550D01*
X6016441Y-13151550D02*
X6045013Y-13151550D01*
X6045013Y-13151550D02*
X6064060Y-13161074D01*
X6064060Y-13161074D02*
X6073584Y-13180122D01*
X6073584Y-13180122D02*
X6073584Y-13284884D01*
X6073584Y-13180122D02*
X6083108Y-13161074D01*
X6083108Y-13161074D02*
X6102155Y-13151550D01*
X6102155Y-13151550D02*
X6130727Y-13151550D01*
X6130727Y-13151550D02*
X6149774Y-13161074D01*
X6149774Y-13161074D02*
X6159298Y-13180122D01*
X6159298Y-13180122D02*
X6159298Y-13284884D01*
X6254536Y-13284884D02*
X6254536Y-13151550D01*
X6254536Y-13170598D02*
X6264060Y-13161074D01*
X6264060Y-13161074D02*
X6283108Y-13151550D01*
X6283108Y-13151550D02*
X6311679Y-13151550D01*
X6311679Y-13151550D02*
X6330727Y-13161074D01*
X6330727Y-13161074D02*
X6340251Y-13180122D01*
X6340251Y-13180122D02*
X6340251Y-13284884D01*
X6340251Y-13180122D02*
X6349774Y-13161074D01*
X6349774Y-13161074D02*
X6368822Y-13151550D01*
X6368822Y-13151550D02*
X6397393Y-13151550D01*
X6397393Y-13151550D02*
X6416441Y-13161074D01*
X6416441Y-13161074D02*
X6425965Y-13180122D01*
X6425965Y-13180122D02*
X6425965Y-13284884D01*
X6816441Y-13075360D02*
X6645013Y-13332503D01*
X7073584Y-13084884D02*
X7092632Y-13084884D01*
X7092632Y-13084884D02*
X7111679Y-13094408D01*
X7111679Y-13094408D02*
X7121203Y-13103931D01*
X7121203Y-13103931D02*
X7130727Y-13122979D01*
X7130727Y-13122979D02*
X7140251Y-13161074D01*
X7140251Y-13161074D02*
X7140251Y-13208693D01*
X7140251Y-13208693D02*
X7130727Y-13246788D01*
X7130727Y-13246788D02*
X7121203Y-13265836D01*
X7121203Y-13265836D02*
X7111679Y-13275360D01*
X7111679Y-13275360D02*
X7092632Y-13284884D01*
X7092632Y-13284884D02*
X7073584Y-13284884D01*
X7073584Y-13284884D02*
X7054536Y-13275360D01*
X7054536Y-13275360D02*
X7045013Y-13265836D01*
X7045013Y-13265836D02*
X7035489Y-13246788D01*
X7035489Y-13246788D02*
X7025965Y-13208693D01*
X7025965Y-13208693D02*
X7025965Y-13161074D01*
X7025965Y-13161074D02*
X7035489Y-13122979D01*
X7035489Y-13122979D02*
X7045013Y-13103931D01*
X7045013Y-13103931D02*
X7054536Y-13094408D01*
X7054536Y-13094408D02*
X7073584Y-13084884D01*
X7225965Y-13265836D02*
X7235489Y-13275360D01*
X7235489Y-13275360D02*
X7225965Y-13284884D01*
X7225965Y-13284884D02*
X7216441Y-13275360D01*
X7216441Y-13275360D02*
X7225965Y-13265836D01*
X7225965Y-13265836D02*
X7225965Y-13284884D01*
X7359298Y-13084884D02*
X7378346Y-13084884D01*
X7378346Y-13084884D02*
X7397394Y-13094408D01*
X7397394Y-13094408D02*
X7406917Y-13103931D01*
X7406917Y-13103931D02*
X7416441Y-13122979D01*
X7416441Y-13122979D02*
X7425965Y-13161074D01*
X7425965Y-13161074D02*
X7425965Y-13208693D01*
X7425965Y-13208693D02*
X7416441Y-13246788D01*
X7416441Y-13246788D02*
X7406917Y-13265836D01*
X7406917Y-13265836D02*
X7397394Y-13275360D01*
X7397394Y-13275360D02*
X7378346Y-13284884D01*
X7378346Y-13284884D02*
X7359298Y-13284884D01*
X7359298Y-13284884D02*
X7340251Y-13275360D01*
X7340251Y-13275360D02*
X7330727Y-13265836D01*
X7330727Y-13265836D02*
X7321203Y-13246788D01*
X7321203Y-13246788D02*
X7311679Y-13208693D01*
X7311679Y-13208693D02*
X7311679Y-13161074D01*
X7311679Y-13161074D02*
X7321203Y-13122979D01*
X7321203Y-13122979D02*
X7330727Y-13103931D01*
X7330727Y-13103931D02*
X7340251Y-13094408D01*
X7340251Y-13094408D02*
X7359298Y-13084884D01*
X7492632Y-13084884D02*
X7616441Y-13084884D01*
X7616441Y-13084884D02*
X7549775Y-13161074D01*
X7549775Y-13161074D02*
X7578346Y-13161074D01*
X7578346Y-13161074D02*
X7597394Y-13170598D01*
X7597394Y-13170598D02*
X7606917Y-13180122D01*
X7606917Y-13180122D02*
X7616441Y-13199169D01*
X7616441Y-13199169D02*
X7616441Y-13246788D01*
X7616441Y-13246788D02*
X7606917Y-13265836D01*
X7606917Y-13265836D02*
X7597394Y-13275360D01*
X7597394Y-13275360D02*
X7578346Y-13284884D01*
X7578346Y-13284884D02*
X7521203Y-13284884D01*
X7521203Y-13284884D02*
X7502156Y-13275360D01*
X7502156Y-13275360D02*
X7492632Y-13265836D01*
X7711679Y-13284884D02*
X7749775Y-13284884D01*
X7749775Y-13284884D02*
X7768822Y-13275360D01*
X7768822Y-13275360D02*
X7778346Y-13265836D01*
X7778346Y-13265836D02*
X7797394Y-13237265D01*
X7797394Y-13237265D02*
X7806917Y-13199169D01*
X7806917Y-13199169D02*
X7806917Y-13122979D01*
X7806917Y-13122979D02*
X7797394Y-13103931D01*
X7797394Y-13103931D02*
X7787870Y-13094408D01*
X7787870Y-13094408D02*
X7768822Y-13084884D01*
X7768822Y-13084884D02*
X7730727Y-13084884D01*
X7730727Y-13084884D02*
X7711679Y-13094408D01*
X7711679Y-13094408D02*
X7702156Y-13103931D01*
X7702156Y-13103931D02*
X7692632Y-13122979D01*
X7692632Y-13122979D02*
X7692632Y-13170598D01*
X7692632Y-13170598D02*
X7702156Y-13189646D01*
X7702156Y-13189646D02*
X7711679Y-13199169D01*
X7711679Y-13199169D02*
X7730727Y-13208693D01*
X7730727Y-13208693D02*
X7768822Y-13208693D01*
X7768822Y-13208693D02*
X7787870Y-13199169D01*
X7787870Y-13199169D02*
X7797394Y-13189646D01*
X7797394Y-13189646D02*
X7806917Y-13170598D01*
X7978346Y-13151550D02*
X7978346Y-13284884D01*
X7930727Y-13075360D02*
X7883108Y-13218217D01*
X7883108Y-13218217D02*
X8006917Y-13218217D01*
X8073584Y-13084884D02*
X8073584Y-13122979D01*
X8149775Y-13084884D02*
X8149775Y-13122979D01*
X8445013Y-13361074D02*
X8435489Y-13351550D01*
X8435489Y-13351550D02*
X8416441Y-13322979D01*
X8416441Y-13322979D02*
X8406918Y-13303931D01*
X8406918Y-13303931D02*
X8397394Y-13275360D01*
X8397394Y-13275360D02*
X8387870Y-13227741D01*
X8387870Y-13227741D02*
X8387870Y-13189646D01*
X8387870Y-13189646D02*
X8397394Y-13142027D01*
X8397394Y-13142027D02*
X8406918Y-13113455D01*
X8406918Y-13113455D02*
X8416441Y-13094408D01*
X8416441Y-13094408D02*
X8435489Y-13065836D01*
X8435489Y-13065836D02*
X8445013Y-13056312D01*
X8616441Y-13084884D02*
X8521203Y-13084884D01*
X8521203Y-13084884D02*
X8511680Y-13180122D01*
X8511680Y-13180122D02*
X8521203Y-13170598D01*
X8521203Y-13170598D02*
X8540251Y-13161074D01*
X8540251Y-13161074D02*
X8587870Y-13161074D01*
X8587870Y-13161074D02*
X8606918Y-13170598D01*
X8606918Y-13170598D02*
X8616441Y-13180122D01*
X8616441Y-13180122D02*
X8625965Y-13199169D01*
X8625965Y-13199169D02*
X8625965Y-13246788D01*
X8625965Y-13246788D02*
X8616441Y-13265836D01*
X8616441Y-13265836D02*
X8606918Y-13275360D01*
X8606918Y-13275360D02*
X8587870Y-13284884D01*
X8587870Y-13284884D02*
X8540251Y-13284884D01*
X8540251Y-13284884D02*
X8521203Y-13275360D01*
X8521203Y-13275360D02*
X8511680Y-13265836D01*
X8864061Y-13284884D02*
X8864061Y-13084884D01*
X8949775Y-13284884D02*
X8949775Y-13180122D01*
X8949775Y-13180122D02*
X8940251Y-13161074D01*
X8940251Y-13161074D02*
X8921203Y-13151550D01*
X8921203Y-13151550D02*
X8892632Y-13151550D01*
X8892632Y-13151550D02*
X8873584Y-13161074D01*
X8873584Y-13161074D02*
X8864061Y-13170598D01*
X9073584Y-13284884D02*
X9054537Y-13275360D01*
X9054537Y-13275360D02*
X9045013Y-13265836D01*
X9045013Y-13265836D02*
X9035489Y-13246788D01*
X9035489Y-13246788D02*
X9035489Y-13189646D01*
X9035489Y-13189646D02*
X9045013Y-13170598D01*
X9045013Y-13170598D02*
X9054537Y-13161074D01*
X9054537Y-13161074D02*
X9073584Y-13151550D01*
X9073584Y-13151550D02*
X9102156Y-13151550D01*
X9102156Y-13151550D02*
X9121203Y-13161074D01*
X9121203Y-13161074D02*
X9130727Y-13170598D01*
X9130727Y-13170598D02*
X9140251Y-13189646D01*
X9140251Y-13189646D02*
X9140251Y-13246788D01*
X9140251Y-13246788D02*
X9130727Y-13265836D01*
X9130727Y-13265836D02*
X9121203Y-13275360D01*
X9121203Y-13275360D02*
X9102156Y-13284884D01*
X9102156Y-13284884D02*
X9073584Y-13284884D01*
X9254537Y-13284884D02*
X9235489Y-13275360D01*
X9235489Y-13275360D02*
X9225965Y-13256312D01*
X9225965Y-13256312D02*
X9225965Y-13084884D01*
X9406918Y-13275360D02*
X9387870Y-13284884D01*
X9387870Y-13284884D02*
X9349775Y-13284884D01*
X9349775Y-13284884D02*
X9330727Y-13275360D01*
X9330727Y-13275360D02*
X9321203Y-13256312D01*
X9321203Y-13256312D02*
X9321203Y-13180122D01*
X9321203Y-13180122D02*
X9330727Y-13161074D01*
X9330727Y-13161074D02*
X9349775Y-13151550D01*
X9349775Y-13151550D02*
X9387870Y-13151550D01*
X9387870Y-13151550D02*
X9406918Y-13161074D01*
X9406918Y-13161074D02*
X9416442Y-13180122D01*
X9416442Y-13180122D02*
X9416442Y-13199169D01*
X9416442Y-13199169D02*
X9321203Y-13218217D01*
X9492632Y-13275360D02*
X9511680Y-13284884D01*
X9511680Y-13284884D02*
X9549775Y-13284884D01*
X9549775Y-13284884D02*
X9568823Y-13275360D01*
X9568823Y-13275360D02*
X9578346Y-13256312D01*
X9578346Y-13256312D02*
X9578346Y-13246788D01*
X9578346Y-13246788D02*
X9568823Y-13227741D01*
X9568823Y-13227741D02*
X9549775Y-13218217D01*
X9549775Y-13218217D02*
X9521203Y-13218217D01*
X9521203Y-13218217D02*
X9502156Y-13208693D01*
X9502156Y-13208693D02*
X9492632Y-13189646D01*
X9492632Y-13189646D02*
X9492632Y-13180122D01*
X9492632Y-13180122D02*
X9502156Y-13161074D01*
X9502156Y-13161074D02*
X9521203Y-13151550D01*
X9521203Y-13151550D02*
X9549775Y-13151550D01*
X9549775Y-13151550D02*
X9568823Y-13161074D01*
X9645013Y-13361074D02*
X9654537Y-13351550D01*
X9654537Y-13351550D02*
X9673584Y-13322979D01*
X9673584Y-13322979D02*
X9683108Y-13303931D01*
X9683108Y-13303931D02*
X9692632Y-13275360D01*
X9692632Y-13275360D02*
X9702156Y-13227741D01*
X9702156Y-13227741D02*
X9702156Y-13189646D01*
X9702156Y-13189646D02*
X9692632Y-13142027D01*
X9692632Y-13142027D02*
X9683108Y-13113455D01*
X9683108Y-13113455D02*
X9673584Y-13094408D01*
X9673584Y-13094408D02*
X9654537Y-13065836D01*
X9654537Y-13065836D02*
X9645013Y-13056312D01*
M02*
