%TF.GenerationSoftware,KiCad,Pcbnew,7.0.5-0*%
%TF.CreationDate,2023-09-10T21:20:12+09:30*%
%TF.ProjectId,Rolio,526f6c69-6f2e-46b6-9963-61645f706362,rev?*%
%TF.SameCoordinates,Original*%
%TF.FileFunction,Drillmap*%
%TF.FilePolarity,Positive*%
%FSLAX45Y45*%
G04 Gerber Fmt 4.5, Leading zero omitted, Abs format (unit mm)*
G04 Created by KiCad (PCBNEW 7.0.5-0) date 2023-09-10 21:20:12*
%MOMM*%
%LPD*%
G01*
G04 APERTURE LIST*
%ADD10C,0.150000*%
%ADD11C,0.100000*%
%ADD12C,0.200000*%
%ADD13C,0.040000*%
%ADD14C,0.080000*%
%ADD15C,0.090000*%
G04 APERTURE END LIST*
D10*
X4729747Y-9305533D02*
G75*
G03*
X4855338Y-9567013I335003J3D01*
G01*
X11495884Y-3322659D02*
X14756676Y-3322659D01*
D11*
X17193950Y-9470400D02*
X17193950Y-9470400D01*
D10*
X18908780Y-9152048D02*
X18908780Y-4257662D01*
X11412474Y-3329201D02*
X9609764Y-3613735D01*
X9495734Y-3622722D02*
X5064494Y-3626109D01*
X5114817Y-9987891D02*
G75*
G03*
X4855337Y-9567013I-718947J-152819D01*
G01*
X5312250Y-3905500D02*
X6582250Y-3905500D01*
X7723554Y-11312659D02*
X9408835Y-11312659D01*
X5424013Y-11442537D02*
X5114819Y-9987891D01*
X5312250Y-7096500D02*
X5312250Y-3905500D01*
X9408835Y-11312659D02*
G75*
G03*
X9461809Y-11308444I-5J335089D01*
G01*
X14768771Y-10687659D02*
G75*
G03*
X14869576Y-10672133I-1J334999D01*
G01*
X7570739Y-11328720D02*
X5821343Y-11700566D01*
X14840086Y-3329201D02*
G75*
G03*
X14756676Y-3322659I-83406J-528379D01*
G01*
X13280432Y-10696907D02*
X9461809Y-11308444D01*
X14869576Y-10672133D02*
X18674585Y-9471522D01*
X18626009Y-3926758D02*
X14840086Y-3329201D01*
X6582250Y-3905500D02*
X6582250Y-7096500D01*
X5064494Y-3626109D02*
G75*
G03*
X4729750Y-3961109I264J-335008D01*
G01*
X4729750Y-9305533D02*
X4729750Y-3961109D01*
X18908778Y-4257662D02*
G75*
G03*
X18626009Y-3926759I-334998J2D01*
G01*
X5312250Y-7096500D02*
X6582250Y-7096500D01*
X13396658Y-10687660D02*
G75*
G03*
X13280432Y-10696907I-9J-734960D01*
G01*
X13396658Y-10687659D02*
X14768771Y-10687659D01*
X5424013Y-11442537D02*
G75*
G03*
X5821343Y-11700566I327677J69647D01*
G01*
X7723554Y-11312660D02*
G75*
G03*
X7570739Y-11328721I6J-735090D01*
G01*
X18674586Y-9471526D02*
G75*
G03*
X18908780Y-9152048I-100796J319466D01*
G01*
X11495884Y-3322659D02*
G75*
G03*
X11412474Y-3329201I6J-535091D01*
G01*
X9495734Y-3622723D02*
G75*
G03*
X9609764Y-3613735I-574J735103D01*
G01*
D12*
D13*
X4933000Y-4018600D02*
X4973000Y-4058600D01*
X4973000Y-4018600D02*
X4933000Y-4058600D01*
X5060000Y-8920800D02*
X5100000Y-8960800D01*
X5100000Y-8920800D02*
X5060000Y-8960800D01*
X5263200Y-3790000D02*
X5303200Y-3830000D01*
X5303200Y-3790000D02*
X5263200Y-3830000D01*
X5339400Y-9351350D02*
X5379400Y-9391350D01*
X5379400Y-9351350D02*
X5339400Y-9391350D01*
X5517200Y-9733600D02*
X5557200Y-9773600D01*
X5557200Y-9733600D02*
X5517200Y-9773600D01*
X5644200Y-7676200D02*
X5684200Y-7716200D01*
X5684200Y-7676200D02*
X5644200Y-7716200D01*
X5771200Y-7676200D02*
X5811200Y-7716200D01*
X5811200Y-7676200D02*
X5771200Y-7716200D01*
X5923600Y-10140000D02*
X5963600Y-10180000D01*
X5963600Y-10140000D02*
X5923600Y-10180000D01*
X5974400Y-8793800D02*
X6014400Y-8833800D01*
X6014400Y-8793800D02*
X5974400Y-8833800D01*
X6177600Y-7777800D02*
X6217600Y-7817800D01*
X6217600Y-7777800D02*
X6177600Y-7817800D01*
X6203000Y-7955600D02*
X6243000Y-7995600D01*
X6243000Y-7955600D02*
X6203000Y-7995600D01*
X6253800Y-9428800D02*
X6293800Y-9468800D01*
X6293800Y-9428800D02*
X6253800Y-9468800D01*
X6457000Y-9759000D02*
X6497000Y-9799000D01*
X6497000Y-9759000D02*
X6457000Y-9799000D01*
X6685600Y-9327200D02*
X6725600Y-9367200D01*
X6725600Y-9327200D02*
X6685600Y-9367200D01*
X6685600Y-9606600D02*
X6725600Y-9646600D01*
X6725600Y-9606600D02*
X6685600Y-9646600D01*
X6761800Y-7028500D02*
X6801800Y-7068500D01*
X6801800Y-7028500D02*
X6761800Y-7068500D01*
X6761800Y-7168200D02*
X6801800Y-7208200D01*
X6801800Y-7168200D02*
X6761800Y-7208200D01*
X6761800Y-7320600D02*
X6801800Y-7360600D01*
X6801800Y-7320600D02*
X6761800Y-7360600D01*
X6990400Y-5009200D02*
X7030400Y-5049200D01*
X7030400Y-5009200D02*
X6990400Y-5049200D01*
X7041200Y-4780600D02*
X7081200Y-4820600D01*
X7081200Y-4780600D02*
X7041200Y-4820600D01*
X7219000Y-6330000D02*
X7259000Y-6370000D01*
X7259000Y-6330000D02*
X7219000Y-6370000D01*
X7320600Y-8158800D02*
X7360600Y-8198800D01*
X7360600Y-8158800D02*
X7320600Y-8198800D01*
X7447600Y-9784400D02*
X7487600Y-9824400D01*
X7487600Y-9784400D02*
X7447600Y-9824400D01*
X7803200Y-7676200D02*
X7843200Y-7716200D01*
X7843200Y-7676200D02*
X7803200Y-7716200D01*
X7930200Y-6228400D02*
X7970200Y-6268400D01*
X7970200Y-6228400D02*
X7930200Y-6268400D01*
X8057200Y-9479600D02*
X8097200Y-9519600D01*
X8097200Y-9479600D02*
X8057200Y-9519600D01*
X8133400Y-3764600D02*
X8173400Y-3804600D01*
X8173400Y-3764600D02*
X8133400Y-3804600D01*
X8133400Y-3942400D02*
X8173400Y-3982400D01*
X8173400Y-3942400D02*
X8133400Y-3982400D01*
X8133400Y-6253800D02*
X8173400Y-6293800D01*
X8173400Y-6253800D02*
X8133400Y-6293800D01*
X8133400Y-8057200D02*
X8173400Y-8097200D01*
X8173400Y-8057200D02*
X8133400Y-8097200D01*
X8133400Y-9835200D02*
X8173400Y-9875200D01*
X8173400Y-9835200D02*
X8133400Y-9875200D01*
X8158800Y-4450400D02*
X8198800Y-4490400D01*
X8198800Y-4450400D02*
X8158800Y-4490400D01*
X8463600Y-7777800D02*
X8503600Y-7817800D01*
X8503600Y-7777800D02*
X8463600Y-7817800D01*
X8514400Y-9555800D02*
X8554400Y-9595800D01*
X8554400Y-9555800D02*
X8514400Y-9595800D01*
X8539800Y-4069400D02*
X8579800Y-4109400D01*
X8579800Y-4069400D02*
X8539800Y-4109400D01*
X8666800Y-5999800D02*
X8706800Y-6039800D01*
X8706800Y-5999800D02*
X8666800Y-6039800D01*
X8717500Y-6634800D02*
X8757500Y-6674800D01*
X8757500Y-6634800D02*
X8717500Y-6674800D01*
X9378000Y-5695000D02*
X9418000Y-5735000D01*
X9418000Y-5695000D02*
X9378000Y-5735000D01*
X9682800Y-7320600D02*
X9722800Y-7360600D01*
X9722800Y-7320600D02*
X9682800Y-7360600D01*
X9784400Y-5517200D02*
X9824400Y-5557200D01*
X9824400Y-5517200D02*
X9784400Y-5557200D01*
X9809800Y-9149400D02*
X9849800Y-9189400D01*
X9849800Y-9149400D02*
X9809800Y-9189400D01*
X9987600Y-5923600D02*
X10027600Y-5963600D01*
X10027600Y-5923600D02*
X9987600Y-5963600D01*
X10013000Y-7727000D02*
X10053000Y-7767000D01*
X10053000Y-7727000D02*
X10013000Y-7767000D01*
X10013000Y-9555800D02*
X10053000Y-9595800D01*
X10053000Y-9555800D02*
X10013000Y-9595800D01*
X10038400Y-4120200D02*
X10078400Y-4160200D01*
X10078400Y-4120200D02*
X10038400Y-4160200D01*
X10394000Y-5618800D02*
X10434000Y-5658800D01*
X10434000Y-5618800D02*
X10394000Y-5658800D01*
X10394000Y-9251000D02*
X10434000Y-9291000D01*
X10434000Y-9251000D02*
X10394000Y-9291000D01*
X10419400Y-3790000D02*
X10459400Y-3830000D01*
X10459400Y-3790000D02*
X10419400Y-3830000D01*
X10419400Y-7422200D02*
X10459400Y-7462200D01*
X10459400Y-7422200D02*
X10419400Y-7462200D01*
X11105200Y-5136200D02*
X11145200Y-5176200D01*
X11145200Y-5136200D02*
X11105200Y-5176200D01*
X11257600Y-7269800D02*
X11297600Y-7309800D01*
X11297600Y-7269800D02*
X11257600Y-7309800D01*
X11333800Y-5263200D02*
X11373800Y-5303200D01*
X11373800Y-5263200D02*
X11333800Y-5303200D01*
X11562400Y-7066600D02*
X11602400Y-7106600D01*
X11602400Y-7066600D02*
X11562400Y-7106600D01*
X11664000Y-8870000D02*
X11704000Y-8910000D01*
X11704000Y-8870000D02*
X11664000Y-8910000D01*
X11689400Y-5263200D02*
X11729400Y-5303200D01*
X11729400Y-5263200D02*
X11689400Y-5303200D01*
X11867200Y-3815400D02*
X11907200Y-3855400D01*
X11907200Y-3815400D02*
X11867200Y-3855400D01*
X11867200Y-7422200D02*
X11907200Y-7462200D01*
X11907200Y-7422200D02*
X11867200Y-7462200D01*
X11867200Y-9225600D02*
X11907200Y-9265600D01*
X11907200Y-9225600D02*
X11867200Y-9265600D01*
X11892600Y-5644200D02*
X11932600Y-5684200D01*
X11932600Y-5644200D02*
X11892600Y-5684200D01*
X12299000Y-3510600D02*
X12339000Y-3550600D01*
X12339000Y-3510600D02*
X12299000Y-3550600D01*
X12299000Y-5364800D02*
X12339000Y-5404800D01*
X12339000Y-5364800D02*
X12299000Y-5404800D01*
X12299000Y-7168200D02*
X12339000Y-7208200D01*
X12339000Y-7168200D02*
X12299000Y-7208200D01*
X12349800Y-8946200D02*
X12389800Y-8986200D01*
X12389800Y-8946200D02*
X12349800Y-8986200D01*
X13086400Y-9276400D02*
X13126400Y-9316400D01*
X13126400Y-9276400D02*
X13086400Y-9316400D01*
X13340400Y-8844600D02*
X13380400Y-8884600D01*
X13380400Y-8844600D02*
X13340400Y-8884600D01*
X13594400Y-5237800D02*
X13634400Y-5277800D01*
X13634400Y-5237800D02*
X13594400Y-5277800D01*
X13670600Y-7066600D02*
X13710600Y-7106600D01*
X13710600Y-7066600D02*
X13670600Y-7106600D01*
X13721400Y-9200200D02*
X13761400Y-9240200D01*
X13761400Y-9200200D02*
X13721400Y-9240200D01*
X13772200Y-3840800D02*
X13812200Y-3880800D01*
X13812200Y-3840800D02*
X13772200Y-3880800D01*
X13772200Y-5644200D02*
X13812200Y-5684200D01*
X13812200Y-5644200D02*
X13772200Y-5684200D01*
X13772200Y-7422200D02*
X13812200Y-7462200D01*
X13812200Y-7422200D02*
X13772200Y-7462200D01*
X14178600Y-5364800D02*
X14218600Y-5404800D01*
X14218600Y-5364800D02*
X14178600Y-5404800D01*
X14204000Y-7168200D02*
X14244000Y-7208200D01*
X14244000Y-7168200D02*
X14204000Y-7208200D01*
X14204000Y-8920800D02*
X14244000Y-8960800D01*
X14244000Y-8920800D02*
X14204000Y-8960800D01*
X14254800Y-3510600D02*
X14294800Y-3550600D01*
X14294800Y-3510600D02*
X14254800Y-3550600D01*
X14280200Y-4602800D02*
X14320200Y-4642800D01*
X14320200Y-4602800D02*
X14280200Y-4642800D01*
X14686600Y-8920800D02*
X14726600Y-8960800D01*
X14726600Y-8920800D02*
X14686600Y-8960800D01*
X14864400Y-7320600D02*
X14904400Y-7360600D01*
X14904400Y-7320600D02*
X14864400Y-7360600D01*
X14940600Y-8920800D02*
X14980600Y-8960800D01*
X14980600Y-8920800D02*
X14940600Y-8960800D01*
X14966000Y-4323400D02*
X15006000Y-4363400D01*
X15006000Y-4323400D02*
X14966000Y-4363400D01*
X14966000Y-5796600D02*
X15006000Y-5836600D01*
X15006000Y-5796600D02*
X14966000Y-5836600D01*
X14966000Y-6152200D02*
X15006000Y-6192200D01*
X15006000Y-6152200D02*
X14966000Y-6192200D01*
X15321600Y-9149400D02*
X15361600Y-9189400D01*
X15361600Y-9149400D02*
X15321600Y-9189400D01*
X15423200Y-5542600D02*
X15463200Y-5582600D01*
X15463200Y-5542600D02*
X15423200Y-5582600D01*
X15423200Y-7371400D02*
X15463200Y-7411400D01*
X15463200Y-7371400D02*
X15423200Y-7411400D01*
X15524800Y-10216200D02*
X15564800Y-10256200D01*
X15564800Y-10216200D02*
X15524800Y-10256200D01*
X15626400Y-5923600D02*
X15666400Y-5963600D01*
X15666400Y-5923600D02*
X15626400Y-5963600D01*
X15626400Y-6253800D02*
X15666400Y-6293800D01*
X15666400Y-6253800D02*
X15626400Y-6293800D01*
X15651800Y-4145600D02*
X15691800Y-4185600D01*
X15691800Y-4145600D02*
X15651800Y-4185600D01*
X15651800Y-7727000D02*
X15691800Y-7767000D01*
X15691800Y-7727000D02*
X15651800Y-7767000D01*
X16058200Y-5669600D02*
X16098200Y-5709600D01*
X16098200Y-5669600D02*
X16058200Y-5709600D01*
X16083600Y-3866200D02*
X16123600Y-3906200D01*
X16123600Y-3866200D02*
X16083600Y-3906200D01*
X16109000Y-7447600D02*
X16149000Y-7487600D01*
X16149000Y-7447600D02*
X16109000Y-7487600D01*
X16566200Y-6711000D02*
X16606200Y-6751000D01*
X16606200Y-6711000D02*
X16566200Y-6751000D01*
X16642400Y-7346000D02*
X16682400Y-7386000D01*
X16682400Y-7346000D02*
X16642400Y-7386000D01*
X16820200Y-7904800D02*
X16860200Y-7944800D01*
X16860200Y-7904800D02*
X16820200Y-7944800D01*
X17404400Y-7600000D02*
X17444400Y-7640000D01*
X17444400Y-7600000D02*
X17404400Y-7640000D01*
X17531400Y-4425000D02*
X17571400Y-4465000D01*
X17571400Y-4425000D02*
X17531400Y-4465000D01*
X17531400Y-8031800D02*
X17571400Y-8071800D01*
X17571400Y-8031800D02*
X17531400Y-8071800D01*
X17556800Y-6228400D02*
X17596800Y-6268400D01*
X17596800Y-6228400D02*
X17556800Y-6268400D01*
X17937800Y-7727000D02*
X17977800Y-7767000D01*
X17977800Y-7727000D02*
X17937800Y-7767000D01*
X17963200Y-5949000D02*
X18003200Y-5989000D01*
X18003200Y-5949000D02*
X17963200Y-5989000D01*
X17988600Y-4171000D02*
X18028600Y-4211000D01*
X18028600Y-4171000D02*
X17988600Y-4211000D01*
X18395000Y-5949000D02*
X18435000Y-5989000D01*
X18435000Y-5949000D02*
X18395000Y-5989000D01*
X18420400Y-7727000D02*
X18460400Y-7767000D01*
X18460400Y-7727000D02*
X18420400Y-7767000D01*
D14*
X5224750Y-4017000D02*
G75*
G03*
X5224750Y-4017000I-40000J0D01*
G01*
X5224750Y-4271000D02*
G75*
G03*
X5224750Y-4271000I-40000J0D01*
G01*
X5224750Y-4525000D02*
G75*
G03*
X5224750Y-4525000I-40000J0D01*
G01*
X5224750Y-4779000D02*
G75*
G03*
X5224750Y-4779000I-40000J0D01*
G01*
X5224750Y-5033000D02*
G75*
G03*
X5224750Y-5033000I-40000J0D01*
G01*
X5224750Y-5287000D02*
G75*
G03*
X5224750Y-5287000I-40000J0D01*
G01*
X5224750Y-5541000D02*
G75*
G03*
X5224750Y-5541000I-40000J0D01*
G01*
X5224750Y-5795000D02*
G75*
G03*
X5224750Y-5795000I-40000J0D01*
G01*
X5224750Y-6049000D02*
G75*
G03*
X5224750Y-6049000I-40000J0D01*
G01*
X5224750Y-6303000D02*
G75*
G03*
X5224750Y-6303000I-40000J0D01*
G01*
X5224750Y-6557000D02*
G75*
G03*
X5224750Y-6557000I-40000J0D01*
G01*
X5224750Y-6811000D02*
G75*
G03*
X5224750Y-6811000I-40000J0D01*
G01*
X6748750Y-4017000D02*
G75*
G03*
X6748750Y-4017000I-40000J0D01*
G01*
X6748750Y-4271000D02*
G75*
G03*
X6748750Y-4271000I-40000J0D01*
G01*
X6748750Y-4525000D02*
G75*
G03*
X6748750Y-4525000I-40000J0D01*
G01*
X6748750Y-4779000D02*
G75*
G03*
X6748750Y-4779000I-40000J0D01*
G01*
X6748750Y-5033000D02*
G75*
G03*
X6748750Y-5033000I-40000J0D01*
G01*
X6748750Y-5287000D02*
G75*
G03*
X6748750Y-5287000I-40000J0D01*
G01*
X6748750Y-5541000D02*
G75*
G03*
X6748750Y-5541000I-40000J0D01*
G01*
X6748750Y-5795000D02*
G75*
G03*
X6748750Y-5795000I-40000J0D01*
G01*
X6748750Y-6049000D02*
G75*
G03*
X6748750Y-6049000I-40000J0D01*
G01*
X6748750Y-6303000D02*
G75*
G03*
X6748750Y-6303000I-40000J0D01*
G01*
X6748750Y-6557000D02*
G75*
G03*
X6748750Y-6557000I-40000J0D01*
G01*
X6748750Y-6811000D02*
G75*
G03*
X6748750Y-6811000I-40000J0D01*
G01*
X7607350Y-4746000D02*
G75*
G03*
X7607350Y-4746000I-40000J0D01*
G01*
X7607350Y-4946000D02*
G75*
G03*
X7607350Y-4946000I-40000J0D01*
G01*
D15*
X5247250Y-7668000D02*
X5247250Y-7758000D01*
X5202250Y-7713000D02*
X5292250Y-7713000D01*
X5369750Y-7907000D02*
X5369750Y-7997000D01*
X5324750Y-7952000D02*
X5414750Y-7952000D01*
X5369750Y-8161000D02*
X5369750Y-8251000D01*
X5324750Y-8206000D02*
X5414750Y-8206000D01*
X5369750Y-8415000D02*
X5369750Y-8505000D01*
X5324750Y-8460000D02*
X5414750Y-8460000D01*
X5369750Y-8669000D02*
X5369750Y-8759000D01*
X5324750Y-8714000D02*
X5414750Y-8714000D01*
X5432250Y-7668000D02*
X5432250Y-7758000D01*
X5387250Y-7713000D02*
X5477250Y-7713000D01*
D11*
X5474106Y-7363356D02*
X5474106Y-7292644D01*
X5403394Y-7292644D01*
X5403394Y-7363356D01*
X5474106Y-7363356D01*
X5728106Y-7363356D02*
X5728106Y-7292644D01*
X5657394Y-7292644D01*
X5657394Y-7363356D01*
X5728106Y-7363356D01*
X5982106Y-7363356D02*
X5982106Y-7292644D01*
X5911394Y-7292644D01*
X5911394Y-7363356D01*
X5982106Y-7363356D01*
X6236106Y-7363356D02*
X6236106Y-7292644D01*
X6165394Y-7292644D01*
X6165394Y-7363356D01*
X6236106Y-7363356D01*
X6490106Y-7363356D02*
X6490106Y-7292644D01*
X6419394Y-7292644D01*
X6419394Y-7363356D01*
X6490106Y-7363356D01*
D12*
X4983027Y-12026871D02*
X4983027Y-11826871D01*
X4983027Y-11826871D02*
X5030646Y-11826871D01*
X5030646Y-11826871D02*
X5059217Y-11836395D01*
X5059217Y-11836395D02*
X5078265Y-11855442D01*
X5078265Y-11855442D02*
X5087789Y-11874490D01*
X5087789Y-11874490D02*
X5097313Y-11912585D01*
X5097313Y-11912585D02*
X5097313Y-11941157D01*
X5097313Y-11941157D02*
X5087789Y-11979252D01*
X5087789Y-11979252D02*
X5078265Y-11998299D01*
X5078265Y-11998299D02*
X5059217Y-12017347D01*
X5059217Y-12017347D02*
X5030646Y-12026871D01*
X5030646Y-12026871D02*
X4983027Y-12026871D01*
X5183027Y-12026871D02*
X5183027Y-11893538D01*
X5183027Y-11931633D02*
X5192551Y-11912585D01*
X5192551Y-11912585D02*
X5202074Y-11903061D01*
X5202074Y-11903061D02*
X5221122Y-11893538D01*
X5221122Y-11893538D02*
X5240170Y-11893538D01*
X5306836Y-12026871D02*
X5306836Y-11893538D01*
X5306836Y-11826871D02*
X5297313Y-11836395D01*
X5297313Y-11836395D02*
X5306836Y-11845919D01*
X5306836Y-11845919D02*
X5316360Y-11836395D01*
X5316360Y-11836395D02*
X5306836Y-11826871D01*
X5306836Y-11826871D02*
X5306836Y-11845919D01*
X5430646Y-12026871D02*
X5411598Y-12017347D01*
X5411598Y-12017347D02*
X5402074Y-11998299D01*
X5402074Y-11998299D02*
X5402074Y-11826871D01*
X5535408Y-12026871D02*
X5516360Y-12017347D01*
X5516360Y-12017347D02*
X5506836Y-11998299D01*
X5506836Y-11998299D02*
X5506836Y-11826871D01*
X5763979Y-12026871D02*
X5763979Y-11826871D01*
X5763979Y-11826871D02*
X5830646Y-11969728D01*
X5830646Y-11969728D02*
X5897312Y-11826871D01*
X5897312Y-11826871D02*
X5897312Y-12026871D01*
X6078265Y-12026871D02*
X6078265Y-11922109D01*
X6078265Y-11922109D02*
X6068741Y-11903061D01*
X6068741Y-11903061D02*
X6049693Y-11893538D01*
X6049693Y-11893538D02*
X6011598Y-11893538D01*
X6011598Y-11893538D02*
X5992551Y-11903061D01*
X6078265Y-12017347D02*
X6059217Y-12026871D01*
X6059217Y-12026871D02*
X6011598Y-12026871D01*
X6011598Y-12026871D02*
X5992551Y-12017347D01*
X5992551Y-12017347D02*
X5983027Y-11998299D01*
X5983027Y-11998299D02*
X5983027Y-11979252D01*
X5983027Y-11979252D02*
X5992551Y-11960204D01*
X5992551Y-11960204D02*
X6011598Y-11950680D01*
X6011598Y-11950680D02*
X6059217Y-11950680D01*
X6059217Y-11950680D02*
X6078265Y-11941157D01*
X6173503Y-11893538D02*
X6173503Y-12093538D01*
X6173503Y-11903061D02*
X6192551Y-11893538D01*
X6192551Y-11893538D02*
X6230646Y-11893538D01*
X6230646Y-11893538D02*
X6249693Y-11903061D01*
X6249693Y-11903061D02*
X6259217Y-11912585D01*
X6259217Y-11912585D02*
X6268741Y-11931633D01*
X6268741Y-11931633D02*
X6268741Y-11988776D01*
X6268741Y-11988776D02*
X6259217Y-12007823D01*
X6259217Y-12007823D02*
X6249693Y-12017347D01*
X6249693Y-12017347D02*
X6230646Y-12026871D01*
X6230646Y-12026871D02*
X6192551Y-12026871D01*
X6192551Y-12026871D02*
X6173503Y-12017347D01*
X6354455Y-12007823D02*
X6363979Y-12017347D01*
X6363979Y-12017347D02*
X6354455Y-12026871D01*
X6354455Y-12026871D02*
X6344932Y-12017347D01*
X6344932Y-12017347D02*
X6354455Y-12007823D01*
X6354455Y-12007823D02*
X6354455Y-12026871D01*
X6354455Y-11903061D02*
X6363979Y-11912585D01*
X6363979Y-11912585D02*
X6354455Y-11922109D01*
X6354455Y-11922109D02*
X6344932Y-11912585D01*
X6344932Y-11912585D02*
X6354455Y-11903061D01*
X6354455Y-11903061D02*
X6354455Y-11922109D01*
D13*
X4682250Y-12335387D02*
X4722250Y-12375387D01*
X4722250Y-12335387D02*
X4682250Y-12375387D01*
D12*
X5021122Y-12246871D02*
X5040170Y-12246871D01*
X5040170Y-12246871D02*
X5059217Y-12256395D01*
X5059217Y-12256395D02*
X5068741Y-12265919D01*
X5068741Y-12265919D02*
X5078265Y-12284966D01*
X5078265Y-12284966D02*
X5087789Y-12323061D01*
X5087789Y-12323061D02*
X5087789Y-12370680D01*
X5087789Y-12370680D02*
X5078265Y-12408776D01*
X5078265Y-12408776D02*
X5068741Y-12427823D01*
X5068741Y-12427823D02*
X5059217Y-12437347D01*
X5059217Y-12437347D02*
X5040170Y-12446871D01*
X5040170Y-12446871D02*
X5021122Y-12446871D01*
X5021122Y-12446871D02*
X5002074Y-12437347D01*
X5002074Y-12437347D02*
X4992551Y-12427823D01*
X4992551Y-12427823D02*
X4983027Y-12408776D01*
X4983027Y-12408776D02*
X4973503Y-12370680D01*
X4973503Y-12370680D02*
X4973503Y-12323061D01*
X4973503Y-12323061D02*
X4983027Y-12284966D01*
X4983027Y-12284966D02*
X4992551Y-12265919D01*
X4992551Y-12265919D02*
X5002074Y-12256395D01*
X5002074Y-12256395D02*
X5021122Y-12246871D01*
X5173503Y-12427823D02*
X5183027Y-12437347D01*
X5183027Y-12437347D02*
X5173503Y-12446871D01*
X5173503Y-12446871D02*
X5163979Y-12437347D01*
X5163979Y-12437347D02*
X5173503Y-12427823D01*
X5173503Y-12427823D02*
X5173503Y-12446871D01*
X5354455Y-12313538D02*
X5354455Y-12446871D01*
X5306836Y-12237347D02*
X5259217Y-12380204D01*
X5259217Y-12380204D02*
X5383027Y-12380204D01*
X5497313Y-12246871D02*
X5516360Y-12246871D01*
X5516360Y-12246871D02*
X5535408Y-12256395D01*
X5535408Y-12256395D02*
X5544932Y-12265919D01*
X5544932Y-12265919D02*
X5554455Y-12284966D01*
X5554455Y-12284966D02*
X5563979Y-12323061D01*
X5563979Y-12323061D02*
X5563979Y-12370680D01*
X5563979Y-12370680D02*
X5554455Y-12408776D01*
X5554455Y-12408776D02*
X5544932Y-12427823D01*
X5544932Y-12427823D02*
X5535408Y-12437347D01*
X5535408Y-12437347D02*
X5516360Y-12446871D01*
X5516360Y-12446871D02*
X5497313Y-12446871D01*
X5497313Y-12446871D02*
X5478265Y-12437347D01*
X5478265Y-12437347D02*
X5468741Y-12427823D01*
X5468741Y-12427823D02*
X5459217Y-12408776D01*
X5459217Y-12408776D02*
X5449694Y-12370680D01*
X5449694Y-12370680D02*
X5449694Y-12323061D01*
X5449694Y-12323061D02*
X5459217Y-12284966D01*
X5459217Y-12284966D02*
X5468741Y-12265919D01*
X5468741Y-12265919D02*
X5478265Y-12256395D01*
X5478265Y-12256395D02*
X5497313Y-12246871D01*
X5687789Y-12246871D02*
X5706836Y-12246871D01*
X5706836Y-12246871D02*
X5725884Y-12256395D01*
X5725884Y-12256395D02*
X5735408Y-12265919D01*
X5735408Y-12265919D02*
X5744932Y-12284966D01*
X5744932Y-12284966D02*
X5754455Y-12323061D01*
X5754455Y-12323061D02*
X5754455Y-12370680D01*
X5754455Y-12370680D02*
X5744932Y-12408776D01*
X5744932Y-12408776D02*
X5735408Y-12427823D01*
X5735408Y-12427823D02*
X5725884Y-12437347D01*
X5725884Y-12437347D02*
X5706836Y-12446871D01*
X5706836Y-12446871D02*
X5687789Y-12446871D01*
X5687789Y-12446871D02*
X5668741Y-12437347D01*
X5668741Y-12437347D02*
X5659217Y-12427823D01*
X5659217Y-12427823D02*
X5649693Y-12408776D01*
X5649693Y-12408776D02*
X5640170Y-12370680D01*
X5640170Y-12370680D02*
X5640170Y-12323061D01*
X5640170Y-12323061D02*
X5649693Y-12284966D01*
X5649693Y-12284966D02*
X5659217Y-12265919D01*
X5659217Y-12265919D02*
X5668741Y-12256395D01*
X5668741Y-12256395D02*
X5687789Y-12246871D01*
X5840170Y-12446871D02*
X5840170Y-12313538D01*
X5840170Y-12332585D02*
X5849693Y-12323061D01*
X5849693Y-12323061D02*
X5868741Y-12313538D01*
X5868741Y-12313538D02*
X5897313Y-12313538D01*
X5897313Y-12313538D02*
X5916360Y-12323061D01*
X5916360Y-12323061D02*
X5925884Y-12342109D01*
X5925884Y-12342109D02*
X5925884Y-12446871D01*
X5925884Y-12342109D02*
X5935408Y-12323061D01*
X5935408Y-12323061D02*
X5954455Y-12313538D01*
X5954455Y-12313538D02*
X5983027Y-12313538D01*
X5983027Y-12313538D02*
X6002074Y-12323061D01*
X6002074Y-12323061D02*
X6011598Y-12342109D01*
X6011598Y-12342109D02*
X6011598Y-12446871D01*
X6106836Y-12446871D02*
X6106836Y-12313538D01*
X6106836Y-12332585D02*
X6116360Y-12323061D01*
X6116360Y-12323061D02*
X6135408Y-12313538D01*
X6135408Y-12313538D02*
X6163979Y-12313538D01*
X6163979Y-12313538D02*
X6183027Y-12323061D01*
X6183027Y-12323061D02*
X6192551Y-12342109D01*
X6192551Y-12342109D02*
X6192551Y-12446871D01*
X6192551Y-12342109D02*
X6202074Y-12323061D01*
X6202074Y-12323061D02*
X6221122Y-12313538D01*
X6221122Y-12313538D02*
X6249693Y-12313538D01*
X6249693Y-12313538D02*
X6268741Y-12323061D01*
X6268741Y-12323061D02*
X6278265Y-12342109D01*
X6278265Y-12342109D02*
X6278265Y-12446871D01*
X6668741Y-12237347D02*
X6497313Y-12494490D01*
X6925884Y-12246871D02*
X6944932Y-12246871D01*
X6944932Y-12246871D02*
X6963979Y-12256395D01*
X6963979Y-12256395D02*
X6973503Y-12265919D01*
X6973503Y-12265919D02*
X6983027Y-12284966D01*
X6983027Y-12284966D02*
X6992551Y-12323061D01*
X6992551Y-12323061D02*
X6992551Y-12370680D01*
X6992551Y-12370680D02*
X6983027Y-12408776D01*
X6983027Y-12408776D02*
X6973503Y-12427823D01*
X6973503Y-12427823D02*
X6963979Y-12437347D01*
X6963979Y-12437347D02*
X6944932Y-12446871D01*
X6944932Y-12446871D02*
X6925884Y-12446871D01*
X6925884Y-12446871D02*
X6906836Y-12437347D01*
X6906836Y-12437347D02*
X6897313Y-12427823D01*
X6897313Y-12427823D02*
X6887789Y-12408776D01*
X6887789Y-12408776D02*
X6878265Y-12370680D01*
X6878265Y-12370680D02*
X6878265Y-12323061D01*
X6878265Y-12323061D02*
X6887789Y-12284966D01*
X6887789Y-12284966D02*
X6897313Y-12265919D01*
X6897313Y-12265919D02*
X6906836Y-12256395D01*
X6906836Y-12256395D02*
X6925884Y-12246871D01*
X7078265Y-12427823D02*
X7087789Y-12437347D01*
X7087789Y-12437347D02*
X7078265Y-12446871D01*
X7078265Y-12446871D02*
X7068741Y-12437347D01*
X7068741Y-12437347D02*
X7078265Y-12427823D01*
X7078265Y-12427823D02*
X7078265Y-12446871D01*
X7211598Y-12246871D02*
X7230646Y-12246871D01*
X7230646Y-12246871D02*
X7249694Y-12256395D01*
X7249694Y-12256395D02*
X7259217Y-12265919D01*
X7259217Y-12265919D02*
X7268741Y-12284966D01*
X7268741Y-12284966D02*
X7278265Y-12323061D01*
X7278265Y-12323061D02*
X7278265Y-12370680D01*
X7278265Y-12370680D02*
X7268741Y-12408776D01*
X7268741Y-12408776D02*
X7259217Y-12427823D01*
X7259217Y-12427823D02*
X7249694Y-12437347D01*
X7249694Y-12437347D02*
X7230646Y-12446871D01*
X7230646Y-12446871D02*
X7211598Y-12446871D01*
X7211598Y-12446871D02*
X7192551Y-12437347D01*
X7192551Y-12437347D02*
X7183027Y-12427823D01*
X7183027Y-12427823D02*
X7173503Y-12408776D01*
X7173503Y-12408776D02*
X7163979Y-12370680D01*
X7163979Y-12370680D02*
X7163979Y-12323061D01*
X7163979Y-12323061D02*
X7173503Y-12284966D01*
X7173503Y-12284966D02*
X7183027Y-12265919D01*
X7183027Y-12265919D02*
X7192551Y-12256395D01*
X7192551Y-12256395D02*
X7211598Y-12246871D01*
X7468741Y-12446871D02*
X7354456Y-12446871D01*
X7411598Y-12446871D02*
X7411598Y-12246871D01*
X7411598Y-12246871D02*
X7392551Y-12275442D01*
X7392551Y-12275442D02*
X7373503Y-12294490D01*
X7373503Y-12294490D02*
X7354456Y-12304014D01*
X7649694Y-12246871D02*
X7554456Y-12246871D01*
X7554456Y-12246871D02*
X7544932Y-12342109D01*
X7544932Y-12342109D02*
X7554456Y-12332585D01*
X7554456Y-12332585D02*
X7573503Y-12323061D01*
X7573503Y-12323061D02*
X7621122Y-12323061D01*
X7621122Y-12323061D02*
X7640170Y-12332585D01*
X7640170Y-12332585D02*
X7649694Y-12342109D01*
X7649694Y-12342109D02*
X7659217Y-12361157D01*
X7659217Y-12361157D02*
X7659217Y-12408776D01*
X7659217Y-12408776D02*
X7649694Y-12427823D01*
X7649694Y-12427823D02*
X7640170Y-12437347D01*
X7640170Y-12437347D02*
X7621122Y-12446871D01*
X7621122Y-12446871D02*
X7573503Y-12446871D01*
X7573503Y-12446871D02*
X7554456Y-12437347D01*
X7554456Y-12437347D02*
X7544932Y-12427823D01*
X7725884Y-12246871D02*
X7859217Y-12246871D01*
X7859217Y-12246871D02*
X7773503Y-12446871D01*
X7925884Y-12246871D02*
X7925884Y-12284966D01*
X8002075Y-12246871D02*
X8002075Y-12284966D01*
X8297313Y-12523061D02*
X8287789Y-12513538D01*
X8287789Y-12513538D02*
X8268741Y-12484966D01*
X8268741Y-12484966D02*
X8259218Y-12465919D01*
X8259218Y-12465919D02*
X8249694Y-12437347D01*
X8249694Y-12437347D02*
X8240170Y-12389728D01*
X8240170Y-12389728D02*
X8240170Y-12351633D01*
X8240170Y-12351633D02*
X8249694Y-12304014D01*
X8249694Y-12304014D02*
X8259218Y-12275442D01*
X8259218Y-12275442D02*
X8268741Y-12256395D01*
X8268741Y-12256395D02*
X8287789Y-12227823D01*
X8287789Y-12227823D02*
X8297313Y-12218299D01*
X8478265Y-12446871D02*
X8363979Y-12446871D01*
X8421122Y-12446871D02*
X8421122Y-12246871D01*
X8421122Y-12246871D02*
X8402075Y-12275442D01*
X8402075Y-12275442D02*
X8383027Y-12294490D01*
X8383027Y-12294490D02*
X8363979Y-12304014D01*
X8602075Y-12246871D02*
X8621122Y-12246871D01*
X8621122Y-12246871D02*
X8640170Y-12256395D01*
X8640170Y-12256395D02*
X8649694Y-12265919D01*
X8649694Y-12265919D02*
X8659218Y-12284966D01*
X8659218Y-12284966D02*
X8668741Y-12323061D01*
X8668741Y-12323061D02*
X8668741Y-12370680D01*
X8668741Y-12370680D02*
X8659218Y-12408776D01*
X8659218Y-12408776D02*
X8649694Y-12427823D01*
X8649694Y-12427823D02*
X8640170Y-12437347D01*
X8640170Y-12437347D02*
X8621122Y-12446871D01*
X8621122Y-12446871D02*
X8602075Y-12446871D01*
X8602075Y-12446871D02*
X8583027Y-12437347D01*
X8583027Y-12437347D02*
X8573503Y-12427823D01*
X8573503Y-12427823D02*
X8563980Y-12408776D01*
X8563980Y-12408776D02*
X8554456Y-12370680D01*
X8554456Y-12370680D02*
X8554456Y-12323061D01*
X8554456Y-12323061D02*
X8563980Y-12284966D01*
X8563980Y-12284966D02*
X8573503Y-12265919D01*
X8573503Y-12265919D02*
X8583027Y-12256395D01*
X8583027Y-12256395D02*
X8602075Y-12246871D01*
X8849694Y-12246871D02*
X8754456Y-12246871D01*
X8754456Y-12246871D02*
X8744932Y-12342109D01*
X8744932Y-12342109D02*
X8754456Y-12332585D01*
X8754456Y-12332585D02*
X8773503Y-12323061D01*
X8773503Y-12323061D02*
X8821122Y-12323061D01*
X8821122Y-12323061D02*
X8840170Y-12332585D01*
X8840170Y-12332585D02*
X8849694Y-12342109D01*
X8849694Y-12342109D02*
X8859218Y-12361157D01*
X8859218Y-12361157D02*
X8859218Y-12408776D01*
X8859218Y-12408776D02*
X8849694Y-12427823D01*
X8849694Y-12427823D02*
X8840170Y-12437347D01*
X8840170Y-12437347D02*
X8821122Y-12446871D01*
X8821122Y-12446871D02*
X8773503Y-12446871D01*
X8773503Y-12446871D02*
X8754456Y-12437347D01*
X8754456Y-12437347D02*
X8744932Y-12427823D01*
X9097313Y-12446871D02*
X9097313Y-12246871D01*
X9183027Y-12446871D02*
X9183027Y-12342109D01*
X9183027Y-12342109D02*
X9173503Y-12323061D01*
X9173503Y-12323061D02*
X9154456Y-12313538D01*
X9154456Y-12313538D02*
X9125884Y-12313538D01*
X9125884Y-12313538D02*
X9106837Y-12323061D01*
X9106837Y-12323061D02*
X9097313Y-12332585D01*
X9306837Y-12446871D02*
X9287789Y-12437347D01*
X9287789Y-12437347D02*
X9278265Y-12427823D01*
X9278265Y-12427823D02*
X9268742Y-12408776D01*
X9268742Y-12408776D02*
X9268742Y-12351633D01*
X9268742Y-12351633D02*
X9278265Y-12332585D01*
X9278265Y-12332585D02*
X9287789Y-12323061D01*
X9287789Y-12323061D02*
X9306837Y-12313538D01*
X9306837Y-12313538D02*
X9335408Y-12313538D01*
X9335408Y-12313538D02*
X9354456Y-12323061D01*
X9354456Y-12323061D02*
X9363980Y-12332585D01*
X9363980Y-12332585D02*
X9373503Y-12351633D01*
X9373503Y-12351633D02*
X9373503Y-12408776D01*
X9373503Y-12408776D02*
X9363980Y-12427823D01*
X9363980Y-12427823D02*
X9354456Y-12437347D01*
X9354456Y-12437347D02*
X9335408Y-12446871D01*
X9335408Y-12446871D02*
X9306837Y-12446871D01*
X9487789Y-12446871D02*
X9468742Y-12437347D01*
X9468742Y-12437347D02*
X9459218Y-12418299D01*
X9459218Y-12418299D02*
X9459218Y-12246871D01*
X9640170Y-12437347D02*
X9621123Y-12446871D01*
X9621123Y-12446871D02*
X9583027Y-12446871D01*
X9583027Y-12446871D02*
X9563980Y-12437347D01*
X9563980Y-12437347D02*
X9554456Y-12418299D01*
X9554456Y-12418299D02*
X9554456Y-12342109D01*
X9554456Y-12342109D02*
X9563980Y-12323061D01*
X9563980Y-12323061D02*
X9583027Y-12313538D01*
X9583027Y-12313538D02*
X9621123Y-12313538D01*
X9621123Y-12313538D02*
X9640170Y-12323061D01*
X9640170Y-12323061D02*
X9649694Y-12342109D01*
X9649694Y-12342109D02*
X9649694Y-12361157D01*
X9649694Y-12361157D02*
X9554456Y-12380204D01*
X9725884Y-12437347D02*
X9744932Y-12446871D01*
X9744932Y-12446871D02*
X9783027Y-12446871D01*
X9783027Y-12446871D02*
X9802075Y-12437347D01*
X9802075Y-12437347D02*
X9811599Y-12418299D01*
X9811599Y-12418299D02*
X9811599Y-12408776D01*
X9811599Y-12408776D02*
X9802075Y-12389728D01*
X9802075Y-12389728D02*
X9783027Y-12380204D01*
X9783027Y-12380204D02*
X9754456Y-12380204D01*
X9754456Y-12380204D02*
X9735408Y-12370680D01*
X9735408Y-12370680D02*
X9725884Y-12351633D01*
X9725884Y-12351633D02*
X9725884Y-12342109D01*
X9725884Y-12342109D02*
X9735408Y-12323061D01*
X9735408Y-12323061D02*
X9754456Y-12313538D01*
X9754456Y-12313538D02*
X9783027Y-12313538D01*
X9783027Y-12313538D02*
X9802075Y-12323061D01*
X9878265Y-12523061D02*
X9887789Y-12513538D01*
X9887789Y-12513538D02*
X9906837Y-12484966D01*
X9906837Y-12484966D02*
X9916361Y-12465919D01*
X9916361Y-12465919D02*
X9925884Y-12437347D01*
X9925884Y-12437347D02*
X9935408Y-12389728D01*
X9935408Y-12389728D02*
X9935408Y-12351633D01*
X9935408Y-12351633D02*
X9925884Y-12304014D01*
X9925884Y-12304014D02*
X9916361Y-12275442D01*
X9916361Y-12275442D02*
X9906837Y-12256395D01*
X9906837Y-12256395D02*
X9887789Y-12227823D01*
X9887789Y-12227823D02*
X9878265Y-12218299D01*
D14*
X4722250Y-12619387D02*
G75*
G03*
X4722250Y-12619387I-40000J0D01*
G01*
D12*
X5021122Y-12510871D02*
X5040170Y-12510871D01*
X5040170Y-12510871D02*
X5059217Y-12520395D01*
X5059217Y-12520395D02*
X5068741Y-12529919D01*
X5068741Y-12529919D02*
X5078265Y-12548966D01*
X5078265Y-12548966D02*
X5087789Y-12587061D01*
X5087789Y-12587061D02*
X5087789Y-12634680D01*
X5087789Y-12634680D02*
X5078265Y-12672776D01*
X5078265Y-12672776D02*
X5068741Y-12691823D01*
X5068741Y-12691823D02*
X5059217Y-12701347D01*
X5059217Y-12701347D02*
X5040170Y-12710871D01*
X5040170Y-12710871D02*
X5021122Y-12710871D01*
X5021122Y-12710871D02*
X5002074Y-12701347D01*
X5002074Y-12701347D02*
X4992551Y-12691823D01*
X4992551Y-12691823D02*
X4983027Y-12672776D01*
X4983027Y-12672776D02*
X4973503Y-12634680D01*
X4973503Y-12634680D02*
X4973503Y-12587061D01*
X4973503Y-12587061D02*
X4983027Y-12548966D01*
X4983027Y-12548966D02*
X4992551Y-12529919D01*
X4992551Y-12529919D02*
X5002074Y-12520395D01*
X5002074Y-12520395D02*
X5021122Y-12510871D01*
X5173503Y-12691823D02*
X5183027Y-12701347D01*
X5183027Y-12701347D02*
X5173503Y-12710871D01*
X5173503Y-12710871D02*
X5163979Y-12701347D01*
X5163979Y-12701347D02*
X5173503Y-12691823D01*
X5173503Y-12691823D02*
X5173503Y-12710871D01*
X5297313Y-12596585D02*
X5278265Y-12587061D01*
X5278265Y-12587061D02*
X5268741Y-12577538D01*
X5268741Y-12577538D02*
X5259217Y-12558490D01*
X5259217Y-12558490D02*
X5259217Y-12548966D01*
X5259217Y-12548966D02*
X5268741Y-12529919D01*
X5268741Y-12529919D02*
X5278265Y-12520395D01*
X5278265Y-12520395D02*
X5297313Y-12510871D01*
X5297313Y-12510871D02*
X5335408Y-12510871D01*
X5335408Y-12510871D02*
X5354455Y-12520395D01*
X5354455Y-12520395D02*
X5363979Y-12529919D01*
X5363979Y-12529919D02*
X5373503Y-12548966D01*
X5373503Y-12548966D02*
X5373503Y-12558490D01*
X5373503Y-12558490D02*
X5363979Y-12577538D01*
X5363979Y-12577538D02*
X5354455Y-12587061D01*
X5354455Y-12587061D02*
X5335408Y-12596585D01*
X5335408Y-12596585D02*
X5297313Y-12596585D01*
X5297313Y-12596585D02*
X5278265Y-12606109D01*
X5278265Y-12606109D02*
X5268741Y-12615633D01*
X5268741Y-12615633D02*
X5259217Y-12634680D01*
X5259217Y-12634680D02*
X5259217Y-12672776D01*
X5259217Y-12672776D02*
X5268741Y-12691823D01*
X5268741Y-12691823D02*
X5278265Y-12701347D01*
X5278265Y-12701347D02*
X5297313Y-12710871D01*
X5297313Y-12710871D02*
X5335408Y-12710871D01*
X5335408Y-12710871D02*
X5354455Y-12701347D01*
X5354455Y-12701347D02*
X5363979Y-12691823D01*
X5363979Y-12691823D02*
X5373503Y-12672776D01*
X5373503Y-12672776D02*
X5373503Y-12634680D01*
X5373503Y-12634680D02*
X5363979Y-12615633D01*
X5363979Y-12615633D02*
X5354455Y-12606109D01*
X5354455Y-12606109D02*
X5335408Y-12596585D01*
X5497313Y-12510871D02*
X5516360Y-12510871D01*
X5516360Y-12510871D02*
X5535408Y-12520395D01*
X5535408Y-12520395D02*
X5544932Y-12529919D01*
X5544932Y-12529919D02*
X5554455Y-12548966D01*
X5554455Y-12548966D02*
X5563979Y-12587061D01*
X5563979Y-12587061D02*
X5563979Y-12634680D01*
X5563979Y-12634680D02*
X5554455Y-12672776D01*
X5554455Y-12672776D02*
X5544932Y-12691823D01*
X5544932Y-12691823D02*
X5535408Y-12701347D01*
X5535408Y-12701347D02*
X5516360Y-12710871D01*
X5516360Y-12710871D02*
X5497313Y-12710871D01*
X5497313Y-12710871D02*
X5478265Y-12701347D01*
X5478265Y-12701347D02*
X5468741Y-12691823D01*
X5468741Y-12691823D02*
X5459217Y-12672776D01*
X5459217Y-12672776D02*
X5449694Y-12634680D01*
X5449694Y-12634680D02*
X5449694Y-12587061D01*
X5449694Y-12587061D02*
X5459217Y-12548966D01*
X5459217Y-12548966D02*
X5468741Y-12529919D01*
X5468741Y-12529919D02*
X5478265Y-12520395D01*
X5478265Y-12520395D02*
X5497313Y-12510871D01*
X5687789Y-12510871D02*
X5706836Y-12510871D01*
X5706836Y-12510871D02*
X5725884Y-12520395D01*
X5725884Y-12520395D02*
X5735408Y-12529919D01*
X5735408Y-12529919D02*
X5744932Y-12548966D01*
X5744932Y-12548966D02*
X5754455Y-12587061D01*
X5754455Y-12587061D02*
X5754455Y-12634680D01*
X5754455Y-12634680D02*
X5744932Y-12672776D01*
X5744932Y-12672776D02*
X5735408Y-12691823D01*
X5735408Y-12691823D02*
X5725884Y-12701347D01*
X5725884Y-12701347D02*
X5706836Y-12710871D01*
X5706836Y-12710871D02*
X5687789Y-12710871D01*
X5687789Y-12710871D02*
X5668741Y-12701347D01*
X5668741Y-12701347D02*
X5659217Y-12691823D01*
X5659217Y-12691823D02*
X5649693Y-12672776D01*
X5649693Y-12672776D02*
X5640170Y-12634680D01*
X5640170Y-12634680D02*
X5640170Y-12587061D01*
X5640170Y-12587061D02*
X5649693Y-12548966D01*
X5649693Y-12548966D02*
X5659217Y-12529919D01*
X5659217Y-12529919D02*
X5668741Y-12520395D01*
X5668741Y-12520395D02*
X5687789Y-12510871D01*
X5840170Y-12710871D02*
X5840170Y-12577538D01*
X5840170Y-12596585D02*
X5849693Y-12587061D01*
X5849693Y-12587061D02*
X5868741Y-12577538D01*
X5868741Y-12577538D02*
X5897313Y-12577538D01*
X5897313Y-12577538D02*
X5916360Y-12587061D01*
X5916360Y-12587061D02*
X5925884Y-12606109D01*
X5925884Y-12606109D02*
X5925884Y-12710871D01*
X5925884Y-12606109D02*
X5935408Y-12587061D01*
X5935408Y-12587061D02*
X5954455Y-12577538D01*
X5954455Y-12577538D02*
X5983027Y-12577538D01*
X5983027Y-12577538D02*
X6002074Y-12587061D01*
X6002074Y-12587061D02*
X6011598Y-12606109D01*
X6011598Y-12606109D02*
X6011598Y-12710871D01*
X6106836Y-12710871D02*
X6106836Y-12577538D01*
X6106836Y-12596585D02*
X6116360Y-12587061D01*
X6116360Y-12587061D02*
X6135408Y-12577538D01*
X6135408Y-12577538D02*
X6163979Y-12577538D01*
X6163979Y-12577538D02*
X6183027Y-12587061D01*
X6183027Y-12587061D02*
X6192551Y-12606109D01*
X6192551Y-12606109D02*
X6192551Y-12710871D01*
X6192551Y-12606109D02*
X6202074Y-12587061D01*
X6202074Y-12587061D02*
X6221122Y-12577538D01*
X6221122Y-12577538D02*
X6249693Y-12577538D01*
X6249693Y-12577538D02*
X6268741Y-12587061D01*
X6268741Y-12587061D02*
X6278265Y-12606109D01*
X6278265Y-12606109D02*
X6278265Y-12710871D01*
X6668741Y-12501347D02*
X6497313Y-12758490D01*
X6925884Y-12510871D02*
X6944932Y-12510871D01*
X6944932Y-12510871D02*
X6963979Y-12520395D01*
X6963979Y-12520395D02*
X6973503Y-12529919D01*
X6973503Y-12529919D02*
X6983027Y-12548966D01*
X6983027Y-12548966D02*
X6992551Y-12587061D01*
X6992551Y-12587061D02*
X6992551Y-12634680D01*
X6992551Y-12634680D02*
X6983027Y-12672776D01*
X6983027Y-12672776D02*
X6973503Y-12691823D01*
X6973503Y-12691823D02*
X6963979Y-12701347D01*
X6963979Y-12701347D02*
X6944932Y-12710871D01*
X6944932Y-12710871D02*
X6925884Y-12710871D01*
X6925884Y-12710871D02*
X6906836Y-12701347D01*
X6906836Y-12701347D02*
X6897313Y-12691823D01*
X6897313Y-12691823D02*
X6887789Y-12672776D01*
X6887789Y-12672776D02*
X6878265Y-12634680D01*
X6878265Y-12634680D02*
X6878265Y-12587061D01*
X6878265Y-12587061D02*
X6887789Y-12548966D01*
X6887789Y-12548966D02*
X6897313Y-12529919D01*
X6897313Y-12529919D02*
X6906836Y-12520395D01*
X6906836Y-12520395D02*
X6925884Y-12510871D01*
X7078265Y-12691823D02*
X7087789Y-12701347D01*
X7087789Y-12701347D02*
X7078265Y-12710871D01*
X7078265Y-12710871D02*
X7068741Y-12701347D01*
X7068741Y-12701347D02*
X7078265Y-12691823D01*
X7078265Y-12691823D02*
X7078265Y-12710871D01*
X7211598Y-12510871D02*
X7230646Y-12510871D01*
X7230646Y-12510871D02*
X7249694Y-12520395D01*
X7249694Y-12520395D02*
X7259217Y-12529919D01*
X7259217Y-12529919D02*
X7268741Y-12548966D01*
X7268741Y-12548966D02*
X7278265Y-12587061D01*
X7278265Y-12587061D02*
X7278265Y-12634680D01*
X7278265Y-12634680D02*
X7268741Y-12672776D01*
X7268741Y-12672776D02*
X7259217Y-12691823D01*
X7259217Y-12691823D02*
X7249694Y-12701347D01*
X7249694Y-12701347D02*
X7230646Y-12710871D01*
X7230646Y-12710871D02*
X7211598Y-12710871D01*
X7211598Y-12710871D02*
X7192551Y-12701347D01*
X7192551Y-12701347D02*
X7183027Y-12691823D01*
X7183027Y-12691823D02*
X7173503Y-12672776D01*
X7173503Y-12672776D02*
X7163979Y-12634680D01*
X7163979Y-12634680D02*
X7163979Y-12587061D01*
X7163979Y-12587061D02*
X7173503Y-12548966D01*
X7173503Y-12548966D02*
X7183027Y-12529919D01*
X7183027Y-12529919D02*
X7192551Y-12520395D01*
X7192551Y-12520395D02*
X7211598Y-12510871D01*
X7344932Y-12510871D02*
X7468741Y-12510871D01*
X7468741Y-12510871D02*
X7402075Y-12587061D01*
X7402075Y-12587061D02*
X7430646Y-12587061D01*
X7430646Y-12587061D02*
X7449694Y-12596585D01*
X7449694Y-12596585D02*
X7459217Y-12606109D01*
X7459217Y-12606109D02*
X7468741Y-12625157D01*
X7468741Y-12625157D02*
X7468741Y-12672776D01*
X7468741Y-12672776D02*
X7459217Y-12691823D01*
X7459217Y-12691823D02*
X7449694Y-12701347D01*
X7449694Y-12701347D02*
X7430646Y-12710871D01*
X7430646Y-12710871D02*
X7373503Y-12710871D01*
X7373503Y-12710871D02*
X7354456Y-12701347D01*
X7354456Y-12701347D02*
X7344932Y-12691823D01*
X7659217Y-12710871D02*
X7544932Y-12710871D01*
X7602075Y-12710871D02*
X7602075Y-12510871D01*
X7602075Y-12510871D02*
X7583027Y-12539442D01*
X7583027Y-12539442D02*
X7563979Y-12558490D01*
X7563979Y-12558490D02*
X7544932Y-12568014D01*
X7840170Y-12510871D02*
X7744932Y-12510871D01*
X7744932Y-12510871D02*
X7735408Y-12606109D01*
X7735408Y-12606109D02*
X7744932Y-12596585D01*
X7744932Y-12596585D02*
X7763979Y-12587061D01*
X7763979Y-12587061D02*
X7811598Y-12587061D01*
X7811598Y-12587061D02*
X7830646Y-12596585D01*
X7830646Y-12596585D02*
X7840170Y-12606109D01*
X7840170Y-12606109D02*
X7849694Y-12625157D01*
X7849694Y-12625157D02*
X7849694Y-12672776D01*
X7849694Y-12672776D02*
X7840170Y-12691823D01*
X7840170Y-12691823D02*
X7830646Y-12701347D01*
X7830646Y-12701347D02*
X7811598Y-12710871D01*
X7811598Y-12710871D02*
X7763979Y-12710871D01*
X7763979Y-12710871D02*
X7744932Y-12701347D01*
X7744932Y-12701347D02*
X7735408Y-12691823D01*
X7925884Y-12510871D02*
X7925884Y-12548966D01*
X8002075Y-12510871D02*
X8002075Y-12548966D01*
X8297313Y-12787061D02*
X8287789Y-12777538D01*
X8287789Y-12777538D02*
X8268741Y-12748966D01*
X8268741Y-12748966D02*
X8259218Y-12729919D01*
X8259218Y-12729919D02*
X8249694Y-12701347D01*
X8249694Y-12701347D02*
X8240170Y-12653728D01*
X8240170Y-12653728D02*
X8240170Y-12615633D01*
X8240170Y-12615633D02*
X8249694Y-12568014D01*
X8249694Y-12568014D02*
X8259218Y-12539442D01*
X8259218Y-12539442D02*
X8268741Y-12520395D01*
X8268741Y-12520395D02*
X8287789Y-12491823D01*
X8287789Y-12491823D02*
X8297313Y-12482299D01*
X8363979Y-12529919D02*
X8373503Y-12520395D01*
X8373503Y-12520395D02*
X8392551Y-12510871D01*
X8392551Y-12510871D02*
X8440170Y-12510871D01*
X8440170Y-12510871D02*
X8459218Y-12520395D01*
X8459218Y-12520395D02*
X8468741Y-12529919D01*
X8468741Y-12529919D02*
X8478265Y-12548966D01*
X8478265Y-12548966D02*
X8478265Y-12568014D01*
X8478265Y-12568014D02*
X8468741Y-12596585D01*
X8468741Y-12596585D02*
X8354456Y-12710871D01*
X8354456Y-12710871D02*
X8478265Y-12710871D01*
X8649694Y-12510871D02*
X8611599Y-12510871D01*
X8611599Y-12510871D02*
X8592551Y-12520395D01*
X8592551Y-12520395D02*
X8583027Y-12529919D01*
X8583027Y-12529919D02*
X8563980Y-12558490D01*
X8563980Y-12558490D02*
X8554456Y-12596585D01*
X8554456Y-12596585D02*
X8554456Y-12672776D01*
X8554456Y-12672776D02*
X8563980Y-12691823D01*
X8563980Y-12691823D02*
X8573503Y-12701347D01*
X8573503Y-12701347D02*
X8592551Y-12710871D01*
X8592551Y-12710871D02*
X8630646Y-12710871D01*
X8630646Y-12710871D02*
X8649694Y-12701347D01*
X8649694Y-12701347D02*
X8659218Y-12691823D01*
X8659218Y-12691823D02*
X8668741Y-12672776D01*
X8668741Y-12672776D02*
X8668741Y-12625157D01*
X8668741Y-12625157D02*
X8659218Y-12606109D01*
X8659218Y-12606109D02*
X8649694Y-12596585D01*
X8649694Y-12596585D02*
X8630646Y-12587061D01*
X8630646Y-12587061D02*
X8592551Y-12587061D01*
X8592551Y-12587061D02*
X8573503Y-12596585D01*
X8573503Y-12596585D02*
X8563980Y-12606109D01*
X8563980Y-12606109D02*
X8554456Y-12625157D01*
X8906837Y-12710871D02*
X8906837Y-12510871D01*
X8992551Y-12710871D02*
X8992551Y-12606109D01*
X8992551Y-12606109D02*
X8983027Y-12587061D01*
X8983027Y-12587061D02*
X8963980Y-12577538D01*
X8963980Y-12577538D02*
X8935408Y-12577538D01*
X8935408Y-12577538D02*
X8916361Y-12587061D01*
X8916361Y-12587061D02*
X8906837Y-12596585D01*
X9116361Y-12710871D02*
X9097313Y-12701347D01*
X9097313Y-12701347D02*
X9087789Y-12691823D01*
X9087789Y-12691823D02*
X9078265Y-12672776D01*
X9078265Y-12672776D02*
X9078265Y-12615633D01*
X9078265Y-12615633D02*
X9087789Y-12596585D01*
X9087789Y-12596585D02*
X9097313Y-12587061D01*
X9097313Y-12587061D02*
X9116361Y-12577538D01*
X9116361Y-12577538D02*
X9144932Y-12577538D01*
X9144932Y-12577538D02*
X9163980Y-12587061D01*
X9163980Y-12587061D02*
X9173503Y-12596585D01*
X9173503Y-12596585D02*
X9183027Y-12615633D01*
X9183027Y-12615633D02*
X9183027Y-12672776D01*
X9183027Y-12672776D02*
X9173503Y-12691823D01*
X9173503Y-12691823D02*
X9163980Y-12701347D01*
X9163980Y-12701347D02*
X9144932Y-12710871D01*
X9144932Y-12710871D02*
X9116361Y-12710871D01*
X9297313Y-12710871D02*
X9278265Y-12701347D01*
X9278265Y-12701347D02*
X9268742Y-12682299D01*
X9268742Y-12682299D02*
X9268742Y-12510871D01*
X9449694Y-12701347D02*
X9430646Y-12710871D01*
X9430646Y-12710871D02*
X9392551Y-12710871D01*
X9392551Y-12710871D02*
X9373503Y-12701347D01*
X9373503Y-12701347D02*
X9363980Y-12682299D01*
X9363980Y-12682299D02*
X9363980Y-12606109D01*
X9363980Y-12606109D02*
X9373503Y-12587061D01*
X9373503Y-12587061D02*
X9392551Y-12577538D01*
X9392551Y-12577538D02*
X9430646Y-12577538D01*
X9430646Y-12577538D02*
X9449694Y-12587061D01*
X9449694Y-12587061D02*
X9459218Y-12606109D01*
X9459218Y-12606109D02*
X9459218Y-12625157D01*
X9459218Y-12625157D02*
X9363980Y-12644204D01*
X9535408Y-12701347D02*
X9554456Y-12710871D01*
X9554456Y-12710871D02*
X9592551Y-12710871D01*
X9592551Y-12710871D02*
X9611599Y-12701347D01*
X9611599Y-12701347D02*
X9621123Y-12682299D01*
X9621123Y-12682299D02*
X9621123Y-12672776D01*
X9621123Y-12672776D02*
X9611599Y-12653728D01*
X9611599Y-12653728D02*
X9592551Y-12644204D01*
X9592551Y-12644204D02*
X9563980Y-12644204D01*
X9563980Y-12644204D02*
X9544932Y-12634680D01*
X9544932Y-12634680D02*
X9535408Y-12615633D01*
X9535408Y-12615633D02*
X9535408Y-12606109D01*
X9535408Y-12606109D02*
X9544932Y-12587061D01*
X9544932Y-12587061D02*
X9563980Y-12577538D01*
X9563980Y-12577538D02*
X9592551Y-12577538D01*
X9592551Y-12577538D02*
X9611599Y-12587061D01*
X9687789Y-12787061D02*
X9697313Y-12777538D01*
X9697313Y-12777538D02*
X9716361Y-12748966D01*
X9716361Y-12748966D02*
X9725884Y-12729919D01*
X9725884Y-12729919D02*
X9735408Y-12701347D01*
X9735408Y-12701347D02*
X9744932Y-12653728D01*
X9744932Y-12653728D02*
X9744932Y-12615633D01*
X9744932Y-12615633D02*
X9735408Y-12568014D01*
X9735408Y-12568014D02*
X9725884Y-12539442D01*
X9725884Y-12539442D02*
X9716361Y-12520395D01*
X9716361Y-12520395D02*
X9697313Y-12491823D01*
X9697313Y-12491823D02*
X9687789Y-12482299D01*
D15*
X4677250Y-12838387D02*
X4677250Y-12928387D01*
X4632250Y-12883387D02*
X4722250Y-12883387D01*
D12*
X5021122Y-12774871D02*
X5040170Y-12774871D01*
X5040170Y-12774871D02*
X5059217Y-12784395D01*
X5059217Y-12784395D02*
X5068741Y-12793919D01*
X5068741Y-12793919D02*
X5078265Y-12812966D01*
X5078265Y-12812966D02*
X5087789Y-12851061D01*
X5087789Y-12851061D02*
X5087789Y-12898680D01*
X5087789Y-12898680D02*
X5078265Y-12936776D01*
X5078265Y-12936776D02*
X5068741Y-12955823D01*
X5068741Y-12955823D02*
X5059217Y-12965347D01*
X5059217Y-12965347D02*
X5040170Y-12974871D01*
X5040170Y-12974871D02*
X5021122Y-12974871D01*
X5021122Y-12974871D02*
X5002074Y-12965347D01*
X5002074Y-12965347D02*
X4992551Y-12955823D01*
X4992551Y-12955823D02*
X4983027Y-12936776D01*
X4983027Y-12936776D02*
X4973503Y-12898680D01*
X4973503Y-12898680D02*
X4973503Y-12851061D01*
X4973503Y-12851061D02*
X4983027Y-12812966D01*
X4983027Y-12812966D02*
X4992551Y-12793919D01*
X4992551Y-12793919D02*
X5002074Y-12784395D01*
X5002074Y-12784395D02*
X5021122Y-12774871D01*
X5173503Y-12955823D02*
X5183027Y-12965347D01*
X5183027Y-12965347D02*
X5173503Y-12974871D01*
X5173503Y-12974871D02*
X5163979Y-12965347D01*
X5163979Y-12965347D02*
X5173503Y-12955823D01*
X5173503Y-12955823D02*
X5173503Y-12974871D01*
X5278265Y-12974871D02*
X5316360Y-12974871D01*
X5316360Y-12974871D02*
X5335408Y-12965347D01*
X5335408Y-12965347D02*
X5344932Y-12955823D01*
X5344932Y-12955823D02*
X5363979Y-12927252D01*
X5363979Y-12927252D02*
X5373503Y-12889157D01*
X5373503Y-12889157D02*
X5373503Y-12812966D01*
X5373503Y-12812966D02*
X5363979Y-12793919D01*
X5363979Y-12793919D02*
X5354455Y-12784395D01*
X5354455Y-12784395D02*
X5335408Y-12774871D01*
X5335408Y-12774871D02*
X5297313Y-12774871D01*
X5297313Y-12774871D02*
X5278265Y-12784395D01*
X5278265Y-12784395D02*
X5268741Y-12793919D01*
X5268741Y-12793919D02*
X5259217Y-12812966D01*
X5259217Y-12812966D02*
X5259217Y-12860585D01*
X5259217Y-12860585D02*
X5268741Y-12879633D01*
X5268741Y-12879633D02*
X5278265Y-12889157D01*
X5278265Y-12889157D02*
X5297313Y-12898680D01*
X5297313Y-12898680D02*
X5335408Y-12898680D01*
X5335408Y-12898680D02*
X5354455Y-12889157D01*
X5354455Y-12889157D02*
X5363979Y-12879633D01*
X5363979Y-12879633D02*
X5373503Y-12860585D01*
X5497313Y-12774871D02*
X5516360Y-12774871D01*
X5516360Y-12774871D02*
X5535408Y-12784395D01*
X5535408Y-12784395D02*
X5544932Y-12793919D01*
X5544932Y-12793919D02*
X5554455Y-12812966D01*
X5554455Y-12812966D02*
X5563979Y-12851061D01*
X5563979Y-12851061D02*
X5563979Y-12898680D01*
X5563979Y-12898680D02*
X5554455Y-12936776D01*
X5554455Y-12936776D02*
X5544932Y-12955823D01*
X5544932Y-12955823D02*
X5535408Y-12965347D01*
X5535408Y-12965347D02*
X5516360Y-12974871D01*
X5516360Y-12974871D02*
X5497313Y-12974871D01*
X5497313Y-12974871D02*
X5478265Y-12965347D01*
X5478265Y-12965347D02*
X5468741Y-12955823D01*
X5468741Y-12955823D02*
X5459217Y-12936776D01*
X5459217Y-12936776D02*
X5449694Y-12898680D01*
X5449694Y-12898680D02*
X5449694Y-12851061D01*
X5449694Y-12851061D02*
X5459217Y-12812966D01*
X5459217Y-12812966D02*
X5468741Y-12793919D01*
X5468741Y-12793919D02*
X5478265Y-12784395D01*
X5478265Y-12784395D02*
X5497313Y-12774871D01*
X5687789Y-12774871D02*
X5706836Y-12774871D01*
X5706836Y-12774871D02*
X5725884Y-12784395D01*
X5725884Y-12784395D02*
X5735408Y-12793919D01*
X5735408Y-12793919D02*
X5744932Y-12812966D01*
X5744932Y-12812966D02*
X5754455Y-12851061D01*
X5754455Y-12851061D02*
X5754455Y-12898680D01*
X5754455Y-12898680D02*
X5744932Y-12936776D01*
X5744932Y-12936776D02*
X5735408Y-12955823D01*
X5735408Y-12955823D02*
X5725884Y-12965347D01*
X5725884Y-12965347D02*
X5706836Y-12974871D01*
X5706836Y-12974871D02*
X5687789Y-12974871D01*
X5687789Y-12974871D02*
X5668741Y-12965347D01*
X5668741Y-12965347D02*
X5659217Y-12955823D01*
X5659217Y-12955823D02*
X5649693Y-12936776D01*
X5649693Y-12936776D02*
X5640170Y-12898680D01*
X5640170Y-12898680D02*
X5640170Y-12851061D01*
X5640170Y-12851061D02*
X5649693Y-12812966D01*
X5649693Y-12812966D02*
X5659217Y-12793919D01*
X5659217Y-12793919D02*
X5668741Y-12784395D01*
X5668741Y-12784395D02*
X5687789Y-12774871D01*
X5840170Y-12974871D02*
X5840170Y-12841538D01*
X5840170Y-12860585D02*
X5849693Y-12851061D01*
X5849693Y-12851061D02*
X5868741Y-12841538D01*
X5868741Y-12841538D02*
X5897313Y-12841538D01*
X5897313Y-12841538D02*
X5916360Y-12851061D01*
X5916360Y-12851061D02*
X5925884Y-12870109D01*
X5925884Y-12870109D02*
X5925884Y-12974871D01*
X5925884Y-12870109D02*
X5935408Y-12851061D01*
X5935408Y-12851061D02*
X5954455Y-12841538D01*
X5954455Y-12841538D02*
X5983027Y-12841538D01*
X5983027Y-12841538D02*
X6002074Y-12851061D01*
X6002074Y-12851061D02*
X6011598Y-12870109D01*
X6011598Y-12870109D02*
X6011598Y-12974871D01*
X6106836Y-12974871D02*
X6106836Y-12841538D01*
X6106836Y-12860585D02*
X6116360Y-12851061D01*
X6116360Y-12851061D02*
X6135408Y-12841538D01*
X6135408Y-12841538D02*
X6163979Y-12841538D01*
X6163979Y-12841538D02*
X6183027Y-12851061D01*
X6183027Y-12851061D02*
X6192551Y-12870109D01*
X6192551Y-12870109D02*
X6192551Y-12974871D01*
X6192551Y-12870109D02*
X6202074Y-12851061D01*
X6202074Y-12851061D02*
X6221122Y-12841538D01*
X6221122Y-12841538D02*
X6249693Y-12841538D01*
X6249693Y-12841538D02*
X6268741Y-12851061D01*
X6268741Y-12851061D02*
X6278265Y-12870109D01*
X6278265Y-12870109D02*
X6278265Y-12974871D01*
X6668741Y-12765347D02*
X6497313Y-13022490D01*
X6925884Y-12774871D02*
X6944932Y-12774871D01*
X6944932Y-12774871D02*
X6963979Y-12784395D01*
X6963979Y-12784395D02*
X6973503Y-12793919D01*
X6973503Y-12793919D02*
X6983027Y-12812966D01*
X6983027Y-12812966D02*
X6992551Y-12851061D01*
X6992551Y-12851061D02*
X6992551Y-12898680D01*
X6992551Y-12898680D02*
X6983027Y-12936776D01*
X6983027Y-12936776D02*
X6973503Y-12955823D01*
X6973503Y-12955823D02*
X6963979Y-12965347D01*
X6963979Y-12965347D02*
X6944932Y-12974871D01*
X6944932Y-12974871D02*
X6925884Y-12974871D01*
X6925884Y-12974871D02*
X6906836Y-12965347D01*
X6906836Y-12965347D02*
X6897313Y-12955823D01*
X6897313Y-12955823D02*
X6887789Y-12936776D01*
X6887789Y-12936776D02*
X6878265Y-12898680D01*
X6878265Y-12898680D02*
X6878265Y-12851061D01*
X6878265Y-12851061D02*
X6887789Y-12812966D01*
X6887789Y-12812966D02*
X6897313Y-12793919D01*
X6897313Y-12793919D02*
X6906836Y-12784395D01*
X6906836Y-12784395D02*
X6925884Y-12774871D01*
X7078265Y-12955823D02*
X7087789Y-12965347D01*
X7087789Y-12965347D02*
X7078265Y-12974871D01*
X7078265Y-12974871D02*
X7068741Y-12965347D01*
X7068741Y-12965347D02*
X7078265Y-12955823D01*
X7078265Y-12955823D02*
X7078265Y-12974871D01*
X7211598Y-12774871D02*
X7230646Y-12774871D01*
X7230646Y-12774871D02*
X7249694Y-12784395D01*
X7249694Y-12784395D02*
X7259217Y-12793919D01*
X7259217Y-12793919D02*
X7268741Y-12812966D01*
X7268741Y-12812966D02*
X7278265Y-12851061D01*
X7278265Y-12851061D02*
X7278265Y-12898680D01*
X7278265Y-12898680D02*
X7268741Y-12936776D01*
X7268741Y-12936776D02*
X7259217Y-12955823D01*
X7259217Y-12955823D02*
X7249694Y-12965347D01*
X7249694Y-12965347D02*
X7230646Y-12974871D01*
X7230646Y-12974871D02*
X7211598Y-12974871D01*
X7211598Y-12974871D02*
X7192551Y-12965347D01*
X7192551Y-12965347D02*
X7183027Y-12955823D01*
X7183027Y-12955823D02*
X7173503Y-12936776D01*
X7173503Y-12936776D02*
X7163979Y-12898680D01*
X7163979Y-12898680D02*
X7163979Y-12851061D01*
X7163979Y-12851061D02*
X7173503Y-12812966D01*
X7173503Y-12812966D02*
X7183027Y-12793919D01*
X7183027Y-12793919D02*
X7192551Y-12784395D01*
X7192551Y-12784395D02*
X7211598Y-12774871D01*
X7344932Y-12774871D02*
X7468741Y-12774871D01*
X7468741Y-12774871D02*
X7402075Y-12851061D01*
X7402075Y-12851061D02*
X7430646Y-12851061D01*
X7430646Y-12851061D02*
X7449694Y-12860585D01*
X7449694Y-12860585D02*
X7459217Y-12870109D01*
X7459217Y-12870109D02*
X7468741Y-12889157D01*
X7468741Y-12889157D02*
X7468741Y-12936776D01*
X7468741Y-12936776D02*
X7459217Y-12955823D01*
X7459217Y-12955823D02*
X7449694Y-12965347D01*
X7449694Y-12965347D02*
X7430646Y-12974871D01*
X7430646Y-12974871D02*
X7373503Y-12974871D01*
X7373503Y-12974871D02*
X7354456Y-12965347D01*
X7354456Y-12965347D02*
X7344932Y-12955823D01*
X7649694Y-12774871D02*
X7554456Y-12774871D01*
X7554456Y-12774871D02*
X7544932Y-12870109D01*
X7544932Y-12870109D02*
X7554456Y-12860585D01*
X7554456Y-12860585D02*
X7573503Y-12851061D01*
X7573503Y-12851061D02*
X7621122Y-12851061D01*
X7621122Y-12851061D02*
X7640170Y-12860585D01*
X7640170Y-12860585D02*
X7649694Y-12870109D01*
X7649694Y-12870109D02*
X7659217Y-12889157D01*
X7659217Y-12889157D02*
X7659217Y-12936776D01*
X7659217Y-12936776D02*
X7649694Y-12955823D01*
X7649694Y-12955823D02*
X7640170Y-12965347D01*
X7640170Y-12965347D02*
X7621122Y-12974871D01*
X7621122Y-12974871D02*
X7573503Y-12974871D01*
X7573503Y-12974871D02*
X7554456Y-12965347D01*
X7554456Y-12965347D02*
X7544932Y-12955823D01*
X7830646Y-12841538D02*
X7830646Y-12974871D01*
X7783027Y-12765347D02*
X7735408Y-12908204D01*
X7735408Y-12908204D02*
X7859217Y-12908204D01*
X7925884Y-12774871D02*
X7925884Y-12812966D01*
X8002075Y-12774871D02*
X8002075Y-12812966D01*
X8297313Y-13051061D02*
X8287789Y-13041538D01*
X8287789Y-13041538D02*
X8268741Y-13012966D01*
X8268741Y-13012966D02*
X8259218Y-12993919D01*
X8259218Y-12993919D02*
X8249694Y-12965347D01*
X8249694Y-12965347D02*
X8240170Y-12917728D01*
X8240170Y-12917728D02*
X8240170Y-12879633D01*
X8240170Y-12879633D02*
X8249694Y-12832014D01*
X8249694Y-12832014D02*
X8259218Y-12803442D01*
X8259218Y-12803442D02*
X8268741Y-12784395D01*
X8268741Y-12784395D02*
X8287789Y-12755823D01*
X8287789Y-12755823D02*
X8297313Y-12746299D01*
X8459218Y-12774871D02*
X8421122Y-12774871D01*
X8421122Y-12774871D02*
X8402075Y-12784395D01*
X8402075Y-12784395D02*
X8392551Y-12793919D01*
X8392551Y-12793919D02*
X8373503Y-12822490D01*
X8373503Y-12822490D02*
X8363979Y-12860585D01*
X8363979Y-12860585D02*
X8363979Y-12936776D01*
X8363979Y-12936776D02*
X8373503Y-12955823D01*
X8373503Y-12955823D02*
X8383027Y-12965347D01*
X8383027Y-12965347D02*
X8402075Y-12974871D01*
X8402075Y-12974871D02*
X8440170Y-12974871D01*
X8440170Y-12974871D02*
X8459218Y-12965347D01*
X8459218Y-12965347D02*
X8468741Y-12955823D01*
X8468741Y-12955823D02*
X8478265Y-12936776D01*
X8478265Y-12936776D02*
X8478265Y-12889157D01*
X8478265Y-12889157D02*
X8468741Y-12870109D01*
X8468741Y-12870109D02*
X8459218Y-12860585D01*
X8459218Y-12860585D02*
X8440170Y-12851061D01*
X8440170Y-12851061D02*
X8402075Y-12851061D01*
X8402075Y-12851061D02*
X8383027Y-12860585D01*
X8383027Y-12860585D02*
X8373503Y-12870109D01*
X8373503Y-12870109D02*
X8363979Y-12889157D01*
X8716361Y-12974871D02*
X8716361Y-12774871D01*
X8802075Y-12974871D02*
X8802075Y-12870109D01*
X8802075Y-12870109D02*
X8792551Y-12851061D01*
X8792551Y-12851061D02*
X8773503Y-12841538D01*
X8773503Y-12841538D02*
X8744932Y-12841538D01*
X8744932Y-12841538D02*
X8725884Y-12851061D01*
X8725884Y-12851061D02*
X8716361Y-12860585D01*
X8925884Y-12974871D02*
X8906837Y-12965347D01*
X8906837Y-12965347D02*
X8897313Y-12955823D01*
X8897313Y-12955823D02*
X8887789Y-12936776D01*
X8887789Y-12936776D02*
X8887789Y-12879633D01*
X8887789Y-12879633D02*
X8897313Y-12860585D01*
X8897313Y-12860585D02*
X8906837Y-12851061D01*
X8906837Y-12851061D02*
X8925884Y-12841538D01*
X8925884Y-12841538D02*
X8954456Y-12841538D01*
X8954456Y-12841538D02*
X8973503Y-12851061D01*
X8973503Y-12851061D02*
X8983027Y-12860585D01*
X8983027Y-12860585D02*
X8992551Y-12879633D01*
X8992551Y-12879633D02*
X8992551Y-12936776D01*
X8992551Y-12936776D02*
X8983027Y-12955823D01*
X8983027Y-12955823D02*
X8973503Y-12965347D01*
X8973503Y-12965347D02*
X8954456Y-12974871D01*
X8954456Y-12974871D02*
X8925884Y-12974871D01*
X9106837Y-12974871D02*
X9087789Y-12965347D01*
X9087789Y-12965347D02*
X9078265Y-12946299D01*
X9078265Y-12946299D02*
X9078265Y-12774871D01*
X9259218Y-12965347D02*
X9240170Y-12974871D01*
X9240170Y-12974871D02*
X9202075Y-12974871D01*
X9202075Y-12974871D02*
X9183027Y-12965347D01*
X9183027Y-12965347D02*
X9173503Y-12946299D01*
X9173503Y-12946299D02*
X9173503Y-12870109D01*
X9173503Y-12870109D02*
X9183027Y-12851061D01*
X9183027Y-12851061D02*
X9202075Y-12841538D01*
X9202075Y-12841538D02*
X9240170Y-12841538D01*
X9240170Y-12841538D02*
X9259218Y-12851061D01*
X9259218Y-12851061D02*
X9268742Y-12870109D01*
X9268742Y-12870109D02*
X9268742Y-12889157D01*
X9268742Y-12889157D02*
X9173503Y-12908204D01*
X9344932Y-12965347D02*
X9363980Y-12974871D01*
X9363980Y-12974871D02*
X9402075Y-12974871D01*
X9402075Y-12974871D02*
X9421123Y-12965347D01*
X9421123Y-12965347D02*
X9430646Y-12946299D01*
X9430646Y-12946299D02*
X9430646Y-12936776D01*
X9430646Y-12936776D02*
X9421123Y-12917728D01*
X9421123Y-12917728D02*
X9402075Y-12908204D01*
X9402075Y-12908204D02*
X9373503Y-12908204D01*
X9373503Y-12908204D02*
X9354456Y-12898680D01*
X9354456Y-12898680D02*
X9344932Y-12879633D01*
X9344932Y-12879633D02*
X9344932Y-12870109D01*
X9344932Y-12870109D02*
X9354456Y-12851061D01*
X9354456Y-12851061D02*
X9373503Y-12841538D01*
X9373503Y-12841538D02*
X9402075Y-12841538D01*
X9402075Y-12841538D02*
X9421123Y-12851061D01*
X9497313Y-13051061D02*
X9506837Y-13041538D01*
X9506837Y-13041538D02*
X9525884Y-13012966D01*
X9525884Y-13012966D02*
X9535408Y-12993919D01*
X9535408Y-12993919D02*
X9544932Y-12965347D01*
X9544932Y-12965347D02*
X9554456Y-12917728D01*
X9554456Y-12917728D02*
X9554456Y-12879633D01*
X9554456Y-12879633D02*
X9544932Y-12832014D01*
X9544932Y-12832014D02*
X9535408Y-12803442D01*
X9535408Y-12803442D02*
X9525884Y-12784395D01*
X9525884Y-12784395D02*
X9506837Y-12755823D01*
X9506837Y-12755823D02*
X9497313Y-12746299D01*
D11*
X4707606Y-13182743D02*
X4707606Y-13112031D01*
X4636894Y-13112031D01*
X4636894Y-13182743D01*
X4707606Y-13182743D01*
D12*
X5087789Y-13238871D02*
X4973503Y-13238871D01*
X5030646Y-13238871D02*
X5030646Y-13038871D01*
X5030646Y-13038871D02*
X5011598Y-13067442D01*
X5011598Y-13067442D02*
X4992551Y-13086490D01*
X4992551Y-13086490D02*
X4973503Y-13096014D01*
X5173503Y-13219823D02*
X5183027Y-13229347D01*
X5183027Y-13229347D02*
X5173503Y-13238871D01*
X5173503Y-13238871D02*
X5163979Y-13229347D01*
X5163979Y-13229347D02*
X5173503Y-13219823D01*
X5173503Y-13219823D02*
X5173503Y-13238871D01*
X5306836Y-13038871D02*
X5325884Y-13038871D01*
X5325884Y-13038871D02*
X5344932Y-13048395D01*
X5344932Y-13048395D02*
X5354455Y-13057919D01*
X5354455Y-13057919D02*
X5363979Y-13076966D01*
X5363979Y-13076966D02*
X5373503Y-13115061D01*
X5373503Y-13115061D02*
X5373503Y-13162680D01*
X5373503Y-13162680D02*
X5363979Y-13200776D01*
X5363979Y-13200776D02*
X5354455Y-13219823D01*
X5354455Y-13219823D02*
X5344932Y-13229347D01*
X5344932Y-13229347D02*
X5325884Y-13238871D01*
X5325884Y-13238871D02*
X5306836Y-13238871D01*
X5306836Y-13238871D02*
X5287789Y-13229347D01*
X5287789Y-13229347D02*
X5278265Y-13219823D01*
X5278265Y-13219823D02*
X5268741Y-13200776D01*
X5268741Y-13200776D02*
X5259217Y-13162680D01*
X5259217Y-13162680D02*
X5259217Y-13115061D01*
X5259217Y-13115061D02*
X5268741Y-13076966D01*
X5268741Y-13076966D02*
X5278265Y-13057919D01*
X5278265Y-13057919D02*
X5287789Y-13048395D01*
X5287789Y-13048395D02*
X5306836Y-13038871D01*
X5497313Y-13038871D02*
X5516360Y-13038871D01*
X5516360Y-13038871D02*
X5535408Y-13048395D01*
X5535408Y-13048395D02*
X5544932Y-13057919D01*
X5544932Y-13057919D02*
X5554455Y-13076966D01*
X5554455Y-13076966D02*
X5563979Y-13115061D01*
X5563979Y-13115061D02*
X5563979Y-13162680D01*
X5563979Y-13162680D02*
X5554455Y-13200776D01*
X5554455Y-13200776D02*
X5544932Y-13219823D01*
X5544932Y-13219823D02*
X5535408Y-13229347D01*
X5535408Y-13229347D02*
X5516360Y-13238871D01*
X5516360Y-13238871D02*
X5497313Y-13238871D01*
X5497313Y-13238871D02*
X5478265Y-13229347D01*
X5478265Y-13229347D02*
X5468741Y-13219823D01*
X5468741Y-13219823D02*
X5459217Y-13200776D01*
X5459217Y-13200776D02*
X5449694Y-13162680D01*
X5449694Y-13162680D02*
X5449694Y-13115061D01*
X5449694Y-13115061D02*
X5459217Y-13076966D01*
X5459217Y-13076966D02*
X5468741Y-13057919D01*
X5468741Y-13057919D02*
X5478265Y-13048395D01*
X5478265Y-13048395D02*
X5497313Y-13038871D01*
X5687789Y-13038871D02*
X5706836Y-13038871D01*
X5706836Y-13038871D02*
X5725884Y-13048395D01*
X5725884Y-13048395D02*
X5735408Y-13057919D01*
X5735408Y-13057919D02*
X5744932Y-13076966D01*
X5744932Y-13076966D02*
X5754455Y-13115061D01*
X5754455Y-13115061D02*
X5754455Y-13162680D01*
X5754455Y-13162680D02*
X5744932Y-13200776D01*
X5744932Y-13200776D02*
X5735408Y-13219823D01*
X5735408Y-13219823D02*
X5725884Y-13229347D01*
X5725884Y-13229347D02*
X5706836Y-13238871D01*
X5706836Y-13238871D02*
X5687789Y-13238871D01*
X5687789Y-13238871D02*
X5668741Y-13229347D01*
X5668741Y-13229347D02*
X5659217Y-13219823D01*
X5659217Y-13219823D02*
X5649693Y-13200776D01*
X5649693Y-13200776D02*
X5640170Y-13162680D01*
X5640170Y-13162680D02*
X5640170Y-13115061D01*
X5640170Y-13115061D02*
X5649693Y-13076966D01*
X5649693Y-13076966D02*
X5659217Y-13057919D01*
X5659217Y-13057919D02*
X5668741Y-13048395D01*
X5668741Y-13048395D02*
X5687789Y-13038871D01*
X5840170Y-13238871D02*
X5840170Y-13105538D01*
X5840170Y-13124585D02*
X5849693Y-13115061D01*
X5849693Y-13115061D02*
X5868741Y-13105538D01*
X5868741Y-13105538D02*
X5897313Y-13105538D01*
X5897313Y-13105538D02*
X5916360Y-13115061D01*
X5916360Y-13115061D02*
X5925884Y-13134109D01*
X5925884Y-13134109D02*
X5925884Y-13238871D01*
X5925884Y-13134109D02*
X5935408Y-13115061D01*
X5935408Y-13115061D02*
X5954455Y-13105538D01*
X5954455Y-13105538D02*
X5983027Y-13105538D01*
X5983027Y-13105538D02*
X6002074Y-13115061D01*
X6002074Y-13115061D02*
X6011598Y-13134109D01*
X6011598Y-13134109D02*
X6011598Y-13238871D01*
X6106836Y-13238871D02*
X6106836Y-13105538D01*
X6106836Y-13124585D02*
X6116360Y-13115061D01*
X6116360Y-13115061D02*
X6135408Y-13105538D01*
X6135408Y-13105538D02*
X6163979Y-13105538D01*
X6163979Y-13105538D02*
X6183027Y-13115061D01*
X6183027Y-13115061D02*
X6192551Y-13134109D01*
X6192551Y-13134109D02*
X6192551Y-13238871D01*
X6192551Y-13134109D02*
X6202074Y-13115061D01*
X6202074Y-13115061D02*
X6221122Y-13105538D01*
X6221122Y-13105538D02*
X6249693Y-13105538D01*
X6249693Y-13105538D02*
X6268741Y-13115061D01*
X6268741Y-13115061D02*
X6278265Y-13134109D01*
X6278265Y-13134109D02*
X6278265Y-13238871D01*
X6668741Y-13029347D02*
X6497313Y-13286490D01*
X6925884Y-13038871D02*
X6944932Y-13038871D01*
X6944932Y-13038871D02*
X6963979Y-13048395D01*
X6963979Y-13048395D02*
X6973503Y-13057919D01*
X6973503Y-13057919D02*
X6983027Y-13076966D01*
X6983027Y-13076966D02*
X6992551Y-13115061D01*
X6992551Y-13115061D02*
X6992551Y-13162680D01*
X6992551Y-13162680D02*
X6983027Y-13200776D01*
X6983027Y-13200776D02*
X6973503Y-13219823D01*
X6973503Y-13219823D02*
X6963979Y-13229347D01*
X6963979Y-13229347D02*
X6944932Y-13238871D01*
X6944932Y-13238871D02*
X6925884Y-13238871D01*
X6925884Y-13238871D02*
X6906836Y-13229347D01*
X6906836Y-13229347D02*
X6897313Y-13219823D01*
X6897313Y-13219823D02*
X6887789Y-13200776D01*
X6887789Y-13200776D02*
X6878265Y-13162680D01*
X6878265Y-13162680D02*
X6878265Y-13115061D01*
X6878265Y-13115061D02*
X6887789Y-13076966D01*
X6887789Y-13076966D02*
X6897313Y-13057919D01*
X6897313Y-13057919D02*
X6906836Y-13048395D01*
X6906836Y-13048395D02*
X6925884Y-13038871D01*
X7078265Y-13219823D02*
X7087789Y-13229347D01*
X7087789Y-13229347D02*
X7078265Y-13238871D01*
X7078265Y-13238871D02*
X7068741Y-13229347D01*
X7068741Y-13229347D02*
X7078265Y-13219823D01*
X7078265Y-13219823D02*
X7078265Y-13238871D01*
X7211598Y-13038871D02*
X7230646Y-13038871D01*
X7230646Y-13038871D02*
X7249694Y-13048395D01*
X7249694Y-13048395D02*
X7259217Y-13057919D01*
X7259217Y-13057919D02*
X7268741Y-13076966D01*
X7268741Y-13076966D02*
X7278265Y-13115061D01*
X7278265Y-13115061D02*
X7278265Y-13162680D01*
X7278265Y-13162680D02*
X7268741Y-13200776D01*
X7268741Y-13200776D02*
X7259217Y-13219823D01*
X7259217Y-13219823D02*
X7249694Y-13229347D01*
X7249694Y-13229347D02*
X7230646Y-13238871D01*
X7230646Y-13238871D02*
X7211598Y-13238871D01*
X7211598Y-13238871D02*
X7192551Y-13229347D01*
X7192551Y-13229347D02*
X7183027Y-13219823D01*
X7183027Y-13219823D02*
X7173503Y-13200776D01*
X7173503Y-13200776D02*
X7163979Y-13162680D01*
X7163979Y-13162680D02*
X7163979Y-13115061D01*
X7163979Y-13115061D02*
X7173503Y-13076966D01*
X7173503Y-13076966D02*
X7183027Y-13057919D01*
X7183027Y-13057919D02*
X7192551Y-13048395D01*
X7192551Y-13048395D02*
X7211598Y-13038871D01*
X7344932Y-13038871D02*
X7468741Y-13038871D01*
X7468741Y-13038871D02*
X7402075Y-13115061D01*
X7402075Y-13115061D02*
X7430646Y-13115061D01*
X7430646Y-13115061D02*
X7449694Y-13124585D01*
X7449694Y-13124585D02*
X7459217Y-13134109D01*
X7459217Y-13134109D02*
X7468741Y-13153157D01*
X7468741Y-13153157D02*
X7468741Y-13200776D01*
X7468741Y-13200776D02*
X7459217Y-13219823D01*
X7459217Y-13219823D02*
X7449694Y-13229347D01*
X7449694Y-13229347D02*
X7430646Y-13238871D01*
X7430646Y-13238871D02*
X7373503Y-13238871D01*
X7373503Y-13238871D02*
X7354456Y-13229347D01*
X7354456Y-13229347D02*
X7344932Y-13219823D01*
X7563979Y-13238871D02*
X7602075Y-13238871D01*
X7602075Y-13238871D02*
X7621122Y-13229347D01*
X7621122Y-13229347D02*
X7630646Y-13219823D01*
X7630646Y-13219823D02*
X7649694Y-13191252D01*
X7649694Y-13191252D02*
X7659217Y-13153157D01*
X7659217Y-13153157D02*
X7659217Y-13076966D01*
X7659217Y-13076966D02*
X7649694Y-13057919D01*
X7649694Y-13057919D02*
X7640170Y-13048395D01*
X7640170Y-13048395D02*
X7621122Y-13038871D01*
X7621122Y-13038871D02*
X7583027Y-13038871D01*
X7583027Y-13038871D02*
X7563979Y-13048395D01*
X7563979Y-13048395D02*
X7554456Y-13057919D01*
X7554456Y-13057919D02*
X7544932Y-13076966D01*
X7544932Y-13076966D02*
X7544932Y-13124585D01*
X7544932Y-13124585D02*
X7554456Y-13143633D01*
X7554456Y-13143633D02*
X7563979Y-13153157D01*
X7563979Y-13153157D02*
X7583027Y-13162680D01*
X7583027Y-13162680D02*
X7621122Y-13162680D01*
X7621122Y-13162680D02*
X7640170Y-13153157D01*
X7640170Y-13153157D02*
X7649694Y-13143633D01*
X7649694Y-13143633D02*
X7659217Y-13124585D01*
X7830646Y-13105538D02*
X7830646Y-13238871D01*
X7783027Y-13029347D02*
X7735408Y-13172204D01*
X7735408Y-13172204D02*
X7859217Y-13172204D01*
X7925884Y-13038871D02*
X7925884Y-13076966D01*
X8002075Y-13038871D02*
X8002075Y-13076966D01*
X8297313Y-13315061D02*
X8287789Y-13305538D01*
X8287789Y-13305538D02*
X8268741Y-13276966D01*
X8268741Y-13276966D02*
X8259218Y-13257919D01*
X8259218Y-13257919D02*
X8249694Y-13229347D01*
X8249694Y-13229347D02*
X8240170Y-13181728D01*
X8240170Y-13181728D02*
X8240170Y-13143633D01*
X8240170Y-13143633D02*
X8249694Y-13096014D01*
X8249694Y-13096014D02*
X8259218Y-13067442D01*
X8259218Y-13067442D02*
X8268741Y-13048395D01*
X8268741Y-13048395D02*
X8287789Y-13019823D01*
X8287789Y-13019823D02*
X8297313Y-13010299D01*
X8468741Y-13038871D02*
X8373503Y-13038871D01*
X8373503Y-13038871D02*
X8363979Y-13134109D01*
X8363979Y-13134109D02*
X8373503Y-13124585D01*
X8373503Y-13124585D02*
X8392551Y-13115061D01*
X8392551Y-13115061D02*
X8440170Y-13115061D01*
X8440170Y-13115061D02*
X8459218Y-13124585D01*
X8459218Y-13124585D02*
X8468741Y-13134109D01*
X8468741Y-13134109D02*
X8478265Y-13153157D01*
X8478265Y-13153157D02*
X8478265Y-13200776D01*
X8478265Y-13200776D02*
X8468741Y-13219823D01*
X8468741Y-13219823D02*
X8459218Y-13229347D01*
X8459218Y-13229347D02*
X8440170Y-13238871D01*
X8440170Y-13238871D02*
X8392551Y-13238871D01*
X8392551Y-13238871D02*
X8373503Y-13229347D01*
X8373503Y-13229347D02*
X8363979Y-13219823D01*
X8716361Y-13238871D02*
X8716361Y-13038871D01*
X8802075Y-13238871D02*
X8802075Y-13134109D01*
X8802075Y-13134109D02*
X8792551Y-13115061D01*
X8792551Y-13115061D02*
X8773503Y-13105538D01*
X8773503Y-13105538D02*
X8744932Y-13105538D01*
X8744932Y-13105538D02*
X8725884Y-13115061D01*
X8725884Y-13115061D02*
X8716361Y-13124585D01*
X8925884Y-13238871D02*
X8906837Y-13229347D01*
X8906837Y-13229347D02*
X8897313Y-13219823D01*
X8897313Y-13219823D02*
X8887789Y-13200776D01*
X8887789Y-13200776D02*
X8887789Y-13143633D01*
X8887789Y-13143633D02*
X8897313Y-13124585D01*
X8897313Y-13124585D02*
X8906837Y-13115061D01*
X8906837Y-13115061D02*
X8925884Y-13105538D01*
X8925884Y-13105538D02*
X8954456Y-13105538D01*
X8954456Y-13105538D02*
X8973503Y-13115061D01*
X8973503Y-13115061D02*
X8983027Y-13124585D01*
X8983027Y-13124585D02*
X8992551Y-13143633D01*
X8992551Y-13143633D02*
X8992551Y-13200776D01*
X8992551Y-13200776D02*
X8983027Y-13219823D01*
X8983027Y-13219823D02*
X8973503Y-13229347D01*
X8973503Y-13229347D02*
X8954456Y-13238871D01*
X8954456Y-13238871D02*
X8925884Y-13238871D01*
X9106837Y-13238871D02*
X9087789Y-13229347D01*
X9087789Y-13229347D02*
X9078265Y-13210299D01*
X9078265Y-13210299D02*
X9078265Y-13038871D01*
X9259218Y-13229347D02*
X9240170Y-13238871D01*
X9240170Y-13238871D02*
X9202075Y-13238871D01*
X9202075Y-13238871D02*
X9183027Y-13229347D01*
X9183027Y-13229347D02*
X9173503Y-13210299D01*
X9173503Y-13210299D02*
X9173503Y-13134109D01*
X9173503Y-13134109D02*
X9183027Y-13115061D01*
X9183027Y-13115061D02*
X9202075Y-13105538D01*
X9202075Y-13105538D02*
X9240170Y-13105538D01*
X9240170Y-13105538D02*
X9259218Y-13115061D01*
X9259218Y-13115061D02*
X9268742Y-13134109D01*
X9268742Y-13134109D02*
X9268742Y-13153157D01*
X9268742Y-13153157D02*
X9173503Y-13172204D01*
X9344932Y-13229347D02*
X9363980Y-13238871D01*
X9363980Y-13238871D02*
X9402075Y-13238871D01*
X9402075Y-13238871D02*
X9421123Y-13229347D01*
X9421123Y-13229347D02*
X9430646Y-13210299D01*
X9430646Y-13210299D02*
X9430646Y-13200776D01*
X9430646Y-13200776D02*
X9421123Y-13181728D01*
X9421123Y-13181728D02*
X9402075Y-13172204D01*
X9402075Y-13172204D02*
X9373503Y-13172204D01*
X9373503Y-13172204D02*
X9354456Y-13162680D01*
X9354456Y-13162680D02*
X9344932Y-13143633D01*
X9344932Y-13143633D02*
X9344932Y-13134109D01*
X9344932Y-13134109D02*
X9354456Y-13115061D01*
X9354456Y-13115061D02*
X9373503Y-13105538D01*
X9373503Y-13105538D02*
X9402075Y-13105538D01*
X9402075Y-13105538D02*
X9421123Y-13115061D01*
X9497313Y-13315061D02*
X9506837Y-13305538D01*
X9506837Y-13305538D02*
X9525884Y-13276966D01*
X9525884Y-13276966D02*
X9535408Y-13257919D01*
X9535408Y-13257919D02*
X9544932Y-13229347D01*
X9544932Y-13229347D02*
X9554456Y-13181728D01*
X9554456Y-13181728D02*
X9554456Y-13143633D01*
X9554456Y-13143633D02*
X9544932Y-13096014D01*
X9544932Y-13096014D02*
X9535408Y-13067442D01*
X9535408Y-13067442D02*
X9525884Y-13048395D01*
X9525884Y-13048395D02*
X9506837Y-13019823D01*
X9506837Y-13019823D02*
X9497313Y-13010299D01*
M02*
