M48
; DRILL file {KiCad 7.0.5-0} date 2023 October 17, Tuesday 19:27:59
; FORMAT={-:-/ absolute / inch / decimal}
; #@! TF.CreationDate,2023-10-17T19:27:59+10:30
; #@! TF.GenerationSoftware,Kicad,Pcbnew,7.0.5-0
; #@! TF.FileFunction,Plated,1,2,PTH
FMAT,2
INCH
; #@! TA.AperFunction,Plated,PTH,ViaDrill
T1C0.0157
; #@! TA.AperFunction,Plated,PTH,ComponentDrill
T2C0.0315
; #@! TA.AperFunction,Plated,PTH,ComponentDrill
T3C0.0354
; #@! TA.AperFunction,Plated,PTH,ComponentDrill
T4C0.0394
%
G90
G05
T1
X-0.2693Y-3.52
X-0.1593Y-3.6895
X-0.0893Y-3.84
X0.0707Y-1.58
X0.0707Y-4.0
X0.0907Y-3.47
X0.1407Y-3.3
X0.1892Y-3.17
X0.2007Y-3.72
X0.2169Y-3.06
X0.2207Y-3.34
X0.2807Y-3.85
X0.3707Y-3.81
X0.3907Y-3.7
X0.4207Y-2.8
X0.4207Y-2.85
X0.4207Y-2.9
X0.4907Y-1.98
X0.5107Y-1.89
X0.5807Y-2.5
X0.6207Y-3.22
X0.6707Y-3.86
X0.8107Y-3.03
X0.8607Y-2.46
X0.9107Y-3.74
X0.9407Y-1.56
X0.9407Y-2.47
X0.9407Y-3.18
X0.9407Y-3.88
X0.9807Y-1.67
X1.0707Y-3.07
X1.0907Y-3.77
X1.1007Y-1.52
X1.1507Y-2.37
X1.1707Y-2.62
X1.2607Y-1.61
X1.4307Y-2.25
X1.5507Y-2.89
X1.5907Y-2.18
X1.6007Y-3.61
X1.6707Y-2.34
X1.6807Y-3.05
X1.6807Y-3.77
X1.6907Y-1.63
X1.8307Y-2.22
X1.8307Y-3.65
X1.8407Y-1.5
X1.8407Y-2.93
X2.0607Y-1.42
X2.1107Y-2.03
X2.1707Y-2.87
X2.2007Y-2.08
X2.2907Y-2.79
X2.3307Y-3.5
X2.3407Y-2.08
X2.4107Y-1.51
X2.4107Y-2.93
X2.4107Y-3.64
X2.4207Y-2.23
X2.5807Y-2.12
X2.5807Y-2.83
X2.6007Y-3.53
X2.6307Y-1.42
X2.8907Y-3.66
X2.9907Y-3.49
X3.0907Y-2.07
X3.1207Y-2.79
X3.1407Y-3.63
X3.1607Y-1.52
X3.1607Y-2.23
X3.1607Y-2.93
X3.3207Y-2.12
X3.3307Y-2.83
X3.3307Y-3.52
X3.3457Y-1.42
X3.3607Y-1.82
X3.5207Y-3.52
X3.5907Y-2.89
X3.6207Y-3.52
X3.6307Y-1.71
X3.6307Y-2.29
X3.6307Y-2.43
X3.7707Y-3.61
X3.8107Y-2.19
X3.8107Y-2.91
X3.8507Y-4.03
X3.8907Y-2.34
X3.8907Y-2.47
X3.9007Y-1.64
X3.9007Y-3.05
X4.0607Y-2.24
X4.0707Y-1.53
X4.0807Y-2.94
X4.0907Y-3.89
X4.2607Y-2.65
X4.2907Y-2.9
X4.3607Y-3.12
X4.5907Y-3.0
X4.6407Y-1.75
X4.6407Y-3.17
X4.6507Y-2.46
X4.8007Y-3.05
X4.8107Y-2.35
X4.8207Y-1.65
X4.9807Y-2.35
X4.9907Y-3.05
T2
X-0.228Y-1.6134
X-0.228Y-1.7134
X-0.228Y-1.8134
X-0.228Y-1.9134
X-0.228Y-2.0134
X-0.228Y-2.1134
X-0.228Y-2.2134
X-0.228Y-2.3134
X-0.228Y-2.4134
X-0.228Y-2.5134
X-0.228Y-2.6134
X-0.228Y-2.7134
X0.372Y-1.6134
X0.372Y-1.7134
X0.372Y-1.8134
X0.372Y-1.9134
X0.372Y-2.0134
X0.372Y-2.1134
X0.372Y-2.2134
X0.372Y-2.3134
X0.372Y-2.4134
X0.372Y-2.5134
X0.372Y-2.6134
X0.372Y-2.7134
X0.71Y-1.9004
X0.71Y-1.9791
T3
X-0.2034Y-3.0685
X-0.1552Y-3.1626
X-0.1552Y-3.2626
X-0.1552Y-3.3626
X-0.1552Y-3.4626
X-0.1306Y-3.0685
T4
X-0.128Y-2.9169
X-0.028Y-2.9169
X0.072Y-2.9169
X0.172Y-2.9169
X0.272Y-2.9169
T0
M30
