%TF.GenerationSoftware,KiCad,Pcbnew,7.0.5-0*%
%TF.CreationDate,2023-10-17T19:27:59+10:30*%
%TF.ProjectId,Rolio,526f6c69-6f2e-46b6-9963-61645f706362,rev?*%
%TF.SameCoordinates,Original*%
%TF.FileFunction,Legend,Top*%
%TF.FilePolarity,Positive*%
%FSLAX46Y46*%
G04 Gerber Fmt 4.6, Leading zero omitted, Abs format (unit mm)*
G04 Created by KiCad (PCBNEW 7.0.5-0) date 2023-10-17 19:27:59*
%MOMM*%
%LPD*%
G01*
G04 APERTURE LIST*
G04 Aperture macros list*
%AMRoundRect*
0 Rectangle with rounded corners*
0 $1 Rounding radius*
0 $2 $3 $4 $5 $6 $7 $8 $9 X,Y pos of 4 corners*
0 Add a 4 corners polygon primitive as box body*
4,1,4,$2,$3,$4,$5,$6,$7,$8,$9,$2,$3,0*
0 Add four circle primitives for the rounded corners*
1,1,$1+$1,$2,$3*
1,1,$1+$1,$4,$5*
1,1,$1+$1,$6,$7*
1,1,$1+$1,$8,$9*
0 Add four rect primitives between the rounded corners*
20,1,$1+$1,$2,$3,$4,$5,0*
20,1,$1+$1,$4,$5,$6,$7,0*
20,1,$1+$1,$6,$7,$8,$9,0*
20,1,$1+$1,$8,$9,$2,$3,0*%
G04 Aperture macros list end*
%ADD10C,0.150000*%
%ADD11C,0.187500*%
%ADD12C,0.100000*%
%ADD13C,0.120000*%
%ADD14C,0.200000*%
%ADD15C,1.701800*%
%ADD16C,3.000000*%
%ADD17C,3.429000*%
%ADD18C,0.990600*%
%ADD19RoundRect,0.243750X-0.243750X-0.456250X0.243750X-0.456250X0.243750X0.456250X-0.243750X0.456250X0*%
%ADD20R,1.700000X1.700000*%
%ADD21O,1.700000X1.700000*%
%ADD22C,1.500000*%
%ADD23C,1.600000*%
%ADD24C,4.300000*%
%ADD25R,1.600000X1.600000*%
%ADD26O,1.600000X1.600000*%
%ADD27R,1.350000X1.350000*%
%ADD28O,1.350000X1.350000*%
%ADD29RoundRect,0.250000X-0.325000X-0.450000X0.325000X-0.450000X0.325000X0.450000X-0.325000X0.450000X0*%
%ADD30RoundRect,0.243750X-0.143564X-0.496958X0.333283X-0.395601X0.143564X0.496958X-0.333283X0.395601X0*%
%ADD31C,0.900000*%
G04 APERTURE END LIST*
D10*
X98459737Y-95780009D02*
X98602594Y-95827628D01*
X98602594Y-95827628D02*
X98650213Y-95875247D01*
X98650213Y-95875247D02*
X98697832Y-95970485D01*
X98697832Y-95970485D02*
X98697832Y-96113342D01*
X98697832Y-96113342D02*
X98650213Y-96208580D01*
X98650213Y-96208580D02*
X98602594Y-96256200D01*
X98602594Y-96256200D02*
X98507356Y-96303819D01*
X98507356Y-96303819D02*
X98126404Y-96303819D01*
X98126404Y-96303819D02*
X98126404Y-95303819D01*
X98126404Y-95303819D02*
X98459737Y-95303819D01*
X98459737Y-95303819D02*
X98554975Y-95351438D01*
X98554975Y-95351438D02*
X98602594Y-95399057D01*
X98602594Y-95399057D02*
X98650213Y-95494295D01*
X98650213Y-95494295D02*
X98650213Y-95589533D01*
X98650213Y-95589533D02*
X98602594Y-95684771D01*
X98602594Y-95684771D02*
X98554975Y-95732390D01*
X98554975Y-95732390D02*
X98459737Y-95780009D01*
X98459737Y-95780009D02*
X98126404Y-95780009D01*
X99554975Y-96303819D02*
X99554975Y-95780009D01*
X99554975Y-95780009D02*
X99507356Y-95684771D01*
X99507356Y-95684771D02*
X99412118Y-95637152D01*
X99412118Y-95637152D02*
X99221642Y-95637152D01*
X99221642Y-95637152D02*
X99126404Y-95684771D01*
X99554975Y-96256200D02*
X99459737Y-96303819D01*
X99459737Y-96303819D02*
X99221642Y-96303819D01*
X99221642Y-96303819D02*
X99126404Y-96256200D01*
X99126404Y-96256200D02*
X99078785Y-96160961D01*
X99078785Y-96160961D02*
X99078785Y-96065723D01*
X99078785Y-96065723D02*
X99126404Y-95970485D01*
X99126404Y-95970485D02*
X99221642Y-95922866D01*
X99221642Y-95922866D02*
X99459737Y-95922866D01*
X99459737Y-95922866D02*
X99554975Y-95875247D01*
X100459737Y-96256200D02*
X100364499Y-96303819D01*
X100364499Y-96303819D02*
X100174023Y-96303819D01*
X100174023Y-96303819D02*
X100078785Y-96256200D01*
X100078785Y-96256200D02*
X100031166Y-96208580D01*
X100031166Y-96208580D02*
X99983547Y-96113342D01*
X99983547Y-96113342D02*
X99983547Y-95827628D01*
X99983547Y-95827628D02*
X100031166Y-95732390D01*
X100031166Y-95732390D02*
X100078785Y-95684771D01*
X100078785Y-95684771D02*
X100174023Y-95637152D01*
X100174023Y-95637152D02*
X100364499Y-95637152D01*
X100364499Y-95637152D02*
X100459737Y-95684771D01*
X100888309Y-96303819D02*
X100888309Y-95303819D01*
X100983547Y-95922866D02*
X101269261Y-96303819D01*
X101269261Y-95637152D02*
X100888309Y-96018104D01*
X101840690Y-96303819D02*
X101745452Y-96256200D01*
X101745452Y-96256200D02*
X101697833Y-96160961D01*
X101697833Y-96160961D02*
X101697833Y-95303819D01*
X102221643Y-96303819D02*
X102221643Y-95637152D01*
X102221643Y-95303819D02*
X102174024Y-95351438D01*
X102174024Y-95351438D02*
X102221643Y-95399057D01*
X102221643Y-95399057D02*
X102269262Y-95351438D01*
X102269262Y-95351438D02*
X102221643Y-95303819D01*
X102221643Y-95303819D02*
X102221643Y-95399057D01*
X103126404Y-95637152D02*
X103126404Y-96446676D01*
X103126404Y-96446676D02*
X103078785Y-96541914D01*
X103078785Y-96541914D02*
X103031166Y-96589533D01*
X103031166Y-96589533D02*
X102935928Y-96637152D01*
X102935928Y-96637152D02*
X102793071Y-96637152D01*
X102793071Y-96637152D02*
X102697833Y-96589533D01*
X103126404Y-96256200D02*
X103031166Y-96303819D01*
X103031166Y-96303819D02*
X102840690Y-96303819D01*
X102840690Y-96303819D02*
X102745452Y-96256200D01*
X102745452Y-96256200D02*
X102697833Y-96208580D01*
X102697833Y-96208580D02*
X102650214Y-96113342D01*
X102650214Y-96113342D02*
X102650214Y-95827628D01*
X102650214Y-95827628D02*
X102697833Y-95732390D01*
X102697833Y-95732390D02*
X102745452Y-95684771D01*
X102745452Y-95684771D02*
X102840690Y-95637152D01*
X102840690Y-95637152D02*
X103031166Y-95637152D01*
X103031166Y-95637152D02*
X103126404Y-95684771D01*
X103602595Y-96303819D02*
X103602595Y-95303819D01*
X104031166Y-96303819D02*
X104031166Y-95780009D01*
X104031166Y-95780009D02*
X103983547Y-95684771D01*
X103983547Y-95684771D02*
X103888309Y-95637152D01*
X103888309Y-95637152D02*
X103745452Y-95637152D01*
X103745452Y-95637152D02*
X103650214Y-95684771D01*
X103650214Y-95684771D02*
X103602595Y-95732390D01*
X104364500Y-95637152D02*
X104745452Y-95637152D01*
X104507357Y-95303819D02*
X104507357Y-96160961D01*
X104507357Y-96160961D02*
X104554976Y-96256200D01*
X104554976Y-96256200D02*
X104650214Y-96303819D01*
X104650214Y-96303819D02*
X104745452Y-96303819D01*
X99959738Y-96913819D02*
X100531166Y-96913819D01*
X100245452Y-97913819D02*
X100245452Y-96913819D01*
X101245452Y-97866200D02*
X101150214Y-97913819D01*
X101150214Y-97913819D02*
X100959738Y-97913819D01*
X100959738Y-97913819D02*
X100864500Y-97866200D01*
X100864500Y-97866200D02*
X100816881Y-97770961D01*
X100816881Y-97770961D02*
X100816881Y-97390009D01*
X100816881Y-97390009D02*
X100864500Y-97294771D01*
X100864500Y-97294771D02*
X100959738Y-97247152D01*
X100959738Y-97247152D02*
X101150214Y-97247152D01*
X101150214Y-97247152D02*
X101245452Y-97294771D01*
X101245452Y-97294771D02*
X101293071Y-97390009D01*
X101293071Y-97390009D02*
X101293071Y-97485247D01*
X101293071Y-97485247D02*
X100816881Y-97580485D01*
X101674024Y-97866200D02*
X101769262Y-97913819D01*
X101769262Y-97913819D02*
X101959738Y-97913819D01*
X101959738Y-97913819D02*
X102054976Y-97866200D01*
X102054976Y-97866200D02*
X102102595Y-97770961D01*
X102102595Y-97770961D02*
X102102595Y-97723342D01*
X102102595Y-97723342D02*
X102054976Y-97628104D01*
X102054976Y-97628104D02*
X101959738Y-97580485D01*
X101959738Y-97580485D02*
X101816881Y-97580485D01*
X101816881Y-97580485D02*
X101721643Y-97532866D01*
X101721643Y-97532866D02*
X101674024Y-97437628D01*
X101674024Y-97437628D02*
X101674024Y-97390009D01*
X101674024Y-97390009D02*
X101721643Y-97294771D01*
X101721643Y-97294771D02*
X101816881Y-97247152D01*
X101816881Y-97247152D02*
X101959738Y-97247152D01*
X101959738Y-97247152D02*
X102054976Y-97294771D01*
X102388310Y-97247152D02*
X102769262Y-97247152D01*
X102531167Y-96913819D02*
X102531167Y-97770961D01*
X102531167Y-97770961D02*
X102578786Y-97866200D01*
X102578786Y-97866200D02*
X102674024Y-97913819D01*
X102674024Y-97913819D02*
X102769262Y-97913819D01*
X17627279Y-45880866D02*
X18389184Y-45880866D01*
X18008231Y-46261819D02*
X18008231Y-45499914D01*
X17627279Y-52320866D02*
X18389184Y-52320866D01*
D11*
X55723283Y-35923630D02*
X55323283Y-35399821D01*
X55037569Y-35923630D02*
X55037569Y-34823630D01*
X55037569Y-34823630D02*
X55494712Y-34823630D01*
X55494712Y-34823630D02*
X55608997Y-34876011D01*
X55608997Y-34876011D02*
X55666140Y-34928392D01*
X55666140Y-34928392D02*
X55723283Y-35033154D01*
X55723283Y-35033154D02*
X55723283Y-35190297D01*
X55723283Y-35190297D02*
X55666140Y-35295059D01*
X55666140Y-35295059D02*
X55608997Y-35347440D01*
X55608997Y-35347440D02*
X55494712Y-35399821D01*
X55494712Y-35399821D02*
X55037569Y-35399821D01*
X56408997Y-35923630D02*
X56294712Y-35871250D01*
X56294712Y-35871250D02*
X56237569Y-35818869D01*
X56237569Y-35818869D02*
X56180426Y-35714107D01*
X56180426Y-35714107D02*
X56180426Y-35399821D01*
X56180426Y-35399821D02*
X56237569Y-35295059D01*
X56237569Y-35295059D02*
X56294712Y-35242678D01*
X56294712Y-35242678D02*
X56408997Y-35190297D01*
X56408997Y-35190297D02*
X56580426Y-35190297D01*
X56580426Y-35190297D02*
X56694712Y-35242678D01*
X56694712Y-35242678D02*
X56751855Y-35295059D01*
X56751855Y-35295059D02*
X56808997Y-35399821D01*
X56808997Y-35399821D02*
X56808997Y-35714107D01*
X56808997Y-35714107D02*
X56751855Y-35818869D01*
X56751855Y-35818869D02*
X56694712Y-35871250D01*
X56694712Y-35871250D02*
X56580426Y-35923630D01*
X56580426Y-35923630D02*
X56408997Y-35923630D01*
X57494711Y-35923630D02*
X57380426Y-35871250D01*
X57380426Y-35871250D02*
X57323283Y-35766488D01*
X57323283Y-35766488D02*
X57323283Y-34823630D01*
X57951854Y-35923630D02*
X57951854Y-35190297D01*
X57951854Y-34823630D02*
X57894711Y-34876011D01*
X57894711Y-34876011D02*
X57951854Y-34928392D01*
X57951854Y-34928392D02*
X58008997Y-34876011D01*
X58008997Y-34876011D02*
X57951854Y-34823630D01*
X57951854Y-34823630D02*
X57951854Y-34928392D01*
X58694711Y-35923630D02*
X58580426Y-35871250D01*
X58580426Y-35871250D02*
X58523283Y-35818869D01*
X58523283Y-35818869D02*
X58466140Y-35714107D01*
X58466140Y-35714107D02*
X58466140Y-35399821D01*
X58466140Y-35399821D02*
X58523283Y-35295059D01*
X58523283Y-35295059D02*
X58580426Y-35242678D01*
X58580426Y-35242678D02*
X58694711Y-35190297D01*
X58694711Y-35190297D02*
X58866140Y-35190297D01*
X58866140Y-35190297D02*
X58980426Y-35242678D01*
X58980426Y-35242678D02*
X59037569Y-35295059D01*
X59037569Y-35295059D02*
X59094711Y-35399821D01*
X59094711Y-35399821D02*
X59094711Y-35714107D01*
X59094711Y-35714107D02*
X59037569Y-35818869D01*
X59037569Y-35818869D02*
X58980426Y-35871250D01*
X58980426Y-35871250D02*
X58866140Y-35923630D01*
X58866140Y-35923630D02*
X58694711Y-35923630D01*
X60351854Y-34823630D02*
X60751854Y-35923630D01*
X60751854Y-35923630D02*
X61151854Y-34823630D01*
X62180425Y-35923630D02*
X61494711Y-35923630D01*
X61837568Y-35923630D02*
X61837568Y-34823630D01*
X61837568Y-34823630D02*
X61723282Y-34980773D01*
X61723282Y-34980773D02*
X61608997Y-35085535D01*
X61608997Y-35085535D02*
X61494711Y-35137916D01*
X62694711Y-35818869D02*
X62751854Y-35871250D01*
X62751854Y-35871250D02*
X62694711Y-35923630D01*
X62694711Y-35923630D02*
X62637568Y-35871250D01*
X62637568Y-35871250D02*
X62694711Y-35818869D01*
X62694711Y-35818869D02*
X62694711Y-35923630D01*
X63208997Y-34928392D02*
X63266140Y-34876011D01*
X63266140Y-34876011D02*
X63380426Y-34823630D01*
X63380426Y-34823630D02*
X63666140Y-34823630D01*
X63666140Y-34823630D02*
X63780426Y-34876011D01*
X63780426Y-34876011D02*
X63837568Y-34928392D01*
X63837568Y-34928392D02*
X63894711Y-35033154D01*
X63894711Y-35033154D02*
X63894711Y-35137916D01*
X63894711Y-35137916D02*
X63837568Y-35295059D01*
X63837568Y-35295059D02*
X63151854Y-35923630D01*
X63151854Y-35923630D02*
X63894711Y-35923630D01*
X65666140Y-36342678D02*
X65608997Y-36290297D01*
X65608997Y-36290297D02*
X65494711Y-36133154D01*
X65494711Y-36133154D02*
X65437569Y-36028392D01*
X65437569Y-36028392D02*
X65380426Y-35871250D01*
X65380426Y-35871250D02*
X65323283Y-35609345D01*
X65323283Y-35609345D02*
X65323283Y-35399821D01*
X65323283Y-35399821D02*
X65380426Y-35137916D01*
X65380426Y-35137916D02*
X65437569Y-34980773D01*
X65437569Y-34980773D02*
X65494711Y-34876011D01*
X65494711Y-34876011D02*
X65608997Y-34718869D01*
X65608997Y-34718869D02*
X65666140Y-34666488D01*
X66808997Y-35923630D02*
X66408997Y-35399821D01*
X66123283Y-35923630D02*
X66123283Y-34823630D01*
X66123283Y-34823630D02*
X66580426Y-34823630D01*
X66580426Y-34823630D02*
X66694711Y-34876011D01*
X66694711Y-34876011D02*
X66751854Y-34928392D01*
X66751854Y-34928392D02*
X66808997Y-35033154D01*
X66808997Y-35033154D02*
X66808997Y-35190297D01*
X66808997Y-35190297D02*
X66751854Y-35295059D01*
X66751854Y-35295059D02*
X66694711Y-35347440D01*
X66694711Y-35347440D02*
X66580426Y-35399821D01*
X66580426Y-35399821D02*
X66123283Y-35399821D01*
X67323283Y-35923630D02*
X67323283Y-35190297D01*
X67323283Y-34823630D02*
X67266140Y-34876011D01*
X67266140Y-34876011D02*
X67323283Y-34928392D01*
X67323283Y-34928392D02*
X67380426Y-34876011D01*
X67380426Y-34876011D02*
X67323283Y-34823630D01*
X67323283Y-34823630D02*
X67323283Y-34928392D01*
X68408998Y-35190297D02*
X68408998Y-36080773D01*
X68408998Y-36080773D02*
X68351855Y-36185535D01*
X68351855Y-36185535D02*
X68294712Y-36237916D01*
X68294712Y-36237916D02*
X68180426Y-36290297D01*
X68180426Y-36290297D02*
X68008998Y-36290297D01*
X68008998Y-36290297D02*
X67894712Y-36237916D01*
X68408998Y-35871250D02*
X68294712Y-35923630D01*
X68294712Y-35923630D02*
X68066140Y-35923630D01*
X68066140Y-35923630D02*
X67951855Y-35871250D01*
X67951855Y-35871250D02*
X67894712Y-35818869D01*
X67894712Y-35818869D02*
X67837569Y-35714107D01*
X67837569Y-35714107D02*
X67837569Y-35399821D01*
X67837569Y-35399821D02*
X67894712Y-35295059D01*
X67894712Y-35295059D02*
X67951855Y-35242678D01*
X67951855Y-35242678D02*
X68066140Y-35190297D01*
X68066140Y-35190297D02*
X68294712Y-35190297D01*
X68294712Y-35190297D02*
X68408998Y-35242678D01*
X68980426Y-35923630D02*
X68980426Y-34823630D01*
X69494712Y-35923630D02*
X69494712Y-35347440D01*
X69494712Y-35347440D02*
X69437569Y-35242678D01*
X69437569Y-35242678D02*
X69323283Y-35190297D01*
X69323283Y-35190297D02*
X69151854Y-35190297D01*
X69151854Y-35190297D02*
X69037569Y-35242678D01*
X69037569Y-35242678D02*
X68980426Y-35295059D01*
X69894711Y-35190297D02*
X70351854Y-35190297D01*
X70066140Y-34823630D02*
X70066140Y-35766488D01*
X70066140Y-35766488D02*
X70123283Y-35871250D01*
X70123283Y-35871250D02*
X70237568Y-35923630D01*
X70237568Y-35923630D02*
X70351854Y-35923630D01*
X70637568Y-36342678D02*
X70694711Y-36290297D01*
X70694711Y-36290297D02*
X70808997Y-36133154D01*
X70808997Y-36133154D02*
X70866140Y-36028392D01*
X70866140Y-36028392D02*
X70923282Y-35871250D01*
X70923282Y-35871250D02*
X70980425Y-35609345D01*
X70980425Y-35609345D02*
X70980425Y-35399821D01*
X70980425Y-35399821D02*
X70923282Y-35137916D01*
X70923282Y-35137916D02*
X70866140Y-34980773D01*
X70866140Y-34980773D02*
X70808997Y-34876011D01*
X70808997Y-34876011D02*
X70694711Y-34718869D01*
X70694711Y-34718869D02*
X70637568Y-34666488D01*
X72466140Y-35504583D02*
X73380426Y-35504583D01*
X74866140Y-35923630D02*
X74866140Y-34823630D01*
X74866140Y-34823630D02*
X75266140Y-35609345D01*
X75266140Y-35609345D02*
X75666140Y-34823630D01*
X75666140Y-34823630D02*
X75666140Y-35923630D01*
X76237569Y-35923630D02*
X76237569Y-35190297D01*
X76237569Y-34823630D02*
X76180426Y-34876011D01*
X76180426Y-34876011D02*
X76237569Y-34928392D01*
X76237569Y-34928392D02*
X76294712Y-34876011D01*
X76294712Y-34876011D02*
X76237569Y-34823630D01*
X76237569Y-34823630D02*
X76237569Y-34928392D01*
X77323284Y-35871250D02*
X77208998Y-35923630D01*
X77208998Y-35923630D02*
X76980426Y-35923630D01*
X76980426Y-35923630D02*
X76866141Y-35871250D01*
X76866141Y-35871250D02*
X76808998Y-35818869D01*
X76808998Y-35818869D02*
X76751855Y-35714107D01*
X76751855Y-35714107D02*
X76751855Y-35399821D01*
X76751855Y-35399821D02*
X76808998Y-35295059D01*
X76808998Y-35295059D02*
X76866141Y-35242678D01*
X76866141Y-35242678D02*
X76980426Y-35190297D01*
X76980426Y-35190297D02*
X77208998Y-35190297D01*
X77208998Y-35190297D02*
X77323284Y-35242678D01*
X77837569Y-35923630D02*
X77837569Y-34823630D01*
X77951855Y-35504583D02*
X78294712Y-35923630D01*
X78294712Y-35190297D02*
X77837569Y-35609345D01*
X78808998Y-35923630D02*
X78808998Y-35190297D01*
X78808998Y-34823630D02*
X78751855Y-34876011D01*
X78751855Y-34876011D02*
X78808998Y-34928392D01*
X78808998Y-34928392D02*
X78866141Y-34876011D01*
X78866141Y-34876011D02*
X78808998Y-34823630D01*
X78808998Y-34823630D02*
X78808998Y-34928392D01*
X79894713Y-35190297D02*
X79894713Y-35923630D01*
X79380427Y-35190297D02*
X79380427Y-35766488D01*
X79380427Y-35766488D02*
X79437570Y-35871250D01*
X79437570Y-35871250D02*
X79551855Y-35923630D01*
X79551855Y-35923630D02*
X79723284Y-35923630D01*
X79723284Y-35923630D02*
X79837570Y-35871250D01*
X79837570Y-35871250D02*
X79894713Y-35818869D01*
X80408998Y-35871250D02*
X80523284Y-35923630D01*
X80523284Y-35923630D02*
X80751855Y-35923630D01*
X80751855Y-35923630D02*
X80866141Y-35871250D01*
X80866141Y-35871250D02*
X80923284Y-35766488D01*
X80923284Y-35766488D02*
X80923284Y-35714107D01*
X80923284Y-35714107D02*
X80866141Y-35609345D01*
X80866141Y-35609345D02*
X80751855Y-35556964D01*
X80751855Y-35556964D02*
X80580427Y-35556964D01*
X80580427Y-35556964D02*
X80466141Y-35504583D01*
X80466141Y-35504583D02*
X80408998Y-35399821D01*
X80408998Y-35399821D02*
X80408998Y-35347440D01*
X80408998Y-35347440D02*
X80466141Y-35242678D01*
X80466141Y-35242678D02*
X80580427Y-35190297D01*
X80580427Y-35190297D02*
X80751855Y-35190297D01*
X80751855Y-35190297D02*
X80866141Y-35242678D01*
X81437570Y-35923630D02*
X81437570Y-34823630D01*
X81437570Y-34823630D02*
X81837570Y-35609345D01*
X81837570Y-35609345D02*
X82237570Y-34823630D01*
X82237570Y-34823630D02*
X82237570Y-35923630D01*
X82980427Y-35923630D02*
X82866142Y-35871250D01*
X82866142Y-35871250D02*
X82808999Y-35818869D01*
X82808999Y-35818869D02*
X82751856Y-35714107D01*
X82751856Y-35714107D02*
X82751856Y-35399821D01*
X82751856Y-35399821D02*
X82808999Y-35295059D01*
X82808999Y-35295059D02*
X82866142Y-35242678D01*
X82866142Y-35242678D02*
X82980427Y-35190297D01*
X82980427Y-35190297D02*
X83151856Y-35190297D01*
X83151856Y-35190297D02*
X83266142Y-35242678D01*
X83266142Y-35242678D02*
X83323285Y-35295059D01*
X83323285Y-35295059D02*
X83380427Y-35399821D01*
X83380427Y-35399821D02*
X83380427Y-35714107D01*
X83380427Y-35714107D02*
X83323285Y-35818869D01*
X83323285Y-35818869D02*
X83266142Y-35871250D01*
X83266142Y-35871250D02*
X83151856Y-35923630D01*
X83151856Y-35923630D02*
X82980427Y-35923630D01*
X84408999Y-35190297D02*
X84408999Y-35923630D01*
X83894713Y-35190297D02*
X83894713Y-35766488D01*
X83894713Y-35766488D02*
X83951856Y-35871250D01*
X83951856Y-35871250D02*
X84066141Y-35923630D01*
X84066141Y-35923630D02*
X84237570Y-35923630D01*
X84237570Y-35923630D02*
X84351856Y-35871250D01*
X84351856Y-35871250D02*
X84408999Y-35818869D01*
X84923284Y-35871250D02*
X85037570Y-35923630D01*
X85037570Y-35923630D02*
X85266141Y-35923630D01*
X85266141Y-35923630D02*
X85380427Y-35871250D01*
X85380427Y-35871250D02*
X85437570Y-35766488D01*
X85437570Y-35766488D02*
X85437570Y-35714107D01*
X85437570Y-35714107D02*
X85380427Y-35609345D01*
X85380427Y-35609345D02*
X85266141Y-35556964D01*
X85266141Y-35556964D02*
X85094713Y-35556964D01*
X85094713Y-35556964D02*
X84980427Y-35504583D01*
X84980427Y-35504583D02*
X84923284Y-35399821D01*
X84923284Y-35399821D02*
X84923284Y-35347440D01*
X84923284Y-35347440D02*
X84980427Y-35242678D01*
X84980427Y-35242678D02*
X85094713Y-35190297D01*
X85094713Y-35190297D02*
X85266141Y-35190297D01*
X85266141Y-35190297D02*
X85380427Y-35242678D01*
X85951856Y-35923630D02*
X85951856Y-35190297D01*
X85951856Y-34823630D02*
X85894713Y-34876011D01*
X85894713Y-34876011D02*
X85951856Y-34928392D01*
X85951856Y-34928392D02*
X86008999Y-34876011D01*
X86008999Y-34876011D02*
X85951856Y-34823630D01*
X85951856Y-34823630D02*
X85951856Y-34928392D01*
X87037571Y-35190297D02*
X87037571Y-35923630D01*
X86523285Y-35190297D02*
X86523285Y-35766488D01*
X86523285Y-35766488D02*
X86580428Y-35871250D01*
X86580428Y-35871250D02*
X86694713Y-35923630D01*
X86694713Y-35923630D02*
X86866142Y-35923630D01*
X86866142Y-35923630D02*
X86980428Y-35871250D01*
X86980428Y-35871250D02*
X87037571Y-35818869D01*
X87551856Y-35871250D02*
X87666142Y-35923630D01*
X87666142Y-35923630D02*
X87894713Y-35923630D01*
X87894713Y-35923630D02*
X88008999Y-35871250D01*
X88008999Y-35871250D02*
X88066142Y-35766488D01*
X88066142Y-35766488D02*
X88066142Y-35714107D01*
X88066142Y-35714107D02*
X88008999Y-35609345D01*
X88008999Y-35609345D02*
X87894713Y-35556964D01*
X87894713Y-35556964D02*
X87723285Y-35556964D01*
X87723285Y-35556964D02*
X87608999Y-35504583D01*
X87608999Y-35504583D02*
X87551856Y-35399821D01*
X87551856Y-35399821D02*
X87551856Y-35347440D01*
X87551856Y-35347440D02*
X87608999Y-35242678D01*
X87608999Y-35242678D02*
X87723285Y-35190297D01*
X87723285Y-35190297D02*
X87894713Y-35190297D01*
X87894713Y-35190297D02*
X88008999Y-35242678D01*
X89551857Y-34823630D02*
X89437571Y-35033154D01*
X90009000Y-34928392D02*
X90066143Y-34876011D01*
X90066143Y-34876011D02*
X90180429Y-34823630D01*
X90180429Y-34823630D02*
X90466143Y-34823630D01*
X90466143Y-34823630D02*
X90580429Y-34876011D01*
X90580429Y-34876011D02*
X90637571Y-34928392D01*
X90637571Y-34928392D02*
X90694714Y-35033154D01*
X90694714Y-35033154D02*
X90694714Y-35137916D01*
X90694714Y-35137916D02*
X90637571Y-35295059D01*
X90637571Y-35295059D02*
X89951857Y-35923630D01*
X89951857Y-35923630D02*
X90694714Y-35923630D01*
X91094714Y-34823630D02*
X91837571Y-34823630D01*
X91837571Y-34823630D02*
X91437571Y-35242678D01*
X91437571Y-35242678D02*
X91609000Y-35242678D01*
X91609000Y-35242678D02*
X91723286Y-35295059D01*
X91723286Y-35295059D02*
X91780428Y-35347440D01*
X91780428Y-35347440D02*
X91837571Y-35452202D01*
X91837571Y-35452202D02*
X91837571Y-35714107D01*
X91837571Y-35714107D02*
X91780428Y-35818869D01*
X91780428Y-35818869D02*
X91723286Y-35871250D01*
X91723286Y-35871250D02*
X91609000Y-35923630D01*
X91609000Y-35923630D02*
X91266143Y-35923630D01*
X91266143Y-35923630D02*
X91151857Y-35871250D01*
X91151857Y-35871250D02*
X91094714Y-35818869D01*
D10*
%TO.C,LED3*%
X63081452Y-37579819D02*
X62605262Y-37579819D01*
X62605262Y-37579819D02*
X62605262Y-36579819D01*
X63414786Y-37056009D02*
X63748119Y-37056009D01*
X63890976Y-37579819D02*
X63414786Y-37579819D01*
X63414786Y-37579819D02*
X63414786Y-36579819D01*
X63414786Y-36579819D02*
X63890976Y-36579819D01*
X64319548Y-37579819D02*
X64319548Y-36579819D01*
X64319548Y-36579819D02*
X64557643Y-36579819D01*
X64557643Y-36579819D02*
X64700500Y-36627438D01*
X64700500Y-36627438D02*
X64795738Y-36722676D01*
X64795738Y-36722676D02*
X64843357Y-36817914D01*
X64843357Y-36817914D02*
X64890976Y-37008390D01*
X64890976Y-37008390D02*
X64890976Y-37151247D01*
X64890976Y-37151247D02*
X64843357Y-37341723D01*
X64843357Y-37341723D02*
X64795738Y-37436961D01*
X64795738Y-37436961D02*
X64700500Y-37532200D01*
X64700500Y-37532200D02*
X64557643Y-37579819D01*
X64557643Y-37579819D02*
X64319548Y-37579819D01*
X65224310Y-36579819D02*
X65843357Y-36579819D01*
X65843357Y-36579819D02*
X65510024Y-36960771D01*
X65510024Y-36960771D02*
X65652881Y-36960771D01*
X65652881Y-36960771D02*
X65748119Y-37008390D01*
X65748119Y-37008390D02*
X65795738Y-37056009D01*
X65795738Y-37056009D02*
X65843357Y-37151247D01*
X65843357Y-37151247D02*
X65843357Y-37389342D01*
X65843357Y-37389342D02*
X65795738Y-37484580D01*
X65795738Y-37484580D02*
X65748119Y-37532200D01*
X65748119Y-37532200D02*
X65652881Y-37579819D01*
X65652881Y-37579819D02*
X65367167Y-37579819D01*
X65367167Y-37579819D02*
X65271929Y-37532200D01*
X65271929Y-37532200D02*
X65224310Y-37484580D01*
%TO.C,LED15*%
X62605261Y-73579819D02*
X62129071Y-73579819D01*
X62129071Y-73579819D02*
X62129071Y-72579819D01*
X62938595Y-73056009D02*
X63271928Y-73056009D01*
X63414785Y-73579819D02*
X62938595Y-73579819D01*
X62938595Y-73579819D02*
X62938595Y-72579819D01*
X62938595Y-72579819D02*
X63414785Y-72579819D01*
X63843357Y-73579819D02*
X63843357Y-72579819D01*
X63843357Y-72579819D02*
X64081452Y-72579819D01*
X64081452Y-72579819D02*
X64224309Y-72627438D01*
X64224309Y-72627438D02*
X64319547Y-72722676D01*
X64319547Y-72722676D02*
X64367166Y-72817914D01*
X64367166Y-72817914D02*
X64414785Y-73008390D01*
X64414785Y-73008390D02*
X64414785Y-73151247D01*
X64414785Y-73151247D02*
X64367166Y-73341723D01*
X64367166Y-73341723D02*
X64319547Y-73436961D01*
X64319547Y-73436961D02*
X64224309Y-73532200D01*
X64224309Y-73532200D02*
X64081452Y-73579819D01*
X64081452Y-73579819D02*
X63843357Y-73579819D01*
X65367166Y-73579819D02*
X64795738Y-73579819D01*
X65081452Y-73579819D02*
X65081452Y-72579819D01*
X65081452Y-72579819D02*
X64986214Y-72722676D01*
X64986214Y-72722676D02*
X64890976Y-72817914D01*
X64890976Y-72817914D02*
X64795738Y-72865533D01*
X66271928Y-72579819D02*
X65795738Y-72579819D01*
X65795738Y-72579819D02*
X65748119Y-73056009D01*
X65748119Y-73056009D02*
X65795738Y-73008390D01*
X65795738Y-73008390D02*
X65890976Y-72960771D01*
X65890976Y-72960771D02*
X66129071Y-72960771D01*
X66129071Y-72960771D02*
X66224309Y-73008390D01*
X66224309Y-73008390D02*
X66271928Y-73056009D01*
X66271928Y-73056009D02*
X66319547Y-73151247D01*
X66319547Y-73151247D02*
X66319547Y-73389342D01*
X66319547Y-73389342D02*
X66271928Y-73484580D01*
X66271928Y-73484580D02*
X66224309Y-73532200D01*
X66224309Y-73532200D02*
X66129071Y-73579819D01*
X66129071Y-73579819D02*
X65890976Y-73579819D01*
X65890976Y-73579819D02*
X65795738Y-73532200D01*
X65795738Y-73532200D02*
X65748119Y-73484580D01*
%TO.C,LED4*%
X82081452Y-37579819D02*
X81605262Y-37579819D01*
X81605262Y-37579819D02*
X81605262Y-36579819D01*
X82414786Y-37056009D02*
X82748119Y-37056009D01*
X82890976Y-37579819D02*
X82414786Y-37579819D01*
X82414786Y-37579819D02*
X82414786Y-36579819D01*
X82414786Y-36579819D02*
X82890976Y-36579819D01*
X83319548Y-37579819D02*
X83319548Y-36579819D01*
X83319548Y-36579819D02*
X83557643Y-36579819D01*
X83557643Y-36579819D02*
X83700500Y-36627438D01*
X83700500Y-36627438D02*
X83795738Y-36722676D01*
X83795738Y-36722676D02*
X83843357Y-36817914D01*
X83843357Y-36817914D02*
X83890976Y-37008390D01*
X83890976Y-37008390D02*
X83890976Y-37151247D01*
X83890976Y-37151247D02*
X83843357Y-37341723D01*
X83843357Y-37341723D02*
X83795738Y-37436961D01*
X83795738Y-37436961D02*
X83700500Y-37532200D01*
X83700500Y-37532200D02*
X83557643Y-37579819D01*
X83557643Y-37579819D02*
X83319548Y-37579819D01*
X84748119Y-36913152D02*
X84748119Y-37579819D01*
X84510024Y-36532200D02*
X84271929Y-37246485D01*
X84271929Y-37246485D02*
X84890976Y-37246485D01*
%TO.C,LED1*%
X25361452Y-43829819D02*
X24885262Y-43829819D01*
X24885262Y-43829819D02*
X24885262Y-42829819D01*
X25694786Y-43306009D02*
X26028119Y-43306009D01*
X26170976Y-43829819D02*
X25694786Y-43829819D01*
X25694786Y-43829819D02*
X25694786Y-42829819D01*
X25694786Y-42829819D02*
X26170976Y-42829819D01*
X26599548Y-43829819D02*
X26599548Y-42829819D01*
X26599548Y-42829819D02*
X26837643Y-42829819D01*
X26837643Y-42829819D02*
X26980500Y-42877438D01*
X26980500Y-42877438D02*
X27075738Y-42972676D01*
X27075738Y-42972676D02*
X27123357Y-43067914D01*
X27123357Y-43067914D02*
X27170976Y-43258390D01*
X27170976Y-43258390D02*
X27170976Y-43401247D01*
X27170976Y-43401247D02*
X27123357Y-43591723D01*
X27123357Y-43591723D02*
X27075738Y-43686961D01*
X27075738Y-43686961D02*
X26980500Y-43782200D01*
X26980500Y-43782200D02*
X26837643Y-43829819D01*
X26837643Y-43829819D02*
X26599548Y-43829819D01*
X28123357Y-43829819D02*
X27551929Y-43829819D01*
X27837643Y-43829819D02*
X27837643Y-42829819D01*
X27837643Y-42829819D02*
X27742405Y-42972676D01*
X27742405Y-42972676D02*
X27647167Y-43067914D01*
X27647167Y-43067914D02*
X27551929Y-43115533D01*
%TO.C,RE_1*%
X682999Y-84594819D02*
X349666Y-84118628D01*
X111571Y-84594819D02*
X111571Y-83594819D01*
X111571Y-83594819D02*
X492523Y-83594819D01*
X492523Y-83594819D02*
X587761Y-83642438D01*
X587761Y-83642438D02*
X635380Y-83690057D01*
X635380Y-83690057D02*
X682999Y-83785295D01*
X682999Y-83785295D02*
X682999Y-83928152D01*
X682999Y-83928152D02*
X635380Y-84023390D01*
X635380Y-84023390D02*
X587761Y-84071009D01*
X587761Y-84071009D02*
X492523Y-84118628D01*
X492523Y-84118628D02*
X111571Y-84118628D01*
X1111571Y-84071009D02*
X1444904Y-84071009D01*
X1587761Y-84594819D02*
X1111571Y-84594819D01*
X1111571Y-84594819D02*
X1111571Y-83594819D01*
X1111571Y-83594819D02*
X1587761Y-83594819D01*
X1778238Y-84690057D02*
X2540142Y-84690057D01*
X3302047Y-84594819D02*
X2730619Y-84594819D01*
X3016333Y-84594819D02*
X3016333Y-83594819D01*
X3016333Y-83594819D02*
X2921095Y-83737676D01*
X2921095Y-83737676D02*
X2825857Y-83832914D01*
X2825857Y-83832914D02*
X2730619Y-83880533D01*
%TO.C,LED13*%
X24885261Y-79829819D02*
X24409071Y-79829819D01*
X24409071Y-79829819D02*
X24409071Y-78829819D01*
X25218595Y-79306009D02*
X25551928Y-79306009D01*
X25694785Y-79829819D02*
X25218595Y-79829819D01*
X25218595Y-79829819D02*
X25218595Y-78829819D01*
X25218595Y-78829819D02*
X25694785Y-78829819D01*
X26123357Y-79829819D02*
X26123357Y-78829819D01*
X26123357Y-78829819D02*
X26361452Y-78829819D01*
X26361452Y-78829819D02*
X26504309Y-78877438D01*
X26504309Y-78877438D02*
X26599547Y-78972676D01*
X26599547Y-78972676D02*
X26647166Y-79067914D01*
X26647166Y-79067914D02*
X26694785Y-79258390D01*
X26694785Y-79258390D02*
X26694785Y-79401247D01*
X26694785Y-79401247D02*
X26647166Y-79591723D01*
X26647166Y-79591723D02*
X26599547Y-79686961D01*
X26599547Y-79686961D02*
X26504309Y-79782200D01*
X26504309Y-79782200D02*
X26361452Y-79829819D01*
X26361452Y-79829819D02*
X26123357Y-79829819D01*
X27647166Y-79829819D02*
X27075738Y-79829819D01*
X27361452Y-79829819D02*
X27361452Y-78829819D01*
X27361452Y-78829819D02*
X27266214Y-78972676D01*
X27266214Y-78972676D02*
X27170976Y-79067914D01*
X27170976Y-79067914D02*
X27075738Y-79115533D01*
X27980500Y-78829819D02*
X28599547Y-78829819D01*
X28599547Y-78829819D02*
X28266214Y-79210771D01*
X28266214Y-79210771D02*
X28409071Y-79210771D01*
X28409071Y-79210771D02*
X28504309Y-79258390D01*
X28504309Y-79258390D02*
X28551928Y-79306009D01*
X28551928Y-79306009D02*
X28599547Y-79401247D01*
X28599547Y-79401247D02*
X28599547Y-79639342D01*
X28599547Y-79639342D02*
X28551928Y-79734580D01*
X28551928Y-79734580D02*
X28504309Y-79782200D01*
X28504309Y-79782200D02*
X28409071Y-79829819D01*
X28409071Y-79829819D02*
X28123357Y-79829819D01*
X28123357Y-79829819D02*
X28028119Y-79782200D01*
X28028119Y-79782200D02*
X27980500Y-79734580D01*
%TO.C,LED23*%
X81605261Y-91479819D02*
X81129071Y-91479819D01*
X81129071Y-91479819D02*
X81129071Y-90479819D01*
X81938595Y-90956009D02*
X82271928Y-90956009D01*
X82414785Y-91479819D02*
X81938595Y-91479819D01*
X81938595Y-91479819D02*
X81938595Y-90479819D01*
X81938595Y-90479819D02*
X82414785Y-90479819D01*
X82843357Y-91479819D02*
X82843357Y-90479819D01*
X82843357Y-90479819D02*
X83081452Y-90479819D01*
X83081452Y-90479819D02*
X83224309Y-90527438D01*
X83224309Y-90527438D02*
X83319547Y-90622676D01*
X83319547Y-90622676D02*
X83367166Y-90717914D01*
X83367166Y-90717914D02*
X83414785Y-90908390D01*
X83414785Y-90908390D02*
X83414785Y-91051247D01*
X83414785Y-91051247D02*
X83367166Y-91241723D01*
X83367166Y-91241723D02*
X83319547Y-91336961D01*
X83319547Y-91336961D02*
X83224309Y-91432200D01*
X83224309Y-91432200D02*
X83081452Y-91479819D01*
X83081452Y-91479819D02*
X82843357Y-91479819D01*
X83795738Y-90575057D02*
X83843357Y-90527438D01*
X83843357Y-90527438D02*
X83938595Y-90479819D01*
X83938595Y-90479819D02*
X84176690Y-90479819D01*
X84176690Y-90479819D02*
X84271928Y-90527438D01*
X84271928Y-90527438D02*
X84319547Y-90575057D01*
X84319547Y-90575057D02*
X84367166Y-90670295D01*
X84367166Y-90670295D02*
X84367166Y-90765533D01*
X84367166Y-90765533D02*
X84319547Y-90908390D01*
X84319547Y-90908390D02*
X83748119Y-91479819D01*
X83748119Y-91479819D02*
X84367166Y-91479819D01*
X84700500Y-90479819D02*
X85319547Y-90479819D01*
X85319547Y-90479819D02*
X84986214Y-90860771D01*
X84986214Y-90860771D02*
X85129071Y-90860771D01*
X85129071Y-90860771D02*
X85224309Y-90908390D01*
X85224309Y-90908390D02*
X85271928Y-90956009D01*
X85271928Y-90956009D02*
X85319547Y-91051247D01*
X85319547Y-91051247D02*
X85319547Y-91289342D01*
X85319547Y-91289342D02*
X85271928Y-91384580D01*
X85271928Y-91384580D02*
X85224309Y-91432200D01*
X85224309Y-91432200D02*
X85129071Y-91479819D01*
X85129071Y-91479819D02*
X84843357Y-91479819D01*
X84843357Y-91479819D02*
X84748119Y-91432200D01*
X84748119Y-91432200D02*
X84700500Y-91384580D01*
%TO.C,LED10*%
X81605261Y-55579819D02*
X81129071Y-55579819D01*
X81129071Y-55579819D02*
X81129071Y-54579819D01*
X81938595Y-55056009D02*
X82271928Y-55056009D01*
X82414785Y-55579819D02*
X81938595Y-55579819D01*
X81938595Y-55579819D02*
X81938595Y-54579819D01*
X81938595Y-54579819D02*
X82414785Y-54579819D01*
X82843357Y-55579819D02*
X82843357Y-54579819D01*
X82843357Y-54579819D02*
X83081452Y-54579819D01*
X83081452Y-54579819D02*
X83224309Y-54627438D01*
X83224309Y-54627438D02*
X83319547Y-54722676D01*
X83319547Y-54722676D02*
X83367166Y-54817914D01*
X83367166Y-54817914D02*
X83414785Y-55008390D01*
X83414785Y-55008390D02*
X83414785Y-55151247D01*
X83414785Y-55151247D02*
X83367166Y-55341723D01*
X83367166Y-55341723D02*
X83319547Y-55436961D01*
X83319547Y-55436961D02*
X83224309Y-55532200D01*
X83224309Y-55532200D02*
X83081452Y-55579819D01*
X83081452Y-55579819D02*
X82843357Y-55579819D01*
X84367166Y-55579819D02*
X83795738Y-55579819D01*
X84081452Y-55579819D02*
X84081452Y-54579819D01*
X84081452Y-54579819D02*
X83986214Y-54722676D01*
X83986214Y-54722676D02*
X83890976Y-54817914D01*
X83890976Y-54817914D02*
X83795738Y-54865533D01*
X84986214Y-54579819D02*
X85081452Y-54579819D01*
X85081452Y-54579819D02*
X85176690Y-54627438D01*
X85176690Y-54627438D02*
X85224309Y-54675057D01*
X85224309Y-54675057D02*
X85271928Y-54770295D01*
X85271928Y-54770295D02*
X85319547Y-54960771D01*
X85319547Y-54960771D02*
X85319547Y-55198866D01*
X85319547Y-55198866D02*
X85271928Y-55389342D01*
X85271928Y-55389342D02*
X85224309Y-55484580D01*
X85224309Y-55484580D02*
X85176690Y-55532200D01*
X85176690Y-55532200D02*
X85081452Y-55579819D01*
X85081452Y-55579819D02*
X84986214Y-55579819D01*
X84986214Y-55579819D02*
X84890976Y-55532200D01*
X84890976Y-55532200D02*
X84843357Y-55484580D01*
X84843357Y-55484580D02*
X84795738Y-55389342D01*
X84795738Y-55389342D02*
X84748119Y-55198866D01*
X84748119Y-55198866D02*
X84748119Y-54960771D01*
X84748119Y-54960771D02*
X84795738Y-54770295D01*
X84795738Y-54770295D02*
X84843357Y-54675057D01*
X84843357Y-54675057D02*
X84890976Y-54627438D01*
X84890976Y-54627438D02*
X84986214Y-54579819D01*
%TO.C,LED17*%
X100605261Y-76579819D02*
X100129071Y-76579819D01*
X100129071Y-76579819D02*
X100129071Y-75579819D01*
X100938595Y-76056009D02*
X101271928Y-76056009D01*
X101414785Y-76579819D02*
X100938595Y-76579819D01*
X100938595Y-76579819D02*
X100938595Y-75579819D01*
X100938595Y-75579819D02*
X101414785Y-75579819D01*
X101843357Y-76579819D02*
X101843357Y-75579819D01*
X101843357Y-75579819D02*
X102081452Y-75579819D01*
X102081452Y-75579819D02*
X102224309Y-75627438D01*
X102224309Y-75627438D02*
X102319547Y-75722676D01*
X102319547Y-75722676D02*
X102367166Y-75817914D01*
X102367166Y-75817914D02*
X102414785Y-76008390D01*
X102414785Y-76008390D02*
X102414785Y-76151247D01*
X102414785Y-76151247D02*
X102367166Y-76341723D01*
X102367166Y-76341723D02*
X102319547Y-76436961D01*
X102319547Y-76436961D02*
X102224309Y-76532200D01*
X102224309Y-76532200D02*
X102081452Y-76579819D01*
X102081452Y-76579819D02*
X101843357Y-76579819D01*
X103367166Y-76579819D02*
X102795738Y-76579819D01*
X103081452Y-76579819D02*
X103081452Y-75579819D01*
X103081452Y-75579819D02*
X102986214Y-75722676D01*
X102986214Y-75722676D02*
X102890976Y-75817914D01*
X102890976Y-75817914D02*
X102795738Y-75865533D01*
X103700500Y-75579819D02*
X104367166Y-75579819D01*
X104367166Y-75579819D02*
X103938595Y-76579819D01*
%TO.C,LED20*%
X24885261Y-97829819D02*
X24409071Y-97829819D01*
X24409071Y-97829819D02*
X24409071Y-96829819D01*
X25218595Y-97306009D02*
X25551928Y-97306009D01*
X25694785Y-97829819D02*
X25218595Y-97829819D01*
X25218595Y-97829819D02*
X25218595Y-96829819D01*
X25218595Y-96829819D02*
X25694785Y-96829819D01*
X26123357Y-97829819D02*
X26123357Y-96829819D01*
X26123357Y-96829819D02*
X26361452Y-96829819D01*
X26361452Y-96829819D02*
X26504309Y-96877438D01*
X26504309Y-96877438D02*
X26599547Y-96972676D01*
X26599547Y-96972676D02*
X26647166Y-97067914D01*
X26647166Y-97067914D02*
X26694785Y-97258390D01*
X26694785Y-97258390D02*
X26694785Y-97401247D01*
X26694785Y-97401247D02*
X26647166Y-97591723D01*
X26647166Y-97591723D02*
X26599547Y-97686961D01*
X26599547Y-97686961D02*
X26504309Y-97782200D01*
X26504309Y-97782200D02*
X26361452Y-97829819D01*
X26361452Y-97829819D02*
X26123357Y-97829819D01*
X27075738Y-96925057D02*
X27123357Y-96877438D01*
X27123357Y-96877438D02*
X27218595Y-96829819D01*
X27218595Y-96829819D02*
X27456690Y-96829819D01*
X27456690Y-96829819D02*
X27551928Y-96877438D01*
X27551928Y-96877438D02*
X27599547Y-96925057D01*
X27599547Y-96925057D02*
X27647166Y-97020295D01*
X27647166Y-97020295D02*
X27647166Y-97115533D01*
X27647166Y-97115533D02*
X27599547Y-97258390D01*
X27599547Y-97258390D02*
X27028119Y-97829819D01*
X27028119Y-97829819D02*
X27647166Y-97829819D01*
X28266214Y-96829819D02*
X28361452Y-96829819D01*
X28361452Y-96829819D02*
X28456690Y-96877438D01*
X28456690Y-96877438D02*
X28504309Y-96925057D01*
X28504309Y-96925057D02*
X28551928Y-97020295D01*
X28551928Y-97020295D02*
X28599547Y-97210771D01*
X28599547Y-97210771D02*
X28599547Y-97448866D01*
X28599547Y-97448866D02*
X28551928Y-97639342D01*
X28551928Y-97639342D02*
X28504309Y-97734580D01*
X28504309Y-97734580D02*
X28456690Y-97782200D01*
X28456690Y-97782200D02*
X28361452Y-97829819D01*
X28361452Y-97829819D02*
X28266214Y-97829819D01*
X28266214Y-97829819D02*
X28170976Y-97782200D01*
X28170976Y-97782200D02*
X28123357Y-97734580D01*
X28123357Y-97734580D02*
X28075738Y-97639342D01*
X28075738Y-97639342D02*
X28028119Y-97448866D01*
X28028119Y-97448866D02*
X28028119Y-97210771D01*
X28028119Y-97210771D02*
X28075738Y-97020295D01*
X28075738Y-97020295D02*
X28123357Y-96925057D01*
X28123357Y-96925057D02*
X28170976Y-96877438D01*
X28170976Y-96877438D02*
X28266214Y-96829819D01*
%TO.C,LED18*%
X119605261Y-79579819D02*
X119129071Y-79579819D01*
X119129071Y-79579819D02*
X119129071Y-78579819D01*
X119938595Y-79056009D02*
X120271928Y-79056009D01*
X120414785Y-79579819D02*
X119938595Y-79579819D01*
X119938595Y-79579819D02*
X119938595Y-78579819D01*
X119938595Y-78579819D02*
X120414785Y-78579819D01*
X120843357Y-79579819D02*
X120843357Y-78579819D01*
X120843357Y-78579819D02*
X121081452Y-78579819D01*
X121081452Y-78579819D02*
X121224309Y-78627438D01*
X121224309Y-78627438D02*
X121319547Y-78722676D01*
X121319547Y-78722676D02*
X121367166Y-78817914D01*
X121367166Y-78817914D02*
X121414785Y-79008390D01*
X121414785Y-79008390D02*
X121414785Y-79151247D01*
X121414785Y-79151247D02*
X121367166Y-79341723D01*
X121367166Y-79341723D02*
X121319547Y-79436961D01*
X121319547Y-79436961D02*
X121224309Y-79532200D01*
X121224309Y-79532200D02*
X121081452Y-79579819D01*
X121081452Y-79579819D02*
X120843357Y-79579819D01*
X122367166Y-79579819D02*
X121795738Y-79579819D01*
X122081452Y-79579819D02*
X122081452Y-78579819D01*
X122081452Y-78579819D02*
X121986214Y-78722676D01*
X121986214Y-78722676D02*
X121890976Y-78817914D01*
X121890976Y-78817914D02*
X121795738Y-78865533D01*
X122938595Y-79008390D02*
X122843357Y-78960771D01*
X122843357Y-78960771D02*
X122795738Y-78913152D01*
X122795738Y-78913152D02*
X122748119Y-78817914D01*
X122748119Y-78817914D02*
X122748119Y-78770295D01*
X122748119Y-78770295D02*
X122795738Y-78675057D01*
X122795738Y-78675057D02*
X122843357Y-78627438D01*
X122843357Y-78627438D02*
X122938595Y-78579819D01*
X122938595Y-78579819D02*
X123129071Y-78579819D01*
X123129071Y-78579819D02*
X123224309Y-78627438D01*
X123224309Y-78627438D02*
X123271928Y-78675057D01*
X123271928Y-78675057D02*
X123319547Y-78770295D01*
X123319547Y-78770295D02*
X123319547Y-78817914D01*
X123319547Y-78817914D02*
X123271928Y-78913152D01*
X123271928Y-78913152D02*
X123224309Y-78960771D01*
X123224309Y-78960771D02*
X123129071Y-79008390D01*
X123129071Y-79008390D02*
X122938595Y-79008390D01*
X122938595Y-79008390D02*
X122843357Y-79056009D01*
X122843357Y-79056009D02*
X122795738Y-79103628D01*
X122795738Y-79103628D02*
X122748119Y-79198866D01*
X122748119Y-79198866D02*
X122748119Y-79389342D01*
X122748119Y-79389342D02*
X122795738Y-79484580D01*
X122795738Y-79484580D02*
X122843357Y-79532200D01*
X122843357Y-79532200D02*
X122938595Y-79579819D01*
X122938595Y-79579819D02*
X123129071Y-79579819D01*
X123129071Y-79579819D02*
X123224309Y-79532200D01*
X123224309Y-79532200D02*
X123271928Y-79484580D01*
X123271928Y-79484580D02*
X123319547Y-79389342D01*
X123319547Y-79389342D02*
X123319547Y-79198866D01*
X123319547Y-79198866D02*
X123271928Y-79103628D01*
X123271928Y-79103628D02*
X123224309Y-79056009D01*
X123224309Y-79056009D02*
X123129071Y-79008390D01*
%TO.C,LED8*%
X44081452Y-58579819D02*
X43605262Y-58579819D01*
X43605262Y-58579819D02*
X43605262Y-57579819D01*
X44414786Y-58056009D02*
X44748119Y-58056009D01*
X44890976Y-58579819D02*
X44414786Y-58579819D01*
X44414786Y-58579819D02*
X44414786Y-57579819D01*
X44414786Y-57579819D02*
X44890976Y-57579819D01*
X45319548Y-58579819D02*
X45319548Y-57579819D01*
X45319548Y-57579819D02*
X45557643Y-57579819D01*
X45557643Y-57579819D02*
X45700500Y-57627438D01*
X45700500Y-57627438D02*
X45795738Y-57722676D01*
X45795738Y-57722676D02*
X45843357Y-57817914D01*
X45843357Y-57817914D02*
X45890976Y-58008390D01*
X45890976Y-58008390D02*
X45890976Y-58151247D01*
X45890976Y-58151247D02*
X45843357Y-58341723D01*
X45843357Y-58341723D02*
X45795738Y-58436961D01*
X45795738Y-58436961D02*
X45700500Y-58532200D01*
X45700500Y-58532200D02*
X45557643Y-58579819D01*
X45557643Y-58579819D02*
X45319548Y-58579819D01*
X46462405Y-58008390D02*
X46367167Y-57960771D01*
X46367167Y-57960771D02*
X46319548Y-57913152D01*
X46319548Y-57913152D02*
X46271929Y-57817914D01*
X46271929Y-57817914D02*
X46271929Y-57770295D01*
X46271929Y-57770295D02*
X46319548Y-57675057D01*
X46319548Y-57675057D02*
X46367167Y-57627438D01*
X46367167Y-57627438D02*
X46462405Y-57579819D01*
X46462405Y-57579819D02*
X46652881Y-57579819D01*
X46652881Y-57579819D02*
X46748119Y-57627438D01*
X46748119Y-57627438D02*
X46795738Y-57675057D01*
X46795738Y-57675057D02*
X46843357Y-57770295D01*
X46843357Y-57770295D02*
X46843357Y-57817914D01*
X46843357Y-57817914D02*
X46795738Y-57913152D01*
X46795738Y-57913152D02*
X46748119Y-57960771D01*
X46748119Y-57960771D02*
X46652881Y-58008390D01*
X46652881Y-58008390D02*
X46462405Y-58008390D01*
X46462405Y-58008390D02*
X46367167Y-58056009D01*
X46367167Y-58056009D02*
X46319548Y-58103628D01*
X46319548Y-58103628D02*
X46271929Y-58198866D01*
X46271929Y-58198866D02*
X46271929Y-58389342D01*
X46271929Y-58389342D02*
X46319548Y-58484580D01*
X46319548Y-58484580D02*
X46367167Y-58532200D01*
X46367167Y-58532200D02*
X46462405Y-58579819D01*
X46462405Y-58579819D02*
X46652881Y-58579819D01*
X46652881Y-58579819D02*
X46748119Y-58532200D01*
X46748119Y-58532200D02*
X46795738Y-58484580D01*
X46795738Y-58484580D02*
X46843357Y-58389342D01*
X46843357Y-58389342D02*
X46843357Y-58198866D01*
X46843357Y-58198866D02*
X46795738Y-58103628D01*
X46795738Y-58103628D02*
X46748119Y-58056009D01*
X46748119Y-58056009D02*
X46652881Y-58008390D01*
%TO.C,LED5*%
X101081452Y-40579819D02*
X100605262Y-40579819D01*
X100605262Y-40579819D02*
X100605262Y-39579819D01*
X101414786Y-40056009D02*
X101748119Y-40056009D01*
X101890976Y-40579819D02*
X101414786Y-40579819D01*
X101414786Y-40579819D02*
X101414786Y-39579819D01*
X101414786Y-39579819D02*
X101890976Y-39579819D01*
X102319548Y-40579819D02*
X102319548Y-39579819D01*
X102319548Y-39579819D02*
X102557643Y-39579819D01*
X102557643Y-39579819D02*
X102700500Y-39627438D01*
X102700500Y-39627438D02*
X102795738Y-39722676D01*
X102795738Y-39722676D02*
X102843357Y-39817914D01*
X102843357Y-39817914D02*
X102890976Y-40008390D01*
X102890976Y-40008390D02*
X102890976Y-40151247D01*
X102890976Y-40151247D02*
X102843357Y-40341723D01*
X102843357Y-40341723D02*
X102795738Y-40436961D01*
X102795738Y-40436961D02*
X102700500Y-40532200D01*
X102700500Y-40532200D02*
X102557643Y-40579819D01*
X102557643Y-40579819D02*
X102319548Y-40579819D01*
X103795738Y-39579819D02*
X103319548Y-39579819D01*
X103319548Y-39579819D02*
X103271929Y-40056009D01*
X103271929Y-40056009D02*
X103319548Y-40008390D01*
X103319548Y-40008390D02*
X103414786Y-39960771D01*
X103414786Y-39960771D02*
X103652881Y-39960771D01*
X103652881Y-39960771D02*
X103748119Y-40008390D01*
X103748119Y-40008390D02*
X103795738Y-40056009D01*
X103795738Y-40056009D02*
X103843357Y-40151247D01*
X103843357Y-40151247D02*
X103843357Y-40389342D01*
X103843357Y-40389342D02*
X103795738Y-40484580D01*
X103795738Y-40484580D02*
X103748119Y-40532200D01*
X103748119Y-40532200D02*
X103652881Y-40579819D01*
X103652881Y-40579819D02*
X103414786Y-40579819D01*
X103414786Y-40579819D02*
X103319548Y-40532200D01*
X103319548Y-40532200D02*
X103271929Y-40484580D01*
%TO.C,NICE_NANO1*%
X-2505333Y-39104819D02*
X-2505333Y-38104819D01*
X-2505333Y-38104819D02*
X-1933905Y-39104819D01*
X-1933905Y-39104819D02*
X-1933905Y-38104819D01*
X-1457714Y-39104819D02*
X-1457714Y-38104819D01*
X-410096Y-39009580D02*
X-457715Y-39057200D01*
X-457715Y-39057200D02*
X-600572Y-39104819D01*
X-600572Y-39104819D02*
X-695810Y-39104819D01*
X-695810Y-39104819D02*
X-838667Y-39057200D01*
X-838667Y-39057200D02*
X-933905Y-38961961D01*
X-933905Y-38961961D02*
X-981524Y-38866723D01*
X-981524Y-38866723D02*
X-1029143Y-38676247D01*
X-1029143Y-38676247D02*
X-1029143Y-38533390D01*
X-1029143Y-38533390D02*
X-981524Y-38342914D01*
X-981524Y-38342914D02*
X-933905Y-38247676D01*
X-933905Y-38247676D02*
X-838667Y-38152438D01*
X-838667Y-38152438D02*
X-695810Y-38104819D01*
X-695810Y-38104819D02*
X-600572Y-38104819D01*
X-600572Y-38104819D02*
X-457715Y-38152438D01*
X-457715Y-38152438D02*
X-410096Y-38200057D01*
X18476Y-38581009D02*
X351809Y-38581009D01*
X494666Y-39104819D02*
X18476Y-39104819D01*
X18476Y-39104819D02*
X18476Y-38104819D01*
X18476Y-38104819D02*
X494666Y-38104819D01*
X685143Y-39200057D02*
X1447047Y-39200057D01*
X1685143Y-39104819D02*
X1685143Y-38104819D01*
X1685143Y-38104819D02*
X2256571Y-39104819D01*
X2256571Y-39104819D02*
X2256571Y-38104819D01*
X2685143Y-38819104D02*
X3161333Y-38819104D01*
X2589905Y-39104819D02*
X2923238Y-38104819D01*
X2923238Y-38104819D02*
X3256571Y-39104819D01*
X3589905Y-39104819D02*
X3589905Y-38104819D01*
X3589905Y-38104819D02*
X4161333Y-39104819D01*
X4161333Y-39104819D02*
X4161333Y-38104819D01*
X4828000Y-38104819D02*
X5018476Y-38104819D01*
X5018476Y-38104819D02*
X5113714Y-38152438D01*
X5113714Y-38152438D02*
X5208952Y-38247676D01*
X5208952Y-38247676D02*
X5256571Y-38438152D01*
X5256571Y-38438152D02*
X5256571Y-38771485D01*
X5256571Y-38771485D02*
X5208952Y-38961961D01*
X5208952Y-38961961D02*
X5113714Y-39057200D01*
X5113714Y-39057200D02*
X5018476Y-39104819D01*
X5018476Y-39104819D02*
X4828000Y-39104819D01*
X4828000Y-39104819D02*
X4732762Y-39057200D01*
X4732762Y-39057200D02*
X4637524Y-38961961D01*
X4637524Y-38961961D02*
X4589905Y-38771485D01*
X4589905Y-38771485D02*
X4589905Y-38438152D01*
X4589905Y-38438152D02*
X4637524Y-38247676D01*
X4637524Y-38247676D02*
X4732762Y-38152438D01*
X4732762Y-38152438D02*
X4828000Y-38104819D01*
X6208952Y-39104819D02*
X5637524Y-39104819D01*
X5923238Y-39104819D02*
X5923238Y-38104819D01*
X5923238Y-38104819D02*
X5828000Y-38247676D01*
X5828000Y-38247676D02*
X5732762Y-38342914D01*
X5732762Y-38342914D02*
X5637524Y-38390533D01*
%TO.C,LED21*%
X43605261Y-94579819D02*
X43129071Y-94579819D01*
X43129071Y-94579819D02*
X43129071Y-93579819D01*
X43938595Y-94056009D02*
X44271928Y-94056009D01*
X44414785Y-94579819D02*
X43938595Y-94579819D01*
X43938595Y-94579819D02*
X43938595Y-93579819D01*
X43938595Y-93579819D02*
X44414785Y-93579819D01*
X44843357Y-94579819D02*
X44843357Y-93579819D01*
X44843357Y-93579819D02*
X45081452Y-93579819D01*
X45081452Y-93579819D02*
X45224309Y-93627438D01*
X45224309Y-93627438D02*
X45319547Y-93722676D01*
X45319547Y-93722676D02*
X45367166Y-93817914D01*
X45367166Y-93817914D02*
X45414785Y-94008390D01*
X45414785Y-94008390D02*
X45414785Y-94151247D01*
X45414785Y-94151247D02*
X45367166Y-94341723D01*
X45367166Y-94341723D02*
X45319547Y-94436961D01*
X45319547Y-94436961D02*
X45224309Y-94532200D01*
X45224309Y-94532200D02*
X45081452Y-94579819D01*
X45081452Y-94579819D02*
X44843357Y-94579819D01*
X45795738Y-93675057D02*
X45843357Y-93627438D01*
X45843357Y-93627438D02*
X45938595Y-93579819D01*
X45938595Y-93579819D02*
X46176690Y-93579819D01*
X46176690Y-93579819D02*
X46271928Y-93627438D01*
X46271928Y-93627438D02*
X46319547Y-93675057D01*
X46319547Y-93675057D02*
X46367166Y-93770295D01*
X46367166Y-93770295D02*
X46367166Y-93865533D01*
X46367166Y-93865533D02*
X46319547Y-94008390D01*
X46319547Y-94008390D02*
X45748119Y-94579819D01*
X45748119Y-94579819D02*
X46367166Y-94579819D01*
X47319547Y-94579819D02*
X46748119Y-94579819D01*
X47033833Y-94579819D02*
X47033833Y-93579819D01*
X47033833Y-93579819D02*
X46938595Y-93722676D01*
X46938595Y-93722676D02*
X46843357Y-93817914D01*
X46843357Y-93817914D02*
X46748119Y-93865533D01*
%TO.C,LED11*%
X100605261Y-58579819D02*
X100129071Y-58579819D01*
X100129071Y-58579819D02*
X100129071Y-57579819D01*
X100938595Y-58056009D02*
X101271928Y-58056009D01*
X101414785Y-58579819D02*
X100938595Y-58579819D01*
X100938595Y-58579819D02*
X100938595Y-57579819D01*
X100938595Y-57579819D02*
X101414785Y-57579819D01*
X101843357Y-58579819D02*
X101843357Y-57579819D01*
X101843357Y-57579819D02*
X102081452Y-57579819D01*
X102081452Y-57579819D02*
X102224309Y-57627438D01*
X102224309Y-57627438D02*
X102319547Y-57722676D01*
X102319547Y-57722676D02*
X102367166Y-57817914D01*
X102367166Y-57817914D02*
X102414785Y-58008390D01*
X102414785Y-58008390D02*
X102414785Y-58151247D01*
X102414785Y-58151247D02*
X102367166Y-58341723D01*
X102367166Y-58341723D02*
X102319547Y-58436961D01*
X102319547Y-58436961D02*
X102224309Y-58532200D01*
X102224309Y-58532200D02*
X102081452Y-58579819D01*
X102081452Y-58579819D02*
X101843357Y-58579819D01*
X103367166Y-58579819D02*
X102795738Y-58579819D01*
X103081452Y-58579819D02*
X103081452Y-57579819D01*
X103081452Y-57579819D02*
X102986214Y-57722676D01*
X102986214Y-57722676D02*
X102890976Y-57817914D01*
X102890976Y-57817914D02*
X102795738Y-57865533D01*
X104319547Y-58579819D02*
X103748119Y-58579819D01*
X104033833Y-58579819D02*
X104033833Y-57579819D01*
X104033833Y-57579819D02*
X103938595Y-57722676D01*
X103938595Y-57722676D02*
X103843357Y-57817914D01*
X103843357Y-57817914D02*
X103748119Y-57865533D01*
%TO.C,LED7*%
X25361452Y-61874819D02*
X24885262Y-61874819D01*
X24885262Y-61874819D02*
X24885262Y-60874819D01*
X25694786Y-61351009D02*
X26028119Y-61351009D01*
X26170976Y-61874819D02*
X25694786Y-61874819D01*
X25694786Y-61874819D02*
X25694786Y-60874819D01*
X25694786Y-60874819D02*
X26170976Y-60874819D01*
X26599548Y-61874819D02*
X26599548Y-60874819D01*
X26599548Y-60874819D02*
X26837643Y-60874819D01*
X26837643Y-60874819D02*
X26980500Y-60922438D01*
X26980500Y-60922438D02*
X27075738Y-61017676D01*
X27075738Y-61017676D02*
X27123357Y-61112914D01*
X27123357Y-61112914D02*
X27170976Y-61303390D01*
X27170976Y-61303390D02*
X27170976Y-61446247D01*
X27170976Y-61446247D02*
X27123357Y-61636723D01*
X27123357Y-61636723D02*
X27075738Y-61731961D01*
X27075738Y-61731961D02*
X26980500Y-61827200D01*
X26980500Y-61827200D02*
X26837643Y-61874819D01*
X26837643Y-61874819D02*
X26599548Y-61874819D01*
X27504310Y-60874819D02*
X28170976Y-60874819D01*
X28170976Y-60874819D02*
X27742405Y-61874819D01*
%TO.C,LED9*%
X63081452Y-55579819D02*
X62605262Y-55579819D01*
X62605262Y-55579819D02*
X62605262Y-54579819D01*
X63414786Y-55056009D02*
X63748119Y-55056009D01*
X63890976Y-55579819D02*
X63414786Y-55579819D01*
X63414786Y-55579819D02*
X63414786Y-54579819D01*
X63414786Y-54579819D02*
X63890976Y-54579819D01*
X64319548Y-55579819D02*
X64319548Y-54579819D01*
X64319548Y-54579819D02*
X64557643Y-54579819D01*
X64557643Y-54579819D02*
X64700500Y-54627438D01*
X64700500Y-54627438D02*
X64795738Y-54722676D01*
X64795738Y-54722676D02*
X64843357Y-54817914D01*
X64843357Y-54817914D02*
X64890976Y-55008390D01*
X64890976Y-55008390D02*
X64890976Y-55151247D01*
X64890976Y-55151247D02*
X64843357Y-55341723D01*
X64843357Y-55341723D02*
X64795738Y-55436961D01*
X64795738Y-55436961D02*
X64700500Y-55532200D01*
X64700500Y-55532200D02*
X64557643Y-55579819D01*
X64557643Y-55579819D02*
X64319548Y-55579819D01*
X65367167Y-55579819D02*
X65557643Y-55579819D01*
X65557643Y-55579819D02*
X65652881Y-55532200D01*
X65652881Y-55532200D02*
X65700500Y-55484580D01*
X65700500Y-55484580D02*
X65795738Y-55341723D01*
X65795738Y-55341723D02*
X65843357Y-55151247D01*
X65843357Y-55151247D02*
X65843357Y-54770295D01*
X65843357Y-54770295D02*
X65795738Y-54675057D01*
X65795738Y-54675057D02*
X65748119Y-54627438D01*
X65748119Y-54627438D02*
X65652881Y-54579819D01*
X65652881Y-54579819D02*
X65462405Y-54579819D01*
X65462405Y-54579819D02*
X65367167Y-54627438D01*
X65367167Y-54627438D02*
X65319548Y-54675057D01*
X65319548Y-54675057D02*
X65271929Y-54770295D01*
X65271929Y-54770295D02*
X65271929Y-55008390D01*
X65271929Y-55008390D02*
X65319548Y-55103628D01*
X65319548Y-55103628D02*
X65367167Y-55151247D01*
X65367167Y-55151247D02*
X65462405Y-55198866D01*
X65462405Y-55198866D02*
X65652881Y-55198866D01*
X65652881Y-55198866D02*
X65748119Y-55151247D01*
X65748119Y-55151247D02*
X65795738Y-55103628D01*
X65795738Y-55103628D02*
X65843357Y-55008390D01*
%TO.C,LED14*%
X43605261Y-76579819D02*
X43129071Y-76579819D01*
X43129071Y-76579819D02*
X43129071Y-75579819D01*
X43938595Y-76056009D02*
X44271928Y-76056009D01*
X44414785Y-76579819D02*
X43938595Y-76579819D01*
X43938595Y-76579819D02*
X43938595Y-75579819D01*
X43938595Y-75579819D02*
X44414785Y-75579819D01*
X44843357Y-76579819D02*
X44843357Y-75579819D01*
X44843357Y-75579819D02*
X45081452Y-75579819D01*
X45081452Y-75579819D02*
X45224309Y-75627438D01*
X45224309Y-75627438D02*
X45319547Y-75722676D01*
X45319547Y-75722676D02*
X45367166Y-75817914D01*
X45367166Y-75817914D02*
X45414785Y-76008390D01*
X45414785Y-76008390D02*
X45414785Y-76151247D01*
X45414785Y-76151247D02*
X45367166Y-76341723D01*
X45367166Y-76341723D02*
X45319547Y-76436961D01*
X45319547Y-76436961D02*
X45224309Y-76532200D01*
X45224309Y-76532200D02*
X45081452Y-76579819D01*
X45081452Y-76579819D02*
X44843357Y-76579819D01*
X46367166Y-76579819D02*
X45795738Y-76579819D01*
X46081452Y-76579819D02*
X46081452Y-75579819D01*
X46081452Y-75579819D02*
X45986214Y-75722676D01*
X45986214Y-75722676D02*
X45890976Y-75817914D01*
X45890976Y-75817914D02*
X45795738Y-75865533D01*
X47224309Y-75913152D02*
X47224309Y-76579819D01*
X46986214Y-75532200D02*
X46748119Y-76246485D01*
X46748119Y-76246485D02*
X47367166Y-76246485D01*
%TO.C,LED2*%
X44081452Y-40579819D02*
X43605262Y-40579819D01*
X43605262Y-40579819D02*
X43605262Y-39579819D01*
X44414786Y-40056009D02*
X44748119Y-40056009D01*
X44890976Y-40579819D02*
X44414786Y-40579819D01*
X44414786Y-40579819D02*
X44414786Y-39579819D01*
X44414786Y-39579819D02*
X44890976Y-39579819D01*
X45319548Y-40579819D02*
X45319548Y-39579819D01*
X45319548Y-39579819D02*
X45557643Y-39579819D01*
X45557643Y-39579819D02*
X45700500Y-39627438D01*
X45700500Y-39627438D02*
X45795738Y-39722676D01*
X45795738Y-39722676D02*
X45843357Y-39817914D01*
X45843357Y-39817914D02*
X45890976Y-40008390D01*
X45890976Y-40008390D02*
X45890976Y-40151247D01*
X45890976Y-40151247D02*
X45843357Y-40341723D01*
X45843357Y-40341723D02*
X45795738Y-40436961D01*
X45795738Y-40436961D02*
X45700500Y-40532200D01*
X45700500Y-40532200D02*
X45557643Y-40579819D01*
X45557643Y-40579819D02*
X45319548Y-40579819D01*
X46271929Y-39675057D02*
X46319548Y-39627438D01*
X46319548Y-39627438D02*
X46414786Y-39579819D01*
X46414786Y-39579819D02*
X46652881Y-39579819D01*
X46652881Y-39579819D02*
X46748119Y-39627438D01*
X46748119Y-39627438D02*
X46795738Y-39675057D01*
X46795738Y-39675057D02*
X46843357Y-39770295D01*
X46843357Y-39770295D02*
X46843357Y-39865533D01*
X46843357Y-39865533D02*
X46795738Y-40008390D01*
X46795738Y-40008390D02*
X46224310Y-40579819D01*
X46224310Y-40579819D02*
X46843357Y-40579819D01*
%TO.C,LED16*%
X81605261Y-73579819D02*
X81129071Y-73579819D01*
X81129071Y-73579819D02*
X81129071Y-72579819D01*
X81938595Y-73056009D02*
X82271928Y-73056009D01*
X82414785Y-73579819D02*
X81938595Y-73579819D01*
X81938595Y-73579819D02*
X81938595Y-72579819D01*
X81938595Y-72579819D02*
X82414785Y-72579819D01*
X82843357Y-73579819D02*
X82843357Y-72579819D01*
X82843357Y-72579819D02*
X83081452Y-72579819D01*
X83081452Y-72579819D02*
X83224309Y-72627438D01*
X83224309Y-72627438D02*
X83319547Y-72722676D01*
X83319547Y-72722676D02*
X83367166Y-72817914D01*
X83367166Y-72817914D02*
X83414785Y-73008390D01*
X83414785Y-73008390D02*
X83414785Y-73151247D01*
X83414785Y-73151247D02*
X83367166Y-73341723D01*
X83367166Y-73341723D02*
X83319547Y-73436961D01*
X83319547Y-73436961D02*
X83224309Y-73532200D01*
X83224309Y-73532200D02*
X83081452Y-73579819D01*
X83081452Y-73579819D02*
X82843357Y-73579819D01*
X84367166Y-73579819D02*
X83795738Y-73579819D01*
X84081452Y-73579819D02*
X84081452Y-72579819D01*
X84081452Y-72579819D02*
X83986214Y-72722676D01*
X83986214Y-72722676D02*
X83890976Y-72817914D01*
X83890976Y-72817914D02*
X83795738Y-72865533D01*
X85224309Y-72579819D02*
X85033833Y-72579819D01*
X85033833Y-72579819D02*
X84938595Y-72627438D01*
X84938595Y-72627438D02*
X84890976Y-72675057D01*
X84890976Y-72675057D02*
X84795738Y-72817914D01*
X84795738Y-72817914D02*
X84748119Y-73008390D01*
X84748119Y-73008390D02*
X84748119Y-73389342D01*
X84748119Y-73389342D02*
X84795738Y-73484580D01*
X84795738Y-73484580D02*
X84843357Y-73532200D01*
X84843357Y-73532200D02*
X84938595Y-73579819D01*
X84938595Y-73579819D02*
X85129071Y-73579819D01*
X85129071Y-73579819D02*
X85224309Y-73532200D01*
X85224309Y-73532200D02*
X85271928Y-73484580D01*
X85271928Y-73484580D02*
X85319547Y-73389342D01*
X85319547Y-73389342D02*
X85319547Y-73151247D01*
X85319547Y-73151247D02*
X85271928Y-73056009D01*
X85271928Y-73056009D02*
X85224309Y-73008390D01*
X85224309Y-73008390D02*
X85129071Y-72960771D01*
X85129071Y-72960771D02*
X84938595Y-72960771D01*
X84938595Y-72960771D02*
X84843357Y-73008390D01*
X84843357Y-73008390D02*
X84795738Y-73056009D01*
X84795738Y-73056009D02*
X84748119Y-73151247D01*
%TO.C,LED22*%
X62605261Y-91579819D02*
X62129071Y-91579819D01*
X62129071Y-91579819D02*
X62129071Y-90579819D01*
X62938595Y-91056009D02*
X63271928Y-91056009D01*
X63414785Y-91579819D02*
X62938595Y-91579819D01*
X62938595Y-91579819D02*
X62938595Y-90579819D01*
X62938595Y-90579819D02*
X63414785Y-90579819D01*
X63843357Y-91579819D02*
X63843357Y-90579819D01*
X63843357Y-90579819D02*
X64081452Y-90579819D01*
X64081452Y-90579819D02*
X64224309Y-90627438D01*
X64224309Y-90627438D02*
X64319547Y-90722676D01*
X64319547Y-90722676D02*
X64367166Y-90817914D01*
X64367166Y-90817914D02*
X64414785Y-91008390D01*
X64414785Y-91008390D02*
X64414785Y-91151247D01*
X64414785Y-91151247D02*
X64367166Y-91341723D01*
X64367166Y-91341723D02*
X64319547Y-91436961D01*
X64319547Y-91436961D02*
X64224309Y-91532200D01*
X64224309Y-91532200D02*
X64081452Y-91579819D01*
X64081452Y-91579819D02*
X63843357Y-91579819D01*
X64795738Y-90675057D02*
X64843357Y-90627438D01*
X64843357Y-90627438D02*
X64938595Y-90579819D01*
X64938595Y-90579819D02*
X65176690Y-90579819D01*
X65176690Y-90579819D02*
X65271928Y-90627438D01*
X65271928Y-90627438D02*
X65319547Y-90675057D01*
X65319547Y-90675057D02*
X65367166Y-90770295D01*
X65367166Y-90770295D02*
X65367166Y-90865533D01*
X65367166Y-90865533D02*
X65319547Y-91008390D01*
X65319547Y-91008390D02*
X64748119Y-91579819D01*
X64748119Y-91579819D02*
X65367166Y-91579819D01*
X65748119Y-90675057D02*
X65795738Y-90627438D01*
X65795738Y-90627438D02*
X65890976Y-90579819D01*
X65890976Y-90579819D02*
X66129071Y-90579819D01*
X66129071Y-90579819D02*
X66224309Y-90627438D01*
X66224309Y-90627438D02*
X66271928Y-90675057D01*
X66271928Y-90675057D02*
X66319547Y-90770295D01*
X66319547Y-90770295D02*
X66319547Y-90865533D01*
X66319547Y-90865533D02*
X66271928Y-91008390D01*
X66271928Y-91008390D02*
X65700500Y-91579819D01*
X65700500Y-91579819D02*
X66319547Y-91579819D01*
D12*
%TO.C,TP1*%
X97884384Y-93971466D02*
X98646289Y-93971466D01*
X103693909Y-93971466D02*
X104455814Y-93971466D01*
X104074861Y-94352419D02*
X104074861Y-93590514D01*
D10*
%TO.C,LED6*%
X120081452Y-43579819D02*
X119605262Y-43579819D01*
X119605262Y-43579819D02*
X119605262Y-42579819D01*
X120414786Y-43056009D02*
X120748119Y-43056009D01*
X120890976Y-43579819D02*
X120414786Y-43579819D01*
X120414786Y-43579819D02*
X120414786Y-42579819D01*
X120414786Y-42579819D02*
X120890976Y-42579819D01*
X121319548Y-43579819D02*
X121319548Y-42579819D01*
X121319548Y-42579819D02*
X121557643Y-42579819D01*
X121557643Y-42579819D02*
X121700500Y-42627438D01*
X121700500Y-42627438D02*
X121795738Y-42722676D01*
X121795738Y-42722676D02*
X121843357Y-42817914D01*
X121843357Y-42817914D02*
X121890976Y-43008390D01*
X121890976Y-43008390D02*
X121890976Y-43151247D01*
X121890976Y-43151247D02*
X121843357Y-43341723D01*
X121843357Y-43341723D02*
X121795738Y-43436961D01*
X121795738Y-43436961D02*
X121700500Y-43532200D01*
X121700500Y-43532200D02*
X121557643Y-43579819D01*
X121557643Y-43579819D02*
X121319548Y-43579819D01*
X122748119Y-42579819D02*
X122557643Y-42579819D01*
X122557643Y-42579819D02*
X122462405Y-42627438D01*
X122462405Y-42627438D02*
X122414786Y-42675057D01*
X122414786Y-42675057D02*
X122319548Y-42817914D01*
X122319548Y-42817914D02*
X122271929Y-43008390D01*
X122271929Y-43008390D02*
X122271929Y-43389342D01*
X122271929Y-43389342D02*
X122319548Y-43484580D01*
X122319548Y-43484580D02*
X122367167Y-43532200D01*
X122367167Y-43532200D02*
X122462405Y-43579819D01*
X122462405Y-43579819D02*
X122652881Y-43579819D01*
X122652881Y-43579819D02*
X122748119Y-43532200D01*
X122748119Y-43532200D02*
X122795738Y-43484580D01*
X122795738Y-43484580D02*
X122843357Y-43389342D01*
X122843357Y-43389342D02*
X122843357Y-43151247D01*
X122843357Y-43151247D02*
X122795738Y-43056009D01*
X122795738Y-43056009D02*
X122748119Y-43008390D01*
X122748119Y-43008390D02*
X122652881Y-42960771D01*
X122652881Y-42960771D02*
X122462405Y-42960771D01*
X122462405Y-42960771D02*
X122367167Y-43008390D01*
X122367167Y-43008390D02*
X122319548Y-43056009D01*
X122319548Y-43056009D02*
X122271929Y-43151247D01*
%TO.C,LED19*%
X2710173Y-100918796D02*
X2244389Y-101017802D01*
X2244389Y-101017802D02*
X2036477Y-100039654D01*
X2927316Y-100337129D02*
X3253366Y-100267825D01*
X3502007Y-100750487D02*
X3036223Y-100849492D01*
X3036223Y-100849492D02*
X2828311Y-99871345D01*
X2828311Y-99871345D02*
X3294095Y-99772339D01*
X3921213Y-100661382D02*
X3713302Y-99683234D01*
X3713302Y-99683234D02*
X3946194Y-99633731D01*
X3946194Y-99633731D02*
X4095830Y-99650608D01*
X4095830Y-99650608D02*
X4208788Y-99723964D01*
X4208788Y-99723964D02*
X4275167Y-99807220D01*
X4275167Y-99807220D02*
X4361348Y-99983634D01*
X4361348Y-99983634D02*
X4391050Y-100123369D01*
X4391050Y-100123369D02*
X4384074Y-100319583D01*
X4384074Y-100319583D02*
X4357296Y-100422641D01*
X4357296Y-100422641D02*
X4283940Y-100535599D01*
X4283940Y-100535599D02*
X4154106Y-100611879D01*
X4154106Y-100611879D02*
X3921213Y-100661382D01*
X5411724Y-100344564D02*
X4852783Y-100463371D01*
X5132253Y-100403967D02*
X4924342Y-99425820D01*
X4924342Y-99425820D02*
X4860886Y-99585356D01*
X4860886Y-99585356D02*
X4787531Y-99698314D01*
X4787531Y-99698314D02*
X4704274Y-99764694D01*
X5877509Y-100245558D02*
X6063822Y-100205956D01*
X6063822Y-100205956D02*
X6147079Y-100139577D01*
X6147079Y-100139577D02*
X6183757Y-100083098D01*
X6183757Y-100083098D02*
X6247212Y-99923561D01*
X6247212Y-99923561D02*
X6254188Y-99727347D01*
X6254188Y-99727347D02*
X6174984Y-99354719D01*
X6174984Y-99354719D02*
X6108604Y-99271463D01*
X6108604Y-99271463D02*
X6052125Y-99234785D01*
X6052125Y-99234785D02*
X5949068Y-99208007D01*
X5949068Y-99208007D02*
X5762754Y-99247610D01*
X5762754Y-99247610D02*
X5679497Y-99313989D01*
X5679497Y-99313989D02*
X5642820Y-99370468D01*
X5642820Y-99370468D02*
X5616042Y-99473526D01*
X5616042Y-99473526D02*
X5665545Y-99706418D01*
X5665545Y-99706418D02*
X5731925Y-99789674D01*
X5731925Y-99789674D02*
X5788404Y-99826352D01*
X5788404Y-99826352D02*
X5891461Y-99853130D01*
X5891461Y-99853130D02*
X6077775Y-99813527D01*
X6077775Y-99813527D02*
X6161031Y-99747148D01*
X6161031Y-99747148D02*
X6197709Y-99690669D01*
X6197709Y-99690669D02*
X6224487Y-99587611D01*
%TO.C,LED12*%
X119605261Y-61579819D02*
X119129071Y-61579819D01*
X119129071Y-61579819D02*
X119129071Y-60579819D01*
X119938595Y-61056009D02*
X120271928Y-61056009D01*
X120414785Y-61579819D02*
X119938595Y-61579819D01*
X119938595Y-61579819D02*
X119938595Y-60579819D01*
X119938595Y-60579819D02*
X120414785Y-60579819D01*
X120843357Y-61579819D02*
X120843357Y-60579819D01*
X120843357Y-60579819D02*
X121081452Y-60579819D01*
X121081452Y-60579819D02*
X121224309Y-60627438D01*
X121224309Y-60627438D02*
X121319547Y-60722676D01*
X121319547Y-60722676D02*
X121367166Y-60817914D01*
X121367166Y-60817914D02*
X121414785Y-61008390D01*
X121414785Y-61008390D02*
X121414785Y-61151247D01*
X121414785Y-61151247D02*
X121367166Y-61341723D01*
X121367166Y-61341723D02*
X121319547Y-61436961D01*
X121319547Y-61436961D02*
X121224309Y-61532200D01*
X121224309Y-61532200D02*
X121081452Y-61579819D01*
X121081452Y-61579819D02*
X120843357Y-61579819D01*
X122367166Y-61579819D02*
X121795738Y-61579819D01*
X122081452Y-61579819D02*
X122081452Y-60579819D01*
X122081452Y-60579819D02*
X121986214Y-60722676D01*
X121986214Y-60722676D02*
X121890976Y-60817914D01*
X121890976Y-60817914D02*
X121795738Y-60865533D01*
X122748119Y-60675057D02*
X122795738Y-60627438D01*
X122795738Y-60627438D02*
X122890976Y-60579819D01*
X122890976Y-60579819D02*
X123129071Y-60579819D01*
X123129071Y-60579819D02*
X123224309Y-60627438D01*
X123224309Y-60627438D02*
X123271928Y-60675057D01*
X123271928Y-60675057D02*
X123319547Y-60770295D01*
X123319547Y-60770295D02*
X123319547Y-60865533D01*
X123319547Y-60865533D02*
X123271928Y-61008390D01*
X123271928Y-61008390D02*
X122700500Y-61579819D01*
X122700500Y-61579819D02*
X123319547Y-61579819D01*
%TO.C,SW_B0*%
X95180500Y-40530000D02*
X95180500Y-39530000D01*
X95180500Y-53530000D02*
X95180500Y-52530000D01*
X95180500Y-53530000D02*
X96180500Y-53530000D01*
X96180500Y-39530000D02*
X95180500Y-39530000D01*
X108180500Y-53530000D02*
X109180500Y-53530000D01*
X109180500Y-39530000D02*
X108180500Y-39530000D01*
X109180500Y-39530000D02*
X109180500Y-40530000D01*
X109180500Y-52530000D02*
X109180500Y-53530000D01*
X109180500Y-53530000D02*
X108180500Y-53530000D01*
%TO.C,SW_B3*%
X57180500Y-91530000D02*
X57180500Y-90530000D01*
X57180500Y-104530000D02*
X57180500Y-103530000D01*
X57180500Y-104530000D02*
X58180500Y-104530000D01*
X58180500Y-90530000D02*
X57180500Y-90530000D01*
X70180500Y-104530000D02*
X71180500Y-104530000D01*
X71180500Y-90530000D02*
X70180500Y-90530000D01*
X71180500Y-90530000D02*
X71180500Y-91530000D01*
X71180500Y-103530000D02*
X71180500Y-104530000D01*
X71180500Y-104530000D02*
X70180500Y-104530000D01*
%TO.C,SW_B4*%
X76180500Y-91530000D02*
X76180500Y-90530000D01*
X76180500Y-104530000D02*
X76180500Y-103530000D01*
X76180500Y-104530000D02*
X77180500Y-104530000D01*
X77180500Y-90530000D02*
X76180500Y-90530000D01*
X89180500Y-104530000D02*
X90180500Y-104530000D01*
X90180500Y-90530000D02*
X89180500Y-90530000D01*
X90180500Y-90530000D02*
X90180500Y-91530000D01*
X90180500Y-103530000D02*
X90180500Y-104530000D01*
X90180500Y-104530000D02*
X89180500Y-104530000D01*
%TO.C,SW_C1*%
X76180500Y-55530000D02*
X76180500Y-54530000D01*
X76180500Y-68530000D02*
X76180500Y-67530000D01*
X76180500Y-68530000D02*
X77180500Y-68530000D01*
X77180500Y-54530000D02*
X76180500Y-54530000D01*
X89180500Y-68530000D02*
X90180500Y-68530000D01*
X90180500Y-54530000D02*
X89180500Y-54530000D01*
X90180500Y-54530000D02*
X90180500Y-55530000D01*
X90180500Y-67530000D02*
X90180500Y-68530000D01*
X90180500Y-68530000D02*
X89180500Y-68530000D01*
D13*
%TO.C,LED3*%
X62515500Y-37815000D02*
X62515500Y-39735000D01*
X62515500Y-39735000D02*
X65200500Y-39735000D01*
X65200500Y-37815000D02*
X62515500Y-37815000D01*
D10*
%TO.C,SW_B1*%
X95180500Y-58530000D02*
X95180500Y-57530000D01*
X95180500Y-71530000D02*
X95180500Y-70530000D01*
X95180500Y-71530000D02*
X96180500Y-71530000D01*
X96180500Y-57530000D02*
X95180500Y-57530000D01*
X108180500Y-71530000D02*
X109180500Y-71530000D01*
X109180500Y-57530000D02*
X108180500Y-57530000D01*
X109180500Y-57530000D02*
X109180500Y-58530000D01*
X109180500Y-70530000D02*
X109180500Y-71530000D01*
X109180500Y-71530000D02*
X108180500Y-71530000D01*
D13*
%TO.C,LED15*%
X62515500Y-73815000D02*
X62515500Y-75735000D01*
X62515500Y-75735000D02*
X65200500Y-75735000D01*
X65200500Y-73815000D02*
X62515500Y-73815000D01*
%TO.C,Nice!View1*%
X8238000Y-72760000D02*
X8238000Y-74090000D01*
X6908000Y-72760000D02*
X8238000Y-72760000D01*
X5638000Y-72760000D02*
X-4582000Y-72760000D01*
X5638000Y-72760000D02*
X5638000Y-75420000D01*
X-4582000Y-72760000D02*
X-4582000Y-75420000D01*
X5638000Y-75420000D02*
X-4582000Y-75420000D01*
%TO.C,LED4*%
X81515500Y-37815000D02*
X81515500Y-39735000D01*
X81515500Y-39735000D02*
X84200500Y-39735000D01*
X84200500Y-37815000D02*
X81515500Y-37815000D01*
%TO.C,LED1*%
X24795500Y-44065000D02*
X24795500Y-45985000D01*
X24795500Y-45985000D02*
X27480500Y-45985000D01*
X27480500Y-44065000D02*
X24795500Y-44065000D01*
D10*
%TO.C,SW_F0*%
X19460500Y-43780000D02*
X19460500Y-42780000D01*
X19460500Y-56780000D02*
X19460500Y-55780000D01*
X19460500Y-56780000D02*
X20460500Y-56780000D01*
X20460500Y-42780000D02*
X19460500Y-42780000D01*
X32460500Y-56780000D02*
X33460500Y-56780000D01*
X33460500Y-42780000D02*
X32460500Y-42780000D01*
X33460500Y-42780000D02*
X33460500Y-43780000D01*
X33460500Y-55780000D02*
X33460500Y-56780000D01*
X33460500Y-56780000D02*
X32460500Y-56780000D01*
D14*
%TO.C,RE_1*%
X-6817000Y-77640000D02*
X-6817000Y-79640000D01*
X-6817000Y-89640000D02*
X-6817000Y-91640000D01*
X-6817000Y-91640000D02*
X8583000Y-91640000D01*
X-6217000Y-77640000D02*
X-6817000Y-77640000D01*
X8583000Y-77640000D02*
X-2317000Y-77640000D01*
D13*
%TO.C,LED13*%
X24795500Y-80065000D02*
X24795500Y-81985000D01*
X24795500Y-81985000D02*
X27480500Y-81985000D01*
X27480500Y-80065000D02*
X24795500Y-80065000D01*
%TO.C,LED23*%
X81515500Y-91715000D02*
X81515500Y-93635000D01*
X81515500Y-93635000D02*
X84200500Y-93635000D01*
X84200500Y-91715000D02*
X81515500Y-91715000D01*
D10*
%TO.C,SW_A2*%
X114180500Y-79530000D02*
X114180500Y-78530000D01*
X114180500Y-92530000D02*
X114180500Y-91530000D01*
X114180500Y-92530000D02*
X115180500Y-92530000D01*
X115180500Y-78530000D02*
X114180500Y-78530000D01*
X127180500Y-92530000D02*
X128180500Y-92530000D01*
X128180500Y-78530000D02*
X127180500Y-78530000D01*
X128180500Y-78530000D02*
X128180500Y-79530000D01*
X128180500Y-91530000D02*
X128180500Y-92530000D01*
X128180500Y-92530000D02*
X127180500Y-92530000D01*
D13*
%TO.C,LED10*%
X81515500Y-55815000D02*
X81515500Y-57735000D01*
X81515500Y-57735000D02*
X84200500Y-57735000D01*
X84200500Y-55815000D02*
X81515500Y-55815000D01*
D10*
%TO.C,SW_D1*%
X57180500Y-55530000D02*
X57180500Y-54530000D01*
X57180500Y-68530000D02*
X57180500Y-67530000D01*
X57180500Y-68530000D02*
X58180500Y-68530000D01*
X58180500Y-54530000D02*
X57180500Y-54530000D01*
X70180500Y-68530000D02*
X71180500Y-68530000D01*
X71180500Y-54530000D02*
X70180500Y-54530000D01*
X71180500Y-54530000D02*
X71180500Y-55530000D01*
X71180500Y-67530000D02*
X71180500Y-68530000D01*
X71180500Y-68530000D02*
X70180500Y-68530000D01*
D13*
%TO.C,LED17*%
X100515500Y-76815000D02*
X100515500Y-78735000D01*
X100515500Y-78735000D02*
X103200500Y-78735000D01*
X103200500Y-76815000D02*
X100515500Y-76815000D01*
%TO.C,LED20*%
X24795500Y-98065000D02*
X24795500Y-99985000D01*
X24795500Y-99985000D02*
X27480500Y-99985000D01*
X27480500Y-98065000D02*
X24795500Y-98065000D01*
D10*
%TO.C,SW_E2*%
X38180500Y-76530000D02*
X38180500Y-75530000D01*
X38180500Y-89530000D02*
X38180500Y-88530000D01*
X38180500Y-89530000D02*
X39180500Y-89530000D01*
X39180500Y-75530000D02*
X38180500Y-75530000D01*
X51180500Y-89530000D02*
X52180500Y-89530000D01*
X52180500Y-75530000D02*
X51180500Y-75530000D01*
X52180500Y-75530000D02*
X52180500Y-76530000D01*
X52180500Y-88530000D02*
X52180500Y-89530000D01*
X52180500Y-89530000D02*
X51180500Y-89530000D01*
D13*
%TO.C,LED18*%
X119515500Y-79815000D02*
X119515500Y-81735000D01*
X119515500Y-81735000D02*
X122200500Y-81735000D01*
X122200500Y-79815000D02*
X119515500Y-79815000D01*
D10*
%TO.C,SW_D2*%
X57180500Y-73530000D02*
X57180500Y-72530000D01*
X57180500Y-86530000D02*
X57180500Y-85530000D01*
X57180500Y-86530000D02*
X58180500Y-86530000D01*
X58180500Y-72530000D02*
X57180500Y-72530000D01*
X70180500Y-86530000D02*
X71180500Y-86530000D01*
X71180500Y-72530000D02*
X70180500Y-72530000D01*
X71180500Y-72530000D02*
X71180500Y-73530000D01*
X71180500Y-85530000D02*
X71180500Y-86530000D01*
X71180500Y-86530000D02*
X70180500Y-86530000D01*
%TO.C,SW_E0*%
X38180500Y-40530000D02*
X38180500Y-39530000D01*
X38180500Y-53530000D02*
X38180500Y-52530000D01*
X38180500Y-53530000D02*
X39180500Y-53530000D01*
X39180500Y-39530000D02*
X38180500Y-39530000D01*
X51180500Y-53530000D02*
X52180500Y-53530000D01*
X52180500Y-39530000D02*
X51180500Y-39530000D01*
X52180500Y-39530000D02*
X52180500Y-40530000D01*
X52180500Y-52530000D02*
X52180500Y-53530000D01*
X52180500Y-53530000D02*
X51180500Y-53530000D01*
D13*
%TO.C,LED8*%
X43515500Y-58815000D02*
X43515500Y-60735000D01*
X43515500Y-60735000D02*
X46200500Y-60735000D01*
X46200500Y-58815000D02*
X43515500Y-58815000D01*
%TO.C,LED5*%
X100515500Y-40815000D02*
X100515500Y-42735000D01*
X100515500Y-42735000D02*
X103200500Y-42735000D01*
X103200500Y-40815000D02*
X100515500Y-40815000D01*
%TO.C,NICE_NANO1*%
X-7122000Y-37550000D02*
X-7122000Y-70180000D01*
D12*
X-7122000Y-70180000D02*
X-4632000Y-70180000D01*
D13*
X-4632000Y-39650000D02*
X-4632000Y-70180000D01*
X828000Y-39650000D02*
X-4632000Y-39650000D01*
X8288000Y-39650000D02*
X2828000Y-39650000D01*
X8288000Y-70180000D02*
X8288000Y-39650000D01*
D12*
X8288000Y-70180000D02*
X10778000Y-70180000D01*
D13*
X10778000Y-37550000D02*
X-7122000Y-37550000D01*
X10778000Y-70180000D02*
X10778000Y-37550000D01*
%TO.C,LED21*%
X43515500Y-94815000D02*
X43515500Y-96735000D01*
X43515500Y-96735000D02*
X46200500Y-96735000D01*
X46200500Y-94815000D02*
X43515500Y-94815000D01*
D10*
%TO.C,SW_A1*%
X114180500Y-61530000D02*
X114180500Y-60530000D01*
X114180500Y-74530000D02*
X114180500Y-73530000D01*
X114180500Y-74530000D02*
X115180500Y-74530000D01*
X115180500Y-60530000D02*
X114180500Y-60530000D01*
X127180500Y-74530000D02*
X128180500Y-74530000D01*
X128180500Y-60530000D02*
X127180500Y-60530000D01*
X128180500Y-60530000D02*
X128180500Y-61530000D01*
X128180500Y-73530000D02*
X128180500Y-74530000D01*
X128180500Y-74530000D02*
X127180500Y-74530000D01*
%TO.C,SW_A0*%
X114180500Y-43530000D02*
X114180500Y-42530000D01*
X114180500Y-56530000D02*
X114180500Y-55530000D01*
X114180500Y-56530000D02*
X115180500Y-56530000D01*
X115180500Y-42530000D02*
X114180500Y-42530000D01*
X127180500Y-56530000D02*
X128180500Y-56530000D01*
X128180500Y-42530000D02*
X127180500Y-42530000D01*
X128180500Y-42530000D02*
X128180500Y-43530000D01*
X128180500Y-55530000D02*
X128180500Y-56530000D01*
X128180500Y-56530000D02*
X127180500Y-56530000D01*
D13*
%TO.C,LED11*%
X100515500Y-58815000D02*
X100515500Y-60735000D01*
X100515500Y-60735000D02*
X103200500Y-60735000D01*
X103200500Y-58815000D02*
X100515500Y-58815000D01*
D10*
%TO.C,SW_F2*%
X19460500Y-79780000D02*
X19460500Y-78780000D01*
X19460500Y-92780000D02*
X19460500Y-91780000D01*
X19460500Y-92780000D02*
X20460500Y-92780000D01*
X20460500Y-78780000D02*
X19460500Y-78780000D01*
X32460500Y-92780000D02*
X33460500Y-92780000D01*
X33460500Y-78780000D02*
X32460500Y-78780000D01*
X33460500Y-78780000D02*
X33460500Y-79780000D01*
X33460500Y-91780000D02*
X33460500Y-92780000D01*
X33460500Y-92780000D02*
X32460500Y-92780000D01*
%TO.C,SW_D0*%
X57180500Y-37530000D02*
X57180500Y-36530000D01*
X57180500Y-50530000D02*
X57180500Y-49530000D01*
X57180500Y-50530000D02*
X58180500Y-50530000D01*
X58180500Y-36530000D02*
X57180500Y-36530000D01*
X70180500Y-50530000D02*
X71180500Y-50530000D01*
X71180500Y-36530000D02*
X70180500Y-36530000D01*
X71180500Y-36530000D02*
X71180500Y-37530000D01*
X71180500Y-49530000D02*
X71180500Y-50530000D01*
X71180500Y-50530000D02*
X70180500Y-50530000D01*
%TO.C,SW_E3*%
X-2573623Y-101990971D02*
X-2781535Y-101012824D01*
X129229Y-114706890D02*
X-78683Y-113728742D01*
X129229Y-114706890D02*
X1107376Y-114498978D01*
X-1803387Y-100804912D02*
X-2781535Y-101012824D01*
X12845147Y-112004038D02*
X13823295Y-111796126D01*
X10912531Y-98102060D02*
X9934384Y-98309972D01*
X10912531Y-98102060D02*
X11120443Y-99080208D01*
X13615383Y-110817979D02*
X13823295Y-111796126D01*
X13823295Y-111796126D02*
X12845147Y-112004038D01*
D13*
%TO.C,LED7*%
X24795500Y-62110000D02*
X24795500Y-64030000D01*
X24795500Y-64030000D02*
X27480500Y-64030000D01*
X27480500Y-62110000D02*
X24795500Y-62110000D01*
D10*
%TO.C,SW_F1*%
X19460500Y-61825000D02*
X19460500Y-60825000D01*
X19460500Y-74825000D02*
X19460500Y-73825000D01*
X19460500Y-74825000D02*
X20460500Y-74825000D01*
X20460500Y-60825000D02*
X19460500Y-60825000D01*
X32460500Y-74825000D02*
X33460500Y-74825000D01*
X33460500Y-60825000D02*
X32460500Y-60825000D01*
X33460500Y-60825000D02*
X33460500Y-61825000D01*
X33460500Y-73825000D02*
X33460500Y-74825000D01*
X33460500Y-74825000D02*
X32460500Y-74825000D01*
%TO.C,SW_C2*%
X76180500Y-73530000D02*
X76180500Y-72530000D01*
X76180500Y-86530000D02*
X76180500Y-85530000D01*
X76180500Y-86530000D02*
X77180500Y-86530000D01*
X77180500Y-72530000D02*
X76180500Y-72530000D01*
X89180500Y-86530000D02*
X90180500Y-86530000D01*
X90180500Y-72530000D02*
X89180500Y-72530000D01*
X90180500Y-72530000D02*
X90180500Y-73530000D01*
X90180500Y-85530000D02*
X90180500Y-86530000D01*
X90180500Y-86530000D02*
X89180500Y-86530000D01*
D13*
%TO.C,BATT1*%
X16974000Y-47210000D02*
X18034000Y-47210000D01*
X16974000Y-48270000D02*
X16974000Y-47210000D01*
X16974000Y-49270000D02*
X16974000Y-51330000D01*
X16974000Y-49270000D02*
X19094000Y-49270000D01*
X16974000Y-51330000D02*
X19094000Y-51330000D01*
X19094000Y-49270000D02*
X19094000Y-51330000D01*
%TO.C,LED9*%
X62515500Y-55815000D02*
X62515500Y-57735000D01*
X62515500Y-57735000D02*
X65200500Y-57735000D01*
X65200500Y-55815000D02*
X62515500Y-55815000D01*
%TO.C,LED14*%
X43515500Y-76815000D02*
X43515500Y-78735000D01*
X43515500Y-78735000D02*
X46200500Y-78735000D01*
X46200500Y-76815000D02*
X43515500Y-76815000D01*
D10*
%TO.C,SW_E1*%
X38180500Y-58530000D02*
X38180500Y-57530000D01*
X38180500Y-71530000D02*
X38180500Y-70530000D01*
X38180500Y-71530000D02*
X39180500Y-71530000D01*
X39180500Y-57530000D02*
X38180500Y-57530000D01*
X51180500Y-71530000D02*
X52180500Y-71530000D01*
X52180500Y-57530000D02*
X51180500Y-57530000D01*
X52180500Y-57530000D02*
X52180500Y-58530000D01*
X52180500Y-70530000D02*
X52180500Y-71530000D01*
X52180500Y-71530000D02*
X51180500Y-71530000D01*
D13*
%TO.C,LED2*%
X43515500Y-40815000D02*
X43515500Y-42735000D01*
X43515500Y-42735000D02*
X46200500Y-42735000D01*
X46200500Y-40815000D02*
X43515500Y-40815000D01*
D10*
%TO.C,SW_C0*%
X76180500Y-37530000D02*
X76180500Y-36530000D01*
X76180500Y-50530000D02*
X76180500Y-49530000D01*
X76180500Y-50530000D02*
X77180500Y-50530000D01*
X77180500Y-36530000D02*
X76180500Y-36530000D01*
X89180500Y-50530000D02*
X90180500Y-50530000D01*
X90180500Y-36530000D02*
X89180500Y-36530000D01*
X90180500Y-36530000D02*
X90180500Y-37530000D01*
X90180500Y-49530000D02*
X90180500Y-50530000D01*
X90180500Y-50530000D02*
X89180500Y-50530000D01*
D13*
%TO.C,LED16*%
X81515500Y-73815000D02*
X81515500Y-75735000D01*
X81515500Y-75735000D02*
X84200500Y-75735000D01*
X84200500Y-73815000D02*
X81515500Y-73815000D01*
%TO.C,LED22*%
X62515500Y-91815000D02*
X62515500Y-93735000D01*
X62515500Y-93735000D02*
X65200500Y-93735000D01*
X65200500Y-91815000D02*
X62515500Y-91815000D01*
D10*
%TO.C,SW_C3*%
X38180500Y-94530000D02*
X38180500Y-93530000D01*
X38180500Y-107530000D02*
X38180500Y-106530000D01*
X38180500Y-107530000D02*
X39180500Y-107530000D01*
X39180500Y-93530000D02*
X38180500Y-93530000D01*
X51180500Y-107530000D02*
X52180500Y-107530000D01*
X52180500Y-93530000D02*
X51180500Y-93530000D01*
X52180500Y-93530000D02*
X52180500Y-94530000D01*
X52180500Y-106530000D02*
X52180500Y-107530000D01*
X52180500Y-107530000D02*
X51180500Y-107530000D01*
%TO.C,SW_B2*%
X95180500Y-76530000D02*
X95180500Y-75530000D01*
X95180500Y-89530000D02*
X95180500Y-88530000D01*
X95180500Y-89530000D02*
X96180500Y-89530000D01*
X96180500Y-75530000D02*
X95180500Y-75530000D01*
X108180500Y-89530000D02*
X109180500Y-89530000D01*
X109180500Y-75530000D02*
X108180500Y-75530000D01*
X109180500Y-75530000D02*
X109180500Y-76530000D01*
X109180500Y-88530000D02*
X109180500Y-89530000D01*
X109180500Y-89530000D02*
X108180500Y-89530000D01*
%TO.C,SW_D3*%
X19460500Y-97780000D02*
X19460500Y-96780000D01*
X19460500Y-110780000D02*
X19460500Y-109780000D01*
X19460500Y-110780000D02*
X20460500Y-110780000D01*
X20460500Y-96780000D02*
X19460500Y-96780000D01*
X32460500Y-110780000D02*
X33460500Y-110780000D01*
X33460500Y-96780000D02*
X32460500Y-96780000D01*
X33460500Y-96780000D02*
X33460500Y-97780000D01*
X33460500Y-109780000D02*
X33460500Y-110780000D01*
X33460500Y-110780000D02*
X32460500Y-110780000D01*
D13*
%TO.C,LED6*%
X119515500Y-43815000D02*
X119515500Y-45735000D01*
X119515500Y-45735000D02*
X122200500Y-45735000D01*
X122200500Y-43815000D02*
X119515500Y-43815000D01*
%TO.C,LED19*%
X2671270Y-101167502D02*
X3070461Y-103045545D01*
X3070461Y-103045545D02*
X5696787Y-102487302D01*
X5297596Y-100609259D02*
X2671270Y-101167502D01*
%TO.C,LED12*%
X119515500Y-61815000D02*
X119515500Y-63735000D01*
X119515500Y-63735000D02*
X122200500Y-63735000D01*
X122200500Y-61815000D02*
X119515500Y-61815000D01*
%TD*%
%LPC*%
D15*
%TO.C,SW_B0*%
X96680500Y-46530000D03*
D16*
X97180500Y-50280000D03*
D17*
X102180500Y-46530000D03*
D16*
X102180500Y-52480000D03*
D18*
X107400500Y-42330000D03*
D15*
X107680500Y-46530000D03*
%TD*%
%TO.C,SW_B3*%
X58680500Y-97530000D03*
D16*
X59180500Y-101280000D03*
D17*
X64180500Y-97530000D03*
D16*
X64180500Y-103480000D03*
D18*
X69400500Y-93330000D03*
D15*
X69680500Y-97530000D03*
%TD*%
%TO.C,SW_B4*%
X77680500Y-97530000D03*
D16*
X78180500Y-101280000D03*
D17*
X83180500Y-97530000D03*
D16*
X83180500Y-103480000D03*
D18*
X88400500Y-93330000D03*
D15*
X88680500Y-97530000D03*
%TD*%
%TO.C,SW_C1*%
X77680500Y-61530000D03*
D16*
X78180500Y-65280000D03*
D17*
X83180500Y-61530000D03*
D16*
X83180500Y-67480000D03*
D18*
X88400500Y-57330000D03*
D15*
X88680500Y-61530000D03*
%TD*%
D19*
%TO.C,LED3*%
X63263000Y-38775000D03*
X65138000Y-38775000D03*
%TD*%
D15*
%TO.C,SW_B1*%
X96680500Y-64530000D03*
D16*
X97180500Y-68280000D03*
D17*
X102180500Y-64530000D03*
D16*
X102180500Y-70480000D03*
D18*
X107400500Y-60330000D03*
D15*
X107680500Y-64530000D03*
%TD*%
D19*
%TO.C,LED15*%
X63263000Y-74775000D03*
X65138000Y-74775000D03*
%TD*%
D20*
%TO.C,Nice!View1*%
X6908000Y-74090000D03*
D21*
X4368000Y-74090000D03*
X1828000Y-74090000D03*
X-712000Y-74090000D03*
X-3252000Y-74090000D03*
%TD*%
D19*
%TO.C,LED4*%
X82263000Y-38775000D03*
X84138000Y-38775000D03*
%TD*%
%TO.C,LED1*%
X25543000Y-45025000D03*
X27418000Y-45025000D03*
%TD*%
D15*
%TO.C,SW_F0*%
X20960500Y-49780000D03*
D16*
X21460500Y-53530000D03*
D17*
X26460500Y-49780000D03*
D16*
X26460500Y-55730000D03*
D18*
X31680500Y-45580000D03*
D15*
X31960500Y-49780000D03*
%TD*%
D22*
%TO.C,RE_1*%
X-3942000Y-90440000D03*
D23*
X-3942000Y-80330000D03*
X-3942000Y-82870000D03*
X-3942000Y-85410000D03*
X-3942000Y-87950000D03*
X-5167000Y-77940000D03*
X-3317000Y-77940000D03*
%TD*%
D19*
%TO.C,LED13*%
X25543000Y-81025000D03*
X27418000Y-81025000D03*
%TD*%
%TO.C,LED23*%
X82263000Y-92675000D03*
X84138000Y-92675000D03*
%TD*%
D15*
%TO.C,SW_A2*%
X115680500Y-85530000D03*
D16*
X116180500Y-89280000D03*
D17*
X121180500Y-85530000D03*
D16*
X121180500Y-91480000D03*
D18*
X126400500Y-81330000D03*
D15*
X126680500Y-85530000D03*
%TD*%
D19*
%TO.C,LED10*%
X82263000Y-56775000D03*
X84138000Y-56775000D03*
%TD*%
D15*
%TO.C,SW_D1*%
X58680500Y-61530000D03*
D16*
X59180500Y-65280000D03*
D17*
X64180500Y-61530000D03*
D16*
X64180500Y-67480000D03*
D18*
X69400500Y-57330000D03*
D15*
X69680500Y-61530000D03*
%TD*%
D19*
%TO.C,LED17*%
X101263000Y-77775000D03*
X103138000Y-77775000D03*
%TD*%
D24*
%TO.C,H4*%
X17108000Y-94784000D03*
%TD*%
D19*
%TO.C,LED20*%
X25543000Y-99025000D03*
X27418000Y-99025000D03*
%TD*%
D15*
%TO.C,SW_E2*%
X39680500Y-82530000D03*
D16*
X40180500Y-86280000D03*
D17*
X45180500Y-82530000D03*
D16*
X45180500Y-88480000D03*
D18*
X50400500Y-78330000D03*
D15*
X50680500Y-82530000D03*
%TD*%
D19*
%TO.C,LED18*%
X120263000Y-80775000D03*
X122138000Y-80775000D03*
%TD*%
D15*
%TO.C,SW_D2*%
X58680500Y-79530000D03*
D16*
X59180500Y-83280000D03*
D17*
X64180500Y-79530000D03*
D16*
X64180500Y-85480000D03*
D18*
X69400500Y-75330000D03*
D15*
X69680500Y-79530000D03*
%TD*%
D24*
%TO.C,H3*%
X16470000Y-58840000D03*
%TD*%
D15*
%TO.C,SW_E0*%
X39680500Y-46530000D03*
D16*
X40180500Y-50280000D03*
D17*
X45180500Y-46530000D03*
D16*
X45180500Y-52480000D03*
D18*
X50400500Y-42330000D03*
D15*
X50680500Y-46530000D03*
%TD*%
D19*
%TO.C,LED8*%
X44263000Y-59775000D03*
X46138000Y-59775000D03*
%TD*%
%TO.C,LED5*%
X101263000Y-41775000D03*
X103138000Y-41775000D03*
%TD*%
D24*
%TO.C,H1*%
X112393000Y-58572000D03*
%TD*%
D25*
%TO.C,NICE_NANO1*%
X-5792000Y-40980000D03*
D26*
X-5792000Y-43520000D03*
X-5792000Y-46060000D03*
X-5792000Y-48600000D03*
X-5792000Y-51140000D03*
X-5792000Y-53680000D03*
X-5792000Y-56220000D03*
X-5792000Y-58760000D03*
X-5792000Y-61300000D03*
X-5792000Y-63840000D03*
X-5792000Y-66380000D03*
X-5792000Y-68920000D03*
X9448000Y-68920000D03*
X9448000Y-66380000D03*
X9448000Y-63840000D03*
X9448000Y-61300000D03*
X9448000Y-58760000D03*
X9448000Y-56220000D03*
X9448000Y-53680000D03*
X9448000Y-51140000D03*
X9448000Y-48600000D03*
X9448000Y-46060000D03*
X9448000Y-43520000D03*
X9448000Y-40980000D03*
%TD*%
D19*
%TO.C,LED21*%
X44263000Y-95775000D03*
X46138000Y-95775000D03*
%TD*%
D15*
%TO.C,SW_A1*%
X115680500Y-67530000D03*
D16*
X116180500Y-71280000D03*
D17*
X121180500Y-67530000D03*
D16*
X121180500Y-73480000D03*
D18*
X126400500Y-63330000D03*
D15*
X126680500Y-67530000D03*
%TD*%
%TO.C,SW_A0*%
X115680500Y-49530000D03*
D16*
X116180500Y-53280000D03*
D17*
X121180500Y-49530000D03*
D16*
X121180500Y-55480000D03*
D18*
X126400500Y-45330000D03*
D15*
X126680500Y-49530000D03*
%TD*%
D24*
%TO.C,H5*%
X73322500Y-70526000D03*
%TD*%
D19*
%TO.C,LED11*%
X101263000Y-59775000D03*
X103138000Y-59775000D03*
%TD*%
D15*
%TO.C,SW_F2*%
X20960500Y-85780000D03*
D16*
X21460500Y-89530000D03*
D17*
X26460500Y-85780000D03*
D16*
X26460500Y-91730000D03*
D18*
X31680500Y-81580000D03*
D15*
X31960500Y-85780000D03*
%TD*%
%TO.C,SW_D0*%
X58680500Y-43530000D03*
D16*
X59180500Y-47280000D03*
D17*
X64180500Y-43530000D03*
D16*
X64180500Y-49480000D03*
D18*
X69400500Y-39330000D03*
D15*
X69680500Y-43530000D03*
%TD*%
%TO.C,SW_E3*%
X141068Y-107547989D03*
D16*
X1409811Y-111112087D03*
D17*
X5520880Y-106404475D03*
D16*
X6757955Y-112224453D03*
D18*
X9753581Y-101210956D03*
D15*
X10900692Y-105260961D03*
%TD*%
D19*
%TO.C,LED7*%
X25543000Y-63070000D03*
X27418000Y-63070000D03*
%TD*%
D15*
%TO.C,SW_F1*%
X20960500Y-67825000D03*
D16*
X21460500Y-71575000D03*
D17*
X26460500Y-67825000D03*
D16*
X26460500Y-73775000D03*
D18*
X31680500Y-63625000D03*
D15*
X31960500Y-67825000D03*
%TD*%
%TO.C,SW_C2*%
X77680500Y-79530000D03*
D16*
X78180500Y-83280000D03*
D17*
X83180500Y-79530000D03*
D16*
X83180500Y-85480000D03*
D18*
X88400500Y-75330000D03*
D15*
X88680500Y-79530000D03*
%TD*%
D27*
%TO.C,BATT1*%
X18034000Y-48270000D03*
D28*
X18034000Y-50270000D03*
%TD*%
D19*
%TO.C,LED9*%
X63263000Y-56775000D03*
X65138000Y-56775000D03*
%TD*%
%TO.C,LED14*%
X44263000Y-77775000D03*
X46138000Y-77775000D03*
%TD*%
D15*
%TO.C,SW_E1*%
X39680500Y-64530000D03*
D16*
X40180500Y-68280000D03*
D17*
X45180500Y-64530000D03*
D16*
X45180500Y-70480000D03*
D18*
X50400500Y-60330000D03*
D15*
X50680500Y-64530000D03*
%TD*%
D19*
%TO.C,LED2*%
X44263000Y-41775000D03*
X46138000Y-41775000D03*
%TD*%
D15*
%TO.C,SW_C0*%
X77680500Y-43530000D03*
D16*
X78180500Y-47280000D03*
D17*
X83180500Y-43530000D03*
D16*
X83180500Y-49480000D03*
D18*
X88400500Y-39330000D03*
D15*
X88680500Y-43530000D03*
%TD*%
D19*
%TO.C,LED16*%
X82263000Y-74775000D03*
X84138000Y-74775000D03*
%TD*%
%TO.C,LED22*%
X63263000Y-92775000D03*
X65138000Y-92775000D03*
%TD*%
D15*
%TO.C,SW_C3*%
X39680500Y-100530000D03*
D16*
X40180500Y-104280000D03*
D17*
X45180500Y-100530000D03*
D16*
X45180500Y-106480000D03*
D18*
X50400500Y-96330000D03*
D15*
X50680500Y-100530000D03*
%TD*%
%TO.C,SW_B2*%
X96680500Y-82530000D03*
D16*
X97180500Y-86280000D03*
D17*
X102180500Y-82530000D03*
D16*
X102180500Y-88480000D03*
D18*
X107400500Y-78330000D03*
D15*
X107680500Y-82530000D03*
%TD*%
%TO.C,SW_D3*%
X20960500Y-103780000D03*
D16*
X21460500Y-107530000D03*
D17*
X26460500Y-103780000D03*
D16*
X26460500Y-109730000D03*
D18*
X31680500Y-99580000D03*
D15*
X31960500Y-103780000D03*
%TD*%
D29*
%TO.C,TP1*%
X99980500Y-93980000D03*
X102380500Y-93980000D03*
%TD*%
D19*
%TO.C,LED6*%
X120263000Y-44775000D03*
X122138000Y-44775000D03*
%TD*%
D30*
%TO.C,LED19*%
X3602031Y-101951109D03*
X5436057Y-101561275D03*
%TD*%
D19*
%TO.C,LED12*%
X120263000Y-62775000D03*
X122138000Y-62775000D03*
%TD*%
D24*
%TO.C,H2*%
X111158000Y-94778000D03*
%TD*%
D31*
%TO.C,SW4*%
X17027000Y-43058000D03*
X17027000Y-40058000D03*
%TD*%
%LPD*%
M02*
