%TF.GenerationSoftware,KiCad,Pcbnew,7.0.5-0*%
%TF.CreationDate,2023-09-10T21:20:09+09:30*%
%TF.ProjectId,Rolio,526f6c69-6f2e-46b6-9963-61645f706362,rev?*%
%TF.SameCoordinates,Original*%
%TF.FileFunction,Paste,Top*%
%TF.FilePolarity,Positive*%
%FSLAX46Y46*%
G04 Gerber Fmt 4.6, Leading zero omitted, Abs format (unit mm)*
G04 Created by KiCad (PCBNEW 7.0.5-0) date 2023-09-10 21:20:09*
%MOMM*%
%LPD*%
G01*
G04 APERTURE LIST*
G04 Aperture macros list*
%AMRoundRect*
0 Rectangle with rounded corners*
0 $1 Rounding radius*
0 $2 $3 $4 $5 $6 $7 $8 $9 X,Y pos of 4 corners*
0 Add a 4 corners polygon primitive as box body*
4,1,4,$2,$3,$4,$5,$6,$7,$8,$9,$2,$3,0*
0 Add four circle primitives for the rounded corners*
1,1,$1+$1,$2,$3*
1,1,$1+$1,$4,$5*
1,1,$1+$1,$6,$7*
1,1,$1+$1,$8,$9*
0 Add four rect primitives between the rounded corners*
20,1,$1+$1,$2,$3,$4,$5,0*
20,1,$1+$1,$4,$5,$6,$7,0*
20,1,$1+$1,$6,$7,$8,$9,0*
20,1,$1+$1,$8,$9,$2,$3,0*%
G04 Aperture macros list end*
%ADD10RoundRect,0.243750X-0.243750X-0.456250X0.243750X-0.456250X0.243750X0.456250X-0.243750X0.456250X0*%
%ADD11RoundRect,0.250000X-0.325000X-0.450000X0.325000X-0.450000X0.325000X0.450000X-0.325000X0.450000X0*%
%ADD12RoundRect,0.243750X-0.143564X-0.496958X0.333283X-0.395601X0.143564X0.496958X-0.333283X0.395601X0*%
G04 APERTURE END LIST*
D10*
X120902500Y-38775000D03*
X122777500Y-38775000D03*
X120902500Y-74775000D03*
X122777500Y-74775000D03*
X139902500Y-38775000D03*
X141777500Y-38775000D03*
X83182500Y-45025000D03*
X85057500Y-45025000D03*
X83182500Y-81025000D03*
X85057500Y-81025000D03*
X139902500Y-92675000D03*
X141777500Y-92675000D03*
X139902500Y-56775000D03*
X141777500Y-56775000D03*
X158902500Y-77775000D03*
X160777500Y-77775000D03*
X83182500Y-99025000D03*
X85057500Y-99025000D03*
X177902500Y-80775000D03*
X179777500Y-80775000D03*
X101902500Y-59775000D03*
X103777500Y-59775000D03*
X158902500Y-41775000D03*
X160777500Y-41775000D03*
X101902500Y-95775000D03*
X103777500Y-95775000D03*
X158902500Y-59775000D03*
X160777500Y-59775000D03*
X83182500Y-63070000D03*
X85057500Y-63070000D03*
X120902500Y-56775000D03*
X122777500Y-56775000D03*
X101902500Y-77775000D03*
X103777500Y-77775000D03*
X101902500Y-41775000D03*
X103777500Y-41775000D03*
X139902500Y-74775000D03*
X141777500Y-74775000D03*
X120902500Y-92775000D03*
X122777500Y-92775000D03*
D11*
X157620000Y-93980000D03*
X160020000Y-93980000D03*
D10*
X177902500Y-44775000D03*
X179777500Y-44775000D03*
D12*
X61241531Y-101951109D03*
X63075557Y-101561275D03*
D10*
X177902500Y-62775000D03*
X179777500Y-62775000D03*
M02*
