%TF.GenerationSoftware,KiCad,Pcbnew,7.0.5-0*%
%TF.CreationDate,2023-10-17T19:27:59+10:30*%
%TF.ProjectId,Rolio,526f6c69-6f2e-46b6-9963-61645f706362,rev?*%
%TF.SameCoordinates,Original*%
%TF.FileFunction,Soldermask,Bot*%
%TF.FilePolarity,Negative*%
%FSLAX46Y46*%
G04 Gerber Fmt 4.6, Leading zero omitted, Abs format (unit mm)*
G04 Created by KiCad (PCBNEW 7.0.5-0) date 2023-10-17 19:27:59*
%MOMM*%
%LPD*%
G01*
G04 APERTURE LIST*
G04 Aperture macros list*
%AMRoundRect*
0 Rectangle with rounded corners*
0 $1 Rounding radius*
0 $2 $3 $4 $5 $6 $7 $8 $9 X,Y pos of 4 corners*
0 Add a 4 corners polygon primitive as box body*
4,1,4,$2,$3,$4,$5,$6,$7,$8,$9,$2,$3,0*
0 Add four circle primitives for the rounded corners*
1,1,$1+$1,$2,$3*
1,1,$1+$1,$4,$5*
1,1,$1+$1,$6,$7*
1,1,$1+$1,$8,$9*
0 Add four rect primitives between the rounded corners*
20,1,$1+$1,$2,$3,$4,$5,0*
20,1,$1+$1,$4,$5,$6,$7,0*
20,1,$1+$1,$6,$7,$8,$9,0*
20,1,$1+$1,$8,$9,$2,$3,0*%
%AMRotRect*
0 Rectangle, with rotation*
0 The origin of the aperture is its center*
0 $1 length*
0 $2 width*
0 $3 Rotation angle, in degrees counterclockwise*
0 Add horizontal line*
21,1,$1,$2,0,0,$3*%
G04 Aperture macros list end*
%ADD10C,1.701800*%
%ADD11C,3.000000*%
%ADD12C,3.429000*%
%ADD13C,0.990600*%
%ADD14R,2.600000X2.600000*%
%ADD15R,1.700000X1.700000*%
%ADD16O,1.700000X1.700000*%
%ADD17C,1.500000*%
%ADD18C,1.600000*%
%ADD19C,4.300000*%
%ADD20R,1.600000X1.600000*%
%ADD21O,1.600000X1.600000*%
%ADD22RotRect,2.600000X2.600000X12.000000*%
%ADD23R,1.350000X1.350000*%
%ADD24O,1.350000X1.350000*%
%ADD25RoundRect,0.250000X0.262500X0.450000X-0.262500X0.450000X-0.262500X-0.450000X0.262500X-0.450000X0*%
%ADD26RoundRect,0.225000X-0.375000X0.225000X-0.375000X-0.225000X0.375000X-0.225000X0.375000X0.225000X0*%
%ADD27RoundRect,0.250000X0.337500X0.475000X-0.337500X0.475000X-0.337500X-0.475000X0.337500X-0.475000X0*%
%ADD28RoundRect,0.250000X0.450000X-0.262500X0.450000X0.262500X-0.450000X0.262500X-0.450000X-0.262500X0*%
%ADD29R,0.800000X1.000000*%
%ADD30C,0.900000*%
%ADD31R,1.500000X0.700000*%
%ADD32RoundRect,0.250000X-0.337500X-0.475000X0.337500X-0.475000X0.337500X0.475000X-0.337500X0.475000X0*%
%ADD33R,1.000000X1.250000*%
%ADD34RoundRect,0.225000X0.225000X0.375000X-0.225000X0.375000X-0.225000X-0.375000X0.225000X-0.375000X0*%
%ADD35RoundRect,0.150000X0.150000X-0.587500X0.150000X0.587500X-0.150000X0.587500X-0.150000X-0.587500X0*%
G04 APERTURE END LIST*
D10*
%TO.C,SW_B0*%
X96680500Y-46530000D03*
D11*
X97180500Y-50280000D03*
D12*
X102180500Y-46530000D03*
D11*
X102180500Y-52480000D03*
D13*
X107400500Y-42330000D03*
D10*
X107680500Y-46530000D03*
D14*
X105455500Y-52480000D03*
X93905500Y-50280000D03*
%TD*%
D10*
%TO.C,SW_B3*%
X58680500Y-97530000D03*
D11*
X59180500Y-101280000D03*
D12*
X64180500Y-97530000D03*
D11*
X64180500Y-103480000D03*
D13*
X69400500Y-93330000D03*
D10*
X69680500Y-97530000D03*
D14*
X67455500Y-103480000D03*
X55905500Y-101280000D03*
%TD*%
D10*
%TO.C,SW_B4*%
X77680500Y-97530000D03*
D11*
X78180500Y-101280000D03*
D12*
X83180500Y-97530000D03*
D11*
X83180500Y-103480000D03*
D13*
X88400500Y-93330000D03*
D10*
X88680500Y-97530000D03*
D14*
X86455500Y-103480000D03*
X74905500Y-101280000D03*
%TD*%
D10*
%TO.C,SW_C1*%
X77680500Y-61530000D03*
D11*
X78180500Y-65280000D03*
D12*
X83180500Y-61530000D03*
D11*
X83180500Y-67480000D03*
D13*
X88400500Y-57330000D03*
D10*
X88680500Y-61530000D03*
D14*
X86455500Y-67480000D03*
X74905500Y-65280000D03*
%TD*%
D10*
%TO.C,SW_B1*%
X96680500Y-64530000D03*
D11*
X97180500Y-68280000D03*
D12*
X102180500Y-64530000D03*
D11*
X102180500Y-70480000D03*
D13*
X107400500Y-60330000D03*
D10*
X107680500Y-64530000D03*
D14*
X105455500Y-70480000D03*
X93905500Y-68280000D03*
%TD*%
D15*
%TO.C,Nice!View1*%
X6908000Y-74090000D03*
D16*
X4368000Y-74090000D03*
X1828000Y-74090000D03*
X-712000Y-74090000D03*
X-3252000Y-74090000D03*
%TD*%
D10*
%TO.C,SW_F0*%
X20960500Y-49780000D03*
D11*
X21460500Y-53530000D03*
D12*
X26460500Y-49780000D03*
D11*
X26460500Y-55730000D03*
D13*
X31680500Y-45580000D03*
D10*
X31960500Y-49780000D03*
D14*
X29735500Y-55730000D03*
X18185500Y-53530000D03*
%TD*%
D17*
%TO.C,RE_1*%
X-3942000Y-90440000D03*
D18*
X-3942000Y-80330000D03*
X-3942000Y-82870000D03*
X-3942000Y-85410000D03*
X-3942000Y-87950000D03*
X-5167000Y-77940000D03*
X-3317000Y-77940000D03*
%TD*%
D10*
%TO.C,SW_A2*%
X115680500Y-85530000D03*
D11*
X116180500Y-89280000D03*
D12*
X121180500Y-85530000D03*
D11*
X121180500Y-91480000D03*
D13*
X126400500Y-81330000D03*
D10*
X126680500Y-85530000D03*
D14*
X124455500Y-91480000D03*
X112905500Y-89280000D03*
%TD*%
D10*
%TO.C,SW_D1*%
X58680500Y-61530000D03*
D11*
X59180500Y-65280000D03*
D12*
X64180500Y-61530000D03*
D11*
X64180500Y-67480000D03*
D13*
X69400500Y-57330000D03*
D10*
X69680500Y-61530000D03*
D14*
X67455500Y-67480000D03*
X55905500Y-65280000D03*
%TD*%
D19*
%TO.C,H4*%
X17108000Y-94784000D03*
%TD*%
D10*
%TO.C,SW_E2*%
X39680500Y-82530000D03*
D11*
X40180500Y-86280000D03*
D12*
X45180500Y-82530000D03*
D11*
X45180500Y-88480000D03*
D13*
X50400500Y-78330000D03*
D10*
X50680500Y-82530000D03*
D14*
X48455500Y-88480000D03*
X36905500Y-86280000D03*
%TD*%
D10*
%TO.C,SW_D2*%
X58680500Y-79530000D03*
D11*
X59180500Y-83280000D03*
D12*
X64180500Y-79530000D03*
D11*
X64180500Y-85480000D03*
D13*
X69400500Y-75330000D03*
D10*
X69680500Y-79530000D03*
D14*
X67455500Y-85480000D03*
X55905500Y-83280000D03*
%TD*%
D19*
%TO.C,H3*%
X16470000Y-58840000D03*
%TD*%
D10*
%TO.C,SW_E0*%
X39680500Y-46530000D03*
D11*
X40180500Y-50280000D03*
D12*
X45180500Y-46530000D03*
D11*
X45180500Y-52480000D03*
D13*
X50400500Y-42330000D03*
D10*
X50680500Y-46530000D03*
D14*
X48455500Y-52480000D03*
X36905500Y-50280000D03*
%TD*%
D19*
%TO.C,H1*%
X112393000Y-58572000D03*
%TD*%
D20*
%TO.C,NICE_NANO1*%
X-5792000Y-40980000D03*
D21*
X-5792000Y-43520000D03*
X-5792000Y-46060000D03*
X-5792000Y-48600000D03*
X-5792000Y-51140000D03*
X-5792000Y-53680000D03*
X-5792000Y-56220000D03*
X-5792000Y-58760000D03*
X-5792000Y-61300000D03*
X-5792000Y-63840000D03*
X-5792000Y-66380000D03*
X-5792000Y-68920000D03*
X9448000Y-68920000D03*
X9448000Y-66380000D03*
X9448000Y-63840000D03*
X9448000Y-61300000D03*
X9448000Y-58760000D03*
X9448000Y-56220000D03*
X9448000Y-53680000D03*
X9448000Y-51140000D03*
X9448000Y-48600000D03*
X9448000Y-46060000D03*
X9448000Y-43520000D03*
X9448000Y-40980000D03*
%TD*%
D10*
%TO.C,SW_A1*%
X115680500Y-67530000D03*
D11*
X116180500Y-71280000D03*
D12*
X121180500Y-67530000D03*
D11*
X121180500Y-73480000D03*
D13*
X126400500Y-63330000D03*
D10*
X126680500Y-67530000D03*
D14*
X124455500Y-73480000D03*
X112905500Y-71280000D03*
%TD*%
D10*
%TO.C,SW_A0*%
X115680500Y-49530000D03*
D11*
X116180500Y-53280000D03*
D12*
X121180500Y-49530000D03*
D11*
X121180500Y-55480000D03*
D13*
X126400500Y-45330000D03*
D10*
X126680500Y-49530000D03*
D14*
X124455500Y-55480000D03*
X112905500Y-53280000D03*
%TD*%
D19*
%TO.C,H5*%
X73322500Y-70526000D03*
%TD*%
D10*
%TO.C,SW_F2*%
X20960500Y-85780000D03*
D11*
X21460500Y-89530000D03*
D12*
X26460500Y-85780000D03*
D11*
X26460500Y-91730000D03*
D13*
X31680500Y-81580000D03*
D10*
X31960500Y-85780000D03*
D14*
X29735500Y-91730000D03*
X18185500Y-89530000D03*
%TD*%
D10*
%TO.C,SW_D0*%
X58680500Y-43530000D03*
D11*
X59180500Y-47280000D03*
D12*
X64180500Y-43530000D03*
D11*
X64180500Y-49480000D03*
D13*
X69400500Y-39330000D03*
D10*
X69680500Y-43530000D03*
D14*
X67455500Y-49480000D03*
X55905500Y-47280000D03*
%TD*%
D10*
%TO.C,SW_E3*%
X141068Y-107547989D03*
D11*
X1409811Y-111112087D03*
D12*
X5520880Y-106404475D03*
D11*
X6757955Y-112224453D03*
D13*
X9753581Y-101210956D03*
D10*
X10900692Y-105260961D03*
D22*
X9961388Y-111543542D03*
X-1793623Y-111792998D03*
%TD*%
D10*
%TO.C,SW_F1*%
X20960500Y-67825000D03*
D11*
X21460500Y-71575000D03*
D12*
X26460500Y-67825000D03*
D11*
X26460500Y-73775000D03*
D13*
X31680500Y-63625000D03*
D10*
X31960500Y-67825000D03*
D14*
X29735500Y-73775000D03*
X18185500Y-71575000D03*
%TD*%
D10*
%TO.C,SW_C2*%
X77680500Y-79530000D03*
D11*
X78180500Y-83280000D03*
D12*
X83180500Y-79530000D03*
D11*
X83180500Y-85480000D03*
D13*
X88400500Y-75330000D03*
D10*
X88680500Y-79530000D03*
D14*
X86455500Y-85480000D03*
X74905500Y-83280000D03*
%TD*%
D23*
%TO.C,BATT1*%
X18034000Y-48270000D03*
D24*
X18034000Y-50270000D03*
%TD*%
D10*
%TO.C,SW_E1*%
X39680500Y-64530000D03*
D11*
X40180500Y-68280000D03*
D12*
X45180500Y-64530000D03*
D11*
X45180500Y-70480000D03*
D13*
X50400500Y-60330000D03*
D10*
X50680500Y-64530000D03*
D14*
X48455500Y-70480000D03*
X36905500Y-68280000D03*
%TD*%
D10*
%TO.C,SW_C0*%
X77680500Y-43530000D03*
D11*
X78180500Y-47280000D03*
D12*
X83180500Y-43530000D03*
D11*
X83180500Y-49480000D03*
D13*
X88400500Y-39330000D03*
D10*
X88680500Y-43530000D03*
D14*
X86455500Y-49480000D03*
X74905500Y-47280000D03*
%TD*%
D10*
%TO.C,SW_C3*%
X39680500Y-100530000D03*
D11*
X40180500Y-104280000D03*
D12*
X45180500Y-100530000D03*
D11*
X45180500Y-106480000D03*
D13*
X50400500Y-96330000D03*
D10*
X50680500Y-100530000D03*
D14*
X48455500Y-106480000D03*
X36905500Y-104280000D03*
%TD*%
D10*
%TO.C,SW_B2*%
X96680500Y-82530000D03*
D11*
X97180500Y-86280000D03*
D12*
X102180500Y-82530000D03*
D11*
X102180500Y-88480000D03*
D13*
X107400500Y-78330000D03*
D10*
X107680500Y-82530000D03*
D14*
X105455500Y-88480000D03*
X93905500Y-86280000D03*
%TD*%
D10*
%TO.C,SW_D3*%
X20960500Y-103780000D03*
D11*
X21460500Y-107530000D03*
D12*
X26460500Y-103780000D03*
D11*
X26460500Y-109730000D03*
D13*
X31680500Y-99580000D03*
D10*
X31960500Y-103780000D03*
D14*
X29735500Y-109730000D03*
X18185500Y-107530000D03*
%TD*%
D25*
%TO.C,R8*%
X120904000Y-42888000D03*
X119079000Y-42888000D03*
%TD*%
D26*
%TO.C,D17*%
X96266000Y-76416000D03*
X96266000Y-79716000D03*
%TD*%
D27*
%TO.C,C2*%
X2347500Y-85646000D03*
X272500Y-85646000D03*
%TD*%
D19*
%TO.C,H2*%
X111158000Y-94778000D03*
%TD*%
D26*
%TO.C,D10*%
X77216000Y-55334000D03*
X77216000Y-58634000D03*
%TD*%
%TO.C,D13*%
X20574000Y-79592000D03*
X20574000Y-82892000D03*
%TD*%
D25*
%TO.C,R12*%
X83058000Y-54826000D03*
X81233000Y-54826000D03*
%TD*%
D26*
%TO.C,D1*%
X22624500Y-43650000D03*
X22624500Y-46950000D03*
%TD*%
D25*
%TO.C,R10*%
X45212000Y-57366000D03*
X43387000Y-57366000D03*
%TD*%
D26*
%TO.C,D12*%
X112776000Y-65496000D03*
X112776000Y-68796000D03*
%TD*%
%TO.C,D14*%
X39370000Y-76162500D03*
X39370000Y-79462500D03*
%TD*%
D28*
%TO.C,R2*%
X97094000Y-100339000D03*
X97094000Y-98514000D03*
%TD*%
D25*
%TO.C,R21*%
X5098500Y-99060000D03*
X3273500Y-99060000D03*
%TD*%
D26*
%TO.C,D15*%
X58166000Y-73368000D03*
X58166000Y-76668000D03*
%TD*%
D25*
%TO.C,R18*%
X83058000Y-72860000D03*
X81233000Y-72860000D03*
%TD*%
%TO.C,R19*%
X101872500Y-75946000D03*
X100047500Y-75946000D03*
%TD*%
%TO.C,R14*%
X120922500Y-60960000D03*
X119097500Y-60960000D03*
%TD*%
D26*
%TO.C,D3*%
X58166000Y-37428000D03*
X58166000Y-40728000D03*
%TD*%
D25*
%TO.C,R24*%
X64008000Y-90894000D03*
X62183000Y-90894000D03*
%TD*%
D28*
%TO.C,R1*%
X99634000Y-100339000D03*
X99634000Y-98514000D03*
%TD*%
D26*
%TO.C,D22*%
X39370000Y-94454000D03*
X39370000Y-97754000D03*
%TD*%
%TO.C,D23*%
X58420000Y-91402000D03*
X58420000Y-94702000D03*
%TD*%
%TO.C,D11*%
X96266000Y-58382000D03*
X96266000Y-61682000D03*
%TD*%
%TO.C,D7*%
X17780000Y-65114000D03*
X17780000Y-68414000D03*
%TD*%
D29*
%TO.C,SW4*%
X15927000Y-45208000D03*
X18137000Y-45208000D03*
D30*
X17027000Y-43058000D03*
X17027000Y-40058000D03*
D29*
X15927000Y-37908000D03*
X18137000Y-37908000D03*
D31*
X18787000Y-43808000D03*
X18787000Y-40808000D03*
X18787000Y-39308000D03*
%TD*%
D25*
%TO.C,R20*%
X120668500Y-78740000D03*
X118843500Y-78740000D03*
%TD*%
D26*
%TO.C,D20*%
X-762000Y-100674000D03*
X-762000Y-103974000D03*
%TD*%
D25*
%TO.C,R6*%
X82954500Y-36792000D03*
X81129500Y-36792000D03*
%TD*%
D26*
%TO.C,D29*%
X77216000Y-91402000D03*
X77216000Y-94702000D03*
%TD*%
%TO.C,D4*%
X77216000Y-37300000D03*
X77216000Y-40600000D03*
%TD*%
D25*
%TO.C,R4*%
X44873000Y-39078000D03*
X43048000Y-39078000D03*
%TD*%
D32*
%TO.C,C1*%
X273500Y-80566000D03*
X2348500Y-80566000D03*
%TD*%
D33*
%TO.C,RESET1*%
X14292000Y-54282000D03*
X14292000Y-46532000D03*
%TD*%
D26*
%TO.C,D2*%
X39116000Y-40348000D03*
X39116000Y-43648000D03*
%TD*%
%TO.C,D8*%
X39370000Y-58256000D03*
X39370000Y-61556000D03*
%TD*%
D25*
%TO.C,R11*%
X64262000Y-54826000D03*
X62437000Y-54826000D03*
%TD*%
D26*
%TO.C,D18*%
X115316000Y-79464000D03*
X115316000Y-82764000D03*
%TD*%
D25*
%TO.C,R15*%
X25654000Y-78956000D03*
X23829000Y-78956000D03*
%TD*%
%TO.C,R22*%
X25908000Y-96990000D03*
X24083000Y-96990000D03*
%TD*%
D26*
%TO.C,D5*%
X96266000Y-40348000D03*
X96266000Y-43648000D03*
%TD*%
D25*
%TO.C,R7*%
X102004500Y-39840000D03*
X100179500Y-39840000D03*
%TD*%
D26*
%TO.C,D6*%
X115316000Y-43396000D03*
X115316000Y-46696000D03*
%TD*%
%TO.C,D9*%
X58166000Y-55334000D03*
X58166000Y-58634000D03*
%TD*%
D25*
%TO.C,R25*%
X83058000Y-90640000D03*
X81233000Y-90640000D03*
%TD*%
D34*
%TO.C,D19*%
X3192500Y-91234000D03*
X-107500Y-91234000D03*
%TD*%
D35*
%TO.C,Q1*%
X99314000Y-95974000D03*
X97414000Y-95974000D03*
X98364000Y-94099000D03*
%TD*%
D25*
%TO.C,R23*%
X45212000Y-93942000D03*
X43387000Y-93942000D03*
%TD*%
D26*
%TO.C,D21*%
X18034000Y-100928000D03*
X18034000Y-104228000D03*
%TD*%
D25*
%TO.C,R5*%
X64685000Y-36830000D03*
X62860000Y-36830000D03*
%TD*%
D26*
%TO.C,D16*%
X77470000Y-73496000D03*
X77470000Y-76796000D03*
%TD*%
D25*
%TO.C,R17*%
X64008000Y-72860000D03*
X62183000Y-72860000D03*
%TD*%
%TO.C,R16*%
X45212000Y-75146000D03*
X43387000Y-75146000D03*
%TD*%
%TO.C,R9*%
X25654000Y-60668000D03*
X23829000Y-60668000D03*
%TD*%
%TO.C,R3*%
X28617000Y-41910000D03*
X26792000Y-41910000D03*
%TD*%
%TO.C,R13*%
X101854000Y-57874000D03*
X100029000Y-57874000D03*
%TD*%
M02*
