%TF.GenerationSoftware,KiCad,Pcbnew,7.0.5-0*%
%TF.CreationDate,2023-09-10T21:20:09+09:30*%
%TF.ProjectId,Rolio,526f6c69-6f2e-46b6-9963-61645f706362,rev?*%
%TF.SameCoordinates,Original*%
%TF.FileFunction,Soldermask,Bot*%
%TF.FilePolarity,Negative*%
%FSLAX46Y46*%
G04 Gerber Fmt 4.6, Leading zero omitted, Abs format (unit mm)*
G04 Created by KiCad (PCBNEW 7.0.5-0) date 2023-09-10 21:20:09*
%MOMM*%
%LPD*%
G01*
G04 APERTURE LIST*
G04 Aperture macros list*
%AMRoundRect*
0 Rectangle with rounded corners*
0 $1 Rounding radius*
0 $2 $3 $4 $5 $6 $7 $8 $9 X,Y pos of 4 corners*
0 Add a 4 corners polygon primitive as box body*
4,1,4,$2,$3,$4,$5,$6,$7,$8,$9,$2,$3,0*
0 Add four circle primitives for the rounded corners*
1,1,$1+$1,$2,$3*
1,1,$1+$1,$4,$5*
1,1,$1+$1,$6,$7*
1,1,$1+$1,$8,$9*
0 Add four rect primitives between the rounded corners*
20,1,$1+$1,$2,$3,$4,$5,0*
20,1,$1+$1,$4,$5,$6,$7,0*
20,1,$1+$1,$6,$7,$8,$9,0*
20,1,$1+$1,$8,$9,$2,$3,0*%
%AMRotRect*
0 Rectangle, with rotation*
0 The origin of the aperture is its center*
0 $1 length*
0 $2 width*
0 $3 Rotation angle, in degrees counterclockwise*
0 Add horizontal line*
21,1,$1,$2,0,0,$3*%
G04 Aperture macros list end*
%ADD10C,1.701800*%
%ADD11C,3.000000*%
%ADD12C,3.429000*%
%ADD13C,0.990600*%
%ADD14R,2.600000X2.600000*%
%ADD15C,4.300000*%
%ADD16R,1.700000X1.700000*%
%ADD17O,1.700000X1.700000*%
%ADD18C,1.500000*%
%ADD19C,1.600000*%
%ADD20R,1.600000X1.600000*%
%ADD21O,1.600000X1.600000*%
%ADD22RotRect,2.600000X2.600000X12.000000*%
%ADD23R,1.350000X1.350000*%
%ADD24O,1.350000X1.350000*%
%ADD25RoundRect,0.250000X0.262500X0.450000X-0.262500X0.450000X-0.262500X-0.450000X0.262500X-0.450000X0*%
%ADD26RoundRect,0.225000X-0.375000X0.225000X-0.375000X-0.225000X0.375000X-0.225000X0.375000X0.225000X0*%
%ADD27RoundRect,0.250000X0.337500X0.475000X-0.337500X0.475000X-0.337500X-0.475000X0.337500X-0.475000X0*%
%ADD28RoundRect,0.250000X0.450000X-0.262500X0.450000X0.262500X-0.450000X0.262500X-0.450000X-0.262500X0*%
%ADD29R,0.800000X1.000000*%
%ADD30C,0.900000*%
%ADD31R,1.500000X0.700000*%
%ADD32RoundRect,0.250000X-0.337500X-0.475000X0.337500X-0.475000X0.337500X0.475000X-0.337500X0.475000X0*%
%ADD33R,1.000000X1.250000*%
%ADD34RoundRect,0.225000X0.225000X0.375000X-0.225000X0.375000X-0.225000X-0.375000X0.225000X-0.375000X0*%
%ADD35RoundRect,0.150000X0.150000X-0.587500X0.150000X0.587500X-0.150000X0.587500X-0.150000X-0.587500X0*%
G04 APERTURE END LIST*
D10*
X154320000Y-46530000D03*
D11*
X154820000Y-50280000D03*
D12*
X159820000Y-46530000D03*
D11*
X159820000Y-52480000D03*
D13*
X165040000Y-42330000D03*
D10*
X165320000Y-46530000D03*
D14*
X163095000Y-52480000D03*
X151545000Y-50280000D03*
D10*
X116320000Y-97530000D03*
D11*
X116820000Y-101280000D03*
D12*
X121820000Y-97530000D03*
D11*
X121820000Y-103480000D03*
D13*
X127040000Y-93330000D03*
D10*
X127320000Y-97530000D03*
D14*
X125095000Y-103480000D03*
X113545000Y-101280000D03*
D10*
X135320000Y-97530000D03*
D11*
X135820000Y-101280000D03*
D12*
X140820000Y-97530000D03*
D11*
X140820000Y-103480000D03*
D13*
X146040000Y-93330000D03*
D10*
X146320000Y-97530000D03*
D14*
X144095000Y-103480000D03*
X132545000Y-101280000D03*
D15*
X168797500Y-94778000D03*
D10*
X135320000Y-61530000D03*
D11*
X135820000Y-65280000D03*
D12*
X140820000Y-61530000D03*
D11*
X140820000Y-67480000D03*
D13*
X146040000Y-57330000D03*
D10*
X146320000Y-61530000D03*
D14*
X144095000Y-67480000D03*
X132545000Y-65280000D03*
D10*
X154320000Y-64530000D03*
D11*
X154820000Y-68280000D03*
D12*
X159820000Y-64530000D03*
D11*
X159820000Y-70480000D03*
D13*
X165040000Y-60330000D03*
D10*
X165320000Y-64530000D03*
D14*
X163095000Y-70480000D03*
X151545000Y-68280000D03*
D16*
X64547500Y-73280000D03*
D17*
X62007500Y-73280000D03*
X59467500Y-73280000D03*
X56927500Y-73280000D03*
X54387500Y-73280000D03*
D10*
X78600000Y-49780000D03*
D11*
X79100000Y-53530000D03*
D12*
X84100000Y-49780000D03*
D11*
X84100000Y-55730000D03*
D13*
X89320000Y-45580000D03*
D10*
X89600000Y-49780000D03*
D14*
X87375000Y-55730000D03*
X75825000Y-53530000D03*
D18*
X53697500Y-89630000D03*
D19*
X53697500Y-79520000D03*
X53697500Y-82060000D03*
X53697500Y-84600000D03*
X53697500Y-87140000D03*
X52472500Y-77130000D03*
X54322500Y-77130000D03*
D10*
X173320000Y-85530000D03*
D11*
X173820000Y-89280000D03*
D12*
X178820000Y-85530000D03*
D11*
X178820000Y-91480000D03*
D13*
X184040000Y-81330000D03*
D10*
X184320000Y-85530000D03*
D14*
X182095000Y-91480000D03*
X170545000Y-89280000D03*
D10*
X116320000Y-61530000D03*
D11*
X116820000Y-65280000D03*
D12*
X121820000Y-61530000D03*
D11*
X121820000Y-67480000D03*
D13*
X127040000Y-57330000D03*
D10*
X127320000Y-61530000D03*
D14*
X125095000Y-67480000D03*
X113545000Y-65280000D03*
D15*
X74747500Y-94784000D03*
D10*
X97320000Y-82530000D03*
D11*
X97820000Y-86280000D03*
D12*
X102820000Y-82530000D03*
D11*
X102820000Y-88480000D03*
D13*
X108040000Y-78330000D03*
D10*
X108320000Y-82530000D03*
D14*
X106095000Y-88480000D03*
X94545000Y-86280000D03*
D10*
X116320000Y-79530000D03*
D11*
X116820000Y-83280000D03*
D12*
X121820000Y-79530000D03*
D11*
X121820000Y-85480000D03*
D13*
X127040000Y-75330000D03*
D10*
X127320000Y-79530000D03*
D14*
X125095000Y-85480000D03*
X113545000Y-83280000D03*
D15*
X74109500Y-58840000D03*
D10*
X97320000Y-46530000D03*
D11*
X97820000Y-50280000D03*
D12*
X102820000Y-46530000D03*
D11*
X102820000Y-52480000D03*
D13*
X108040000Y-42330000D03*
D10*
X108320000Y-46530000D03*
D14*
X106095000Y-52480000D03*
X94545000Y-50280000D03*
D15*
X170032500Y-58572000D03*
D20*
X51847500Y-40170000D03*
D21*
X51847500Y-42710000D03*
X51847500Y-45250000D03*
X51847500Y-47790000D03*
X51847500Y-50330000D03*
X51847500Y-52870000D03*
X51847500Y-55410000D03*
X51847500Y-57950000D03*
X51847500Y-60490000D03*
X51847500Y-63030000D03*
X51847500Y-65570000D03*
X51847500Y-68110000D03*
X67087500Y-68110000D03*
X67087500Y-65570000D03*
X67087500Y-63030000D03*
X67087500Y-60490000D03*
X67087500Y-57950000D03*
X67087500Y-55410000D03*
X67087500Y-52870000D03*
X67087500Y-50330000D03*
X67087500Y-47790000D03*
X67087500Y-45250000D03*
X67087500Y-42710000D03*
X67087500Y-40170000D03*
D10*
X173320000Y-67530000D03*
D11*
X173820000Y-71280000D03*
D12*
X178820000Y-67530000D03*
D11*
X178820000Y-73480000D03*
D13*
X184040000Y-63330000D03*
D10*
X184320000Y-67530000D03*
D14*
X182095000Y-73480000D03*
X170545000Y-71280000D03*
D10*
X173320000Y-49530000D03*
D11*
X173820000Y-53280000D03*
D12*
X178820000Y-49530000D03*
D11*
X178820000Y-55480000D03*
D13*
X184040000Y-45330000D03*
D10*
X184320000Y-49530000D03*
D14*
X182095000Y-55480000D03*
X170545000Y-53280000D03*
D15*
X130962000Y-70526000D03*
D10*
X78600000Y-85780000D03*
D11*
X79100000Y-89530000D03*
D12*
X84100000Y-85780000D03*
D11*
X84100000Y-91730000D03*
D13*
X89320000Y-81580000D03*
D10*
X89600000Y-85780000D03*
D14*
X87375000Y-91730000D03*
X75825000Y-89530000D03*
D10*
X116320000Y-43530000D03*
D11*
X116820000Y-47280000D03*
D12*
X121820000Y-43530000D03*
D11*
X121820000Y-49480000D03*
D13*
X127040000Y-39330000D03*
D10*
X127320000Y-43530000D03*
D14*
X125095000Y-49480000D03*
X113545000Y-47280000D03*
D10*
X57780568Y-107547989D03*
D11*
X59049311Y-111112087D03*
D12*
X63160380Y-106404475D03*
D11*
X64397455Y-112224453D03*
D13*
X67393081Y-101210956D03*
D10*
X68540192Y-105260961D03*
D22*
X67600888Y-111543542D03*
X55845877Y-111792998D03*
D10*
X78600000Y-67825000D03*
D11*
X79100000Y-71575000D03*
D12*
X84100000Y-67825000D03*
D11*
X84100000Y-73775000D03*
D13*
X89320000Y-63625000D03*
D10*
X89600000Y-67825000D03*
D14*
X87375000Y-73775000D03*
X75825000Y-71575000D03*
D10*
X135320000Y-79530000D03*
D11*
X135820000Y-83280000D03*
D12*
X140820000Y-79530000D03*
D11*
X140820000Y-85480000D03*
D13*
X146040000Y-75330000D03*
D10*
X146320000Y-79530000D03*
D14*
X144095000Y-85480000D03*
X132545000Y-83280000D03*
D23*
X75673500Y-47460000D03*
D24*
X75673500Y-49460000D03*
D10*
X97320000Y-64530000D03*
D11*
X97820000Y-68280000D03*
D12*
X102820000Y-64530000D03*
D11*
X102820000Y-70480000D03*
D13*
X108040000Y-60330000D03*
D10*
X108320000Y-64530000D03*
D14*
X106095000Y-70480000D03*
X94545000Y-68280000D03*
D10*
X135320000Y-43530000D03*
D11*
X135820000Y-47280000D03*
D12*
X140820000Y-43530000D03*
D11*
X140820000Y-49480000D03*
D13*
X146040000Y-39330000D03*
D10*
X146320000Y-43530000D03*
D14*
X144095000Y-49480000D03*
X132545000Y-47280000D03*
D10*
X97320000Y-100530000D03*
D11*
X97820000Y-104280000D03*
D12*
X102820000Y-100530000D03*
D11*
X102820000Y-106480000D03*
D13*
X108040000Y-96330000D03*
D10*
X108320000Y-100530000D03*
D14*
X106095000Y-106480000D03*
X94545000Y-104280000D03*
D10*
X154320000Y-82530000D03*
D11*
X154820000Y-86280000D03*
D12*
X159820000Y-82530000D03*
D11*
X159820000Y-88480000D03*
D13*
X165040000Y-78330000D03*
D10*
X165320000Y-82530000D03*
D14*
X163095000Y-88480000D03*
X151545000Y-86280000D03*
D10*
X78600000Y-103780000D03*
D11*
X79100000Y-107530000D03*
D12*
X84100000Y-103780000D03*
D11*
X84100000Y-109730000D03*
D13*
X89320000Y-99580000D03*
D10*
X89600000Y-103780000D03*
D14*
X87375000Y-109730000D03*
X75825000Y-107530000D03*
D25*
X178543500Y-42888000D03*
X176718500Y-42888000D03*
D26*
X153905500Y-76416000D03*
X153905500Y-79716000D03*
D27*
X59987000Y-84836000D03*
X57912000Y-84836000D03*
D26*
X134855500Y-55334000D03*
X134855500Y-58634000D03*
X78213500Y-79592000D03*
X78213500Y-82892000D03*
D25*
X140697500Y-54826000D03*
X138872500Y-54826000D03*
D26*
X79737500Y-43650000D03*
X79737500Y-46950000D03*
D25*
X102851500Y-57366000D03*
X101026500Y-57366000D03*
D26*
X170415500Y-65496000D03*
X170415500Y-68796000D03*
X97009500Y-76162500D03*
X97009500Y-79462500D03*
D28*
X154733500Y-100339000D03*
X154733500Y-98514000D03*
D25*
X62738000Y-99060000D03*
X60913000Y-99060000D03*
D26*
X115805500Y-73368000D03*
X115805500Y-76668000D03*
D25*
X140697500Y-72860000D03*
X138872500Y-72860000D03*
X159512000Y-75946000D03*
X157687000Y-75946000D03*
X178562000Y-60960000D03*
X176737000Y-60960000D03*
D26*
X115805500Y-37428000D03*
X115805500Y-40728000D03*
D25*
X121647500Y-90894000D03*
X119822500Y-90894000D03*
D28*
X157273500Y-100339000D03*
X157273500Y-98514000D03*
D26*
X97009500Y-94454000D03*
X97009500Y-97754000D03*
X116059500Y-91402000D03*
X116059500Y-94702000D03*
X153905500Y-58382000D03*
X153905500Y-61682000D03*
X75419500Y-65114000D03*
X75419500Y-68414000D03*
D29*
X73566500Y-44348000D03*
X75776500Y-44348000D03*
D30*
X74666500Y-42198000D03*
X74666500Y-39198000D03*
D29*
X73566500Y-37048000D03*
X75776500Y-37048000D03*
D31*
X76426500Y-42948000D03*
X76426500Y-39948000D03*
X76426500Y-38448000D03*
D25*
X178308000Y-78740000D03*
X176483000Y-78740000D03*
D26*
X56877500Y-100674000D03*
X56877500Y-103974000D03*
D25*
X140594000Y-36792000D03*
X138769000Y-36792000D03*
D26*
X134855500Y-91402000D03*
X134855500Y-94702000D03*
X134855500Y-37300000D03*
X134855500Y-40600000D03*
D25*
X102512500Y-39078000D03*
X100687500Y-39078000D03*
D32*
X57913000Y-79756000D03*
X59988000Y-79756000D03*
D33*
X71931500Y-53472000D03*
X71931500Y-45722000D03*
D26*
X96755500Y-40348000D03*
X96755500Y-43648000D03*
X97009500Y-58256000D03*
X97009500Y-61556000D03*
D25*
X121901500Y-54826000D03*
X120076500Y-54826000D03*
D26*
X172955500Y-79464000D03*
X172955500Y-82764000D03*
D25*
X83293500Y-78956000D03*
X81468500Y-78956000D03*
X83547500Y-96990000D03*
X81722500Y-96990000D03*
D26*
X153905500Y-40348000D03*
X153905500Y-43648000D03*
D25*
X159644000Y-39840000D03*
X157819000Y-39840000D03*
D26*
X172955500Y-43396000D03*
X172955500Y-46696000D03*
X115805500Y-55334000D03*
X115805500Y-58634000D03*
D25*
X140697500Y-90640000D03*
X138872500Y-90640000D03*
D34*
X60832000Y-90424000D03*
X57532000Y-90424000D03*
D35*
X156953500Y-95974000D03*
X155053500Y-95974000D03*
X156003500Y-94099000D03*
D25*
X102851500Y-93942000D03*
X101026500Y-93942000D03*
D26*
X75673500Y-100928000D03*
X75673500Y-104228000D03*
D25*
X121393500Y-36068000D03*
X119568500Y-36068000D03*
D26*
X135109500Y-73496000D03*
X135109500Y-76796000D03*
D25*
X121647500Y-72860000D03*
X119822500Y-72860000D03*
X102851500Y-75146000D03*
X101026500Y-75146000D03*
X83293500Y-60668000D03*
X81468500Y-60668000D03*
X84224500Y-41910000D03*
X82399500Y-41910000D03*
X159493500Y-57874000D03*
X157668500Y-57874000D03*
M02*
