M48
; DRILL file {KiCad 7.0.5-0} date 2023 September 10, Sunday 21:20:11
; FORMAT={-:-/ absolute / metric / decimal}
; #@! TF.CreationDate,2023-09-10T21:20:11+09:30
; #@! TF.GenerationSoftware,Kicad,Pcbnew,7.0.5-0
; #@! TF.FileFunction,Plated,1,2,PTH
FMAT,2
METRIC
; #@! TA.AperFunction,Plated,PTH,ViaDrill
T1C0.400
; #@! TA.AperFunction,Plated,PTH,ComponentDrill
T2C0.800
; #@! TA.AperFunction,Plated,PTH,ComponentDrill
T3C0.900
; #@! TA.AperFunction,Plated,PTH,ComponentDrill
T4C1.000
%
G90
G05
T1
X49.53Y-40.386
X50.8Y-89.408
X52.832Y-38.1
X53.594Y-93.713
X55.372Y-97.536
X56.642Y-76.962
X57.912Y-76.962
X59.436Y-101.6
X59.944Y-88.138
X61.976Y-77.978
X62.23Y-79.756
X62.738Y-94.488
X64.77Y-97.79
X67.056Y-93.472
X67.056Y-96.266
X67.818Y-70.485
X67.818Y-71.882
X67.818Y-73.406
X70.104Y-50.292
X70.612Y-48.006
X72.39Y-63.5
X73.406Y-81.788
X74.676Y-98.044
X78.232Y-76.962
X79.502Y-62.484
X80.772Y-94.996
X81.534Y-37.846
X81.534Y-39.624
X81.534Y-62.738
X81.534Y-80.772
X81.534Y-98.552
X81.788Y-44.704
X84.836Y-77.978
X85.344Y-95.758
X85.598Y-40.894
X86.868Y-60.198
X87.375Y-66.548
X93.98Y-57.15
X97.028Y-73.406
X98.044Y-55.372
X98.298Y-91.694
X100.076Y-59.436
X100.33Y-77.47
X100.33Y-95.758
X100.584Y-41.402
X104.14Y-56.388
X104.14Y-92.71
X104.394Y-38.1
X104.394Y-74.422
X111.252Y-51.562
X112.776Y-72.898
X113.538Y-52.832
X115.824Y-70.866
X116.84Y-88.9
X117.094Y-52.832
X118.872Y-38.354
X118.872Y-74.422
X118.872Y-92.456
X119.126Y-56.642
X123.19Y-35.306
X123.19Y-53.848
X123.19Y-71.882
X123.698Y-89.662
X131.064Y-92.964
X133.604Y-88.646
X136.144Y-52.578
X136.906Y-70.866
X137.414Y-92.202
X137.922Y-38.608
X137.922Y-56.642
X137.922Y-74.422
X141.986Y-53.848
X142.24Y-71.882
X142.24Y-89.408
X142.748Y-35.306
X143.002Y-46.228
X147.066Y-89.408
X148.844Y-73.406
X149.606Y-89.408
X149.86Y-43.434
X149.86Y-58.166
X149.86Y-61.722
X153.416Y-91.694
X154.432Y-55.626
X154.432Y-73.914
X155.448Y-102.362
X156.464Y-59.436
X156.464Y-62.738
X156.718Y-41.656
X156.718Y-77.47
X160.782Y-56.896
X161.036Y-38.862
X161.29Y-74.676
X165.862Y-67.31
X166.624Y-73.66
X168.402Y-79.248
X174.244Y-76.2
X175.514Y-44.45
X175.514Y-80.518
X175.768Y-62.484
X179.578Y-77.47
X179.832Y-59.69
X180.086Y-41.91
X184.15Y-59.69
X184.404Y-77.47
T2
X51.847Y-40.17
X51.847Y-42.71
X51.847Y-45.25
X51.847Y-47.79
X51.847Y-50.33
X51.847Y-52.87
X51.847Y-55.41
X51.847Y-57.95
X51.847Y-60.49
X51.847Y-63.03
X51.847Y-65.57
X51.847Y-68.11
X67.087Y-40.17
X67.087Y-42.71
X67.087Y-45.25
X67.087Y-47.79
X67.087Y-50.33
X67.087Y-52.87
X67.087Y-55.41
X67.087Y-57.95
X67.087Y-60.49
X67.087Y-63.03
X67.087Y-65.57
X67.087Y-68.11
X75.673Y-47.46
X75.673Y-49.46
T3
X52.472Y-77.13
X53.697Y-79.52
X53.697Y-82.06
X53.697Y-84.6
X53.697Y-87.14
X54.322Y-77.13
T4
X54.387Y-73.28
X56.927Y-73.28
X59.467Y-73.28
X62.008Y-73.28
X64.547Y-73.28
T0
M30
