M48
; DRILL file {KiCad 7.0.5-0} date 2023 October 17, Tuesday 19:27:59
; FORMAT={-:-/ absolute / inch / decimal}
; #@! TF.CreationDate,2023-10-17T19:27:59+10:30
; #@! TF.GenerationSoftware,Kicad,Pcbnew,7.0.5-0
; #@! TF.FileFunction,NonPlated,1,2,NPTH
FMAT,2
INCH
; #@! TA.AperFunction,NonPlated,NPTH,ComponentDrill
T1C0.0354
; #@! TA.AperFunction,NonPlated,NPTH,ComponentDrill
T2C0.0390
; #@! TA.AperFunction,NonPlated,NPTH,ComponentDrill
T3C0.0591
; #@! TA.AperFunction,NonPlated,NPTH,ComponentDrill
T4C0.0670
; #@! TA.AperFunction,NonPlated,NPTH,ComponentDrill
T5C0.1181
; #@! TA.AperFunction,NonPlated,NPTH,ComponentDrill
T6C0.1350
; #@! TA.AperFunction,NonPlated,NPTH,ComponentDrill
T7C0.1693
%
G90
G05
T1
X0.6704Y-1.5771
X0.6704Y-1.6952
T2
X0.384Y-3.9847
X1.2473Y-1.7945
X1.2473Y-2.5049
X1.2473Y-3.2118
X1.2473Y-3.9205
X1.9843Y-1.6665
X1.9843Y-2.3752
X1.9843Y-3.0839
X1.9843Y-3.7925
X2.7323Y-1.5484
X2.7323Y-2.2571
X2.7323Y-2.9657
X2.7323Y-3.6744
X3.4803Y-1.5484
X3.4803Y-2.2571
X3.4803Y-2.9657
X3.4803Y-3.6744
X4.2284Y-1.6665
X4.2284Y-2.3752
X4.2284Y-3.0839
X4.9764Y-1.7846
X4.9764Y-2.4933
X4.9764Y-3.202
T3
X-0.1552Y-3.5606
T4
X0.0056Y-4.2342
X0.4292Y-4.1441
X0.8252Y-1.9598
X0.8252Y-2.6703
X0.8252Y-3.3772
X0.8252Y-4.0858
X1.2583Y-1.9598
X1.2583Y-2.6703
X1.2583Y-3.3772
X1.2583Y-4.0858
X1.5622Y-1.8319
X1.5622Y-2.5406
X1.5622Y-3.2492
X1.5622Y-3.9579
X1.9953Y-1.8319
X1.9953Y-2.5406
X1.9953Y-3.2492
X1.9953Y-3.9579
X2.3103Y-1.7138
X2.3103Y-2.4224
X2.3103Y-3.1311
X2.3103Y-3.8398
X2.7433Y-1.7138
X2.7433Y-2.4224
X2.7433Y-3.1311
X2.7433Y-3.8398
X3.0583Y-1.7138
X3.0583Y-2.4224
X3.0583Y-3.1311
X3.0583Y-3.8398
X3.4914Y-1.7138
X3.4914Y-2.4224
X3.4914Y-3.1311
X3.4914Y-3.8398
X3.8063Y-1.8319
X3.8063Y-2.5406
X3.8063Y-3.2492
X4.2394Y-1.8319
X4.2394Y-2.5406
X4.2394Y-3.2492
X4.5544Y-1.95
X4.5544Y-2.6587
X4.5544Y-3.3673
X4.9874Y-1.95
X4.9874Y-2.6587
X4.9874Y-3.3673
T5
X0.0555Y-4.3745
X0.2661Y-4.4183
X0.8449Y-2.1075
X0.8449Y-2.8179
X0.8449Y-3.5248
X0.8449Y-4.2335
X1.0418Y-2.1941
X1.0418Y-2.9045
X1.0418Y-3.6114
X1.0418Y-4.3201
X1.5819Y-1.9795
X1.5819Y-2.6882
X1.5819Y-3.3969
X1.5819Y-4.1055
X1.7788Y-2.0661
X1.7788Y-2.7748
X1.7788Y-3.4835
X1.7788Y-4.1921
X2.3299Y-1.8614
X2.3299Y-2.5701
X2.3299Y-3.2787
X2.3299Y-3.9874
X2.5268Y-1.948
X2.5268Y-2.6567
X2.5268Y-3.3654
X2.5268Y-4.074
X3.078Y-1.8614
X3.078Y-2.5701
X3.078Y-3.2787
X3.078Y-3.9874
X3.2748Y-1.948
X3.2748Y-2.6567
X3.2748Y-3.3654
X3.2748Y-4.074
X3.826Y-1.9795
X3.826Y-2.6882
X3.826Y-3.3969
X4.0229Y-2.0661
X4.0229Y-2.7748
X4.0229Y-3.4835
X4.574Y-2.0976
X4.574Y-2.8063
X4.574Y-3.515
X4.7709Y-2.1843
X4.7709Y-2.8929
X4.7709Y-3.6016
T6
X0.2174Y-4.1892
X1.0418Y-1.9598
X1.0418Y-2.6703
X1.0418Y-3.3772
X1.0418Y-4.0858
X1.7788Y-1.8319
X1.7788Y-2.5406
X1.7788Y-3.2492
X1.7788Y-3.9579
X2.5268Y-1.7138
X2.5268Y-2.4224
X2.5268Y-3.1311
X2.5268Y-3.8398
X3.2748Y-1.7138
X3.2748Y-2.4224
X3.2748Y-3.1311
X3.2748Y-3.8398
X4.0229Y-1.8319
X4.0229Y-2.5406
X4.0229Y-3.2492
X4.7709Y-1.95
X4.7709Y-2.6587
X4.7709Y-3.3673
T7
X0.6484Y-2.3165
X0.6735Y-3.7317
X2.8867Y-2.7766
X4.3763Y-3.7314
X4.4249Y-2.306
T0
M30
