%TF.GenerationSoftware,KiCad,Pcbnew,7.0.5-0*%
%TF.CreationDate,2023-10-17T19:27:59+10:30*%
%TF.ProjectId,Rolio,526f6c69-6f2e-46b6-9963-61645f706362,rev?*%
%TF.SameCoordinates,Original*%
%TF.FileFunction,Profile,NP*%
%FSLAX46Y46*%
G04 Gerber Fmt 4.6, Leading zero omitted, Abs format (unit mm)*
G04 Created by KiCad (PCBNEW 7.0.5-0) date 2023-10-17 19:27:59*
%MOMM*%
%LPD*%
G01*
G04 APERTURE LIST*
%TA.AperFunction,Profile*%
%ADD10C,0.150000*%
%TD*%
%TA.AperFunction,Profile*%
%ADD11C,0.050000*%
%TD*%
G04 APERTURE END LIST*
D10*
X8183000Y-41965000D02*
X8183000Y-71175000D01*
X-10342023Y-94447327D02*
G75*
G03*
X-8903473Y-96980694I2950023J27D01*
G01*
X57077770Y-34104994D02*
G75*
G03*
X56617845Y-34141074I30J-2949806D01*
G01*
X90168779Y-34105000D02*
X57077770Y-34105000D01*
X37262922Y-37105002D02*
G75*
G03*
X38408836Y-37015122I78J7348802D01*
G01*
X8183000Y-41965000D02*
G75*
G03*
X7583000Y-41365000I-600000J0D01*
G01*
X-5666277Y-101504148D02*
X-2841051Y-114795795D01*
X657824Y-117067991D02*
X18076129Y-113365616D01*
X56617845Y-34141074D02*
X38408836Y-37015123D01*
X19604280Y-113205000D02*
X35991063Y-113205000D01*
X131117400Y-43052576D02*
X131117400Y-92017493D01*
X131117422Y-43052576D02*
G75*
G03*
X128627325Y-40138651I-2950022J-24D01*
G01*
X-4517000Y-71175000D02*
X-4517000Y-41965000D01*
X90176250Y-106954991D02*
G75*
G03*
X91063934Y-106818274I-50J2950491D01*
G01*
X129055094Y-94830799D02*
G75*
G03*
X131117400Y-92017493I-887594J2813199D01*
G01*
X129055084Y-94830768D02*
X91063934Y-106818275D01*
X90628703Y-34141080D02*
G75*
G03*
X90168779Y-34105000I-459903J-2913120D01*
G01*
X-3917000Y-41365000D02*
X7583000Y-41365000D01*
X19604280Y-113204999D02*
G75*
G03*
X18076129Y-113365616I20J-7350101D01*
G01*
X-7392000Y-37105000D02*
G75*
G03*
X-10342000Y-40055000I70J-2950070D01*
G01*
X128627325Y-40138650D02*
X90628704Y-34141074D01*
X37262922Y-37105000D02*
X-7392000Y-37105000D01*
X7583000Y-71775000D02*
G75*
G03*
X8183000Y-71175000I0J600000D01*
G01*
X35991063Y-113205004D02*
G75*
G03*
X36457549Y-113167884I-63J2950504D01*
G01*
X74675205Y-107047477D02*
X36457549Y-113167884D01*
X75837469Y-106955004D02*
G75*
G03*
X74675205Y-107047477I-69J-7349396D01*
G01*
X-5666298Y-101504152D02*
G75*
G03*
X-8903473Y-96980694I-6798102J-1444948D01*
G01*
X75837469Y-106955000D02*
X90176250Y-106955000D01*
X-10342000Y-94447327D02*
X-10342000Y-40055000D01*
X-3917000Y-41365000D02*
G75*
G03*
X-4517000Y-41965000I0J-600000D01*
G01*
X-4517000Y-71175000D02*
G75*
G03*
X-3917000Y-71775000I600000J0D01*
G01*
X-2841075Y-114795800D02*
G75*
G03*
X657824Y-117067991I2885575J613400D01*
G01*
X-3917000Y-71775000D02*
X7583000Y-71775000D01*
D11*
%TO.C,RE_1*%
X8983000Y-77840000D02*
X8983000Y-91440000D01*
X9283000Y-91740000D02*
X11383000Y-91740000D01*
X11383000Y-77540000D02*
X9283000Y-77540000D01*
X11683000Y-91440000D02*
X11683000Y-77840000D01*
X9283000Y-77540000D02*
G75*
G03*
X8983000Y-77840000I0J-300000D01*
G01*
X8983000Y-91440000D02*
G75*
G03*
X9283000Y-91740000I300000J0D01*
G01*
X11683000Y-77840000D02*
G75*
G03*
X11383000Y-77540000I-300000J0D01*
G01*
X11383000Y-91740000D02*
G75*
G03*
X11683000Y-91440000I0J300000D01*
G01*
%TD*%
M02*
