M48
; DRILL file {KiCad 7.0.5-0} date 2023 September 10, Sunday 21:20:11
; FORMAT={-:-/ absolute / metric / decimal}
; #@! TF.CreationDate,2023-09-10T21:20:11+09:30
; #@! TF.GenerationSoftware,Kicad,Pcbnew,7.0.5-0
; #@! TF.FileFunction,NonPlated,1,2,NPTH
FMAT,2
METRIC
; #@! TA.AperFunction,NonPlated,NPTH,ComponentDrill
T1C0.900
; #@! TA.AperFunction,NonPlated,NPTH,ComponentDrill
T2C0.991
; #@! TA.AperFunction,NonPlated,NPTH,ComponentDrill
T3C1.500
; #@! TA.AperFunction,NonPlated,NPTH,ComponentDrill
T4C1.702
; #@! TA.AperFunction,NonPlated,NPTH,ComponentDrill
T5C3.000
; #@! TA.AperFunction,NonPlated,NPTH,ComponentDrill
T6C3.429
; #@! TA.AperFunction,NonPlated,NPTH,ComponentDrill
T7C4.300
%
G90
G05
T1
X74.666Y-39.198
X74.666Y-42.198
T2
X67.393Y-101.211
X89.32Y-45.58
X89.32Y-63.625
X89.32Y-81.58
X89.32Y-99.58
X108.04Y-42.33
X108.04Y-60.33
X108.04Y-78.33
X108.04Y-96.33
X127.04Y-39.33
X127.04Y-57.33
X127.04Y-75.33
X127.04Y-93.33
X146.04Y-39.33
X146.04Y-57.33
X146.04Y-75.33
X146.04Y-93.33
X165.04Y-42.33
X165.04Y-60.33
X165.04Y-78.33
X184.04Y-45.33
X184.04Y-63.33
X184.04Y-81.33
T3
X53.697Y-89.63
T4
X57.781Y-107.548
X68.54Y-105.261
X78.6Y-49.78
X78.6Y-67.825
X78.6Y-85.78
X78.6Y-103.78
X89.6Y-49.78
X89.6Y-67.825
X89.6Y-85.78
X89.6Y-103.78
X97.32Y-46.53
X97.32Y-64.53
X97.32Y-82.53
X97.32Y-100.53
X108.32Y-46.53
X108.32Y-64.53
X108.32Y-82.53
X108.32Y-100.53
X116.32Y-43.53
X116.32Y-61.53
X116.32Y-79.53
X116.32Y-97.53
X127.32Y-43.53
X127.32Y-61.53
X127.32Y-79.53
X127.32Y-97.53
X135.32Y-43.53
X135.32Y-61.53
X135.32Y-79.53
X135.32Y-97.53
X146.32Y-43.53
X146.32Y-61.53
X146.32Y-79.53
X146.32Y-97.53
X154.32Y-46.53
X154.32Y-64.53
X154.32Y-82.53
X165.32Y-46.53
X165.32Y-64.53
X165.32Y-82.53
X173.32Y-49.53
X173.32Y-67.53
X173.32Y-85.53
X184.32Y-49.53
X184.32Y-67.53
X184.32Y-85.53
T5
X59.049Y-111.112
X64.397Y-112.224
X79.1Y-53.53
X79.1Y-71.575
X79.1Y-89.53
X79.1Y-107.53
X84.1Y-55.73
X84.1Y-73.775
X84.1Y-91.73
X84.1Y-109.73
X97.82Y-50.28
X97.82Y-68.28
X97.82Y-86.28
X97.82Y-104.28
X102.82Y-52.48
X102.82Y-70.48
X102.82Y-88.48
X102.82Y-106.48
X116.82Y-47.28
X116.82Y-65.28
X116.82Y-83.28
X116.82Y-101.28
X121.82Y-49.48
X121.82Y-67.48
X121.82Y-85.48
X121.82Y-103.48
X135.82Y-47.28
X135.82Y-65.28
X135.82Y-83.28
X135.82Y-101.28
X140.82Y-49.48
X140.82Y-67.48
X140.82Y-85.48
X140.82Y-103.48
X154.82Y-50.28
X154.82Y-68.28
X154.82Y-86.28
X159.82Y-52.48
X159.82Y-70.48
X159.82Y-88.48
X173.82Y-53.28
X173.82Y-71.28
X173.82Y-89.28
X178.82Y-55.48
X178.82Y-73.48
X178.82Y-91.48
T6
X63.16Y-106.404
X84.1Y-49.78
X84.1Y-67.825
X84.1Y-85.78
X84.1Y-103.78
X102.82Y-46.53
X102.82Y-64.53
X102.82Y-82.53
X102.82Y-100.53
X121.82Y-43.53
X121.82Y-61.53
X121.82Y-79.53
X121.82Y-97.53
X140.82Y-43.53
X140.82Y-61.53
X140.82Y-79.53
X140.82Y-97.53
X159.82Y-46.53
X159.82Y-64.53
X159.82Y-82.53
X178.82Y-49.53
X178.82Y-67.53
X178.82Y-85.53
T7
X74.109Y-58.84
X74.748Y-94.784
X130.962Y-70.526
X168.797Y-94.778
X170.032Y-58.572
T0
M30
